<svg width="10" height="10" viewBox="0 0 10 10" fill="none" xmlns="http://www.w3.org/2000/svg">
<path d="M6.05752 4.9999L9.28251 1.7824C9.42374 1.64117 9.50308 1.44962 9.50308 1.2499C9.50308 1.05017 9.42374 0.858623 9.28251 0.717395C9.14129 0.576167 8.94974 0.496826 8.75002 0.496826C8.55029 0.496826 8.35874 0.576167 8.21752 0.717395L5.00002 3.9424L1.78252 0.717395C1.64129 0.576167 1.44974 0.496826 1.25002 0.496826C1.05029 0.496826 0.858743 0.576167 0.717515 0.717395C0.576287 0.858623 0.496946 1.05017 0.496946 1.2499C0.496946 1.44962 0.576287 1.64117 0.717515 1.7824L3.94252 4.9999L0.717515 8.2174C0.647219 8.28712 0.591423 8.37007 0.553347 8.46146C0.51527 8.55286 0.495667 8.65089 0.495667 8.7499C0.495667 8.8489 0.51527 8.94693 0.553347 9.03833C0.591423 9.12972 0.647219 9.21267 0.717515 9.28239C0.787237 9.35269 0.870188 9.40849 0.961583 9.44656C1.05298 9.48464 1.15101 9.50424 1.25002 9.50424C1.34902 9.50424 1.44705 9.48464 1.53845 9.44656C1.62984 9.40849 1.71279 9.35269 1.78252 9.28239L5.00002 6.0574L8.21752 9.28239C8.28724 9.35269 8.37019 9.40849 8.46158 9.44656C8.55298 9.48464 8.65101 9.50424 8.75002 9.50424C8.84902 9.50424 8.94705 9.48464 9.03845 9.44656C9.12984 9.40849 9.21279 9.35269 9.28251 9.28239C9.35281 9.21267 9.40861 9.12972 9.44668 9.03833C9.48476 8.94693 9.50436 8.8489 9.50436 8.7499C9.50436 8.65089 9.48476 8.55286 9.44668 8.46146C9.40861 8.37007 9.35281 8.28712 9.28251 8.2174L6.05752 4.9999Z" fill="#CACFD7"/>
</svg>
