<svg width="363" height="471" viewBox="0 0 363 471" fill="none" xmlns="http://www.w3.org/2000/svg">
<path d="M179.14 76.712C108.674 48.6437 100.58 25.5707 105.342 0C68.1495 32.9351 68.0228 107.68 72.6084 140.936C75.3923 189.796 126.767 242.029 210.683 261.059C277.816 276.282 297.377 318.543 298.766 337.771C298.766 240.245 270.794 239.651 266.032 227.757C262.223 218.243 185.092 171.066 147.002 148.667C129.862 140.104 114.467 116.555 108.913 105.851C136.528 137.725 177.156 156.001 194.019 161.155C225.562 168.291 311.264 207.539 319.001 279.493C326.738 351.448 302.336 401.4 237.465 435.296C185.568 462.413 124.188 446.595 99.9853 435.296C29.9956 406.769 4.16608 326.677 0 290.197C4.2851 369.645 50.5878 416.861 73.2035 430.539C128.91 473.831 192.829 473.949 217.825 468.597C371.136 429.112 373.358 296.342 355.305 234.893C332.927 146.407 229.133 93.1645 179.14 76.712Z" fill="#CACFD7"/>
</svg>
