<svg width="15" height="15" viewBox="0 0 15 15" fill="none" xmlns="http://www.w3.org/2000/svg">
<path d="M10.4008 8.11099C5.8255 8.45619 6.03798 10.6568 6.03798 11.6061C6.03798 11.6061 5.99549 14.4539 8.81434 14.6841C11.5142 14.9045 13.4038 12.3252 13.4038 12.3252C16.4975 7.79169 14.3931 4.06332 12.9436 2.64419C14.5159 5.33383 12.5681 8.11099 10.4008 8.11099Z" fill="#CACFD7"/>
<path d="M6.59679 4.78461C9.50813 8.1309 10.9495 7.34819 11.7592 6.87355C11.7592 6.87355 14.2093 5.48699 12.9962 2.89315C11.8343 0.408847 8.68961 0.0367779 8.68961 0.0367779C3.27613 -0.416864 0.951567 3.43821 0.465972 5.42246C1.9738 2.69501 4.96637 3.12048 6.59679 4.78461Z" fill="#CACFD7"/>
<path d="M5.57835 9.78708C7.5716 5.59114 5.64181 4.48886 4.96637 4.05134C4.96637 4.05134 2.37114 2.74174 0.765439 5.10545C-0.772458 7.36934 0.482532 10.3207 0.482532 10.3207C2.80236 15.3079 7.28184 15.3179 9.21699 14.7528C6.13684 14.7906 4.49473 11.6929 5.57835 9.78708Z" fill="#CACFD7"/>
</svg>
