<svg width="27" height="26" viewBox="0 0 27 26" fill="none" xmlns="http://www.w3.org/2000/svg">
<g clip-path="url(#clip0)">
<path d="M5.16017 21.0508C4.92506 20.8018 4.64409 20.5952 4.33094 20.4411C4.00857 20.2808 3.65702 20.1797 3.29488 20.1432C3.24336 20.1358 3.19138 20.1318 3.13929 20.1311H2.95624C2.37569 20.1242 1.80652 20.2836 1.32341 20.5884C0.852298 20.8841 0.479663 21.3004 0.248905 21.7887C0.170399 21.9619 0.109117 22.1417 0.0658544 22.3257C-0.0231695 22.6998 -0.0231695 23.0879 0.0658544 23.462C0.109039 23.6465 0.170321 23.8269 0.248905 24.0007C0.483532 24.4844 0.855524 24.897 1.32341 25.1924C1.80479 25.4996 2.37384 25.6603 2.95441 25.6531C3.17969 25.6543 3.4044 25.6316 3.62437 25.5856C3.83001 25.5392 4.03046 25.4743 4.22295 25.3916L4.30898 25.3465C4.35329 25.3214 4.39985 25.2999 4.4481 25.2824L4.57624 25.2357L4.64213 25.3309C4.70227 25.4292 4.78883 25.5106 4.89301 25.5669C4.99719 25.6231 5.11526 25.6523 5.23521 25.6514C5.41671 25.6506 5.59073 25.5829 5.7203 25.4626C5.78901 25.4068 5.84432 25.3378 5.88252 25.2601C5.92072 25.1824 5.94093 25.0979 5.9418 25.0122V22.8921C5.93916 22.5503 5.86706 22.2122 5.72945 21.8961C5.59233 21.5855 5.39976 21.2996 5.16017 21.0508ZM4.40233 23.4758C4.32147 23.6504 4.20659 23.8091 4.06369 23.9435C3.91977 24.0776 3.74934 24.1835 3.56214 24.2553C3.36746 24.3304 3.15913 24.3686 2.94891 24.3679C2.74693 24.3676 2.5473 24.3269 2.36314 24.2484C2.17988 24.1718 2.01205 24.0657 1.86708 23.9348C1.72034 23.8015 1.60116 23.6435 1.51563 23.4689C1.42573 23.2879 1.37945 23.0903 1.38016 22.8904C1.38048 22.6957 1.42415 22.5033 1.5083 22.3257C1.59074 22.1491 1.70747 21.9887 1.85243 21.8528C1.99638 21.7177 2.1651 21.6086 2.35034 21.5306C2.53966 21.4522 2.74408 21.4117 2.95074 21.4117C3.1574 21.4117 3.36183 21.4522 3.55115 21.5306C3.73926 21.6074 3.91059 21.7166 4.05637 21.8528C4.20129 21.9887 4.31802 22.1491 4.4005 22.3257C4.48465 22.5033 4.52832 22.6957 4.52864 22.8904C4.53105 23.0935 4.48801 23.2948 4.40233 23.481V23.4758Z" fill="#444546"/>
<path d="M10.0276 20.1449C9.64056 20.1587 9.25929 20.2379 8.90179 20.3788C8.55811 20.5133 8.24351 20.7064 7.97372 20.9487C7.71254 21.191 7.50201 21.4778 7.35317 21.7939C7.19578 22.1164 7.11517 22.4676 7.11704 22.8228V25.0296C7.1139 25.1155 7.12987 25.201 7.16393 25.2807C7.19799 25.3604 7.24937 25.4324 7.31474 25.4921C7.37605 25.5494 7.44905 25.5943 7.52929 25.6241C7.60954 25.6539 7.69536 25.6679 7.78152 25.6653C7.9645 25.6749 8.14408 25.6157 8.28124 25.5007C8.34548 25.4483 8.39752 25.3838 8.43407 25.3113C8.47062 25.2389 8.49089 25.1601 8.49359 25.0798V22.9042C8.48832 22.7023 8.52824 22.5016 8.61073 22.3153C8.6891 22.1411 8.80151 21.9824 8.94205 21.8476C9.08642 21.7118 9.25782 21.6043 9.44634 21.5315C9.63485 21.4586 9.83674 21.4218 10.0404 21.4233C10.2263 21.4208 10.4044 21.3514 10.5383 21.2293C10.6019 21.1731 10.6524 21.1049 10.6864 21.0291C10.7205 20.9533 10.7373 20.8716 10.736 20.7893C10.7238 20.6158 10.645 20.4526 10.5145 20.3303C10.4512 20.2692 10.3753 20.2212 10.2915 20.1893C10.2077 20.1574 10.1178 20.1423 10.0276 20.1449Z" fill="#444546"/>
<path d="M16.9817 24.1847C16.945 24.1117 16.8919 24.0472 16.8261 23.9959C16.6914 23.8795 16.5141 23.8174 16.3318 23.8227H16.319C16.136 23.8195 15.9584 23.8813 15.8211 23.9959C15.6887 24.116 15.5309 24.2081 15.358 24.2661C15.1577 24.3301 14.947 24.36 14.7356 24.3544C14.5191 24.3555 14.3047 24.3142 14.1059 24.2332C13.9161 24.1557 13.7448 24.0425 13.6025 23.9006C13.4728 23.7596 13.3723 23.5969 13.306 23.4208C13.2364 23.2372 13.2066 23.0422 13.2181 22.8475V21.4254H14.7741C14.863 21.4243 14.9508 21.4057 15.0318 21.3708C15.1127 21.3359 15.1852 21.2855 15.2445 21.2227C15.31 21.1647 15.3627 21.095 15.3994 21.0175C15.436 20.94 15.456 20.8564 15.458 20.7715C15.4601 20.6867 15.4442 20.6023 15.4113 20.5233C15.3784 20.4443 15.3291 20.3723 15.2665 20.3116C15.203 20.2501 15.1259 20.2027 15.0408 20.1727C14.9556 20.1428 14.8646 20.1311 14.7741 20.1384H13.2181V18.8982C13.2215 18.8159 13.205 18.7339 13.1698 18.6585C13.1345 18.5832 13.0816 18.5164 13.0149 18.4634C12.8645 18.3468 12.6748 18.2853 12.4804 18.2902C12.2888 18.2852 12.1019 18.3468 11.9551 18.4634C11.8884 18.5164 11.8355 18.5832 11.8002 18.6585C11.765 18.7339 11.7485 18.8159 11.7519 18.8982V22.8371C11.7446 23.2355 11.8283 23.6308 11.9972 23.9959C12.154 24.3318 12.3813 24.6341 12.6653 24.8845C12.9515 25.1334 13.2859 25.3275 13.6501 25.4561C14.0337 25.591 14.4399 25.6591 14.8491 25.657C15.2261 25.66 15.5997 25.5904 15.9474 25.4526C16.2968 25.3106 16.6157 25.1092 16.8883 24.8585C16.9468 24.8038 16.9907 24.7367 17.0164 24.6627C17.0445 24.5842 17.0569 24.5014 17.053 24.4185C17.046 24.3368 17.0218 24.2573 16.9817 24.1847Z" fill="#444546"/>
<path d="M26.4839 24.5585L24.7156 22.8922L26.482 21.2258C26.5429 21.1655 26.5904 21.0943 26.6219 21.0164C26.6533 20.9385 26.668 20.8554 26.6651 20.772C26.6685 20.6899 26.6539 20.608 26.6224 20.5314C26.591 20.4549 26.5432 20.3852 26.482 20.3269C26.3552 20.2038 26.1823 20.1329 26.0006 20.1294H25.9933C25.9091 20.1298 25.826 20.1465 25.7488 20.1783C25.6717 20.2102 25.6023 20.2566 25.5448 20.3147L23.7381 21.9828L21.9698 20.3303C21.8368 20.2146 21.6667 20.1445 21.4866 20.1311C21.396 20.1277 21.3057 20.1435 21.2224 20.1774C21.1391 20.2112 21.0649 20.2623 21.0051 20.3269C20.8864 20.4537 20.8144 20.6135 20.8001 20.7824C20.7942 20.8607 20.8076 20.9392 20.8394 21.0116C20.8712 21.0841 20.9204 21.1486 20.9832 21.1999L22.7899 22.8904L20.9832 24.581C20.9201 24.6391 20.8711 24.7094 20.8395 24.7872C20.8079 24.8649 20.7945 24.9482 20.8001 25.0314C20.8058 25.1989 20.88 25.3579 21.007 25.4748C21.069 25.5366 21.1451 25.5842 21.2294 25.6142C21.3138 25.6442 21.4042 25.6558 21.4939 25.648C21.6727 25.6436 21.8447 25.5826 21.9826 25.4748L23.7436 23.8154L25.5118 25.4436C25.5752 25.5105 25.6528 25.5639 25.7396 25.6003C25.8264 25.6367 25.9203 25.6553 26.0152 25.6549C26.1031 25.6583 26.1909 25.6447 26.273 25.615C26.3552 25.5852 26.43 25.5398 26.493 25.4817C26.5601 25.4225 26.6128 25.3501 26.6472 25.2696C26.6817 25.1891 26.6972 25.1025 26.6925 25.0158C26.6919 24.9302 26.673 24.8456 26.6372 24.7671C26.6013 24.6885 26.5492 24.6176 26.4839 24.5585Z" fill="#444546"/>
<path d="M19.3119 20.3147C19.2681 20.2791 19.2202 20.2483 19.1691 20.2229C19.0695 20.1635 18.9537 20.1328 18.8359 20.1346C18.7182 20.1328 18.6024 20.1635 18.5028 20.2229C18.4516 20.2483 18.4037 20.2791 18.36 20.3147C18.2948 20.3654 18.2423 20.4291 18.2062 20.5013C18.1701 20.5735 18.1514 20.6523 18.1513 20.7322V25.0504C18.1514 25.1355 18.1713 25.2194 18.2096 25.2964C18.2478 25.3733 18.3036 25.4413 18.3728 25.4956C18.4983 25.6004 18.6613 25.6562 18.8286 25.6515H18.8524C19.0198 25.6562 19.1827 25.6004 19.3082 25.4956C19.3774 25.4413 19.4332 25.3733 19.4715 25.2964C19.5097 25.2194 19.5296 25.1355 19.5297 25.0504V20.7322C19.5286 20.6516 19.5084 20.5724 19.4707 20.5001C19.433 20.4279 19.3788 20.3646 19.3119 20.3147Z" fill="#444546"/>
<path d="M19.3485 18.4968C19.29 18.4358 19.2185 18.3872 19.1386 18.3544C19.0588 18.3215 18.9724 18.3051 18.8854 18.3063C18.7072 18.3027 18.5346 18.3648 18.404 18.4795C18.3385 18.5333 18.2856 18.5995 18.2487 18.6737C18.2118 18.748 18.1918 18.8288 18.1898 18.9108C18.1823 18.9996 18.1947 19.0888 18.2262 19.1727C18.2578 19.2566 18.3077 19.3333 18.3728 19.3975C18.5122 19.5169 18.6938 19.5824 18.8817 19.5812C18.9682 19.5818 19.0538 19.5652 19.133 19.5324C19.2122 19.4995 19.2831 19.4512 19.3412 19.3906C19.4667 19.2712 19.5372 19.1096 19.5372 18.9411C19.5372 18.7727 19.4667 18.6111 19.3412 18.4916L19.3485 18.4968Z" fill="#444546"/>
</g>
<g clip-path="url(#clip1)">
<path d="M13.3408 6.89844C11.3394 6.89844 9.52001 8.59516 9.52001 10.6877C9.52277 11.4575 9.76827 12.2072 10.2223 12.8325C11.1939 12.2621 12.2473 11.8591 13.348 11.8591C14.4488 11.8591 15.5004 12.2621 16.4738 12.8325C16.9278 12.2072 17.1733 11.4575 17.1761 10.6877C17.1688 8.59516 15.3476 6.89844 13.3408 6.89844Z" fill="#444546"/>
<path d="M13.3384 0C8.42602 0 4.44336 10.2865 4.44336 15.0887C4.44336 18.8151 6.84314 14.8135 10.2127 12.8325C9.73723 12.1812 9.49128 11.3936 9.51264 10.5906C9.53401 9.78763 9.82152 9.01385 10.3309 8.38824C10.1685 8.77236 10.085 9.1846 10.0853 9.60095C10.0853 10.4542 10.4281 11.2725 11.0381 11.8758C11.6482 12.4791 12.4756 12.8181 13.3384 12.8181C14.2012 12.8181 15.0286 12.4791 15.6387 11.8758C16.2488 11.2725 16.5915 10.4542 16.5915 9.60095C16.5918 9.1846 16.5083 8.77236 16.3459 8.38824C16.8553 9.01385 17.1428 9.78763 17.1642 10.5906C17.1856 11.3936 16.9396 12.1812 16.4641 12.8325C19.8355 14.8117 22.2335 18.8151 22.2335 15.0887C22.2335 10.2883 18.2508 0 13.3384 0Z" fill="#444546"/>
</g>
<defs>
<clipPath id="clip0">
<rect width="26.6852" height="7.38584" fill="white" transform="translate(0 18.2777)"/>
</clipPath>
<clipPath id="clip1">
<rect width="17.7901" height="16.6181" fill="white" transform="translate(4.44751)"/>
</clipPath>
</defs>
</svg>
