<svg width="226" height="293" viewBox="0 0 226 293" fill="none" xmlns="http://www.w3.org/2000/svg">
<path d="M111.531 47.7211C67.6596 30.2603 62.6203 15.907 65.5846 0C42.4292 20.4883 42.3503 66.9858 45.2052 87.6736C46.9385 118.068 78.9239 150.562 131.169 162.4C172.966 171.87 185.144 198.16 186.008 210.121C186.008 149.452 168.593 149.082 165.629 141.683C163.258 135.765 115.236 106.417 91.522 92.4827C80.8506 87.1557 71.2661 72.5064 67.8078 65.8477C85.0006 85.676 110.296 97.0452 120.794 100.251C140.433 104.69 193.79 129.106 198.607 173.867C203.423 218.629 188.232 249.703 147.843 270.789C115.533 287.658 77.3182 277.818 62.2498 270.789C18.6749 253.043 2.59375 203.22 0 180.526C2.66785 229.949 31.4954 259.321 45.5757 267.83C80.2578 294.761 120.053 294.835 135.616 291.505C231.065 266.942 232.449 184.349 221.209 146.123C207.277 91.077 142.656 57.9558 111.531 47.7211Z" fill="#ECF0F1"/>
</svg>
