<svg width="16" height="15" viewBox="0 0 16 15" fill="none" xmlns="http://www.w3.org/2000/svg">
<path d="M7.08081 12.8182C8.51514 12.8179 9.90813 12.3618 11.038 11.5224L14.5903 14.8971L15.7329 13.8116L12.1806 10.4369C13.0647 9.36342 13.5451 8.03977 13.5455 6.67681C13.5455 3.29059 10.6453 0.5354 7.08081 0.5354C3.51637 0.5354 0.616165 3.29059 0.616165 6.67681C0.616165 10.063 3.51637 12.8182 7.08081 12.8182ZM7.08081 2.07075C9.75475 2.07075 11.9293 4.13657 11.9293 6.67681C11.9293 9.21706 9.75475 11.2829 7.08081 11.2829C4.40687 11.2829 2.23233 9.21706 2.23233 6.67681C2.23233 4.13657 4.40687 2.07075 7.08081 2.07075Z" fill="#DBDFE5"/>
</svg>
