<svg width="100" height="100" viewBox="0 0 100 100" fill="none" xmlns="http://www.w3.org/2000/svg">
<path d="M75.5295 3.02109H71.0156C71.0156 1.35293 69.6635 0 67.9945 0H15.4488C13.7805 0 12.4277 1.35254 12.4277 3.02109V83.3137C12.4277 84.9822 13.7805 86.3348 15.4488 86.3348C72.7269 86.3348 68.2627 86.5109 69.2492 86.0594C70.0137 85.7094 70.6062 85.0506 70.868 84.2426H75.5293C75.5295 83.6627 75.5295 4.15332 75.5295 3.02109Z" fill="#60B7FF"/>
<path d="M74.2748 0H67.9945C69.6631 0 71.0156 1.35254 71.0156 3.02109V83.3137C71.0156 84.9822 69.6631 86.3348 67.9945 86.3348H74.2748C75.9434 86.3348 77.2959 84.9822 77.2959 83.3137V3.02109C77.2959 1.35254 75.9434 0 74.2748 0V0Z" fill="#26A6FE"/>
<path d="M77.2959 20.6956L63.3418 6.74152H21.3313C19.025 6.74152 17.1553 8.61124 17.1553 10.9175V85.5843C17.1553 85.8409 17.1818 86.0909 17.2262 86.3347H74.2748C75.9434 86.3347 77.2959 84.9821 77.2959 83.3136V20.6956Z" fill="#26A6FE"/>
<path d="M82.2447 21.4734L75.164 17.0523L69.051 6.74152H27.0404C24.7342 6.74152 22.8644 8.61124 22.8644 10.9175V85.5843C22.8644 87.8905 24.7342 89.7603 27.0404 89.7603H82.1637C82.191 89.7603 82.2176 89.7568 82.2447 89.7562V21.4734Z" fill="#EAF6FF"/>
<path d="M86.3396 24.0302L80.0596 20.1089V85.5845C80.0596 87.8908 78.1898 89.7605 75.8836 89.7605H82.1638C84.4701 89.7605 86.3398 87.8908 86.3398 85.5845V24.0302H86.3396Z" fill="#D8ECFE"/>
<path d="M73.2269 24.0302H86.3396L69.051 6.74152V19.8542C69.051 22.1605 70.9207 24.0302 73.2269 24.0302Z" fill="#B3DAFE"/>
<path d="M76.3174 33.4935H32.8869C32.0525 33.4935 31.3764 32.8171 31.3764 31.983C31.3764 31.1488 32.0525 30.4724 32.8869 30.4724H76.3174C77.1518 30.4724 77.8279 31.1488 77.8279 31.983C77.8279 32.8171 77.1518 33.4935 76.3174 33.4935Z" fill="#82AEE3"/>
<path d="M76.3174 43.4877H32.8869C32.0525 43.4877 31.3764 42.8113 31.3764 41.9772C31.3764 41.143 32.0525 40.4666 32.8869 40.4666H76.3174C77.1518 40.4666 77.8279 41.143 77.8279 41.9772C77.8279 42.8113 77.1518 43.4877 76.3174 43.4877Z" fill="#82AEE3"/>
<path d="M92.7781 49.9999H89.5043C88.8033 48.788 87.4932 47.9753 86.0158 47.9753C83.9437 47.9753 38.2191 47.9753 35.3041 47.9753L30.0014 39.2017H26.7869C26.2223 38.4468 25.3303 37.9896 24.3689 37.9896H6.69687C5.02832 37.9896 3.67578 39.3423 3.67578 41.0107V95.9716C3.67578 98.1964 5.4793 99.9997 7.70391 99.9997H86.0158C86.681 99.9997 87.3574 99.8275 87.9557 99.4968H87.9635C88.4711 99.2157 88.9101 98.8271 89.2535 98.3634H92.7779V49.9999H92.7781Z" fill="#FDB441"/>
<path d="M27.0459 39.6101L31.4231 47.9753H37.7033L33.3262 39.6101C32.8049 38.6138 31.7736 37.9896 30.6494 37.9896H24.3691C25.4934 37.9896 26.5246 38.6138 27.0459 39.6101Z" fill="#FEA613"/>
<path d="M92.2961 47.9753H86.016C88.2408 47.9753 90.0441 49.7789 90.0441 52.0035V95.9716C90.0441 98.1964 88.2406 99.9998 86.016 99.9998H92.2961C94.5209 99.9998 96.3242 98.1962 96.3242 95.9716V52.0037C96.3242 49.7789 94.5207 47.9753 92.2961 47.9753Z" fill="#FEA613"/>
</svg>
