<svg width="33" height="32" viewBox="0 0 33 32" fill="none" xmlns="http://www.w3.org/2000/svg">
<path d="M19.4003 12.0384V13.9817C19.4003 14.3825 19.0724 14.7105 18.6716 14.7105H15.2708V18.1112C15.2708 18.5121 14.9429 18.84 14.542 18.84H12.5987C12.1979 18.84 11.87 18.5121 11.87 18.1112V14.7105H8.46924C8.06844 14.7105 7.74051 14.3825 7.74051 13.9817V12.0384C7.74051 11.6376 8.06844 11.3097 8.46924 11.3097H11.87V7.90894C11.87 7.50813 12.1979 7.1802 12.5987 7.1802H14.542C14.9429 7.1802 15.2708 7.50813 15.2708 7.90894V11.3097H18.6716C19.0724 11.3097 19.4003 11.6376 19.4003 12.0384ZM31.6066 29.3277L29.888 31.0463C29.3172 31.6172 28.3941 31.6172 27.8293 31.0463L21.7687 24.9917C21.4954 24.7185 21.3436 24.348 21.3436 23.9594V22.9695C19.1999 24.6456 16.5036 25.6415 13.5704 25.6415C6.59275 25.6415 0.938965 19.9877 0.938965 13.0101C0.938965 6.03244 6.59275 0.378662 13.5704 0.378662C20.548 0.378662 26.2018 6.03244 26.2018 13.0101C26.2018 15.9433 25.2059 18.6396 23.5298 20.7833H24.5197C24.9083 20.7833 25.2788 20.9351 25.552 21.2084L31.6066 27.263C32.1714 27.8338 32.1714 28.7569 31.6066 29.3277ZM21.8294 13.0101C21.8294 8.44335 18.1371 4.75108 13.5704 4.75108C9.00365 4.75108 5.31138 8.44335 5.31138 13.0101C5.31138 17.5768 9.00365 21.2691 13.5704 21.2691C18.1371 21.2691 21.8294 17.5768 21.8294 13.0101Z" fill="#CACFD7"/>
</svg>
