<svg width="100" height="100" viewBox="0 0 100 100" fill="none" xmlns="http://www.w3.org/2000/svg">
<g clip-path="url(#clip0)">
<path fill-rule="evenodd" clip-rule="evenodd" d="M78.8136 15.2541V56.0168L73.8305 99.7457C73.247 99.9166 72.6419 100.002 72.0339 99.9999H7.62713C3.88283 99.9999 0.847473 96.9645 0.847473 93.2202V15.2541C0.847473 11.5098 3.88283 8.47449 7.62713 8.47449H72.0339C75.7782 8.47449 78.8136 11.5098 78.8136 15.2541Z" fill="#9FC9D3"/>
<path d="M31.356 20.339C33.2281 20.339 34.7458 18.8213 34.7458 16.9492C34.7458 15.077 33.2281 13.5593 31.356 13.5593C29.4838 13.5593 27.9661 15.077 27.9661 16.9492C27.9661 18.8213 29.4838 20.339 31.356 20.339Z" fill="#4482C3"/>
<path d="M14.4068 20.339C16.2789 20.339 17.7966 18.8213 17.7966 16.9492C17.7966 15.077 16.2789 13.5593 14.4068 13.5593C12.5346 13.5593 11.017 15.077 11.017 16.9492C11.017 18.8213 12.5346 20.339 14.4068 20.339Z" fill="#4482C3"/>
<path d="M65.2543 20.339C67.1264 20.339 68.6441 18.8213 68.6441 16.9492C68.6441 15.077 67.1264 13.5593 65.2543 13.5593C63.3821 13.5593 61.8644 15.077 61.8644 16.9492C61.8644 18.8213 63.3821 20.339 65.2543 20.339Z" fill="#4482C3"/>
<path d="M48.3051 20.339C50.1773 20.339 51.6949 18.8213 51.6949 16.9492C51.6949 15.077 50.1773 13.5593 48.3051 13.5593C46.433 13.5593 44.9153 15.077 44.9153 16.9492C44.9153 18.8213 46.433 20.339 48.3051 20.339Z" fill="#4482C3"/>
<path fill-rule="evenodd" clip-rule="evenodd" d="M14.4068 16.9492C13.4708 16.9492 12.7119 16.1903 12.7119 15.2542V1.69492C12.7119 0.758839 13.4708 0 14.4068 0C15.3429 0 16.1017 0.758839 16.1017 1.69492V15.2542C16.1017 16.1903 15.3429 16.9492 14.4068 16.9492Z" fill="#ECF0F1"/>
<path fill-rule="evenodd" clip-rule="evenodd" d="M31.3559 16.9492C30.4199 16.9492 29.661 16.1903 29.661 15.2542V1.69492C29.661 0.758839 30.4199 0 31.3559 0C32.292 0 33.0508 0.758839 33.0508 1.69492V15.2542C33.0508 16.1903 32.292 16.9492 31.3559 16.9492Z" fill="#ECF0F1"/>
<path fill-rule="evenodd" clip-rule="evenodd" d="M48.3051 16.9492C47.369 16.9492 46.6102 16.1903 46.6102 15.2542V1.69492C46.6102 0.758839 47.369 0 48.3051 0C49.2412 0 50 0.758839 50 1.69492V15.2542C50 16.1903 49.2412 16.9492 48.3051 16.9492Z" fill="#ECF0F1"/>
<path fill-rule="evenodd" clip-rule="evenodd" d="M65.2543 16.9492C64.3182 16.9492 63.5594 16.1903 63.5594 15.2542V1.69492C63.5594 0.758839 64.3182 0 65.2543 0C66.1904 0 66.9492 0.758839 66.9492 1.69492V15.2542C66.9492 16.1903 66.1904 16.9492 65.2543 16.9492Z" fill="#ECF0F1"/>
<path fill-rule="evenodd" clip-rule="evenodd" d="M22.8814 38.983H12.7119C11.7758 38.983 11.017 38.2242 11.017 37.2881C11.017 36.352 11.7758 35.5932 12.7119 35.5932H22.8814C23.8175 35.5932 24.5763 36.352 24.5763 37.2881C24.5763 38.2242 23.8175 38.983 22.8814 38.983Z" fill="#35495E"/>
<path fill-rule="evenodd" clip-rule="evenodd" d="M66.9492 38.983H29.661C28.725 38.983 27.9661 38.2242 27.9661 37.2881C27.9661 36.352 28.725 35.5932 29.661 35.5932H66.9492C67.8853 35.5932 68.6441 36.352 68.6441 37.2881C68.6441 38.2242 67.8853 38.983 66.9492 38.983Z" fill="#35495E"/>
<path fill-rule="evenodd" clip-rule="evenodd" d="M66.9492 49.1526H12.7119C11.7758 49.1526 11.017 48.3938 11.017 47.4577C11.017 46.5216 11.7758 45.7628 12.7119 45.7628H66.9492C67.8853 45.7628 68.6441 46.5216 68.6441 47.4577C68.6441 48.3938 67.8853 49.1526 66.9492 49.1526Z" fill="#35495E"/>
<path fill-rule="evenodd" clip-rule="evenodd" d="M31.3559 59.322H12.7119C11.7758 59.322 11.017 58.5632 11.017 57.6271C11.017 56.691 11.7758 55.9322 12.7119 55.9322H31.3559C32.292 55.9322 33.0509 56.691 33.0509 57.6271C33.0509 58.5632 32.292 59.322 31.3559 59.322Z" fill="#35495E"/>
<path fill-rule="evenodd" clip-rule="evenodd" d="M46.6102 69.4915H12.7119C11.7758 69.4915 11.017 68.7327 11.017 67.7966C11.017 66.8605 11.7758 66.1017 12.7119 66.1017H46.6102C47.5463 66.1017 48.3051 66.8605 48.3051 67.7966C48.3051 68.7327 47.5463 69.4915 46.6102 69.4915Z" fill="#35495E"/>
<path d="M77.1187 100C89.2877 100 99.1526 90.1351 99.1526 77.9661C99.1526 65.7971 89.2877 55.9322 77.1187 55.9322C64.9497 55.9322 55.0848 65.7971 55.0848 77.9661C55.0848 90.1351 64.9497 100 77.1187 100Z" fill="#3B97D3"/>
<path fill-rule="evenodd" clip-rule="evenodd" d="M80.5085 77.9661C80.5085 76.0939 78.9908 74.5762 77.1186 74.5762C75.2465 74.5762 73.7288 76.0939 73.7288 77.9661V89.8305C73.7288 91.7026 75.2465 93.2203 77.1186 93.2203C78.9908 93.2203 80.5085 91.7026 80.5085 89.8305V77.9661Z" fill="#ECF0F1"/>
<path fill-rule="evenodd" clip-rule="evenodd" d="M11.017 28.8136H9.32205C8.38598 28.8136 7.62714 28.0548 7.62714 27.1187C7.62714 26.1826 8.38598 25.4238 9.32205 25.4238H11.017C11.953 25.4238 12.7119 26.1826 12.7119 27.1187C12.7119 28.0548 11.953 28.8136 11.017 28.8136Z" fill="#84B5CB"/>
<path fill-rule="evenodd" clip-rule="evenodd" d="M4.2373 27.1187C4.2373 28.0548 3.47846 28.8136 2.54239 28.8136H0.847473V25.4238H2.54239C3.47846 25.4238 4.2373 26.1826 4.2373 27.1187Z" fill="#84B5CB"/>
<path fill-rule="evenodd" clip-rule="evenodd" d="M19.4916 28.8136H17.7967C16.8606 28.8136 16.1017 28.0548 16.1017 27.1187C16.1017 26.1826 16.8606 25.4238 17.7967 25.4238H19.4916C20.4277 25.4238 21.1865 26.1826 21.1865 27.1187C21.1865 28.0548 20.4277 28.8136 19.4916 28.8136Z" fill="#84B5CB"/>
<path fill-rule="evenodd" clip-rule="evenodd" d="M27.9661 28.8136H26.2712C25.3351 28.8136 24.5763 28.0548 24.5763 27.1187C24.5763 26.1826 25.3351 25.4238 26.2712 25.4238H27.9661C28.9022 25.4238 29.661 26.1826 29.661 27.1187C29.661 28.0548 28.9022 28.8136 27.9661 28.8136Z" fill="#84B5CB"/>
<path fill-rule="evenodd" clip-rule="evenodd" d="M36.4407 28.8136H34.7458C33.8097 28.8136 33.0509 28.0548 33.0509 27.1187C33.0509 26.1826 33.8097 25.4238 34.7458 25.4238H36.4407C37.3768 25.4238 38.1356 26.1826 38.1356 27.1187C38.1356 28.0548 37.3768 28.8136 36.4407 28.8136Z" fill="#84B5CB"/>
<path fill-rule="evenodd" clip-rule="evenodd" d="M44.9153 28.8136H43.2204C42.2843 28.8136 41.5255 28.0548 41.5255 27.1187C41.5255 26.1826 42.2843 25.4238 43.2204 25.4238H44.9153C45.8514 25.4238 46.6102 26.1826 46.6102 27.1187C46.6102 28.0548 45.8514 28.8136 44.9153 28.8136Z" fill="#84B5CB"/>
<path fill-rule="evenodd" clip-rule="evenodd" d="M53.3898 28.8136H51.6949C50.7588 28.8136 50 28.0548 50 27.1187C50 26.1826 50.7588 25.4238 51.6949 25.4238H53.3898C54.3259 25.4238 55.0847 26.1826 55.0847 27.1187C55.0847 28.0548 54.3259 28.8136 53.3898 28.8136Z" fill="#84B5CB"/>
<path fill-rule="evenodd" clip-rule="evenodd" d="M61.8644 28.8136H60.1695C59.2334 28.8136 58.4746 28.0548 58.4746 27.1187C58.4746 26.1826 59.2334 25.4238 60.1695 25.4238H61.8644C62.8005 25.4238 63.5593 26.1826 63.5593 27.1187C63.5593 28.0548 62.8005 28.8136 61.8644 28.8136Z" fill="#84B5CB"/>
<path fill-rule="evenodd" clip-rule="evenodd" d="M70.339 28.8136H68.6441C67.708 28.8136 66.9492 28.0548 66.9492 27.1187C66.9492 26.1826 67.708 25.4238 68.6441 25.4238H70.339C71.2751 25.4238 72.0339 26.1826 72.0339 27.1187C72.0339 28.0548 71.2751 28.8136 70.339 28.8136Z" fill="#84B5CB"/>
<path fill-rule="evenodd" clip-rule="evenodd" d="M78.8136 25.4238V28.8136H77.1187C76.1826 28.8136 75.4238 28.0548 75.4238 27.1187C75.4238 26.1826 76.1826 25.4238 77.1187 25.4238H78.8136Z" fill="#84B5CB"/>
<path d="M77.1186 69.4916C78.9908 69.4916 80.5085 67.9739 80.5085 66.1017C80.5085 64.2296 78.9908 62.7119 77.1186 62.7119C75.2465 62.7119 73.7288 64.2296 73.7288 66.1017C73.7288 67.9739 75.2465 69.4916 77.1186 69.4916Z" fill="#ECF0F1"/>
</g>
<defs>
<clipPath id="clip0">
<rect width="100" height="100" fill="white"/>
</clipPath>
</defs>
</svg>
