<svg width="19" height="19" viewBox="0 0 19 19" fill="none" xmlns="http://www.w3.org/2000/svg">
<path d="M7.91634 14.2502C9.32153 14.2499 10.6862 13.7795 11.7931 12.9138L15.2733 16.394L16.3927 15.2746L12.9126 11.7944C13.7786 10.6874 14.2493 9.32238 14.2497 7.91683C14.2497 4.42479 11.4084 1.5835 7.91634 1.5835C4.4243 1.5835 1.58301 4.42479 1.58301 7.91683C1.58301 11.4089 4.4243 14.2502 7.91634 14.2502ZM7.91634 3.16683C10.536 3.16683 12.6663 5.2972 12.6663 7.91683C12.6663 10.5365 10.536 12.6668 7.91634 12.6668C5.29672 12.6668 3.16634 10.5365 3.16634 7.91683C3.16634 5.2972 5.29672 3.16683 7.91634 3.16683Z" fill="#7C8295"/>
</svg>
