<svg width="16" height="16" viewBox="0 0 16 16" fill="none" xmlns="http://www.w3.org/2000/svg">
<path d="M13.625 15.3125H13.5294C2.47625 14.6769 0.906877 5.35063 0.687502 2.50438C0.669825 2.28308 0.695989 2.06046 0.764494 1.84929C0.832999 1.63812 0.942498 1.44255 1.08672 1.27377C1.23094 1.10499 1.40704 0.966324 1.60495 0.865722C1.80285 0.76512 2.01865 0.704556 2.24 0.687501H5.33938C5.56469 0.687282 5.78488 0.754725 5.97142 0.881092C6.15796 1.00746 6.30226 1.18693 6.38563 1.39625L7.24063 3.5C7.32295 3.7045 7.34338 3.92867 7.29938 4.14468C7.25538 4.36068 7.14888 4.559 6.99313 4.715L5.795 5.92438C5.98216 6.98792 6.49148 7.96831 7.25407 8.73291C8.01666 9.49752 8.9957 10.0094 10.0588 10.1994L11.2794 8.99C11.4377 8.83596 11.6379 8.73195 11.855 8.69094C12.072 8.64993 12.2964 8.67373 12.5 8.75938L14.6206 9.60875C14.8268 9.69475 15.0027 9.84018 15.1259 10.0265C15.2491 10.2128 15.3141 10.4316 15.3125 10.655V13.625C15.3125 14.0726 15.1347 14.5018 14.8182 14.8182C14.5018 15.1347 14.0726 15.3125 13.625 15.3125ZM2.375 1.8125C2.22582 1.8125 2.08274 1.87176 1.97725 1.97725C1.87177 2.08274 1.8125 2.22582 1.8125 2.375V2.42C2.07125 5.75 3.73063 13.625 13.5913 14.1875C13.6652 14.1921 13.7392 14.182 13.8092 14.1579C13.8792 14.1338 13.9438 14.0961 13.9992 14.0469C14.0546 13.9978 14.0997 13.9382 14.132 13.8716C14.1644 13.805 14.1832 13.7327 14.1875 13.6588V10.655L12.0669 9.80563L10.4525 11.4088L10.1825 11.375C5.28875 10.7619 4.625 5.86813 4.625 5.8175L4.59125 5.5475L6.18875 3.93313L5.345 1.8125H2.375Z" fill="#DBDFE5"/>
</svg>
