<svg width="379" height="462" viewBox="0 0 379 462" fill="none" xmlns="http://www.w3.org/2000/svg">
<path d="M378.728 289.536C378.728 312.073 374.106 334.39 365.128 355.211C356.149 376.033 342.989 394.952 326.398 410.888C309.808 426.824 290.112 439.466 268.436 448.09C246.759 456.715 223.527 461.154 200.064 461.154C176.602 461.154 153.369 456.715 131.693 448.09C110.017 439.466 90.321 426.824 73.7306 410.888C57.1402 394.952 43.9799 376.033 35.0013 355.211C26.0226 334.39 21.4014 312.073 21.4014 289.536L200.064 289.536H378.728Z" fill="#EFF2F6"/>
<rect x="21.4014" y="267.837" width="31.4885" height="22.3563" fill="#EFF2F6"/>
<rect x="276.048" y="260.385" width="41.5283" height="29.8084" fill="#EFF2F6"/>
<rect x="54.7153" y="214.357" width="31.4885" height="75.8362" fill="#EFF2F6"/>
<rect x="115.411" y="253.372" width="40.6156" height="36.8222" fill="#EFF2F6"/>
<rect x="318.489" y="225.317" width="40.6156" height="65.3155" fill="#EFF2F6"/>
<rect x="156.939" y="219.618" width="19.1669" height="70.5759" fill="#EFF2F6"/>
<rect x="359.561" y="239.783" width="19.1669" height="50.8497" fill="#EFF2F6"/>
<path d="M176.563 204.056L195.73 219.618V290.194H176.563V204.056Z" fill="#EFF2F6"/>
<path d="M229.956 195.07L196.186 212.255V290.194H229.956V195.07Z" fill="#EFF2F6"/>
<path d="M230.412 164.823L275.591 187.552V290.632H230.412V164.823Z" fill="#EFF2F6"/>
<path d="M96.3926 117.48H105.475C105.475 117.48 108.774 169.915 109.577 203.618C110.381 237.406 114.14 290.194 114.14 290.194H88.7527C88.7527 290.194 92.7156 237.342 93.3162 203.618C93.9169 169.893 96.3926 117.48 96.3926 117.48Z" fill="#EFF2F6"/>
<rect x="25.5088" y="258.632" width="23.2741" height="9.6439" fill="#EFF2F6"/>
<rect x="281.524" y="248.55" width="30.5758" height="12.7124" fill="#EFF2F6"/>
<rect x="27.7905" y="248.988" width="18.7106" height="9.6439" fill="#EFF2F6"/>
<rect x="284.719" y="235.837" width="24.6432" height="12.7124" fill="#EFF2F6"/>
<rect x="30.5291" y="239.344" width="13.2343" height="9.6439" fill="#EFF2F6"/>
<rect x="287.913" y="222.687" width="17.7979" height="13.1508" fill="#EFF2F6"/>
<rect x="36.0051" y="225.317" width="2.28178" height="14.0275" fill="#EFF2F6"/>
<rect x="295.215" y="204.275" width="3.19449" height="18.4111" fill="#EFF2F6"/>
<path d="M96.7004 0V104.768H102.387L121.344 80.4033L96.7004 0Z" fill="#EFF2F6"/>
<path d="M219.916 140.619L109.049 112.084L107.493 117.663L128.088 142.897L219.916 140.619Z" fill="#EFF2F6"/>
<path d="M0.976074 169.396L93.2281 118.235L90.4645 113.637L59.7982 110.208L0.976074 169.396Z" fill="#EFF2F6"/>
<ellipse cx="100.579" cy="112.877" rx="11.6371" ry="11.1782" fill="#EFF2F6"/>
</svg>
