<svg width="19" height="16" viewBox="0 0 19 16" fill="none" xmlns="http://www.w3.org/2000/svg">
<path d="M13.5077 10.9134C12.9852 10.3316 12.3594 9.8594 11.6647 9.52263C12.6527 8.89166 13.5096 8.06316 14.1854 7.08544C14.8613 6.10772 15.3426 5.00035 15.6013 3.82786C15.6212 3.74806 15.6254 3.66492 15.6138 3.58338C15.6021 3.50185 15.5747 3.42357 15.5333 3.3532C15.4919 3.28284 15.4372 3.22181 15.3726 3.17376C15.308 3.1257 15.2347 3.09159 15.1571 3.07344C15.0796 3.0553 14.9993 3.05349 14.921 3.06814C14.8427 3.08278 14.7681 3.11357 14.7015 3.15868C14.635 3.20379 14.5778 3.2623 14.5335 3.33074C14.4892 3.39918 14.4585 3.47616 14.4435 3.55709C14.1798 4.75762 13.6466 5.87678 12.8873 6.8237C12.128 7.77062 11.164 8.51861 10.0735 9.00694C9.94403 8.98479 9.81222 8.97863 9.68278 8.96509V3.69494C9.67947 3.64081 9.66908 3.5874 9.6519 3.53617C9.64834 3.50961 9.64318 3.4833 9.63647 3.4574C9.60893 3.39243 9.57077 3.33289 9.52365 3.2814C9.51772 3.27525 9.51534 3.26663 9.51059 3.26171C9.46808 3.22107 9.42007 3.18707 9.36809 3.16079C9.35147 3.15094 9.33841 3.13617 9.32178 3.12879C9.28197 3.11585 9.24098 3.10719 9.19947 3.10294C9.16465 3.09162 9.12886 3.08379 9.09259 3.07956L8.31478 3.07709H8.3124C8.15493 3.07677 8.00378 3.14129 7.89221 3.25647C7.78064 3.37164 7.71778 3.52804 7.71747 3.69125C7.71715 3.85446 7.77941 4.01111 7.89053 4.12675C8.00166 4.24239 8.15256 4.30754 8.31003 4.30786H8.49053V11.0279C8.49053 11.0365 8.49528 11.0439 8.49528 11.0525V12.2808C5.96716 10.0597 4.28111 6.98115 3.73697 3.59279C3.70797 3.43337 3.62055 3.29177 3.49303 3.1977C3.36551 3.10362 3.2078 3.06437 3.05297 3.08817C2.89771 3.11528 2.7592 3.2052 2.66789 3.33814C2.57659 3.47108 2.53997 3.63617 2.56609 3.79709C3.23457 7.92404 5.45533 11.6076 8.74109 14.0396C8.75297 14.0482 8.76722 14.0445 8.7779 14.0519C8.86971 14.1171 8.97776 14.1534 9.08903 14.1565C9.17642 14.1553 9.26245 14.1339 9.34078 14.0937L9.35978 14.0888C9.37165 14.0826 9.37878 14.0666 9.39065 14.0592C9.48041 14.0042 9.55424 13.9251 9.6044 13.8303C9.6538 13.7424 9.68077 13.6428 9.68278 13.5411V10.1688C10.8155 10.3157 11.8612 10.8744 12.6337 11.7454L14.5895 13.9571C14.696 14.0772 14.8441 14.1486 15.0013 14.1555C15.0792 14.1589 15.1569 14.1464 15.2301 14.1187C15.3033 14.091 15.3705 14.0486 15.4279 13.994C15.4853 13.9394 15.5317 13.8736 15.5646 13.8003C15.5974 13.7271 15.616 13.6479 15.6194 13.5672C15.6227 13.4865 15.6106 13.4059 15.5839 13.3301C15.5571 13.2542 15.5162 13.1846 15.4635 13.1251L13.5077 10.9134Z" fill="#444546"/>
</svg>
