<svg width="15" height="15" viewBox="0 0 15 15" fill="none" xmlns="http://www.w3.org/2000/svg">
<path d="M1.61087 12.7379L1.5061 13.2268H1.5061L1.61087 12.7379ZM13.3891 12.7379L13.4939 13.2268L13.3891 12.7379ZM13.3891 2.26184L13.4939 1.77293V1.77293L13.3891 2.26184ZM1.61087 2.26184L1.71563 2.75074L1.61087 2.26184ZM6.5 5.49988L6.77735 5.08385C6.62392 4.98157 6.42665 4.97203 6.26407 5.05904C6.10149 5.14605 6 5.31548 6 5.49988H6.5ZM6.5 9.49988H6C6 9.68428 6.10149 9.85371 6.26407 9.94072C6.42665 10.0277 6.62392 10.0182 6.77735 9.9159L6.5 9.49988ZM9.5 7.49988L9.77735 7.9159C9.91645 7.82317 10 7.66706 10 7.49988C10 7.3327 9.91645 7.17659 9.77735 7.08385L9.5 7.49988ZM0 3.63597V11.3638H1V3.63597H0ZM15 11.3638V3.63597H14V11.3638H15ZM1.5061 13.2268C5.45719 14.0735 9.54281 14.0735 13.4939 13.2268L13.2844 12.249C9.4714 13.0661 5.5286 13.0661 1.71563 12.249L1.5061 13.2268ZM13.4939 1.77293C9.54281 0.926274 5.45719 0.926274 1.5061 1.77293L1.71563 2.75074C5.5286 1.93367 9.4714 1.93367 13.2844 2.75074L13.4939 1.77293ZM15 3.63597C15 2.73753 14.3724 1.96118 13.4939 1.77293L13.2844 2.75074C13.7018 2.84018 14 3.20907 14 3.63597H15ZM14 11.3638C14 11.7907 13.7018 12.1596 13.2844 12.249L13.4939 13.2268C14.3724 13.0386 15 12.2622 15 11.3638H14ZM0 11.3638C0 12.2622 0.627614 13.0386 1.5061 13.2268L1.71563 12.249C1.29821 12.1596 1 11.7907 1 11.3638H0ZM1 3.63597C1 3.20907 1.29821 2.84018 1.71563 2.75074L1.5061 1.77293C0.627614 1.96118 0 2.73753 0 3.63597H1ZM6 5.49988V9.49988H7V5.49988H6ZM6.77735 9.9159L9.77735 7.9159L9.22265 7.08385L6.22265 9.08385L6.77735 9.9159ZM9.77735 7.08385L6.77735 5.08385L6.22265 5.9159L9.22265 7.9159L9.77735 7.08385Z" fill="#444546"/>
</svg>
