<svg width="929" height="740" viewBox="0 0 929 740" fill="none" xmlns="http://www.w3.org/2000/svg">
<path fill-rule="evenodd" clip-rule="evenodd" d="M895 0H337.98C313.39 25.49 308.5 53.31 308.5 53.31C299.12 106.77 316.5 134.83 323.41 184C332.97 251.99 84.1895 278.25 33.2495 383.5C-1.16046 454.51 -20.0105 551.12 33.2395 644.8C80.3695 727.82 158.47 738.79 192.67 735.88C317.43 725.19 344.98 662.65 450.27 666.88C547.47 670.78 550.049 732.76 662.51 739.39C675.83 740.18 818.579 746.52 889.549 649.28C936.32 585.19 929.269 507.13 925.049 460.42C912.95 326.37 840.979 305.64 861.01 216.51C872.01 167.57 901.51 139.06 902.32 66.37C902.63 38.5 898.599 15.47 895 0Z" fill="#1C3F77"/>
<path d="M305 80L905 80L905 82L305 82L305 80Z" fill="white"/>
</svg>
