<svg width="48" height="57" viewBox="0 0 48 57" fill="none" xmlns="http://www.w3.org/2000/svg">
<g clip-path="url(#clip0_54:20)">
<path d="M45.3284 35.5945L45.0612 35.8159C44.979 35.8943 44.8754 35.9469 44.7633 35.967C44.6512 35.9871 44.5356 35.9739 44.431 35.929C44.3264 35.8841 44.2375 35.8095 44.1753 35.7146C44.1132 35.6196 44.0806 35.5086 44.0816 35.3953L44.0371 25.899C44.0371 23.9289 42.1892 23.3534 40.564 24.3716L39.3395 25.3678L36.0891 28.5775V25.7662C36.0891 23.774 34.2412 23.2206 32.616 24.2388L31.3915 25.2349L27.8738 28.6881V14.7425C27.8738 12.7724 26.026 12.1969 24.4007 13.2151L23.154 14.2112L22.8646 14.499L1.55844 35.6388V37.4097L17.4991 21.6268C20.4824 18.6606 22.7087 16.4912 22.7087 16.4912C22.7913 16.4005 22.9 16.3372 23.02 16.3098C23.1399 16.2825 23.2655 16.2924 23.3796 16.3383C23.4937 16.3842 23.5909 16.4638 23.6581 16.5663C23.7252 16.6689 23.7591 16.7895 23.7551 16.9118V32.7833L20.7273 35.8159C20.6464 35.9023 20.5408 35.9619 20.4247 35.9866C20.3087 36.0113 20.1877 35.9999 20.0784 35.954C19.9691 35.9081 19.8765 35.8299 19.8134 35.7299C19.7503 35.63 19.7195 35.5132 19.7254 35.3953V25.899C19.7254 23.9289 17.8776 23.3534 16.2523 24.3716L15.0278 25.3678L13.5807 26.8066L13.4471 26.9173C13.5362 27.0279 14.1596 27.7363 14.3377 27.9134L14.3822 27.8691L14.6271 27.6477C14.7153 27.5667 14.8252 27.5127 14.9436 27.4922C15.062 27.4718 15.1838 27.4858 15.2943 27.5326C15.4049 27.5794 15.4995 27.6569 15.5667 27.7559C15.634 27.8548 15.6711 27.971 15.6735 28.0905V37.6532C15.6735 39.6233 17.5213 40.1988 19.1466 39.1806L20.3711 38.1845L23.9332 34.687V37.6532C23.9332 39.6233 25.7811 40.1988 27.4063 39.1806L28.6308 38.1845L31.8367 35.0411L31.9481 34.9083V37.6311C31.9481 39.6011 33.7959 40.1767 35.4212 39.1584L36.6679 38.1623L38.0705 36.7678L38.2263 36.6128L37.3135 35.5503L37.0464 35.7938C36.9642 35.8722 36.8605 35.9248 36.7484 35.9449C36.6363 35.965 36.5207 35.9518 36.4161 35.9069C36.3116 35.862 36.2226 35.7874 36.1605 35.6924C36.0983 35.5975 36.0657 35.4864 36.0668 35.3732V30.5033L39.0278 27.5149C39.1161 27.4339 39.226 27.3798 39.3443 27.3594C39.4627 27.339 39.5845 27.353 39.6951 27.3998C39.8056 27.4465 39.9002 27.5241 39.9675 27.6231C40.0347 27.722 40.0718 27.8382 40.0742 27.9577C40.0742 28.3561 40.1187 37.6311 40.1187 37.6311C40.1187 39.6011 41.9666 40.1767 43.5918 39.1584L44.8163 38.1623L46.3302 36.6792L45.3284 35.5945ZM31.9481 27.9798V32.8276L31.8813 32.894L28.9425 35.8159V35.7495L28.898 35.8159C28.8171 35.9023 28.7115 35.9619 28.5954 35.9866C28.4793 36.0113 28.3584 35.9999 28.2491 35.954C28.1397 35.9081 28.0472 35.8299 27.9841 35.7299C27.921 35.63 27.8902 35.5132 27.8961 35.3953V30.5254L30.8571 27.5371C30.9443 27.4486 31.0562 27.3881 31.1783 27.3634C31.3005 27.3387 31.4272 27.351 31.5422 27.3987C31.6573 27.4463 31.7553 27.5271 31.8237 27.6307C31.892 27.7343 31.9276 27.8559 31.9258 27.9798H31.9481Z" fill="white"/>
<path d="M33.1725 12.4183H33.6846C34.2222 12.9565 34.6461 13.5963 34.9314 14.2998C35.1758 14.9303 35.3185 15.5952 35.3544 16.2699C35.3673 17.1644 35.1529 18.0476 34.731 18.8377C34.4681 19.3793 34.1056 19.8673 33.6623 20.2765H32.9276C33.3511 19.6672 33.6743 18.9947 33.885 18.2843C34.0598 17.6424 34.1422 16.9791 34.1299 16.3142C34.1184 15.7004 34.0286 15.0904 33.8627 14.499C33.6584 13.7662 33.3511 13.0657 32.9499 12.4183H33.1725Z" fill="white"/>
<path d="M39.8961 12.4183H40.4082C40.9458 12.9565 41.3697 13.5963 41.6549 14.2998C41.9109 14.9268 42.054 15.5937 42.0779 16.2699C42.0968 17.1624 41.8901 18.0453 41.4768 18.8377C41.1997 19.3765 40.8306 19.8634 40.3859 20.2765H39.6735C40.0888 19.6656 40.4044 18.9932 40.6085 18.2843C40.7953 17.6448 40.878 16.9797 40.8534 16.3142C40.8419 15.7004 40.7522 15.0904 40.5863 14.499C40.3916 13.7629 40.0837 13.061 39.6735 12.4183H39.8961Z" fill="white"/>
<path d="M36.5343 12.4183H37.0464C37.584 12.9565 38.0079 13.5963 38.2931 14.2998C38.5491 14.9268 38.6923 15.5937 38.7161 16.2699C38.7291 17.1644 38.5147 18.0476 38.0928 18.8377C37.8298 19.3793 37.4674 19.8673 37.0241 20.2765H36.2894C36.7219 19.6724 37.0458 18.9984 37.2468 18.2843C37.4336 17.6448 37.5162 16.9797 37.4917 16.3142C37.4801 15.7004 37.3904 15.0904 37.2245 14.499C37.0202 13.7662 36.7129 13.0657 36.3117 12.4183H36.5343Z" fill="white"/>
<path d="M10.9759 13.8792H10.9536L16.141 17.2882C16.1633 17.2439 16.0742 17.1554 15.9184 16.9783C15.7625 16.8012 15.5844 16.6462 16.0519 16.6241C16.5195 16.602 16.4082 16.6019 16.4304 16.5577C16.4527 16.5134 16.3636 16.4249 16.2078 16.2478C16.0519 16.0707 15.8738 15.9157 16.3636 15.8936C16.8534 15.8715 16.7198 15.8715 16.7421 15.8272C16.7644 15.7829 16.6753 15.6944 16.4972 15.5173C16.3191 15.3402 16.1855 15.1853 16.6531 15.1631C17.1206 15.141 17.0093 15.141 17.0315 15.0967C17.0538 15.0524 16.9647 14.9639 16.8089 14.7868C16.6531 14.6097 16.4749 14.4548 16.9647 14.4326C17.4545 14.4105 17.321 14.4105 17.3432 14.3662L11.3098 13.0381L17.3877 11.8206C17.3655 11.7763 17.2542 11.7763 17.0093 11.7542C16.7644 11.732 16.5417 11.7542 16.8534 11.4C17.1651 11.0458 17.0983 11.1344 17.0761 11.0901C17.0538 11.0458 16.9425 11.0458 16.6976 11.0458C16.4527 11.0458 16.2301 11.0237 16.5417 10.6695C16.8534 10.3154 16.7866 10.4039 16.7644 10.3596C16.7421 10.3153 16.6308 10.3153 16.3859 10.3153C16.141 10.3153 15.9184 10.2932 16.2523 9.93904C16.5863 9.58486 16.4749 9.67341 16.4749 9.62913C16.4749 9.58486 16.3191 9.58486 16.0965 9.58486C15.8738 9.58486 15.6067 9.56273 15.9406 9.20855C16.2746 8.85438 16.1855 8.94292 16.1633 8.89865L10.9536 12.219L14.3822 7.06137C14.3377 7.03923 14.2486 7.12777 14.0928 7.28272C13.9369 7.43768 13.7365 7.61476 13.7143 7.14991C13.692 6.68505 13.692 6.79574 13.6475 6.7736C13.603 6.75147 13.5139 6.84001 13.3581 6.99496C13.2022 7.14991 13.0018 7.327 12.9796 6.84001C12.9573 6.35302 12.9573 6.48584 12.9128 6.4637C12.8683 6.44156 12.7792 6.5301 12.6011 6.70719C12.423 6.88428 12.2672 7.0171 12.2449 6.55224C12.2226 6.08739 12.2226 6.19806 12.1781 6.17593C12.1336 6.15379 12.0445 6.24234 11.8664 6.39729C11.6883 6.55224 11.5325 6.72933 11.5102 6.24234C11.4879 5.75535 11.4879 5.88816 11.4434 5.86603L10.1299 11.8427L8.88311 5.79962C8.83859 5.82176 8.83859 5.95457 8.83859 6.17593C8.83859 6.39729 8.81632 6.66292 8.4601 6.33088C8.10389 5.99884 8.19294 6.10952 8.14842 6.10952C8.10389 6.10952 8.10389 6.26447 8.10389 6.48583C8.10389 6.70719 8.08163 6.97282 7.74768 6.64078C7.41372 6.30875 7.48052 6.41942 7.43599 6.41942C7.39146 6.41942 7.3692 6.57438 7.3692 6.79574C7.3692 7.0171 7.3692 7.28272 7.01298 6.95069C6.65677 6.61865 6.74582 6.70719 6.70129 6.72933C6.65677 6.75146 6.65677 6.86214 6.6345 7.10564C6.61224 7.34914 6.6345 7.59263 6.27829 7.26059C5.92207 6.92855 6.01113 7.01709 5.9666 7.03923L9.28386 12.219L4.11873 8.78797C4.09647 8.83224 4.16326 8.92079 4.34137 9.09787C4.51947 9.27496 4.67532 9.45204 4.18552 9.47418C3.69573 9.49632 3.82931 9.49632 3.80705 9.54059C3.78478 9.58486 3.87384 9.6734 4.02968 9.82836C4.18552 9.98331 4.36363 10.1825 3.8961 10.2047C3.42857 10.2268 3.53988 10.2268 3.51762 10.2711C3.49536 10.3153 3.58441 10.4039 3.74025 10.5588C3.8961 10.7138 4.07421 10.913 3.58441 10.9352C3.09461 10.9573 3.2282 10.9573 3.20593 11.0016C3.18367 11.0458 3.27272 11.1344 3.45083 11.2893C3.62894 11.4443 3.76252 11.6435 3.29499 11.6656C2.82745 11.6878 2.93877 11.6878 2.91651 11.732L8.92764 13.0381L2.84972 14.2777C2.87198 14.322 2.9833 14.322 3.22819 14.322C3.47309 14.322 3.71799 14.3441 3.38404 14.6983C3.05009 15.0524 3.13914 14.9639 3.16141 15.0082C3.18367 15.0524 3.29499 15.0524 3.53988 15.0524C3.78478 15.0524 4.00742 15.0746 3.69573 15.4066C3.38404 15.7387 3.45083 15.6722 3.47309 15.7387C3.59404 15.7826 3.72367 15.7978 3.85157 15.7829C4.3191 15.7829 4.3191 15.7829 4.00741 16.1371C3.69573 16.4913 3.76252 16.4027 3.78478 16.447C3.80704 16.4913 3.91836 16.4913 4.16326 16.5134C4.40816 16.5355 4.63079 16.5134 4.31911 16.8676C4.00742 17.2218 4.07421 17.1332 4.09647 17.1775L9.28386 13.8792L5.85528 19.0369C5.89981 19.0369 5.98886 18.9705 6.16697 18.7934C6.34508 18.6163 6.50092 18.4614 6.52319 18.9484C6.54545 19.4354 6.54545 19.3025 6.58998 19.3247C6.6345 19.3468 6.72356 19.2583 6.90166 19.1033C7.07977 18.9484 7.23562 18.7713 7.25788 19.2361C7.28014 19.701 7.28014 19.6124 7.32467 19.6124C7.3692 19.6124 7.45825 19.546 7.63636 19.3911C7.81447 19.2361 7.97031 19.059 7.99257 19.546C8.01484 20.033 8.01484 19.9002 8.05937 19.9223C8.10389 19.9445 8.19294 19.8559 8.37105 19.701C8.54916 19.546 8.70501 19.3689 8.72727 19.8338C8.74953 20.2987 8.74953 20.188 8.79406 20.2101L10.1299 14.2334L11.3544 20.2765C11.3989 20.2544 11.3989 20.1437 11.4211 19.9002C11.4434 19.6567 11.4211 19.4132 11.7774 19.7453C12.1336 20.0773 12.0445 19.9888 12.089 19.9666C12.1336 19.9445 12.1336 19.8338 12.1336 19.5903C12.1336 19.3468 12.1558 19.1254 12.5121 19.4353C12.8683 19.7453 12.7792 19.6788 12.8237 19.6567C12.8683 19.6346 12.8683 19.5239 12.8683 19.2804C12.8683 19.0369 12.8905 18.8155 13.2467 19.1254C13.603 19.4353 13.5139 19.3689 13.5584 19.3468C13.603 19.3247 13.603 19.214 13.603 18.9705C13.603 18.727 13.6252 18.5056 13.9814 18.8155C14.3377 19.1254 14.2486 19.059 14.2931 19.0369L10.9759 13.8792Z" fill="white"/>
<path d="M47.9777 1.35029C47.7935 1.59242 47.5846 1.81496 47.3544 2.01437C47.0465 2.31568 46.6733 2.54285 46.2634 2.67845C45.6221 2.94748 44.9487 3.13346 44.2597 3.23185C43.0868 3.3897 41.9032 3.45631 40.7198 3.43107C37.1354 3.47534 38.0482 3.51961 34.5751 3.40893C33.9518 3.38679 32.0816 3.3868 30.0334 3.47534C29.1388 3.51208 28.2541 3.67607 27.4063 3.96233C26.8283 4.13044 26.2854 4.40036 25.8033 4.75922C25.3397 5.16913 24.9615 5.66549 24.6902 6.2202C24.3131 6.92041 24.0786 7.68765 24 8.47806C23.9214 7.68765 23.6869 6.92041 23.3098 6.2202C23.0385 5.66549 22.6603 5.16913 22.1967 4.75922C22.0408 4.62641 21.5955 4.29437 20.5937 3.96233C19.7529 3.67843 18.8759 3.51447 17.9889 3.47534C15.9184 3.3868 14.0482 3.38679 13.4471 3.40893C9.97403 3.51961 10.8646 3.47534 7.30241 3.43107C6.11903 3.45667 4.93544 3.39006 3.76252 3.23185C3.06601 3.13508 2.38503 2.94907 1.73655 2.67845C1.3292 2.53748 0.957142 2.31099 0.645642 2.01437C0.407063 1.8004 0.190757 1.56308 0 1.30602V0C0.1352 0.239654 0.316804 0.450306 0.534325 0.619803C0.880049 0.900761 1.28245 1.10459 1.71429 1.21748C2.30064 1.41917 2.90424 1.56736 3.51763 1.66019C4.77991 1.82041 6.05245 1.88701 7.32468 1.85942C10.8868 1.79301 9.95176 1.85942 13.4249 1.77087C14.0482 1.74874 15.9184 1.7266 17.9666 1.81515C18.8598 1.86345 19.743 2.02715 20.5937 2.30213C21.5955 2.63417 22.0186 2.96622 22.1967 3.12117C22.6649 3.51274 23.0379 4.00465 23.2876 4.56C23.6826 5.27012 23.9252 6.05402 24 6.86214C24.0802 6.058 24.3144 5.27655 24.6902 4.56C24.9567 4.00875 25.3358 3.51874 25.8033 3.12117C25.9814 2.96622 26.4045 2.63417 27.4063 2.30213C28.257 2.02715 29.1402 1.86345 30.0334 1.81515C32.0816 1.7266 33.9518 1.74874 34.5751 1.77087C38.0482 1.85942 37.1132 1.79301 40.6753 1.85942C41.9475 1.88676 43.2201 1.82017 44.4824 1.66019C45.0958 1.56736 45.6994 1.41917 46.2857 1.21748C46.7175 1.10459 47.1199 0.900761 47.4657 0.619803C47.677 0.443975 47.8576 0.234538 48 0V1.32816L47.9777 1.35029Z" fill="white"/>
<path d="M1.17996 50.5806C2.76106 48.9095 4.52316 47.4173 6.43414 46.1313C7.65265 45.363 8.92492 44.6824 10.2412 44.0948C11.506 43.5165 12.8075 43.021 14.1373 42.6117C15.2462 42.2601 16.3765 41.9792 17.5213 41.7705C18.6261 41.5659 19.7408 41.4182 20.8609 41.3278C22.0853 41.2392 23.1317 41.2171 23.9555 41.2171C24.7792 41.2171 25.8033 41.2392 27.0278 41.3278C28.1481 41.4168 29.2628 41.5645 30.3673 41.7705C31.5122 41.9792 32.6425 42.2601 33.7514 42.6117C35.0812 43.021 36.3827 43.5165 37.6475 44.0948C38.9638 44.6824 40.236 45.363 41.4545 46.1313C43.3262 47.3734 45.0448 48.8295 46.5751 50.4699" stroke="white" stroke-width="1.9" stroke-miterlimit="10"/>
<path d="M6.18924 52.1301C6.85606 51.1772 7.59276 50.2745 8.39332 49.4295C8.99974 48.7844 9.64668 48.1781 10.3302 47.6144C10.7978 47.2159 11.3989 46.6847 12.2672 46.0427C12.8453 45.6042 13.4473 45.1978 14.0705 44.8253C14.7407 44.407 15.4317 44.0229 16.141 43.6742C16.898 43.2979 17.4991 43.0322 17.8776 42.8773L19.6586 42.1911L21.2393 41.682C21.7072 41.5431 22.183 41.4322 22.6642 41.3499C23.1053 41.2713 23.5519 41.2269 24 41.2171" stroke="white" stroke-width="1.9" stroke-miterlimit="10"/>
<path d="M41.744 52.1301C41.0769 51.1834 40.348 50.2813 39.5621 49.4295C38.9429 48.7894 38.2889 48.1834 37.603 47.6144C37.1577 47.2159 36.5343 46.6847 35.666 46.0427C34.7978 45.4008 34.0631 44.9359 33.885 44.8253C33.7069 44.7146 32.7495 44.139 31.7922 43.6742C30.8349 43.2093 30.4341 43.0322 30.0556 42.8773L28.2746 42.1911L26.6939 41.682C26.2328 41.546 25.7645 41.4351 25.2913 41.3499C24.8425 41.2721 24.3886 41.2277 23.9332 41.2171" stroke="white" stroke-width="1.9" stroke-miterlimit="10"/>
<path d="M14.872 52.44C14.9833 52.0858 15.2727 51.2225 15.4954 50.7355C15.715 50.258 15.9603 49.7925 16.2301 49.341C16.6311 48.6608 17.0696 48.0031 17.5436 47.3709C18.0557 46.6625 18.4787 46.1755 18.8794 45.7107C19.2802 45.2458 19.7254 44.7146 20.3043 44.139C20.7502 43.6953 21.2184 43.2742 21.7069 42.8773C22.0853 42.5453 22.3525 42.3018 22.7978 41.9697C23.1674 41.6949 23.5541 41.4436 23.9555 41.2171" stroke="white" stroke-width="1.9" stroke-miterlimit="10"/>
<path d="M33.0835 52.5728C32.9722 52.2186 32.616 51.2225 32.3933 50.7355C32.1737 50.258 31.9284 49.7925 31.6586 49.341C31.2656 48.6558 30.8268 47.9976 30.3451 47.3709C29.833 46.6625 29.41 46.1755 29.0093 45.7107C28.6085 45.2458 28.1633 44.7146 27.5844 44.139C27.1385 43.6953 26.6703 43.2742 26.1818 42.8773C25.8033 42.5453 25.5362 42.3018 25.1132 41.9697C24.6902 41.6377 24.2449 41.3721 23.9555 41.2171" stroke="white" stroke-width="1.9" stroke-miterlimit="10"/>
<path d="M23.9555 41.2171L23.9332 57" stroke="white" stroke-width="1.9" stroke-miterlimit="10"/>
<path d="M4.18553 47.7029C4.79829 48.0479 5.43009 48.3583 6.07792 48.6327C6.97488 49.0377 7.89699 49.3852 8.83859 49.673C9.76766 49.9714 10.7114 50.2225 11.6661 50.4257L14.2931 50.9791C14.8943 51.0897 15.7848 51.2447 16.987 51.3996C18.1085 51.5684 19.238 51.6792 20.3711 51.7317C21.3729 51.7981 22.5751 51.8424 23.9332 51.7981" stroke="white" stroke-width="1.9" stroke-miterlimit="10"/>
<path d="M43.6809 47.7029C43.0681 48.0479 42.4363 48.3583 41.7885 48.6327C40.8915 49.0377 39.9694 49.3852 39.0278 49.673C38.0988 49.9714 37.1551 50.2225 36.2004 50.4257L33.5955 50.9791C32.9944 51.0897 32.0816 51.2447 30.8794 51.3996C29.7579 51.5684 28.6284 51.6792 27.4953 51.7317C26.4935 51.7981 25.2913 51.8424 23.9332 51.7981" stroke="white" stroke-width="1.9" stroke-miterlimit="10"/>
<path d="M12.2004 43.2314C13.0241 43.5415 13.8639 43.8075 14.7161 44.0283C15.794 44.2825 16.8872 44.4673 17.9889 44.5817C19.0575 44.6924 19.9035 44.7588 21.0167 44.8252L22.9091 44.9138H23.9555" stroke="white" stroke-width="1.9" stroke-miterlimit="10"/>
<path d="M35.6883 43.2314C34.8658 43.5448 34.0258 43.8109 33.1725 44.0283C32.0947 44.2825 31.0015 44.4673 29.8998 44.5817C28.8534 44.6924 27.9852 44.7588 26.8943 44.8252L24.9796 44.9138H23.9555" stroke="white" stroke-width="1.9" stroke-miterlimit="10"/>
</g>
<defs>
<clipPath id="clip0_54:20">
<rect width="48" height="57" fill="white"/>
</clipPath>
</defs>
</svg>
