<svg id="Layer_1" data-name="Layer 1" xmlns="http://www.w3.org/2000/svg" viewBox="0 0 154.4 4.32"><defs><style>.cls-1{fill:#eef8fa;}.cls-2{fill:#3dc5c8;}</style></defs><title>4</title><path class="cls-1" d="M466.39,1077H432c-1.53,0-2.95.27-2.86-2.18.09-2.18,1.29-2,2.75-2q34.59,0,69.17,0c1.58,0,2.88-.17,2.84,2.22s-1.32,2-2.73,2Z" transform="translate(-429.09 -1072.68)"/><path class="cls-2" d="M583.49,1072.7c0,1.42,0,2.84,0,4.26q-32.37,0-64.74-.06c-1.12,0-2.71.68-2.94-1.49s.55-2.74,2.66-2.73c14.09.08,28.18,0,42.26,0Z" transform="translate(-429.09 -1072.68)"/></svg>