<svg id="Layer_1" data-name="Layer 1" xmlns="http://www.w3.org/2000/svg" viewBox="0 0 97.91 71.88"><defs><style>.cls-1{fill:#fe3d0d;}.cls-2{fill:#fdfdfd;}</style></defs><title>6</title><path class="cls-1" d="M324.83,208.37H359.6c5.51,0,8.52,2.84,8.66,8.4q.18,6.89,0,13.78a5.26,5.26,0,0,0,1.9,4.42c2.73,2.49,5.29,5.15,8,7.64,1.21,1.1,1.39,1.82.08,3-2.72,2.51-5.19,5.28-7.9,7.78a5.87,5.87,0,0,0-2.11,4.94c.16,4.29.11,8.59,0,12.89-.1,6-3.16,9-9.1,9H290.23c-6.15,0-9-2.79-9-8.94q0-27.13,0-54.25c0-6,2.73-8.68,8.81-8.68Z" transform="translate(-281.23 -208.36)"/><path class="cls-2" d="M304.93,243.15l8.73,3.68c2,.84,3.24,4.59,2.25,6.51-.44.85-1,.43-1.46.18-4.83-2.39-9.68-4.73-14.47-7.2-1.79-.93-1.73-5.69.07-6.6,4.72-2.39,9.5-4.63,14.23-7,1.15-.57,1.58-.41,1.67.93.2,2.79.31,5.27-3.32,6.19C310.18,240.47,307.93,241.83,304.93,243.15Z" transform="translate(-281.23 -208.36)"/><path class="cls-2" d="M335.65,254.12c-.43-6.2-.43-6.2,4.59-8.35l6.33-2.7c-3.44-1.48-6.3-2.69-9.14-3.93-1.58-.69-2.81-5.09-1.81-6.38.5-.64,1.06-.25,1.57,0,4.75,2.32,9.52,4.58,14.23,7,1.88,1,1.95,5.6.07,6.58C346.37,249,341.17,251.42,335.65,254.12Z" transform="translate(-281.23 -208.36)"/><path class="cls-2" d="M332.81,222c-1.37,4.95-2.62,9.44-3.85,13.94-1.86,6.82-3.7,13.66-5.58,20.48a3.58,3.58,0,0,1-4.72,2c-.78-.41-.45-.95-.29-1.51,3-11.06,6-22.12,9.11-33.17C328.33,220.7,330.77,222.84,332.81,222Z" transform="translate(-281.23 -208.36)"/></svg>