<svg id="Layer_1" data-name="Layer 1" xmlns="http://www.w3.org/2000/svg" viewBox="0 0 40.82 4.79"><defs><style>.cls-1{fill:#2c7de6;}.cls-2{fill:#ddceb5;}.cls-3{fill:#d8cbb3;}</style></defs><title>10</title><path class="cls-1" d="M506.79,1077.43c-2.78,0-5.57-.08-8.35,0-1.71.06-2.54-.37-2.5-2.3,0-1.72.44-2.51,2.34-2.48q8.5.15,17,0c1.9,0,2.32.74,2.35,2.47,0,1.92-.76,2.38-2.49,2.31C512.36,1077.35,509.58,1077.43,506.79,1077.43Z" transform="translate(-485.74 -1072.67)"/><path class="cls-2" d="M490,1075.23c.32,1.68-.43,2.15-2.1,2.22-2.09.08-2.08-1-2.15-2.56-.08-1.83.79-2.05,2.32-2.09C490,1072.74,490.18,1073.74,490,1075.23Z" transform="translate(-485.74 -1072.67)"/><path class="cls-3" d="M526.49,1075.17c.29,1.65-.35,2.27-2.06,2.27s-2.29-.52-2.2-2.2c.07-1.37,0-2.49,1.95-2.46C525.92,1072.81,526.82,1073.31,526.49,1075.17Z" transform="translate(-485.74 -1072.67)"/></svg>