<svg id="Layer_1" data-name="Layer 1" xmlns="http://www.w3.org/2000/svg" viewBox="0 0 102.63 4.34"><defs><style>.cls-1{fill:#e8d5b7;}.cls-2{fill:#2c7ee9;}</style></defs><title>3</title><path class="cls-1" d="M519.72,1073h34.72c1.52,0,3.14-.5,3.1,2.21,0,2.54-1.51,2.06-2.93,2.06H484.26c-1.53,0-2.82.24-2.79-2.19s1.48-2.09,2.92-2.09Z" transform="translate(-454.91 -1072.92)"/><path class="cls-2" d="M464.6,1077.23c-2.59,0-5.18-.06-7.77,0-1.72,0-1.93-.86-1.92-2.25s.36-2,1.85-2c5.28,0,10.55.06,15.83,0,1.56,0,2.11.57,2.1,2.1s-.39,2.22-2,2.17C470,1077.17,467.29,1077.23,464.6,1077.23Z" transform="translate(-454.91 -1072.92)"/></svg>