<svg width="168" height="167" viewBox="0 0 168 167" fill="none" xmlns="http://www.w3.org/2000/svg">
<g filter="url(#filter0_d_0_1)">
<path d="M154.449 73.6961C155.829 73.1761 157.039 72.2161 158.449 71.6261C159.859 71.0361 160.449 70.1761 159.859 68.4461C158.339 63.5861 156.949 58.6761 155.739 53.7261C155.219 51.5661 154.179 51.0761 152.149 51.3761C149.899 51.7161 147.599 51.7961 145.309 51.9361C143.979 52.0261 142.609 51.8761 141.819 50.6761C140.719 49.0161 139.819 47.2361 138.819 45.5161C138.583 45.1934 138.45 44.8076 138.435 44.4084C138.421 44.0091 138.527 43.6148 138.739 43.2761C140.199 41.0261 141.019 38.3561 142.989 36.4461C144.369 35.0961 143.989 34.0761 142.799 32.9461C140.319 30.6461 137.919 28.2661 135.399 26.0261C133.479 24.3261 132.049 21.5561 129.619 21.1061C129.287 21.0565 128.95 21.0565 128.619 21.1061C127.555 21.1555 126.546 21.5972 125.789 22.3461C124.009 23.7661 121.899 24.7661 120.089 26.1561C119.546 26.0481 119.029 25.834 118.569 25.5261C110.159 20.3661 111.269 23.6061 111.569 13.6161C111.569 13.3161 111.569 13.0161 111.619 12.7161C111.759 11.4761 111.199 11.0261 109.979 10.7161C106.979 10.0661 103.979 9.3361 100.979 8.6061L98.7487 8.0461C91.3887 6.2361 91.1087 6.1161 88.0587 13.1361C86.2887 17.2361 83.9687 19.0261 79.5187 18.3761C77.9687 18.1461 76.9987 17.8661 76.2887 16.3761C75.0187 13.6861 73.4787 11.1061 72.0987 8.45611C71.5387 7.38611 71.0487 6.7761 69.5687 7.2461C64.4487 8.87277 59.2954 10.3761 54.1087 11.7561C51.9787 12.3261 51.3487 13.6261 51.8687 15.4761C52.6487 18.2361 52.2187 21.0261 52.4087 23.7961C52.5287 25.3961 51.7587 26.1761 50.5087 27.1361C47.0687 29.7861 44.0087 29.4861 40.8187 26.8161C39.6887 25.8161 38.2587 25.2861 37.0687 24.3861C35.8787 23.4861 34.8487 23.3861 33.6087 24.7161C30.1187 28.4261 26.5187 32.0461 22.7987 35.5161C21.1787 37.0361 21.2587 38.1861 22.5187 39.7961C23.9187 41.6061 25.1087 43.5661 26.3587 45.4861C27.0887 46.6061 27.6287 47.8761 26.9687 49.1561C26.0587 50.9261 24.9687 52.5861 23.9687 54.3061C23.8035 54.6695 23.5332 54.9751 23.1929 55.1836C22.8525 55.3921 22.4575 55.494 22.0587 55.4761C19.3787 55.3061 16.6487 55.8961 14.0587 55.1261C12.2087 54.5761 11.4887 55.3861 11.0587 56.9961C10.2787 60.2861 9.37871 63.5461 8.66871 66.8461C8.12871 69.3461 6.4087 71.9561 7.2087 74.2961C8.1387 77.0061 11.7287 76.8161 13.9587 78.2961C14.1306 78.3987 14.3113 78.4857 14.4987 78.5561C16.0687 79.0961 16.4987 80.2161 16.4987 81.8161C16.1187 91.6861 18.3987 89.1261 9.49871 93.8161C9.22871 93.9561 8.96869 94.0961 8.68869 94.2161C7.53869 94.6961 7.4187 95.3961 7.7887 96.5961C9.1887 101.156 10.4087 105.776 11.7887 110.346C13.0287 114.526 13.7887 114.966 18.0987 114.266C22.8387 113.496 22.3787 113.826 25.0387 117.456C28.3187 121.946 28.0387 125.716 24.6387 129.666C23.9387 130.476 23.8387 131.086 24.6887 131.916C28.7587 135.916 32.7687 139.916 36.7787 143.986C37.6787 144.896 38.5987 145.266 39.6187 144.256C43.6187 140.303 47.672 140.219 51.7787 144.006C51.8655 144.059 51.9557 144.105 52.0487 144.146C56.6187 146.526 56.6387 146.556 55.5987 151.776C55.2487 153.536 55.3387 154.776 57.5987 155.236C62.8287 156.366 67.9887 157.826 73.1787 159.156C74.6287 159.536 75.5987 159.276 76.1287 157.636C77.5187 153.376 80.1887 151.006 84.9787 152.096C85.0748 152.111 85.1726 152.111 85.2687 152.096C91.3987 151.476 91.4387 151.456 94.3387 156.936C95.0387 158.256 95.5987 158.836 97.3387 158.296C101.879 156.846 106.509 155.696 111.119 154.456C114.789 153.456 115.729 152.456 114.619 148.716C113.569 145.156 115.199 143.806 117.709 141.836C122.169 138.316 126.159 137.716 130.419 141.746C131.419 142.676 132.199 142.446 132.899 141.476C135.899 137.306 139.829 134.026 143.459 130.476C145.289 128.686 145.549 127.346 143.809 125.526C140.399 121.936 140.239 118.336 142.999 114.066C145.499 110.176 145.159 109.996 149.769 110.666C150.963 110.768 152.162 110.795 153.359 110.746C153.628 110.778 153.901 110.755 154.16 110.678C154.42 110.601 154.662 110.472 154.87 110.299C155.079 110.126 155.25 109.913 155.374 109.671C155.497 109.43 155.57 109.166 155.589 108.896C156.589 104.436 157.649 100.006 158.729 95.5761C159.839 90.9861 159.889 90.9161 155.509 88.8561C152.509 87.4361 149.889 86.2161 149.569 82.0661C149.499 81.1961 149.459 80.4561 149.439 79.8061C149.589 76.7761 151.309 74.8861 154.449 73.6961ZM83.3387 118.416C66.0587 119.186 47.8787 104.046 48.0987 83.1161C48.2631 73.7314 52.1489 64.7964 58.9011 58.2767C65.6534 51.757 74.719 48.1867 84.1037 48.3511C93.4884 48.5155 102.423 52.4013 108.943 59.1535C115.463 65.9058 119.033 74.9714 118.869 84.3561C118.529 102.066 102.639 119.286 83.3387 118.416Z" fill="#D1DAE9"/>
</g>
<g filter="url(#filter1_d_0_1)">
<path d="M85.1087 32.4861C55.2687 31.7061 32.7587 54.7061 32.7287 82.8661C32.7287 111.276 54.6087 133.316 83.2387 133.866C111.969 133.596 133.949 111.626 134.239 83.7561C134.512 70.4452 129.492 57.5697 120.281 47.957C111.069 38.3443 98.4192 32.7801 85.1087 32.4861ZM83.2487 123.156C61.0787 122.846 43.8187 105.986 43.4787 84.3561C43.0987 60.3561 60.6087 43.1661 83.8987 43.1361C105.549 43.1361 123.579 59.9361 123.509 83.9161C123.439 105.266 105.199 123.586 83.2487 123.126V123.156Z" fill="#AFBEDD"/>
</g>
<defs>
<filter id="filter0_d_0_1" x="0" y="0" width="167.086" height="166.31" filterUnits="userSpaceOnUse" color-interpolation-filters="sRGB">
<feFlood flood-opacity="0" result="BackgroundImageFix"/>
<feColorMatrix in="SourceAlpha" type="matrix" values="0 0 0 0 0 0 0 0 0 0 0 0 0 0 0 0 0 0 127 0" result="hardAlpha"/>
<feOffset/>
<feGaussianBlur stdDeviation="3.5"/>
<feComposite in2="hardAlpha" operator="out"/>
<feColorMatrix type="matrix" values="0 0 0 0 0 0 0 0 0 0 0 0 0 0 0 0 0 0 0.25 0"/>
<feBlend mode="normal" in2="BackgroundImageFix" result="effect1_dropShadow_0_1"/>
<feBlend mode="normal" in="SourceGraphic" in2="effect1_dropShadow_0_1" result="shape"/>
</filter>
<filter id="filter1_d_0_1" x="26.7287" y="26.4669" width="113.521" height="113.399" filterUnits="userSpaceOnUse" color-interpolation-filters="sRGB">
<feFlood flood-opacity="0" result="BackgroundImageFix"/>
<feColorMatrix in="SourceAlpha" type="matrix" values="0 0 0 0 0 0 0 0 0 0 0 0 0 0 0 0 0 0 127 0" result="hardAlpha"/>
<feOffset/>
<feGaussianBlur stdDeviation="3"/>
<feComposite in2="hardAlpha" operator="out"/>
<feColorMatrix type="matrix" values="0 0 0 0 0 0 0 0 0 0 0 0 0 0 0 0 0 0 0.25 0"/>
<feBlend mode="normal" in2="BackgroundImageFix" result="effect1_dropShadow_0_1"/>
<feBlend mode="normal" in="SourceGraphic" in2="effect1_dropShadow_0_1" result="shape"/>
</filter>
</defs>
</svg>
