<svg width="167" height="166" viewBox="0 0 167 166" fill="none" xmlns="http://www.w3.org/2000/svg">
<g filter="url(#filter0_d_0_1)">
<path d="M154.52 73.68C155.9 73.16 157.11 72.2 158.47 71.61C159.99 70.94 160.47 70.16 159.89 68.43C158.357 63.57 156.983 58.6633 155.77 53.71C155.24 51.55 154.21 51.06 152.18 51.36C149.92 51.7 147.62 51.78 145.34 51.92C144.01 52.01 142.64 51.86 141.84 50.66C140.75 49 139.84 47.22 138.84 45.5C138.603 45.1783 138.468 44.793 138.452 44.3938C138.436 43.9945 138.54 43.5996 138.75 43.26C140.22 41.01 141.04 38.34 143 36.43C144.39 35.08 144 34.06 142.82 32.93C140.34 30.63 137.94 28.25 135.41 26.01C133.5 24.31 132.07 21.54 129.64 21.09C129.309 21.0406 128.972 21.0406 128.64 21.09C127.573 21.1407 126.562 21.582 125.8 22.33C124.02 23.75 121.91 24.75 120.11 26.14C119.567 26.032 119.05 25.8179 118.59 25.51C110.18 20.35 111.29 23.59 111.59 13.6C111.59 13.3 111.59 13 111.65 12.7C111.79 11.46 111.23 11.01 110.01 10.7C107.01 10.05 104.01 9.31999 101.01 8.58999L98.7801 8.02999C91.4101 6.21999 91.1301 6.09999 88.0901 13.12C86.3101 17.22 83.9901 19.01 79.5501 18.36C78.0001 18.13 77.0301 17.85 76.3201 16.36C75.0401 13.67 73.5101 11.09 72.1201 8.43999C71.5601 7.36999 71.0701 6.76 69.6001 7.23C64.4801 8.85667 59.3267 10.36 54.1401 11.74C52.0001 12.31 51.3701 13.61 51.8901 15.46C52.6701 18.22 52.2401 21.01 52.4401 23.78C52.5501 25.38 51.7801 26.16 50.5401 27.12C47.1001 29.77 44.0401 29.47 40.8501 26.8C39.7101 25.85 38.2801 25.27 37.1001 24.37C35.9201 23.47 34.8801 23.37 33.6301 24.7C30.1501 28.41 26.5501 32.03 22.8301 35.5C21.2101 37.02 21.2801 38.17 22.5401 39.78C23.9401 41.59 25.1401 43.55 26.3901 45.47C27.1101 46.59 27.6601 47.86 27.0001 49.14C26.0901 50.91 25.0001 52.57 24.0001 54.29C23.8327 54.6652 23.5538 54.9798 23.2013 55.1909C22.8488 55.402 22.4399 55.4995 22.0301 55.47C19.3501 55.3 16.6201 55.89 14.0301 55.12C12.1801 54.57 11.4601 55.38 11.0301 56.99C10.2401 60.28 9.34008 63.54 8.63008 66.84C8.09008 69.34 6.37007 71.95 7.18007 74.29C8.11007 77 11.7001 76.81 13.9301 78.24C14.1009 78.3445 14.2818 78.4316 14.4701 78.5C16.0301 79.04 16.4701 80.16 16.4201 81.76C16.0501 91.63 18.3301 89.07 9.47008 93.71C9.21008 93.85 8.94009 93.99 8.67009 94.11C7.52009 94.59 7.40007 95.29 7.77007 96.49C9.17006 101.05 10.3801 105.67 11.7701 110.24C13.0101 114.42 13.7701 114.86 18.0701 114.16C22.8201 113.39 22.3601 113.72 25.0101 117.35C28.3001 121.84 28.0101 125.61 24.6101 129.56C23.9101 130.37 23.8101 130.98 24.6701 131.81C28.7301 135.81 32.7501 139.81 36.7601 143.88C37.6601 144.79 38.5801 145.16 39.6001 144.15C43.6001 140.2 47.6001 140.15 51.7601 143.9C51.8422 143.955 51.9292 144.001 52.0201 144.04C56.6001 146.42 56.6201 146.45 55.5801 151.67C55.2301 153.43 55.3201 154.67 57.5801 155.13C62.8101 156.26 67.9801 157.72 73.1701 159.05C74.6101 159.43 75.5901 159.17 76.1201 157.53C77.5001 153.27 80.1801 150.9 84.9601 151.99C85.0595 152.005 85.1607 152.005 85.2601 151.99C91.3901 151.37 91.4201 151.35 94.3301 156.83C95.0301 158.15 95.5801 158.73 97.3301 158.19C101.87 156.74 106.51 155.59 111.11 154.35C114.78 153.35 115.72 152.35 114.62 148.61C113.57 145.05 115.19 143.7 117.7 141.73C122.17 138.21 126.15 137.61 130.41 141.64C130.561 141.844 130.762 142.005 130.994 142.106C131.226 142.208 131.481 142.247 131.733 142.22C131.984 142.193 132.225 142.1 132.43 141.951C132.635 141.801 132.797 141.601 132.9 141.37C135.9 137.2 139.83 133.92 143.45 130.37C145.28 128.58 145.54 127.24 143.81 125.42C140.4 121.83 140.24 118.23 142.99 113.96C145.5 110.07 145.16 109.89 149.77 110.56C150.964 110.662 152.163 110.689 153.36 110.64C153.629 110.672 153.902 110.649 154.162 110.572C154.422 110.495 154.663 110.366 154.872 110.193C155.08 110.02 155.251 109.806 155.375 109.565C155.498 109.324 155.572 109.06 155.59 108.79C156.59 104.33 157.65 99.9 158.72 95.47C159.83 90.88 159.88 90.81 155.51 88.75C152.51 87.33 149.88 86.11 149.57 81.96C149.5 81.09 149.45 80.35 149.44 79.7C149.65 76.76 151.38 74.87 154.52 73.68ZM83.4001 118.4C66.1201 119.17 47.9501 104.03 48.1701 83.1C48.2515 78.4532 49.2474 73.8679 51.1009 69.6059C52.9544 65.344 55.6291 61.4888 58.9725 58.2606C62.3159 55.0324 66.2624 52.4943 70.5866 50.7912C74.9109 49.0882 79.5282 48.2536 84.1751 48.335C88.8219 48.4164 93.4072 49.4123 97.6691 51.2658C101.931 53.1193 105.786 55.794 109.014 59.1374C112.243 62.4808 114.781 66.4273 116.484 70.7515C118.187 75.0758 119.021 79.6932 118.94 84.34C118.6 102.05 102.71 119.27 83.4001 118.4Z" fill="#E0EDFD"/>
</g>
<g filter="url(#filter1_d_0_1)">
<path d="M85.1701 32.47C55.3401 31.69 32.83 54.69 32.8 82.85C32.8 111.26 54.6801 133.3 83.3101 133.85C112.04 133.58 134.02 111.61 134.31 83.74C134.584 70.4274 129.562 57.5504 120.348 47.9374C111.135 38.3244 98.4823 32.7613 85.1701 32.47ZM83.3201 123.14C61.1501 122.83 43.8901 105.97 43.5401 84.34C43.1601 60.34 60.6701 43.15 83.9701 43.12C105.62 43.12 123.64 59.92 123.57 83.9C123.51 105.25 105.26 123.57 83.3201 123.11V123.14Z" fill="#D1DAE9"/>
</g>
<defs>
<filter id="filter0_d_0_1" x="0.966797" y="0.983887" width="165.162" height="164.22" filterUnits="userSpaceOnUse" color-interpolation-filters="sRGB">
<feFlood flood-opacity="0" result="BackgroundImageFix"/>
<feColorMatrix in="SourceAlpha" type="matrix" values="0 0 0 0 0 0 0 0 0 0 0 0 0 0 0 0 0 0 127 0" result="hardAlpha"/>
<feOffset/>
<feGaussianBlur stdDeviation="3"/>
<feComposite in2="hardAlpha" operator="out"/>
<feColorMatrix type="matrix" values="0 0 0 0 0 0 0 0 0 0 0 0 0 0 0 0 0 0 0.25 0"/>
<feBlend mode="normal" in2="BackgroundImageFix" result="effect1_dropShadow_0_1"/>
<feBlend mode="normal" in="SourceGraphic" in2="effect1_dropShadow_0_1" result="shape"/>
</filter>
<filter id="filter1_d_0_1" x="26.8" y="26.4507" width="113.521" height="113.399" filterUnits="userSpaceOnUse" color-interpolation-filters="sRGB">
<feFlood flood-opacity="0" result="BackgroundImageFix"/>
<feColorMatrix in="SourceAlpha" type="matrix" values="0 0 0 0 0 0 0 0 0 0 0 0 0 0 0 0 0 0 127 0" result="hardAlpha"/>
<feOffset/>
<feGaussianBlur stdDeviation="3"/>
<feComposite in2="hardAlpha" operator="out"/>
<feColorMatrix type="matrix" values="0 0 0 0 0 0 0 0 0 0 0 0 0 0 0 0 0 0 0.25 0"/>
<feBlend mode="normal" in2="BackgroundImageFix" result="effect1_dropShadow_0_1"/>
<feBlend mode="normal" in="SourceGraphic" in2="effect1_dropShadow_0_1" result="shape"/>
</filter>
</defs>
</svg>
