<svg width="264" height="227" viewBox="0 0 264 227" fill="none" xmlns="http://www.w3.org/2000/svg">
<path fill-rule="evenodd" clip-rule="evenodd" d="M253.531 16.1616C228.813 -24.9107 202.097 38.9791 169.324 11.7298C136.552 -15.5195 99.3847 12.7884 96.1373 16.1614C89.1427 23.4264 87.7518 31.3554 87.7518 31.3554C85.0837 46.5922 90.0274 54.5897 91.9929 68.6037C94.7122 87.9817 23.9475 95.4662 9.45774 125.464C-0.33009 145.702 -5.69192 173.238 9.45489 199.938C22.8609 223.599 45.0762 226.726 54.8043 225.896C90.2919 222.85 98.1284 205.025 128.078 206.231C155.726 207.342 156.46 225.007 188.449 226.897C192.238 227.122 232.843 228.929 253.03 201.214C266.333 182.948 264.328 160.7 263.128 147.387C259.686 109.181 239.214 103.273 244.912 77.8695C248.041 63.921 256.432 55.7952 256.662 35.0777C256.75 27.1344 256.827 21.6379 253.531 16.1616Z" fill="#1C3F77"/>
</svg>
