<svg width="228" height="289" viewBox="0 0 228 289" fill="none" xmlns="http://www.w3.org/2000/svg">
<path d="M80.8088 201.105C78.6995 200.457 77.7004 198.56 76.4501 197.02C73.1722 193.016 69.3977 190.775 64.0866 192.701C63.5498 192.932 62.9593 193.011 62.3805 192.928C60.0433 192.345 58.7988 193.459 58.162 195.578C58.0817 195.859 57.9232 196.111 57.7049 196.305C57.4867 196.5 57.2176 196.628 56.9291 196.675C56.9291 197.09 56.8945 197.686 57.1553 199C58.0235 203.375 68.941 206 73.441 205C62.6917 210.242 89.441 208.5 73.441 205C73.362 205.166 79.5818 201.703 73.441 205C73.4176 207.019 76.441 205.5 73.441 205C68.3694 205.012 71.941 211 73.441 205C83.441 212.5 73.441 196.165 73.441 205C76.7714 205 56.4014 195.712 57.2778 199.5C57.5641 200.731 61.496 203.856 63.1553 205C65.0499 206.714 65.0802 206.703 66.1553 207.363C68.0075 208.197 69.684 208.383 71.5362 206.778C72.4302 205.687 73.3475 204.613 74.2765 203.498C73.7448 204.531 73.2482 205.529 73.441 206.714C75.3224 208.751 76.8928 211.58 78.8794 213.5C80.4044 209.911 81.2236 204.928 80.8088 201.105Z" fill="#ECA785"/>
<path d="M179.053 237.272C183.931 236.14 188.915 236.607 193.847 236.28C201.945 235.743 205.561 230.992 203.423 223.142C202.888 221.101 202.957 218.948 203.622 216.944C204.849 212.684 206.619 208.575 207.268 204.157C205.678 202.47 203.937 201.028 201.559 200.602C198.334 199.54 199.993 203.124 198.357 203.736C197.937 203.614 197.861 202.68 197.089 202.756C194.297 202.417 191.802 203.252 189.459 204.676C186.993 205.166 186.537 206.427 187.507 208.761C189.003 212.316 190.288 215.964 191.533 219.611C192.777 223.259 192.573 223.434 188.863 223.341C185.575 223.29 182.31 222.802 179.152 221.887C175.062 219.454 170.388 219.232 165.889 218.456C162.301 218.356 158.714 218.38 155.126 218.456C152.98 218.525 150.874 217.858 149.161 216.565C141.46 210.845 133.181 210.197 124.446 213.886C122.985 214.505 121.618 215.205 121.092 216.862C120.753 218.736 121.442 220.481 121.898 222.22C123.067 226.773 122.763 231.558 124.066 236.076C124.797 236.738 125.761 237.084 126.748 237.039C139.853 237.436 152.929 238.749 166.064 238.206C169.318 238.375 172.567 238.264 175.822 238.27C176.983 238.329 178.127 237.975 179.053 237.272Z" fill="#ACD5F3"/>
<path d="M87.7178 198.25C84.3348 196.026 82.7339 192.413 80.7707 189.133C78.7082 185.702 76.0965 182.988 72.5032 181.254C67.2446 178.733 61.6881 179.101 58.346 182.27C55.0039 185.439 54.0515 192.192 56.3361 197.17C56.4618 197.249 56.6024 197.3 56.7491 197.321C56.8958 197.343 57.0453 197.333 57.1882 197.294C57.331 197.254 57.464 197.185 57.5789 197.092C57.6937 196.998 57.7878 196.882 57.8552 196.75C60.128 192.618 64.4108 194.252 67.788 193.429C70.2829 192.845 71.9481 195.046 73.7185 196.569C75.9679 198.507 77.3702 201.46 80.5371 202.306C83.9084 202.966 87.2504 201.962 90.6101 202.137C91.691 201.693 91.3872 201.022 90.8321 200.386C90.2603 199.763 89.5938 199.233 88.8572 198.816C88.462 198.66 88.0808 198.471 87.7178 198.25Z" fill="#2E344E"/>
<path d="M114.879 202L114.839 203.118C114.909 205.633 114.757 208.154 114.921 210.664C114.828 212.999 115.237 215.426 114.097 217.668C113.975 223.72 114.278 229.737 115.622 235.667C116.068 236.013 116.612 236.209 117.176 236.226C117.74 236.242 118.295 236.08 118.76 235.76C120.22 233.356 119.578 230.694 119.525 228.173C119.55 224.522 119.136 220.882 118.292 217.329C117.369 215.362 118.199 213.162 117.463 211.166C117.463 207.868 117.118 205.792 116.954 202.5C114.997 202.488 116.545 205.221 116.954 202.5C117.213 200.78 116.954 194.211 116.954 194.211C116.954 130.789 116.954 67.3459 116.954 3.88117C116.954 2.71389 117.287 1.45326 116.37 0C115.424 1.44159 115.786 2.71389 115.786 3.88117C115.786 67.3031 115.786 130.745 115.786 194.205C115.786 198.688 114.879 202 114.879 202Z" fill="#DDDDDD"/>
<path d="M210.294 194.982C214.565 191.754 218.86 188.655 224.603 188.696C225.696 188.696 227.034 188.188 227.157 186.758C227.273 185.433 226.28 184.686 225.188 184.155C222.792 182.988 220.186 182.042 217.627 182.83C214.279 183.852 210.954 183.857 207.583 183.577C205.754 183.426 204.942 184.027 204.82 185.912C204.672 188.13 204.808 190.358 205.223 192.542C207.712 191.701 209.541 192.227 210.294 194.982Z" fill="#555D94"/>
<path d="M195.769 189.653C196.251 189.055 196.688 188.423 197.078 187.762C199.064 183.892 201.635 180.63 205.719 178.739C207.017 178.155 208.506 177.245 208.021 175.488C207.496 173.579 205.684 173.737 204.142 173.737C201.273 173.813 198.603 174.507 196.453 176.585C194.501 178.465 191.96 179.27 189.441 179.964C186.841 180.694 186.479 182.042 187.572 184.231C188.465 186.028 188.95 188.059 190.534 189.484C192.339 188.1 194.11 187.108 195.769 189.653Z" fill="#6B75B9"/>
<path d="M195.769 189.653C195.658 188.485 195.699 187.184 194.017 187.219C192.421 187.254 190.856 187.441 190.569 189.495C191.025 194.614 189.827 199.615 189.471 204.67C192.077 204.312 194.636 203.668 197.102 202.75C196.856 198.372 195.658 194.077 195.769 189.653Z" fill="#ECA887"/>
<path d="M210.295 194.981C210.295 193.744 211.037 192.326 209.278 191.544C207.613 190.797 206.357 191.334 205.223 192.536C205.106 195.723 202.687 197.87 201.56 200.602C203.296 202.035 205.216 203.23 207.268 204.156C208.215 201.075 208.817 197.882 210.295 194.981Z" fill="#ECA787"/>
<path d="M121.419 216.71L117.58 217.224C118.542 223.169 118.891 229.196 118.62 235.212L124.13 235.632C124.457 229.148 122.932 222.926 121.419 216.71Z" fill="#FBC756"/>
<path d="M99.4213 235.504C104.872 235.796 110.336 235.755 115.781 235.381C115.688 229.422 115.08 223.498 114.496 217.574C114.412 217.401 114.287 217.25 114.133 217.134C113.978 217.018 113.798 216.941 113.608 216.909C109.424 216.471 106.392 214.032 103.599 211.178C100.678 207.968 97.6452 204.927 93.9116 202.657C93.2395 202.201 92.4855 201.88 91.6913 201.711H91.2881C87.6071 200.818 83.9087 202.015 80.2218 201.577C79.0124 204.454 79.7602 207.588 79.0182 210.536C78.8371 211.254 79.1467 212.077 78.5917 212.736C76.9265 214.884 77.2946 217.113 78.3288 219.366C79.4214 220.533 80.8762 220.533 82.3077 220.621C84.2943 220.779 86.3276 220.738 88.098 221.858C89.0912 223.685 88.9043 225.734 89.214 227.695C89.3483 228.535 89.2607 229.411 89.3542 230.269C89.7807 234.097 90.0203 234.354 93.5902 234.938L94.7237 235.013C96.237 235.673 97.9081 234.821 99.4213 235.504Z" fill="#FDC854"/>
<path d="M64.3794 206C65.3318 207.208 67.8639 209.421 67.8639 211.038C68.2729 216.611 66.2864 221.543 63.6512 226.259C62.693 227.426 61.8984 228.593 62.5586 230.193C61.2499 234.698 62.3541 236.653 66.9232 237.64C70.0842 238.323 73.175 237.85 76.1958 236.764C78.0129 236.543 78.5329 235.013 78.7432 233.677C79.4362 229.611 79.7744 225.492 79.754 221.368C79.7343 220.588 79.4166 219.844 78.866 219.29C77.75 217.16 78.4511 214.936 78.5563 212.742C78.866 210.763 77.5396 209.935 76.0906 209.106C75.0331 208.522 74.0748 207.723 73.0757 207.022C72.4505 206.409 71.9072 205.476 70.8964 206.532C69.4824 208.37 65.8794 206.5 64.3794 206Z" fill="#2E344E"/>
<path d="M78.8953 219.296C78.72 223.498 78.6148 227.706 78.311 231.897C78.1883 233.706 77.6858 235.486 76.2017 236.77C75.1151 238.667 73.7723 240.405 72.2111 241.935C71.5414 242.193 70.9513 242.622 70.5 243.179C70.0488 243.736 69.7523 244.402 69.6402 245.11C66.7188 249.33 62.9034 252.698 58.9771 255.902C57.9896 256.812 56.675 256.725 55.4714 257.04C53.7653 257.495 52.1585 258.061 51.5508 259.958C50.512 261.321 49.2866 262.531 47.9107 263.553C46.4149 264.966 46.4617 264.925 47.8815 266.611C48.1854 266.973 47.2213 267.551 47.531 268.193C47.8406 270.043 48.9157 270.183 50.4524 269.576C55.337 267.633 59.6022 264.907 62.3659 260.279C62.4886 260.069 62.8625 260.016 63.1196 259.888C64.2882 259.509 65.4567 259.129 66.041 257.88C71.8254 253.976 76.8795 249.172 82.3425 244.865C84.037 243.931 85.7547 243.015 86.2046 240.873L87.2505 234.937C88.5769 233.467 88.5126 231.582 88.7989 229.79C89.2722 226.872 88.9741 223.901 88.9099 220.959C86.792 220.137 84.5324 219.74 82.2607 219.792C81.1176 219.841 79.9755 219.673 78.8953 219.296Z" fill="#ECA785"/>
<path d="M47.5776 268.205L49.8037 265.217L49.5584 264.878C48.7754 265.392 47.9867 265.905 47.1628 266.454C46.3273 265.088 47.8289 264.528 47.9574 263.536L12.4973 279.212C8.94483 280.768 5.39435 282.352 1.8458 283.963C0.741508 284.465 -0.602364 284.71 0.291592 286.613C1.057 288.247 1.76985 288.404 3.38247 287.681C16.9437 281.576 30.5399 275.564 44.1362 269.535C44.8373 269.226 45.5852 269.01 46.3097 268.753C46.4549 268.56 46.6483 268.407 46.8707 268.311C47.0931 268.214 47.3368 268.178 47.5776 268.205Z" fill="#1486E0"/>
</svg>
