<svg xmlns="http://www.w3.org/2000/svg" viewBox="0 0 313.55 5.51"><defs><style>.cls-1{fill:#acd5f2;}.cls-2{fill:#add5f2;}</style></defs><g id="Слой_2" data-name="Слой 2"><g id="Layer_1" data-name="Layer 1"><path class="cls-1" d="M185.56.08c6.89,0,13.78.08,20.67,0,2.1,0,2.5.83,2.46,2.67s-.17,2.77-2.38,2.76c-13.68-.09-27.36-.12-41,0-2.63,0-2.55-1.42-2.7-3.14-.19-2.3,1.31-2.28,2.91-2.27C172.18.1,178.87.08,185.56.08Z"/><path class="cls-2" d="M290.76.08h20.38c1.24,0,2.47-.1,2.4,1.75-.05,1.48.35,3.14-1.88,3.38a23.67,23.67,0,0,1-2.37.2c-12.89,0-25.78,0-38.67,0-2.2,0-3.36-.46-3.25-3,.07-1.78.54-2.45,2.4-2.43C276.77.14,283.76.08,290.76.08Z"/><path class="cls-1" d="M238.63.08c6.78,0,13.56,0,20.33,0,1.36,0,2.64.19,2.18,1.78-.37,1.27,1,3.63-2.07,3.62q-20.92-.12-41.86,0c-2.24,0-1.92-1.41-2-2.8-.07-1.58.11-2.63,2.18-2.6C224.47.15,231.55.09,238.63.08Z"/><path class="cls-1" d="M80.87.08c6.79,0,13.57,0,20.36,0,1.66,0,2.64.26,2.54,2.26-.09,1.73-.07,3.14-2.46,3.13-13.57-.06-27.14,0-40.71-.07-1.33,0-3.18.24-3-2.21.16-2.07.58-3.26,3.22-3.16C67.5.24,74.19.08,80.87.08Z"/><path class="cls-1" d="M133.42.08h20.05c1.4,0,3.05-.21,2.9,1.94-.13,1.79,0,3.53-3,3.48-12.76-.2-25.53-.08-38.3-.1-.79,0-1.57-.2-2.36-.22-2.43,0-2.49-1.59-2.43-3.44.06-2.16,1.6-1.64,2.78-1.65C119.86.07,126.64.08,133.42.08Z"/><path class="cls-1" d="M23.14.08h20c1.41,0,3.06-.21,2.9,1.94-.12,1.79,0,3.53-3,3.48-12.76-.2-25.53-.08-38.29-.1-.79,0-1.58-.2-2.37-.22C0,5.16,0,3.6,0,1.75.08-.41,1.61.11,2.79.1,9.57.07,16.36.08,23.14.08Z"/></g></g></svg>