<svg id="Layer_1" data-name="Layer 1" xmlns="http://www.w3.org/2000/svg" viewBox="0 0 313.55 13.34"><defs><style>.cls-1{fill:#acd5f2;}.cls-2{fill:#add5f2;}.cls-3{fill:#4fb2d6;}</style></defs><title>10</title><path class="cls-1" d="M400.75,245c6.9,0,13.79.07,20.68,0,2.1,0,2.49.83,2.45,2.66s-.16,2.77-2.37,2.76c-13.68-.08-27.37-.12-41.05,0-2.63,0-2.54-1.42-2.69-3.14-.2-2.3,1.31-2.27,2.91-2.27C387.37,245,394.06,245,400.75,245Z" transform="translate(-215.2 -241.05)"/><path class="cls-2" d="M506,245h20.38c1.25,0,2.48-.1,2.41,1.75-.06,1.47.34,3.13-1.88,3.37a23.63,23.63,0,0,1-2.38.21c-12.89,0-25.78,0-38.66,0-2.2,0-3.37-.46-3.26-3,.08-1.78.54-2.46,2.41-2.44C492,245.07,499,245,506,245Z" transform="translate(-215.2 -241.05)"/><path class="cls-1" d="M453.82,245c6.78,0,13.56,0,20.34,0,1.36,0,2.63.19,2.17,1.79-.36,1.26,1,3.63-2.06,3.61q-20.94-.12-41.87,0c-2.24,0-1.92-1.4-2-2.79-.08-1.58.1-2.64,2.17-2.61C439.67,245.08,446.75,245,453.82,245Z" transform="translate(-215.2 -241.05)"/><path class="cls-1" d="M296.07,245c6.78,0,13.57,0,20.35,0,1.67,0,2.65.26,2.54,2.26-.09,1.74-.06,3.14-2.45,3.13-13.57,0-27.14,0-40.71-.07-1.34,0-3.19.25-3-2.2.16-2.08.58-3.26,3.22-3.17C282.69,245.18,289.38,245,296.07,245Z" transform="translate(-215.2 -241.05)"/><path class="cls-1" d="M348.62,245h20c1.41,0,3.06-.21,2.91,1.94-.13,1.79,0,3.53-3,3.48-12.76-.2-25.53-.08-38.29-.09-.79,0-1.58-.21-2.37-.22-2.42,0-2.48-1.6-2.43-3.44.07-2.17,1.6-1.65,2.78-1.65C335.06,245,341.84,245,348.62,245Z" transform="translate(-215.2 -241.05)"/><path class="cls-1" d="M238.33,245h20c1.4,0,3.05-.21,2.9,1.94-.13,1.79,0,3.53-3,3.48-12.76-.2-25.53-.08-38.3-.09-.79,0-1.57-.21-2.36-.22-2.43,0-2.49-1.6-2.43-3.44.06-2.17,1.6-1.65,2.78-1.65C224.77,245,231.55,245,238.33,245Z" transform="translate(-215.2 -241.05)"/><path class="cls-3" d="M401.26,241.1c7.28,0,14.57.05,21.85,0,1.8,0,2.49.5,2.4,2.36-.13,2.89-.11,5.79,0,8.68.05,1.64-.47,2.28-2.2,2.27q-22.14-.07-44.28,0c-1.56,0-2.12-.52-2.07-2.08.09-2.79.16-5.59,0-8.37-.14-2.2.49-2.93,2.79-2.88C386.9,241.2,394.08,241.1,401.26,241.1Z" transform="translate(-215.2 -241.05)"/></svg>