<svg width="791" height="580" viewBox="0 0 791 580" fill="none" xmlns="http://www.w3.org/2000/svg">
<path d="M257.571 417.533C261.219 417.86 266.094 415.867 268.173 418.394C269.933 420.53 268.715 425.224 268.627 428.754C267.793 463.039 266.928 497.308 266.03 531.561C265.72 543.468 265.178 555.374 264.987 567.289C264.931 570.317 263.951 570.995 261.068 570.987C236.562 570.875 212.056 570.875 187.549 570.987C184.3 570.987 183.399 569.998 183.646 566.946C183.854 564.324 183.599 561.662 183.543 558.977C182.237 557.598 182.26 555.852 182.268 554.147C182.268 544.584 182.109 534.932 182.356 525.329C182.237 524.325 182.404 523.321 182.356 522.325C182.253 517.646 182.237 512.968 182.356 508.29C182.396 507.286 182.245 506.282 182.356 505.278C182.125 490.343 182.221 475.416 182.292 460.481C182.292 456.99 182.189 453.507 182.292 450.017C182.332 448.582 182.444 447.172 183.423 446.032C183.423 445.235 183.384 444.502 183.36 443.737C181.687 440.366 182.316 436.748 182.253 433.209C182.189 429.224 182.117 425.239 182.3 421.326C182.483 417.413 183.407 416.29 187.294 416.218C194.415 416.082 201.552 415.843 208.665 416.369C212.823 417.82 217.013 416.728 221.194 416.521C222.835 416.433 223.146 414.927 224.11 414.13C230.394 417.318 236.671 417.724 242.939 414.13C243.558 415.031 244.393 415.762 245.367 416.258C246.34 416.753 247.423 416.997 248.515 416.967C251.542 417.023 254.553 417.389 257.571 417.533Z" fill="#548526"/>
<path d="M107.157 449.443C102.378 449.602 100.402 445.561 98.0289 442.668C89.039 431.92 82.1611 419.568 77.7574 406.263C76.706 401.362 75.5511 396.477 74.651 391.552C73.8545 386.977 74.2926 386.722 78.8726 386.403C91.1337 385.543 103.384 384.562 115.624 383.463C117.918 383.255 119.32 384.084 120.809 385.567C131.323 396.055 142.045 406.327 152.407 416.959C160.54 425.303 168.25 434.061 175.737 442.198L107.157 449.443Z" fill="#BDE189"/>
<path d="M143.693 355.378C148.958 337.622 158.333 322.177 170.536 308.43C173.228 305.385 175.036 301.257 179.393 299.878C180.874 300.899 180.986 302.572 181.313 304.086C188.067 334.727 194.877 365.356 201.743 395.975C202.203 397.769 202.493 399.602 202.611 401.45C201.488 404.957 199.712 402.789 198.693 401.626C195.506 397.96 191.866 394.708 188.378 391.313C180.412 383.567 171.699 376.785 162.73 370.281C161.885 369.66 160.93 369.158 160.468 368.138L158.875 366.424C153.363 365.197 149.189 361.387 144.354 358.845C143.032 358.16 142.968 356.717 143.693 355.378Z" fill="#A2D559"/>
<path d="M143.693 355.378C143.454 357.466 144.8 358.287 146.393 359.172C150.599 361.507 154.709 364.001 158.851 366.424C156.183 370.018 156.637 374.449 155.744 378.49C153.594 388.277 151.826 398.151 149.882 407.977C149.643 408.746 149.345 409.495 148.99 410.217L83.1338 345.663C91.1946 343.328 98.7695 344.866 106.313 345.106C112.175 346.548 118.149 347.496 123.892 349.433C129.412 351.298 134.923 353.195 140.061 355.976C141.55 356.773 142.713 357.004 143.693 355.378Z" fill="#BDE189"/>
<path d="M160.468 368.138C167.533 371.326 173.021 376.713 178.859 381.535C185.956 387.376 192.997 393.353 198.916 400.502C199.577 401.299 200.007 403.14 201.839 402.343C203.942 402.303 203.75 405.18 205.678 405.371C207.097 407.703 208.715 409.909 210.513 411.962C211.644 413.221 213.253 414.68 211.803 416.744C211.238 417.249 210.497 417.513 209.74 417.477C202.078 417.477 194.407 417.573 186.745 417.429C184.156 417.382 183.328 418.17 183.368 420.792C183.503 428.451 183.368 436.118 183.368 443.777C173.411 434.091 163.449 424.413 153.482 414.744C152.136 413.453 151.371 412.122 151.746 410.209C154.512 396.395 157.263 382.563 159.998 368.711C160.022 368.512 160.3 368.337 160.468 368.138Z" fill="#BDE189"/>
<path d="M116.062 381.407C102.601 382.355 90.1991 383.184 77.8292 384.148C75.129 384.355 73.7669 383.487 73.8466 380.721C74.3404 369.986 75.7901 359.411 79.3186 349.202C79.5735 348.469 79.9638 347.783 80.4656 346.715C92.6524 357.793 103.923 369.452 116.062 381.407Z" fill="#BDE18A"/>
<path d="M183.455 446.103C183.455 450.885 183.434 455.64 183.391 460.369C181.201 461.341 178.987 460.735 176.788 460.369C161.815 457.997 146.585 457.728 131.538 459.572C130.648 459.786 129.743 459.924 128.83 459.986C126.225 460.321 123.716 461.086 121.151 461.644C119.654 461.971 118.093 462.576 116.683 461.325C113.314 458.09 109.315 455.547 106.4 451.833C123.143 449.995 139.886 448.157 156.628 446.319C163.956 445.522 171.3 444.868 178.604 443.928C180.827 443.649 181.432 446.255 183.455 446.103Z" fill="#BDE18A"/>
<path d="M454.144 86.3182C454.144 66.3146 454.088 46.319 454.144 26.3154C454.184 18.569 456.199 11.6594 463.702 7.60292C466.231 6.44903 468.994 5.90318 471.771 6.00901C572.238 6.04088 672.706 6.04088 773.174 6.00901C783.871 6.00901 790.832 12.9505 790.832 23.6137V117.447C790.832 262.785 790.883 408.129 790.984 553.477C790.984 566.061 781.561 573.258 771.397 572.756C761.743 572.277 752.042 572.644 742.356 572.644C741.788 572.359 741.29 571.951 740.898 571.451C740.506 570.951 740.228 570.371 740.086 569.751C739.982 569.077 740.015 568.388 740.182 567.727C742.731 553.748 743.503 539.722 741.544 525.6C741.257 523.544 740.636 521.384 742.5 519.646C744.348 518.65 746.371 518.85 748.346 518.85C757.498 518.85 766.666 518.897 775.794 518.85C780.111 518.85 780.573 518.284 780.725 514.068C780.78 512.745 780.725 511.422 780.725 510.083C780.725 358.279 780.725 206.47 780.725 54.6552C780.725 44.9244 781.139 45.6018 771.588 45.6018H474.869C466.586 45.6018 466.633 45.6017 466.57 53.8263C466.53 59.1261 466.864 64.4338 466.331 69.7176C465.885 72.3874 463.79 73.9096 462.021 75.5912C459.632 77.8306 459.178 80.0382 461.066 82.8514C461.862 84.0708 463.575 85.6089 461.321 87.1789C458.843 87.5853 456.358 88.191 454.144 86.3182Z" fill="#DDDDDD"/>
<path d="M713.635 572.732L553.263 572.668C526.182 572.668 499.119 572.668 472.074 572.668C469.685 572.668 467.295 572.668 465.296 571.074C466.769 569.56 468.705 569.871 470.505 569.855C476.176 569.783 481.848 569.767 487.511 569.855C490.323 569.855 491.995 569.058 492.178 565.958C492.29 564.013 492.72 561.973 494.241 560.531C498.359 558.777 502.828 559.63 507.097 558.833C512.028 557.917 517.054 557.542 521.825 555.861C523.139 555.191 524.684 555.781 526.007 555.111C532.602 553.876 538.361 550.122 544.924 548.784C546.947 548.983 547.313 550.617 547.799 552.131C549.297 556.801 550.898 561.439 552.435 566.101C552.684 566.995 553.006 567.867 553.399 568.707C553.813 569.504 554.195 570.644 555.382 570.054C556.242 569.624 555.804 568.604 555.557 567.895C553.725 562.635 552.371 557.239 550.563 551.955C549.982 550.21 549.225 548.457 549.91 546.544C553.455 542.958 558.051 540.878 562.105 538.009C569.847 536.415 577.661 537.212 585.443 537.515C588.103 537.61 589.019 540.001 589.696 542.201C592.139 550.17 594.712 558.111 597.415 566.022C597.948 567.616 598.211 569.345 599.931 570.293C601.23 568.986 600.226 567.902 599.931 566.89C595.614 553.254 591.17 539.658 586.861 526.007C586.701 525.504 586.526 525.002 586.375 524.492C585.124 520.173 585.801 519.201 590.158 519.017C590.955 519.017 591.751 519.017 592.548 519.017C630.706 519.017 668.87 519.017 707.039 519.017C709.11 519.017 711.317 518.531 713.157 520.053C714.901 523.656 714.28 527.608 714.503 531.346C715.236 543.566 715.854 555.807 716.359 568.07C716.048 570.006 716.279 572.206 713.635 572.732Z" fill="#DDDDDD"/>
<path d="M494.623 561.096C493.309 563.049 493.245 565.336 493.333 567.512C493.444 570.269 492.464 571.114 489.724 571.074C481.584 570.946 473.436 571.074 465.295 571.074L427.166 571.01C425.907 569.464 426.879 567.95 427.341 566.515C436.963 536.614 446.566 506.709 456.151 476.802C466.434 444.749 476.861 412.751 486.953 380.634C487.422 379.127 487.749 377.533 489.223 376.561C489.477 376.478 489.746 376.449 490.013 376.475C490.279 376.502 490.537 376.584 490.77 376.716C491.003 376.848 491.206 377.027 491.366 377.242C491.526 377.457 491.64 377.702 491.7 377.964C494.567 386.427 498.239 394.7 499.036 403.729C497.865 418.975 498.59 434.277 497.682 449.522C497.849 450.973 497.315 452.391 497.538 453.842C497.435 458.727 497.793 463.613 497.307 468.482C496.463 472.953 496.726 477.479 496.797 481.974C496.941 490.597 496.566 499.197 495.889 507.788C495.889 508.768 495.889 509.756 495.889 510.744C496.033 515.901 495.937 521.057 495.953 526.213C495.77 527.441 495.953 528.676 495.889 529.903C494.806 538.67 495.252 547.54 495.189 556.37C495.228 557.964 495.038 559.556 494.623 561.096Z" fill="#F2D054"/>
<path d="M489.39 376.856C468.681 441.202 447.998 505.546 427.341 569.886C427.25 570.269 427.192 570.658 427.166 571.05C425.653 572.556 423.821 571.68 422.116 571.735C420.993 569.767 421.79 567.886 422.411 566.013C424.856 558.625 427.373 551.262 429.58 543.786C430.751 539.801 430.695 539.61 426.394 539.594C419.265 539.594 412.136 539.594 405.015 539.594C403.311 539.594 401.558 539.785 400.045 538.686C392.773 538.255 392.781 538.263 390.614 545.061C388.169 552.728 385.58 560.347 383.334 568.077C382.378 571.369 380.809 572.747 377.153 571.552C381.502 558.004 385.915 544.511 390.2 530.963C393.593 520.292 396.883 509.581 400.22 498.886C401.2 490.51 404.537 482.779 407.094 474.866C418.094 440.82 428.903 406.71 439.974 372.68C447.143 350.628 454.033 328.481 461.321 306.461C462.054 304.245 462.261 301.169 465.957 301.679C468.171 302.97 468.593 304.923 467.988 307.258C467.048 310.143 466.395 313.115 465.367 316.024C464.722 317.905 465.104 318.758 467.215 318.694C468.92 318.646 470.68 318.559 472.209 319.619C474.599 323.261 474.097 324.4 469.979 324.767C467.677 324.966 465.248 324.153 463.097 325.564C459.545 330.68 459.059 336.889 457.083 342.563C456.343 344.667 458.366 344.771 459.808 344.794C465.073 344.882 470.338 344.794 475.603 344.85C477.427 344.85 479.306 344.651 480.947 345.807C483.201 349.791 482.636 350.915 478.167 351.011C471.875 351.13 465.574 351.011 459.274 351.058C457.721 351.058 456.088 350.788 454.71 351.76C451.42 357.012 450.56 363.14 448.569 368.847C447.772 371.046 449.843 371.046 451.277 371.062C457.378 371.126 463.472 371.062 469.597 371.062C473.309 371.062 477.02 370.966 480.748 371.062C483.241 371.15 485.145 370.385 486.499 368.297C490.115 369.014 491.557 373.262 489.39 376.856Z" fill="#263115"/>
<path d="M400.005 538.662C409.786 538.606 419.567 538.662 429.34 538.447C432.112 538.383 432.383 539.188 431.587 541.571C428.863 549.692 426.282 557.861 423.685 566.029C423.088 567.91 422.634 569.831 422.092 571.736C416.628 570.309 411.068 571.377 405.564 571.106C399.989 570.987 399.989 570.986 399.989 565.201C400.005 556.354 400.01 547.508 400.005 538.662Z" fill="#F2D054"/>
<path d="M733.563 572.74L722.411 572.668C721.049 572.222 720.548 571.122 720.261 569.855C720.215 569.205 720.347 568.554 720.643 567.974C724.1 560.395 724.466 552.122 726.115 544.129C726.991 539.873 725.964 535.402 727.796 531.298C730.185 531.386 729.747 533.418 730.01 534.757C732.232 545.914 734.208 557.071 736.382 568.173C736.239 570.165 736.064 572.174 733.563 572.74Z" fill="#DDDDDC"/>
<path d="M740.684 570.222C741.743 570.692 741.982 571.728 742.372 572.66C742.177 573.957 741.911 575.242 741.576 576.51C741.233 577.617 742.269 579.61 740.341 579.697C738.199 579.809 739.903 577.474 738.477 576.326C735.682 580.909 731.022 579.769 726.689 579.801C725.845 579.801 724.626 580.343 724.204 579.379C723.63 578.088 725 577.681 725.797 577.115C726.248 576.852 726.723 576.63 727.215 576.454C733.053 577.267 736.868 573.728 740.684 570.222Z" fill="#060605"/>
<path d="M720.771 570.253L722.364 572.644C722.109 573.943 721.934 575.258 721.568 576.525C721.265 577.649 722.229 579.673 720.229 579.673C718.023 579.673 720.054 577.354 718.581 576.485C716.478 577.282 715.267 580.47 711.898 579.92C709.389 579.482 706.744 579.832 703.933 579.832C704.363 577.505 705.876 577.011 707.318 576.453C712.224 576.78 716.255 575.17 719.154 571.082C719.568 570.556 719.982 570.03 720.771 570.253Z" fill="#060604"/>
<path d="M720.771 570.253C717.585 576.079 712.957 578.222 707.35 576.461C709.588 575.465 712.376 575.377 713.634 572.732C714.988 571.64 715.227 570.054 715.434 568.492C716.209 567.904 717.161 567.601 718.132 567.631C719.103 567.661 720.035 568.024 720.771 568.659V570.253Z" fill="#E2B18D"/>
<path d="M740.684 570.221C737.857 575.951 732.934 578.239 727.255 576.469C729.501 575.465 732.273 575.354 733.563 572.74C734.83 571.664 735.101 570.038 735.857 568.675C736.506 568.051 737.371 567.702 738.271 567.702C739.171 567.702 740.036 568.051 740.684 568.675V570.221Z" fill="#E3B28D"/>
<path d="M367.451 340.292C370.105 340.428 372.763 340.428 375.417 340.292C378.643 339.981 379.399 341.24 379.399 344.325C379.216 362.471 378.603 380.61 378.348 398.749C378.069 416.76 378.276 434.787 377.511 452.774C376.874 467.749 377.639 482.724 376.779 497.659C375.879 513.152 376.739 528.66 375.982 544.121C375.576 552.091 375.464 559.997 375.448 567.934C375.448 570.397 374.588 571.122 372.215 571.122C347.284 571.058 322.36 571.018 297.429 571.122C293.773 571.122 294.188 569.074 294.188 566.803C294.188 509.262 294.355 451.722 293.981 394.19C293.877 377.908 293.742 361.611 293.391 345.329C293.303 341.161 294.681 340.228 298.608 340.268C317.565 340.436 336.523 340.316 355.488 340.268C359.456 339.695 363.486 339.703 367.451 340.292Z" fill="#4DAE74"/>
<path d="M330.015 197.788C329.545 185.037 327.904 172.238 328.525 159.463C329.147 146.847 328.932 134.167 330.525 121.599C330.564 121.289 330.198 120.922 330.015 120.587C328.796 117.176 330.055 113.781 330.174 110.394C330.341 105.262 331.265 100.177 332.046 95.1006C332.221 93.929 332.468 92.7097 333.695 92.104C335.598 91.3071 337.606 91.4505 339.581 91.4505C394.44 91.4505 449.296 91.4505 504.15 91.4505C506.253 91.4505 508.411 91.2193 510.387 92.2474C512.338 94.0087 511.852 96.3837 511.86 98.5673C511.956 113.901 511.78 129.226 512.155 144.56C511.629 151.525 511.995 158.506 511.876 165.488C511.876 167.193 511.988 168.915 511.438 170.572C511.064 171.592 510.323 172.031 509.335 171.56C506.205 170.086 502.804 168.93 501.37 165.304C500.741 162.117 500.016 158.873 502.461 156.02C503.021 154.971 503.456 153.861 503.759 152.712C504.444 149.995 504.078 148.002 500.701 147.66C498.853 147.476 497.204 146.48 495.476 145.827C493.747 145.173 491.867 144.512 490.45 146.432C489.032 148.353 490.386 149.62 491.557 150.927C491.815 151.229 492.028 151.567 492.186 151.931C492.25 152.457 492.361 151.788 492.298 152.306C491.652 157.088 491.605 161.742 496.28 164.874C496.393 166.137 496.023 167.396 495.245 168.397C491.35 171.831 487.614 175.505 482.588 177.354C472.95 181.14 462.914 181.865 452.663 181.69C449.031 181.626 445.383 182.726 442.308 179.912C436.685 172.477 432.144 164.34 427.174 156.482C426.601 155.574 426.314 154.529 427.31 153.621C435.362 152.776 443.439 153.215 451.492 153.35C455.1 153.406 456.972 152.29 458.414 149.03C463.272 138.009 468.641 127.218 473.874 116.355C475.085 113.861 476.2 111.319 478.566 109.573C478.905 109.356 479.197 109.071 479.422 108.737C479.648 108.403 479.803 108.026 479.878 107.63C479.952 107.233 479.945 106.826 479.856 106.432C479.768 106.039 479.599 105.667 479.362 105.341C479.229 105.069 479.041 104.827 478.811 104.63C478.58 104.433 478.311 104.286 478.021 104.198C477.732 104.11 477.426 104.082 477.125 104.117C476.824 104.152 476.534 104.249 476.272 104.401C475.905 104.57 475.576 104.812 475.305 105.112C475.034 105.411 474.826 105.762 474.694 106.144C474.562 106.525 474.508 106.93 474.535 107.333C474.563 107.736 474.671 108.129 474.854 108.489C475.993 111.255 475.133 113.582 473.93 116.052C468.721 126.764 463.432 137.443 458.621 148.345C457.028 151.987 454.821 153.462 450.727 153.31C442.921 153.023 435.1 153.095 427.286 153.31C426.905 153.435 426.517 153.534 426.123 153.605C425.734 153.567 425.371 153.395 425.095 153.119C424.466 151.166 423.192 149.556 422.22 147.971C422.642 149.692 425.239 150.8 424.052 153.262C421.503 157.606 419.727 162.308 417.743 166.898C416.541 169.696 414.733 171.034 411.706 171.034C406.696 171.034 401.678 171.122 396.66 171.034C395.546 170.92 394.425 171.149 393.446 171.69C392.466 172.231 391.675 173.059 391.18 174.063C390.362 175.26 389.618 176.506 388.949 177.793C386.687 183.244 382.577 184.79 377.121 183.499C376.324 183.355 375.528 182.112 374.731 183.602C374.52 183.758 374.275 183.862 374.016 183.905C373.757 183.948 373.492 183.929 373.242 183.849C372.918 183.684 372.672 183.398 372.557 183.053C370.335 179.642 366.185 179.187 364.464 182.184C364.273 185.149 365.563 186.615 368.622 186.328C369.069 186.22 369.533 186.209 369.984 186.297C370.435 186.385 370.862 186.57 371.235 186.838C372.477 189.229 373.807 191.692 371.633 194.306C367.826 194.983 363.978 194.497 360.155 194.616C358.005 194.68 357.041 193.477 356.77 191.516C356.631 190.065 356.591 188.606 356.65 187.149C356.65 162.528 356.65 137.913 356.65 113.303C356.65 138.806 356.65 164.308 356.65 189.811C356.65 194.592 356.65 194.592 361.557 194.592C364.863 194.592 368.176 194.696 371.482 194.513C372.804 194.114 373.457 194.839 373.752 195.979C374.994 200.849 375.703 205.614 370.741 209.057C366.312 212.173 361.804 215.154 356.738 217.194C353.783 216.397 353.297 213.783 352.453 211.464C351.282 208.228 350.35 204.913 347.801 202.355C345.674 200.219 343.229 198.992 340.29 199.964C337.351 200.936 336.411 203.67 335.885 206.507C335.439 208.898 336.682 211.583 334.651 213.679C332.484 213.074 332.803 211.081 332.404 209.535C331.377 205.71 331.465 201.606 330.015 197.788Z" fill="#CFCFCF"/>
<path d="M466.116 302.189C463.448 301.687 463.225 303.68 462.651 305.457C455.583 327.479 448.502 349.489 441.408 371.485C427.894 413.484 414.377 455.47 400.857 497.443C400.667 497.92 400.441 498.38 400.18 498.822C400.124 496.838 400.029 494.837 400.029 492.861C400.029 411.327 400.029 329.772 400.029 248.196C400.029 243.127 400.029 243.119 405.238 243.119H454.965C458.23 240.991 461.855 242.179 465.319 241.963C470.314 242.147 475.371 241.095 480.294 242.76C482.628 246.291 481.64 250.212 481.337 253.918C480.605 262.893 480.605 271.912 481.337 280.887C481.967 288.538 481.282 296.26 482.373 303.895C482.461 304.548 482.373 305.226 482.476 305.879C482.699 307.154 482.62 308.852 484.38 308.884C486.14 308.916 486.22 307.194 486.419 305.951C488.363 293.781 490.123 281.588 491.891 269.395C493.07 261.266 494.4 253.153 495.579 245.024C495.642 244.484 495.751 243.951 495.906 243.43C496.232 242.474 496.208 241.039 497.443 240.943C498.813 240.848 498.773 242.338 499.036 243.278C499.39 244.558 499.622 245.868 499.729 247.191C500.613 256.149 501.322 265.123 502.174 274.089C502.346 275.803 502.282 277.532 501.983 279.229C500.685 284.577 501.625 290.004 501.426 295.391C501.29 298.946 501.633 302.564 501.322 306.07C501.067 308.979 502.493 309.035 504.556 308.669C506.523 309.394 506.221 310.98 506.029 312.526C505.575 315.116 503.919 316.59 501.513 317.379C499.274 318.015 497.13 318.951 495.141 320.161C492.632 320.823 489.998 320.845 487.479 320.224L487.136 320.049C485.216 319.133 486.65 315.626 483.576 315.538C481.513 315.475 479.872 316.742 477.944 317.037C477.556 317.092 477.162 317.092 476.773 317.037C475.061 316.678 474.631 315.243 474.121 313.849C473.4 312.157 472.822 310.409 472.393 308.621C471.708 305.122 469.74 302.891 466.116 302.189Z" fill="#F2D054"/>
<path d="M465.128 243.103L454.957 243.175C454.957 237.091 454.938 231.008 454.901 224.925C454.901 217.752 454.264 217.083 447.31 217.752C426.705 219.791 405.99 220.51 385.293 219.904C380.419 219.76 375.337 220.143 370.534 218.533C370.279 215.871 372.692 214.979 374.007 213.377C375.058 212.094 376.34 210.986 377.456 209.751C379.463 207.91 379.622 205.718 378.754 203.287C378.133 201.574 377.296 199.916 377.073 198.083C376.89 196.601 376.914 195.135 378.849 194.712C410.949 194.521 443.041 194.712 469.828 194.632C442.659 194.585 410.185 194.688 377.703 194.585C373.569 192.632 373.449 188.894 373.481 185.093C376.102 183.196 379.112 184.089 381.948 184.017C382.984 184.071 384.014 183.823 384.912 183.302C385.81 182.782 386.538 182.011 387.006 181.084C393.609 170.102 391.395 171.29 404.322 171.25C415.904 171.25 415.896 171.25 420.452 160.602C421.543 158.06 422.467 155.422 424.331 153.286C424.492 153.137 424.704 153.055 424.924 153.055C425.144 153.055 425.356 153.137 425.518 153.286L425.454 153.231C432.869 165.296 440.301 177.362 447.948 189.245C447.796 189.803 448.744 189.197 448.242 189.197C448.155 189.197 448.186 189.062 448.179 188.807C448.164 188.544 448.207 188.281 448.307 188.037C448.406 187.793 448.558 187.574 448.752 187.396C453.467 187.133 457.864 188.846 462.365 189.787C469.004 191.039 475.778 191.425 482.516 190.935C484.5 191.421 484.651 193.062 484.707 194.616C484.81 197.725 485.057 200.857 484.444 203.941C483.17 207.272 480.254 204.523 478.311 205.535C478.414 209.368 482.094 209.783 484.109 211.767C484.324 212.271 484.399 212.823 484.326 213.366C484.253 213.909 484.035 214.422 483.695 214.851C482.941 215.411 482.037 215.733 481.099 215.776C477.514 216.804 473.787 216.82 470.123 217.25C467.438 217.561 466.467 218.764 466.483 221.322C466.483 226.901 466.538 232.424 466.483 237.971C466.451 239.74 466.729 241.677 465.128 243.103Z" fill="#CFCFCF"/>
<path d="M212.13 285.453C201.935 273.236 198.836 258.421 196.678 243.263C197.618 242.155 198.836 242.266 200.087 242.466C202.07 243.199 202.58 245.072 203.321 246.745C205.2 250.977 207.144 255.193 208.944 259.449C212.369 267.522 218.757 272.351 226.045 276.448C227.901 277.492 229.287 276.966 230.785 275.97C233.063 275.308 235.166 276.009 237.26 276.766C238.973 278.36 240.295 277.292 241.785 276.256C251.558 269.411 256.982 259.576 261.323 248.363C255.588 250.913 250.331 253.448 244.525 254.452C238.081 256.348 231.637 255.018 225.193 254.452C224.794 254.43 224.405 254.317 224.057 254.121C223.709 253.925 223.411 253.651 223.186 253.32C224.779 247.502 224.675 241.23 227.774 235.787C228.287 235.469 228.859 235.257 229.455 235.164C230.052 235.07 230.661 235.098 231.247 235.245C252.203 238.226 271.829 219.489 269.041 196.888C268.858 195.35 268.285 193.7 269.878 192.473C275.365 190.515 281.34 190.398 286.899 192.138C289.156 202.35 288.038 213.02 283.713 222.542C283.235 223.626 282.702 224.678 282.192 225.73C278.109 232.717 272.697 238.836 266.262 243.741C265.736 244.131 264.557 245.024 265.656 245.486C269.472 247.08 267.488 249.837 266.843 251.862C263.243 263.139 261.427 275.141 253.86 284.864C251.988 287.254 250.299 289.837 248.165 291.972C244.819 295.336 244.071 299.145 245.13 303.56C245.617 305.762 245.725 308.032 245.449 310.27C244.843 312.606 245.13 314.996 245.202 317.347C245.273 319.539 244.325 320.535 242.278 320.687C233.859 321.173 225.504 322.631 217.037 322.44C214.424 321.292 215.061 319.021 215.276 317.005C215.914 311.123 215.93 305.202 216.519 299.312C216.909 295.423 216.479 291.662 213.5 288.673C212.656 287.757 212.823 286.418 212.13 285.453Z" fill="#A2D559"/>
<path d="M183.455 508.098C183.487 512.8 183.516 517.505 183.543 522.212C181.902 525.058 179.019 526.58 176.573 528.516C168.409 534.956 160.205 541.331 152.041 547.763C150.664 548.767 149.197 549.642 147.66 550.377C136.827 545.786 126.409 540.495 117.48 532.653C117.036 532.38 116.552 532.179 116.046 532.055C108.622 524.508 101.175 516.992 95.6869 507.804C91.7823 501.346 88.4329 494.569 85.6747 487.545C85.2764 486.525 84.2489 485.25 86.4712 484.995C87.9766 483.847 89.5537 484.58 91.0432 484.939C119.933 491.904 148.878 498.655 177.776 505.66C179.736 506.114 181.966 506.257 183.455 508.098Z" fill="#FED147"/>
<path d="M216.909 321.946C220.788 320.52 224.914 321.229 228.905 320.575C233.187 319.966 237.507 319.652 241.832 319.635C244.222 319.579 245.066 318.79 245.018 316.391C244.971 314.359 244.373 312.215 245.472 310.239C244.779 320.241 247.639 329.884 248.412 339.726C250.005 360.216 249.63 380.674 248.372 401.148C248.137 402.848 248.012 404.563 247.997 406.28C248.197 409.388 246.898 410.695 243.848 410.368C240.438 410.512 241.1 407.595 240.821 405.865C239.538 398.023 238.535 390.142 237.276 382.299C236.193 375.509 235.524 368.664 234.457 361.874C233.493 356.008 232.147 350.182 232.465 344.165C232.266 343.655 231.669 344.508 232.059 344.165C233.055 348.038 232.21 351.943 232.266 355.841C230.984 363.699 230.801 371.644 230.124 379.55C229.367 388.396 228.323 397.21 226.842 405.961C226.706 407.151 226.335 408.303 225.751 409.348C225.403 409.911 224.918 410.377 224.342 410.702C223.766 411.027 223.116 411.201 222.455 411.208C221.793 411.214 221.141 411.053 220.558 410.739C219.976 410.425 219.482 409.968 219.124 409.412C218.505 408.382 218.18 407.202 218.184 406.001C217.714 393.17 217.053 380.355 216.591 367.532C216.495 366.289 216.71 365.053 216.519 363.81C216.288 352.031 215.221 340.276 215.722 328.473C216.161 326.345 215.093 323.875 216.909 321.946Z" fill="#585858"/>
<path d="M217.642 367.261L219.362 403.299C219.418 404.622 219.402 405.945 219.514 407.284C219.657 408.942 219.968 410.28 222.23 410.368C224.356 410.456 225.073 409.46 225.32 407.698C226.26 401.044 227.24 394.381 228.076 387.711C229.43 376.976 229.414 366.105 231.262 355.41C233.939 355.896 233.333 358.502 234.305 360.088C234.663 360.678 234.002 361.961 235.452 361.818C236.981 371.987 238.513 382.151 240.048 392.309C240.844 397.529 241.641 402.741 242.39 407.969C242.541 409.069 242.565 410.105 243.895 410.416C244.15 411.364 244.405 412.321 244.692 413.277C244.532 414.138 243.895 414.305 243.146 414.353C242.629 416.632 241.593 417.852 238.861 417.589C235.436 417.258 231.987 417.258 228.562 417.589C225.862 417.844 224.779 416.672 224.269 414.401C221.283 414.236 218.311 414.904 215.682 416.329C214.48 417.007 212.926 418.011 211.469 416.481C212.194 414.297 210.417 413.134 209.31 411.938C207.526 410.017 205.742 408.208 205.168 405.562C202.508 402.59 203.01 398.589 201.767 395.154C199.441 388.699 199.545 383.112 205.447 378.147C208.729 375.39 211.533 371.891 214.615 368.799C215.388 367.914 216.256 367.006 217.642 367.261Z" fill="#A2D559"/>
<path d="M334.635 213.727C334.906 210.54 334.308 207.352 335.248 204.252C336.977 198.521 341.62 196.744 346.686 199.972C350.255 202.251 351.863 205.869 352.971 209.759C353.727 212.436 354.373 215.146 356.874 216.851C360.211 218.19 363.182 219.983 364.942 223.299C365.948 224.639 366.833 226.066 367.587 227.562C369.363 231.89 367.228 235.197 361.764 236.919C359.126 238.693 356.262 240.105 353.249 241.119C347.18 243.175 341.756 240.88 338.96 235.149C337.367 231.962 336.021 228.614 336.451 224.893L334.635 213.727Z" fill="#232323"/>
<path d="M336.45 224.885C337.207 227.276 337.876 229.666 338.744 232.057C342.018 240.896 347.896 243.127 356.212 238.752C357.964 237.819 359.677 236.807 361.788 236.951C360.466 245.829 361.23 254.771 360.991 263.681C359.613 266.135 357.009 266.486 354.699 267.259C351.094 268.447 347.38 269.269 343.611 269.713C340.473 269.713 337.239 269.969 335.71 266.239C338.275 258.875 336.857 251.328 336.443 243.589L328.477 253.487C327.475 253.447 326.502 253.138 325.661 252.591C324.82 252.044 324.142 251.28 323.698 250.379C325.71 244.422 328.162 238.623 331.034 233.03C332.409 230.051 334.236 227.304 336.45 224.885Z" fill="#F2D054"/>
<path d="M343.428 268.813C349.466 267.858 355.356 266.128 360.951 263.665C367.252 276.782 366.049 290.474 363.93 304.206C362.584 312.972 360.999 321.691 359.533 330.433C359.295 331.852 359.422 333.446 357.192 333.358C355.169 333.279 355.408 331.709 355.177 330.513C353.265 320.703 352.237 310.828 354.173 300.914C355.384 294.698 352.875 290.179 348.406 286.33C344.352 281.182 340.688 275.89 343.428 268.813Z" fill="#585858"/>
<path d="M183.455 524.978C183.455 536.343 183.474 547.71 183.511 559.08C172.137 557.486 160.858 555.39 150.057 551.182C149.683 549.636 151.021 549.086 151.857 548.416C161.325 540.782 170.905 533.28 180.596 525.911C181.456 525.337 182.261 524.436 183.455 524.978Z" fill="#FED147"/>
<path d="M343.428 268.813C342.273 275.452 346.096 280.68 348.414 286.346C346.821 299.034 340.099 307.386 327.633 311.052C323.698 312.191 319.795 313.443 315.773 314.24C314.602 314.479 313.59 314.981 312.834 313.387C312.037 311.665 313.009 310.996 314.132 310.199C318.855 306.796 323.523 303.305 328.278 299.95C333.623 296.181 336.068 291.359 335.017 284.633C334.069 278.544 332.842 272.304 335.678 266.303C337.757 268.606 340.584 268.718 343.428 268.813Z" fill="#2C2C2C"/>
<path d="M364.942 223.291L356.874 216.843L369.761 208.922C372.7 208.125 375.472 208.188 377.766 210.515C375.886 213.648 372.676 215.576 370.534 218.485L364.942 223.291Z" fill="#F2D054"/>
<path d="M323.643 250.387L328.422 253.495L317.581 271.028C316.1 273.419 313.137 273.714 311.209 275.499C310.373 276.296 309.497 275.499 309.345 274.344C309.09 272.335 310.006 270.63 311.814 270.359C315.168 269.825 316.084 267.323 317.207 264.852C319.357 259.998 321.508 255.169 323.643 250.387Z" fill="#F7B68F"/>
<path d="M183.455 524.978L150.089 551.182L147.596 550.385C155.299 543.213 164.028 537.355 172.153 530.716C175.809 527.736 179.696 525.042 183.479 522.221L183.455 524.978Z" fill="#FEFCF8"/>
<path d="M243.091 414.337C243.226 413.429 243.975 413.405 244.636 413.261C249.375 413.381 253.27 416.074 257.571 417.533C254.72 419.031 251.717 418.091 248.81 418.043C248.173 418.043 247.408 417.429 246.93 417.629C243.266 419.183 243.011 416.991 243.091 414.337Z" fill="#232D53"/>
<path d="M307.418 313.211C307.712 313.22 308.003 313.265 308.286 313.347C309.353 313.817 312.269 322.616 311.552 323.492C311.045 324.097 310.376 324.545 309.624 324.783C308.477 325.118 308.469 323.986 308.214 323.309C307.314 320.982 306.486 318.623 305.626 316.272C304.957 314.455 305.697 313.514 307.418 313.211Z" fill="#343432"/>
<path d="M367.451 340.292C363.583 341.766 359.308 341.766 355.439 340.292C355.527 339.639 355.4 338.818 355.75 338.371C357.383 336.267 366.312 337.774 367.451 340.292Z" fill="#32312F"/>
<path d="M333.201 92.9726C332.683 97.4196 332.325 101.906 331.608 106.322C330.811 111.103 331.711 115.981 330.015 120.611C320.504 122.205 319.748 121.806 315.821 112.721C315.239 111.382 314.674 110.035 314.188 108.665C311.966 102.289 312.874 99.7626 318.967 96.8617C321.357 95.6982 322.488 94.3354 321.978 91.6815C321.707 90.2549 321.245 88.6769 321.596 87.362C323.436 80.5002 321.468 75.599 314.865 72.5945C313.463 71.9569 313.097 70.4028 313.487 68.777C314.578 64.2663 315.877 59.8033 318.131 55.7388C320.903 50.7977 322.989 49.7059 328.159 51.7541C332.054 53.348 334.658 52.7901 336.921 49.4269C337.3 48.8815 337.772 48.4068 338.314 48.0243C343.253 44.4141 346.766 40.4851 343.651 33.6791C342.409 30.9854 343.922 28.6423 346.694 27.2158C350.103 25.4705 353.385 23.4941 357.152 22.4899C363.357 20.8402 365.643 21.5255 368.12 27.5186C369.713 31.3042 371.697 33.0256 375.727 32.0772C375.99 32.0254 376.261 32.0254 376.524 32.0772C383.318 33.4081 388.471 31.7744 391.1 24.6496C392.143 21.7806 394.644 21.4618 397.416 22.1871C401.277 23.1084 405.019 24.4723 408.567 26.2515C413.737 28.8815 415.123 31.4556 412.853 36.8112C410.877 41.4654 412 43.912 415.394 47.6737C420.077 52.8539 424.291 54.8463 430.695 51.8896C433.506 50.5746 435.474 52.0091 436.987 54.4159C439.496 58.3146 441.407 62.567 442.658 67.0317C443.678 70.8013 442.73 73.5269 439.257 75.3439C438.795 75.591 438.333 75.862 437.863 76.1011C431.635 79.2889 431.635 79.2889 432.63 86.31C432.282 86.7077 431.848 87.0212 431.361 87.2268C430.874 87.4325 430.346 87.5251 429.819 87.4975C420.786 87.5453 411.746 88.0554 402.737 87.2265C400.22 86.2622 400.578 83.7917 400.069 81.8551C396.174 67.0636 380.57 59.3889 366.933 65.8363C360.091 69.0241 355.87 74.6904 353.894 82.0065C353.456 83.6004 353.592 85.4812 352.19 86.7882C348.598 88.1271 344.854 87.2584 341.182 87.4735C339.469 87.5692 337.749 87.4735 336.028 87.4735C334.308 87.4735 332.301 87.2743 331.337 88.9718C330.198 90.9244 332.771 91.5221 333.201 92.9726Z" fill="#A2D559"/>
<path d="M401.582 86.318H432.575H454.144H462.181C463.456 85.0986 465.089 85.1545 466.658 85.1545C480.921 85.1119 495.186 85.1119 509.455 85.1545C510.38 85.1341 511.305 85.2223 512.211 85.4174C515.03 86.0709 516.767 88.1987 516.034 90.4541C515.158 93.1478 513.326 94.2795 510.506 92.9805C509.574 92.9247 508.65 92.8371 507.726 92.8371H335.965C335.041 92.8371 334.117 92.9247 333.193 92.9725C331.011 92.7892 329.059 92.064 329.282 89.5058C329.513 86.7643 331.743 86.4535 334.013 86.4375C340.107 86.4375 346.192 86.3658 352.286 86.318C353.831 84.9871 355.726 85.1305 357.558 85.1225C370.473 85.0907 383.39 85.0907 396.309 85.1225C398.141 85.1305 400.037 84.9871 401.582 86.318Z" fill="#333321"/>
<path d="M286.883 192.098L269.623 192.895C269.368 192.826 269.132 192.7 268.933 192.528C268.733 192.356 268.574 192.141 268.468 191.899C265.863 184.535 261.14 178.685 255.453 173.505C255.078 173.127 254.805 172.661 254.656 172.15C256.034 166.325 257.962 160.722 261.666 155.893V155.749C274.41 163.527 283.299 174.151 286.581 188.982C286.749 190.013 286.85 191.054 286.883 192.098Z" fill="#2E4717"/>
<path d="M116.644 461.325L128.735 458.935C130.702 460.01 131.706 461.923 132.797 463.716C138.572 473.224 144.506 482.636 150.32 492.104C150.743 492.773 151.157 493.459 151.523 494.16C152.113 495.308 153.22 496.551 152.32 497.802C151.42 499.053 149.691 498.806 148.265 498.448C137.911 495.818 127.42 493.459 117.01 490.916C108.248 488.781 99.4865 486.78 90.7726 484.541C89.2672 484.142 87.5865 484.07 86.5033 482.676C84.958 481.082 86.6785 480.405 87.4432 479.536C93.9746 472.148 102.258 467.398 111.251 463.7C113.083 462.935 114.851 462.106 116.644 461.325Z" fill="#FED147"/>
<path d="M86.527 482.652C100.546 485.967 114.559 489.285 128.567 492.606C135.378 494.2 142.172 495.929 148.99 497.555C150.182 497.747 151.384 497.874 152.59 497.937L128.695 458.926L131.084 458.719C132.884 458.863 133.299 460.472 134.047 461.636C141.089 472.554 147.787 483.68 154.653 494.71C155.329 495.915 156.265 496.953 157.394 497.749C158.523 498.545 159.815 499.078 161.177 499.308C167.684 500.575 174.033 502.496 180.5 503.962C181.687 504.225 182.89 504.472 183.432 505.732C183.432 506.529 183.432 507.325 183.432 508.122L86.4235 485.011C86.1128 484.038 84.1454 484.74 84.5437 483.265C84.6313 482.899 85.8341 482.843 86.527 482.652Z" fill="#FEFDFB"/>
<path d="M261.689 155.885C259.464 161.325 257.245 166.763 255.03 172.198C253.437 172.931 252.227 171.951 250.968 171.282C243.705 167.29 235.197 166.21 227.168 168.261C206.092 173.394 195.029 197.302 204.802 216.644C206.905 220.812 210.075 224.223 212.44 228.184C212.488 229.93 211.094 230.623 209.971 231.46C207.582 233.261 205.32 235.285 202.803 236.983C200.891 238.298 200.166 239.756 201.257 241.9C201.247 242.184 201.146 242.457 200.968 242.678C200.79 242.899 200.545 243.057 200.27 243.127L196.653 243.247C196.104 241.557 193.961 240.25 195.857 237.979C196.701 236.983 195.236 235.859 194.519 234.966C179.281 215.792 178.357 191.03 191.906 171.146C204.404 152.816 233.803 140.958 258.631 153.956C259.746 154.506 260.717 155.239 261.689 155.885Z" fill="#F2D054"/>
<path d="M216.79 328.17L217.65 364.105C216.359 367.468 213.404 369.445 211.079 371.939C208.753 374.434 206.124 376.721 204.021 379.446C203.066 380.698 202.022 382.212 200.238 381.933C198.207 381.622 198.382 379.542 198.055 378.124C192.745 354.682 187.533 331.217 182.42 307.728C181.91 305.385 180.421 303.018 181.822 300.476C182.253 298.563 183.344 299.608 184.124 300.046C187.661 302.022 191.15 304.031 194.654 306.095C197.705 306.605 199.664 308.9 201.759 310.781C205.965 314.55 209.836 318.679 213.803 322.735C215.266 324.247 216.297 326.124 216.79 328.17Z" fill="#A2D559"/>
<path d="M181.862 300.476C187.852 327.373 193.81 354.27 199.991 381.845L217.69 364.105C217.69 365.157 217.69 366.209 217.69 367.292C212.433 372.672 207.223 378.107 201.879 383.407C200.286 385.001 200.939 386.595 201.281 388.189C202.516 393.99 203.862 399.768 205.16 405.554C202.309 406.351 203.153 403.259 201.887 402.366C198.042 384.833 194.2 367.3 190.361 349.767C186.713 333.143 183.073 316.513 179.441 299.878C179.672 299.344 179.664 298.284 180.373 298.547C181.082 298.81 181.337 299.798 181.862 300.476Z" fill="#FDFDFB"/>
<path d="M183.455 505.732C175.737 503.875 168.034 501.962 160.3 500.201C159.018 499.981 157.8 499.479 156.734 498.733C155.668 497.986 154.781 497.012 154.135 495.882C146.6 483.417 138.81 471.096 131.108 458.72C134.206 458.241 137.289 457.476 140.403 457.333C154.277 456.751 168.174 457.589 181.878 459.835C182.391 459.963 182.89 460.142 183.367 460.369C183.389 475.49 183.418 490.611 183.455 505.732Z" fill="#FED147"/>
<path d="M211.413 416.433C213.802 416.329 215.905 415.277 217.92 414.162C218.876 413.583 219.978 413.293 221.095 413.327C222.211 413.361 223.294 413.717 224.213 414.353C224.301 417.023 224.157 418.481 220.374 417.78C217.02 417.158 213.293 419.206 209.74 417.509L211.413 416.433Z" fill="#232D53"/>
<path d="M465.224 71.1603C465.176 63.1908 465.224 55.2213 465.033 47.2995C464.985 44.9645 465.877 44.1755 468.06 44.4225C468.723 44.4584 469.388 44.4584 470.051 44.4225C572.308 44.4225 674.565 44.3959 776.822 44.3428C780.678 44.3428 781.976 45.0441 781.968 49.276C781.84 204.571 781.84 359.863 781.968 515.152C781.968 518.938 781.052 520.109 777.189 520.021C765.52 519.742 753.843 519.886 742.142 519.87C741.83 519.766 741.544 519.596 741.304 519.372C741.063 519.148 740.874 518.875 740.748 518.571C739.282 515.208 741.592 503.843 744.277 501.158C747.893 500.169 751.589 500.815 755.253 500.616C756.925 500.528 758.702 500.91 760.143 499.667C761.33 498.304 761.043 496.655 761.043 495.085C761.043 364.214 761.043 233.341 761.043 102.465C761.043 90.1359 761.043 77.8069 760.908 65.478C760.86 60.2102 760.534 59.8994 755.213 59.8994C666.236 59.8994 577.255 59.8994 488.268 59.8994C482.939 59.8994 482.652 60.242 482.556 65.478C482.641 67.4625 482.537 69.4506 482.246 71.4154C480.143 74.8822 477.467 76.1971 475.356 73.9656C472.329 70.8097 469.167 70.0047 465.224 71.1603Z" fill="#548626"/>
<path d="M465.224 71.16C468.076 69.1756 471.142 67.4542 473.683 71.2636C475.914 74.6028 478.399 74.1566 481.29 72.6742C481.573 72.224 481.946 71.8377 482.386 71.5399C482.827 71.2421 483.324 71.0395 483.847 70.9448C485.91 70.4347 486.77 69.0162 487.304 67.0477C488.809 61.469 489.885 60.7358 495.635 60.672C497.091 60.6202 498.548 60.6521 500 60.7677C505.034 61.3176 507.241 63.6686 507.535 68.7372C507.814 73.5189 514.338 77.0495 518.615 74.7463C524.191 71.7657 525.154 71.9171 529.623 76.3881C531.068 77.7516 532.354 79.2756 533.454 80.9307C535.047 83.473 535.254 86.334 533.151 88.2706C529.591 91.5461 530.172 94.8774 531.837 98.5832C532.267 99.5396 532.339 100.655 533.112 101.452C542.12 104.05 542.12 104.05 541.961 113.805C541.857 120.133 540.583 121.623 534.243 122.428C533.455 122.478 532.697 122.742 532.048 123.191C531.4 123.64 530.886 124.258 530.563 124.978C528.635 128.804 526.397 132.47 529.965 136.646C530.913 137.754 530.762 139.467 530.021 140.838C528.993 142.932 527.559 144.801 525.802 146.335C524.044 147.869 521.999 149.037 519.786 149.772C515.548 151.134 513.358 147.755 511.351 144.695C510.028 142.009 510.626 139.116 510.602 136.351C510.483 121.878 510.522 107.398 510.506 92.9249C512.753 92.6938 515.493 92.6938 515.286 89.5298C515.078 86.3659 512.354 86.3898 509.877 86.3898C493.979 86.3898 478.08 86.3474 462.182 86.2624C457.498 78.3645 457.498 78.3644 464.316 71.8374C464.627 71.6302 464.922 71.4071 465.224 71.16Z" fill="#F2D054"/>
<path d="M743.799 502.169C742.628 508.011 740.167 513.733 742.134 519.878C744.051 531.986 744.343 544.296 743.002 556.482C742.516 560.578 743.13 564.929 740.684 568.667H735.865C733.181 561.638 732.847 554.107 731.182 546.854C730.011 541.762 729.095 536.614 728.067 531.489C726.968 530.692 726.841 529.489 726.618 528.301C723.695 512.936 720.708 497.579 718.055 482.166C718.007 481.903 718.007 481.632 717.984 481.369C717.76 478.938 717.753 478.938 716.39 479.217C715.403 476.539 714.901 473.925 717.434 471.741C719.68 470.945 721.894 470.857 724.037 472.076C725.407 473.766 725.184 475.806 725.136 477.751C725.073 480.444 726.243 481.552 728.912 481.496C732.098 481.424 735.228 481.44 738.39 481.496C740.222 481.496 742.11 481.44 743.592 482.867C746.053 489.306 745.591 495.73 743.799 502.169Z" fill="#585858"/>
<path d="M621.819 19.5492H635.32C638.506 19.5492 640.099 21.1431 640.41 24.3309C640.705 27.6702 638.881 29.6546 635.957 29.7343C626.569 29.9946 617.17 29.9946 607.761 29.7343C604.782 29.6546 603.061 27.0087 603.149 24.1556C603.236 21.3025 604.917 19.3739 608.318 19.4536C612.779 19.6608 617.319 19.5492 621.819 19.5492Z" fill="#FEFEFE"/>
<path d="M494.759 526.333C494.817 521.084 494.87 515.835 494.918 510.585C495.955 509.538 497.356 508.93 498.829 508.888C509.303 507.788 519.714 506.17 530.18 504.975C530.709 504.953 531.237 505.048 531.725 505.254C533.159 506.051 533.422 507.549 533.884 508.904C537.866 520.539 541.419 532.342 545.25 544.034C545.808 545.731 547.146 547.763 544.908 549.405C538.615 551.892 532.538 554.984 525.735 556.052C523.999 555.924 522.892 554.745 521.753 553.661C513.405 545.691 505.87 536.925 496.949 529.617C495.996 528.689 495.25 527.57 494.759 526.333Z" fill="#548526"/>
<path d="M544.908 549.405C545.76 547.07 544.501 545.038 543.848 542.981C540.168 531.426 536.385 519.87 532.649 508.362C532.37 507.493 532.243 506.569 532.052 505.676C530.754 504.791 529.288 505.206 527.886 505.078C525.799 504.895 525.003 503.947 526.397 502.026C527.376 500.663 528.691 499.428 527.703 497.499C524.469 486.414 521.586 475.185 516.862 464.609C516.798 464.3 516.834 463.978 516.966 463.691C517.098 463.404 517.318 463.167 517.595 463.015C520.423 461.294 522.318 463.055 524.214 464.792C526.381 467.741 526.922 471.343 527.886 474.706C528.914 478.317 530.897 479.568 534.465 479.297C536.942 479.105 539.452 479.201 541.945 479.002C543.346 479.185 544.756 478.962 546.166 479.002C551.551 479.4 556.943 479.169 562.328 479.169C566.31 479.169 566.533 478.819 565.593 474.73C565.327 473.85 565.174 472.939 565.139 472.021C565.936 469.853 566.326 467.087 569.823 468.554C571.846 470.044 571.997 472.451 572.786 474.555C575.263 481.895 576.641 489.625 580.576 496.455C581.125 497.882 580.799 499.492 581.508 500.902C582.758 505.525 584.319 510.035 585.737 514.594C586.47 516.985 587.904 518.1 590.389 518.029C591.847 518.029 593.312 518.029 594.77 518.029C631.771 518.029 668.772 518.029 705.773 518.029C708.003 518.029 710.305 517.694 712.424 518.826C712.536 518.876 712.634 518.954 712.709 519.052C712.783 519.15 712.833 519.266 712.852 519.388C712.871 519.509 712.859 519.634 712.817 519.75C712.776 519.867 712.706 519.971 712.615 520.053H590.843C586.239 520.053 586.239 520.053 587.609 524.325C592.277 538.949 596.976 553.557 601.572 568.197C601.915 569.281 603.667 570.979 601.413 571.68C599.517 572.262 597.836 572.007 597.024 569.225C594.324 559.957 591.106 550.839 588.262 541.595C587.505 539.108 586.327 538.271 583.77 538.343C577.676 538.511 571.567 538.407 565.45 538.343C564.126 538.247 562.802 538.523 561.627 539.14C558.628 539.387 555.618 539.483 552.61 539.427C548.914 539.491 548.795 539.674 549.846 543.3C550.233 544.273 550.415 545.315 550.38 546.361C551.614 554.059 554.832 561.168 556.903 568.62C557.166 569.56 558.194 570.771 557.031 571.425C555.94 571.875 554.73 571.939 553.598 571.608C552.435 571.329 552.514 569.911 552.196 568.97C550.263 563.243 548.378 557.494 546.541 551.724C546.262 550.792 546.198 549.7 544.908 549.405Z" fill="#99C954"/>
<path d="M712.615 520.101C712.666 519.892 712.666 519.673 712.615 519.463C710.337 513.933 710.823 508.115 710.878 502.345C710.878 501.197 710.815 500.05 710.878 498.902C711.036 497.36 710.873 495.803 710.401 494.327C709.907 491.506 710.122 488.669 710.098 485.84C710.098 484.796 710.177 483.752 710.289 482.708C710.496 480.827 711.301 479.656 713.372 480.468C714.853 481.042 715.881 480.365 716.94 479.56L718.238 477.488C720.461 489.442 722.635 500.95 724.746 512.482C725.901 518.858 726.96 525.162 728.067 531.497C727.8 542.834 726.153 554.096 723.161 565.033C722.786 566.468 722.898 568.333 720.771 568.659L715.434 568.492C714.59 553.685 713.743 538.872 712.894 524.054C712.822 522.739 712.71 521.416 712.615 520.101Z" fill="#464646"/>
<path d="M494.623 561.096C493.667 560.299 493.826 559.199 493.826 558.163C494.089 548.52 493.619 538.861 494.71 529.25C495.107 529.237 495.501 529.311 495.865 529.467C496.23 529.622 496.556 529.856 496.821 530.15C505.28 538.016 513.787 545.835 521.728 554.242C522.2 554.703 522.517 555.299 522.636 555.948C522.636 558.076 520.812 557.542 519.713 557.781C511.467 559.644 503.069 560.754 494.623 561.096Z" fill="#548626"/>
<path d="M522.652 555.948L494.727 529.25C494.727 528.278 494.727 527.305 494.727 526.333C505.432 535.841 515.372 546.153 525.703 556.052C524.66 557.414 523.672 556.322 522.652 555.948Z" fill="#F8FAF7"/>
<path d="M550.427 546.44C548.627 544.384 547.241 541.38 547.958 539.347C548.755 537.18 552.188 538.551 554.418 538.551C556.808 538.551 559.396 537.674 561.674 539.236C558.146 541.966 554.382 544.377 550.427 546.44Z" fill="#568728"/>
<path d="M569.599 469.199C566.963 467.836 567.17 471.279 565.529 471.59C564.772 471.71 564.398 471.239 564.095 470.665C563.147 466.904 561.809 463.254 560.591 459.58C560.399 457.898 559.268 457.635 557.835 457.595C555.007 457.524 552.179 457.492 549.344 457.595C542.526 457.595 535.707 457.595 528.889 457.595C523.035 457.595 523.035 457.595 524.11 463.254C524.14 463.604 524.095 463.956 523.979 464.287C523.862 464.618 523.676 464.921 523.433 465.174C521.768 463.907 520.191 462.305 517.81 463.581C514.918 459.524 514.823 454.455 512.895 450.032C512.545 448.717 511.868 447.522 511.501 446.215C511.135 444.908 510.856 443.649 510.506 442.366C510.27 441.433 509.95 440.523 509.55 439.648C505.695 427.455 501.585 415.357 497.921 403.084C496.574 394.046 493.396 385.551 490.115 377.079C490.051 376.92 489.645 376.888 489.398 376.792C489.979 373.556 488.96 370.767 487.008 368.225C484.619 364.67 483.87 360.463 482.723 356.478C481.632 352.732 479.625 351.513 475.905 351.696C469.987 351.919 464.061 351.792 458.142 351.696C456.478 351.696 454.67 351.975 453.363 350.469C457.059 349.13 460.866 350.046 464.618 349.895C468.959 349.728 473.324 349.672 477.649 349.895C481.241 350.094 482.253 349.098 480.349 345.854C478.103 343.742 477.8 340.73 476.789 338.052C476.048 336.084 475.578 334.02 474.973 332.003C473.053 325.58 473.037 325.628 466.347 325.365C464.817 325.309 463.121 325.644 462.013 324.09C464.403 323.181 466.872 323.755 469.302 323.683C473.619 323.571 473.619 323.635 471.651 319.483C471.819 319.332 471.986 319.18 472.145 319.021C476.924 318.71 481.799 316.136 486.483 319.451H495.643C500.222 317.26 505.081 318.598 509.813 318.304C510.609 318.375 511.485 318.304 512.322 318.367C515.882 318.854 514.926 316.774 514.281 314.877C513.365 312.119 512.449 309.362 511.509 306.604C511.206 305.01 510.402 303.417 511.262 301.823C516.384 300.101 518.598 301.512 518.965 306.756C519.086 307.519 519.288 308.267 519.57 308.987C525.942 329.453 532.689 349.815 539.188 370.249C542.741 381.088 545.998 392.014 549.726 402.797C550.285 404.145 550.657 405.564 550.833 407.013C550.547 408.447 551.574 409.459 552.036 410.655C557.235 426.169 562.247 441.747 567.074 457.388C567.344 458.726 567.825 460.012 568.5 461.198C569.018 463.493 570.149 465.637 570.149 468.059C570.089 468.487 569.897 468.886 569.599 469.199Z" fill="#9BC954"/>
<path d="M517.038 464.29C518.687 464.497 518.989 465.844 519.427 467.095C522.366 476.212 525.282 485.33 528.245 494.439C528.619 495.586 529.041 496.67 528.245 497.778C527.4 501.819 524.055 505.508 520.503 506.074C512.999 507.27 505.432 507.995 497.897 509.007C497.386 509.128 496.853 509.118 496.346 508.979C495.84 508.839 495.376 508.575 494.998 508.21C495.269 495.73 495.548 483.244 495.834 470.753C495.933 469.976 496.118 469.211 496.384 468.474C502.788 464.864 509.638 463.214 517.038 464.29Z" fill="#548626"/>
<path d="M497.913 403.147C500.693 405.602 500.805 409.244 501.896 412.408C504.946 421.541 507.726 430.738 510.658 439.943C506.77 444.254 502.637 448.239 496.981 450.192C495.794 447.378 496.185 444.374 496.543 441.577C497.674 432.459 496.87 423.326 497.236 414.209C497.284 410.519 497.658 406.837 497.913 403.147Z" fill="#A2D559"/>
<path d="M517.038 464.29C509.988 464.936 503.17 466.753 496.328 468.466L496.376 453.324C501.585 446.351 506.834 445.067 513.684 449.092C515.094 453.93 516.974 458.656 517.794 463.636L517.038 464.29Z" fill="#A2D559"/>
<path d="M494.949 508.179C503.711 507.119 512.537 506.25 521.235 504.895C524.954 504.321 525.862 500.193 528.164 497.778C529.614 498.001 530.012 498.671 529.072 499.906L526.133 503.787C527.989 505.134 530.912 502.719 532.019 505.676L494.886 510.585C494.894 509.788 494.941 508.983 494.949 508.179Z" fill="#F9FAF7"/>
<path d="M513.692 449.084C506.866 446.159 501.386 448.757 496.384 453.316C496.221 452.242 496.405 451.145 496.91 450.184L510.586 439.943C510.833 440.58 511.08 441.218 511.319 441.856C509.726 443.697 509.543 445.267 512.171 446.303L513.692 449.084Z" fill="#FAFCF7"/>
<path d="M458.796 456.599C456.407 464.154 454.017 471.399 451.723 478.659C451.245 480.173 450.058 480.133 448.856 480.133C437.33 480.133 425.812 480.133 414.295 480.133C412.001 480.133 411.587 479.336 412.295 477.272C414.366 471.144 416.334 464.983 418.253 458.807C418.699 457.364 419.273 456.543 420.954 456.551C433.387 456.623 445.821 456.599 458.796 456.599Z" fill="#F2D054"/>
<path d="M440.206 452.551C434.503 452.551 428.799 452.487 423.104 452.551C420.906 452.551 420.325 452.065 421.105 449.818C423.181 443.824 425.125 437.783 426.936 431.695C427.493 429.822 428.401 429.216 430.297 429.224C441.831 429.261 453.361 429.235 464.89 429.145C466.746 429.145 467.63 429.408 466.913 431.535C464.81 437.799 462.755 444.079 460.843 450.407C460.302 452.192 459.346 452.551 457.697 452.527C451.883 452.503 446.036 452.551 440.206 452.551Z" fill="#F2D054"/>
<path d="M456.136 402.606C461.839 402.606 467.542 402.662 473.245 402.606C475.475 402.606 476.057 403.275 475.332 405.427C473.388 411.197 471.548 416.999 469.756 422.809C469.215 424.562 468.338 425.343 466.371 425.327C454.965 425.237 443.548 425.237 432.121 425.327C429.731 425.327 429.086 424.825 429.962 422.362C431.945 416.784 433.746 411.07 435.394 405.355C436.048 403.108 437.226 402.55 439.377 402.598C444.985 402.662 450.56 402.606 456.136 402.606Z" fill="#F2D054"/>
<path d="M429.962 484.206C435.649 484.206 441.344 484.325 447.031 484.158C449.652 484.078 449.819 485.003 449.102 487.131C447.167 492.885 445.335 498.679 443.527 504.472C442.985 506.202 442.133 507.007 440.157 506.991C428.64 506.901 417.125 506.901 405.612 506.991C403.31 506.991 402.92 506.266 403.645 504.146C405.62 498.408 407.508 492.63 409.22 486.796C409.834 484.692 410.901 484.214 412.9 484.254C418.588 484.365 424.283 484.254 429.978 484.254L429.962 484.206Z" fill="#F2D054"/>
<path d="M464.905 376.218C470.608 376.218 476.312 376.266 482.015 376.218C483.942 376.218 484.635 376.561 483.894 378.697C481.871 384.568 479.976 390.487 478.207 396.453C477.674 398.262 476.734 398.645 475.077 398.637C463.535 398.637 451.978 398.573 440.468 398.637C438.238 398.637 437.664 398.031 438.373 395.919C440.317 390.149 442.229 384.371 444.005 378.553C444.57 376.697 445.534 376.163 447.406 376.163C453.236 376.306 459.051 376.218 464.905 376.218Z" fill="#F2D054"/>
<path d="M399.933 516.73C400.132 512.641 401.845 510.888 406.353 511.055C416.532 511.43 426.736 511.159 436.931 511.191C438.222 511.191 439.576 510.864 441.105 511.741C438.851 518.706 436.517 525.703 434.366 532.757C433.833 534.518 432.773 534.534 431.38 534.526L400.013 534.382C397.743 530.74 398.858 526.747 398.945 522.898C399.039 520.811 399.371 518.742 399.933 516.73Z" fill="#F2D054"/>
<path d="M453.388 350.525C461.353 350.525 469.247 350.78 477.164 350.525C480.749 350.413 482.804 351.186 483.465 355.028C484.261 359.53 486.961 363.555 487.033 368.281C486.866 371.421 485.233 372.266 482.134 372.266C470.266 372.082 458.398 372.194 446.084 372.194C448.697 364.695 450.417 357.402 453.388 350.525Z" fill="#F2D054"/>
<path d="M462.038 324.169C463.878 324.241 465.757 324.608 467.534 324.337C472.01 323.644 474.439 325.237 475.499 329.764C476.813 335.223 478.685 340.555 480.342 345.934C472.838 345.934 465.327 345.934 457.824 346.006C455.514 346.006 454.295 345.831 455.435 343.001C457.896 336.817 458.907 330.123 462.038 324.169Z" fill="#F2D054"/>
<path d="M466.116 302.189C470.099 301.265 471.891 302.986 473.014 306.844C473.994 310.183 473.874 314.184 477.196 316.574C476.065 319.109 473.874 318.678 471.787 318.527C469.175 316.678 469.223 313.578 468.211 310.972C467.701 309.641 467.837 308.135 467.088 306.868C467.725 305.066 467.072 303.576 466.116 302.189Z" fill="#9AC853"/>
<path d="M467.088 306.828C469.709 308.422 468.944 311.482 470.075 313.729C470.723 315.165 471.298 316.634 471.796 318.128C471.89 318.234 471.962 318.357 472.007 318.492C472.051 318.626 472.067 318.768 472.054 318.909C472.04 319.05 471.998 319.187 471.928 319.31C471.859 319.434 471.765 319.542 471.652 319.627L471.716 319.579C462.867 320.456 462.867 320.456 465.423 312.072C465.917 310.302 466.523 308.565 467.088 306.828Z" fill="#F0CF53"/>
<path d="M567.958 461.27C566.708 460.648 566.365 459.556 566.477 458.273C569.257 456.536 571.885 458.337 574.362 458.982C578.098 459.963 580.432 458.823 583.124 456.313C595.223 445.004 604.63 431.926 610.732 416.465C611.998 413.277 612.747 409.89 613.734 406.591C614.579 403.769 613.934 402.152 610.684 401.618C598.927 399.673 587.242 397.298 575.501 395.242C572.992 394.812 571.176 395.776 569.344 397.234C564.565 401.036 559.786 404.774 555.007 408.535C553.948 409.332 553.04 410.83 551.271 410.185C550.762 409.444 549.535 408.95 550.427 407.73C551.112 405.857 552.769 404.933 554.219 403.793C572.538 389.448 590.787 374.991 609.64 360.072C601.03 358.478 593.033 357.466 584.869 358.231C574.444 359.106 564.175 361.319 554.314 364.814C552.992 365.3 551.566 365.97 550.164 364.902C548.63 361.218 547.756 357.293 547.584 353.306C547.808 352.759 548.143 352.263 548.568 351.852C548.993 351.44 549.498 351.121 550.053 350.915C555.915 348.054 561.602 344.827 567.624 342.292C568.357 342.046 569.012 341.609 569.52 341.025C564.263 339.973 559.085 339.583 553.964 338.873C549.981 338.316 545.823 338.491 541.976 336.937C540.494 336.092 539.953 334.594 539.26 333.167C534.701 323.94 529.236 315.189 522.947 307.043C522.812 306.809 522.628 306.607 522.406 306.453C522.184 306.299 521.931 306.195 521.665 306.15C520.12 306.644 520.805 309.338 518.654 309.29C518.407 308.685 517.857 308.015 517.953 307.497C519.299 301.656 515.229 302.11 511.637 301.982C510.283 300.922 510.426 299.44 510.529 297.998C511.923 278.074 513.214 258.206 513.548 238.226C513.668 231.109 514.52 224 513.923 216.867C513.571 215.065 513.533 213.216 513.811 211.4C513.901 210.986 514.048 210.586 514.249 210.213C514.487 209.744 514.811 209.325 515.205 208.978C522.573 203.399 522.629 196.33 519.427 188.48C517.622 184.244 515.399 180.2 512.792 176.406C511.804 174.916 510.314 173.609 510.482 171.545C510.529 164.106 510.583 156.689 510.641 149.294C510.641 147.7 510.362 146.106 511.374 144.687C511.828 144.894 512.441 144.982 512.72 145.325C517.802 151.701 520.08 149.31 524.843 145.421C530.419 140.838 530.586 139.69 526.755 133.355C526.384 132.906 526.182 132.342 526.182 131.761C526.182 131.179 526.384 130.615 526.755 130.167C527.511 129.241 528.104 128.193 528.507 127.067C529.574 122.907 531.502 120.324 536.416 121.281C538.511 121.687 539.825 120.157 540.399 118.173C540.63 117.415 540.796 116.639 540.893 115.853C541.992 105.963 541.689 105.565 532.131 102.194C532.505 100.13 534.321 100.122 535.787 99.755C537.885 99.3464 540.026 99.2071 542.159 99.3405H754.097C754.893 99.3405 755.69 99.3405 756.486 99.3405C761.425 99.4999 761.759 99.8426 761.759 104.919C761.759 235.901 761.759 366.868 761.759 497.818C761.759 499.117 762.086 500.472 761.401 501.715L743.814 502.05C743.017 498.201 744.26 494.359 743.886 490.502C743.655 488.039 743.511 485.577 743.32 483.114C743.661 481.157 743.623 479.152 743.209 477.209C741.743 468.729 740.277 460.258 739.529 451.706C738.692 446.845 739.887 442.007 739.632 437.146C739.433 433.233 738.716 429.583 736.343 426.395C734.53 423.982 732.409 421.817 730.034 419.956C728.815 418.951 727.453 418.067 727.437 416.242C728.951 410.145 727.437 404.415 725.048 398.884C723.216 394.636 720.476 393.018 716.78 393.505C714.728 393.778 712.816 394.697 711.321 396.13C709.826 397.563 708.825 399.434 708.464 401.474C708.125 403.44 708.103 405.447 708.401 407.419C709.277 412.416 709.006 417.453 709.133 422.474C709.245 426.77 709.356 426.825 713.602 425.996C713.912 426.35 714.108 426.788 714.165 427.254C714.221 427.721 714.136 428.193 713.921 428.611C711.834 433.886 709.356 438.971 705.645 443.346C703.359 444.231 699.408 443.195 700.42 447.889C700.165 452.145 700.547 456.305 702.387 460.226C702.658 463.143 704.346 464.211 707.166 464.083C708.584 464.003 710.057 463.995 711.316 464.88C712.359 466.203 711.961 467.701 711.635 469.08C710.503 474.118 710.266 479.317 710.934 484.437C711.162 487.907 711.396 491.36 711.635 494.798C711.73 496.001 711.364 497.236 711.897 498.408C711.897 499.5 711.897 500.599 711.897 501.691C710.384 503.134 708.464 502.935 706.632 502.943C670.752 502.943 634.869 502.943 598.983 502.943C596.458 502.943 593.997 502.943 592.459 500.241C591.663 498.894 590.07 499.731 588.764 499.699C586.055 499.627 583.307 501.245 580.655 499.46C578.265 498.567 579.301 497.81 580.751 497.069C585.004 495.013 589.568 495.053 593.829 494.79C588.811 487.617 581.945 481.72 574.147 476.898C573.259 476.334 572.501 475.587 571.925 474.706L569.591 469.064C569.638 468.979 569.666 468.887 569.676 468.791C569.686 468.695 569.676 468.598 569.647 468.506C570.993 465.709 573.407 464.274 575.86 463.318C573.407 462.951 570.412 463.111 567.958 461.27Z" fill="#FEFEFE"/>
<path d="M510.458 171.609C514.783 177.426 518.893 183.364 521.084 190.393C524.079 199.956 522.924 203.662 514.616 210.532C511.933 209.77 509.506 208.296 507.591 206.268C505.695 204.387 504.118 203.877 501.744 204.889C500.37 205.373 498.93 205.641 497.475 205.686C495.221 205.902 493.827 204.889 493.771 202.602C493.524 191.907 493.405 181.212 493.843 170.517C493.964 169.729 494.264 168.979 494.719 168.325L495.651 165.137C497.77 163.496 499.888 163.703 502.023 165.137C503.712 168.795 507.965 169.05 510.458 171.609Z" fill="#BDE385"/>
<path d="M494.719 168.356C494.719 179.267 494.791 190.177 494.719 201.095C494.719 204.084 495.053 205.534 498.701 204.451C501.33 203.654 504.054 203.191 506.611 201.884C506.611 207.375 512.983 206.73 514.632 210.531C510.57 214.269 505.432 214.516 500.358 214.811C498.295 214.946 496.129 214.572 494.671 216.588C491.039 217.656 487.351 217.441 483.647 217.09C483.312 216.744 483.125 216.281 483.125 215.799C483.125 215.317 483.312 214.854 483.647 214.508C483.647 213.464 483.703 212.42 483.735 211.376C485.822 209.216 485.862 207.073 483.687 204.945C483.687 201.422 483.687 197.892 483.687 194.369C483.687 193.15 484.109 191.58 482.094 191.468C480.174 191.333 480.222 189.755 480.238 188.551C480.31 184.327 480.644 180.12 482.883 176.342C487.431 174.676 490.386 170.492 494.719 168.356Z" fill="#A9D964"/>
<path d="M482.803 176.358C482.915 179.642 481.617 182.734 481.306 185.922C481.131 187.747 480.509 189.819 482.015 191.501C477.236 193.094 472.409 192.505 467.677 191.795C461.242 190.823 454.869 189.405 448.473 188.241C445.12 186.265 443.646 182.997 442.476 179.53C445.606 181.26 448.911 180.455 452.241 180.566C462.062 180.909 471.628 180.136 480.916 176.884C481.529 176.653 482.15 176.526 482.803 176.358Z" fill="#B8E17D"/>
<path d="M372.23 194.712C367.188 196.306 362.027 195.167 356.929 195.342C355.209 195.398 355.448 193.748 355.44 192.632C355.44 188.384 355.44 184.145 355.44 179.881V112.674C355.44 111.749 355.44 110.817 355.44 109.892C355.44 109.263 355.376 108.426 356.276 108.346C357.176 108.267 357.614 109.079 357.678 109.884C357.782 111.072 357.758 112.275 357.758 113.463C357.758 138.782 357.837 164.101 357.686 189.42C357.686 192.927 358.594 194.154 362.131 193.844C365.42 193.549 368.758 193.844 372.071 193.844C372.163 193.901 372.238 193.983 372.287 194.08C372.336 194.177 372.358 194.285 372.35 194.393C372.35 194.601 372.302 194.712 372.23 194.712Z" fill="#FDFDFD"/>
<path d="M426.274 153.262C427.421 151.892 428.99 152.465 430.368 152.465C437.657 152.402 444.937 152.338 452.225 152.465C454.567 152.521 455.777 151.668 456.749 149.612C462.444 137.538 468.243 125.512 474.034 113.478C474.385 112.868 474.558 112.171 474.534 111.467C474.51 110.762 474.29 110.079 473.898 109.493C472.488 107.031 472.839 104.632 475.635 103.118C477.897 101.891 479.729 103.006 480.661 104.799C481.919 107.254 481.696 109.82 478.614 110.984C476.957 111.597 476.622 113.032 476.017 114.275C470.162 126.429 464.308 138.574 458.589 150.792C457.426 153.286 455.984 154.243 453.165 154.179C444.403 153.996 435.641 154.131 426.943 154.179C426.306 154.163 425.884 154.019 426.274 153.262Z" fill="#FDFDFD"/>
<path d="M424.665 153.318C422.156 159.096 419.615 164.874 417.146 170.676C416.413 172.405 415.027 172.357 413.546 172.357C407.97 172.357 402.458 172.437 396.922 172.31C394.533 172.254 392.796 172.891 391.832 175.147C391.758 175.255 391.689 175.366 391.625 175.481C388.607 184.128 382.29 186.639 373.767 185.101C373.258 184.71 372.278 184.455 373.313 183.587L374.572 183.475C374.962 183.045 375.193 182.351 375.998 182.614C382.226 183.881 386.599 181.969 388.909 175.673C390.502 171.297 393.585 169.193 398.682 169.863C402.976 170.421 407.396 169.863 411.753 170.03C414.477 170.158 415.792 169.058 416.716 166.603C418.165 162.786 419.902 159.096 421.622 155.374C422.156 154.203 422.554 152.848 424.012 152.386C424.649 152.402 425.215 152.473 424.665 153.318Z" fill="#F8F8F8"/>
<path d="M373.314 183.587L373.768 185.101C374.456 188.132 375.49 191.073 376.85 193.867C377.153 194.032 377.394 194.29 377.537 194.603C377.681 194.917 377.719 195.268 377.647 195.605C377.718 198.45 379.08 200.905 380.036 203.495C381.072 206.388 380.769 208.922 377.822 210.603L369.817 209.01C375.185 205.025 373.799 199.94 372.302 194.784C372.254 194.497 372.198 194.202 372.151 193.915C371.354 191.524 371.776 188.934 370.558 186.663C369.1 185.81 367.706 184.838 366.28 183.921C365.484 183.435 364.193 182.917 365.34 181.531C366.637 181.04 368.053 180.964 369.395 181.314C370.736 181.664 371.935 182.422 372.828 183.483C372.994 183.492 373.158 183.527 373.314 183.587Z" fill="#F7B68F"/>
<path d="M502.063 165.185H495.691C495.691 165.058 495.691 164.834 495.588 164.811C489.654 162.627 490.41 158.108 491.605 153.422C491.684 152.895 491.713 152.361 491.693 151.828C497.929 149.804 499.809 150.553 503.465 156.49C500.677 159.065 502.159 162.252 502.063 165.185Z" fill="#F5B48E"/>
<path d="M503.393 156.538C502.183 155.327 499.881 155.295 499.777 152.792C499.729 151.701 498.415 151.884 497.483 152.067C495.516 152.45 493.564 152.067 491.613 151.876C489.462 150.633 487.375 149.286 489.008 146.345C490.529 143.595 492.879 143.643 495.46 144.751C497.738 145.707 499.928 146.839 502.549 146.823C504.938 146.823 505.735 148.505 505.305 150.617C504.769 152.622 504.131 154.598 503.393 156.538Z" fill="#030303"/>
<path d="M426.274 153.262L426.943 154.139C431.329 161.216 435.715 168.293 440.101 175.37C440.898 176.717 441.694 178.127 442.443 179.506L448.441 188.272C448.712 189.548 450.034 190.376 449.93 191.819C449.038 192.616 448.465 192.098 448.019 191.357C440.505 179.052 433.007 166.736 425.525 154.41C425.342 154.123 425.469 153.613 425.453 153.262H426.274Z" fill="#403E3D"/>
<path d="M429.182 128.453H420.213C421.726 125.919 422.889 123.671 424.92 121.719C426.685 123.726 428.123 125.999 429.182 128.453Z" fill="#FDFDFD"/>
<path d="M459.393 108.529H450.855C450.855 108.115 450.815 107.796 450.942 107.629C452.32 105.748 453.236 102.05 454.925 102.257C457.274 102.592 457.928 106.091 459.393 108.529Z" fill="#FDFDFD"/>
<path d="M372.78 183.443C370.167 182.965 367.746 181.395 364.926 182.064C364.811 182.155 364.679 182.221 364.536 182.256C364.394 182.292 364.246 182.297 364.102 182.27C363.958 182.244 363.821 182.187 363.701 182.103C363.581 182.02 363.48 181.911 363.405 181.785C363.405 179.642 364.249 178.597 366.535 179.147C368.176 179.514 369.857 179.681 371.513 179.944C373.935 180.391 374.214 181.618 372.78 183.443Z" fill="#F39814"/>
<path d="M363.405 181.786L364.926 182.065C366.44 184.009 370.064 183.34 370.502 186.599C365.348 188.6 363.389 187.269 363.405 181.786Z" fill="#FDFCFB"/>
<path d="M424.665 153.318L424.004 152.362C423.375 151.238 422.777 150.09 422.124 148.975C421.396 147.892 420.857 146.692 420.531 145.428C422.523 147.819 424.721 150.043 425.502 153.254L424.665 153.318Z" fill="#403E3D"/>
<path d="M375.998 182.646L374.572 183.507C374.397 182.582 373.903 181.363 375.034 181.004C375.822 180.717 375.894 181.905 375.998 182.646Z" fill="#545B78"/>
<path d="M483.879 216.772C487.423 215.282 491.159 216.668 494.759 215.975C501.394 214.309 508.037 214.062 514.672 216.031C516.114 222.263 515.086 228.543 514.967 234.799C514.537 257.233 513.111 279.62 511.622 302.006L512.243 306.788C512.768 311.355 509.59 312.12 506.205 312.67C506.027 312.71 505.842 312.703 505.667 312.65C505.493 312.597 505.335 312.499 505.21 312.367C505.21 311.259 505.839 310.111 505.01 309.051C502.35 305.154 502.669 300.524 502.031 296.173C501.153 290.624 500.854 284.999 501.139 279.389C500.685 266.685 499.132 254.085 497.34 241.438C495.683 252.547 494.026 263.657 492.37 274.766C490.713 285.876 489.085 297.004 487.487 308.151C487.2 310.167 486.388 311.132 484.15 311.1C481.911 311.068 481.521 309.673 481.418 308.023C480.271 290.57 479.37 273.101 479.984 255.592C480.127 251.487 480.239 247.383 480.358 243.279C478.765 239.573 480.422 235.867 480.358 232.121C481.155 228.28 481.242 224.319 482.19 220.51C482.517 219.203 482.318 217.577 483.879 216.772Z" fill="#585858"/>
<path d="M481.353 231.747C481.351 235.609 481.021 239.464 480.365 243.27L465.144 243.103C465.144 235.484 465.263 227.857 465.088 220.239C465.024 217.314 465.685 216.046 468.911 215.975C472.958 215.879 476.98 215.082 481.018 214.58C482.396 215.728 482.524 217.33 482.357 218.892C481.879 223.171 481.751 227.475 481.353 231.747Z" fill="#548626"/>
<path d="M501.131 279.38L505.002 309.051L499.984 311.482C500.773 300.595 499.522 289.948 501.131 279.38Z" fill="#FBFAF6"/>
<path d="M505.202 312.358C505.401 312.358 505.6 312.406 505.807 312.446C506.82 312.74 507.81 313.108 508.77 313.546C511.868 314.749 512.267 316.383 510.363 319.555H495.683C495.508 316.909 497.85 317.826 499.029 317.363C501.673 316.351 504.636 315.897 505.202 312.358Z" fill="#32312C"/>
<path d="M471.612 319.611L471.756 318.113C473.596 317.666 475.539 317.595 477.196 316.519C478.286 316.117 479.35 315.649 480.382 315.116C481.21 314.628 482.143 314.344 483.103 314.288C484.063 314.233 485.023 314.407 485.902 314.797C487.495 315.594 486.698 317.85 486.475 319.515C481.537 318.081 476.575 320.041 471.612 319.611Z" fill="#263115"/>
<path d="M377.623 195.573C377.36 194.991 377.105 194.409 376.826 193.835H481.489V195.573H377.623Z" fill="#FEFEFE"/>
<path d="M483.639 204.961C484.882 205.837 486.825 205.678 486.825 208.149C486.825 210.619 484.953 210.54 483.639 211.336C482.181 211.336 480.732 211.336 479.593 210.141C478 208.459 475.993 206.22 476.813 204.395C477.57 202.713 480.206 204.395 482.006 204.794C482.546 204.888 483.092 204.944 483.639 204.961Z" fill="#F6B68F"/>
<path d="M481.353 231.747L481.019 214.58L483.615 214.524C483.711 215.274 483.798 216.031 483.894 216.78C483.039 221.769 482.192 226.758 481.353 231.747Z" fill="#F8F8F8"/>
<path d="M223.345 253.057C215.268 250.722 207.972 246.785 201.043 242.131C198.51 240.123 198.462 238.624 201.465 236.743C205.264 234.353 208.697 231.396 212.289 228.678C217.068 232.161 222.102 235.006 227.957 236.186C226.969 240.84 225.95 245.494 225.01 250.164C224.755 251.352 224.747 252.579 223.345 253.057Z" fill="#2E4717"/>
<path d="M239.211 263.936C239.413 265.207 239.719 266.46 240.127 267.681C241.155 270.136 240.972 272.32 238.813 273.945C237.499 274.942 237.738 276.177 237.65 277.428L230.482 276.496C230.811 276.095 230.991 275.592 230.991 275.073C230.991 274.554 230.811 274.051 230.482 273.65C230.067 272.056 228.251 270.957 228.801 268.956C229.462 266.566 230.306 264.302 233.413 264.485C235.364 264.597 237.18 263.21 239.211 263.936Z" fill="#F6B38D"/>
<path d="M366.655 37.6558C373.529 35.8946 380.482 35.5997 387.428 37.6558C380.506 37.0501 373.608 36.4604 366.655 37.6558Z" fill="#D5ECB4"/>
<path d="M761.386 501.834V108.314C761.31 107.122 761.31 105.927 761.386 104.736C761.8 101.612 760.589 100.687 757.403 100.687C684.575 100.772 611.749 100.793 538.926 100.751C536.559 100.643 534.205 101.169 532.108 102.273C531.041 99.3323 530.101 96.3358 528.858 93.4667C528.062 91.6497 529.456 91.0759 530.3 90.2789C534.944 85.4972 534.975 83.6244 530.348 78.6593C529.448 77.687 528.412 76.8343 527.568 75.8301C525.178 73.0248 522.534 72.9292 519.977 75.2324C517.269 77.6232 514.823 77.7747 512.012 75.5432C510.925 74.7812 509.719 74.2049 508.443 73.8377C506.468 73.1683 505.998 72.1322 506.309 69.9645C507.105 64.4576 504.994 62.1703 499.363 61.8037C498.304 61.732 497.244 61.8038 496.177 61.7559C489.661 61.7559 489.454 61.7001 488.212 68.259C487.415 72.5706 483.711 71.4469 481.258 72.7141C481.258 68.8727 481.258 65.0234 481.139 61.1821C481.075 59.2694 481.784 58.4963 483.664 58.7035C484.327 58.7394 484.992 58.7394 485.655 58.7035C576.23 58.7035 666.802 58.6717 757.371 58.6079C761.298 58.6079 762.103 59.6917 762.103 63.4534C762.034 208.117 762.018 352.777 762.055 497.435C762.087 498.87 762.835 500.567 761.386 501.834Z" fill="#E0E0E0"/>
<path d="M740.477 451.706C741.91 461.166 743.28 470.634 744.818 480.07C745.089 481.664 745.335 482.899 743.304 483.258C738.191 482.413 733.029 482.835 727.908 482.963C724.658 483.042 723.758 481.935 724.021 478.898C724.103 476.658 724.049 474.414 723.861 472.18C722.268 469.574 722.659 466.856 723.383 464.123C725.096 462.13 726.761 463.637 728.33 464.298C734.105 466.689 736.183 465.629 737.243 459.413C737.53 457.723 737.808 456.042 738.143 454.368C738.398 453.053 738.7 451.69 740.477 451.706Z" fill="#F8DA40"/>
<path d="M710.926 484.541C707.74 478.117 710.416 471.742 711.069 465.35C713.148 463.629 715.45 463.676 717.856 464.489C719.035 467.087 719.353 469.654 717.577 472.14C716.406 474.531 716.94 477.073 716.94 479.56C716.406 480.644 717.736 483.816 714.55 481.951C711.133 479.966 710.854 481.871 710.926 484.541Z" fill="#EED058"/>
<path d="M717.576 472.14C717.521 469.582 717.457 467.032 717.401 464.473C717.099 464.168 716.882 463.789 716.772 463.373C716.395 461.918 716.568 460.374 717.258 459.038C720.93 458.496 722.834 460.56 724.124 463.636L723.861 472.156L717.576 472.14Z" fill="#FCFCFC"/>
<path d="M580.664 499.603L595.121 497.778C594.539 499.261 594.117 500.336 593.687 501.412C594.396 502.44 595.399 502.042 596.22 502.042C633.863 502.042 671.504 502.042 709.142 502.042C710.058 502.042 710.982 501.899 711.906 501.827L712.623 519.455C672.001 519.455 631.378 519.352 590.756 519.455C586.932 519.455 585.061 518.619 584.383 514.586C583.738 510.864 581.994 507.342 580.895 503.684C580.52 502.417 579.421 501.03 580.664 499.603Z" fill="#548626"/>
<path d="M568.612 533.689C563.578 535.403 558.393 534.263 553.287 534.422C546.07 534.637 546.054 534.478 543.729 527.441C542.263 522.922 540.853 518.38 539.364 513.893C538.79 512.155 538.894 511.279 541.148 511.295C552.674 511.39 564.199 511.358 575.725 511.295C577.549 511.295 578.767 511.773 579.158 513.749C579.628 516.14 581.404 518.284 580.751 520.922C577.963 526.381 574.458 531.155 568.612 533.689Z" fill="#548526"/>
<path d="M541.093 485.122C542.343 484.166 543.809 484.278 545.259 484.278C552.252 484.278 559.245 484.461 566.231 484.278C569.027 484.19 570.285 485.226 570.954 487.768C571.649 490.445 572.513 493.075 573.543 495.642C574.276 497.459 573.041 497.818 571.95 498.439C570.022 500.488 567.338 500.256 564.948 500.519C557.35 501.364 549.815 502.552 542.224 503.484C540.631 503.683 539.038 503.978 537.716 502.751C533.263 501.548 534.936 497.284 533.605 494.526C534.841 490.567 537.512 487.213 541.093 485.122Z" fill="#548626"/>
<path d="M523.426 465.222C523.426 464.736 523.426 464.242 523.426 463.756C525.138 461.995 527.408 462.409 529.424 462.505C536.815 462.848 544.199 463.382 551.248 465.948C552.212 466.482 552.562 467.342 551.973 468.251C549.289 472.419 546.772 476.746 542.502 479.592C538.52 480.962 534.426 480.07 530.387 480.221C528.316 480.293 527.998 478.492 527.472 477.033C526.134 473.096 525.401 468.944 523.426 465.222Z" fill="#548626"/>
<path d="M571.934 474.842C581.356 479.536 588.884 486.35 595.256 495.435L580.735 497.204C579.795 496.886 578.688 497.077 578.266 495.658C576.235 488.677 574.068 481.775 571.934 474.842Z" fill="#548627"/>
<path d="M564.724 470.993L565.521 471.614C569.066 480.277 569.058 480.429 560.041 480.221C555.262 480.11 550.315 481.233 545.576 479.496C547.082 474.228 551.08 470.809 554.736 467.135C558.448 467.43 561.897 468.41 564.724 470.993Z" fill="#558627"/>
<path d="M575.031 500.105C576.975 507.318 576.975 507.318 569.567 507.318C560.312 507.318 551.048 507.318 541.793 507.318C539.953 507.318 537.667 507.915 536.966 505.174C538.177 503.54 540.088 503.851 541.745 503.628C551.813 502.257 561.857 500.711 572.013 499.787C573.028 499.595 574.078 499.706 575.031 500.105Z" fill="#578929"/>
<path d="M568.612 533.689C573.063 529.828 577.143 525.559 580.799 520.938C583.643 524.412 583.587 528.987 585.315 532.892C585.682 533.689 585.14 534.486 584.128 534.414C578.967 534.103 573.75 535.49 568.612 533.689Z" fill="#DCDDDC"/>
<path d="M575.032 500.105L536.966 505.15C535.317 503.763 536.847 503.349 537.699 502.759L571.949 498.448C573.216 498.512 574.546 498.559 575.032 500.105Z" fill="#F8FAF6"/>
<path d="M554.513 467.645L545.584 479.496C544.573 479.831 543.585 480.907 542.518 479.592L552.076 466.84C552.288 466.729 552.52 466.661 552.759 466.641C552.998 466.622 553.238 466.65 553.465 466.725C553.693 466.8 553.903 466.921 554.083 467.079C554.263 467.237 554.409 467.429 554.513 467.645Z" fill="#F2F6EE"/>
<path d="M532.976 491.594C532.864 491.522 532.713 491.482 532.641 491.379C531.295 489.378 529.519 486.167 530.642 485.003C532.41 483.146 535.835 484.485 538.559 484.366C538.353 485.958 537.728 487.466 536.747 488.737C535.765 490.007 534.464 490.993 532.976 491.594Z" fill="#568728"/>
<path d="M532.975 491.594L538.551 484.349C539.459 484.349 540.542 483.807 541.044 485.146L533.581 494.526C532.553 493.705 532.784 492.661 532.975 491.594Z" fill="#F3F6EF"/>
<path d="M711.89 498.551C711.418 497.407 711.326 496.141 711.627 494.941C712.272 496.104 711.961 497.332 711.89 498.551Z" fill="#548626"/>
<path d="M551.248 410.225C557.373 405.387 563.53 400.582 569.568 395.68C570.381 394.95 571.363 394.432 572.424 394.173C573.486 393.915 574.596 393.923 575.653 394.198C587.689 396.589 599.796 398.693 611.895 400.829C614.523 401.291 615.949 401.705 615.081 405.284C610.581 424.41 600.345 440.087 586.956 454.161C582.01 459.365 577.31 462.234 570.285 459.054C569.114 458.528 567.712 458.52 566.414 458.257C561.276 442.302 555.748 426.427 551.248 410.225Z" fill="#A2D559"/>
<path d="M550.555 364.814C559.173 362.32 567.672 359.467 576.617 358.199C588.364 356.405 600.346 356.871 611.919 359.57C603.954 365.866 596.458 371.883 588.868 377.773C576.028 387.742 563.586 398.222 550.404 407.754C546.063 395.441 541.857 383.048 538.512 370.465C541.531 366.472 546.19 365.946 550.555 364.814Z" fill="#A2D559"/>
<path d="M523.266 429.288C525.719 427.447 528.045 429.574 530.53 429.487C536.472 429.272 542.478 429.487 548.388 429.367C550.857 429.311 552.235 429.973 552.984 432.555C554.625 438.134 556.576 443.593 558.456 449.084C559.045 450.805 559.252 452.551 556.863 452.431C548.101 451.993 539.483 453.507 530.777 453.228C530.426 453.228 530.084 452.885 529.741 452.702C532.179 450.311 535.046 452.965 537.149 452.144C530.751 451.777 524.428 450.571 518.343 448.558C517.148 445.03 515.951 441.502 514.751 437.974C517.411 434.97 521.665 433.758 523.672 430.005C523.487 429.798 523.348 429.553 523.266 429.288Z" fill="#A2D559"/>
<path d="M550.555 364.814L538.512 370.481C535.326 363.252 533.414 355.586 530.969 348.11C526.755 335.223 522.773 322.265 518.631 309.362C521.562 303.481 521.538 303.497 525.712 309.211C531.944 317.702 537.34 326.776 541.825 336.307C544.789 338.595 545.067 342.253 546.398 345.369C546.971 346.7 547.361 348.118 547.823 349.497C548.158 350.621 548.524 351.736 548.11 352.924C548.922 356.882 549.738 360.845 550.555 364.814Z" fill="#F2D054"/>
<path d="M504.962 350.086C511.435 350.023 517.911 349.956 524.389 349.887C526.094 349.887 526.914 350.573 527.416 352.278C529.129 358.088 530.961 363.874 532.992 369.596C533.716 371.676 533.159 372.122 531.184 372.114C519.546 372.066 507.901 372.114 496.264 372.059C492.329 372.059 492.64 369.094 492.935 366.368C492.807 360.359 494.711 354.956 497.841 349.911L503.417 349.983C504.054 352.238 502.62 354.023 502.039 356C501.011 359.594 499.522 363.045 499.179 366.026C500.589 361.116 501.593 355.155 504.962 350.086Z" fill="#F2D054"/>
<path d="M529.941 425.351C525.058 425.351 520.168 425.351 515.285 425.462C512.147 425.55 510.506 424.251 509.638 421.183C508.244 416.114 506.643 411.085 504.859 406.128C503.752 403.004 505.169 402.343 507.806 402.359L535.541 402.478C537.803 407.555 537.134 412.998 537.349 418.298C537.452 420.418 535.357 421.486 533.804 422.713C532.578 423.677 531.176 424.395 529.941 425.351Z" fill="#A2D559"/>
<path d="M525.751 376.107L533.103 376.171C534.21 377.318 534.059 378.856 534.306 380.251C535.102 384.778 535.158 389.392 535.66 393.951C535.827 395.489 535.819 397.139 534.529 398.382C525.831 398.382 517.117 398.063 508.435 398.501C503.775 398.74 501.187 397.322 500.311 392.803C508.287 386.505 516.8 380.919 525.751 376.107Z" fill="#A2D559"/>
<path d="M554.514 467.645L552.124 466.848C542.685 464.737 533.191 463.143 523.449 463.732C520.606 456.679 520.749 456.44 528.053 456.456C535.357 456.472 542.59 456.504 549.854 456.528C552.459 457.253 555.183 457.181 557.819 457.731C559.237 458.034 560.583 458.369 561.563 459.533C562.805 463.294 564.836 466.833 564.749 470.969L554.514 467.645Z" fill="#A2D559"/>
<path d="M494.6 345.121C492.115 346.516 489.422 345.671 486.818 345.839C485.655 345.91 485.304 345.042 485.002 344.109C483.066 338.228 481.067 332.362 479.171 326.457C478.375 323.946 480.342 324.321 481.696 324.313C488.18 324.313 494.671 324.313 501.155 324.313C501.396 324.627 501.554 324.997 501.617 325.387C501.679 325.778 501.644 326.178 501.514 326.552C500.041 332.26 498.246 337.88 496.137 343.384C496.017 343.765 495.818 344.117 495.554 344.417C495.289 344.716 494.964 344.956 494.6 345.121Z" fill="#F2D054"/>
<path d="M525.751 376.107C524.795 378.267 522.565 378.761 520.813 379.86C514.723 383.525 508.849 387.535 503.218 391.871C502.824 392.219 502.362 392.481 501.862 392.642C501.361 392.802 500.833 392.857 500.31 392.803C498.948 388.308 497.722 383.758 496.16 379.335C495.252 376.76 495.898 376.067 498.486 376.091C507.574 376.171 516.663 376.115 525.751 376.107Z" fill="#F1D054"/>
<path d="M511.35 324.249C516.448 323.07 518.232 324.074 519.674 328.688C521.163 333.47 522.653 338.252 524.381 342.914C525.289 345.392 524.461 345.934 522.175 345.902C517.037 345.815 511.9 345.855 506.754 345.839C505.862 343.623 507.344 341.806 507.79 339.822C508.913 334.889 511.939 330.473 511.772 325.19C511.58 324.902 511.438 324.584 511.35 324.249Z" fill="#F2D054"/>
<path d="M506.046 325.102C507.639 323.866 509.566 324.44 511.35 324.249L511.462 324.376C511.534 324.48 511.685 324.6 511.677 324.695C510.466 332.155 508.563 339.367 504.397 345.799H499.45C499.191 345.418 499.031 344.979 498.986 344.52C498.942 344.062 499.014 343.6 499.196 343.177C500.789 337.917 502.246 332.617 504.166 327.461C504.292 326.956 504.524 326.483 504.849 326.076C505.173 325.669 505.581 325.337 506.046 325.102Z" fill="#F1D055"/>
<path d="M506.045 325.102L499.45 345.823C497.857 345.711 496.025 346.692 494.607 345.114L501.155 324.337C502.859 323.962 504.731 322.783 506.045 325.102Z" fill="#283316"/>
<path d="M546.556 411.795C547.592 415.174 548.58 418.561 549.679 421.924C550.428 424.235 549.265 425.367 547.289 425.359C542.693 425.359 538.026 426.156 533.525 424.514C534.139 421.374 537.237 420.601 539.141 418.697C541.268 416.561 544.199 415.262 545.768 412.512C545.967 412.211 546.238 411.964 546.556 411.795Z" fill="#A2D559"/>
<path d="M536.791 402.423C543.251 402.255 544.007 402.845 545.648 409.229C545.871 410.105 546.254 410.942 546.556 411.795L546.493 411.882C545.116 413.668 543.41 415.172 541.467 416.313C539.372 417.716 537.795 417.214 537.603 414.632C537.301 410.575 536.13 406.591 536.791 402.423Z" fill="#A2D559"/>
<path d="M536.791 402.422C538.535 406.893 537.755 411.755 538.918 416.489C541.992 415.763 543.442 412.456 546.492 411.882C547.066 413.835 545.696 414.68 544.429 415.668C540.765 418.593 537.133 421.565 533.493 424.514L529.925 425.311C530.02 424.936 530.004 424.331 530.22 424.227C538.36 420.521 536.416 413.628 535.644 407.124C535.344 405.579 535.314 403.994 535.556 402.438L536.791 402.422Z" fill="#F9FCF5"/>
<path d="M497.801 349.935L492.895 366.392C490.306 364.432 490.609 361.371 489.972 358.67C489.846 357.353 490.004 356.024 490.437 354.774C490.87 353.524 491.567 352.382 492.481 351.425C493.779 349.21 495.969 350.23 497.801 349.935Z" fill="#2A3517"/>
<path d="M510.347 319.555C510.753 316.909 511.741 313.976 507.065 314.51C505.998 314.638 505.886 313.363 505.807 312.446C506.141 312.056 506.603 311.275 506.81 311.33C510.729 312.271 511.135 309.123 512.235 306.78C513.915 309.171 514.146 312.159 515.325 314.749C514.752 316.431 515.126 318.543 513.135 319.531L510.347 319.555Z" fill="#F2D054"/>
<path d="M504.396 345.799C506.744 338.658 509.099 331.518 511.462 324.377C513.851 323.787 513.851 324.887 513.19 326.696C510.992 333.072 508.889 339.447 506.754 345.823L504.396 345.799Z" fill="#FEFCF7"/>
<path d="M534.529 398.382C534.051 390.981 533.576 383.577 533.104 376.171C535.692 375.852 535.19 377.9 535.493 379.359C536.059 380.642 535.27 382.108 536.067 383.343C537.429 388.308 539.181 393.25 536.863 398.422C536.098 398.685 535.318 399.745 534.529 398.382Z" fill="#F5FAED"/>
<path d="M536.879 398.366L536.082 383.288C540.065 386.818 539.929 392.102 541.236 396.621C541.889 399.043 538.511 398.047 536.879 398.366Z" fill="#A2D559"/>
<path d="M518.352 448.518C521.315 447.339 523.927 449.22 526.707 449.57C530.437 450.087 534.076 451.128 537.516 452.663H529.75C527.679 452.2 525.441 452.75 523.473 451.65C522.143 451.268 520.606 452.041 519.411 450.917C518.399 450.423 518.829 449.268 518.352 448.518Z" fill="#F8FBF3"/>
<path d="M514.808 436.078C514.457 435.369 514.067 434.683 513.764 433.958C512.275 430.404 512.856 429.495 516.616 429.423L523.29 429.296L523.402 429.4C522.654 431.151 521.473 432.684 519.969 433.852C518.466 435.021 516.689 435.787 514.808 436.078Z" fill="#A2D559"/>
<path d="M567.958 461.27C570.874 461.27 573.63 462.019 576.975 463.222L569.655 468.641C569.233 466.155 567.664 463.923 567.958 461.27Z" fill="#A2D559"/>
<path d="M504.962 350.087C503.119 355.931 501.282 361.749 499.45 367.54C498.359 361.069 501.043 355.586 503.385 350.007L504.962 350.087Z" fill="#FDFCF6"/>
<path d="M492.505 351.425C492.007 353.945 491.163 356.383 489.996 358.67C488.602 357.171 488.403 355.147 487.885 353.338C487.583 352.35 486.021 350.684 487.885 350.094C489.319 349.656 491.597 348.859 492.505 351.425Z" fill="#EACE53"/>
<path d="M514.808 436.078C517.67 433.847 520.535 431.62 523.402 429.4C524.294 429.344 525.218 429.033 526.588 429.934C522.351 432.412 519.65 436.628 514.816 437.903L514.808 436.078Z" fill="#F7FBF2"/>
<path d="M561.547 459.556C557.612 458.672 553.534 458.377 549.846 456.552C552.721 456.552 555.605 456.552 558.48 456.496C560.583 456.464 561.698 457.365 561.547 459.556Z" fill="#EAF4DB"/>
<path d="M512.171 446.303C510.689 445.984 509.064 446.136 507.806 444.948C508.602 443.458 510.116 442.828 511.318 441.856C511.494 443.354 512.513 444.701 512.171 446.303Z" fill="#A2D559"/>
<path d="M513.135 319.579C513.931 317.985 513.852 316.033 515.325 314.797C515.532 316.79 518.44 320.049 513.135 319.579Z" fill="#FAF7E7"/>
<path d="M519.411 450.917C520.829 450.822 522.247 450.702 523.473 451.651C521.92 452.527 520.431 453.021 519.411 450.917Z" fill="#A2D559"/>
<path d="M536.074 383.32C535.182 382.084 535.437 380.69 535.501 379.335C536.568 380.522 536.01 381.965 536.074 383.32Z" fill="#A2D559"/>
<path d="M667.157 299.799C675.712 299.575 683.82 296.077 690.487 289.733C705.908 275.069 711.34 256.851 709.022 235.939C706.171 210.157 694.263 189.468 673.888 173.776C622.154 133.865 544.669 163.208 532.108 227.371C522.342 277.109 553.725 323.898 603.507 333.741C607.797 334.601 612.163 335.026 616.539 335.008C617.602 334.969 618.667 335.006 619.725 335.12C623.882 335.661 626.264 338.18 626.097 341.814C625.929 345.448 623.508 347.64 619.103 347.68C599.031 347.839 580.488 342.348 564.024 331.087C530.57 308.222 515.094 276.097 518.025 235.803C521.331 190.377 557.851 151.621 603.061 144.464C655.273 136.208 703.988 167.002 718.405 217.784C725.622 243.231 723.678 267.657 707.628 289.725C692.001 311.243 665.962 318.583 641.215 308.796C628.2 303.648 616.977 295.79 607.02 286.083C595.072 274.424 583.348 262.501 572.571 249.71C564.996 240.72 560.44 230.583 560.623 218.533C560.862 201 570.508 189.651 587.705 186.862C595.471 185.611 596.602 186.153 600.672 193.07C603.922 198.649 606.247 204.507 606.877 210.938C607.363 216.19 606.271 217.417 601.166 218.597C597.94 219.338 594.682 219.991 591.536 220.988C587.657 222.207 586.757 224.614 588.445 228.383C589.624 230.966 591.631 232.974 593.559 234.934C605.995 247.441 618.458 259.927 630.948 272.391L631.234 272.67C639.518 280.528 642.927 279.604 645.572 268.757C645.954 267.219 646.304 265.673 646.639 264.119C647.722 259.146 648.957 257.911 653.927 258.445C662.286 259.256 670.211 262.557 676.676 267.92C678.786 269.674 679.416 271.594 678.842 274.535C677.52 281.293 677.042 288.219 672.016 293.662C670.192 295.599 668.631 297.886 667.157 299.799Z" fill="#4DAE74"/>
<path d="M688.17 246.402C684.434 247.51 683.51 245.486 683.39 241.398C682.443 215.361 660.825 190.895 634.604 185.914C631.338 185.294 628.041 184.855 624.727 184.599C622.767 184.447 621.939 183.905 621.979 181.801C622.146 172.238 620.975 173.832 629.586 174.629C663.629 177.816 691.627 206.555 693.801 240.585V240.983C694.255 246.402 694.255 246.402 688.17 246.402Z" fill="#4DAE74"/>
<path d="M613.886 360.861C617.12 373.166 618.108 385.033 616.547 397.115C616.308 398.924 615.559 399.306 613.95 399.004C601.206 396.613 588.517 394.278 574.785 391.727L613.886 360.861Z" fill="#A2D559"/>
<path d="M670.216 246.402C666.791 247.454 665.946 245.51 665.389 241.756C661.996 219.051 647.634 205.479 624.448 202.705C622.552 202.482 622.058 201.861 622.002 200.067C621.556 191.604 621.501 191.604 629.904 192.895C654.922 196.672 673.712 216.62 676.102 241.955C676.5 246.402 676.5 246.402 670.216 246.402Z" fill="#4DAE74"/>
<path d="M724.124 463.637C722.27 461.743 720.117 460.168 717.752 458.974C717.106 458.965 716.487 458.722 716.007 458.289C714.709 456.026 714.056 453.659 714.821 451.061C715.243 450.491 715.786 450.023 716.412 449.689C717.037 449.355 717.729 449.165 718.437 449.132C720.197 450.726 722.419 451.14 724.681 451.523C727.445 452.049 727.35 450.391 727.119 448.479C726.458 442.9 725.454 437.321 726.864 431.663C727.209 429.725 728.03 427.904 729.253 426.363C731.747 423.542 733.308 423.343 736.685 425.447C741.918 430.794 740.668 437.552 740.58 443.992C740.417 446.563 740.393 449.141 740.508 451.714C738.119 453.667 738.915 456.623 738.485 459.054C737.02 467.135 734.638 468.562 727.406 464.976C726.33 464.45 725.207 464.075 724.124 463.637Z" fill="#E6B38E"/>
<path d="M713.57 426.307L708.512 429.495C708.09 419.932 707.453 410.831 707.381 401.721C707.341 396.828 711.125 393.385 716.238 392.524C720.683 391.775 723.566 393.497 725.908 398.247C728.178 402.861 728.776 407.81 729.285 412.863C729.469 414.64 728.194 415.78 727.621 417.23C727.087 419.621 726.585 422.012 723.574 422.538C720.659 418.266 720.723 413.293 720.667 408.487C720.667 405.531 720.149 403.849 716.852 404.112C716.042 404.124 715.236 404.008 714.462 403.769C709.962 402.725 709.452 403.204 710.711 407.818C711.714 411.484 712.383 415.238 717.656 415.644C720.317 415.851 720.165 418.936 719.99 421.223C719.909 421.604 719.775 421.971 719.592 422.315C717.839 424.012 716.199 425.925 713.57 426.307Z" fill="#232323"/>
<path d="M715.274 450.909C715.291 453.372 715.786 455.808 716.732 458.082C717.815 459.819 716.676 461.835 717.433 463.605C717.433 463.892 717.433 464.178 717.433 464.457C715.466 465.812 713.196 464.912 711.101 465.334C709.672 465.211 708.236 465.211 706.808 465.334C702.825 465.972 701.304 464.154 701.582 460.377C700.786 458.249 701.582 456.392 702.379 454.424C703.685 451.1 702.825 449.267 699.535 447.61C698.898 442.876 698.898 442.876 705.613 442.764C706.123 442.613 706.6 442.358 707.11 442.23C709.611 441.585 712.375 441.13 714.215 443.179C715.156 444.207 715.761 445.498 715.95 446.879C716.139 448.26 715.904 449.665 715.274 450.909Z" fill="#A4D659"/>
<path d="M547.242 349.871L541.817 336.323C551.854 338.076 562.089 338.371 572.404 340.539C571.161 342.3 569.425 342.778 567.784 343.392C564.239 343.463 561.555 345.854 558.353 346.851C554.681 347.95 551.447 350.509 547.242 349.871Z" fill="#E6E6E6"/>
<path d="M715.275 450.909C713.825 443.266 713.825 443.266 705.581 442.74C708.329 437.305 712.089 432.38 713.546 426.307C715.188 424.664 717.067 423.277 719.122 422.195C721.129 424.434 720.444 427.192 720.388 429.734C720.277 435.114 719.417 440.453 719.592 445.856C719.592 447.14 719.464 448.518 718.15 449.323C717.933 449.883 717.526 450.349 717 450.639C716.475 450.929 715.864 451.025 715.275 450.909Z" fill="#EECF59"/>
<path d="M723.917 422.466L727.621 417.238C730.951 419.629 734.622 421.629 736.654 425.438C732.09 424.267 728.911 426.475 727.892 431.017C726.586 436.923 727.35 442.756 728.155 448.55C728.872 453.762 728.951 453.834 723.917 452.431C723.194 451.635 722.793 450.598 722.794 449.522C722.794 440.923 722.308 432.316 723.049 423.725C723.222 423.236 723.522 422.802 723.917 422.466Z" fill="#F8DA40"/>
<path d="M514.663 216.054L494.75 215.998C494.607 214.269 495.491 213.608 497.14 213.759C503.257 214.253 508.976 212.604 514.624 210.571C514.624 212.38 514.639 214.213 514.663 216.054Z" fill="#BDE385"/>
<path d="M699.504 447.586C700.436 446.303 701.376 445.713 702.387 447.506C703.781 449.961 704.872 452.423 703.096 455.189C702.065 456.711 701.528 458.514 701.559 460.353C699.05 456.384 698.986 452.017 699.504 447.586Z" fill="#E5B690"/>
<path d="M547.241 349.871L565.004 343.392C565.92 343.057 566.844 342.085 567.783 343.392L548.109 352.956C547.474 352.058 547.168 350.969 547.241 349.871Z" fill="#ACABAB"/>
<path d="M239.212 263.935C237.8 264.563 236.334 265.059 234.831 265.418C229.757 266.159 228.961 267.585 231.103 272.455C231.35 272.997 231.016 273.435 230.458 273.65C226.651 273.323 225.488 269.665 223.234 267.53C221.641 266.023 224.301 264.342 224.771 262.644C225.822 258.875 232.521 256.46 235.843 258.66C237.292 259.624 238.678 258.484 239.984 259.138C242.239 261.162 240.63 262.533 239.212 263.935Z" fill="#252424"/>
<path d="M717.433 463.621C716.263 461.899 717.043 459.931 716.732 458.098L717.712 458.974C717.617 460.52 717.529 462.075 717.433 463.621Z" fill="#EED058"/>
<path d="M723.71 423.326C723.785 433.033 723.862 442.743 723.941 452.455C721.998 451.419 718.684 452.933 718.135 449.323L719.138 422.227C720.986 421.27 722.46 421.844 723.71 423.326Z" fill="#FEFDFB"/>
<path d="M723.711 423.327L719.139 422.219C719.373 420.777 719.278 419.3 718.86 417.899C718.469 416.529 718.167 415.293 716.263 416.306C715.124 416.935 714.057 416.68 713.077 415.676C710.289 412.879 708.569 404.941 710.066 401.395C712.045 402.081 714.064 402.645 716.112 403.084C721.91 404.001 721.99 403.881 721.823 409.683C721.814 414.022 722.53 418.332 723.942 422.434C723.846 422.753 723.774 423.04 723.711 423.327Z" fill="#E4B18D"/>
<path d="M59.0915 155.32C61.7577 153.292 64.9511 153.693 67.895 152.957C70.5031 152.314 71.9364 151.325 69.6509 148.599C67.5453 146.081 66.8631 141.67 62.2578 142.553C61.7261 138.373 57.921 138.752 55.4555 137.278C50.0159 134.016 43.9258 135.546 38.095 135.05C32.4423 134.558 27.3485 137.507 21.9946 138.792C15.7242 140.302 9.54308 142.515 3.32691 144.451C2.71758 144.731 2.13331 145.072 1.58209 145.468C3.40997 147.137 5.52137 147.287 7.39132 147.889C14.3342 148.109 20.6491 151.204 27.4069 152.319C35.102 153.563 42.6599 155.633 50.3536 156.929C53.379 157.47 56.433 157.664 59.0915 155.32Z" fill="#E7E7E7"/>
<path d="M59.1736 155.029C54.2392 156.576 49.4632 155.689 44.6751 154.771C33.5809 152.668 22.4866 150.564 11.3663 148.574C10.1389 148.361 8.70588 147.175 7.41536 148.81C21.4658 152.975 35.4967 157.177 49.5577 161.298C55.5307 163.046 54.4015 164.359 58.0892 157.26C58.4749 156.537 58.8147 155.772 59.1736 155.029Z" fill="#A5A5A5"/>
<path d="M151.659 213.152C152.463 214.504 151.186 218.139 153.546 217.637C155.548 217.249 153.864 214.135 153.963 212.263C153.967 211.827 153.913 211.395 153.804 210.98C153.502 209.68 153.724 207.467 151.978 207.859C150.364 208.172 151.498 210.051 151.454 211.233C151.478 211.879 151.546 212.521 151.659 213.152Z" fill="#C8C8C8"/>
<path d="M153.291 233.156C154.756 229.622 155.588 226.078 153.759 221.43C152.638 225.276 152.476 229.322 153.291 233.156Z" fill="#C1C1C1"/>
<path d="M151.852 247.83C153.594 246.295 153.232 244.445 153.325 242.831C153.423 241.057 155.19 238.079 152.988 237.844C151.326 237.661 151.706 241.157 151.491 243.041C151.319 244.557 150.46 246.208 151.852 247.83Z" fill="#C1C1C1"/>
<path d="M106.476 155.396C109.973 157.923 113.04 158.482 116.606 159.827C114.194 156.263 111.861 155.225 106.476 155.396Z" fill="#C0C0C0"/>
<path d="M155.51 291.851C155.569 288.688 153.623 286.146 153.22 283.109C153.207 282.927 153.152 282.754 153.059 282.606C152.966 282.457 152.838 282.338 152.688 282.26C152.538 282.181 152.37 282.145 152.2 282.156C152.03 282.167 151.863 282.223 151.715 282.321C151.531 282.515 151.394 282.754 151.318 283.015C151.241 283.277 151.226 283.552 151.275 283.815C152.243 286.697 153.325 289.575 154.365 292.374L155.51 291.851Z" fill="#C3C3C3"/>
<path d="M90.3434 151.257C87.4122 148.91 84.0549 149.743 80.6935 150.544C83.7444 151.93 87.06 151.53 90.3434 151.257Z" fill="#C3C3C3"/>
<path d="M151.554 277.579C151.544 274.614 151.55 271.645 151.498 268.679C151.489 268.001 151.38 267.122 150.444 267.267C150.278 267.3 150.118 267.368 149.974 267.468C149.83 267.567 149.705 267.696 149.606 267.846C149.507 267.996 149.436 268.165 149.398 268.342C149.36 268.519 149.354 268.7 149.383 268.876C149.55 271.899 149.437 275.012 151.554 277.579Z" fill="#C1C1C1"/>
<path d="M130.891 170.209C132.506 173.507 135.023 176.167 138.123 177.851C137.475 176.1 136.502 174.522 135.26 173.21C134.018 171.898 132.533 170.878 130.891 170.209Z" fill="#C1C1C1"/>
<path d="M139.637 181.656L144.775 190.051L145.976 189.213C144.447 186.269 143.286 183.077 140.583 180.938L139.637 181.656Z" fill="#C1C1C1"/>
<path d="M150.607 263.124C151.906 259.35 151.607 255.888 152.237 251.761C149.38 255.25 148.988 258.512 150.607 263.124Z" fill="#C2C2C2"/>
<path d="M177.054 316.391C179.546 318.306 182.539 319.408 185.684 319.567L186.103 318.394L177.499 315.238L177.054 316.391Z" fill="#BEBEBE"/>
<path d="M162.703 304.323C161.894 300.68 159.46 298.352 157.049 296.011C157.922 299.467 159.927 302.414 162.703 304.323Z" fill="#C0C0C0"/>
<path d="M103.479 153.666C100.731 151.821 97.6493 151.611 94.4286 152.022C97.1436 153.923 100.25 154.07 103.479 153.666Z" fill="#BEBEBE"/>
<path d="M120.408 161.512C122.15 164.151 124.702 166.048 127.657 166.897C126.863 165.518 125.815 164.333 124.571 163.409C123.327 162.485 121.913 161.84 120.408 161.512Z" fill="#BEBEBE"/>
<path d="M165.855 307.683C167.403 310.712 170.004 312.238 173.011 313.176C171.317 310.504 168.794 308.568 165.855 307.683Z" fill="#BDBDBD"/>
<path d="M150.664 203.113C150.704 199.435 149.599 196.261 146.692 192.625C147.255 196.435 148.612 200.019 150.664 203.113Z" fill="#C1C1C1"/>
</svg>
