<svg width="109" height="138" viewBox="0 0 109 138" fill="none" xmlns="http://www.w3.org/2000/svg">
<path d="M34.06 24.2849C35.6178 23.0954 37.4849 23.3259 39.2055 22.8925C40.73 22.5131 41.5675 21.9331 40.2301 20.3417C38.9981 18.8719 38.5973 16.2936 35.9054 16.8157C35.5927 14.372 33.3683 14.5981 31.9263 13.7392C28.7449 11.8383 25.1853 12.7407 21.7763 12.458C18.4715 12.1771 15.4949 13.9076 12.3655 14.6654C8.70047 15.5562 5.08795 16.8574 1.45479 17.9974C1.0987 18.1618 0.75728 18.3616 0.435212 18.594C1.50454 19.5675 2.73896 19.6531 3.8324 20.0029C7.89133 20.1229 11.5845 21.925 15.5356 22.5683C20.0348 23.2864 24.4541 24.4879 28.9525 25.2361C30.7214 25.5487 32.5069 25.6585 34.06 24.2849Z" fill="#E7E7E7"/>
<path d="M34.0995 24.0899C31.2174 25.0048 28.4253 24.5006 25.626 23.9782C19.1401 22.7815 12.6541 21.5847 6.15304 20.4542C5.4355 20.333 4.59674 19.6459 3.8443 20.6024C12.0601 22.9929 20.2646 25.405 28.4866 27.77C31.9791 28.7735 31.3207 29.5417 33.4681 25.3933C33.6928 24.9708 33.8905 24.5241 34.0995 24.0899Z" fill="#A5A5A5"/>
<path d="M88.1853 58.2715C88.6549 59.0627 87.9148 61.1983 89.2885 60.8977C90.4539 60.6647 89.4704 58.8427 89.526 57.7447C89.5277 57.4885 89.4961 57.2352 89.4321 56.9922C89.2552 56.2305 89.3822 54.9318 88.3662 55.166C87.4264 55.354 88.0885 56.4534 88.0643 57.1467C88.0787 57.5258 88.1192 57.9017 88.1853 58.2715Z" fill="#C8C8C8"/>
<path d="M89.1421 70.0084C89.992 67.9319 90.4736 65.8507 89.4048 63.1283C88.7553 65.3869 88.6646 67.7612 89.1421 70.0084Z" fill="#C1C1C1"/>
<path d="M88.3021 78.6188C89.3154 77.7142 89.1021 76.6309 89.1545 75.6841C89.2094 74.6442 90.2353 72.8934 88.9525 72.762C87.984 72.6596 88.2093 74.7076 88.0861 75.8127C87.9882 76.7018 87.4897 77.672 88.3021 78.6188Z" fill="#C1C1C1"/>
<path d="M61.7636 24.3945C63.8097 25.8598 65.6022 26.1774 67.6867 26.9524C66.2732 24.8786 64.9092 24.2794 61.7636 24.3945Z" fill="#C0C0C0"/>
<path d="M90.4335 104.447C90.4645 102.592 89.3286 101.107 89.0908 99.3269C89.083 99.2203 89.0504 99.1189 88.9961 99.0321C88.9417 98.9453 88.8674 98.8759 88.78 98.8302C88.6926 98.7845 88.5948 98.7641 88.4958 98.7708C88.3967 98.7775 88.2996 98.8111 88.2133 98.8686C88.1065 98.9829 88.0271 99.1236 87.9826 99.2771C87.9381 99.4306 87.9299 99.592 87.9589 99.7459C88.5255 101.434 89.159 103.118 89.7674 104.757L90.4335 104.447Z" fill="#C3C3C3"/>
<path d="M52.3311 21.9319C50.6156 20.5725 48.6535 21.0649 46.6889 21.5387C48.4737 22.3387 50.4117 22.098 52.3311 21.9319Z" fill="#C3C3C3"/>
<path d="M88.1236 96.0761C88.1149 94.3367 88.1157 92.5954 88.0827 90.8557C88.0767 90.4579 88.0126 89.9421 87.4679 90.0297C87.3713 90.0495 87.2783 90.09 87.1946 90.1487C87.1108 90.2075 87.038 90.2833 86.9805 90.3716C86.923 90.4599 86.8819 90.5589 86.8598 90.6628C86.8376 90.7667 86.8348 90.8733 86.8515 90.9762C86.9513 92.7493 86.8887 94.5755 88.1236 96.0761Z" fill="#C1C1C1"/>
<path d="M76.0388 33.0833C76.9853 35.0092 78.4573 36.559 80.2676 37.5352C79.8875 36.5122 79.3177 35.5915 78.5916 34.8271C77.8655 34.0627 76.9976 33.4699 76.0388 33.0833Z" fill="#C1C1C1"/>
<path d="M81.1532 39.7984L84.1598 44.7005L84.8589 44.2063C83.9632 42.4859 83.2823 40.6198 81.7042 39.3749L81.1532 39.7984Z" fill="#C1C1C1"/>
<path d="M87.5742 87.5947C88.3269 85.3781 88.149 83.3489 88.5115 80.927C86.8512 82.9805 86.6264 84.8946 87.5742 87.5947Z" fill="#C2C2C2"/>
<path d="M103.032 118.873C104.489 119.984 106.24 120.618 108.077 120.702L108.32 120.016L103.29 118.198L103.032 118.873Z" fill="#BEBEBE"/>
<path d="M94.6393 111.762C94.1632 109.63 92.7417 108.273 91.3335 106.909C91.847 108.931 93.0191 110.652 94.6393 111.762Z" fill="#C0C0C0"/>
<path d="M60.0115 23.3433C58.4033 22.2756 56.6018 22.1608 54.7197 22.4086C56.3085 23.509 58.1242 23.5873 60.0115 23.3433Z" fill="#BEBEBE"/>
<path d="M69.9104 27.9789C70.9304 29.5172 72.4228 30.6186 74.1482 31.1063C73.6834 30.3025 73.0699 29.6126 72.3427 29.0759C71.6155 28.5393 70.789 28.1665 69.9104 27.9789Z" fill="#BEBEBE"/>
<path d="M96.4821 113.763C97.3896 115.53 98.9101 116.414 100.666 116.954C99.6739 115.396 98.1988 114.271 96.4821 113.763Z" fill="#BDBDBD"/>
<path d="M87.6003 52.3711C87.6203 50.2135 86.9741 48.3547 85.278 46.2295C85.6092 48.4625 86.4028 50.5611 87.6003 52.3711Z" fill="#C1C1C1"/>
</svg>
