<svg width="511" height="409" viewBox="0 0 511 409" fill="none" xmlns="http://www.w3.org/2000/svg">
<path fill-rule="evenodd" clip-rule="evenodd" d="M492.767 0H186.084C172.545 14.0931 169.853 29.4745 169.853 29.4745C164.688 59.0319 174.258 74.5459 178.062 101.731C183.326 139.322 46.3529 153.841 18.3064 212.033C-0.638924 251.293 -11.0173 304.708 18.3009 356.502C44.2497 402.403 87.2498 408.468 106.08 406.859C174.77 400.949 189.938 366.371 247.908 368.71C301.424 370.866 302.845 405.134 364.763 408.8C372.097 409.237 450.691 412.742 489.766 358.979C515.516 323.545 511.635 280.386 509.311 254.561C502.649 180.446 463.024 168.985 474.052 119.706C480.109 92.6475 496.351 76.8846 496.797 36.6952C496.968 21.2862 494.749 8.55318 492.767 0Z" fill="#1C3F77"/>
<rect x="162" y="50" width="335" height="2" fill="white"/>
</svg>
