<svg width="734" height="580" viewBox="0 0 734 580" fill="none" xmlns="http://www.w3.org/2000/svg">
<path d="M200.571 417.533C204.219 417.86 209.094 415.867 211.173 418.394C212.933 420.53 211.715 425.224 211.627 428.754C210.793 463.039 209.928 497.308 209.03 531.561C208.72 543.468 208.178 555.374 207.987 567.289C207.931 570.317 206.951 570.995 204.068 570.987C179.562 570.875 155.056 570.875 130.549 570.987C127.3 570.987 126.399 569.998 126.646 566.946C126.854 564.324 126.599 561.662 126.543 558.977C125.237 557.598 125.26 555.852 125.268 554.147C125.268 544.584 125.109 534.932 125.356 525.329C125.237 524.325 125.404 523.321 125.356 522.325C125.253 517.646 125.237 512.968 125.356 508.29C125.396 507.286 125.245 506.282 125.356 505.278C125.125 490.343 125.221 475.416 125.292 460.481C125.292 456.99 125.189 453.507 125.292 450.017C125.332 448.582 125.444 447.172 126.423 446.032C126.423 445.235 126.384 444.502 126.36 443.737C124.687 440.366 125.316 436.748 125.253 433.209C125.189 429.224 125.117 425.239 125.3 421.326C125.483 417.413 126.407 416.29 130.294 416.218C137.415 416.082 144.552 415.843 151.665 416.369C155.823 417.82 160.013 416.728 164.194 416.521C165.835 416.433 166.146 414.927 167.11 414.13C173.394 417.318 179.671 417.724 185.939 414.13C186.558 415.031 187.393 415.762 188.367 416.258C189.34 416.753 190.423 416.997 191.515 416.967C194.542 417.023 197.553 417.389 200.571 417.533Z" fill="#548526"/>
<path d="M50.157 449.443C45.3779 449.602 43.4025 445.561 41.0289 442.668C32.039 431.92 25.1611 419.568 20.7574 406.263C19.706 401.362 18.5511 396.477 17.651 391.552C16.8545 386.977 17.2926 386.722 21.8726 386.403C34.1337 385.543 46.3841 384.562 58.624 383.463C60.9179 383.255 62.3198 384.084 63.8093 385.567C74.3233 396.055 85.0445 406.327 95.4072 416.959C103.54 425.303 111.25 434.061 118.737 442.198L50.157 449.443Z" fill="#BDE189"/>
<path d="M86.6929 355.378C91.9579 337.622 101.333 322.177 113.536 308.43C116.228 305.385 118.036 301.257 122.393 299.878C123.874 300.899 123.986 302.572 124.313 304.086C131.067 334.727 137.877 365.356 144.743 395.975C145.203 397.769 145.493 399.602 145.611 401.45C144.488 404.957 142.712 402.789 141.693 401.626C138.506 397.96 134.866 394.708 131.378 391.313C123.412 383.567 114.699 376.785 105.73 370.281C104.885 369.66 103.93 369.158 103.468 368.138L101.875 366.424C96.3627 365.197 92.1889 361.387 87.354 358.845C86.0318 358.16 85.9681 356.717 86.6929 355.378Z" fill="#A2D559"/>
<path d="M86.6931 355.378C86.4542 357.466 87.8003 358.287 89.3933 359.172C93.5989 361.507 97.709 364.001 101.851 366.424C99.1825 370.018 99.6366 374.449 98.7445 378.49C96.5939 388.277 94.8256 398.151 92.882 407.977C92.643 408.746 92.3447 409.495 91.9899 410.217L26.1338 345.663C34.1946 343.328 41.7695 344.866 49.3125 345.106C55.1749 346.548 61.1487 347.496 66.8916 349.433C72.4115 351.298 77.9235 353.195 83.061 355.976C84.5505 356.773 85.7134 357.004 86.6931 355.378Z" fill="#BDE189"/>
<path d="M103.468 368.138C110.533 371.326 116.021 376.713 121.859 381.535C128.956 387.376 135.997 393.353 141.916 400.502C142.577 401.299 143.007 403.14 144.839 402.343C146.942 402.303 146.75 405.18 148.678 405.371C150.097 407.703 151.715 409.909 153.513 411.962C154.644 413.221 156.253 414.68 154.803 416.744C154.238 417.249 153.497 417.513 152.74 417.477C145.078 417.477 137.407 417.573 129.745 417.429C127.156 417.382 126.328 418.17 126.368 420.792C126.503 428.451 126.368 436.118 126.368 443.777C116.411 434.091 106.449 424.413 96.4822 414.744C95.1361 413.453 94.3714 412.122 94.7458 410.209C97.5124 396.395 100.263 382.563 102.998 368.711C103.022 368.512 103.3 368.337 103.468 368.138Z" fill="#BDE189"/>
<path d="M59.0621 381.407C45.6009 382.355 33.1991 383.184 20.8292 384.148C18.129 384.355 16.7669 383.487 16.8466 380.721C17.3404 369.986 18.7901 359.411 22.3186 349.202C22.5735 348.469 22.9638 347.783 23.4656 346.715C35.6524 357.793 46.9231 369.452 59.0621 381.407Z" fill="#BDE18A"/>
<path d="M126.455 446.103C126.455 450.885 126.434 455.64 126.391 460.369C124.201 461.341 121.987 460.735 119.788 460.369C104.815 457.997 89.585 457.728 74.538 459.572C73.6485 459.786 72.7426 459.924 71.8298 459.986C69.2252 460.321 66.7162 461.086 64.1514 461.644C62.654 461.971 61.0928 462.576 59.6829 461.325C56.3137 458.09 52.3152 455.547 49.3999 451.833C66.1427 449.995 82.8855 448.157 99.6284 446.319C106.956 445.522 114.3 444.868 121.604 443.928C123.827 443.649 124.432 446.255 126.455 446.103Z" fill="#BDE18A"/>
<path d="M397.144 86.3182C397.144 66.3146 397.088 46.319 397.144 26.3154C397.184 18.569 399.199 11.6594 406.702 7.60292C409.231 6.44903 411.994 5.90318 414.771 6.00901C515.238 6.04088 615.706 6.04088 716.174 6.00901C726.871 6.00901 733.832 12.9505 733.832 23.6137V117.447C733.832 262.785 733.883 408.129 733.984 553.477C733.984 566.061 724.561 573.258 714.397 572.756C704.743 572.277 695.042 572.644 685.356 572.644C684.788 572.359 684.29 571.951 683.898 571.451C683.506 570.951 683.228 570.371 683.086 569.751C682.982 569.077 683.015 568.388 683.182 567.727C685.731 553.748 686.503 539.722 684.544 525.6C684.257 523.544 683.636 521.384 685.5 519.646C687.348 518.65 689.371 518.85 691.346 518.85C700.498 518.85 709.666 518.897 718.794 518.85C723.111 518.85 723.573 518.284 723.725 514.068C723.78 512.745 723.725 511.422 723.725 510.083C723.725 358.279 723.725 206.47 723.725 54.6552C723.725 44.9244 724.139 45.6018 714.588 45.6018H417.869C409.586 45.6018 409.633 45.6017 409.57 53.8263C409.53 59.1261 409.864 64.4338 409.331 69.7176C408.885 72.3874 406.79 73.9096 405.021 75.5912C402.632 77.8306 402.178 80.0382 404.066 82.8514C404.862 84.0708 406.575 85.6089 404.321 87.1789C401.843 87.5853 399.358 88.191 397.144 86.3182Z" fill="#DDDDDD"/>
<path d="M656.635 572.732L496.263 572.668C469.182 572.668 442.119 572.668 415.074 572.668C412.685 572.668 410.295 572.668 408.296 571.074C409.769 569.56 411.705 569.871 413.505 569.855C419.176 569.783 424.848 569.767 430.511 569.855C433.323 569.855 434.995 569.058 435.178 565.958C435.29 564.013 435.72 561.973 437.241 560.531C441.359 558.777 445.828 559.63 450.097 558.833C455.028 557.917 460.054 557.542 464.825 555.861C466.139 555.191 467.684 555.781 469.007 555.111C475.602 553.876 481.361 550.122 487.924 548.784C489.947 548.983 490.313 550.617 490.799 552.131C492.297 556.801 493.898 561.439 495.435 566.101C495.684 566.995 496.006 567.867 496.399 568.707C496.813 569.504 497.195 570.644 498.382 570.054C499.242 569.624 498.804 568.604 498.557 567.895C496.725 562.635 495.371 557.239 493.563 551.955C492.982 550.21 492.225 548.457 492.91 546.544C496.455 542.958 501.051 540.878 505.105 538.009C512.847 536.415 520.661 537.212 528.443 537.515C531.103 537.61 532.019 540.001 532.696 542.201C535.139 550.17 537.712 558.111 540.415 566.022C540.948 567.616 541.211 569.345 542.931 570.293C544.23 568.986 543.226 567.902 542.931 566.89C538.614 553.254 534.17 539.658 529.861 526.007C529.701 525.504 529.526 525.002 529.375 524.492C528.124 520.173 528.801 519.201 533.158 519.017C533.955 519.017 534.751 519.017 535.548 519.017C573.706 519.017 611.87 519.017 650.039 519.017C652.11 519.017 654.317 518.531 656.157 520.053C657.901 523.656 657.28 527.608 657.503 531.346C658.236 543.566 658.854 555.807 659.359 568.07C659.048 570.006 659.279 572.206 656.635 572.732Z" fill="#DDDDDD"/>
<path d="M437.623 561.096C436.309 563.049 436.245 565.336 436.333 567.512C436.444 570.269 435.464 571.114 432.724 571.074C424.584 570.946 416.436 571.074 408.295 571.074L370.166 571.01C368.907 569.464 369.879 567.95 370.341 566.515C379.963 536.614 389.566 506.709 399.151 476.802C409.434 444.749 419.861 412.751 429.953 380.634C430.422 379.127 430.749 377.533 432.223 376.561C432.477 376.478 432.746 376.449 433.013 376.475C433.279 376.502 433.537 376.584 433.77 376.716C434.003 376.848 434.206 377.027 434.366 377.242C434.526 377.457 434.64 377.702 434.7 377.964C437.567 386.427 441.239 394.7 442.036 403.729C440.865 418.975 441.59 434.277 440.682 449.522C440.849 450.973 440.315 452.391 440.538 453.842C440.435 458.727 440.793 463.613 440.307 468.482C439.463 472.953 439.726 477.479 439.797 481.974C439.941 490.597 439.566 499.197 438.889 507.788C438.889 508.768 438.889 509.756 438.889 510.744C439.033 515.901 438.937 521.057 438.953 526.213C438.77 527.441 438.953 528.676 438.889 529.903C437.806 538.67 438.252 547.54 438.189 556.37C438.228 557.964 438.038 559.556 437.623 561.096Z" fill="#F2D054"/>
<path d="M432.39 376.856C411.681 441.202 390.998 505.546 370.341 569.886C370.25 570.269 370.192 570.658 370.166 571.05C368.653 572.556 366.821 571.68 365.116 571.735C363.993 569.767 364.79 567.886 365.411 566.013C367.856 558.625 370.373 551.262 372.58 543.786C373.751 539.801 373.695 539.61 369.394 539.594C362.265 539.594 355.136 539.594 348.015 539.594C346.311 539.594 344.558 539.785 343.045 538.686C335.773 538.255 335.781 538.263 333.614 545.061C331.169 552.728 328.58 560.347 326.334 568.077C325.378 571.369 323.809 572.747 320.153 571.552C324.502 558.004 328.915 544.511 333.2 530.963C336.593 520.292 339.883 509.581 343.22 498.886C344.2 490.51 347.537 482.779 350.094 474.866C361.094 440.82 371.903 406.71 382.974 372.68C390.143 350.628 397.033 328.481 404.321 306.461C405.054 304.245 405.261 301.169 408.957 301.679C411.171 302.97 411.593 304.923 410.988 307.258C410.048 310.143 409.395 313.115 408.367 316.024C407.722 317.905 408.104 318.758 410.215 318.694C411.92 318.646 413.68 318.559 415.209 319.619C417.599 323.261 417.097 324.4 412.979 324.767C410.677 324.966 408.248 324.153 406.097 325.564C402.545 330.68 402.059 336.889 400.083 342.563C399.343 344.667 401.366 344.771 402.808 344.794C408.073 344.882 413.338 344.794 418.603 344.85C420.427 344.85 422.306 344.651 423.947 345.807C426.201 349.791 425.636 350.915 421.167 351.011C414.875 351.13 408.574 351.011 402.274 351.058C400.721 351.058 399.088 350.788 397.71 351.76C394.42 357.012 393.56 363.14 391.569 368.847C390.772 371.046 392.843 371.046 394.277 371.062C400.378 371.126 406.472 371.062 412.597 371.062C416.309 371.062 420.02 370.966 423.748 371.062C426.241 371.15 428.145 370.385 429.499 368.297C433.115 369.014 434.557 373.262 432.39 376.856Z" fill="#263115"/>
<path d="M343.005 538.662C352.786 538.606 362.567 538.662 372.34 538.447C375.112 538.383 375.383 539.188 374.587 541.571C371.863 549.692 369.282 557.861 366.685 566.029C366.088 567.91 365.634 569.831 365.092 571.736C359.628 570.309 354.068 571.377 348.564 571.106C342.989 570.987 342.989 570.986 342.989 565.201C343.005 556.354 343.01 547.508 343.005 538.662Z" fill="#F2D054"/>
<path d="M676.563 572.74L665.411 572.668C664.049 572.222 663.548 571.122 663.261 569.855C663.215 569.205 663.347 568.554 663.643 567.974C667.1 560.395 667.466 552.122 669.115 544.129C669.991 539.873 668.964 535.402 670.796 531.298C673.185 531.386 672.747 533.418 673.01 534.757C675.232 545.914 677.208 557.071 679.382 568.173C679.239 570.165 679.064 572.174 676.563 572.74Z" fill="#DDDDDC"/>
<path d="M683.684 570.221C684.743 570.691 684.982 571.727 685.372 572.66C685.177 573.957 684.911 575.241 684.576 576.509C684.233 577.617 685.269 579.609 683.341 579.697C681.199 579.809 682.903 577.474 681.477 576.326C678.682 580.908 674.022 579.769 669.689 579.801C668.845 579.801 667.626 580.343 667.204 579.378C666.63 578.087 668 577.681 668.797 577.115C669.248 576.851 669.723 576.63 670.215 576.453C676.053 577.266 679.868 573.728 683.684 570.221Z" fill="#060605"/>
<path d="M663.771 570.253L665.364 572.644C665.109 573.943 664.934 575.258 664.568 576.525C664.265 577.649 665.229 579.673 663.229 579.673C661.023 579.673 663.054 577.354 661.581 576.486C659.478 577.282 658.267 580.47 654.898 579.92C652.389 579.482 649.744 579.833 646.933 579.833C647.363 577.506 648.876 577.011 650.318 576.454C655.224 576.78 659.255 575.171 662.154 571.082C662.568 570.556 662.982 570.03 663.771 570.253Z" fill="#060604"/>
<path d="M663.771 570.253C660.585 576.079 655.957 578.222 650.35 576.461C652.588 575.465 655.376 575.377 656.634 572.732C657.988 571.64 658.227 570.054 658.434 568.492C659.209 567.904 660.161 567.601 661.132 567.631C662.103 567.661 663.035 568.024 663.771 568.659V570.253Z" fill="#E2B18D"/>
<path d="M683.684 570.221C680.857 575.951 675.934 578.239 670.255 576.469C672.501 575.465 675.273 575.354 676.563 572.74C677.83 571.664 678.101 570.038 678.857 568.675C679.506 568.051 680.371 567.702 681.271 567.702C682.171 567.702 683.036 568.051 683.684 568.675V570.221Z" fill="#E3B28D"/>
<path d="M310.451 340.292C313.105 340.428 315.763 340.428 318.417 340.292C321.643 339.981 322.399 341.24 322.399 344.325C322.216 362.471 321.603 380.61 321.348 398.749C321.069 416.76 321.276 434.787 320.511 452.774C319.874 467.749 320.639 482.724 319.779 497.659C318.879 513.152 319.739 528.66 318.982 544.121C318.576 552.091 318.464 559.997 318.448 567.934C318.448 570.397 317.588 571.122 315.215 571.122C290.284 571.058 265.36 571.018 240.429 571.122C236.773 571.122 237.188 569.074 237.188 566.803C237.188 509.262 237.355 451.722 236.981 394.19C236.877 377.908 236.742 361.611 236.391 345.329C236.303 341.161 237.681 340.228 241.608 340.268C260.565 340.436 279.523 340.316 298.488 340.268C302.456 339.695 306.486 339.703 310.451 340.292Z" fill="#4DAE74"/>
<path d="M273.015 197.788C272.545 185.037 270.904 172.238 271.525 159.463C272.147 146.847 271.932 134.167 273.525 121.599C273.564 121.289 273.198 120.922 273.015 120.587C271.796 117.176 273.055 113.781 273.174 110.394C273.341 105.262 274.265 100.177 275.046 95.1006C275.221 93.929 275.468 92.7097 276.695 92.104C278.598 91.3071 280.606 91.4505 282.581 91.4505C337.44 91.4505 392.296 91.4505 447.15 91.4505C449.253 91.4505 451.411 91.2193 453.387 92.2474C455.338 94.0087 454.852 96.3837 454.86 98.5673C454.956 113.901 454.78 129.226 455.155 144.56C454.629 151.525 454.995 158.506 454.876 165.488C454.876 167.193 454.988 168.915 454.438 170.572C454.064 171.592 453.323 172.031 452.335 171.56C449.205 170.086 445.804 168.93 444.37 165.304C443.741 162.117 443.016 158.873 445.461 156.02C446.021 154.971 446.456 153.861 446.759 152.712C447.444 149.995 447.078 148.002 443.701 147.66C441.853 147.476 440.204 146.48 438.476 145.827C436.747 145.173 434.867 144.512 433.45 146.432C432.032 148.353 433.386 149.62 434.557 150.927C434.815 151.229 435.028 151.567 435.186 151.931C435.25 152.457 435.361 151.788 435.298 152.306C434.652 157.088 434.605 161.742 439.28 164.874C439.393 166.137 439.023 167.396 438.245 168.397C434.35 171.831 430.614 175.505 425.588 177.354C415.95 181.14 405.914 181.865 395.663 181.69C392.031 181.626 388.383 182.726 385.308 179.912C379.685 172.477 375.144 164.34 370.174 156.482C369.601 155.574 369.314 154.529 370.31 153.621C378.362 152.776 386.439 153.215 394.492 153.35C398.1 153.406 399.972 152.29 401.414 149.03C406.272 138.009 411.641 127.218 416.874 116.355C418.085 113.861 419.2 111.319 421.566 109.573C421.905 109.356 422.197 109.071 422.422 108.737C422.648 108.403 422.803 108.026 422.878 107.63C422.952 107.233 422.945 106.826 422.856 106.432C422.768 106.039 422.599 105.667 422.362 105.341C422.229 105.069 422.041 104.827 421.811 104.63C421.58 104.433 421.311 104.286 421.021 104.198C420.732 104.11 420.426 104.082 420.125 104.117C419.824 104.152 419.534 104.249 419.272 104.401C418.905 104.57 418.576 104.812 418.305 105.112C418.034 105.411 417.826 105.762 417.694 106.144C417.562 106.525 417.508 106.93 417.535 107.333C417.563 107.736 417.671 108.129 417.854 108.489C418.993 111.255 418.133 113.582 416.93 116.052C411.721 126.764 406.432 137.443 401.621 148.345C400.028 151.987 397.821 153.462 393.727 153.31C385.921 153.023 378.1 153.095 370.286 153.31C369.905 153.435 369.517 153.534 369.123 153.605C368.734 153.567 368.371 153.395 368.095 153.119C367.466 151.166 366.192 149.556 365.22 147.971C365.642 149.692 368.239 150.8 367.052 153.262C364.503 157.606 362.727 162.308 360.743 166.898C359.541 169.696 357.733 171.034 354.706 171.034C349.696 171.034 344.678 171.122 339.66 171.034C338.546 170.92 337.425 171.149 336.446 171.69C335.466 172.231 334.675 173.059 334.18 174.063C333.362 175.26 332.618 176.506 331.949 177.793C329.687 183.244 325.577 184.79 320.121 183.499C319.324 183.355 318.528 182.112 317.731 183.602C317.52 183.758 317.275 183.862 317.016 183.905C316.757 183.948 316.492 183.929 316.242 183.849C315.918 183.684 315.672 183.398 315.557 183.053C313.335 179.642 309.185 179.187 307.464 182.184C307.273 185.149 308.563 186.615 311.622 186.328C312.069 186.22 312.533 186.209 312.984 186.297C313.435 186.385 313.862 186.57 314.235 186.838C315.477 189.229 316.807 191.692 314.633 194.306C310.826 194.983 306.978 194.497 303.155 194.616C301.005 194.68 300.041 193.477 299.77 191.516C299.631 190.065 299.591 188.606 299.65 187.149C299.65 162.528 299.65 137.913 299.65 113.303C299.65 138.806 299.65 164.308 299.65 189.811C299.65 194.592 299.65 194.592 304.557 194.592C307.863 194.592 311.176 194.696 314.482 194.513C315.804 194.114 316.457 194.839 316.752 195.979C317.994 200.849 318.703 205.614 313.741 209.057C309.312 212.173 304.804 215.154 299.738 217.194C296.783 216.397 296.297 213.783 295.453 211.464C294.282 208.228 293.35 204.913 290.801 202.355C288.674 200.219 286.229 198.992 283.29 199.964C280.351 200.936 279.411 203.67 278.885 206.507C278.439 208.898 279.682 211.583 277.651 213.679C275.484 213.074 275.803 211.081 275.404 209.535C274.377 205.71 274.465 201.606 273.015 197.788Z" fill="#CFCFCF"/>
<path d="M409.116 302.189C406.448 301.687 406.225 303.68 405.651 305.457C398.583 327.479 391.502 349.489 384.408 371.485C370.894 413.484 357.377 455.47 343.857 497.443C343.667 497.92 343.441 498.38 343.18 498.822C343.124 496.838 343.029 494.837 343.029 492.861C343.029 411.327 343.029 329.772 343.029 248.196C343.029 243.127 343.029 243.119 348.238 243.119H397.965C401.23 240.991 404.855 242.179 408.319 241.963C413.314 242.147 418.371 241.095 423.294 242.76C425.628 246.291 424.64 250.212 424.337 253.918C423.605 262.893 423.605 271.912 424.337 280.887C424.967 288.538 424.282 296.26 425.373 303.895C425.461 304.548 425.373 305.226 425.476 305.879C425.699 307.154 425.62 308.852 427.38 308.884C429.14 308.916 429.22 307.194 429.419 305.951C431.363 293.781 433.123 281.588 434.891 269.395C436.07 261.266 437.4 253.153 438.579 245.024C438.642 244.484 438.751 243.951 438.906 243.43C439.232 242.474 439.208 241.039 440.443 240.943C441.813 240.848 441.773 242.338 442.036 243.278C442.39 244.558 442.622 245.868 442.729 247.191C443.613 256.149 444.322 265.123 445.174 274.089C445.346 275.803 445.282 277.532 444.983 279.229C443.685 284.577 444.625 290.004 444.426 295.391C444.29 298.946 444.633 302.564 444.322 306.07C444.067 308.979 445.493 309.035 447.556 308.669C449.523 309.394 449.221 310.98 449.029 312.526C448.575 315.116 446.919 316.59 444.513 317.379C442.274 318.015 440.13 318.951 438.141 320.161C435.632 320.823 432.998 320.845 430.479 320.224L430.136 320.049C428.216 319.133 429.65 315.626 426.576 315.538C424.513 315.475 422.872 316.742 420.944 317.037C420.556 317.092 420.162 317.092 419.773 317.037C418.061 316.678 417.631 315.243 417.121 313.849C416.4 312.157 415.822 310.409 415.393 308.621C414.708 305.122 412.74 302.891 409.116 302.189Z" fill="#F2D054"/>
<path d="M408.128 243.103L397.957 243.175C397.957 237.091 397.938 231.008 397.901 224.925C397.901 217.752 397.264 217.083 390.31 217.752C369.705 219.791 348.99 220.51 328.293 219.904C323.419 219.76 318.337 220.143 313.534 218.533C313.279 215.871 315.692 214.979 317.007 213.377C318.058 212.094 319.34 210.986 320.456 209.751C322.463 207.91 322.622 205.718 321.754 203.287C321.133 201.574 320.296 199.916 320.073 198.083C319.89 196.601 319.914 195.135 321.849 194.712C353.949 194.521 386.041 194.712 412.828 194.632C385.659 194.585 353.185 194.688 320.703 194.585C316.569 192.632 316.449 188.894 316.481 185.093C319.102 183.196 322.112 184.089 324.948 184.017C325.984 184.071 327.014 183.823 327.912 183.302C328.81 182.782 329.538 182.011 330.006 181.084C336.609 170.102 334.395 171.29 347.322 171.25C358.904 171.25 358.896 171.25 363.452 160.602C364.543 158.06 365.467 155.422 367.331 153.286C367.492 153.137 367.704 153.055 367.924 153.055C368.144 153.055 368.356 153.137 368.518 153.286L368.454 153.231C375.869 165.296 383.301 177.362 390.948 189.245C390.796 189.803 391.744 189.197 391.242 189.197C391.155 189.197 391.186 189.062 391.179 188.807C391.164 188.544 391.207 188.281 391.307 188.037C391.406 187.793 391.558 187.574 391.752 187.396C396.467 187.133 400.864 188.846 405.365 189.787C412.004 191.039 418.778 191.425 425.516 190.935C427.5 191.421 427.651 193.062 427.707 194.616C427.81 197.725 428.057 200.857 427.444 203.941C426.17 207.272 423.254 204.523 421.311 205.535C421.414 209.368 425.094 209.783 427.109 211.767C427.324 212.271 427.399 212.823 427.326 213.366C427.253 213.909 427.035 214.422 426.695 214.851C425.941 215.411 425.037 215.733 424.099 215.776C420.514 216.804 416.787 216.82 413.123 217.25C410.438 217.561 409.467 218.764 409.483 221.322C409.483 226.901 409.538 232.424 409.483 237.971C409.451 239.74 409.729 241.677 408.128 243.103Z" fill="#CFCFCF"/>
<path d="M155.13 285.453C144.935 273.236 141.836 258.421 139.678 243.263C140.618 242.155 141.836 242.266 143.087 242.466C145.07 243.199 145.58 245.072 146.321 246.745C148.2 250.977 150.144 255.193 151.944 259.449C155.369 267.522 161.757 272.351 169.045 276.448C170.901 277.492 172.287 276.966 173.785 275.97C176.063 275.308 178.166 276.009 180.26 276.766C181.973 278.36 183.295 277.292 184.785 276.256C194.558 269.411 199.982 259.576 204.323 248.363C198.588 250.913 193.331 253.448 187.525 254.452C181.081 256.348 174.637 255.018 168.193 254.452C167.794 254.43 167.405 254.317 167.057 254.121C166.709 253.925 166.411 253.651 166.186 253.32C167.779 247.502 167.675 241.23 170.774 235.787C171.287 235.469 171.859 235.257 172.455 235.164C173.052 235.07 173.661 235.098 174.247 235.245C195.203 238.226 214.829 219.489 212.041 196.888C211.858 195.35 211.285 193.7 212.878 192.473C218.365 190.515 224.34 190.398 229.899 192.138C232.156 202.35 231.038 213.02 226.713 222.542C226.235 223.626 225.702 224.678 225.192 225.73C221.109 232.717 215.697 238.836 209.262 243.741C208.736 244.131 207.557 245.024 208.656 245.486C212.472 247.08 210.488 249.837 209.843 251.862C206.243 263.139 204.427 275.141 196.86 284.864C194.988 287.254 193.299 289.837 191.165 291.972C187.819 295.336 187.071 299.145 188.13 303.56C188.617 305.762 188.725 308.032 188.449 310.27C187.843 312.606 188.13 314.996 188.202 317.347C188.273 319.539 187.325 320.535 185.278 320.687C176.859 321.173 168.504 322.631 160.037 322.44C157.424 321.292 158.061 319.021 158.276 317.005C158.914 311.123 158.93 305.202 159.519 299.312C159.909 295.423 159.479 291.662 156.5 288.673C155.656 287.757 155.823 286.418 155.13 285.453Z" fill="#A2D559"/>
<path d="M126.455 508.098C126.487 512.8 126.516 517.505 126.543 522.212C124.902 525.058 122.019 526.58 119.573 528.516C111.409 534.956 103.205 541.331 95.0406 547.763C93.6636 548.767 92.1971 549.642 90.6598 550.377C79.8271 545.786 69.4087 540.495 60.4797 532.653C60.0356 532.38 59.5519 532.179 59.046 532.055C51.6224 524.508 44.175 516.992 38.6869 507.804C34.7823 501.346 31.4329 494.569 28.6747 487.545C28.2764 486.525 27.2489 485.25 29.4712 484.995C30.9766 483.847 32.5537 484.58 34.0432 484.939C62.933 491.904 91.8785 498.655 120.776 505.66C122.736 506.114 124.966 506.257 126.455 508.098Z" fill="#FED147"/>
<path d="M159.909 321.946C163.788 320.52 167.914 321.229 171.905 320.575C176.187 319.966 180.507 319.652 184.832 319.635C187.222 319.579 188.066 318.79 188.018 316.391C187.971 314.359 187.373 312.215 188.472 310.239C187.779 320.241 190.639 329.884 191.412 339.726C193.005 360.216 192.63 380.674 191.372 401.148C191.137 402.848 191.012 404.563 190.997 406.28C191.197 409.388 189.898 410.695 186.848 410.368C183.438 410.512 184.1 407.595 183.821 405.865C182.538 398.023 181.535 390.142 180.276 382.299C179.193 375.509 178.524 368.664 177.457 361.874C176.493 356.008 175.147 350.182 175.465 344.165C175.266 343.655 174.669 344.508 175.059 344.165C176.055 348.038 175.21 351.943 175.266 355.841C173.984 363.699 173.801 371.644 173.124 379.55C172.367 388.396 171.323 397.21 169.842 405.961C169.706 407.151 169.335 408.303 168.751 409.348C168.403 409.911 167.918 410.377 167.342 410.702C166.766 411.027 166.116 411.201 165.455 411.208C164.793 411.214 164.141 411.053 163.558 410.739C162.976 410.425 162.482 409.968 162.124 409.412C161.505 408.382 161.18 407.202 161.184 406.001C160.714 393.17 160.053 380.355 159.591 367.532C159.495 366.289 159.71 365.053 159.519 363.81C159.288 352.031 158.221 340.276 158.722 328.473C159.161 326.345 158.093 323.875 159.909 321.946Z" fill="#585858"/>
<path d="M160.642 367.261L162.362 403.299C162.418 404.622 162.402 405.945 162.514 407.284C162.657 408.942 162.968 410.28 165.23 410.368C167.356 410.456 168.073 409.46 168.32 407.698C169.26 401.044 170.24 394.381 171.076 387.711C172.43 376.976 172.414 366.105 174.262 355.41C176.939 355.896 176.333 358.502 177.305 360.088C177.663 360.678 177.002 361.961 178.452 361.818C179.981 371.987 181.513 382.151 183.048 392.309C183.844 397.529 184.641 402.741 185.39 407.969C185.541 409.069 185.565 410.105 186.895 410.416C187.15 411.364 187.405 412.321 187.692 413.277C187.532 414.138 186.895 414.305 186.146 414.353C185.629 416.632 184.593 417.852 181.861 417.589C178.436 417.258 174.987 417.258 171.562 417.589C168.862 417.844 167.779 416.672 167.269 414.401C164.283 414.236 161.311 414.904 158.682 416.329C157.48 417.007 155.926 418.011 154.469 416.481C155.194 414.297 153.417 413.134 152.31 411.938C150.526 410.017 148.742 408.208 148.168 405.562C145.508 402.59 146.01 398.589 144.767 395.154C142.441 388.699 142.545 383.112 148.447 378.147C151.729 375.39 154.533 371.891 157.615 368.799C158.388 367.914 159.256 367.006 160.642 367.261Z" fill="#A2D559"/>
<path d="M277.635 213.727C277.906 210.54 277.308 207.352 278.248 204.252C279.977 198.521 284.62 196.744 289.686 199.972C293.255 202.251 294.863 205.869 295.971 209.759C296.727 212.436 297.373 215.146 299.874 216.851C303.211 218.19 306.182 219.983 307.942 223.299C308.948 224.639 309.833 226.066 310.587 227.562C312.363 231.89 310.228 235.197 304.764 236.919C302.126 238.693 299.262 240.105 296.249 241.119C290.18 243.175 284.756 240.88 281.96 235.149C280.367 231.962 279.021 228.614 279.451 224.893L277.635 213.727Z" fill="#232323"/>
<path d="M279.45 224.885C280.207 227.276 280.876 229.666 281.744 232.057C285.018 240.896 290.896 243.127 299.212 238.752C300.964 237.819 302.677 236.807 304.788 236.951C303.466 245.829 304.23 254.771 303.991 263.681C302.613 266.135 300.009 266.486 297.699 267.259C294.094 268.447 290.38 269.269 286.611 269.713C283.473 269.713 280.239 269.969 278.71 266.239C281.275 258.875 279.857 251.328 279.443 243.589L271.477 253.487C270.475 253.447 269.502 253.138 268.661 252.591C267.82 252.044 267.142 251.28 266.698 250.379C268.71 244.422 271.162 238.623 274.034 233.03C275.409 230.051 277.236 227.304 279.45 224.885Z" fill="#F2D054"/>
<path d="M286.428 268.813C292.466 267.858 298.356 266.128 303.951 263.665C310.252 276.782 309.049 290.474 306.93 304.206C305.584 312.972 303.999 321.691 302.533 330.433C302.295 331.852 302.422 333.446 300.192 333.358C298.169 333.279 298.408 331.709 298.177 330.513C296.265 320.703 295.237 310.828 297.173 300.914C298.384 294.698 295.875 290.179 291.406 286.33C287.352 281.182 283.688 275.89 286.428 268.813Z" fill="#585858"/>
<path d="M126.455 524.978C126.455 536.343 126.474 547.71 126.511 559.08C115.137 557.486 103.858 555.39 93.0573 551.182C92.6829 549.636 94.0211 549.086 94.8574 548.416C104.325 540.782 113.905 533.28 123.596 525.911C124.456 525.337 125.261 524.436 126.455 524.978Z" fill="#FED147"/>
<path d="M286.428 268.813C285.273 275.452 289.096 280.68 291.414 286.346C289.821 299.034 283.099 307.386 270.633 311.052C266.698 312.191 262.795 313.443 258.773 314.24C257.602 314.479 256.59 314.981 255.834 313.387C255.037 311.665 256.009 310.996 257.132 310.199C261.855 306.796 266.523 303.305 271.278 299.95C276.623 296.181 279.068 291.359 278.017 284.633C277.069 278.544 275.842 272.304 278.678 266.303C280.757 268.606 283.584 268.718 286.428 268.813Z" fill="#2C2C2C"/>
<path d="M307.942 223.291L299.874 216.843L312.761 208.922C315.7 208.125 318.472 208.188 320.766 210.515C318.886 213.648 315.676 215.576 313.534 218.485L307.942 223.291Z" fill="#F2D054"/>
<path d="M266.643 250.387L271.422 253.495L260.581 271.028C259.1 273.419 256.137 273.714 254.209 275.499C253.373 276.296 252.497 275.499 252.345 274.344C252.09 272.335 253.006 270.63 254.814 270.359C258.168 269.825 259.084 267.323 260.207 264.852C262.357 259.998 264.508 255.169 266.643 250.387Z" fill="#F7B68F"/>
<path d="M126.455 524.978L93.0893 551.182L90.5962 550.385C98.2985 543.213 107.028 537.355 115.153 530.716C118.809 527.736 122.696 525.042 126.479 522.221L126.455 524.978Z" fill="#FEFCF8"/>
<path d="M186.091 414.337C186.226 413.429 186.975 413.405 187.636 413.261C192.375 413.381 196.27 416.074 200.571 417.533C197.72 419.031 194.717 418.091 191.81 418.043C191.173 418.043 190.408 417.429 189.93 417.629C186.266 419.183 186.011 416.991 186.091 414.337Z" fill="#232D53"/>
<path d="M250.418 313.211C250.712 313.22 251.003 313.265 251.286 313.347C252.353 313.817 255.269 322.616 254.552 323.492C254.045 324.097 253.376 324.545 252.624 324.783C251.477 325.118 251.469 323.986 251.214 323.309C250.314 320.982 249.486 318.623 248.626 316.272C247.957 314.455 248.697 313.514 250.418 313.211Z" fill="#343432"/>
<path d="M310.451 340.292C306.583 341.766 302.308 341.766 298.439 340.292C298.527 339.639 298.4 338.818 298.75 338.371C300.383 336.267 309.312 337.774 310.451 340.292Z" fill="#32312F"/>
<path d="M276.201 92.9726C275.683 97.4196 275.325 101.906 274.608 106.322C273.811 111.103 274.711 115.981 273.015 120.611C263.504 122.205 262.748 121.806 258.821 112.721C258.239 111.382 257.674 110.035 257.188 108.665C254.966 102.289 255.874 99.7626 261.967 96.8617C264.357 95.6982 265.488 94.3354 264.978 91.6815C264.707 90.2549 264.245 88.6769 264.596 87.362C266.436 80.5002 264.468 75.599 257.865 72.5945C256.463 71.9569 256.097 70.4028 256.487 68.777C257.578 64.2663 258.877 59.8033 261.131 55.7388C263.903 50.7977 265.989 49.7059 271.159 51.7541C275.054 53.348 277.658 52.7901 279.921 49.4269C280.3 48.8815 280.772 48.4068 281.314 48.0243C286.253 44.4141 289.766 40.4851 286.651 33.6791C285.409 30.9854 286.922 28.6423 289.694 27.2158C293.103 25.4705 296.385 23.4941 300.152 22.4899C306.357 20.8402 308.643 21.5255 311.12 27.5186C312.713 31.3042 314.697 33.0256 318.727 32.0772C318.99 32.0254 319.261 32.0254 319.524 32.0772C326.318 33.4081 331.471 31.7744 334.1 24.6496C335.143 21.7806 337.644 21.4618 340.416 22.1871C344.277 23.1084 348.019 24.4723 351.567 26.2515C356.737 28.8815 358.123 31.4556 355.853 36.8112C353.877 41.4654 355 43.912 358.394 47.6737C363.077 52.8539 367.291 54.8463 373.695 51.8896C376.506 50.5746 378.474 52.0091 379.987 54.4159C382.496 58.3146 384.407 62.567 385.658 67.0317C386.678 70.8013 385.73 73.5269 382.257 75.3439C381.795 75.591 381.333 75.862 380.863 76.1011C374.635 79.2889 374.635 79.2889 375.63 86.31C375.282 86.7077 374.848 87.0212 374.361 87.2268C373.874 87.4325 373.346 87.5251 372.819 87.4975C363.786 87.5453 354.746 88.0554 345.737 87.2265C343.22 86.2622 343.578 83.7917 343.069 81.8551C339.174 67.0636 323.57 59.3889 309.933 65.8363C303.091 69.0241 298.87 74.6904 296.894 82.0065C296.456 83.6004 296.592 85.4812 295.19 86.7882C291.598 88.1271 287.854 87.2584 284.182 87.4735C282.469 87.5692 280.749 87.4735 279.028 87.4735C277.308 87.4735 275.301 87.2743 274.337 88.9718C273.198 90.9244 275.771 91.5221 276.201 92.9726Z" fill="#A2D559"/>
<path d="M344.582 86.318H375.575H397.144H405.181C406.456 85.0986 408.089 85.1545 409.658 85.1545C423.921 85.1119 438.186 85.1119 452.455 85.1545C453.38 85.1341 454.305 85.2223 455.211 85.4174C458.03 86.0709 459.767 88.1987 459.034 90.4541C458.158 93.1478 456.326 94.2795 453.506 92.9805C452.574 92.9247 451.65 92.8371 450.726 92.8371H278.965C278.041 92.8371 277.117 92.9247 276.193 92.9725C274.011 92.7892 272.059 92.064 272.282 89.5058C272.513 86.7643 274.743 86.4535 277.013 86.4375C283.107 86.4375 289.192 86.3658 295.286 86.318C296.831 84.9871 298.726 85.1305 300.558 85.1225C313.473 85.0907 326.39 85.0907 339.309 85.1225C341.141 85.1305 343.037 84.9871 344.582 86.318Z" fill="#333321"/>
<path d="M229.883 192.098L212.623 192.895C212.368 192.826 212.132 192.7 211.933 192.528C211.733 192.356 211.574 192.141 211.468 191.899C208.863 184.535 204.14 178.685 198.453 173.505C198.078 173.127 197.805 172.661 197.656 172.15C199.034 166.325 200.962 160.722 204.666 155.893V155.749C217.41 163.527 226.299 174.151 229.581 188.982C229.749 190.013 229.85 191.054 229.883 192.098Z" fill="#2E4717"/>
<path d="M59.6435 461.325L71.7347 458.935C73.7021 460.01 74.7057 461.923 75.797 463.716C81.5717 473.224 87.5058 482.636 93.3204 492.104C93.7425 492.773 94.1567 493.459 94.5231 494.16C95.1125 495.308 96.2197 496.551 95.3196 497.802C94.4195 499.053 92.6911 498.806 91.2653 498.448C80.9106 495.818 70.4204 493.459 60.0099 490.916C51.2482 488.781 42.4865 486.78 33.7726 484.541C32.2672 484.142 30.5865 484.07 29.5033 482.676C27.958 481.082 29.6785 480.405 30.4432 479.536C36.9746 472.148 45.2584 467.398 54.2511 463.7C56.0831 462.935 57.8514 462.106 59.6435 461.325Z" fill="#FED147"/>
<path d="M29.527 482.652C43.5458 485.967 57.5592 489.285 71.5673 492.606C78.3776 494.2 85.1718 495.929 91.99 497.555C93.1824 497.747 94.3842 497.874 95.5903 497.937L71.6947 458.926L74.0843 458.719C75.8844 458.863 76.2986 460.472 77.0473 461.636C84.0886 472.554 90.7873 483.68 97.6533 494.71C98.3285 495.915 99.2649 496.953 100.394 497.749C101.523 498.545 102.815 499.078 104.177 499.308C110.684 500.575 117.033 502.496 123.5 503.962C124.687 504.225 125.89 504.472 126.432 505.732C126.432 506.529 126.432 507.325 126.432 508.122L29.4235 485.011C29.1128 484.038 27.1454 484.74 27.5437 483.265C27.6313 482.899 28.8341 482.843 29.527 482.652Z" fill="#FEFDFB"/>
<path d="M204.689 155.885C202.464 161.325 200.245 166.763 198.03 172.198C196.437 172.931 195.227 171.951 193.968 171.282C186.705 167.29 178.197 166.21 170.168 168.261C149.092 173.394 138.029 197.302 147.802 216.644C149.905 220.812 153.075 224.223 155.44 228.184C155.488 229.93 154.094 230.623 152.971 231.46C150.582 233.261 148.32 235.285 145.803 236.983C143.891 238.298 143.166 239.756 144.257 241.9C144.247 242.184 144.146 242.457 143.968 242.678C143.79 242.899 143.545 243.057 143.27 243.127L139.653 243.247C139.104 241.557 136.961 240.25 138.857 237.979C139.701 236.983 138.236 235.859 137.519 234.966C122.281 215.792 121.357 191.03 134.906 171.146C147.404 152.816 176.803 140.958 201.631 153.956C202.746 154.506 203.717 155.239 204.689 155.885Z" fill="#F2D054"/>
<path d="M159.79 328.17L160.65 364.105C159.359 367.468 156.404 369.445 154.079 371.939C151.753 374.434 149.124 376.721 147.021 379.446C146.066 380.698 145.022 382.212 143.238 381.933C141.207 381.622 141.382 379.542 141.055 378.124C135.745 354.682 130.533 331.217 125.42 307.728C124.91 305.385 123.421 303.018 124.822 300.476C125.253 298.563 126.344 299.608 127.124 300.046C130.661 302.022 134.15 304.031 137.654 306.095C140.705 306.605 142.664 308.9 144.759 310.781C148.965 314.55 152.836 318.679 156.803 322.735C158.266 324.247 159.297 326.124 159.79 328.17Z" fill="#A2D559"/>
<path d="M124.862 300.476C130.852 327.373 136.81 354.27 142.991 381.845L160.69 364.105C160.69 365.157 160.69 366.209 160.69 367.292C155.433 372.672 150.223 378.107 144.879 383.407C143.286 385.001 143.939 386.595 144.281 388.189C145.516 393.99 146.862 399.768 148.16 405.554C145.309 406.351 146.153 403.259 144.887 402.366C141.042 384.833 137.2 367.3 133.361 349.767C129.713 333.143 126.073 316.513 122.441 299.878C122.672 299.344 122.664 298.284 123.373 298.547C124.082 298.81 124.337 299.798 124.862 300.476Z" fill="#FDFDFB"/>
<path d="M126.455 505.732C118.737 503.875 111.034 501.962 103.3 500.201C102.018 499.981 100.8 499.479 99.734 498.733C98.6681 497.986 97.7806 497.012 97.1352 495.882C89.6002 483.417 81.8102 471.096 74.1079 458.72C77.2064 458.241 80.2889 457.476 83.4033 457.333C97.2773 456.751 111.174 457.589 124.878 459.835C125.391 459.963 125.89 460.142 126.367 460.369C126.389 475.49 126.418 490.611 126.455 505.732Z" fill="#FED147"/>
<path d="M154.413 416.433C156.802 416.329 158.905 415.277 160.92 414.162C161.876 413.583 162.978 413.293 164.095 413.327C165.211 413.361 166.294 413.717 167.213 414.353C167.301 417.023 167.157 418.481 163.374 417.78C160.02 417.158 156.293 419.206 152.74 417.509L154.413 416.433Z" fill="#232D53"/>
<path d="M408.224 71.1603C408.176 63.1908 408.224 55.2213 408.033 47.2995C407.985 44.9645 408.877 44.1755 411.06 44.4225C411.723 44.4584 412.388 44.4584 413.051 44.4225C515.308 44.4225 617.565 44.3959 719.822 44.3428C723.678 44.3428 724.976 45.0441 724.968 49.276C724.84 204.571 724.84 359.863 724.968 515.152C724.968 518.938 724.052 520.109 720.189 520.021C708.52 519.742 696.843 519.886 685.142 519.87C684.83 519.766 684.544 519.596 684.304 519.372C684.063 519.148 683.874 518.875 683.748 518.571C682.282 515.208 684.592 503.843 687.277 501.158C690.893 500.169 694.589 500.815 698.253 500.616C699.925 500.528 701.702 500.91 703.143 499.667C704.33 498.304 704.043 496.655 704.043 495.085C704.043 364.214 704.043 233.341 704.043 102.465C704.043 90.1359 704.043 77.8069 703.908 65.478C703.86 60.2102 703.534 59.8994 698.213 59.8994C609.236 59.8994 520.255 59.8994 431.268 59.8994C425.939 59.8994 425.652 60.242 425.556 65.478C425.641 67.4625 425.537 69.4506 425.246 71.4154C423.143 74.8822 420.467 76.1971 418.356 73.9656C415.329 70.8097 412.167 70.0047 408.224 71.1603Z" fill="#548626"/>
<path d="M408.224 71.16C411.076 69.1756 414.142 67.4542 416.683 71.2636C418.914 74.6028 421.399 74.1566 424.29 72.6742C424.573 72.224 424.946 71.8377 425.386 71.5399C425.827 71.2421 426.324 71.0395 426.847 70.9448C428.91 70.4347 429.77 69.0162 430.304 67.0477C431.809 61.469 432.885 60.7358 438.635 60.672C440.091 60.6202 441.548 60.6521 443 60.7677C448.034 61.3176 450.241 63.6686 450.535 68.7372C450.814 73.5189 457.338 77.0495 461.615 74.7463C467.191 71.7657 468.154 71.9171 472.623 76.3881C474.068 77.7516 475.354 79.2756 476.454 80.9307C478.047 83.473 478.254 86.334 476.151 88.2706C472.591 91.5461 473.172 94.8774 474.837 98.5832C475.267 99.5396 475.339 100.655 476.112 101.452C485.12 104.05 485.12 104.05 484.961 113.805C484.857 120.133 483.583 121.623 477.243 122.428C476.455 122.478 475.697 122.742 475.048 123.191C474.4 123.64 473.886 124.258 473.563 124.978C471.635 128.804 469.397 132.47 472.965 136.646C473.913 137.754 473.762 139.467 473.021 140.838C471.993 142.932 470.559 144.801 468.802 146.335C467.044 147.869 464.999 149.037 462.786 149.772C458.548 151.134 456.358 147.755 454.351 144.695C453.028 142.009 453.626 139.116 453.602 136.351C453.483 121.878 453.522 107.398 453.506 92.9249C455.753 92.6938 458.493 92.6938 458.286 89.5298C458.078 86.3659 455.354 86.3898 452.877 86.3898C436.979 86.3898 421.08 86.3474 405.182 86.2624C400.498 78.3645 400.498 78.3644 407.316 71.8374C407.627 71.6302 407.922 71.4071 408.224 71.16Z" fill="#F2D054"/>
<path d="M686.799 502.169C685.628 508.011 683.167 513.733 685.134 519.878C687.051 531.986 687.343 544.296 686.002 556.482C685.516 560.578 686.13 564.929 683.684 568.667H678.865C676.181 561.638 675.847 554.107 674.182 546.854C673.011 541.762 672.095 536.614 671.067 531.489C669.968 530.692 669.841 529.489 669.618 528.301C666.695 512.936 663.708 497.579 661.055 482.166C661.007 481.903 661.007 481.632 660.984 481.369C660.76 478.938 660.753 478.938 659.39 479.217C658.403 476.539 657.901 473.925 660.434 471.741C662.68 470.945 664.894 470.857 667.037 472.076C668.407 473.766 668.184 475.806 668.136 477.751C668.073 480.444 669.243 481.552 671.912 481.496C675.098 481.424 678.228 481.44 681.39 481.496C683.222 481.496 685.11 481.44 686.592 482.867C689.053 489.306 688.591 495.73 686.799 502.169Z" fill="#585858"/>
<path d="M564.819 19.5492H578.32C581.506 19.5492 583.099 21.1431 583.41 24.3309C583.705 27.6702 581.881 29.6546 578.957 29.7343C569.569 29.9946 560.17 29.9946 550.761 29.7343C547.782 29.6546 546.061 27.0087 546.149 24.1556C546.236 21.3025 547.917 19.3739 551.318 19.4536C555.779 19.6608 560.319 19.5492 564.819 19.5492Z" fill="#FEFEFE"/>
<path d="M437.759 526.333C437.817 521.084 437.87 515.835 437.918 510.585C438.955 509.538 440.356 508.93 441.829 508.888C452.303 507.788 462.714 506.17 473.18 504.975C473.709 504.953 474.237 505.048 474.725 505.254C476.159 506.051 476.422 507.549 476.884 508.904C480.866 520.539 484.419 532.342 488.25 544.034C488.808 545.731 490.146 547.763 487.908 549.405C481.615 551.892 475.538 554.984 468.735 556.052C466.999 555.924 465.892 554.745 464.753 553.661C456.405 545.691 448.87 536.925 439.949 529.617C438.996 528.689 438.25 527.57 437.759 526.333Z" fill="#548526"/>
<path d="M487.908 549.405C488.76 547.07 487.501 545.038 486.848 542.981C483.168 531.426 479.385 519.87 475.649 508.362C475.37 507.493 475.243 506.569 475.052 505.676C473.754 504.791 472.288 505.206 470.886 505.078C468.799 504.895 468.003 503.947 469.397 502.026C470.376 500.663 471.691 499.428 470.703 497.499C467.469 486.414 464.586 475.185 459.862 464.609C459.798 464.3 459.834 463.978 459.966 463.691C460.098 463.404 460.318 463.167 460.595 463.015C463.423 461.294 465.318 463.055 467.214 464.792C469.381 467.741 469.922 471.343 470.886 474.706C471.914 478.317 473.897 479.568 477.465 479.297C479.942 479.105 482.452 479.201 484.945 479.002C486.346 479.185 487.756 478.962 489.166 479.002C494.551 479.4 499.943 479.169 505.328 479.169C509.31 479.169 509.533 478.819 508.593 474.73C508.327 473.85 508.174 472.939 508.139 472.021C508.936 469.853 509.326 467.087 512.823 468.554C514.846 470.044 514.997 472.451 515.786 474.555C518.263 481.895 519.641 489.625 523.576 496.455C524.125 497.882 523.799 499.492 524.508 500.902C525.758 505.525 527.319 510.035 528.737 514.594C529.47 516.985 530.904 518.1 533.389 518.029C534.847 518.029 536.312 518.029 537.77 518.029C574.771 518.029 611.772 518.029 648.773 518.029C651.003 518.029 653.305 517.694 655.424 518.826C655.536 518.876 655.634 518.954 655.709 519.052C655.783 519.15 655.833 519.266 655.852 519.388C655.871 519.509 655.859 519.634 655.817 519.75C655.776 519.867 655.706 519.971 655.615 520.053H533.843C529.239 520.053 529.239 520.053 530.609 524.325C535.277 538.949 539.976 553.557 544.572 568.197C544.915 569.281 546.667 570.979 544.413 571.68C542.517 572.262 540.836 572.007 540.024 569.225C537.324 559.957 534.106 550.839 531.262 541.595C530.505 539.108 529.327 538.271 526.77 538.343C520.676 538.511 514.567 538.407 508.45 538.343C507.126 538.247 505.802 538.523 504.627 539.14C501.628 539.387 498.618 539.483 495.61 539.427C491.914 539.491 491.795 539.674 492.846 543.3C493.233 544.273 493.415 545.315 493.38 546.361C494.614 554.059 497.832 561.168 499.903 568.62C500.166 569.56 501.194 570.771 500.031 571.425C498.94 571.875 497.73 571.939 496.598 571.608C495.435 571.329 495.514 569.911 495.196 568.97C493.263 563.243 491.378 557.494 489.541 551.724C489.262 550.792 489.198 549.7 487.908 549.405Z" fill="#99C954"/>
<path d="M655.615 520.101C655.666 519.892 655.666 519.673 655.615 519.463C653.337 513.933 653.823 508.115 653.878 502.345C653.878 501.197 653.815 500.05 653.878 498.902C654.036 497.36 653.873 495.803 653.401 494.327C652.907 491.506 653.122 488.669 653.098 485.84C653.098 484.796 653.177 483.752 653.289 482.708C653.496 480.827 654.301 479.656 656.372 480.468C657.853 481.042 658.881 480.365 659.94 479.56L661.238 477.488C663.461 489.442 665.635 500.95 667.746 512.482C668.901 518.858 669.96 525.162 671.067 531.497C670.8 542.834 669.153 554.096 666.161 565.033C665.786 566.468 665.898 568.333 663.771 568.659L658.434 568.492C657.59 553.685 656.743 538.872 655.894 524.054C655.822 522.739 655.71 521.416 655.615 520.101Z" fill="#464646"/>
<path d="M437.623 561.096C436.667 560.299 436.826 559.199 436.826 558.163C437.089 548.52 436.619 538.861 437.71 529.25C438.107 529.237 438.501 529.311 438.865 529.467C439.23 529.622 439.556 529.856 439.821 530.15C448.28 538.016 456.787 545.835 464.728 554.242C465.2 554.703 465.517 555.299 465.636 555.948C465.636 558.076 463.812 557.542 462.713 557.781C454.467 559.644 446.069 560.754 437.623 561.096Z" fill="#548626"/>
<path d="M465.652 555.948L437.727 529.25C437.727 528.278 437.727 527.305 437.727 526.333C448.432 535.841 458.372 546.153 468.703 556.052C467.66 557.414 466.672 556.322 465.652 555.948Z" fill="#F8FAF7"/>
<path d="M493.427 546.44C491.627 544.384 490.241 541.38 490.958 539.347C491.755 537.18 495.188 538.551 497.418 538.551C499.808 538.551 502.396 537.674 504.674 539.236C501.146 541.966 497.382 544.377 493.427 546.44Z" fill="#568728"/>
<path d="M512.599 469.199C509.963 467.836 510.17 471.279 508.529 471.59C507.772 471.71 507.398 471.239 507.095 470.665C506.147 466.904 504.809 463.254 503.591 459.58C503.399 457.898 502.268 457.635 500.835 457.595C498.007 457.524 495.179 457.492 492.344 457.595C485.526 457.595 478.707 457.595 471.889 457.595C466.035 457.595 466.035 457.595 467.11 463.254C467.14 463.604 467.095 463.956 466.979 464.287C466.862 464.618 466.676 464.921 466.433 465.174C464.768 463.907 463.191 462.305 460.81 463.581C457.918 459.524 457.823 454.455 455.895 450.032C455.545 448.717 454.868 447.522 454.501 446.215C454.135 444.908 453.856 443.649 453.506 442.366C453.27 441.433 452.95 440.523 452.55 439.648C448.695 427.455 444.585 415.357 440.921 403.084C439.574 394.046 436.396 385.551 433.115 377.079C433.051 376.92 432.645 376.888 432.398 376.792C432.979 373.556 431.96 370.767 430.008 368.225C427.619 364.67 426.87 360.463 425.723 356.478C424.632 352.732 422.625 351.513 418.905 351.696C412.987 351.919 407.061 351.792 401.142 351.696C399.478 351.696 397.67 351.975 396.363 350.469C400.059 349.13 403.866 350.046 407.618 349.895C411.959 349.728 416.324 349.672 420.649 349.895C424.241 350.094 425.253 349.098 423.349 345.854C421.103 343.742 420.8 340.73 419.789 338.052C419.048 336.084 418.578 334.02 417.973 332.003C416.053 325.58 416.037 325.628 409.347 325.365C407.817 325.309 406.121 325.644 405.013 324.09C407.403 323.181 409.872 323.755 412.302 323.683C416.619 323.571 416.619 323.635 414.651 319.483C414.819 319.332 414.986 319.18 415.145 319.021C419.924 318.71 424.799 316.136 429.483 319.451H438.643C443.222 317.26 448.081 318.598 452.813 318.304C453.609 318.375 454.485 318.304 455.322 318.367C458.882 318.854 457.926 316.774 457.281 314.877C456.365 312.119 455.449 309.362 454.509 306.604C454.206 305.01 453.402 303.417 454.262 301.823C459.384 300.101 461.598 301.512 461.965 306.756C462.086 307.519 462.288 308.267 462.57 308.987C468.942 329.453 475.689 349.815 482.188 370.249C485.741 381.088 488.998 392.014 492.726 402.797C493.285 404.145 493.657 405.564 493.833 407.013C493.547 408.447 494.574 409.459 495.036 410.655C500.235 426.169 505.247 441.747 510.074 457.388C510.344 458.726 510.825 460.012 511.5 461.198C512.018 463.493 513.149 465.637 513.149 468.059C513.089 468.487 512.897 468.886 512.599 469.199Z" fill="#9BC954"/>
<path d="M460.038 464.29C461.687 464.497 461.989 465.844 462.427 467.095C465.366 476.212 468.282 485.33 471.245 494.439C471.619 495.586 472.041 496.67 471.245 497.778C470.4 501.819 467.055 505.508 463.503 506.074C455.999 507.27 448.432 507.995 440.897 509.007C440.386 509.128 439.853 509.118 439.346 508.979C438.84 508.839 438.376 508.575 437.998 508.21C438.269 495.73 438.548 483.244 438.834 470.753C438.933 469.976 439.118 469.211 439.384 468.474C445.788 464.864 452.638 463.214 460.038 464.29Z" fill="#548626"/>
<path d="M440.913 403.147C443.693 405.602 443.805 409.244 444.896 412.408C447.946 421.541 450.726 430.738 453.658 439.943C449.77 444.254 445.637 448.239 439.981 450.192C438.794 447.378 439.185 444.374 439.543 441.577C440.674 432.459 439.87 423.326 440.236 414.209C440.284 410.519 440.658 406.837 440.913 403.147Z" fill="#A2D559"/>
<path d="M460.038 464.29C452.988 464.936 446.17 466.753 439.328 468.466L439.376 453.324C444.585 446.351 449.834 445.067 456.684 449.092C458.094 453.93 459.974 458.656 460.794 463.636L460.038 464.29Z" fill="#A2D559"/>
<path d="M437.949 508.179C446.711 507.119 455.537 506.25 464.235 504.895C467.954 504.321 468.862 500.193 471.164 497.778C472.614 498.001 473.012 498.671 472.072 499.906L469.133 503.787C470.989 505.134 473.912 502.719 475.019 505.676L437.886 510.585C437.894 509.788 437.941 508.983 437.949 508.179Z" fill="#F9FAF7"/>
<path d="M456.692 449.084C449.866 446.159 444.386 448.757 439.384 453.316C439.221 452.242 439.405 451.145 439.91 450.184L453.586 439.943C453.833 440.58 454.08 441.218 454.319 441.856C452.726 443.697 452.543 445.267 455.171 446.303L456.692 449.084Z" fill="#FAFCF7"/>
<path d="M401.796 456.599C399.407 464.154 397.017 471.399 394.723 478.659C394.245 480.173 393.058 480.133 391.856 480.133C380.33 480.133 368.812 480.133 357.295 480.133C355.001 480.133 354.587 479.336 355.295 477.272C357.366 471.144 359.334 464.983 361.253 458.807C361.699 457.364 362.273 456.543 363.954 456.551C376.387 456.623 388.821 456.599 401.796 456.599Z" fill="#F2D054"/>
<path d="M383.206 452.551C377.503 452.551 371.799 452.487 366.104 452.551C363.906 452.551 363.325 452.065 364.105 449.818C366.181 443.824 368.125 437.783 369.936 431.695C370.493 429.822 371.401 429.216 373.297 429.224C384.831 429.261 396.361 429.235 407.89 429.145C409.746 429.145 410.63 429.408 409.913 431.535C407.81 437.799 405.755 444.079 403.843 450.407C403.302 452.192 402.346 452.551 400.697 452.527C394.883 452.503 389.036 452.551 383.206 452.551Z" fill="#F2D054"/>
<path d="M399.136 402.606C404.839 402.606 410.542 402.662 416.245 402.606C418.475 402.606 419.057 403.275 418.332 405.427C416.388 411.197 414.548 416.999 412.756 422.809C412.215 424.562 411.338 425.343 409.371 425.327C397.965 425.237 386.548 425.237 375.121 425.327C372.731 425.327 372.086 424.825 372.962 422.362C374.945 416.784 376.746 411.07 378.394 405.355C379.048 403.108 380.226 402.55 382.377 402.598C387.985 402.662 393.56 402.606 399.136 402.606Z" fill="#F2D054"/>
<path d="M372.962 484.206C378.649 484.206 384.344 484.325 390.031 484.158C392.652 484.078 392.819 485.003 392.102 487.131C390.167 492.885 388.335 498.679 386.527 504.472C385.985 506.202 385.133 507.007 383.157 506.991C371.64 506.901 360.125 506.901 348.612 506.991C346.31 506.991 345.92 506.266 346.645 504.146C348.62 498.408 350.508 492.63 352.22 486.796C352.834 484.692 353.901 484.214 355.9 484.254C361.588 484.365 367.283 484.254 372.978 484.254L372.962 484.206Z" fill="#F2D054"/>
<path d="M407.905 376.218C413.608 376.218 419.312 376.266 425.015 376.218C426.942 376.218 427.635 376.561 426.894 378.697C424.871 384.568 422.976 390.487 421.207 396.453C420.674 398.262 419.734 398.645 418.077 398.637C406.535 398.637 394.978 398.573 383.468 398.637C381.238 398.637 380.664 398.031 381.373 395.919C383.317 390.149 385.229 384.371 387.005 378.553C387.57 376.697 388.534 376.163 390.406 376.163C396.236 376.306 402.051 376.218 407.905 376.218Z" fill="#F2D054"/>
<path d="M342.933 516.73C343.132 512.641 344.845 510.888 349.353 511.055C359.532 511.43 369.736 511.159 379.931 511.191C381.222 511.191 382.576 510.864 384.105 511.741C381.851 518.706 379.517 525.703 377.366 532.757C376.833 534.518 375.773 534.534 374.38 534.526L343.013 534.382C340.743 530.74 341.858 526.747 341.945 522.898C342.039 520.811 342.371 518.742 342.933 516.73Z" fill="#F2D054"/>
<path d="M396.388 350.525C404.353 350.525 412.247 350.78 420.164 350.525C423.749 350.413 425.804 351.186 426.465 355.028C427.261 359.53 429.961 363.555 430.033 368.281C429.866 371.421 428.233 372.266 425.134 372.266C413.266 372.082 401.398 372.194 389.084 372.194C391.697 364.695 393.417 357.402 396.388 350.525Z" fill="#F2D054"/>
<path d="M405.038 324.169C406.878 324.241 408.757 324.608 410.534 324.337C415.01 323.644 417.439 325.237 418.499 329.764C419.813 335.223 421.685 340.555 423.342 345.934C415.838 345.934 408.327 345.934 400.824 346.006C398.514 346.006 397.295 345.831 398.435 343.001C400.896 336.817 401.907 330.123 405.038 324.169Z" fill="#F2D054"/>
<path d="M409.116 302.189C413.099 301.265 414.891 302.986 416.014 306.844C416.994 310.183 416.874 314.184 420.196 316.574C419.065 319.109 416.874 318.678 414.787 318.527C412.175 316.678 412.223 313.578 411.211 310.972C410.701 309.641 410.837 308.135 410.088 306.868C410.725 305.066 410.072 303.576 409.116 302.189Z" fill="#9AC853"/>
<path d="M410.088 306.828C412.709 308.422 411.944 311.482 413.075 313.729C413.723 315.165 414.298 316.634 414.796 318.128C414.89 318.234 414.962 318.357 415.007 318.492C415.051 318.626 415.067 318.768 415.054 318.909C415.04 319.05 414.998 319.187 414.928 319.31C414.859 319.434 414.765 319.542 414.652 319.627L414.716 319.579C405.867 320.456 405.867 320.456 408.423 312.072C408.917 310.302 409.523 308.565 410.088 306.828Z" fill="#F0CF53"/>
<path d="M510.958 461.27C509.708 460.648 509.365 459.556 509.477 458.273C512.257 456.536 514.885 458.337 517.362 458.982C521.098 459.963 523.432 458.823 526.124 456.313C538.223 445.004 547.63 431.926 553.732 416.465C554.998 413.277 555.747 409.89 556.734 406.591C557.579 403.769 556.934 402.152 553.684 401.618C541.927 399.673 530.242 397.298 518.501 395.242C515.992 394.812 514.176 395.776 512.344 397.234C507.565 401.036 502.786 404.774 498.007 408.535C496.948 409.332 496.04 410.83 494.271 410.185C493.762 409.444 492.535 408.95 493.427 407.73C494.112 405.857 495.769 404.933 497.219 403.793C515.538 389.448 533.787 374.991 552.64 360.072C544.03 358.478 536.033 357.466 527.869 358.231C517.444 359.106 507.175 361.319 497.314 364.814C495.992 365.3 494.566 365.97 493.164 364.902C491.63 361.218 490.756 357.293 490.584 353.306C490.808 352.759 491.143 352.263 491.568 351.852C491.993 351.44 492.498 351.121 493.053 350.915C498.915 348.054 504.602 344.827 510.624 342.292C511.357 342.046 512.012 341.609 512.52 341.025C507.263 339.973 502.085 339.583 496.964 338.873C492.981 338.316 488.823 338.491 484.976 336.937C483.494 336.092 482.953 334.594 482.26 333.167C477.701 323.94 472.236 315.189 465.947 307.043C465.812 306.809 465.628 306.607 465.406 306.453C465.184 306.299 464.931 306.195 464.665 306.15C463.12 306.644 463.805 309.338 461.654 309.29C461.407 308.685 460.857 308.015 460.953 307.497C462.299 301.656 458.229 302.11 454.637 301.982C453.283 300.922 453.426 299.44 453.529 297.998C454.923 278.074 456.214 258.206 456.548 238.226C456.668 231.109 457.52 224 456.923 216.867C456.571 215.065 456.533 213.216 456.811 211.4C456.901 210.986 457.048 210.586 457.249 210.213C457.487 209.744 457.811 209.325 458.205 208.978C465.573 203.399 465.629 196.33 462.427 188.48C460.622 184.244 458.399 180.2 455.792 176.406C454.804 174.916 453.314 173.609 453.482 171.545C453.529 164.106 453.583 156.689 453.641 149.294C453.641 147.7 453.362 146.106 454.374 144.687C454.828 144.894 455.441 144.982 455.72 145.325C460.802 151.701 463.08 149.31 467.843 145.421C473.419 140.838 473.586 139.69 469.755 133.355C469.384 132.906 469.182 132.342 469.182 131.761C469.182 131.179 469.384 130.615 469.755 130.167C470.511 129.241 471.104 128.193 471.507 127.067C472.574 122.907 474.502 120.324 479.416 121.281C481.511 121.687 482.825 120.157 483.399 118.173C483.63 117.415 483.796 116.639 483.893 115.853C484.992 105.963 484.689 105.565 475.131 102.194C475.505 100.13 477.321 100.122 478.787 99.755C480.885 99.3464 483.026 99.2071 485.159 99.3405H697.097C697.893 99.3405 698.69 99.3405 699.486 99.3405C704.425 99.4999 704.759 99.8426 704.759 104.919C704.759 235.901 704.759 366.868 704.759 497.818C704.759 499.117 705.086 500.472 704.401 501.715L686.814 502.05C686.017 498.201 687.26 494.359 686.886 490.502C686.655 488.039 686.511 485.577 686.32 483.114C686.661 481.157 686.623 479.152 686.209 477.209C684.743 468.729 683.277 460.258 682.529 451.706C681.692 446.845 682.887 442.007 682.632 437.146C682.433 433.233 681.716 429.583 679.343 426.395C677.53 423.982 675.409 421.817 673.034 419.956C671.815 418.951 670.453 418.067 670.437 416.242C671.951 410.145 670.437 404.415 668.048 398.884C666.216 394.636 663.476 393.018 659.78 393.505C657.728 393.778 655.816 394.697 654.321 396.13C652.826 397.563 651.825 399.434 651.464 401.474C651.125 403.44 651.103 405.447 651.401 407.419C652.277 412.416 652.006 417.453 652.133 422.474C652.245 426.77 652.356 426.825 656.602 425.996C656.912 426.35 657.108 426.788 657.165 427.254C657.221 427.721 657.136 428.193 656.921 428.611C654.834 433.886 652.356 438.971 648.645 443.346C646.359 444.231 642.408 443.195 643.42 447.889C643.165 452.145 643.547 456.305 645.387 460.226C645.658 463.143 647.346 464.211 650.166 464.083C651.584 464.003 653.057 463.995 654.316 464.88C655.359 466.203 654.961 467.701 654.635 469.08C653.503 474.118 653.266 479.317 653.934 484.437C654.162 487.907 654.396 491.36 654.635 494.798C654.73 496.001 654.364 497.236 654.897 498.408C654.897 499.5 654.897 500.599 654.897 501.691C653.384 503.134 651.464 502.935 649.632 502.943C613.752 502.943 577.869 502.943 541.983 502.943C539.458 502.943 536.997 502.943 535.459 500.241C534.663 498.894 533.07 499.731 531.764 499.699C529.055 499.627 526.307 501.245 523.655 499.46C521.265 498.567 522.301 497.81 523.751 497.069C528.004 495.013 532.568 495.053 536.829 494.79C531.811 487.617 524.945 481.72 517.147 476.898C516.259 476.334 515.501 475.587 514.925 474.706L512.591 469.064C512.638 468.979 512.666 468.887 512.676 468.791C512.686 468.695 512.676 468.598 512.647 468.506C513.993 465.709 516.407 464.274 518.86 463.318C516.407 462.951 513.412 463.111 510.958 461.27Z" fill="#FEFEFE"/>
<path d="M453.458 171.609C457.783 177.426 461.893 183.364 464.084 190.393C467.079 199.956 465.924 203.662 457.616 210.532C454.933 209.77 452.506 208.296 450.591 206.268C448.695 204.387 447.118 203.877 444.744 204.889C443.37 205.373 441.93 205.641 440.475 205.686C438.221 205.902 436.827 204.889 436.771 202.602C436.524 191.907 436.405 181.212 436.843 170.517C436.964 169.729 437.264 168.979 437.719 168.325L438.651 165.137C440.77 163.496 442.888 163.703 445.023 165.137C446.712 168.795 450.965 169.05 453.458 171.609Z" fill="#BDE385"/>
<path d="M437.719 168.356C437.719 179.267 437.791 190.177 437.719 201.095C437.719 204.084 438.053 205.534 441.701 204.451C444.33 203.654 447.054 203.191 449.611 201.884C449.611 207.375 455.983 206.73 457.632 210.531C453.57 214.269 448.432 214.516 443.358 214.811C441.295 214.946 439.129 214.572 437.671 216.588C434.039 217.656 430.351 217.441 426.647 217.09C426.312 216.744 426.125 216.281 426.125 215.799C426.125 215.317 426.312 214.854 426.647 214.508C426.647 213.464 426.703 212.42 426.735 211.376C428.822 209.216 428.862 207.073 426.687 204.945C426.687 201.422 426.687 197.892 426.687 194.369C426.687 193.15 427.109 191.58 425.094 191.468C423.174 191.333 423.222 189.755 423.238 188.551C423.31 184.327 423.644 180.12 425.883 176.342C430.431 174.676 433.386 170.492 437.719 168.356Z" fill="#A9D964"/>
<path d="M425.803 176.358C425.915 179.642 424.617 182.734 424.306 185.922C424.131 187.747 423.509 189.819 425.015 191.501C420.236 193.094 415.409 192.505 410.677 191.795C404.242 190.823 397.869 189.405 391.473 188.241C388.12 186.265 386.646 182.997 385.476 179.53C388.606 181.26 391.911 180.455 395.241 180.566C405.062 180.909 414.628 180.136 423.916 176.884C424.529 176.653 425.15 176.526 425.803 176.358Z" fill="#B8E17D"/>
<path d="M315.23 194.712C310.188 196.306 305.027 195.167 299.929 195.342C298.209 195.398 298.448 193.748 298.44 192.632C298.44 188.384 298.44 184.145 298.44 179.881V112.674C298.44 111.749 298.44 110.817 298.44 109.892C298.44 109.263 298.376 108.426 299.276 108.346C300.176 108.267 300.614 109.079 300.678 109.884C300.782 111.072 300.758 112.275 300.758 113.463C300.758 138.782 300.837 164.101 300.686 189.42C300.686 192.927 301.594 194.154 305.131 193.844C308.42 193.549 311.758 193.844 315.071 193.844C315.163 193.901 315.238 193.983 315.287 194.08C315.336 194.177 315.358 194.285 315.35 194.393C315.35 194.601 315.302 194.712 315.23 194.712Z" fill="#FDFDFD"/>
<path d="M369.274 153.262C370.421 151.892 371.99 152.465 373.368 152.465C380.657 152.402 387.937 152.338 395.225 152.465C397.567 152.521 398.777 151.668 399.749 149.612C405.444 137.538 411.243 125.512 417.034 113.478C417.385 112.868 417.558 112.171 417.534 111.467C417.51 110.762 417.29 110.079 416.898 109.493C415.488 107.031 415.839 104.632 418.635 103.118C420.897 101.891 422.729 103.006 423.661 104.799C424.919 107.254 424.696 109.82 421.614 110.984C419.957 111.597 419.622 113.032 419.017 114.275C413.162 126.429 407.308 138.574 401.589 150.792C400.426 153.286 398.984 154.243 396.165 154.179C387.403 153.996 378.641 154.131 369.943 154.179C369.306 154.163 368.884 154.019 369.274 153.262Z" fill="#FDFDFD"/>
<path d="M367.665 153.318C365.156 159.096 362.615 164.874 360.146 170.676C359.413 172.405 358.027 172.357 356.546 172.357C350.97 172.357 345.458 172.437 339.922 172.31C337.533 172.254 335.796 172.891 334.832 175.147C334.758 175.255 334.689 175.366 334.625 175.481C331.607 184.128 325.29 186.639 316.767 185.101C316.258 184.71 315.278 184.455 316.313 183.587L317.572 183.475C317.962 183.045 318.193 182.351 318.998 182.614C325.226 183.881 329.599 181.969 331.909 175.673C333.502 171.297 336.585 169.193 341.682 169.863C345.976 170.421 350.396 169.863 354.753 170.03C357.477 170.158 358.792 169.058 359.716 166.603C361.165 162.786 362.902 159.096 364.622 155.374C365.156 154.203 365.554 152.848 367.012 152.386C367.649 152.402 368.215 152.473 367.665 153.318Z" fill="#F8F8F8"/>
<path d="M316.314 183.587L316.768 185.101C317.456 188.132 318.49 191.073 319.85 193.867C320.153 194.032 320.394 194.29 320.537 194.603C320.681 194.917 320.719 195.268 320.647 195.605C320.718 198.45 322.08 200.905 323.036 203.495C324.072 206.388 323.769 208.922 320.822 210.603L312.817 209.01C318.185 205.025 316.799 199.94 315.302 194.784C315.254 194.497 315.198 194.202 315.151 193.915C314.354 191.524 314.776 188.934 313.558 186.663C312.1 185.81 310.706 184.838 309.28 183.921C308.484 183.435 307.193 182.917 308.34 181.531C309.637 181.04 311.053 180.964 312.395 181.314C313.736 181.664 314.935 182.422 315.828 183.483C315.994 183.492 316.158 183.527 316.314 183.587Z" fill="#F7B68F"/>
<path d="M445.063 165.185H438.691C438.691 165.058 438.691 164.834 438.588 164.811C432.654 162.627 433.41 158.108 434.605 153.422C434.684 152.895 434.713 152.361 434.693 151.828C440.929 149.804 442.809 150.553 446.465 156.49C443.677 159.065 445.159 162.252 445.063 165.185Z" fill="#F5B48E"/>
<path d="M446.393 156.538C445.183 155.327 442.881 155.295 442.777 152.792C442.729 151.701 441.415 151.884 440.483 152.067C438.516 152.45 436.564 152.067 434.613 151.876C432.462 150.633 430.375 149.286 432.008 146.345C433.529 143.595 435.879 143.643 438.46 144.751C440.738 145.707 442.928 146.839 445.549 146.823C447.938 146.823 448.735 148.505 448.305 150.617C447.769 152.622 447.131 154.598 446.393 156.538Z" fill="#030303"/>
<path d="M369.274 153.262L369.943 154.139C374.329 161.216 378.715 168.293 383.101 175.37C383.898 176.717 384.694 178.127 385.443 179.506L391.441 188.272C391.712 189.548 393.034 190.376 392.93 191.819C392.038 192.616 391.465 192.098 391.019 191.357C383.505 179.052 376.007 166.736 368.525 154.41C368.342 154.123 368.469 153.613 368.453 153.262H369.274Z" fill="#403E3D"/>
<path d="M372.182 128.453H363.213C364.726 125.919 365.889 123.671 367.92 121.719C369.685 123.726 371.123 125.999 372.182 128.453Z" fill="#FDFDFD"/>
<path d="M402.393 108.529H393.855C393.855 108.115 393.815 107.796 393.942 107.629C395.32 105.748 396.236 102.05 397.925 102.257C400.274 102.592 400.928 106.091 402.393 108.529Z" fill="#FDFDFD"/>
<path d="M315.78 183.443C313.167 182.965 310.746 181.395 307.926 182.064C307.811 182.155 307.679 182.221 307.536 182.256C307.394 182.292 307.246 182.297 307.102 182.27C306.958 182.244 306.821 182.187 306.701 182.103C306.581 182.02 306.48 181.911 306.405 181.785C306.405 179.642 307.249 178.597 309.535 179.147C311.176 179.514 312.857 179.681 314.513 179.944C316.935 180.391 317.214 181.618 315.78 183.443Z" fill="#F39814"/>
<path d="M306.405 181.786L307.926 182.065C309.44 184.009 313.064 183.34 313.502 186.599C308.348 188.6 306.389 187.269 306.405 181.786Z" fill="#FDFCFB"/>
<path d="M367.665 153.318L367.004 152.362C366.375 151.238 365.777 150.09 365.124 148.975C364.396 147.892 363.857 146.692 363.531 145.428C365.523 147.819 367.721 150.043 368.502 153.254L367.665 153.318Z" fill="#403E3D"/>
<path d="M318.998 182.646L317.572 183.507C317.397 182.582 316.903 181.363 318.034 181.004C318.822 180.717 318.894 181.905 318.998 182.646Z" fill="#545B78"/>
<path d="M426.879 216.772C430.423 215.282 434.159 216.668 437.759 215.975C444.394 214.309 451.037 214.062 457.672 216.031C459.114 222.263 458.086 228.543 457.967 234.799C457.537 257.233 456.111 279.62 454.622 302.006L455.243 306.788C455.768 311.355 452.59 312.12 449.205 312.67C449.027 312.71 448.842 312.703 448.667 312.65C448.493 312.597 448.335 312.499 448.21 312.367C448.21 311.259 448.839 310.111 448.01 309.051C445.35 305.154 445.669 300.524 445.031 296.173C444.153 290.624 443.854 284.999 444.139 279.389C443.685 266.685 442.132 254.085 440.34 241.438C438.683 252.547 437.026 263.657 435.37 274.766C433.713 285.876 432.085 297.004 430.487 308.151C430.2 310.167 429.388 311.132 427.15 311.1C424.911 311.068 424.521 309.673 424.418 308.023C423.271 290.57 422.37 273.101 422.984 255.592C423.127 251.487 423.239 247.383 423.358 243.279C421.765 239.573 423.422 235.867 423.358 232.121C424.155 228.28 424.242 224.319 425.19 220.51C425.517 219.203 425.318 217.577 426.879 216.772Z" fill="#585858"/>
<path d="M424.353 231.747C424.351 235.609 424.021 239.464 423.365 243.27L408.144 243.103C408.144 235.484 408.263 227.857 408.088 220.239C408.024 217.314 408.685 216.046 411.911 215.975C415.958 215.879 419.98 215.082 424.018 214.58C425.396 215.728 425.524 217.33 425.357 218.892C424.879 223.171 424.751 227.475 424.353 231.747Z" fill="#548626"/>
<path d="M444.131 279.38L448.002 309.051L442.984 311.482C443.773 300.595 442.522 289.948 444.131 279.38Z" fill="#FBFAF6"/>
<path d="M448.202 312.358C448.401 312.358 448.6 312.406 448.807 312.446C449.82 312.74 450.81 313.108 451.77 313.546C454.868 314.749 455.267 316.383 453.363 319.555H438.683C438.508 316.909 440.85 317.826 442.029 317.363C444.673 316.351 447.636 315.897 448.202 312.358Z" fill="#32312C"/>
<path d="M414.612 319.611L414.756 318.113C416.596 317.666 418.539 317.595 420.196 316.519C421.286 316.117 422.35 315.649 423.382 315.116C424.21 314.628 425.143 314.344 426.103 314.288C427.063 314.233 428.023 314.407 428.902 314.797C430.495 315.594 429.698 317.85 429.475 319.515C424.537 318.081 419.575 320.041 414.612 319.611Z" fill="#263115"/>
<path d="M320.623 195.573C320.36 194.991 320.105 194.409 319.826 193.835H424.489V195.573H320.623Z" fill="#FEFEFE"/>
<path d="M426.639 204.961C427.882 205.837 429.825 205.678 429.825 208.149C429.825 210.619 427.953 210.54 426.639 211.336C425.181 211.336 423.732 211.336 422.593 210.141C421 208.459 418.993 206.22 419.813 204.395C420.57 202.713 423.206 204.395 425.006 204.794C425.546 204.888 426.092 204.944 426.639 204.961Z" fill="#F6B68F"/>
<path d="M424.353 231.747L424.019 214.58L426.615 214.524C426.711 215.274 426.798 216.031 426.894 216.78C426.039 221.769 425.192 226.758 424.353 231.747Z" fill="#F8F8F8"/>
<path d="M166.345 253.057C158.268 250.722 150.972 246.785 144.043 242.131C141.51 240.123 141.462 238.624 144.465 236.743C148.264 234.353 151.697 231.396 155.289 228.678C160.068 232.161 165.102 235.006 170.957 236.186C169.969 240.84 168.95 245.494 168.01 250.164C167.755 251.352 167.747 252.579 166.345 253.057Z" fill="#2E4717"/>
<path d="M182.211 263.936C182.413 265.207 182.719 266.46 183.127 267.681C184.155 270.136 183.972 272.32 181.813 273.945C180.499 274.942 180.738 276.177 180.65 277.428L173.482 276.496C173.811 276.095 173.991 275.592 173.991 275.073C173.991 274.554 173.811 274.051 173.482 273.65C173.067 272.056 171.251 270.957 171.801 268.956C172.462 266.566 173.306 264.302 176.413 264.485C178.364 264.597 180.18 263.21 182.211 263.936Z" fill="#F6B38D"/>
<path d="M309.655 37.6558C316.529 35.8946 323.482 35.5997 330.428 37.6558C323.506 37.0501 316.608 36.4604 309.655 37.6558Z" fill="#D5ECB4"/>
<path d="M704.386 501.834V108.314C704.31 107.122 704.31 105.927 704.386 104.736C704.8 101.612 703.589 100.687 700.403 100.687C627.575 100.772 554.749 100.793 481.926 100.751C479.559 100.643 477.205 101.169 475.108 102.273C474.041 99.3323 473.101 96.3358 471.858 93.4667C471.062 91.6497 472.456 91.0759 473.3 90.2789C477.944 85.4972 477.975 83.6244 473.348 78.6593C472.448 77.687 471.412 76.8343 470.568 75.8301C468.178 73.0248 465.534 72.9292 462.977 75.2324C460.269 77.6232 457.823 77.7747 455.012 75.5432C453.925 74.7812 452.719 74.2049 451.443 73.8377C449.468 73.1683 448.998 72.1322 449.309 69.9645C450.105 64.4576 447.994 62.1703 442.363 61.8037C441.304 61.732 440.244 61.8038 439.177 61.7559C432.661 61.7559 432.454 61.7001 431.212 68.259C430.415 72.5706 426.711 71.4469 424.258 72.7141C424.258 68.8727 424.258 65.0234 424.139 61.1821C424.075 59.2694 424.784 58.4963 426.664 58.7035C427.327 58.7394 427.992 58.7394 428.655 58.7035C519.23 58.7035 609.802 58.6717 700.371 58.6079C704.298 58.6079 705.103 59.6917 705.103 63.4534C705.034 208.117 705.018 352.777 705.055 497.435C705.087 498.87 705.835 500.567 704.386 501.834Z" fill="#E0E0E0"/>
<path d="M683.477 451.706C684.91 461.166 686.28 470.634 687.818 480.07C688.089 481.664 688.335 482.899 686.304 483.258C681.191 482.413 676.029 482.835 670.908 482.963C667.658 483.042 666.758 481.935 667.021 478.898C667.103 476.658 667.049 474.414 666.861 472.18C665.268 469.574 665.659 466.856 666.383 464.123C668.096 462.13 669.761 463.637 671.33 464.298C677.105 466.689 679.183 465.629 680.243 459.413C680.53 457.723 680.808 456.042 681.143 454.368C681.398 453.053 681.7 451.69 683.477 451.706Z" fill="#F8DA40"/>
<path d="M653.926 484.541C650.74 478.117 653.416 471.742 654.069 465.35C656.148 463.629 658.45 463.676 660.856 464.489C662.035 467.087 662.353 469.654 660.577 472.14C659.406 474.531 659.94 477.073 659.94 479.56C659.406 480.644 660.736 483.816 657.55 481.951C654.133 479.966 653.854 481.871 653.926 484.541Z" fill="#EED058"/>
<path d="M660.576 472.14C660.521 469.582 660.457 467.032 660.401 464.473C660.099 464.168 659.882 463.789 659.772 463.373C659.395 461.918 659.568 460.374 660.258 459.038C663.93 458.496 665.834 460.56 667.124 463.636L666.861 472.156L660.576 472.14Z" fill="#FCFCFC"/>
<path d="M523.664 499.603L538.121 497.778C537.539 499.261 537.117 500.336 536.687 501.412C537.396 502.44 538.399 502.042 539.22 502.042C576.863 502.042 614.504 502.042 652.142 502.042C653.058 502.042 653.982 501.899 654.906 501.827L655.623 519.455C615.001 519.455 574.378 519.352 533.756 519.455C529.932 519.455 528.061 518.619 527.383 514.586C526.738 510.864 524.994 507.342 523.895 503.684C523.52 502.417 522.421 501.03 523.664 499.603Z" fill="#548626"/>
<path d="M511.612 533.689C506.578 535.403 501.393 534.263 496.287 534.422C489.07 534.637 489.054 534.478 486.729 527.441C485.263 522.922 483.853 518.38 482.364 513.893C481.79 512.155 481.894 511.279 484.148 511.295C495.674 511.39 507.199 511.358 518.725 511.295C520.549 511.295 521.767 511.773 522.158 513.749C522.628 516.14 524.404 518.284 523.751 520.922C520.963 526.381 517.458 531.155 511.612 533.689Z" fill="#548526"/>
<path d="M484.093 485.122C485.343 484.166 486.809 484.278 488.259 484.278C495.252 484.278 502.245 484.461 509.231 484.278C512.027 484.19 513.285 485.226 513.954 487.768C514.649 490.445 515.513 493.075 516.543 495.642C517.276 497.459 516.041 497.818 514.95 498.439C513.022 500.488 510.338 500.256 507.948 500.519C500.35 501.364 492.815 502.552 485.224 503.484C483.631 503.683 482.038 503.978 480.716 502.751C476.263 501.548 477.936 497.284 476.605 494.526C477.841 490.567 480.512 487.213 484.093 485.122Z" fill="#548626"/>
<path d="M466.426 465.222C466.426 464.736 466.426 464.242 466.426 463.756C468.138 461.995 470.408 462.409 472.424 462.505C479.815 462.848 487.199 463.382 494.248 465.948C495.212 466.482 495.562 467.342 494.973 468.251C492.289 472.419 489.772 476.746 485.502 479.592C481.52 480.962 477.426 480.07 473.387 480.221C471.316 480.293 470.998 478.492 470.472 477.033C469.134 473.096 468.401 468.944 466.426 465.222Z" fill="#548626"/>
<path d="M514.934 474.842C524.356 479.536 531.884 486.35 538.256 495.435L523.735 497.204C522.795 496.886 521.688 497.077 521.266 495.658C519.235 488.677 517.068 481.775 514.934 474.842Z" fill="#548627"/>
<path d="M507.724 470.993L508.521 471.614C512.066 480.277 512.058 480.429 503.041 480.221C498.262 480.11 493.315 481.233 488.576 479.496C490.082 474.228 494.08 470.809 497.736 467.135C501.448 467.43 504.897 468.41 507.724 470.993Z" fill="#558627"/>
<path d="M518.031 500.105C519.975 507.318 519.975 507.318 512.567 507.318C503.312 507.318 494.048 507.318 484.793 507.318C482.953 507.318 480.667 507.915 479.966 505.174C481.177 503.54 483.088 503.851 484.745 503.628C494.813 502.257 504.857 500.711 515.013 499.787C516.028 499.595 517.078 499.706 518.031 500.105Z" fill="#578929"/>
<path d="M511.612 533.689C516.063 529.828 520.143 525.559 523.799 520.938C526.643 524.412 526.587 528.987 528.315 532.892C528.682 533.689 528.14 534.486 527.128 534.414C521.967 534.103 516.75 535.49 511.612 533.689Z" fill="#DCDDDC"/>
<path d="M518.032 500.105L479.966 505.15C478.317 503.763 479.847 503.349 480.699 502.759L514.949 498.448C516.216 498.512 517.546 498.559 518.032 500.105Z" fill="#F8FAF6"/>
<path d="M497.513 467.645L488.584 479.496C487.573 479.831 486.585 480.907 485.518 479.592L495.076 466.84C495.288 466.729 495.52 466.661 495.759 466.641C495.998 466.622 496.238 466.65 496.465 466.725C496.693 466.8 496.903 466.921 497.083 467.079C497.263 467.237 497.409 467.429 497.513 467.645Z" fill="#F2F6EE"/>
<path d="M475.976 491.594C475.864 491.522 475.713 491.482 475.641 491.379C474.295 489.378 472.519 486.167 473.642 485.003C475.41 483.146 478.835 484.485 481.559 484.366C481.353 485.958 480.728 487.466 479.747 488.737C478.765 490.007 477.464 490.993 475.976 491.594Z" fill="#568728"/>
<path d="M475.975 491.594L481.551 484.349C482.459 484.349 483.542 483.807 484.044 485.146L476.581 494.526C475.553 493.705 475.784 492.661 475.975 491.594Z" fill="#F3F6EF"/>
<path d="M654.89 498.551C654.418 497.407 654.326 496.141 654.627 494.941C655.272 496.104 654.961 497.332 654.89 498.551Z" fill="#548626"/>
<path d="M494.248 410.225C500.373 405.387 506.53 400.582 512.568 395.68C513.381 394.95 514.363 394.432 515.424 394.173C516.486 393.915 517.596 393.923 518.653 394.198C530.689 396.589 542.796 398.693 554.895 400.829C557.523 401.291 558.949 401.705 558.081 405.284C553.581 424.41 543.345 440.087 529.956 454.161C525.01 459.365 520.31 462.234 513.285 459.054C512.114 458.528 510.712 458.52 509.414 458.257C504.276 442.302 498.748 426.427 494.248 410.225Z" fill="#A2D559"/>
<path d="M493.555 364.814C502.173 362.32 510.672 359.467 519.617 358.199C531.364 356.405 543.346 356.871 554.919 359.57C546.954 365.866 539.458 371.883 531.868 377.773C519.028 387.742 506.586 398.222 493.404 407.754C489.063 395.441 484.857 383.048 481.512 370.465C484.531 366.472 489.19 365.946 493.555 364.814Z" fill="#A2D559"/>
<path d="M466.266 429.288C468.719 427.447 471.045 429.574 473.53 429.487C479.472 429.272 485.478 429.487 491.388 429.367C493.857 429.311 495.235 429.973 495.984 432.555C497.625 438.134 499.576 443.593 501.456 449.084C502.045 450.805 502.252 452.551 499.863 452.431C491.101 451.993 482.483 453.507 473.777 453.228C473.426 453.228 473.084 452.885 472.741 452.702C475.179 450.311 478.046 452.965 480.149 452.144C473.751 451.777 467.428 450.571 461.343 448.558C460.148 445.03 458.951 441.502 457.751 437.974C460.411 434.97 464.665 433.758 466.672 430.005C466.487 429.798 466.348 429.553 466.266 429.288Z" fill="#A2D559"/>
<path d="M493.555 364.814L481.512 370.481C478.326 363.252 476.414 355.586 473.969 348.11C469.755 335.223 465.773 322.265 461.631 309.362C464.562 303.481 464.538 303.497 468.712 309.211C474.944 317.702 480.34 326.776 484.825 336.307C487.789 338.595 488.067 342.253 489.398 345.369C489.971 346.7 490.361 348.118 490.823 349.497C491.158 350.621 491.524 351.736 491.11 352.924C491.922 356.882 492.738 360.845 493.555 364.814Z" fill="#F2D054"/>
<path d="M447.962 350.086C454.435 350.023 460.911 349.956 467.389 349.887C469.094 349.887 469.914 350.573 470.416 352.278C472.129 358.088 473.961 363.874 475.992 369.596C476.716 371.676 476.159 372.122 474.184 372.114C462.546 372.066 450.901 372.114 439.264 372.059C435.329 372.059 435.64 369.094 435.935 366.368C435.807 360.359 437.711 354.956 440.841 349.911L446.417 349.983C447.054 352.238 445.62 354.023 445.039 356C444.011 359.594 442.522 363.045 442.179 366.026C443.589 361.116 444.593 355.155 447.962 350.086Z" fill="#F2D054"/>
<path d="M472.941 425.351C468.058 425.351 463.168 425.351 458.285 425.462C455.147 425.55 453.506 424.251 452.638 421.183C451.244 416.114 449.643 411.085 447.859 406.128C446.752 403.004 448.169 402.343 450.806 402.359L478.541 402.478C480.803 407.555 480.134 412.998 480.349 418.298C480.452 420.418 478.357 421.486 476.804 422.713C475.578 423.677 474.176 424.395 472.941 425.351Z" fill="#A2D559"/>
<path d="M468.751 376.107L476.103 376.171C477.21 377.318 477.059 378.856 477.306 380.251C478.102 384.778 478.158 389.392 478.66 393.951C478.827 395.489 478.819 397.139 477.529 398.382C468.831 398.382 460.117 398.063 451.435 398.501C446.775 398.74 444.187 397.322 443.311 392.803C451.287 386.505 459.8 380.919 468.751 376.107Z" fill="#A2D559"/>
<path d="M497.514 467.645L495.124 466.848C485.685 464.737 476.191 463.143 466.449 463.732C463.606 456.679 463.749 456.44 471.053 456.456C478.357 456.472 485.59 456.504 492.854 456.528C495.459 457.253 498.183 457.181 500.819 457.731C502.237 458.034 503.583 458.369 504.563 459.533C505.805 463.294 507.836 466.833 507.749 470.969L497.514 467.645Z" fill="#A2D559"/>
<path d="M437.6 345.121C435.115 346.516 432.422 345.671 429.818 345.839C428.655 345.91 428.304 345.042 428.002 344.109C426.066 338.228 424.067 332.362 422.171 326.457C421.375 323.946 423.342 324.321 424.696 324.313C431.18 324.313 437.671 324.313 444.155 324.313C444.396 324.627 444.554 324.997 444.617 325.387C444.679 325.778 444.644 326.178 444.514 326.552C443.041 332.26 441.246 337.88 439.137 343.384C439.017 343.765 438.818 344.117 438.554 344.417C438.289 344.716 437.964 344.956 437.6 345.121Z" fill="#F2D054"/>
<path d="M468.751 376.107C467.795 378.267 465.565 378.761 463.813 379.86C457.723 383.525 451.849 387.535 446.218 391.871C445.824 392.219 445.362 392.481 444.862 392.642C444.361 392.802 443.833 392.857 443.31 392.803C441.948 388.308 440.722 383.758 439.16 379.335C438.252 376.76 438.898 376.067 441.486 376.091C450.574 376.171 459.663 376.115 468.751 376.107Z" fill="#F1D054"/>
<path d="M454.35 324.249C459.448 323.07 461.232 324.074 462.674 328.688C464.163 333.47 465.653 338.252 467.381 342.914C468.289 345.392 467.461 345.934 465.175 345.902C460.037 345.815 454.9 345.855 449.754 345.839C448.862 343.623 450.344 341.806 450.79 339.822C451.913 334.889 454.939 330.473 454.772 325.19C454.58 324.902 454.438 324.584 454.35 324.249Z" fill="#F2D054"/>
<path d="M449.046 325.102C450.639 323.866 452.566 324.44 454.35 324.249L454.462 324.376C454.534 324.48 454.685 324.6 454.677 324.695C453.466 332.155 451.563 339.367 447.397 345.799H442.45C442.191 345.418 442.031 344.979 441.986 344.52C441.942 344.062 442.014 343.6 442.196 343.177C443.789 337.917 445.246 332.617 447.166 327.461C447.292 326.956 447.524 326.483 447.849 326.076C448.173 325.669 448.581 325.337 449.046 325.102Z" fill="#F1D055"/>
<path d="M449.045 325.102L442.45 345.823C440.857 345.711 439.025 346.692 437.607 345.114L444.155 324.337C445.859 323.962 447.731 322.783 449.045 325.102Z" fill="#283316"/>
<path d="M489.556 411.795C490.592 415.174 491.58 418.561 492.679 421.924C493.428 424.235 492.265 425.367 490.289 425.359C485.693 425.359 481.026 426.156 476.525 424.514C477.139 421.374 480.237 420.601 482.141 418.697C484.268 416.561 487.199 415.262 488.768 412.512C488.967 412.211 489.238 411.964 489.556 411.795Z" fill="#A2D559"/>
<path d="M479.791 402.423C486.251 402.255 487.007 402.845 488.648 409.229C488.871 410.105 489.254 410.942 489.556 411.795L489.493 411.882C488.116 413.668 486.41 415.172 484.467 416.313C482.372 417.716 480.795 417.214 480.603 414.632C480.301 410.575 479.13 406.591 479.791 402.423Z" fill="#A2D559"/>
<path d="M479.791 402.422C481.535 406.893 480.755 411.755 481.918 416.489C484.992 415.763 486.442 412.456 489.492 411.882C490.066 413.835 488.696 414.68 487.429 415.668C483.765 418.593 480.133 421.565 476.493 424.514L472.925 425.311C473.02 424.936 473.004 424.331 473.22 424.227C481.36 420.521 479.416 413.628 478.644 407.124C478.344 405.579 478.314 403.994 478.556 402.438L479.791 402.422Z" fill="#F9FCF5"/>
<path d="M440.801 349.935L435.895 366.392C433.306 364.432 433.609 361.371 432.972 358.67C432.846 357.353 433.004 356.024 433.437 354.774C433.87 353.524 434.567 352.382 435.481 351.425C436.779 349.21 438.969 350.23 440.801 349.935Z" fill="#2A3517"/>
<path d="M453.347 319.555C453.753 316.909 454.741 313.976 450.065 314.51C448.998 314.638 448.886 313.363 448.807 312.446C449.141 312.056 449.603 311.275 449.81 311.33C453.729 312.271 454.135 309.123 455.235 306.78C456.915 309.171 457.146 312.159 458.325 314.749C457.752 316.431 458.126 318.543 456.135 319.531L453.347 319.555Z" fill="#F2D054"/>
<path d="M447.396 345.799C449.744 338.658 452.099 331.518 454.462 324.377C456.851 323.787 456.851 324.887 456.19 326.696C453.992 333.072 451.889 339.447 449.754 345.823L447.396 345.799Z" fill="#FEFCF7"/>
<path d="M477.529 398.382C477.051 390.981 476.576 383.577 476.104 376.171C478.692 375.852 478.19 377.9 478.493 379.359C479.059 380.642 478.27 382.108 479.067 383.343C480.429 388.308 482.181 393.25 479.863 398.422C479.098 398.685 478.318 399.745 477.529 398.382Z" fill="#F5FAED"/>
<path d="M479.879 398.366L479.082 383.288C483.065 386.818 482.929 392.102 484.236 396.621C484.889 399.043 481.511 398.047 479.879 398.366Z" fill="#A2D559"/>
<path d="M461.352 448.518C464.315 447.339 466.927 449.22 469.707 449.57C473.437 450.087 477.076 451.128 480.516 452.663H472.75C470.679 452.2 468.441 452.75 466.473 451.65C465.143 451.268 463.606 452.041 462.411 450.917C461.399 450.423 461.829 449.268 461.352 448.518Z" fill="#F8FBF3"/>
<path d="M457.808 436.078C457.457 435.369 457.067 434.683 456.764 433.958C455.275 430.404 455.856 429.495 459.616 429.423L466.29 429.296L466.402 429.4C465.654 431.151 464.473 432.684 462.969 433.852C461.466 435.021 459.689 435.787 457.808 436.078Z" fill="#A2D559"/>
<path d="M510.958 461.27C513.874 461.27 516.63 462.019 519.975 463.222L512.655 468.641C512.233 466.155 510.664 463.923 510.958 461.27Z" fill="#A2D559"/>
<path d="M447.962 350.087C446.119 355.931 444.282 361.749 442.45 367.54C441.359 361.069 444.043 355.586 446.385 350.007L447.962 350.087Z" fill="#FDFCF6"/>
<path d="M435.505 351.425C435.007 353.945 434.163 356.383 432.996 358.67C431.602 357.171 431.403 355.147 430.885 353.338C430.583 352.35 429.021 350.684 430.885 350.094C432.319 349.656 434.597 348.859 435.505 351.425Z" fill="#EACE53"/>
<path d="M457.808 436.078C460.67 433.847 463.535 431.62 466.402 429.4C467.294 429.344 468.218 429.033 469.588 429.934C465.351 432.412 462.65 436.628 457.816 437.903L457.808 436.078Z" fill="#F7FBF2"/>
<path d="M504.547 459.556C500.612 458.672 496.534 458.377 492.846 456.552C495.721 456.552 498.605 456.552 501.48 456.496C503.583 456.464 504.698 457.365 504.547 459.556Z" fill="#EAF4DB"/>
<path d="M455.171 446.303C453.689 445.984 452.064 446.136 450.806 444.948C451.602 443.458 453.116 442.828 454.318 441.856C454.494 443.354 455.513 444.701 455.171 446.303Z" fill="#A2D559"/>
<path d="M456.135 319.579C456.931 317.985 456.852 316.033 458.325 314.797C458.532 316.79 461.44 320.049 456.135 319.579Z" fill="#FAF7E7"/>
<path d="M462.411 450.917C463.829 450.822 465.247 450.702 466.473 451.651C464.92 452.527 463.431 453.021 462.411 450.917Z" fill="#A2D559"/>
<path d="M479.074 383.32C478.182 382.084 478.437 380.69 478.501 379.335C479.568 380.522 479.01 381.965 479.074 383.32Z" fill="#A2D559"/>
<path d="M556.886 360.861C560.12 373.166 561.108 385.033 559.547 397.115C559.308 398.924 558.559 399.306 556.95 399.004C544.206 396.613 531.517 394.278 517.785 391.727L556.886 360.861Z" fill="#A2D559"/>
<path d="M667.124 463.637C665.27 461.743 663.117 460.168 660.752 458.974C660.106 458.965 659.487 458.722 659.007 458.289C657.709 456.026 657.056 453.659 657.821 451.061C658.243 450.491 658.786 450.023 659.412 449.689C660.037 449.355 660.729 449.165 661.437 449.132C663.197 450.726 665.419 451.14 667.681 451.523C670.445 452.049 670.35 450.391 670.119 448.479C669.458 442.9 668.454 437.321 669.864 431.663C670.209 429.725 671.03 427.904 672.253 426.363C674.747 423.542 676.308 423.343 679.685 425.447C684.918 430.794 683.668 437.552 683.58 443.992C683.417 446.563 683.393 449.141 683.508 451.714C681.119 453.667 681.915 456.623 681.485 459.054C680.02 467.135 677.638 468.562 670.406 464.976C669.33 464.45 668.207 464.075 667.124 463.637Z" fill="#E6B38E"/>
<path d="M656.57 426.307L651.512 429.495C651.09 419.932 650.453 410.831 650.381 401.721C650.341 396.828 654.125 393.385 659.238 392.524C663.683 391.775 666.566 393.497 668.908 398.247C671.178 402.861 671.776 407.81 672.285 412.863C672.469 414.64 671.194 415.78 670.621 417.23C670.087 419.621 669.585 422.012 666.574 422.538C663.659 418.266 663.723 413.293 663.667 408.487C663.667 405.531 663.149 403.849 659.852 404.112C659.042 404.124 658.236 404.008 657.462 403.769C652.962 402.725 652.452 403.204 653.711 407.818C654.714 411.484 655.383 415.238 660.656 415.644C663.317 415.851 663.165 418.936 662.99 421.223C662.909 421.604 662.775 421.971 662.592 422.315C660.839 424.012 659.199 425.925 656.57 426.307Z" fill="#232323"/>
<path d="M658.274 450.909C658.291 453.372 658.786 455.808 659.732 458.082C660.815 459.819 659.676 461.835 660.433 463.605C660.433 463.892 660.433 464.178 660.433 464.457C658.466 465.812 656.196 464.912 654.101 465.334C652.672 465.211 651.236 465.211 649.808 465.334C645.825 465.972 644.304 464.154 644.582 460.377C643.786 458.249 644.582 456.392 645.379 454.424C646.685 451.1 645.825 449.267 642.535 447.61C641.898 442.876 641.898 442.876 648.613 442.764C649.123 442.613 649.6 442.358 650.11 442.23C652.611 441.585 655.375 441.13 657.215 443.179C658.156 444.207 658.761 445.498 658.95 446.879C659.139 448.26 658.904 449.665 658.274 450.909Z" fill="#A4D659"/>
<path d="M490.242 349.871L484.817 336.323C494.854 338.076 505.089 338.371 515.404 340.539C514.161 342.3 512.425 342.778 510.784 343.392C507.239 343.463 504.555 345.854 501.353 346.851C497.681 347.95 494.447 350.509 490.242 349.871Z" fill="#E6E6E6"/>
<path d="M658.275 450.909C656.825 443.266 656.825 443.266 648.581 442.74C651.329 437.305 655.089 432.38 656.546 426.307C658.188 424.664 660.067 423.277 662.122 422.195C664.129 424.434 663.444 427.192 663.388 429.734C663.277 435.114 662.417 440.453 662.592 445.856C662.592 447.14 662.464 448.518 661.15 449.323C660.933 449.883 660.526 450.349 660 450.639C659.475 450.929 658.864 451.025 658.275 450.909Z" fill="#EECF59"/>
<path d="M666.917 422.466L670.621 417.238C673.951 419.629 677.622 421.629 679.654 425.438C675.09 424.267 671.911 426.475 670.892 431.017C669.586 436.923 670.35 442.756 671.155 448.55C671.872 453.762 671.951 453.834 666.917 452.431C666.194 451.635 665.793 450.598 665.794 449.522C665.794 440.923 665.308 432.316 666.049 423.725C666.222 423.236 666.522 422.802 666.917 422.466Z" fill="#F8DA40"/>
<path d="M457.663 216.054L437.75 215.998C437.607 214.269 438.491 213.608 440.14 213.759C446.257 214.253 451.976 212.604 457.624 210.571C457.624 212.38 457.639 214.213 457.663 216.054Z" fill="#BDE385"/>
<path d="M642.504 447.586C643.436 446.303 644.376 445.713 645.387 447.506C646.781 449.961 647.872 452.423 646.096 455.189C645.065 456.711 644.528 458.514 644.559 460.353C642.05 456.384 641.986 452.017 642.504 447.586Z" fill="#E5B690"/>
<path d="M490.241 349.871L508.004 343.392C508.92 343.057 509.844 342.085 510.783 343.392L491.109 352.956C490.474 352.058 490.168 350.969 490.241 349.871Z" fill="#ACABAB"/>
<path d="M182.212 263.935C180.8 264.563 179.334 265.059 177.831 265.418C172.757 266.159 171.961 267.585 174.103 272.455C174.35 272.997 174.016 273.435 173.458 273.65C169.651 273.323 168.488 269.665 166.234 267.53C164.641 266.023 167.301 264.342 167.771 262.644C168.822 258.875 175.521 256.46 178.843 258.66C180.292 259.624 181.678 258.484 182.984 259.138C185.239 261.162 183.63 262.533 182.212 263.935Z" fill="#252424"/>
<path d="M660.433 463.621C659.263 461.899 660.043 459.931 659.732 458.098L660.712 458.974C660.617 460.52 660.529 462.075 660.433 463.621Z" fill="#EED058"/>
<path d="M666.71 423.326C666.785 433.033 666.862 442.743 666.941 452.455C664.998 451.419 661.684 452.933 661.135 449.323L662.138 422.227C663.986 421.27 665.46 421.844 666.71 423.326Z" fill="#FEFDFB"/>
<path d="M666.711 423.327L662.139 422.219C662.373 420.777 662.278 419.3 661.86 417.899C661.469 416.529 661.167 415.293 659.263 416.306C658.124 416.935 657.057 416.68 656.077 415.676C653.289 412.879 651.569 404.941 653.066 401.395C655.045 402.081 657.064 402.645 659.112 403.084C664.91 404.001 664.99 403.881 664.823 409.683C664.814 414.022 665.53 418.332 666.942 422.434C666.846 422.753 666.774 423.04 666.711 423.327Z" fill="#E4B18D"/>
</svg>
