<svg width="375" height="374" viewBox="0 0 375 374" fill="none" xmlns="http://www.w3.org/2000/svg">
<g clip-path="url(#clip0_259_1753)">
<path d="M274.356 29.9982C256.765 29.1493 238.87 29.2914 221.882 33.4764C204.895 37.6615 188.74 46.2747 179.072 59.4844C173.537 67.0467 170.234 75.903 163.787 82.8594C152.605 94.9209 134.327 99.0648 117.46 103.224C77.8486 112.948 38.0161 126.999 9.28357 153.321C5.15857 157.095 1.13857 161.399 0.204816 166.617C-1.22768 174.639 5.07982 182.145 12.0773 187.28C19.0748 192.415 27.3548 196.488 32.5336 203.149C39.1373 211.643 39.5086 222.866 37.6336 233.069C35.7586 243.272 31.8998 253.198 30.8836 263.513C30.6323 266.056 30.5723 268.707 31.6786 271.06C33.1448 274.179 36.4036 276.296 39.5986 278.076C50.9258 284.417 63.1489 289.016 75.8536 291.716C97.7423 296.395 120.569 295.516 142.979 297.438C165.389 299.36 188.729 304.739 204.479 319.153C214.139 327.99 222.854 340.882 236.627 340.444C244.345 340.201 251.162 335.496 258.861 334.973C267.527 334.382 275.361 339.087 283.532 341.768C295.139 345.583 308.579 345.213 319.461 339.954C330.344 334.696 338.245 324.396 338.882 313.326C339.505 302.48 333.61 292.333 330.205 281.91C319.037 247.76 334.746 211.672 350.365 178.955C365.984 146.237 382.101 110.419 371.71 76.0713C359.646 36.2328 312.917 31.8608 274.356 29.9982Z" fill="#00A7E7" fill-opacity="0.1"/>
<path d="M88.7955 231.134C88.7955 231.134 75.798 224.028 71.9468 213.119C70.3609 208.536 67.3253 204.589 63.2993 201.872C61.3778 200.597 59.343 199.501 57.2205 198.596" stroke="#535461" stroke-width="0.002" stroke-miterlimit="10"/>
<path d="M54.7421 191.717C55.9721 192.952 57.2958 198.745 57.2958 198.745C57.2958 198.745 51.4946 197.387 50.2646 196.157C49.7051 195.571 49.3927 194.793 49.3927 193.984C49.3927 192.256 50.8181 190.835 52.5502 190.835C53.3673 190.835 54.1537 191.151 54.7421 191.717Z" fill="#00A7E7"/>
<path d="M65.2832 194.893C65.6582 196.595 63.5957 202.175 63.5957 202.175C63.5957 202.175 59.4707 197.893 59.0957 196.191C59.036 195.947 59.0057 195.696 59.0057 195.445C59.0057 193.717 60.431 192.296 62.1632 192.296C63.6875 192.296 65.0049 193.397 65.2719 194.893H65.2832Z" fill="#00A7E7"/>
<path d="M76.7503 206.67C76.1991 208.32 71.6091 212.108 71.6091 212.108C71.6091 212.108 70.2103 206.33 70.7616 204.681C71.1902 203.395 72.4033 202.522 73.7616 202.522C75.496 202.522 76.9232 203.946 76.9232 205.675C76.9232 206.014 76.8685 206.349 76.7616 206.67H76.7503Z" fill="#00A7E7"/>
<path d="M83.3936 217.56C83.1311 219.277 79.2461 223.787 79.2461 223.787C79.2461 223.787 76.8911 218.331 77.1536 216.61C77.4266 215.12 78.741 214.027 80.2597 214.027C81.9918 214.027 83.4172 215.449 83.4172 217.176C83.4172 217.305 83.4093 217.433 83.3936 217.56Z" fill="#00A7E7"/>
<path d="M59.1318 207.082C60.8756 207.063 65.8818 203.858 65.8818 203.858C65.8818 203.858 60.7931 200.769 59.0493 200.788C57.3708 200.861 56.0302 202.258 56.0302 203.934C56.0302 205.636 57.4143 207.046 59.1206 207.082H59.1318Z" fill="#00A7E7"/>
<path d="M67.0668 219.676C68.7243 219.138 72.5493 214.582 72.5493 214.582C72.5493 214.582 66.7668 213.154 65.1093 213.692C63.8662 214.145 63.0341 215.331 63.0341 216.651C63.0341 218.378 64.4594 219.8 66.1916 219.8C66.4878 219.8 66.7822 219.758 67.0668 219.676Z" fill="#00A7E7"/>
<path d="M76.5 230.884C78.225 230.633 82.7662 226.77 82.7662 226.77C82.7662 226.77 77.3062 224.387 75.5812 224.638C74.0343 224.864 72.876 226.202 72.876 227.761C72.876 229.492 74.3044 230.917 76.0406 230.917C76.1944 230.917 76.3477 230.906 76.5 230.884Z" fill="#00A7E7"/>
<path d="M99.0112 200.556C99.0112 200.556 90.0113 188.802 90.9225 177.279C91.3335 172.449 90.162 167.614 87.585 163.504C86.346 161.563 84.9315 159.739 83.3588 158.055" stroke="#535461" stroke-width="0.002" stroke-miterlimit="10"/>
<path d="M83.8791 150.789C84.5016 152.412 83.3616 158.247 83.3616 158.247C83.3616 158.247 78.6066 154.664 77.9841 153.041C77.8153 152.648 77.7283 152.226 77.7283 151.799C77.7283 150.072 79.1537 148.65 80.8858 148.65C82.2388 148.65 83.4482 149.518 83.8791 150.797V150.789Z" fill="#00A7E7"/>
<path d="M92.2326 157.884C91.8576 159.586 87.7327 163.868 87.7327 163.868C87.7327 163.868 85.6964 158.284 86.0564 156.582C86.3452 155.11 87.6509 154.038 89.155 154.038C90.8871 154.038 92.3125 155.459 92.3125 157.187C92.3125 157.424 92.2859 157.66 92.2326 157.891V157.884Z" fill="#00A7E7"/>
<path d="M97.9146 173.34C96.7409 174.626 91.0034 176.234 91.0034 176.234C91.0034 176.234 92.0721 170.389 93.2534 169.102C93.853 168.408 94.7275 168.008 95.6462 168.008C97.3784 168.008 98.8037 169.429 98.8037 171.157C98.8037 171.97 98.4876 172.753 97.9221 173.34H97.9146Z" fill="#00A7E7"/>
<path d="M99.5652 185.991C98.6277 187.457 93.2465 190.008 93.2465 190.008C93.2465 190.008 93.3102 184.065 94.2477 182.599C94.8372 181.753 95.8073 181.248 96.8404 181.248C98.5726 181.248 99.9979 182.669 99.9979 184.397C99.9979 184.956 99.8483 185.505 99.5652 185.988V185.991Z" fill="#6C63FF"/>
<path d="M81.6669 166.527C83.2682 167.212 89.167 166.31 89.167 166.31C89.167 166.31 85.7657 161.43 84.1644 160.745C83.7913 160.597 83.3934 160.52 82.9914 160.52C81.2593 160.52 79.8339 161.941 79.8339 163.669C79.8339 164.898 80.555 166.019 81.6744 166.531L81.6669 166.527Z" fill="#00A7E7"/>
<path d="M83.7838 181.306C85.5163 181.481 90.8676 178.863 90.8676 178.863C90.8676 178.863 86.1576 175.221 84.4251 175.045C84.3591 175.041 84.2935 175.039 84.2275 175.039C82.4953 175.039 81.0699 176.46 81.0699 178.188C81.0699 179.749 82.2339 181.086 83.7838 181.306Z" fill="#00A7E7"/>
<path d="M87.848 195.405C89.528 195.872 95.243 194.189 95.243 194.189C95.243 194.189 91.2192 189.806 89.5392 189.327C89.2418 189.237 88.9328 189.191 88.622 189.191C86.8898 189.191 85.4645 190.613 85.4645 192.34C85.4645 193.778 86.4511 195.041 87.848 195.393V195.405Z" fill="#00A7E7"/>
<path d="M265.045 215.868C265.045 215.868 263.227 201.193 269.838 191.7C272.635 187.737 274.069 182.973 273.922 178.128C273.834 175.828 273.535 173.541 273.029 171.295" stroke="#535461" stroke-width="0.002" stroke-miterlimit="10"/>
<path d="M277.154 165.286C276.869 167.002 272.935 171.464 272.935 171.464C272.935 171.464 270.644 165.977 270.929 164.265C271.213 162.787 272.521 161.708 274.03 161.708C275.762 161.708 277.188 163.129 277.188 164.857C277.188 165.001 277.178 165.146 277.158 165.289L277.154 165.286Z" fill="#00A7E7"/>
<path d="M280.742 175.647C279.568 176.934 273.834 178.546 273.834 178.546C273.834 178.546 274.899 172.7 276.084 171.413C276.677 170.812 277.489 170.473 278.335 170.473C280.067 170.473 281.492 171.895 281.492 173.622C281.492 174.363 281.23 175.08 280.753 175.647H280.742Z" fill="#00A7E7"/>
<path d="M277.83 191.829C276.165 192.349 270.401 190.853 270.401 190.853C270.401 190.853 274.282 186.342 275.944 185.823C276.202 185.756 276.468 185.722 276.736 185.722C278.468 185.722 279.893 187.143 279.893 188.871C279.893 190.19 279.061 191.376 277.819 191.829H277.83Z" fill="#00A7E7"/>
<path d="M272.866 203.635C271.313 204.428 265.366 203.923 265.366 203.923C265.366 203.923 268.426 198.822 269.978 198.029C270.423 197.802 270.916 197.683 271.416 197.683C273.149 197.683 274.575 199.105 274.575 200.834C274.575 202.015 273.909 203.101 272.854 203.639L272.866 203.635Z" fill="#00A7E7"/>
<path d="M267.212 177.791C268.247 179.189 273.789 181.373 273.789 181.373C273.789 181.373 273.324 175.449 272.289 174.051C271.691 173.291 270.775 172.847 269.807 172.847C268.075 172.847 266.649 174.269 266.649 175.996C266.649 176.638 266.846 177.264 267.212 177.791Z" fill="#00A7E7"/>
<path d="M261.603 191.633C263.009 192.657 268.953 193.087 268.953 193.087C268.953 193.087 266.729 187.575 265.323 186.55C264.796 186.189 264.172 185.996 263.533 185.996C261.801 185.996 260.376 187.417 260.376 189.145C260.376 190.119 260.829 191.04 261.603 191.636V191.633Z" fill="#00A7E7"/>
<path d="M257.956 205.84C259.171 207.09 264.954 208.511 264.954 208.511C264.954 208.511 263.698 202.703 262.483 201.453C261.885 200.797 261.036 200.422 260.146 200.422C258.414 200.422 256.989 201.844 256.989 203.571C256.989 204.425 257.337 205.244 257.953 205.837L257.956 205.84Z" fill="#00A7E7"/>
<path d="M176.933 96.5132L74.1119 192.059V332.75H279.751V192.059L176.933 96.5132Z" fill="url(#paint0_linear_259_1753)"/>
<path d="M277.545 330.159H76.3092V192.479L176.929 98.9788L277.545 192.479V330.159Z" fill="#E8EAF1"/>
<path d="M276.772 192.57H76.4465V329.966H276.772V192.57Z" fill="black" fill-opacity="0.1"/>
<path d="M148.462 227.573H141.532V221.29C141.532 218.858 139.526 216.858 137.088 216.858H116.275C113.838 216.858 111.832 218.858 111.832 221.29V242.047C111.832 244.478 113.838 246.479 116.275 246.479H123.205V252.762C123.205 255.193 125.211 257.194 127.649 257.194H148.462C150.9 257.194 152.906 255.193 152.906 252.762V232.005C152.906 229.574 150.9 227.573 148.462 227.573Z" fill="#085C92" fill-opacity="0.5"/>
<path d="M237.569 213.753H216.757C214.319 213.753 212.313 215.754 212.313 218.185V227.932H201.907C199.469 227.932 197.463 229.932 197.463 232.363V242.428H187.687C185.249 242.428 183.243 244.428 183.243 246.86V267.617C183.243 270.048 185.249 272.049 187.687 272.049H208.484C210.922 272.049 212.928 270.048 212.928 267.617V257.556H222.734C225.172 257.556 227.178 255.556 227.178 253.124V243.378H237.584C240.019 243.37 242.017 241.367 242.013 238.938V218.181C242.011 215.751 240.005 213.753 237.569 213.753Z" fill="#085C92" fill-opacity="0.5"/>
<path d="M132.826 183.545C133.303 184.654 134.226 185.512 135.369 185.909C135.871 186.07 136.404 186.126 136.917 186.257C139.366 186.863 141.099 188.972 143.326 190.139C143.505 190.249 143.709 190.313 143.919 190.322H143.994C144.04 190.327 144.086 190.327 144.132 190.322C144.362 190.298 144.58 190.207 144.759 190.061L144.86 189.986C145.102 190.975 145.139 192.003 144.969 193.008C144.084 193.008 138.335 193.359 139.122 200.114C139.974 207.444 148.497 217.692 148.497 217.692C148.497 217.692 154.46 223.765 152.544 244.496L152.33 254.549C152.33 254.549 154.621 254.205 157.542 253.861C157.61 253.996 157.678 254.128 157.749 254.258C158.583 255.71 159.645 257.019 160.895 258.136L165.736 269.648C165.736 269.648 166.152 270.396 166.767 271.578C166.824 274.012 165.309 276.14 165.309 276.14C155.934 278.863 152.105 288.703 152.105 288.703C152.105 288.703 146.817 291.863 145.674 295.394C143.424 297.197 143.592 302.126 143.592 302.126C143.592 302.126 151.467 306.315 157.224 308.619C157.891 308.886 158.587 309.077 159.297 309.187L158.019 311.805C156.684 312.284 156.586 318.862 156.586 318.862C156.586 318.862 170.641 328.915 174.901 329.544C179.161 330.172 182.776 327.24 178.31 325.146C174.706 323.459 170.69 317.019 169.265 314.576C171.05 312.138 176.675 304.235 177.031 301.064C177.459 297.294 182.78 294.152 182.78 294.152C190.449 285.984 185.337 276.354 184.696 271.338C184.696 271.241 184.67 271.136 184.651 271.028C184.181 268.848 183.579 266.698 182.847 264.591C183.684 259.322 184.347 251.09 184.756 245.656C186.447 246.198 188.105 246.841 188.105 246.841C191.214 240.547 180.654 214.625 177.605 207.444C179.379 206.861 182.435 205.948 186.819 204.961C194.274 203.285 194.694 199.515 194.694 199.515L200.442 184.02C199.951 184.237 199.201 184.23 198.324 184.076C198.324 183.946 198.324 183.807 198.324 183.658C198.369 182.188 198.507 179.839 198.942 179.413C198.942 179.413 197.529 179.413 195.811 179.259V179.05L196.584 169.569C196.584 169.569 195.519 159.097 191.9 160.563C188.994 161.741 189.38 171.147 189.65 174.813C189.718 175.75 189.993 176.661 190.456 177.479L190.7 177.909L190.869 178.205C190.71 178.129 190.557 178.041 190.411 177.943V181.185C190.01 180.995 189.774 180.875 189.774 180.875C189.987 184.436 185.514 196.37 185.514 196.37C185.514 196.37 177.639 195.532 175.077 197.208C173.202 198.438 170.757 196.059 169.584 194.706L175.111 182.745C174.448 182.628 173.793 182.468 173.15 182.266C173.176 182.12 173.202 181.967 173.232 181.81C173.51 180.314 174.012 178.193 174.687 177.928C173.712 177.397 172.701 176.935 171.661 176.544C171.687 176.424 171.71 176.297 171.74 176.17C172.137 174.076 172.764 169.55 171.492 166.427C169.79 162.239 169.149 154.085 165.954 155.955C163.419 157.451 163.299 166.465 163.355 170.119C163.37 171.109 163.619 172.082 164.082 172.957L165.312 175.284L165.481 175.605L165.312 175.635V178.496C164.772 178.156 164.461 177.939 164.461 177.939C164.352 181.963 161.682 187.33 159.072 191.65L157.745 190.674L157.419 190.442C157.415 190.4 157.415 190.357 157.419 190.315C157.422 190.273 156.871 190.161 156.009 189.986C154.936 187.955 154.336 185.498 154.002 183.471C153.969 183.257 153.935 183.052 153.905 182.85C154.398 181.76 154.654 180.578 154.655 179.383C154.624 175.182 151.521 171.584 147.361 170.927C147.624 170.639 147.736 170.553 147.819 170.553H147.875C148.006 170.553 148.186 170.613 148.839 170.295C149.491 169.977 150.275 169.479 150.271 168.739C150.271 168.196 149.84 167.751 149.382 167.445C148.284 166.697 148.257 165.444 147.23 165.537C147.033 165.521 146.834 165.548 146.649 165.616C145.711 165.923 144.897 166.506 143.986 166.88C143.348 167.14 142.672 167.294 141.984 167.336C141.544 167.336 141.105 167.371 140.671 167.441C140.324 167.528 139.991 167.662 139.681 167.841C137.757 168.888 135.537 170.482 134.919 172.557C134.341 174.502 135.14 177.023 133.651 178.422C133.379 178.636 133.128 178.875 132.901 179.136C132.711 179.424 132.583 179.749 132.526 180.09C132.264 181.245 132.369 182.453 132.826 183.545ZM171.762 284.245C171.845 285.247 171.654 285.958 171.065 286.19C167.87 287.446 164.251 298.962 164.251 298.962L161.829 303.947C159.908 302.501 158.07 300.949 156.324 299.298L156.586 297.492C156.586 297.492 163.4 292.465 163.827 290.999C164.169 289.821 169.677 285.752 171.762 284.245Z" fill="url(#paint1_linear_259_1753)"/>
<path d="M176.515 206.134C176.515 206.134 190.998 239.566 187.48 246.791C187.48 246.791 181.687 244.521 180.858 244.921C180.029 245.322 171.753 201.792 171.753 201.792L176.515 206.134Z" fill="#085C92"/>
<path d="M176.515 206.134C176.515 206.134 190.998 239.566 187.48 246.791C187.48 246.791 181.687 244.521 180.858 244.921C180.029 245.322 171.753 201.792 171.753 201.792L176.515 206.134Z" fill="#085C92" fill-opacity="0.05"/>
<path d="M168.669 312.583C168.669 312.583 173.634 321.869 177.981 323.934C182.327 325.998 178.809 328.886 174.669 328.268C170.529 327.651 156.876 317.744 156.876 317.744C156.876 317.744 156.969 311.259 158.267 310.788C159.564 310.316 168.669 312.583 168.669 312.583Z" fill="#575988"/>
<path d="M155.636 297.49C155.636 297.49 162.671 304.506 165.761 305.127C168.851 305.748 163.072 309.873 157.485 307.603C151.897 305.332 144.244 301.207 144.244 301.207C144.244 301.207 144.037 294.602 147.555 293.985C151.072 293.368 155.636 297.49 155.636 297.49Z" fill="#575988"/>
<path d="M184.584 240.17C184.584 240.17 183.136 265.348 181.273 268.856C179.409 272.364 172.374 283.094 172.374 283.094C172.374 283.094 164.304 288.872 163.891 290.316C163.479 291.76 156.856 296.711 156.856 296.711L156.444 299.599C156.444 299.599 145.479 298.978 146.098 295.264C146.716 291.55 152.51 288.042 152.51 288.042C152.51 288.042 156.234 278.344 165.339 275.659C165.339 275.659 168.234 271.545 165.751 268.231C165.751 268.231 159.545 252.755 156.028 250.897C152.51 249.038 157.479 238.315 157.479 238.315L184.584 240.17Z" fill="#67647E"/>
<path d="M184.584 240.17C184.584 240.17 183.136 265.348 181.273 268.856C179.409 272.364 172.374 283.094 172.374 283.094C172.374 283.094 164.304 288.872 163.891 290.316C163.479 291.76 156.856 296.711 156.856 296.711L156.444 299.599C156.444 299.599 145.479 298.978 146.098 295.264C146.716 291.55 152.51 288.042 152.51 288.042C152.51 288.042 156.234 278.344 165.339 275.659C165.339 275.659 168.234 271.545 165.751 268.231C165.751 268.231 159.545 252.755 156.028 250.897C152.51 249.038 157.479 238.315 157.479 238.315L184.584 240.17Z" fill="black" fill-opacity="0.05"/>
<path d="M164.346 298.177L157.723 312.015C158.758 315.524 168.688 314.286 168.688 314.286C168.688 314.286 176.345 303.967 176.758 300.253C177.17 296.539 182.345 293.443 182.345 293.443C189.793 285.394 184.828 275.902 184.22 270.95C184.22 270.857 184.194 270.752 184.175 270.644C183.624 267.323 180.275 257.767 177.673 250.612C175.918 245.791 174.497 242.059 174.497 242.059C174.497 242.059 160.622 242.68 157.738 247.631C156.411 249.898 156.988 252.262 158.038 254.154C158.847 255.583 159.88 256.873 161.098 257.976L165.808 269.301C165.808 269.301 174.084 284.366 170.979 285.604C167.874 286.842 164.346 298.177 164.346 298.177Z" fill="#67647E"/>
<path d="M189.05 175.813C189.117 176.732 189.384 177.626 189.833 178.431L190.07 178.857L191.236 180.956H194.96L195.038 179.979L195.788 170.629C195.788 170.629 194.753 160.311 191.236 161.754C188.412 162.929 188.791 172.2 189.05 175.813Z" fill="#F7C4A7"/>
<path d="M190.063 178.869L191.23 180.967H194.953L195.032 179.991C193.3 179.853 191.237 179.52 190.063 178.869Z" fill="black" fill-opacity="0.1"/>
<path d="M189.789 178.874V183.62L197.446 185.684C197.446 185.684 197.446 185.19 197.469 184.502C197.514 183.055 197.649 180.74 198.069 180.321C198.065 180.317 191.859 180.317 189.789 178.874Z" fill="#E6E6F0"/>
<path d="M189.789 181.613V183.577L197.446 185.641C197.446 185.641 197.446 185.147 197.469 184.459C194.915 184.014 191.236 182.316 189.789 181.613Z" fill="black" fill-opacity="0.1"/>
<path d="M145.128 189.494C146.628 193.843 144.674 195.803 144.674 195.803C144.674 195.803 163.297 197.041 158.744 193.739C156.086 191.809 154.908 187.556 154.391 184.355C154.171 183.022 154.035 181.677 153.986 180.327C153.936 178.977 139.106 180.11 142.192 184.246C143.432 185.837 144.422 187.606 145.128 189.494Z" fill="#F7C4A7"/>
<path d="M142.193 184.25C143.693 186.285 144.203 186.584 144.717 188.054C145.183 188.132 145.654 188.171 146.127 188.17C149.674 188.17 153.128 187.44 154.377 184.355C154.157 183.022 154.022 181.677 153.972 180.327C153.923 178.977 139.103 180.11 142.193 184.25Z" fill="black" fill-opacity="0.1"/>
<path d="M146.544 188.762C151.229 188.762 155.026 184.975 155.026 180.302C155.026 175.63 151.229 171.843 146.544 171.843C141.859 171.843 138.062 175.63 138.062 180.302C138.062 184.975 141.859 188.762 146.544 188.762Z" fill="#F7C4A7"/>
<path d="M189.153 181.795C189.153 181.795 197.223 185.909 199.5 184.892L193.912 200.163C193.912 200.163 193.5 203.876 186.255 205.529C179.01 207.183 175.496 208.619 175.496 208.619L162.048 192.727L168.877 194.597C168.877 194.597 172.395 199.549 174.877 197.9C177.36 196.251 185.002 197.073 185.002 197.073C185.002 197.073 189.371 185.304 189.153 181.795Z" fill="#085C92"/>
<path d="M189.153 181.795C189.153 181.795 197.223 185.909 199.5 184.892L193.912 200.163C193.912 200.163 193.5 203.876 186.255 205.529C179.01 207.183 175.496 208.619 175.496 208.619L162.048 192.727L168.877 194.597C168.877 194.597 172.395 199.549 174.877 197.9C177.36 196.251 185.002 197.073 185.002 197.073C185.002 197.073 189.371 185.304 189.153 181.795Z" fill="#085C92" fill-opacity="0.05"/>
<path d="M157.705 191.491C157.705 191.491 146.766 188.372 145.615 194.165C145.615 194.165 150.67 191.708 157.911 196.035C158.455 196.36 158.987 196.708 159.505 197.071C165.88 201.525 170.327 208.429 172.116 216.242L176.74 236.438L177.152 241.869C177.152 241.869 183.775 243.174 185.027 241.218C186.28 239.262 185.44 232.747 183.58 230.574C181.72 228.401 178.81 219.081 178.81 219.081L176.998 213.662C175.483 209.103 173.074 204.889 169.911 201.267L169.476 200.755C166.749 197.486 163.287 194.903 159.373 193.215C158.327 192.755 157.558 192.175 157.705 191.491Z" fill="black" fill-opacity="0.1"/>
<path d="M157.705 191.125C157.705 191.125 146.766 188.006 145.615 193.8C145.615 193.8 150.67 191.342 157.911 195.67C158.455 195.995 158.987 196.343 159.505 196.705C165.88 201.16 170.327 208.064 172.116 215.877L176.74 236.073L177.152 241.503C177.152 241.503 183.775 242.808 185.027 240.852C186.28 238.896 185.44 232.381 183.58 230.208C181.72 228.035 178.821 218.693 178.821 218.693L176.998 213.296C175.483 208.737 173.074 204.524 169.911 200.902L169.472 200.374C166.744 197.111 163.285 194.533 159.373 192.85C158.327 192.386 157.558 191.825 157.705 191.125Z" fill="#E6E6F0"/>
<path d="M185.219 232.633L185.125 236.186L182.23 234.316C182.23 234.316 177.07 215.587 173.437 210.481C173.009 209.879 172.803 208.985 172.402 208.832L157.608 194.594V191.292C157.608 191.292 165.161 196.864 165.779 197.896C166.042 198.334 170.013 200.514 172.402 203.88C174.544 207 176.445 210.277 178.09 213.683L183.055 224.828L185.219 232.633Z" fill="black" fill-opacity="0.1"/>
<path d="M157.608 191.109V194.307L172.608 208.65C173.006 208.803 173.216 209.701 173.643 210.299C177.277 215.408 182.437 234.134 182.437 234.134L185.332 236.004L185.422 232.451L183.266 224.661L178.301 213.515C176.655 210.109 174.754 206.832 172.612 203.713C170.223 200.347 166.237 198.166 165.989 197.729C165.453 196.839 159.614 192.579 158.017 191.42L157.608 191.109Z" fill="#787C9C"/>
<path d="M149.366 171.332C150.022 171.01 150.761 170.528 150.757 169.798C150.693 169.26 150.372 168.785 149.895 168.523C148.714 167.719 148.804 166.279 147.446 166.72C146.539 167.023 145.744 167.599 144.859 167.966C144.239 168.222 143.581 168.374 142.912 168.415C142.485 168.414 142.059 168.448 141.637 168.516C141.299 168.602 140.975 168.736 140.674 168.912C138.787 169.964 137.385 171.709 136.766 173.774C136.204 175.689 136.26 177.959 134.812 179.335C134.551 179.547 134.31 179.782 134.092 180.039C133.904 180.322 133.776 180.642 133.717 180.977C133.457 182.121 133.557 183.318 134.002 184.403C134.46 185.491 135.356 186.337 136.47 186.733C136.957 186.894 137.475 186.95 137.97 187.074C140.347 187.672 142.031 189.751 144.195 190.9C144.367 191.008 144.565 191.069 144.769 191.079C144.993 191.055 145.204 190.966 145.376 190.821C146.212 190.223 146.902 189.299 146.876 188.27C146.808 187.629 146.62 187.006 146.321 186.434C145.868 185.362 145.521 184.248 145.286 183.109C145.211 182.847 145.203 182.571 145.264 182.305C145.421 181.804 145.976 181.557 146.362 181.217C147.112 180.54 147.184 179.384 146.914 178.423C146.644 177.462 146.074 176.616 145.65 175.711C145.504 175.44 145.418 175.14 145.399 174.833C145.399 173.624 147.034 172.963 147.724 172.173C148.68 171.1 148.087 171.964 149.366 171.332Z" fill="black" fill-opacity="0.1"/>
<path d="M149.137 171.332C149.794 171.01 150.532 170.528 150.529 169.798C150.464 169.26 150.143 168.785 149.666 168.523C148.485 167.719 148.575 166.279 147.217 166.72C146.31 167.023 145.515 167.599 144.63 167.966C144.01 168.222 143.353 168.374 142.684 168.415C142.256 168.441 140.876 167.79 140.46 167.887C140.122 167.974 139.797 168.107 139.496 168.284C137.61 169.335 136.207 171.081 135.589 173.146C135.026 175.061 135.42 177.458 133.972 178.834C133.729 179.066 134.059 179.769 133.864 180.042C133.675 180.326 133.547 180.646 133.489 180.981C133.228 182.125 133.328 183.322 133.774 184.407C134.231 185.495 135.127 186.341 136.241 186.737C136.729 186.898 137.246 186.954 137.741 187.077C140.119 187.676 141.802 189.755 143.966 190.903C144.139 191.011 144.336 191.073 144.54 191.083C144.764 191.059 144.975 190.969 145.147 190.825C145.984 190.226 146.674 189.303 146.647 188.274C146.579 187.633 146.391 187.01 146.092 186.438C145.639 185.366 145.292 184.252 145.057 183.113C144.982 182.851 144.974 182.574 145.035 182.309C145.192 181.808 145.747 181.561 146.134 181.22C146.884 180.543 146.955 179.388 146.685 178.427C146.415 177.465 145.845 176.62 145.421 175.715C145.275 175.444 145.189 175.144 145.17 174.836C145.17 173.628 146.805 172.966 147.495 172.177C148.451 171.1 147.859 171.964 149.137 171.332Z" fill="#B96B6B"/>
<path d="M157.989 254.139C161.773 253.69 166.558 253.253 168.654 253.604C172.029 254.165 176.773 251.162 177.624 250.612C175.869 245.791 174.448 242.059 174.448 242.059C174.448 242.059 160.573 242.68 157.689 247.631C156.358 249.887 156.954 252.247 157.989 254.139Z" fill="black" fill-opacity="0.1"/>
<path d="M139.919 200.705C140.747 207.927 149.024 218.04 149.024 218.04C149.024 218.04 154.817 224.024 152.954 244.456L152.747 254.359C152.747 254.359 164.954 252.489 168.681 253.121C172.409 253.753 177.786 250.025 177.786 250.025C177.786 250.025 179.856 214.323 170.957 206.895C169.86 205.207 168.667 203.584 167.384 202.033C164.995 199.149 161.759 195.899 158.706 195.099C158.315 194.994 157.914 194.932 157.51 194.916C157.106 194.899 148.199 189.758 145.716 193.678C145.712 193.689 139.09 193.483 139.919 200.705Z" fill="#085C92"/>
<path d="M177.69 239.213C177.69 239.213 174.394 237.773 168.795 238.18C163.197 238.588 153.259 233.659 153.259 233.659" fill="black" fill-opacity="0.1"/>
<path d="M171.665 285.248C171.665 285.248 171.459 285.869 174.148 286.692C176.836 287.514 177.665 288.341 177.665 288.341" fill="black" fill-opacity="0.05"/>
<path fill-rule="evenodd" clip-rule="evenodd" d="M194.632 148.882C194.632 146.436 192.641 144.45 190.188 144.45H169.376C166.924 144.45 164.932 146.436 164.932 148.882V169.639C164.932 172.085 166.924 174.071 169.376 174.071H190.188C192.641 174.071 194.632 172.085 194.632 169.639V148.882Z" fill="#1299CD"/>
<path d="M163.477 171.186C163.492 172.161 163.734 173.119 164.186 173.984L165.382 176.276L166.211 177.862L171.382 178.273C171.382 178.273 171.491 177.847 171.622 177.151C171.997 175.087 172.616 170.629 171.382 167.551C169.728 163.437 169.106 155.377 166.001 157.232C163.537 158.702 163.421 167.581 163.477 171.186Z" fill="#F7C4A7"/>
<path d="M165.39 176.184V176.248L166.219 177.833L171.39 178.245C171.39 178.245 171.499 177.819 171.63 177.123C169.766 176.401 167.34 175.747 165.39 176.184Z" fill="black" fill-opacity="0.1"/>
<path d="M165.39 176.549V180.263L172.838 184.182C172.838 184.182 172.924 183.509 173.081 182.641C173.351 181.145 173.831 179.077 174.495 178.819C174.48 178.819 169.099 175.722 165.39 176.549Z" fill="#E6E6F0"/>
<path d="M145.227 210.307C147.06 211.917 149.487 212.692 151.917 212.443C165.012 211.115 165.387 206.5 165.387 206.5L167.397 202.06C165.009 199.177 161.772 195.927 158.72 195.126C156.549 198.616 154.625 201.133 154.625 201.133C154.625 201.133 144.901 193.705 142.002 200.722C140.307 204.806 142.827 208.19 145.227 210.307Z" fill="black" fill-opacity="0.05"/>
<path d="M165.39 178.874V180.313L172.838 184.233C172.838 184.233 172.924 183.56 173.081 182.692C169.856 181.667 166.68 179.723 165.39 178.874Z" fill="black" fill-opacity="0.1"/>
<path d="M164.528 178.874C164.528 178.874 170.115 182.793 174.874 183.62L165.15 205.08C165.15 205.08 164.794 209.695 151.695 211.023C149.266 211.271 146.839 210.496 145.005 208.887C142.605 206.77 140.081 203.385 141.769 199.301C144.664 192.285 154.391 199.713 154.391 199.713C154.391 199.713 164.318 186.716 164.528 178.874Z" fill="#085C92"/>
<path d="M76.3092 192.479L176.929 261.321L76.3092 330.159V192.479Z" fill="#E8EAF1"/>
<path d="M277.542 192.479L176.926 261.321L277.542 330.159V192.479Z" fill="#E8EAF1"/>
<path d="M76.3092 330.211L172.98 255.198C175.287 253.384 178.567 253.384 180.874 255.198L277.545 330.211H76.3092Z" fill="url(#paint2_linear_259_1753)"/>
<path d="M76.3092 330.158L172.98 258.425C175.316 256.692 178.538 256.692 180.874 258.425L277.545 330.158H76.3092Z" fill="#E8EAF1"/>
</g>
<defs>
<linearGradient id="paint0_linear_259_1753" x1="176.933" y1="332.75" x2="176.933" y2="96.5132" gradientUnits="userSpaceOnUse">
<stop stop-color="#808080" stop-opacity="0.247059"/>
<stop offset="0.54" stop-color="#808080" stop-opacity="0.117647"/>
<stop offset="1" stop-color="#808080" stop-opacity="0.0980392"/>
</linearGradient>
<linearGradient id="paint1_linear_259_1753" x1="166.426" y1="329.622" x2="166.426" y2="155.664" gradientUnits="userSpaceOnUse">
<stop stop-color="#808080" stop-opacity="0.247059"/>
<stop offset="0.54" stop-color="#808080" stop-opacity="0.117647"/>
<stop offset="1" stop-color="#808080" stop-opacity="0.0980392"/>
</linearGradient>
<linearGradient id="paint2_linear_259_1753" x1="176.929" y1="330.211" x2="176.929" y2="253.837" gradientUnits="userSpaceOnUse">
<stop stop-color="#808080" stop-opacity="0.247059"/>
<stop offset="0.54" stop-color="#808080" stop-opacity="0.117647"/>
<stop offset="1" stop-color="#808080" stop-opacity="0.0980392"/>
</linearGradient>
<clipPath id="clip0_259_1753">
<rect width="375" height="374" fill="white"/>
</clipPath>
</defs>
</svg>
