<svg width="196" height="286" viewBox="0 0 196 286" fill="none" xmlns="http://www.w3.org/2000/svg">
<g filter="url(#filter0_i)">
<path d="M196 0H144.337C138.611 4.68153 134.688 9.97404 133.156 15.6955C128.641 32.5684 145.667 50.4549 159.757 65.2581C170.396 76.4359 179.362 85.8556 176.118 91.7531C172.562 98.1947 158.183 93.582 139.039 87.4398C108.289 77.5729 65.2418 63.761 34.9961 85.4814C2.74163 108.644 -7.18719 166.639 5.08554 208.33C6.64046 213.606 22.968 266.681 58.6581 270.916C75.9421 272.965 88.7613 262.491 101.423 252.147C113.961 241.904 126.343 231.788 142.754 234.084C157.781 236.186 164.727 247.093 172.427 259.181C178.431 268.605 184.893 278.751 196 286V0Z" fill="#1C3F77"/>
</g>
<defs>
<filter id="filter0_i" x="-25" y="-25" width="221" height="311" filterUnits="userSpaceOnUse" color-interpolation-filters="sRGB">
<feFlood flood-opacity="0" result="BackgroundImageFix"/>
<feBlend mode="normal" in="SourceGraphic" in2="BackgroundImageFix" result="shape"/>
<feColorMatrix in="SourceAlpha" type="matrix" values="0 0 0 0 0 0 0 0 0 0 0 0 0 0 0 0 0 0 127 0" result="hardAlpha"/>
<feOffset dx="-25" dy="-25"/>
<feGaussianBlur stdDeviation="25"/>
<feComposite in2="hardAlpha" operator="arithmetic" k2="-1" k3="1"/>
<feColorMatrix type="matrix" values="0 0 0 0 0.130451 0 0 0 0 0.446604 0 0 0 0 0.920833 0 0 0 0.37 0"/>
<feBlend mode="normal" in2="shape" result="effect1_innerShadow"/>
</filter>
</defs>
</svg>
