<svg width="84" height="46" viewBox="0 0 84 46" fill="none" xmlns="http://www.w3.org/2000/svg">
<path d="M63.8387 7.0946C63.7894 8.79128 63.5429 10.497 62.4621 11.9491C61.5433 13.1819 60.3488 13.9668 58.7517 13.9829C58.7022 13.9926 58.6513 13.9926 58.6018 13.9829C58.324 13.8682 57.8752 14.0292 57.7836 13.6468C57.6921 13.2644 58.158 13.3097 58.3663 13.1688C60.1324 11.9763 61.2021 10.3783 61.4859 8.23175C61.7274 6.39822 61.4084 4.72066 60.3991 3.17896C59.9181 2.43267 59.247 1.82794 58.4549 1.42693C58.2405 1.31825 57.8732 1.24076 57.9678 0.895588C58.0543 0.5796 58.3985 0.556455 58.6722 0.548404C59.7339 0.516201 60.6104 0.996222 61.3762 1.65537C63.1273 3.15179 63.8387 4.76393 63.8387 7.0946Z" fill="white"/>
<path d="M75.8 7.18822C75.7557 8.54778 75.5917 9.89325 74.9386 11.1361C74.1707 12.5942 73.0477 13.5955 71.3993 13.9468C70.9122 14.0474 70.4413 13.9468 69.9663 13.8733C69.9068 13.8679 69.8509 13.8421 69.8082 13.8003C69.7655 13.7585 69.7385 13.7032 69.7318 13.6438C69.7357 13.5771 69.7583 13.5127 69.7971 13.4583C69.8359 13.4038 69.8893 13.3614 69.9512 13.3359C72.4731 12.0146 73.5549 9.80268 73.5488 7.08558C73.5428 4.59289 72.5646 2.53092 70.2279 1.3203C70.0699 1.23778 69.926 1.13513 69.926 0.956006C69.926 0.75474 70.1092 0.681277 70.2611 0.631967C70.9797 0.394472 71.6569 0.599764 72.2738 0.933867C74.6296 2.23103 75.7457 4.28093 75.8413 6.92457C75.8359 7.01356 75.8221 7.10184 75.8 7.18822Z" fill="white"/>
<path d="M69.8173 7.24605C69.764 8.34496 69.6553 9.76188 68.9952 11.055C68.2414 12.5363 67.1103 13.5608 65.4488 13.9351C64.9779 14.0418 64.522 13.9663 64.0641 13.8798C63.9333 13.8556 63.7824 13.8114 63.7622 13.6594C63.7371 13.4853 63.877 13.4149 64.0168 13.3374C64.9065 12.8441 65.681 12.1673 66.2891 11.3519C66.9936 10.419 67.3075 9.33922 67.4847 8.21816C67.7866 6.26689 67.3448 4.48467 66.1764 2.89466C65.7432 2.2763 65.1582 1.77971 64.4777 1.45259C64.2412 1.3429 63.9031 1.23723 63.9544 0.92829C64.0138 0.567016 64.4113 0.551922 64.6891 0.541858C65.4076 0.515694 66.0607 0.774321 66.6595 1.1527C68.7255 2.45288 69.8143 4.45247 69.8173 7.24605Z" fill="white"/>
<path d="M83.8295 38.999C83.3686 38.6166 82.8957 38.2473 82.4488 37.8487C82.2707 37.6897 82.1781 37.6877 82.002 37.8487C81.4767 38.3358 80.9333 38.8027 80.3919 39.2697C79.7478 39.8222 79.2135 39.6883 78.9468 38.8893C78.8119 38.459 78.7477 38.0097 78.7566 37.5589C78.7606 33.1244 78.7637 28.6891 78.7657 24.2532C78.7728 23.6363 78.7025 23.021 78.5564 22.4217C77.6507 18.8421 73.8528 18.3289 71.6891 20.2661C69.9915 21.7937 68.3914 23.4411 66.7501 25.0381C66.0527 25.7154 65.3563 26.3947 64.5874 27.1444C64.5874 25.6057 64.5874 24.1898 64.5874 22.7739C64.6004 22.3227 64.5217 21.8735 64.356 21.4536C63.3658 19.0887 59.8959 18.2796 57.9547 19.9612C57.6528 20.2238 57.364 20.5026 57.0792 20.7844C55.2805 22.5602 53.4839 24.3381 51.6893 26.1179C51.321 26.4812 50.9295 26.8224 50.4716 27.243V26.5637C50.4716 19.031 50.4716 11.4989 50.4716 3.96753C50.4716 3.07391 50.3046 2.23866 49.7169 1.54127C48.1309 -0.340576 45.1763 -0.585115 43.3548 1.28566C41.7135 2.97026 40.0027 4.58744 38.3161 6.23682C35.5836 8.91567 32.8527 11.5952 30.1236 14.2754C28.121 16.2404 26.1194 18.2068 24.1188 20.1745C21.4138 22.8292 18.7077 25.4833 16.0007 28.1366C14.0303 30.0701 12.0616 32.0046 10.0945 33.9401C7.78063 36.2165 5.46942 38.4948 3.16089 40.7752C2.12236 41.8077 1.11804 42.8724 0 44.0236C1.08382 44.0236 2.1133 44.0176 3.13372 44.0296C3.34606 44.0296 3.47286 43.929 3.6067 43.7992C5.47714 41.9596 7.34891 40.121 9.22204 38.2835C10.9616 36.5687 12.6979 34.8499 14.4308 33.127C16.6884 30.8896 18.9456 28.6519 21.2024 26.4138C21.7841 25.8372 22.3718 25.2666 22.9565 24.693C23.194 24.7131 23.3147 24.5309 23.4506 24.3911C26.0218 21.7796 28.6684 19.2457 31.2768 16.6725C32.731 15.2375 34.161 13.7793 35.6151 12.3453C35.9834 11.9769 36.3377 11.5935 36.7342 11.2564C38.3 9.69759 39.9444 8.21828 41.478 6.62727C41.7356 6.35959 42.0084 6.07278 42.433 6.25392C42.8577 6.43506 42.901 6.82653 42.9141 7.22302C42.9141 7.27334 42.9141 7.32365 42.9141 7.37397C42.9141 16.2297 42.9157 25.0854 42.9191 33.9412C42.9264 34.1407 42.8904 34.3394 42.8136 34.5237C42.7368 34.708 42.6211 34.8735 42.4743 35.0089C41.5515 35.9085 40.5733 36.7498 39.6837 37.6847C39.1876 38.205 38.6774 38.7202 38.1521 39.2073C37.6268 39.6944 37.1236 39.5686 36.8952 38.8742C36.7539 38.462 36.6831 38.0289 36.6859 37.5931C36.7181 35.819 36.6989 34.0458 36.7 32.2716C36.7 29.5606 36.6879 26.8505 36.707 24.1395C36.712 23.3022 36.7 22.469 36.4051 21.6679C35.8073 20.3597 34.7799 19.5546 33.4354 19.1149C31.933 18.6308 30.5996 18.8733 29.4614 20.0125C27.6882 21.7883 25.9137 23.5639 24.1379 25.339C24.002 25.4749 23.8159 25.5966 23.8672 25.8422V29.4469C25.2509 28.1386 26.5491 26.9159 27.8493 25.6933C28.0395 25.5141 28.2125 25.2756 28.5285 25.3823C28.8928 25.5051 29.0055 25.8301 29.0901 26.1542C29.1158 26.3206 29.1205 26.4897 29.1042 26.6573C29.1042 31.3099 29.1025 35.9625 29.0991 40.6152C29.0991 41.3196 29.0357 42.0321 29.1374 42.7204C29.3386 44.0669 30.2443 44.8891 31.4288 45.4123C33.0107 46.1077 34.9801 46.0423 36.2864 44.7844C37.6952 43.4292 39.1041 42.0727 40.5129 40.7148C41.3522 39.9097 42.1965 39.1046 43.0811 38.2674C43.227 39.4237 43.1304 40.5246 43.1817 41.6195C43.2119 42.2595 43.1012 42.9207 43.3961 43.5315C44.6359 46.1087 48.4278 46.7256 50.4958 44.7029C52.3726 42.8703 54.2695 41.0569 56.1614 39.2385C56.4553 38.9557 56.7652 38.689 57.1396 38.3519C57.1396 39.7296 57.1396 41.0117 57.1396 42.2927C57.1396 43.765 58.1036 45.1104 59.4733 45.6398C61.5 46.4318 63.2279 45.833 64.7062 44.4322C66.429 42.7999 68.0583 41.07 69.7288 39.3834C69.922 39.1892 69.919 39.0634 69.6745 38.8802C69.1653 38.5099 68.6893 38.0963 68.1992 37.6998C67.9305 37.6274 67.7966 37.8407 67.6618 37.9876C67.2442 38.4234 66.7782 38.8048 66.3274 39.2013C65.8766 39.5978 65.3281 39.5032 65.0111 38.9899C64.8754 38.7958 64.8049 38.5636 64.8098 38.3268C64.9004 37.3063 64.683 36.293 64.7505 35.2776C64.7817 34.7945 64.8763 34.3105 64.8229 33.8295C64.7223 32.9238 64.8018 32.0291 64.8229 31.1285C64.8191 30.9951 64.8459 30.8627 64.9014 30.7414C64.9569 30.6202 65.0395 30.5133 65.1429 30.4291C65.4247 30.1936 65.6743 29.9259 65.9319 29.6592C67.1838 28.3822 68.5121 27.1856 69.7992 25.9448C70.4141 25.4829 70.8911 25.5906 71.04 26.2266C71.0904 26.4389 71.0652 26.6563 71.0743 26.8717C71.0833 27.087 71.034 27.3406 71.1991 27.5409C71.1991 27.6747 71.2141 27.8086 71.2151 27.9434C71.2151 32.6138 71.2313 37.2832 71.2051 41.9536C71.1917 42.7198 71.426 43.4698 71.8733 44.092C73.3828 46.2728 76.6031 46.5415 78.2565 44.9595C80.1685 43.13 82.0171 41.2421 83.9 39.3854C84.1012 39.1922 83.9573 39.1057 83.8295 38.999ZM50.2442 30.6313C50.2442 30.7138 50.1566 30.8074 50.0882 30.8739C48.5042 32.4303 46.9189 33.9858 45.3323 35.5402C44.7385 36.1249 44.1639 36.7297 43.5802 37.3244L43.4404 37.2671C43.4404 36.4392 43.4404 35.6103 43.4404 34.7804C43.4418 34.7224 43.4558 34.6654 43.4813 34.6133C43.5068 34.5612 43.5433 34.5152 43.5883 34.4785L50.1083 28.038L50.2522 28.0682C50.2512 28.9226 50.2553 29.7769 50.2442 30.6313ZM57.1235 28.7535C57.1154 30.5247 57.0943 32.2948 57.0983 34.0659C57.1055 34.2128 57.0804 34.3595 57.0247 34.4956C56.9691 34.6318 56.8843 34.7541 56.7763 34.8539C55.3332 36.2755 53.9005 37.7072 52.4782 39.1489C52.1633 39.4679 51.8211 39.7306 51.3823 39.5716C50.9637 39.4186 50.7936 39.004 50.7041 38.5834C50.5672 37.9393 50.6346 37.2852 50.6266 36.6351C50.6175 35.9307 50.6266 35.2262 50.6266 34.5268C50.6266 33.4199 50.6316 32.3129 50.6266 31.214C50.6163 31.0983 50.6316 30.9817 50.6712 30.8726C50.7109 30.7634 50.7739 30.6642 50.856 30.582C52.4615 29.0182 54.0636 27.4517 55.6623 25.8824C55.8867 25.6631 56.1141 25.3843 56.4673 25.4799C56.884 25.5977 57.0399 25.9549 57.0963 26.3605C57.201 27.1595 57.1265 27.9565 57.1235 28.7535ZM64.2805 30.5287C64.2805 30.7591 64.0964 30.8658 63.9283 30.9765C63.2621 31.8349 62.4188 32.5172 61.6671 33.2981C60.3729 34.6516 59.0234 35.9528 57.6951 37.2741C57.6176 37.3516 57.529 37.417 57.362 37.5589C57.362 36.5687 57.3559 35.663 57.368 34.7573C57.368 34.5792 57.5481 34.4896 57.6749 34.3839C59.2015 32.8744 60.7362 31.3649 62.2507 29.8414C62.8938 29.1943 63.4946 28.507 64.1145 27.8377L64.2825 27.9545C64.2825 28.8129 64.2866 29.6673 64.2805 30.5287Z" fill="white"/>
</svg>
