<svg width="1111" height="905" viewBox="0 0 1111 905" fill="none" xmlns="http://www.w3.org/2000/svg">
<g filter="url(#filter0_i_259_1618)">
<path fill-rule="evenodd" clip-rule="evenodd" d="M1003.63 102.756C991.617 91.5124 868.617 -20.888 752.023 4.46754C639.643 28.9017 649.758 155.977 541.055 177.705C442.327 197.44 395.646 100.292 265.989 102.513C122.561 104.973 -17.9913 227.098 2.75062 299.743C23.7057 373.055 200.002 364.356 218.654 435.305C241.012 520.322 -1.41401 573.291 0.516375 679.772C2.6298 790.932 270.127 923.276 511.629 901.701C698.865 884.989 883.526 774.597 868.35 697.674C852.615 617.953 626.593 596.892 631.335 556.129C637.252 506.172 973.715 564.925 1078.1 430.487C1146.71 342.134 1098.53 191.596 1003.63 102.756Z" fill="#DBECF9" fill-opacity="0.97"/>
</g>
<defs>
<filter id="filter0_i_259_1618" x="-24.4951" y="-24.2456" width="1134.89" height="928.279" filterUnits="userSpaceOnUse" color-interpolation-filters="sRGB">
<feFlood flood-opacity="0" result="BackgroundImageFix"/>
<feBlend mode="normal" in="SourceGraphic" in2="BackgroundImageFix" result="shape"/>
<feColorMatrix in="SourceAlpha" type="matrix" values="0 0 0 0 0 0 0 0 0 0 0 0 0 0 0 0 0 0 127 0" result="hardAlpha"/>
<feOffset dx="-25" dy="-25"/>
<feGaussianBlur stdDeviation="25"/>
<feComposite in2="hardAlpha" operator="arithmetic" k2="-1" k3="1"/>
<feColorMatrix type="matrix" values="0 0 0 0 0.129412 0 0 0 0 0.447059 0 0 0 0 0.921569 0 0 0 0.4 0"/>
<feBlend mode="normal" in2="shape" result="effect1_innerShadow_259_1618"/>
</filter>
</defs>
</svg>
