<svg width="702" height="631" viewBox="0 0 702 631" fill="none" xmlns="http://www.w3.org/2000/svg">
<path fill-rule="evenodd" clip-rule="evenodd" d="M634.218 71.2646C626.629 63.4206 548.957 -14.9918 475.289 2.73798C404.284 19.8234 410.634 108.51 341.953 123.706C279.573 137.508 250.113 69.7189 168.199 71.3058C77.5856 73.0636 -11.2492 158.338 1.83192 209.034C15.0475 260.194 126.428 254.073 138.189 303.585C152.288 362.914 -0.885328 399.952 0.300641 474.267C1.60078 551.849 170.555 644.139 323.134 629.012C441.428 617.295 558.125 540.197 548.562 486.514C538.646 430.879 395.86 416.245 398.869 387.794C402.623 352.925 615.17 393.835 681.158 299.976C724.529 238.292 694.144 133.241 634.218 71.2646Z" fill="#DBECF9" fill-opacity="0.97"/>
</svg>
