<svg id="Layer_1" data-name="Layer 1" xmlns="http://www.w3.org/2000/svg" viewBox="0 0 53.67 19.8"><defs><style>.cls-1{fill:#2c7ee9;}.cls-2{fill:#ddceb5;}.cls-3{fill:#ecf6f9;}.cls-4{fill:#e7f2f6;}</style></defs><title>5</title><path class="cls-1" d="M505.81,1085c-4.68,0-9.37-.06-14.05,0-1.73,0-2.21-.66-2.2-2.3s.78-2,2.21-2q14.34,0,28.68,0c1.44,0,2.21.32,2.21,2s-.48,2.32-2.21,2.29C515.57,1084.9,510.69,1085,505.81,1085Z" transform="translate(-479.27 -1065.3)"/><path class="cls-2" d="M509.12,1065.37c1.82-.34,2.1.62,2.15,2.19.06,1.79-.48,2.39-2.33,2.38s-1.93-1-2-2.41C506.9,1065.89,507.36,1065,509.12,1065.37Z" transform="translate(-479.27 -1065.3)"/><path class="cls-3" d="M483.5,1082.86c.34,1.71-.41,2.2-2.08,2.23s-2.14-.6-2.15-2.22.44-2.23,2.15-2.2S483.86,1081.13,483.5,1082.86Z" transform="translate(-479.27 -1065.3)"/><path class="cls-4" d="M532.86,1082.92c.36,1.76-.49,2.14-2.11,2.17-2,.05-1.9-1-2-2.43-.07-1.6.59-1.94,2.07-2C532.63,1080.62,533.17,1081.31,532.86,1082.92Z" transform="translate(-479.27 -1065.3)"/></svg>