<svg id="Layer_1" data-name="Layer 1" xmlns="http://www.w3.org/2000/svg" viewBox="0 0 97.91 71.88"><defs><style>.cls-1{fill:#3dc6c9;}.cls-2{fill:#fdfdfd;}</style></defs><title>7</title><path class="cls-1" d="M293.8,211.76h34.77c5.51,0,8.51,2.84,8.66,8.4q.18,6.89,0,13.78a5.23,5.23,0,0,0,1.9,4.42c2.73,2.49,5.29,5.15,8,7.64,1.21,1.1,1.39,1.82.07,3-2.71,2.51-5.18,5.28-7.89,7.78a5.87,5.87,0,0,0-2.11,4.94c.16,4.29.11,8.59,0,12.89-.1,6-3.15,9-9.09,9H259.2c-6.15,0-9-2.79-9-8.95q0-27.12,0-54.25c0-6,2.72-8.67,8.81-8.67Z" transform="translate(-250.2 -211.75)"/><path class="cls-2" d="M273.9,246.54l8.73,3.68c2,.84,3.23,4.59,2.25,6.51-.45.85-1,.43-1.46.18-4.83-2.39-9.69-4.73-14.47-7.2-1.79-.93-1.73-5.69.07-6.6,4.71-2.39,9.5-4.64,14.23-7,1.15-.57,1.58-.41,1.67.93.2,2.79.31,5.27-3.33,6.19C279.15,243.86,276.9,245.22,273.9,246.54Z" transform="translate(-250.2 -211.75)"/><path class="cls-2" d="M304.62,257.51c-.43-6.2-.43-6.2,4.59-8.35l6.33-2.7c-3.45-1.48-6.3-2.69-9.15-3.93-1.57-.69-2.81-5.09-1.8-6.38.5-.64,1.06-.25,1.57,0,4.75,2.32,9.52,4.58,14.22,7,1.89,1,2,5.6.08,6.58C315.34,252.34,310.14,254.81,304.62,257.51Z" transform="translate(-250.2 -211.75)"/><path class="cls-2" d="M301.78,225.41c-1.37,5-2.62,9.44-3.85,13.94-1.86,6.82-3.7,13.66-5.58,20.48a3.58,3.58,0,0,1-4.72,2c-.78-.41-.45-.95-.29-1.51,3-11.06,6-22.12,9.1-33.17C297.3,224.09,299.73,226.23,301.78,225.41Z" transform="translate(-250.2 -211.75)"/></svg>