<svg id="Layer_1" data-name="Layer 1" xmlns="http://www.w3.org/2000/svg" viewBox="0 0 208.68 4.75"><defs><style>.cls-1{fill:#3cc3c7;}.cls-2{fill:#2c7ce6;}.cls-3{fill:#e8f3f7;}.cls-4{fill:#e7f2f6;}.cls-5{fill:#3cc0c5;}.cls-6{fill:#d5c9b3;}.cls-7{fill:#e8d5b7;}</style></defs><title>2</title><path class="cls-1" d="M515.75,1077.37c-7.38,0-14.77,0-22.15,0-1.7,0-2.79-.11-2.79-2.33s1.07-2.35,2.78-2.34q22.31,0,44.59,0c1.77,0,3.14.09,3.07,2.48s-1.52,2.17-3.06,2.17Z" transform="translate(-402.01 -1072.68)"/><path class="cls-2" d="M428.66,1077.4c-4.68,0-9.36-.07-14,0-1.89,0-2.36-.73-2.35-2.48s.56-2.27,2.25-2.26q14.34.07,28.67,0c1.76,0,2.17.72,2.21,2.32,0,1.8-.57,2.46-2.41,2.42C438.22,1077.34,433.44,1077.4,428.66,1077.4Z" transform="translate(-402.01 -1072.68)"/><path class="cls-3" d="M568.55,1072.89c3.79,0,7.57,0,11.35,0,1.52,0,2.08.5,2.08,2.07s-.38,2.33-2.15,2.31q-11.49-.11-23,0c-1.79,0-1.83-.9-1.86-2.23s.22-2.21,1.92-2.17C560.79,1073,564.67,1072.89,568.55,1072.89Z" transform="translate(-402.01 -1072.68)"/><path class="cls-4" d="M464.15,1072.88c2.49,0,5,.08,7.47,0,1.6-.07,2,.58,2,2.1s-.36,2.34-2.15,2.3c-5-.1-10-.09-14.94,0-1.7,0-2.21-.57-2.24-2.25s.78-2.19,2.34-2.14C459.16,1072.94,461.66,1072.88,464.15,1072.88Z" transform="translate(-402.01 -1072.68)"/><path class="cls-5" d="M610.7,1072.72v4.66c-3.08,0-6.16-.08-9.23,0-1.79.06-2.15-.78-2.15-2.35s.36-2.4,2.15-2.34C604.54,1072.8,607.62,1072.73,610.7,1072.72Z" transform="translate(-402.01 -1072.68)"/><path class="cls-6" d="M402.06,1074.78c-.27-1.68.67-2,2.11-2,1.77,0,2.15.78,2.18,2.37,0,1.83-.86,2.11-2.39,2.16C402,1077.39,401.94,1076.2,402.06,1074.78Z" transform="translate(-402.01 -1072.68)"/><path class="cls-6" d="M480,1075c-.33-1.78.54-2.26,2.19-2.22s2.07.64,2.08,2.17-.42,2.35-2.18,2.37S479.73,1076.66,480,1075Z" transform="translate(-402.01 -1072.68)"/><path class="cls-7" d="M592.28,1075.26c.23,1.5-.41,2.07-2,2s-2-.61-2-2.17.58-2.24,2.25-2.22C592.43,1072.85,592.34,1074,592.28,1075.26Z" transform="translate(-402.01 -1072.68)"/></svg>