<svg id="Layer_1" data-name="Layer 1" xmlns="http://www.w3.org/2000/svg" viewBox="0 0 53.68 4.78"><defs><style>.cls-1{fill:#2c7de7;}.cls-2{fill:#dfebf2;}.cls-3{fill:#d9e7ee;}</style></defs><title>9</title><path class="cls-1" d="M506.52,1072.76c4.69,0,9.37.07,14.05,0,1.92,0,2.34.76,2.33,2.49s-.49,2.3-2.22,2.29q-14.34-.1-28.69,0c-1.77,0-2.16-.74-2.19-2.33,0-1.78.51-2.49,2.38-2.45C497,1072.83,501.74,1072.76,506.52,1072.76Z" transform="translate(-479.52 -1072.72)"/><path class="cls-2" d="M531.06,1072.94c1.78-.33,2.18.58,2.14,2.18,0,1.43-.1,2.39-2,2.39s-2.38-.59-2.34-2.38C528.89,1073.5,529.33,1072.67,531.06,1072.94Z" transform="translate(-479.52 -1072.72)"/><path class="cls-3" d="M479.6,1075.1c-.36-1.86.55-2.23,2.15-2.25,1.93,0,1.91,1.09,2,2.49.08,1.73-.69,2.12-2.29,2.16C479.4,1077.56,479.45,1076.4,479.6,1075.1Z" transform="translate(-479.52 -1072.72)"/></svg>