<svg id="Layer_1" data-name="Layer 1" xmlns="http://www.w3.org/2000/svg" viewBox="0 0 235.05 173.98"><defs><style>.cls-1{fill:#7dc7ee;}.cls-2{fill:#7bc4ec;}.cls-3{fill:#7dc7ed;}.cls-4{fill:#e8d5b7;}.cls-5{fill:#eef8fa;}.cls-6{fill:#3dc5c8;}.cls-7{fill:#3cc3c7;}.cls-8{fill:#2c7de7;}.cls-9{fill:#2c7ce6;}.cls-10{fill:#2c7ee9;}.cls-11{fill:#e8f3f7;}.cls-12{fill:#2c7de6;}.cls-13{fill:#e7f2f6;}.cls-14{fill:#3cc0c5;}.cls-15{fill:#ddceb5;}.cls-16{fill:#dfebf2;}.cls-17{fill:#d8cbb3;}.cls-18{fill:#d5c9b3;}.cls-19{fill:#d9e7ee;}.cls-20{fill:#ecf6f9;}</style></defs><title>5</title><path class="cls-1" d="M545.92,422.39l0,4.29-205.88,0c-1.79,0-3.76.46-3.36-2.56.17-1.29.58-1.78,1.83-1.71.79.05,1.59,0,2.39,0Z" transform="translate(-310.9 -315.64)"/><path class="cls-2" d="M425.77,407q42.83,0,85.67,0c1.93,0,3.69-.09,3.34,2.74-.15,1.25-.65,1.8-1.86,1.79h-1.79q-85.53,0-171,0c-1.22,0-3.11,1-3.39-1.62s.91-2.91,3.1-2.9Q382.79,407.06,425.77,407Z" transform="translate(-310.9 -315.64)"/><path class="cls-1" d="M401.51,320c-20.67,0-41.34,0-62,0-1.94,0-3-.31-2.79-2.58.12-1.27.51-1.83,1.79-1.72.4,0,.8,0,1.2,0q61.71,0,123.41,0c1.17,0,2.88-.85,3.12,1.58s-1,2.68-3,2.68c-19.08-.06-38.15,0-57.22,0Z" transform="translate(-310.9 -315.64)"/><path class="cls-3" d="M381.11,441.71c-13.88,0-27.76,0-41.64,0-1.64,0-3,0-2.77-2.29.12-1.37.46-2,1.91-1.94,1.7.08,3.4,0,5.1,0q39.69,0,79.39,0c1.09,0,2.73-.81,3,1.34s-.52,2.89-2.78,2.88C409.28,441.66,395.2,441.71,381.11,441.71Z" transform="translate(-310.9 -315.64)"/><path class="cls-4" d="M429.71,346.24h34.73c1.51,0,3.14-.5,3.1,2.22,0,2.53-1.52,2.05-2.93,2.05H394.26c-1.54,0-2.82.25-2.8-2.19s1.48-2.09,2.93-2.09Z" transform="translate(-310.9 -315.64)"/><path class="cls-5" d="M428.78,365.6H394.34c-1.53,0-2.95.27-2.85-2.18.08-2.18,1.28-2,2.74-2h69.18c1.57,0,2.87-.17,2.83,2.22s-1.32,2-2.73,2Z" transform="translate(-310.9 -315.64)"/><path class="cls-6" d="M545.88,361.33c0,1.42,0,2.84,0,4.26q-32.37,0-64.73-.07c-1.13,0-2.72.68-2.94-1.48s.54-2.75,2.66-2.73c14.08.08,28.17,0,42.25,0Z" transform="translate(-310.9 -315.64)"/><path class="cls-7" d="M450.94,335.45c-7.38,0-14.76,0-22.14,0-1.7,0-2.79-.11-2.79-2.33s1.07-2.35,2.78-2.35q22.29.06,44.59,0c1.76,0,3.13.08,3.07,2.48s-1.52,2.17-3.06,2.17Z" transform="translate(-310.9 -315.64)"/><path class="cls-8" d="M339,452.49c4.68,0,9.36.07,14,0,1.92,0,2.34.77,2.33,2.5s-.48,2.29-2.22,2.28q-14.34-.09-28.68,0c-1.77,0-2.16-.73-2.19-2.32,0-1.78.51-2.49,2.38-2.45C329.44,452.55,334.23,452.49,339,452.49Z" transform="translate(-310.9 -315.64)"/><path class="cls-9" d="M363.85,335.48c-4.67,0-9.35-.07-14,0-1.9,0-2.36-.74-2.35-2.48s.55-2.28,2.25-2.27q14.34.09,28.67,0c1.76,0,2.17.72,2.2,2.32,0,1.8-.56,2.47-2.4,2.43C373.41,335.41,368.63,335.48,363.85,335.48Z" transform="translate(-310.9 -315.64)"/><path class="cls-10" d="M363.73,396.11c-4.68,0-9.37-.06-14.05,0-1.73,0-2.21-.67-2.2-2.3s.78-2,2.21-2q14.34,0,28.68,0c1.44,0,2.21.31,2.21,2s-.48,2.33-2.21,2.3C373.49,396.05,368.61,396.11,363.73,396.11Z" transform="translate(-310.9 -315.64)"/><path class="cls-11" d="M503.75,331c3.78,0,7.56.05,11.34,0,1.53,0,2.09.5,2.09,2.07s-.39,2.33-2.16,2.31q-11.49-.1-23,0c-1.79,0-1.82-.9-1.85-2.23s.21-2.22,1.92-2.17C496,331,499.87,331,503.75,331Z" transform="translate(-310.9 -315.64)"/><path class="cls-12" d="M332,489.58c-2.78,0-5.57-.07-8.35,0-1.72.06-2.54-.38-2.5-2.31,0-1.72.43-2.51,2.34-2.47q8.49.14,17,0c1.9,0,2.32.73,2.35,2.46,0,1.92-.76,2.38-2.49,2.32C337.53,489.5,334.74,489.58,332,489.58Z" transform="translate(-310.9 -315.64)"/><path class="cls-13" d="M399.34,331c2.49,0,5,.07,7.47,0,1.61-.06,2,.59,2,2.11s-.35,2.34-2.14,2.3c-5-.1-10-.09-14.95,0-1.69,0-2.21-.57-2.23-2.25s.78-2.19,2.34-2.14C394.36,331,396.85,331,399.34,331Z" transform="translate(-310.9 -315.64)"/><path class="cls-10" d="M374.59,350.51c-2.59,0-5.18-.06-7.76,0-1.72.06-1.93-.86-1.92-2.24s.35-2,1.85-2c5.27,0,10.55.05,15.83,0,1.56,0,2.1.57,2.09,2.11s-.39,2.21-2,2.16C380,350.45,377.28,350.52,374.59,350.51Z" transform="translate(-310.9 -315.64)"/><path class="cls-14" d="M545.89,330.8v4.66c-3.07,0-6.15-.08-9.23,0-1.79.06-2.15-.78-2.15-2.35s.36-2.4,2.15-2.35C539.74,330.88,542.82,330.8,545.89,330.8Z" transform="translate(-310.9 -315.64)"/><path class="cls-15" d="M367,376.52c1.82-.34,2.1.62,2.15,2.19.06,1.79-.48,2.39-2.33,2.38s-1.93-1-2-2.42C364.82,377,365.28,376.19,367,376.52Z" transform="translate(-310.9 -315.64)"/><path class="cls-15" d="M315.15,487.39c.32,1.67-.42,2.14-2.09,2.21-2.09.08-2.08-1-2.15-2.56-.08-1.83.79-2.05,2.31-2.09C315.13,484.89,315.35,485.89,315.15,487.39Z" transform="translate(-310.9 -315.64)"/><path class="cls-16" d="M363.55,452.67c1.77-.33,2.18.58,2.14,2.17s-.1,2.4-2,2.39-2.38-.58-2.34-2.37C361.38,453.23,361.81,452.4,363.55,452.67Z" transform="translate(-310.9 -315.64)"/><path class="cls-17" d="M351.65,487.32c.29,1.65-.34,2.28-2.06,2.28s-2.28-.53-2.19-2.2c.07-1.38,0-2.5,1.94-2.46C351.08,485,352,485.47,351.65,487.32Z" transform="translate(-310.9 -315.64)"/><path class="cls-18" d="M337.26,332.86c-.28-1.68.66-2,2.1-2,1.77,0,2.16.77,2.18,2.37,0,1.83-.85,2.11-2.39,2.16C337.15,335.47,337.13,334.27,337.26,332.86Z" transform="translate(-310.9 -315.64)"/><path class="cls-18" d="M415.21,333.08c-.33-1.78.54-2.25,2.19-2.21s2.07.63,2.08,2.16-.42,2.36-2.18,2.38S414.92,334.74,415.21,333.08Z" transform="translate(-310.9 -315.64)"/><path class="cls-19" d="M312.08,454.83c-.35-1.86.55-2.23,2.15-2.25,1.93,0,1.92,1.09,2,2.49.07,1.73-.7,2.12-2.3,2.16C311.89,457.29,311.93,456.13,312.08,454.83Z" transform="translate(-310.9 -315.64)"/><path class="cls-20" d="M341.43,394c.33,1.71-.42,2.2-2.09,2.22s-2.14-.59-2.15-2.21.44-2.23,2.15-2.2S341.78,392.28,341.43,394Z" transform="translate(-310.9 -315.64)"/><path class="cls-13" d="M390.78,394.07c.36,1.76-.49,2.13-2.1,2.17-2,.05-1.91-1-2-2.43-.07-1.6.59-1.94,2.07-2C390.55,391.76,391.09,392.46,390.78,394.07Z" transform="translate(-310.9 -315.64)"/><path class="cls-4" d="M527.47,333.34c.24,1.5-.4,2.07-2,2s-2-.61-2-2.17.58-2.24,2.25-2.23C527.63,330.93,527.54,332.05,527.47,333.34Z" transform="translate(-310.9 -315.64)"/></svg>