<svg width="60" height="60" viewBox="0 0 60 60" fill="none" xmlns="http://www.w3.org/2000/svg">
<g filter="url(#filter0_d_241_884)">
<path d="M54.7609 29.3004C54.8809 27.6204 55.1409 25.8304 52.3609 26.0204C51.0709 26.1104 49.2809 26.7504 48.4509 25.3904C47.3713 23.5979 46.5784 21.6477 46.1009 19.6104C45.7809 18.2604 47.4309 17.5004 48.2209 16.5404C50.7209 13.4704 47.3009 12.7504 46.2209 11.1604C45.0009 9.39041 43.6609 10.3404 42.8609 11.5104C40.6709 14.7304 38.4109 12.5104 36.0609 11.9204C33.7109 11.3304 33.2809 9.63042 33.3709 7.92042C33.5909 3.78042 30.6309 5.35044 28.6709 5.06044C26.0909 4.67044 26.0809 6.35043 26.0509 8.18043C26.0509 9.38043 26.6409 11.2304 24.8909 11.4604C22.4309 11.7804 20.0409 15.1904 17.5309 12.3104C15.0209 9.43044 13.4709 10.6704 11.4309 12.8004C9.9509 14.3404 9.9609 15.2704 11.4909 16.6304C12.5809 17.6304 14.0209 18.8004 13.2209 20.4304C11.9509 23.0304 11.9009 26.7304 7.16089 26.3204C4.04089 26.0404 5.3109 29.1204 5.0509 30.8904C4.7909 32.6604 5.52089 33.3504 7.38089 33.3804C8.97089 33.3804 10.9809 33.1504 11.6209 35.3004C12.3809 37.8504 14.8209 40.3604 11.6209 43.0404C8.26091 45.8804 12.1509 46.7904 13.2809 48.3204C14.7909 50.3204 16.0009 48.7204 17.2109 47.7504C17.9609 47.1504 18.4409 46.1504 19.6809 46.0104C20.587 46.5649 21.5532 47.0145 22.5609 47.3504C25.1309 47.9304 26.6709 49.1204 26.1409 52.0304C26.0739 52.5281 26.1502 53.0346 26.3609 53.4904C27.5609 56.0704 29.8509 54.4904 31.6409 54.7604C33.2609 55.0204 33.4509 53.7604 33.2609 52.6104C32.5109 48.1804 36.1809 47.9104 38.7709 46.5404C41.0909 45.3104 42.0309 47.3904 43.2309 48.4004C44.6309 49.5804 45.5709 49.6304 46.7109 48.2604C47.2749 47.5614 47.9119 46.9245 48.6109 46.3604C49.8709 45.3604 49.7509 44.5504 48.6109 43.5204C47.4709 42.4904 46.1209 41.5704 46.0609 39.9604C45.9409 36.9604 49.3309 33.4104 52.5309 33.3504C55.9209 33.2604 54.6509 30.9304 54.7609 29.3004ZM29.7609 39.2104C27.2517 39.1484 24.8645 38.1152 23.1018 36.3283C21.3392 34.5414 20.3386 32.1402 20.3109 29.6304C20.4074 27.1733 21.4658 24.8525 23.2581 23.1688C25.0503 21.4851 27.4325 20.5734 29.8909 20.6304C35.2809 20.6304 39.2809 24.5504 39.2609 29.7504C39.2424 32.2675 38.2288 34.6751 36.4415 36.4475C34.6541 38.2199 32.2381 39.2131 29.7209 39.2104H29.7609Z" fill="#AFBEDD"/>
</g>
<defs>
<filter id="filter0_d_241_884" x="0" y="0" width="59.9053" height="59.9954" filterUnits="userSpaceOnUse" color-interpolation-filters="sRGB">
<feFlood flood-opacity="0" result="BackgroundImageFix"/>
<feColorMatrix in="SourceAlpha" type="matrix" values="0 0 0 0 0 0 0 0 0 0 0 0 0 0 0 0 0 0 127 0" result="hardAlpha"/>
<feOffset/>
<feGaussianBlur stdDeviation="2.5"/>
<feComposite in2="hardAlpha" operator="out"/>
<feColorMatrix type="matrix" values="0 0 0 0 0 0 0 0 0 0 0 0 0 0 0 0 0 0 0.25 0"/>
<feBlend mode="normal" in2="BackgroundImageFix" result="effect1_dropShadow_241_884"/>
<feBlend mode="normal" in="SourceGraphic" in2="effect1_dropShadow_241_884" result="shape"/>
</filter>
</defs>
</svg>
