<svg id="Layer_1" data-name="Layer 1" xmlns="http://www.w3.org/2000/svg" viewBox="0 0 49.92 49.99"><defs><style>.cls-1{fill:#afbedd;}</style></defs><title>3</title><path class="cls-1" d="M453.18,401.72c.12-1.68.38-3.47-2.4-3.28-1.29.09-3.08.73-3.91-.63a20.09,20.09,0,0,1-2.35-5.78c-.32-1.35,1.33-2.11,2.12-3.07,2.5-3.07-.92-3.79-2-5.38-1.22-1.77-2.56-.82-3.36.35-2.19,3.22-4.45,1-6.8.41s-2.78-2.29-2.69-4c.22-4.14-2.74-2.57-4.7-2.86-2.58-.39-2.59,1.29-2.62,3.12,0,1.2.59,3.05-1.16,3.28-2.46.32-4.85,3.73-7.36.85s-4.06-1.64-6.1.49c-1.48,1.54-1.47,2.47.06,3.83,1.09,1,2.53,2.17,1.73,3.8-1.27,2.6-1.32,6.3-6.06,5.89-3.12-.28-1.85,2.8-2.11,4.57s.47,2.46,2.33,2.49c1.59,0,3.6-.23,4.24,1.92.76,2.55,3.2,5.06,0,7.74-3.36,2.84.53,3.75,1.66,5.28,1.51,2,2.72.4,3.93-.57.75-.6,1.23-1.6,2.47-1.74a14,14,0,0,0,2.88,1.34c2.57.58,4.11,1.77,3.58,4.68a2.64,2.64,0,0,0,.22,1.46c1.2,2.58,3.49,1,5.28,1.27,1.62.26,1.81-1,1.62-2.15-.75-4.43,2.92-4.7,5.51-6.07,2.32-1.23,3.26.85,4.46,1.86,1.4,1.18,2.34,1.23,3.48-.14a12.64,12.64,0,0,1,1.9-1.9c1.26-1,1.14-1.81,0-2.84s-2.49-1.95-2.55-3.56c-.12-3,3.27-6.55,6.47-6.61C454.34,405.68,453.07,403.35,453.18,401.72Zm-25,9.91a9.69,9.69,0,0,1-9.45-9.58,9.37,9.37,0,0,1,9.58-9c5.39,0,9.39,3.92,9.37,9.12A9.53,9.53,0,0,1,428.14,411.63Z" transform="translate(-403.4 -377.38)"/></svg>