<svg id="Layer_1" data-name="Layer 1" xmlns="http://www.w3.org/2000/svg" viewBox="0 0 153.12 152.2"><defs><style>.cls-1{fill:#d1dae9;}.cls-2{fill:#afbedd;}</style></defs><title>4</title><path class="cls-1" d="M387.52,210.21c1.38-.52,2.59-1.48,4-2.07s2-1.45,1.41-3.18c-1.52-4.86-2.91-9.77-4.12-14.72-.52-2.16-1.56-2.65-3.59-2.35-2.25.34-4.55.42-6.84.56-1.33.09-2.7-.06-3.49-1.26-1.1-1.66-2-3.44-3-5.16a2,2,0,0,1-.08-2.24c1.46-2.25,2.28-4.92,4.25-6.83,1.38-1.35,1-2.37-.19-3.5-2.48-2.3-4.88-4.68-7.4-6.92-1.92-1.7-3.35-4.47-5.78-4.92a3.38,3.38,0,0,0-1,0,4.31,4.31,0,0,0-2.83,1.24c-1.78,1.42-3.89,2.42-5.7,3.81a4.21,4.21,0,0,1-1.52-.63c-8.41-5.16-7.3-1.92-7-11.91,0-.3,0-.6.05-.9.14-1.24-.42-1.69-1.64-2-3-.65-6-1.38-9-2.11h0l-2.23-.56c-7.36-1.81-7.64-1.93-10.69,5.09-1.77,4.1-4.09,5.89-8.54,5.24-1.55-.23-2.52-.51-3.23-2-1.27-2.69-2.81-5.27-4.19-7.92-.56-1.07-1.05-1.68-2.53-1.21q-7.68,2.44-15.46,4.51c-2.13.57-2.76,1.87-2.24,3.72.78,2.76.35,5.55.54,8.32.12,1.6-.65,2.38-1.9,3.34-3.44,2.65-6.5,2.35-9.69-.32-1.13-1-2.56-1.53-3.75-2.43s-2.22-1-3.46.33c-3.49,3.71-7.09,7.33-10.81,10.8-1.62,1.52-1.54,2.67-.28,4.28,1.4,1.81,2.59,3.77,3.84,5.69.73,1.12,1.27,2.39.61,3.67-.91,1.77-2,3.43-3,5.15a2,2,0,0,1-1.91,1.17c-2.68-.17-5.41.42-8-.35-1.85-.55-2.57.26-3,1.87-.78,3.29-1.68,6.55-2.39,9.85-.54,2.5-2.26,5.11-1.46,7.45.93,2.71,4.52,2.52,6.75,4a3.36,3.36,0,0,0,.54.26c1.57.54,2,1.66,2,3.26-.38,9.87,1.9,7.31-7,12-.27.14-.53.28-.81.4-1.15.48-1.27,1.18-.9,2.38,1.4,4.56,2.62,9.18,4,13.75,1.24,4.18,2,4.62,6.31,3.92,4.74-.77,4.28-.44,6.94,3.19,3.28,4.49,3,8.26-.4,12.21-.7.81-.8,1.42.05,2.25,4.07,4,8.08,8,12.09,12.07.9.91,1.82,1.28,2.84.27q6-5.93,12.16-.25a2.29,2.29,0,0,0,.27.14c4.57,2.38,4.59,2.41,3.55,7.63-.35,1.76-.26,3,2,3.46,5.23,1.13,10.39,2.59,15.58,3.92,1.45.38,2.42.12,2.95-1.52,1.39-4.26,4.06-6.63,8.85-5.54a.94.94,0,0,0,.29,0c6.13-.62,6.17-.64,9.07,4.84.7,1.32,1.26,1.9,3,1.36,4.54-1.45,9.17-2.6,13.78-3.84,3.67-1,4.61-2,3.5-5.74-1.05-3.56.58-4.91,3.09-6.88,4.46-3.52,8.45-4.12,12.71-.09,1,.93,1.78.7,2.48-.27,3-4.17,6.93-7.45,10.56-11,1.83-1.79,2.09-3.13.35-4.95-3.41-3.59-3.57-7.19-.81-11.46,2.5-3.89,2.16-4.07,6.77-3.4a28.65,28.65,0,0,0,3.59.08,2,2,0,0,0,2.23-1.85c1-4.46,2.06-8.89,3.14-13.32,1.11-4.59,1.16-4.66-3.22-6.72-3-1.42-5.62-2.64-5.94-6.79-.07-.87-.11-1.61-.13-2.26C382.66,213.29,384.38,211.4,387.52,210.21Zm-71.11,44.72c-17.28.77-35.46-14.37-35.24-35.3a35.39,35.39,0,1,1,70.77,1.24C351.6,238.58,335.71,255.8,316.41,254.93Z" transform="translate(-240 -143.53)"/><path class="cls-2" d="M318.18,169c-29.84-.78-52.35,22.22-52.38,50.38,0,28.41,21.88,50.45,50.51,51,28.73-.27,50.71-22.24,51-50.11A50.25,50.25,0,0,0,318.18,169Zm-1.86,90.67c-22.17-.31-39.43-17.17-39.77-38.8-.38-24,17.13-41.19,40.42-41.22,21.65,0,39.68,16.8,39.61,40.78C356.51,241.78,338.27,260.1,316.32,259.64Z" transform="translate(-240 -143.53)"/></svg>