<svg id="Layer_1" data-name="Layer 1" xmlns="http://www.w3.org/2000/svg" viewBox="0 0 153.12 152.2"><defs><style>.cls-1{fill:#e0edfd;}.cls-2{fill:#d1dae9;}</style></defs><title>2</title><path class="cls-1" d="M499.49,393.21c1.38-.52,2.59-1.48,3.95-2.07,1.52-.67,2-1.45,1.42-3.18q-2.3-7.29-4.12-14.72c-.53-2.16-1.56-2.65-3.59-2.35-2.26.34-4.56.42-6.84.56-1.33.09-2.7-.06-3.5-1.26-1.09-1.66-2-3.44-3-5.16a2,2,0,0,1-.09-2.24c1.47-2.25,2.29-4.92,4.25-6.83,1.39-1.35,1-2.37-.18-3.5-2.48-2.3-4.88-4.68-7.41-6.92-1.91-1.7-3.34-4.47-5.77-4.92a3.39,3.39,0,0,0-1,0,4.35,4.35,0,0,0-2.84,1.24c-1.78,1.42-3.89,2.42-5.69,3.81a4.21,4.21,0,0,1-1.52-.63c-8.41-5.16-7.3-1.92-7-11.91,0-.3,0-.6.06-.9.14-1.24-.42-1.69-1.64-2-3-.65-6-1.38-9-2.11h0l-2.23-.56c-7.37-1.81-7.65-1.93-10.69,5.09-1.78,4.1-4.1,5.89-8.54,5.24-1.55-.23-2.52-.51-3.23-2-1.28-2.69-2.81-5.27-4.2-7.92-.56-1.07-1.05-1.68-2.52-1.21q-7.68,2.44-15.46,4.51c-2.14.57-2.77,1.87-2.25,3.72.78,2.76.35,5.55.55,8.32.11,1.6-.66,2.38-1.9,3.34-3.44,2.65-6.5,2.35-9.69-.32-1.14-.95-2.57-1.53-3.75-2.43s-2.22-1-3.47.33c-3.48,3.71-7.08,7.33-10.8,10.8-1.62,1.52-1.55,2.67-.29,4.28,1.4,1.81,2.6,3.77,3.85,5.69.72,1.12,1.27,2.39.61,3.67-.91,1.77-2,3.43-3,5.15A2,2,0,0,1,367,375c-2.68-.17-5.41.42-8-.35-1.85-.55-2.57.26-3,1.87-.79,3.29-1.69,6.55-2.4,9.85-.54,2.5-2.26,5.11-1.45,7.45.93,2.71,4.52,2.52,6.75,3.95a3,3,0,0,0,.54.26c1.56.54,2,1.66,1.95,3.26-.37,9.87,1.91,7.31-6.95,11.95-.26.14-.53.28-.8.4-1.15.48-1.27,1.18-.9,2.38,1.4,4.56,2.61,9.18,4,13.75,1.24,4.18,2,4.62,6.3,3.92,4.75-.77,4.29-.44,6.94,3.19,3.29,4.49,3,8.26-.4,12.21-.7.81-.8,1.42.06,2.25,4.06,4,8.08,8,12.09,12.07.9.91,1.82,1.28,2.84.27,4-3.95,8-4,12.16-.25a1.59,1.59,0,0,0,.26.14c4.58,2.38,4.6,2.41,3.56,7.63-.35,1.76-.26,3,2,3.46,5.23,1.13,10.4,2.59,15.59,3.92,1.44.38,2.42.12,2.95-1.52,1.38-4.26,4.06-6.63,8.84-5.54a1,1,0,0,0,.3,0c6.13-.62,6.16-.64,9.07,4.84.7,1.32,1.25,1.9,3,1.36,4.54-1.45,9.18-2.6,13.78-3.84,3.67-1,4.61-2,3.51-5.74-1.05-3.56.57-4.91,3.08-6.88,4.47-3.52,8.45-4.12,12.71-.09a1.45,1.45,0,0,0,2.49-.27c3-4.17,6.93-7.45,10.55-11,1.83-1.79,2.09-3.13.36-4.95-3.41-3.59-3.57-7.19-.82-11.46,2.51-3.89,2.17-4.07,6.78-3.4a28.6,28.6,0,0,0,3.59.08,2,2,0,0,0,2.23-1.85c1-4.46,2.06-8.89,3.13-13.32,1.11-4.59,1.16-4.66-3.21-6.72-3-1.42-5.63-2.64-5.94-6.79-.07-.87-.12-1.61-.13-2.26C494.62,396.29,496.35,394.4,499.49,393.21Zm-71.12,44.72c-17.28.77-35.45-14.37-35.23-35.3a35.39,35.39,0,1,1,70.77,1.24C463.57,421.58,447.68,438.8,428.37,437.93Z" transform="translate(-351.97 -326.53)"/><path class="cls-2" d="M430.14,352c-29.83-.78-52.34,22.22-52.37,50.38,0,28.41,21.88,50.45,50.51,51,28.73-.27,50.71-22.24,51-50.11A50.25,50.25,0,0,0,430.14,352Zm-1.85,90.67c-22.17-.31-39.43-17.17-39.78-38.8-.38-24,17.13-41.19,40.43-41.22,21.65,0,39.67,16.8,39.6,40.78C468.48,424.78,450.23,443.1,428.29,442.64Z" transform="translate(-351.97 -326.53)"/></svg>