<svg width="468" height="468" viewBox="0 0 468 468" fill="none" xmlns="http://www.w3.org/2000/svg">
<g clip-path="url(#clip0)">
<path d="M342.396 37.5379C320.443 36.4755 298.11 36.6534 276.909 41.8903C255.709 47.1272 235.547 57.9053 223.482 74.435C216.575 83.898 212.452 94.9802 204.407 103.685C190.451 118.778 167.641 123.963 146.59 129.168C97.155 141.336 47.4441 158.918 11.5859 191.856C6.43789 196.578 1.42093 201.965 0.25561 208.494C-1.53215 218.532 6.33961 227.925 15.0725 234.351C23.8054 240.776 34.1388 245.873 40.6019 254.208C48.8434 264.836 49.3067 278.881 46.9667 291.648C44.6267 304.415 39.811 316.836 38.5427 329.743C38.2291 332.925 38.1543 336.244 39.5349 339.187C41.3647 343.09 45.4317 345.739 49.419 347.967C63.5554 355.902 78.8099 361.656 94.6653 365.035C121.982 370.89 150.47 369.79 178.437 372.195C206.405 374.601 235.533 381.331 255.189 399.367C267.245 410.426 278.121 426.558 295.311 426.011C304.942 425.707 313.451 419.819 323.059 419.164C333.874 418.424 343.651 424.312 353.848 427.667C368.333 432.441 385.106 431.978 398.687 425.398C412.269 418.818 422.13 405.929 422.925 392.076C423.702 378.504 416.345 365.807 412.096 352.764C398.159 310.031 417.763 264.874 437.255 223.933C456.748 182.992 476.862 138.172 463.894 95.1908C448.838 45.3395 390.521 39.8685 342.396 37.5379Z" fill="#00A7E7" fill-opacity="0.1"/>
<path d="M110.817 289.227C110.817 289.227 94.5959 280.335 89.7895 266.683C87.8103 260.949 84.0219 256.01 78.9974 252.61C76.5994 251.015 74.06 249.643 71.4111 248.511" stroke="#535461" stroke-width="0.002" stroke-miterlimit="10"/>
<path d="M68.3181 239.903C69.8531 241.448 71.5052 248.697 71.5052 248.697C71.5052 248.697 64.2652 246.998 62.7302 245.458C62.0319 244.726 61.6421 243.752 61.6421 242.739C61.6421 240.578 63.421 238.799 65.5826 238.799C66.6024 238.799 67.5838 239.195 68.3181 239.903Z" fill="#00A7E7"/>
<path d="M81.4735 243.878C81.9415 246.007 79.3675 252.99 79.3675 252.99C79.3675 252.99 74.2195 247.631 73.7515 245.502C73.6771 245.196 73.6392 244.882 73.6392 244.568C73.6392 242.406 75.418 240.627 77.5797 240.627C79.4821 240.627 81.1262 242.005 81.4594 243.878H81.4735Z" fill="#00A7E7"/>
<path d="M95.7844 258.614C95.0965 260.678 89.3681 265.419 89.3681 265.419C89.3681 265.419 87.6225 258.189 88.3105 256.125C88.8454 254.516 90.3594 253.424 92.0545 253.424C94.219 253.424 96.0002 255.205 96.0002 257.37C96.0002 257.793 95.9318 258.213 95.7985 258.614H95.7844Z" fill="#00A7E7"/>
<path d="M104.075 272.241C103.748 274.389 98.8991 280.033 98.8991 280.033C98.8991 280.033 95.9601 273.205 96.2877 271.052C96.6284 269.188 98.2687 267.82 100.164 267.82C102.326 267.82 104.105 269.599 104.105 271.761C104.105 271.921 104.095 272.082 104.075 272.241Z" fill="#00A7E7"/>
<path d="M73.7966 259.129C75.9728 259.106 82.2206 255.095 82.2206 255.095C82.2206 255.095 75.8699 251.23 73.6937 251.253C71.5989 251.345 69.9258 253.093 69.9258 255.19C69.9258 257.32 71.6532 259.084 73.7826 259.129H73.7966Z" fill="#00A7E7"/>
<path d="M83.6994 274.889C85.7679 274.215 90.5415 268.515 90.5415 268.515C90.5415 268.515 83.325 266.727 81.2564 267.401C79.705 267.967 78.6665 269.451 78.6665 271.103C78.6665 273.264 80.4454 275.043 82.6071 275.043C82.9768 275.043 83.3442 274.991 83.6994 274.889Z" fill="#00A7E7"/>
<path d="M95.472 288.913C97.6248 288.599 103.292 283.765 103.292 283.765C103.292 283.765 96.4782 280.784 94.3254 281.097C92.3949 281.38 90.9492 283.054 90.9492 285.005C90.9492 287.172 92.7318 288.955 94.8987 288.955C95.0906 288.955 95.282 288.941 95.472 288.913Z" fill="#00A7E7"/>
<path d="M123.566 250.964C123.566 250.964 112.334 236.255 113.471 221.835C113.984 215.792 112.522 209.741 109.306 204.599C107.76 202.17 105.995 199.887 104.032 197.78" stroke="#535461" stroke-width="0.002" stroke-miterlimit="10"/>
<path d="M104.681 188.688C105.458 190.719 104.035 198.02 104.035 198.02C104.035 198.02 98.1009 193.537 97.3241 191.506C97.1135 191.015 97.0049 190.486 97.0049 189.952C97.0049 187.791 98.7837 186.012 100.945 186.012C102.634 186.012 104.143 187.097 104.681 188.698V188.688Z" fill="#00A7E7"/>
<path d="M115.106 197.566C114.638 199.695 109.49 205.054 109.49 205.054C109.49 205.054 106.949 198.067 107.398 195.937C107.759 194.095 109.388 192.753 111.266 192.753C113.427 192.753 115.206 194.532 115.206 196.693C115.206 196.99 115.173 197.286 115.106 197.575V197.566Z" fill="#00A7E7"/>
<path d="M122.198 216.906C120.733 218.516 113.572 220.528 113.572 220.528C113.572 220.528 114.906 213.214 116.38 211.604C117.129 210.735 118.22 210.234 119.367 210.234C121.528 210.234 123.307 212.013 123.307 214.175C123.307 215.193 122.913 216.172 122.207 216.906H122.198Z" fill="#00A7E7"/>
<path d="M124.257 232.738C123.087 234.572 116.372 237.764 116.372 237.764C116.372 237.764 116.451 230.328 117.621 228.493C118.357 227.434 119.568 226.802 120.857 226.802C123.019 226.802 124.797 228.581 124.797 230.742C124.797 231.442 124.611 232.129 124.257 232.733V232.738Z" fill="#6C63FF"/>
<path d="M101.92 208.382C103.919 209.239 111.28 208.111 111.28 208.111C111.28 208.111 107.036 202.003 105.037 201.147C104.572 200.961 104.075 200.865 103.573 200.865C101.412 200.865 99.6328 202.644 99.6328 204.806C99.6328 206.343 100.533 207.746 101.93 208.387L101.92 208.382Z" fill="#00A7E7"/>
<path d="M104.562 226.874C106.724 227.094 113.403 223.818 113.403 223.818C113.403 223.818 107.525 219.26 105.363 219.04C105.28 219.035 105.198 219.032 105.116 219.032C102.954 219.032 101.175 220.811 101.175 222.973C101.175 224.927 102.628 226.6 104.562 226.874Z" fill="#00A7E7"/>
<path d="M109.634 244.517C111.731 245.102 118.863 242.996 118.863 242.996C118.863 242.996 113.842 237.511 111.745 236.912C111.374 236.799 110.988 236.742 110.6 236.742C108.439 236.742 106.66 238.521 106.66 240.683C106.66 242.481 107.891 244.062 109.634 244.503V244.517Z" fill="#00A7E7"/>
<path d="M330.777 270.124C330.777 270.124 328.507 251.76 336.758 239.882C340.249 234.922 342.038 228.961 341.854 222.898C341.745 220.02 341.372 217.158 340.74 214.348" stroke="#535461" stroke-width="0.002" stroke-miterlimit="10"/>
<path d="M345.888 206.828C345.533 208.976 340.623 214.559 340.623 214.559C340.623 214.559 337.764 207.694 338.119 205.55C338.473 203.701 340.107 202.351 341.99 202.351C344.152 202.351 345.93 204.129 345.93 206.291C345.93 206.472 345.918 206.653 345.893 206.833L345.888 206.828Z" fill="#00A7E7"/>
<path d="M350.366 219.794C348.901 221.404 341.745 223.421 341.745 223.421C341.745 223.421 343.074 216.106 344.553 214.496C345.293 213.743 346.306 213.319 347.362 213.319C349.524 213.319 351.303 215.098 351.303 217.26C351.303 218.187 350.975 219.084 350.38 219.794H350.366Z" fill="#00A7E7"/>
<path d="M346.732 240.042C344.654 240.693 337.46 238.821 337.46 238.821C337.46 238.821 342.304 233.177 344.377 232.526C344.7 232.443 345.032 232.4 345.366 232.4C347.528 232.4 349.306 234.179 349.306 236.341C349.306 237.992 348.268 239.476 346.717 240.042H346.732Z" fill="#00A7E7"/>
<path d="M340.536 254.816C338.599 255.808 331.176 255.176 331.176 255.176C331.176 255.176 334.995 248.793 336.933 247.801C337.488 247.517 338.104 247.368 338.727 247.368C340.89 247.368 342.67 249.148 342.67 251.311C342.67 252.789 341.838 254.148 340.522 254.821L340.536 254.816Z" fill="#00A7E7"/>
<path d="M333.481 222.476C334.772 224.226 341.689 226.959 341.689 226.959C341.689 226.959 341.109 219.546 339.817 217.796C339.071 216.846 337.927 216.29 336.719 216.29C334.557 216.29 332.779 218.069 332.779 220.231C332.779 221.033 333.023 221.816 333.481 222.476Z" fill="#00A7E7"/>
<path d="M326.48 239.797C328.235 241.079 335.653 241.617 335.653 241.617C335.653 241.617 332.878 234.719 331.123 233.437C330.466 232.985 329.687 232.743 328.89 232.743C326.728 232.743 324.949 234.522 324.949 236.684C324.949 237.903 325.515 239.056 326.48 239.802V239.797Z" fill="#00A7E7"/>
<path d="M321.93 257.576C323.446 259.139 330.662 260.917 330.662 260.917C330.662 260.917 329.095 253.649 327.578 252.086C326.832 251.265 325.772 250.796 324.662 250.796C322.501 250.796 320.722 252.575 320.722 254.736C320.722 255.805 321.156 256.829 321.925 257.571L321.93 257.576Z" fill="#00A7E7"/>
<path d="M220.813 120.771L92.4917 240.331V416.383H349.129V240.331L220.813 120.771Z" fill="url(#paint0_linear)"/>
<path d="M346.377 413.14H95.2339V240.855L220.808 123.855L346.377 240.855V413.14Z" fill="#E8EAF1"/>
<path d="M345.411 240.97H95.4053V412.899H345.411V240.97Z" fill="black" fill-opacity="0.1"/>
<path fill-rule="evenodd" clip-rule="evenodd" d="M264.975 98.2003C264.975 101.261 267.46 103.746 270.521 103.746L296.495 103.746C299.555 103.746 302.041 101.261 302.041 98.2003V72.2263C302.041 69.1656 299.555 66.6805 296.495 66.6805L270.521 66.6805C267.46 66.6805 264.975 69.1656 264.975 72.2263V98.2003Z" fill="#00A7E7"/>
<path fill-rule="evenodd" clip-rule="evenodd" d="M225.67 144.018C225.67 147.078 228.155 149.563 231.216 149.563L257.19 149.563C260.251 149.563 262.736 147.078 262.736 144.018V118.044C262.736 114.983 260.251 112.498 257.19 112.498L231.216 112.498C228.155 112.498 225.67 114.983 225.67 118.044L225.67 144.018Z" fill="#00A7E7"/>
<path fill-rule="evenodd" clip-rule="evenodd" d="M326.788 79.462C326.788 82.5227 329.273 85.0078 332.334 85.0078L358.308 85.0078C361.369 85.0078 363.854 82.5227 363.854 79.462V53.488C363.854 50.4273 361.369 47.9422 358.308 47.9422L332.334 47.9422C329.273 47.9422 326.788 50.4273 326.788 53.488V79.462Z" fill="#00A7E7"/>
<path d="M185.28 284.77H176.632V276.908C176.632 273.866 174.128 271.362 171.086 271.362H145.112C142.069 271.362 139.566 273.866 139.566 276.908V302.882C139.566 305.925 142.069 308.428 145.112 308.428H153.76V316.29C153.76 319.333 156.264 321.836 159.306 321.836H185.28C188.323 321.836 190.826 319.333 190.826 316.29V290.316C190.826 287.274 188.323 284.77 185.28 284.77Z" fill="#085C92" fill-opacity="0.5"/>
<path d="M296.486 267.478H270.512C267.47 267.478 264.966 269.981 264.966 273.023V285.219H251.979C248.937 285.219 246.434 287.723 246.434 290.765V303.359H234.233C231.19 303.359 228.687 305.862 228.687 308.905V334.879C228.687 337.921 231.19 340.425 234.233 340.425H260.188C263.231 340.425 265.734 337.921 265.734 334.879V322.29H277.972C281.015 322.29 283.518 319.786 283.518 316.744V304.548H296.505C299.544 304.538 302.037 302.031 302.032 298.993V273.019C302.03 269.978 299.527 267.478 296.486 267.478Z" fill="#085C92" fill-opacity="0.5"/>
<path d="M165.767 229.677C166.362 231.064 167.514 232.138 168.94 232.635C169.567 232.836 170.232 232.906 170.873 233.07C173.929 233.828 176.091 236.468 178.871 237.928C179.094 238.066 179.348 238.145 179.61 238.157H179.704C179.762 238.163 179.82 238.163 179.877 238.157C180.164 238.127 180.436 238.013 180.659 237.83L180.785 237.736C181.087 238.974 181.133 240.261 180.921 241.518C179.816 241.518 172.642 241.957 173.625 250.41C174.687 259.582 185.325 272.406 185.325 272.406C185.325 272.406 192.766 280.006 190.374 305.947L190.108 318.527C190.108 318.527 192.967 318.096 196.613 317.666C196.697 317.834 196.783 318 196.87 318.162C197.911 319.979 199.237 321.618 200.797 323.015L206.839 337.42C206.839 337.42 207.358 338.356 208.126 339.835C208.196 342.882 206.305 345.545 206.305 345.545C194.605 348.952 189.827 361.265 189.827 361.265C189.827 361.265 183.228 365.219 181.801 369.637C178.993 371.893 179.203 378.061 179.203 378.061C179.203 378.061 189.031 383.303 196.215 386.186C197.048 386.52 197.916 386.759 198.803 386.897L197.207 390.173C195.541 390.772 195.419 399.004 195.419 399.004C195.419 399.004 212.96 411.584 218.277 412.37C223.593 413.157 228.105 409.487 222.531 406.867C218.033 404.756 213.021 396.697 211.242 393.641C213.47 390.59 220.49 380.701 220.935 376.732C221.468 372.015 228.109 368.083 228.109 368.083C237.68 357.862 231.301 345.811 230.501 339.535C230.501 339.414 230.468 339.283 230.445 339.147C229.858 336.419 229.106 333.729 228.193 331.093C229.237 324.499 230.065 314.198 230.576 307.398C232.686 308.077 234.755 308.881 234.755 308.881C238.635 301.005 225.456 268.568 221.651 259.582C223.864 258.852 227.679 257.71 233.15 256.475C242.453 254.378 242.978 249.661 242.978 249.661L250.152 230.272C249.539 230.543 248.603 230.534 247.508 230.342C247.508 230.178 247.508 230.005 247.508 229.818C247.564 227.978 247.737 225.039 248.28 224.506C248.28 224.506 246.516 224.506 244.372 224.314V224.052L245.336 212.188C245.336 212.188 244.007 199.084 239.491 200.919C235.864 202.393 236.346 214.163 236.683 218.749C236.768 219.922 237.111 221.062 237.689 222.086L237.993 222.624L238.204 222.994C238.006 222.899 237.815 222.79 237.633 222.667V226.724C237.132 226.485 236.837 226.336 236.837 226.336C237.104 230.791 231.521 245.725 231.521 245.725C231.521 245.725 221.693 244.677 218.496 246.773C216.156 248.313 213.105 245.336 211.64 243.642L218.539 228.676C217.711 228.529 216.893 228.328 216.091 228.077C216.124 227.894 216.156 227.702 216.194 227.506C216.54 225.634 217.167 222.98 218.01 222.648C216.792 221.984 215.531 221.405 214.233 220.916C214.266 220.766 214.294 220.607 214.331 220.448C214.827 217.827 215.609 212.165 214.022 208.257C211.898 203.015 211.097 192.813 207.11 195.153C203.946 197.025 203.797 208.304 203.867 212.876C203.886 214.115 204.196 215.332 204.775 216.428L206.31 219.339L206.52 219.742L206.31 219.779V223.359C205.636 222.933 205.247 222.662 205.247 222.662C205.112 227.698 201.78 234.413 198.522 239.819L196.866 238.597L196.458 238.307C196.454 238.254 196.454 238.201 196.458 238.148C196.463 238.095 195.775 237.956 194.699 237.736C193.36 235.195 192.611 232.12 192.195 229.584C192.153 229.317 192.111 229.059 192.073 228.807C192.689 227.443 193.008 225.965 193.009 224.468C192.971 219.212 189.099 214.71 183.907 213.887C184.234 213.526 184.375 213.419 184.478 213.419H184.548C184.712 213.419 184.936 213.494 185.751 213.096C186.565 212.698 187.543 212.076 187.538 211.149C187.538 210.47 187 209.914 186.429 209.53C185.058 208.594 185.025 207.026 183.743 207.143C183.497 207.122 183.249 207.156 183.017 207.241C181.847 207.625 180.832 208.355 179.695 208.823C178.899 209.149 178.054 209.342 177.195 209.394C176.647 209.394 176.099 209.438 175.557 209.525C175.125 209.634 174.709 209.802 174.322 210.026C171.921 211.336 169.151 213.33 168.378 215.927C167.658 218.361 168.654 221.515 166.797 223.266C166.457 223.533 166.144 223.833 165.861 224.159C165.623 224.52 165.464 224.927 165.393 225.353C165.066 226.798 165.197 228.31 165.767 229.677ZM214.359 355.686C214.462 356.94 214.224 357.83 213.489 358.12C209.502 359.692 204.985 374.102 204.985 374.102L201.962 380.34C199.565 378.531 197.271 376.589 195.092 374.523L195.419 372.263C195.419 372.263 203.923 365.973 204.456 364.138C204.882 362.664 211.757 357.572 214.359 355.686Z" fill="url(#paint1_linear)"/>
<path d="M220.291 257.943C220.291 257.943 238.365 299.778 233.976 308.82C233.976 308.82 226.745 305.979 225.711 306.48C224.676 306.98 214.348 252.51 214.348 252.51L220.291 257.943Z" fill="#085C92"/>
<path d="M220.291 257.943C220.291 257.943 238.365 299.778 233.976 308.82C233.976 308.82 226.745 305.979 225.711 306.48C224.676 306.98 214.348 252.51 214.348 252.51L220.291 257.943Z" fill="#085C92" fill-opacity="0.05"/>
<path d="M210.499 391.146C210.499 391.146 216.696 402.767 222.12 405.35C227.544 407.934 223.154 411.547 217.987 410.774C212.821 410.002 195.781 397.605 195.781 397.605C195.781 397.605 195.898 389.49 197.517 388.9C199.136 388.31 210.499 391.146 210.499 391.146Z" fill="#575988"/>
<path d="M194.234 372.26C194.234 372.26 203.014 381.04 206.87 381.816C210.726 382.593 203.514 387.755 196.541 384.915C189.568 382.074 180.016 376.912 180.016 376.912C180.016 376.912 179.759 368.647 184.148 367.875C188.538 367.103 194.234 372.26 194.234 372.26Z" fill="#575988"/>
<path d="M230.361 300.534C230.361 300.534 228.554 332.04 226.228 336.43C223.902 340.82 215.123 354.246 215.123 354.246C215.123 354.246 205.051 361.477 204.536 363.284C204.022 365.09 195.757 371.286 195.757 371.286L195.242 374.899C195.242 374.899 181.558 374.122 182.33 369.475C183.102 364.828 190.333 360.438 190.333 360.438C190.333 360.438 194.98 348.303 206.343 344.943C206.343 344.943 209.956 339.795 206.858 335.648C206.858 335.648 199.112 316.282 194.722 313.956C190.333 311.63 196.534 298.213 196.534 298.213L230.361 300.534Z" fill="#67647E"/>
<path d="M230.361 300.534C230.361 300.534 228.554 332.04 226.228 336.43C223.902 340.82 215.123 354.246 215.123 354.246C215.123 354.246 205.051 361.477 204.536 363.284C204.022 365.09 195.757 371.286 195.757 371.286L195.242 374.899C195.242 374.899 181.558 374.122 182.33 369.475C183.102 364.828 190.333 360.438 190.333 360.438C190.333 360.438 194.98 348.303 206.343 344.943C206.343 344.943 209.956 339.795 206.858 335.648C206.858 335.648 199.112 316.282 194.722 313.956C190.333 311.63 196.534 298.213 196.534 298.213L230.361 300.534Z" fill="black" fill-opacity="0.05"/>
<path d="M205.103 373.121L196.838 390.437C198.13 394.827 210.523 393.278 210.523 393.278C210.523 393.278 220.079 380.365 220.594 375.718C221.109 371.071 227.567 367.196 227.567 367.196C236.862 357.125 230.665 345.247 229.907 339.05C229.907 338.933 229.874 338.802 229.851 338.667C229.163 334.511 224.984 322.553 221.736 313.601C219.546 307.568 217.772 302.897 217.772 302.897C217.772 302.897 200.456 303.674 196.857 309.871C195.2 312.707 195.921 315.664 197.231 318.033C198.241 319.82 199.53 321.435 201.05 322.816L206.928 336.987C206.928 336.987 217.257 355.838 213.382 357.387C209.507 358.936 205.103 373.121 205.103 373.121Z" fill="#67647E"/>
<path d="M235.934 220.002C236.018 221.152 236.351 222.27 236.912 223.278L237.207 223.811L238.662 226.437H243.31L243.408 225.215L244.344 213.515C244.344 213.515 243.052 200.603 238.662 202.41C235.138 203.879 235.611 215.481 235.934 220.002Z" fill="#F7C4A7"/>
<path d="M237.199 223.826L238.655 226.452H243.302L243.4 225.23C241.238 225.057 238.664 224.641 237.199 223.826Z" fill="black" fill-opacity="0.1"/>
<path d="M236.856 223.831V229.77L246.413 232.353C246.413 232.353 246.413 231.736 246.441 230.874C246.497 229.063 246.666 226.166 247.19 225.642C247.185 225.638 239.44 225.638 236.856 223.831Z" fill="#E6E6F0"/>
<path d="M236.856 227.259V229.716L246.413 232.299C246.413 232.299 246.413 231.681 246.441 230.82C243.254 230.263 238.663 228.139 236.856 227.259Z" fill="black" fill-opacity="0.1"/>
<path d="M181.12 237.12C182.992 242.563 180.554 245.016 180.554 245.016C180.554 245.016 203.795 246.565 198.113 242.432C194.795 240.017 193.325 234.696 192.68 230.69C192.405 229.022 192.236 227.339 192.174 225.65C192.112 223.961 173.604 225.378 177.456 230.554C179.003 232.545 180.238 234.758 181.12 237.12Z" fill="#F7C4A7"/>
<path d="M177.457 230.559C179.329 233.105 179.966 233.479 180.607 235.319C181.188 235.417 181.777 235.466 182.366 235.464C186.794 235.464 191.104 234.551 192.662 230.69C192.388 229.022 192.219 227.339 192.157 225.65C192.095 223.961 173.601 225.378 177.457 230.559Z" fill="black" fill-opacity="0.1"/>
<path d="M182.887 236.206C188.734 236.206 193.473 231.466 193.473 225.619C193.473 219.773 188.734 215.033 182.887 215.033C177.04 215.033 172.301 219.773 172.301 225.619C172.301 231.466 177.04 236.206 182.887 236.206Z" fill="#F7C4A7"/>
<path d="M236.063 227.487C236.063 227.487 246.135 232.635 248.975 231.362L242.002 250.471C242.002 250.471 241.487 255.118 232.446 257.187C223.404 259.255 219.019 261.052 219.019 261.052L202.236 241.167L210.759 243.507C210.759 243.507 215.148 249.703 218.247 247.639C221.345 245.575 230.883 246.605 230.883 246.605C230.883 246.605 236.335 231.877 236.063 227.487Z" fill="#085C92"/>
<path d="M236.063 227.487C236.063 227.487 246.135 232.635 248.975 231.362L242.002 250.471C242.002 250.471 241.487 255.118 232.446 257.187C223.404 259.255 219.019 261.052 219.019 261.052L202.236 241.167L210.759 243.507C210.759 243.507 215.148 249.703 218.247 247.639C221.345 245.575 230.883 246.605 230.883 246.605C230.883 246.605 236.335 231.877 236.063 227.487Z" fill="#085C92" fill-opacity="0.05"/>
<path d="M196.815 239.62C196.815 239.62 183.164 235.716 181.727 242.966C181.727 242.966 188.036 239.891 197.073 245.306C197.751 245.713 198.416 246.148 199.062 246.602C207.018 252.176 212.568 260.815 214.801 270.592L220.571 295.864L221.086 302.659C221.086 302.659 229.351 304.293 230.914 301.845C232.477 299.397 231.429 291.245 229.107 288.526C226.786 285.807 223.154 274.144 223.154 274.144L220.894 267.363C219.002 261.658 215.996 256.386 212.049 251.853L211.506 251.212C208.102 247.121 203.782 243.889 198.898 241.777C197.592 241.201 196.633 240.476 196.815 239.62Z" fill="black" fill-opacity="0.1"/>
<path d="M196.815 239.163C196.815 239.163 183.164 235.259 181.727 242.509C181.727 242.509 188.036 239.434 197.073 244.849C197.751 245.256 198.416 245.691 199.062 246.145C207.018 251.719 212.568 260.358 214.801 270.135L220.571 295.407L221.086 302.202C221.086 302.202 229.351 303.836 230.914 301.388C232.477 298.94 231.429 290.788 229.107 288.069C226.786 285.35 223.168 273.659 223.168 273.659L220.894 266.906C219.002 261.201 215.996 255.929 212.049 251.396L211.501 250.736C208.097 246.653 203.779 243.427 198.898 241.32C197.592 240.74 196.633 240.038 196.815 239.163Z" fill="#E6E6F0"/>
<path d="M231.154 291.103L231.037 295.549L227.424 293.209C227.424 293.209 220.984 269.771 216.449 263.383C215.916 262.63 215.658 261.511 215.157 261.319L196.695 243.503V239.37C196.695 239.37 206.12 246.343 206.893 247.635C207.22 248.183 212.176 250.911 215.157 255.123C217.831 259.027 220.204 263.127 222.257 267.389L228.453 281.336L231.154 291.103Z" fill="black" fill-opacity="0.1"/>
<path d="M196.695 239.142V243.143L215.415 261.091C215.911 261.283 216.173 262.406 216.707 263.155C221.241 269.548 227.681 292.98 227.681 292.98L231.294 295.32L231.406 290.874L228.715 281.126L222.519 267.179C220.466 262.917 218.093 258.817 215.42 254.913C212.438 250.701 207.464 247.973 207.155 247.425C206.485 246.311 199.199 240.981 197.205 239.53L196.695 239.142Z" fill="#787C9C"/>
<path d="M186.409 214.394C187.228 213.991 188.15 213.388 188.145 212.475C188.065 211.801 187.664 211.206 187.069 210.879C185.595 209.873 185.707 208.071 184.013 208.623C182.88 209.003 181.888 209.723 180.784 210.182C180.011 210.502 179.19 210.692 178.355 210.744C177.822 210.743 177.29 210.785 176.764 210.87C176.341 210.978 175.937 211.145 175.561 211.366C173.207 212.682 171.456 214.866 170.684 217.45C169.982 219.846 170.052 222.687 168.246 224.409C167.92 224.674 167.619 224.968 167.347 225.289C167.112 225.644 166.952 226.044 166.879 226.464C166.554 227.895 166.679 229.392 167.235 230.751C167.806 232.111 168.925 233.171 170.315 233.666C170.923 233.867 171.569 233.938 172.187 234.092C175.154 234.841 177.255 237.443 179.955 238.88C180.171 239.015 180.417 239.092 180.671 239.104C180.951 239.075 181.215 238.963 181.43 238.781C182.473 238.033 183.334 236.877 183.302 235.59C183.216 234.787 182.981 234.008 182.609 233.292C182.044 231.95 181.611 230.557 181.317 229.131C181.224 228.804 181.214 228.457 181.289 228.125C181.486 227.498 182.178 227.189 182.66 226.763C183.596 225.916 183.685 224.47 183.348 223.267C183.011 222.064 182.3 221.007 181.771 219.874C181.589 219.534 181.481 219.159 181.458 218.774C181.458 217.263 183.498 216.434 184.359 215.447C185.553 214.104 184.813 215.185 186.409 214.394Z" fill="black" fill-opacity="0.1"/>
<path d="M186.123 214.394C186.942 213.991 187.864 213.388 187.86 212.475C187.779 211.801 187.378 211.206 186.783 210.879C185.309 209.873 185.421 208.071 183.727 208.623C182.595 209.003 181.603 209.723 180.498 210.182C179.725 210.502 178.904 210.692 178.069 210.744C177.536 210.776 175.813 209.962 175.294 210.084C174.872 210.192 174.467 210.359 174.091 210.58C171.737 211.896 169.987 214.079 169.215 216.664C168.513 219.06 169.004 222.06 167.197 223.782C166.893 224.072 167.305 224.952 167.062 225.294C166.826 225.649 166.667 226.048 166.594 226.468C166.269 227.899 166.393 229.397 166.949 230.755C167.52 232.116 168.639 233.175 170.029 233.671C170.637 233.872 171.283 233.942 171.901 234.097C174.868 234.845 176.969 237.448 179.67 238.884C179.885 239.02 180.132 239.097 180.386 239.109C180.665 239.079 180.929 238.967 181.144 238.786C182.188 238.037 183.049 236.881 183.016 235.594C182.931 234.792 182.696 234.012 182.323 233.296C181.758 231.955 181.325 230.561 181.032 229.136C180.938 228.808 180.928 228.462 181.003 228.13C181.2 227.503 181.893 227.194 182.375 226.768C183.311 225.921 183.4 224.475 183.063 223.272C182.726 222.069 182.014 221.011 181.486 219.879C181.303 219.539 181.196 219.164 181.172 218.779C181.172 217.267 183.212 216.439 184.074 215.452C185.267 214.104 184.528 215.185 186.123 214.394Z" fill="#B96B6B"/>
<path d="M197.171 318.014C201.893 317.452 207.865 316.905 210.481 317.345C214.693 318.047 220.613 314.289 221.675 313.601C219.485 307.568 217.711 302.897 217.711 302.897C217.711 302.897 200.395 303.674 196.796 309.871C195.135 312.693 195.879 315.646 197.171 318.014Z" fill="black" fill-opacity="0.1"/>
<path d="M174.618 251.15C175.653 260.187 185.981 272.841 185.981 272.841C185.981 272.841 193.212 280.329 190.886 305.896L190.629 318.289C190.629 318.289 205.862 315.949 210.514 316.74C215.166 317.531 221.877 312.865 221.877 312.865C221.877 312.865 224.46 268.189 213.355 258.895C211.986 256.783 210.497 254.752 208.895 252.811C205.914 249.203 201.875 245.136 198.065 244.134C197.578 244.002 197.077 243.926 196.572 243.905C196.068 243.884 184.952 237.451 181.854 242.356C181.849 242.37 173.584 242.113 174.618 251.15Z" fill="#085C92"/>
<path d="M221.758 299.336C221.758 299.336 217.644 297.534 210.657 298.044C203.67 298.554 191.268 292.386 191.268 292.386" fill="black" fill-opacity="0.1"/>
<path d="M214.238 356.941C214.238 356.941 213.981 357.718 217.336 358.748C220.692 359.777 221.726 360.812 221.726 360.812" fill="black" fill-opacity="0.05"/>
<path fill-rule="evenodd" clip-rule="evenodd" d="M242.901 186.302C242.901 183.241 240.416 180.756 237.355 180.756H211.381C208.321 180.756 205.835 183.241 205.835 186.302V212.276C205.835 215.336 208.321 217.822 211.381 217.822H237.355C240.416 217.822 242.901 215.336 242.901 212.276V186.302Z" fill="#00A7E7"/>
<path d="M204.019 214.212C204.037 215.431 204.34 216.63 204.904 217.712L206.397 220.581L207.431 222.566L213.885 223.08C213.885 223.08 214.02 222.547 214.184 221.676C214.652 219.093 215.424 213.514 213.885 209.663C211.821 204.515 211.044 194.429 207.169 196.751C204.094 198.59 203.949 209.7 204.019 214.212Z" fill="#F7C4A7"/>
<path d="M206.407 220.466V220.545L207.441 222.53L213.895 223.044C213.895 223.044 214.03 222.511 214.194 221.64C211.868 220.737 208.84 219.918 206.407 220.466Z" fill="black" fill-opacity="0.1"/>
<path d="M206.407 220.922V225.569L215.701 230.473C215.701 230.473 215.809 229.631 216.005 228.545C216.342 226.673 216.941 224.085 217.77 223.762C217.751 223.762 211.035 219.887 206.407 220.922Z" fill="#E6E6F0"/>
<path d="M181.244 263.165C183.531 265.18 186.56 266.149 189.593 265.837C205.935 264.176 206.403 258.401 206.403 258.401L208.912 252.846C205.931 249.237 201.892 245.17 198.082 244.169C195.373 248.535 192.972 251.685 192.972 251.685C192.972 251.685 180.837 242.391 177.219 251.17C175.104 256.281 178.249 260.516 181.244 263.165Z" fill="black" fill-opacity="0.05"/>
<path d="M206.407 223.831V225.633L215.701 230.538C215.701 230.538 215.809 229.695 216.005 228.609C211.981 227.327 208.017 224.893 206.407 223.831Z" fill="black" fill-opacity="0.1"/>
<path d="M205.331 223.831C205.331 223.831 212.304 228.736 218.243 229.77L206.107 256.624C206.107 256.624 205.663 262.399 189.316 264.06C186.283 264.372 183.255 263.402 180.967 261.388C177.971 258.739 174.822 254.504 176.928 249.393C180.541 240.614 192.681 249.908 192.681 249.908C192.681 249.908 205.069 233.645 205.331 223.831Z" fill="#085C92"/>
<path d="M95.2339 240.855L220.808 327L95.2339 413.14V240.855Z" fill="#E8EAF1"/>
<path d="M346.372 240.855L220.803 327L346.372 413.14V240.855Z" fill="#E8EAF1"/>
<path d="M95.2339 413.206L215.88 319.339C218.759 317.069 222.852 317.069 225.731 319.339L346.377 413.206H95.2339Z" fill="url(#paint2_linear)"/>
<path d="M95.2339 413.139L215.88 323.377C218.795 321.208 222.816 321.208 225.731 323.377L346.377 413.139H95.2339Z" fill="#E8EAF1"/>
</g>
<defs>
<linearGradient id="paint0_linear" x1="220.813" y1="416.383" x2="220.813" y2="120.771" gradientUnits="userSpaceOnUse">
<stop stop-color="#808080" stop-opacity="0.247059"/>
<stop offset="0.54" stop-color="#808080" stop-opacity="0.117647"/>
<stop offset="1" stop-color="#808080" stop-opacity="0.0980392"/>
</linearGradient>
<linearGradient id="paint1_linear" x1="207.7" y1="412.469" x2="207.7" y2="194.788" gradientUnits="userSpaceOnUse">
<stop stop-color="#808080" stop-opacity="0.247059"/>
<stop offset="0.54" stop-color="#808080" stop-opacity="0.117647"/>
<stop offset="1" stop-color="#808080" stop-opacity="0.0980392"/>
</linearGradient>
<linearGradient id="paint2_linear" x1="220.808" y1="413.206" x2="220.808" y2="317.636" gradientUnits="userSpaceOnUse">
<stop stop-color="#808080" stop-opacity="0.247059"/>
<stop offset="0.54" stop-color="#808080" stop-opacity="0.117647"/>
<stop offset="1" stop-color="#808080" stop-opacity="0.0980392"/>
</linearGradient>
<clipPath id="clip0">
<rect width="468" height="468" fill="white"/>
</clipPath>
</defs>
</svg>
