<svg width="228" height="610" viewBox="0 0 228 610" fill="none" xmlns="http://www.w3.org/2000/svg">
<path d="M80.8381 522.26C78.7288 521.612 77.7297 519.715 76.4793 518.174C73.2015 514.171 69.427 511.93 64.1159 513.856C63.5791 514.087 62.9886 514.166 62.4098 514.083C60.0726 513.5 58.8281 514.614 58.1913 516.733C58.111 517.014 57.9525 517.266 57.7342 517.46C57.516 517.654 57.2469 517.783 56.9584 517.83C56.9584 518.245 56.9238 518.841 57.1846 520.155C58.0528 524.53 68.9703 527.155 73.4703 526.155C62.721 531.397 89.4703 529.655 73.4703 526.155C73.3913 526.321 79.6111 522.857 73.4703 526.155C73.4469 528.174 76.4703 526.655 73.4703 526.155C68.3987 526.166 71.9703 532.155 73.4703 526.155C83.4703 533.655 73.4703 517.32 73.4703 526.155C76.8007 526.155 56.4307 516.867 57.3071 520.655C57.5934 521.886 61.5253 525.011 63.1846 526.155C65.0792 527.869 65.1095 527.858 66.1846 528.517C68.0368 529.352 69.7133 529.538 71.5655 527.933C72.4595 526.841 73.3768 525.768 74.3058 524.653C73.7741 525.686 73.2775 526.684 73.4703 527.869C75.3517 529.906 76.9221 532.735 78.9087 534.655C80.4337 531.065 81.2529 526.083 80.8381 522.26Z" fill="#ECA785"/>
<path d="M179.082 558.428C183.961 557.296 188.945 557.763 193.876 557.436C201.974 556.899 205.591 552.148 203.452 544.298C202.917 542.256 202.986 540.103 203.651 538.1C204.878 533.839 206.648 529.73 207.297 525.312C205.708 523.626 203.967 522.184 201.588 521.758C198.363 520.696 200.023 524.279 198.387 524.892C197.966 524.77 197.89 523.836 197.119 523.912C194.326 523.573 191.831 524.408 189.488 525.832C187.022 526.322 186.567 527.583 187.536 529.917C189.032 533.472 190.318 537.119 191.562 540.767C192.807 544.415 192.602 544.59 188.892 544.497C185.605 544.446 182.339 543.957 179.181 543.043C175.091 540.609 170.417 540.388 165.918 539.611C162.331 539.512 158.743 539.536 155.156 539.611C153.009 539.681 150.904 539.013 149.19 537.72C141.489 532.001 133.21 531.353 124.475 535.042C123.014 535.66 121.647 536.361 121.121 538.018C120.782 539.892 121.472 541.637 121.927 543.376C123.096 547.928 122.792 552.714 124.095 557.231C124.827 557.893 125.791 558.24 126.777 558.194C139.882 558.591 152.959 559.905 166.093 559.362C169.348 559.531 172.596 559.42 175.851 559.426C177.012 559.485 178.157 559.131 179.082 558.428Z" fill="#ACD5F3"/>
<path d="M87.7471 519.405C84.3641 517.181 82.7632 513.568 80.8 510.288C78.7375 506.856 76.1258 504.143 72.5325 502.409C67.2739 499.888 61.7174 500.256 58.3753 503.425C55.0332 506.594 54.0808 513.347 56.3654 518.325C56.4911 518.403 56.6317 518.455 56.7784 518.476C56.9251 518.497 57.0746 518.488 57.2175 518.449C57.3603 518.409 57.4933 518.34 57.6082 518.247C57.723 518.153 57.8171 518.037 57.8845 517.905C60.1573 513.773 64.4401 515.407 67.8173 514.584C70.3122 514 71.9774 516.2 73.7478 517.724C75.9972 519.661 77.3995 522.615 80.5663 523.461C83.9377 524.12 87.2797 523.117 90.6394 523.292C91.7203 522.848 91.4165 522.177 90.8614 521.541C90.2896 520.917 89.6231 520.387 88.8865 519.971C88.4913 519.815 88.1101 519.625 87.7471 519.405Z" fill="#2E344E"/>
<path d="M114.909 523.155L114.869 524.272C114.939 526.788 114.787 529.309 114.95 531.819C114.857 534.153 115.266 536.581 114.127 538.822C114.004 544.875 114.308 550.892 115.651 556.822C116.097 557.168 116.641 557.364 117.205 557.38C117.769 557.397 118.324 557.234 118.789 556.915C120.25 554.511 119.607 551.849 119.555 549.328C119.579 545.677 119.165 542.036 118.322 538.484C117.399 536.517 118.228 534.317 117.492 532.321C117.492 529.023 117.147 526.947 116.984 523.655C115.026 523.643 116.575 526.376 116.984 523.655C117.242 521.935 116.984 515.366 116.984 515.366C116.984 451.944 116.984 388.501 116.984 325.036C116.984 323.869 116.5 1.99989 115.583 0.546631C114.636 1.98822 115.815 323.869 115.815 325.036C115.815 388.458 115.815 451.899 115.815 515.36C115.815 519.843 114.909 523.155 114.909 523.155Z" fill="#DDDDDD"/>
<path d="M210.324 516.136C214.595 512.909 218.889 509.81 224.633 509.851C225.725 509.851 227.063 509.343 227.186 507.913C227.303 506.588 226.31 505.841 225.217 505.31C222.821 504.143 220.215 503.197 217.656 503.985C214.308 505.006 210.984 505.012 207.612 504.732C205.784 504.58 204.972 505.181 204.849 507.067C204.702 509.285 204.837 511.513 205.252 513.697C207.741 512.856 209.57 513.382 210.324 516.136Z" fill="#555D94"/>
<path d="M195.798 510.808C196.28 510.21 196.717 509.578 197.107 508.917C199.094 505.047 201.665 501.785 205.749 499.894C207.046 499.31 208.536 498.399 208.051 496.643C207.525 494.734 205.714 494.892 204.171 494.892C201.302 494.968 198.632 495.662 196.482 497.74C194.53 499.619 191.989 500.425 189.471 501.119C186.871 501.849 186.508 503.197 187.601 505.386C188.495 507.183 188.98 509.214 190.563 510.638C192.369 509.255 194.139 508.263 195.798 510.808Z" fill="#6B75B9"/>
<path d="M195.799 510.808C195.688 509.64 195.729 508.339 194.046 508.374C192.451 508.409 190.885 508.596 190.599 510.65C191.054 515.768 189.857 520.77 189.5 525.825C192.107 525.466 194.666 524.822 197.131 523.904C196.885 519.527 195.688 515.232 195.799 510.808Z" fill="#ECA887"/>
<path d="M210.324 516.136C210.324 514.899 211.066 513.481 209.307 512.699C207.642 511.952 206.386 512.488 205.252 513.691C205.136 516.877 202.717 519.025 201.589 521.757C203.325 523.19 205.245 524.385 207.297 525.311C208.244 522.229 208.846 519.037 210.324 516.136Z" fill="#ECA787"/>
<path d="M121.448 537.866L117.609 538.38C118.572 544.324 118.92 550.352 118.65 556.368L124.159 556.788C124.487 550.304 122.962 544.082 121.448 537.866Z" fill="#FBC756"/>
<path d="M99.4506 556.659C104.901 556.952 110.365 556.911 115.811 556.537C115.717 550.578 115.109 544.654 114.525 538.73C114.441 538.556 114.317 538.405 114.162 538.29C114.008 538.174 113.827 538.097 113.637 538.065C109.454 537.627 106.421 535.188 103.628 532.334C100.707 529.124 97.6745 526.083 93.9409 523.812C93.2688 523.357 92.5148 523.036 91.7206 522.867H91.3174C87.6364 521.974 83.938 523.17 80.2511 522.733C79.0417 525.61 79.7895 528.744 79.0475 531.692C78.8664 532.409 79.176 533.232 78.621 533.892C76.9558 536.04 77.3239 538.269 78.3581 540.522C79.4507 541.689 80.9055 541.689 82.337 541.777C84.3236 541.934 86.3569 541.893 88.1273 543.014C89.1205 544.841 88.9336 546.889 89.2433 548.85C89.3776 549.691 89.29 550.566 89.3835 551.424C89.81 555.253 90.0496 555.51 93.6195 556.093L94.753 556.169C96.2663 556.829 97.9374 555.977 99.4506 556.659Z" fill="#FDC854"/>
<path d="M64.4087 527.156C65.3611 528.364 67.8932 530.577 67.8932 532.193C68.3022 537.767 66.3157 542.699 63.6805 547.415C62.7223 548.582 61.9277 549.749 62.5879 551.348C61.2792 555.854 62.3834 557.809 66.9525 558.796C70.1135 559.478 73.2043 559.006 76.2251 557.92C78.0422 557.698 78.5622 556.169 78.7725 554.833C79.4655 550.767 79.8037 546.648 79.7833 542.524C79.7636 541.743 79.4459 541 78.8953 540.446C77.7793 538.316 78.4804 536.092 78.5856 533.898C78.8952 531.919 77.5689 531.09 76.1199 530.262C75.0624 529.678 74.1041 528.878 73.105 528.178C72.4798 527.565 71.9365 526.631 70.9257 527.688C69.5117 529.526 65.9087 527.656 64.4087 527.156Z" fill="#2E344E"/>
<path d="M78.9245 540.452C78.7493 544.654 78.6441 548.862 78.3403 553.052C78.2176 554.862 77.7151 556.642 76.231 557.926C75.1444 559.822 73.8016 561.56 72.2404 563.091C71.5707 563.348 70.9806 563.777 70.5293 564.335C70.0781 564.892 69.7816 565.558 69.6695 566.266C66.7481 570.486 62.9327 573.853 59.0064 577.057C58.0189 577.968 56.7043 577.88 55.5007 578.196C53.7945 578.651 52.1878 579.217 51.5801 581.114C50.5413 582.476 49.3159 583.687 47.94 584.709C46.4442 586.121 46.491 586.08 47.9108 587.767C48.2146 588.129 47.2506 588.707 47.5603 589.349C47.8699 591.199 48.945 591.339 50.4817 590.732C55.3663 588.789 59.6315 586.063 62.3952 581.435C62.5179 581.225 62.8918 581.172 63.1489 581.044C64.3175 580.664 65.486 580.285 66.0703 579.036C71.8547 575.131 76.9088 570.328 82.3718 566.021C84.0663 565.087 85.784 564.171 86.2339 562.029L87.2798 556.093C88.6061 554.622 88.5419 552.737 88.8282 550.946C89.3015 548.027 89.0034 545.057 88.9392 542.115C86.8213 541.293 84.5617 540.896 82.29 540.948C81.1469 540.997 80.0048 540.828 78.9245 540.452Z" fill="#ECA785"/>
<path d="M47.6069 589.36L49.833 586.372L49.5877 586.034C48.8047 586.547 48.0159 587.061 47.1921 587.61C46.3566 586.244 47.8582 585.684 47.9867 584.691L12.5266 600.368C8.97412 601.924 5.42365 603.508 1.8751 605.119C0.770805 605.621 -0.573067 605.866 0.320889 607.768C1.0863 609.403 1.79914 609.56 3.41177 608.836C16.973 602.732 30.5692 596.72 44.1655 590.691C44.8666 590.382 45.6145 590.166 46.339 589.909C46.4842 589.715 46.6776 589.563 46.9 589.466C47.1224 589.37 47.3661 589.334 47.6069 589.36Z" fill="#1486E0"/>
</svg>
