<svg id="Layer_1" data-name="Layer 1" xmlns="http://www.w3.org/2000/svg" viewBox="0 0 314.73 13.34"><defs><style>.cls-1{fill:#acd5f2;}.cls-2{fill:#4777e5;}</style></defs><title>11</title><path class="cls-1" d="M400.29,245c6.89,0,13.79.07,20.67,0,2.1,0,2.5.83,2.46,2.66s-.17,2.77-2.37,2.76c-13.68-.08-27.37-.12-41.05,0-2.63,0-2.55-1.42-2.69-3.14-.2-2.3,1.3-2.27,2.91-2.27C386.91,245,393.6,245,400.29,245Z" transform="translate(-214.73 -241.05)"/><path class="cls-1" d="M453.36,245c6.78,0,13.56,0,20.34,0,1.36,0,2.63.19,2.17,1.79-.37,1.26,1,3.63-2.06,3.61q-20.94-.12-41.87,0c-2.24,0-1.92-1.4-2-2.79-.08-1.58.1-2.64,2.17-2.61C439.21,245.08,446.29,245,453.36,245Z" transform="translate(-214.73 -241.05)"/><path class="cls-1" d="M295.61,245c6.78,0,13.57,0,20.35,0,1.66,0,2.64.26,2.54,2.26-.09,1.74-.06,3.14-2.45,3.13-13.57,0-27.14,0-40.71-.07-1.34,0-3.19.25-3-2.2.16-2.08.58-3.26,3.21-3.17C282.23,245.18,288.92,245,295.61,245Z" transform="translate(-214.73 -241.05)"/><path class="cls-1" d="M348.16,245h20c1.41,0,3.06-.21,2.9,1.94-.12,1.79,0,3.53-3,3.48-12.76-.2-25.53-.08-38.29-.09-.79,0-1.58-.21-2.37-.22-2.43,0-2.49-1.6-2.43-3.44.07-2.17,1.6-1.65,2.78-1.65C334.59,245,341.38,245,348.16,245Z" transform="translate(-214.73 -241.05)"/><path class="cls-1" d="M237.87,245h20.05c1.4,0,3.05-.21,2.9,1.94-.13,1.79,0,3.53-3,3.48-12.76-.2-25.52-.08-38.29-.09-.79,0-1.58-.21-2.37-.22-2.42,0-2.48-1.6-2.43-3.44.07-2.17,1.61-1.65,2.79-1.65C224.31,245,231.09,245,237.87,245Z" transform="translate(-214.73 -241.05)"/><path class="cls-2" d="M505.21,241.1c7.28,0,14.56.05,21.84,0,1.81,0,2.49.5,2.41,2.36-.14,2.89-.11,5.79,0,8.68,0,1.64-.47,2.28-2.2,2.27q-22.14-.07-44.29,0c-1.55,0-2.12-.52-2.06-2.08.09-2.79.16-5.59,0-8.37-.15-2.2.48-2.93,2.79-2.88C490.85,241.2,498,241.1,505.21,241.1Z" transform="translate(-214.73 -241.05)"/></svg>