<svg id="Layer_1" data-name="Layer 1" xmlns="http://www.w3.org/2000/svg" viewBox="0 0 284.94 160.96"><defs><style>.cls-1{fill:#4777e5;}.cls-2{fill:#fefefe;}</style></defs><title>14</title><path class="cls-1" d="M152.08,266.33c-7.08-.15-7.08-.15-7.08-7.28q0-74.61-.07-149.22c0-2.89.75-3.64,3.63-3.64q138.9.12,277.79,0c2.71,0,3.52.65,3.52,3.45q-.14,76.56,0,153.12c0,3-.87,3.6-3.69,3.59-21.18-.09-42.35,0-63.53,0a.82.82,0,0,1-1-.38c-.75-1.39-.58-2.92-.59-4.4,0-6-.06-12,0-18,0-2.43-.93-3.37-3.36-3.36q-31.32,0-62.64,0c-3.09,0-3.4.36-3.43,3.51-.06,6,0,12,0,18,0,1.49.14,3-.64,4.4a2.27,2.27,0,0,1-.93.69,7.54,7.54,0,0,1-2.36.26c-17.42,0-34.84.07-52.25,0a4.07,4.07,0,0,1-3.18-2c-.4-.57-.82-1.13-1.18-1.73-4.69-7.82-11.14-13.42-20-16.17-3.66-1.14-7.07-2.8-8.69-6.71-.58-1.39-2.3-1.53-3.14-2.67-.15-4.5.42-5.27,4.57-6.1,3.39-.69,4.43-1.88,5-5.41a37.2,37.2,0,0,0-3-21.88,5.32,5.32,0,0,1-.55-1.69c.25-2,1.81-3,3.21-4.11a4.32,4.32,0,0,0,1.83-4.92c-.51-2.19-2-2.87-3.9-3.08-2.58-.29-4.44-1.23-5.43-3.89-.79-2.11-2.87-1.91-4.66-1.59a37.54,37.54,0,0,0-8.15,2.91c-3.76,1.62-7.17,3.91-10.85,5.7a2.89,2.89,0,0,0-1.73,3.4c1.2,7.89,2.3,15.78,3.59,23.65.64,4,2.82,5.61,6.83,5.66,3.29,0,6.58,0,9.87,0,1.13,0,2.45-.27,3.19,1.05-.68,1.33-2,1.13-3.11,1.18-2.27.09-4.54,0-6.81,0-3.39,0-3.49.14-3.73,3.42a18.42,18.42,0,0,1-1.4,6c-4.52,6-11.39,8.34-17.86,11.26a38,38,0,0,0-6.86,3.54c-2.58,3-3.89,6.6-5.23,10.22C153.65,264.42,153.59,265.86,152.08,266.33Z" transform="translate(-144.93 -106.19)"/><polygon class="cls-2" points="162.87 85.9 122.07 112.47 122.07 59.33 162.87 85.9 162.87 85.9"/></svg>