<svg id="Layer_1" data-name="Layer 1" xmlns="http://www.w3.org/2000/svg" viewBox="0 0 284.94 160.96"><defs><style>.cls-1{fill:#4fb2d6;}.cls-2{fill:#fefefe;}</style></defs><title>13</title><path class="cls-1" d="M236.79,274.33c-7.08-.15-7.08-.15-7.08-7.28q0-74.61-.06-149.22c0-2.89.74-3.64,3.63-3.64q138.88.12,277.79,0c2.7,0,3.52.65,3.51,3.45q-.12,76.56,0,153.12c0,3-.87,3.6-3.7,3.59-21.17-.09-42.35,0-63.52,0a.84.84,0,0,1-1-.38c-.74-1.39-.58-2.92-.58-4.4,0-6-.06-12,0-18,0-2.43-.92-3.37-3.35-3.36q-31.32,0-62.65,0c-3.08,0-3.39.36-3.42,3.51-.06,6,0,12,0,18,0,1.49.13,3-.64,4.4a2.27,2.27,0,0,1-.93.69,7.57,7.57,0,0,1-2.37.26c-17.41,0-34.83.07-52.24,0a4.07,4.07,0,0,1-3.18-2c-.41-.57-.82-1.13-1.18-1.73-4.69-7.82-11.14-13.42-20-16.17-3.66-1.14-7.06-2.8-8.69-6.71-.57-1.39-2.3-1.53-3.13-2.67-.15-4.5.42-5.27,4.56-6.1,3.4-.69,4.44-1.88,5-5.41a37.2,37.2,0,0,0-3-21.88,5.34,5.34,0,0,1-.56-1.69c.26-2,1.81-3,3.22-4.11a4.3,4.3,0,0,0,1.82-4.92c-.51-2.19-2-2.87-3.89-3.08-2.59-.29-4.45-1.23-5.44-3.89-.78-2.11-2.86-1.91-4.65-1.59a37.54,37.54,0,0,0-8.15,2.91c-3.76,1.62-7.18,3.91-10.85,5.7a2.87,2.87,0,0,0-1.73,3.4c1.2,7.89,2.3,15.78,3.58,23.65.65,4,2.83,5.61,6.84,5.66,3.29,0,6.58,0,9.87,0,1.13,0,2.45-.27,3.19,1.05-.69,1.33-2,1.13-3.12,1.18-2.27.09-4.54,0-6.81,0-3.38,0-3.49.14-3.73,3.42a18.4,18.4,0,0,1-1.39,6c-4.53,6-11.39,8.34-17.87,11.26a38,38,0,0,0-6.85,3.54c-2.58,3-3.89,6.6-5.23,10.22C238.36,272.42,238.31,273.86,236.79,274.33Z" transform="translate(-229.65 -114.19)"/><rect class="cls-2" x="372.28" y="166.55" width="10.41" height="40.21" transform="translate(546.76 -62.47) rotate(135)"/><rect class="cls-2" x="372.26" y="187.62" width="10.45" height="40.21" transform="translate(27.8 -320.27) rotate(45)"/></svg>