<svg width="82" height="82" viewBox="0 0 82 82" fill="none" xmlns="http://www.w3.org/2000/svg">
<path d="M62.5834 50.6765C62.5834 50.6765 65.4255 49.1185 66.2676 46.7265C66.6144 45.7218 67.2782 44.8564 68.1586 44.2608C68.5787 43.9813 69.0237 43.7408 69.4878 43.5425" stroke="#535461" stroke-width="0.002" stroke-miterlimit="10"/>
<path d="M70.03 42.0341C69.761 42.3047 69.4716 43.5749 69.4716 43.5749C69.4716 43.5749 70.7401 43.2772 71.0091 43.0074C71.1314 42.8791 71.1997 42.7084 71.1997 42.531C71.1997 42.1523 70.888 41.8406 70.5093 41.8406C70.3306 41.8406 70.1586 41.91 70.03 42.0341Z" fill="#00A7E7"/>
<path d="M67.7245 42.7305C67.6425 43.1036 68.0935 44.327 68.0935 44.327C68.0935 44.327 68.9955 43.3881 69.0775 43.015C69.0905 42.9615 69.0972 42.9065 69.0972 42.8513C69.0972 42.4726 68.7855 42.1609 68.4067 42.1609C68.0734 42.1609 67.7853 42.4023 67.7269 42.7305H67.7245Z" fill="#00A7E7"/>
<path d="M65.217 45.3127C65.3376 45.6743 66.3412 46.5049 66.3412 46.5049C66.3412 46.5049 66.6471 45.238 66.5266 44.8764C66.4328 44.5946 66.1676 44.4032 65.8706 44.4032C65.4913 44.4032 65.1792 44.7153 65.1792 45.0945C65.1792 45.1687 65.1912 45.2423 65.2146 45.3127H65.217Z" fill="#00A7E7"/>
<path d="M63.7648 47.7004C63.8222 48.0767 64.6718 49.0657 64.6718 49.0657C64.6718 49.0657 65.1867 47.8693 65.1293 47.4921C65.0696 47.1654 64.7822 46.9258 64.4501 46.9258C64.0714 46.9258 63.7597 47.2375 63.7597 47.6162C63.7597 47.6443 63.7614 47.6725 63.7648 47.7004Z" fill="#00A7E7"/>
<path d="M69.0698 45.403C68.6885 45.3989 67.5938 44.6962 67.5938 44.6962C67.5938 44.6962 68.7066 44.0189 69.0879 44.023C69.4549 44.039 69.748 44.3454 69.748 44.7128C69.748 45.0859 69.4454 45.3951 69.0723 45.403H69.0698Z" fill="#00A7E7"/>
<path d="M67.335 48.1641C66.9725 48.046 66.1361 47.0472 66.1361 47.0472C66.1361 47.0472 67.4006 46.734 67.763 46.852C68.0348 46.9513 68.2168 47.2113 68.2168 47.5007C68.2168 47.8794 67.9051 48.1911 67.5264 48.1911C67.4616 48.1911 67.3972 48.182 67.335 48.1641Z" fill="#00A7E7"/>
<path d="M65.272 50.6211C64.8948 50.5662 63.9018 49.7191 63.9018 49.7191C63.9018 49.7191 65.0957 49.1968 65.4729 49.2517C65.8112 49.3013 66.0645 49.5946 66.0645 49.9364C66.0645 50.3161 65.7521 50.6284 65.3725 50.6284C65.3388 50.6284 65.3053 50.6261 65.272 50.6211Z" fill="#00A7E7"/>
<path d="M60.3498 43.9728C60.3498 43.9728 62.3178 41.3955 62.1185 38.8691C62.0287 37.8102 62.2848 36.7501 62.8483 35.849C63.1192 35.4234 63.4286 35.0235 63.7725 34.6543" stroke="#535461" stroke-width="0.002" stroke-miterlimit="10"/>
<path d="M63.6585 33.0611C63.5223 33.417 63.7716 34.6962 63.7716 34.6962C63.7716 34.6962 64.8114 33.9106 64.9475 33.5548C64.9844 33.4687 65.0034 33.3762 65.0034 33.2826C65.0034 32.9038 64.6917 32.5922 64.313 32.5922C64.0171 32.5922 63.7527 32.7823 63.6585 33.0628V33.0611Z" fill="#00A7E7"/>
<path d="M61.8315 34.6157C61.9135 34.9888 62.8155 35.9277 62.8155 35.9277C62.8155 35.9277 63.2608 34.7035 63.1821 34.3304C63.1189 34.0076 62.8334 33.7725 62.5045 33.7725C62.1258 33.7725 61.8141 34.0841 61.8141 34.4629C61.8141 34.5149 61.8199 34.5667 61.8315 34.6174V34.6157Z" fill="#00A7E7"/>
<path d="M60.5893 38.0049C60.846 38.287 62.1006 38.6396 62.1006 38.6396C62.1006 38.6396 61.8669 37.3579 61.6086 37.0759C61.4775 36.9236 61.2862 36.8359 61.0853 36.8359C60.7066 36.8359 60.3949 37.1476 60.3949 37.5264C60.3949 37.7047 60.464 37.8764 60.5877 38.0049H60.5893Z" fill="#00A7E7"/>
<path d="M60.2282 40.7793C60.4332 41.1008 61.6099 41.66 61.6099 41.66C61.6099 41.66 61.5959 40.357 61.3909 40.0356C61.262 39.8501 61.0499 39.7393 60.824 39.7393C60.4452 39.7393 60.1335 40.0509 60.1335 40.4297C60.1335 40.5523 60.1663 40.6727 60.2282 40.7785V40.7793Z" fill="#6C63FF"/>
<path d="M64.1422 36.5115C63.792 36.6616 62.5021 36.464 62.5021 36.464C62.5021 36.464 63.2459 35.3939 63.596 35.2438C63.6776 35.2112 63.7646 35.1945 63.8525 35.1945C64.2313 35.1945 64.543 35.5061 64.543 35.8849C64.543 36.1542 64.3853 36.4 64.1405 36.5123L64.1422 36.5115Z" fill="#00A7E7"/>
<path d="M63.6795 39.7518C63.3007 39.7903 62.1305 39.2163 62.1305 39.2163C62.1305 39.2163 63.1605 38.4176 63.5393 38.3791C63.5537 38.3782 63.5681 38.3777 63.5825 38.3777C63.9613 38.3777 64.2729 38.6894 64.2729 39.0681C64.2729 39.4105 64.0184 39.7037 63.6795 39.7518Z" fill="#00A7E7"/>
<path d="M62.7903 42.8427C62.423 42.9452 61.1733 42.5762 61.1733 42.5762C61.1733 42.5762 62.0531 41.6152 62.4205 41.5102C62.4855 41.4905 62.5531 41.4805 62.6211 41.4805C62.9998 41.4805 63.3115 41.7921 63.3115 42.1709C63.3115 42.486 63.0958 42.763 62.7903 42.8403V42.8427Z" fill="#00A7E7"/>
<path d="M24.0432 47.329C24.0432 47.329 24.4409 44.1114 22.9952 42.0302C22.3835 41.1612 22.0701 40.1166 22.1022 39.0544C22.1214 38.5501 22.1867 38.0487 22.2974 37.5563" stroke="#535461" stroke-width="0.002" stroke-miterlimit="10"/>
<path d="M21.3956 36.239C21.4579 36.6153 22.3181 37.5936 22.3181 37.5936C22.3181 37.5936 22.8192 36.3907 22.7568 36.0151C22.6948 35.691 22.4087 35.4545 22.0787 35.4545C21.6999 35.4545 21.3882 35.7662 21.3882 36.1449C21.3882 36.1766 21.3905 36.2084 21.3948 36.2398L21.3956 36.239Z" fill="#00A7E7"/>
<path d="M20.6111 38.5107C20.8678 38.7928 22.1216 39.1462 22.1216 39.1462C22.1216 39.1462 21.8887 37.8646 21.6296 37.5825C21.4999 37.4506 21.3224 37.3763 21.1374 37.3763C20.7587 37.3763 20.447 37.688 20.447 38.0668C20.447 38.2291 20.5043 38.3864 20.6087 38.5107H20.6111Z" fill="#00A7E7"/>
<path d="M21.2481 42.0587C21.6122 42.1727 22.8726 41.8447 22.8726 41.8447C22.8726 41.8447 22.0239 40.8558 21.6606 40.7418C21.604 40.7271 21.5459 40.7197 21.4874 40.7197C21.1087 40.7197 20.797 41.0314 20.797 41.4102C20.797 41.6995 20.9789 41.9595 21.2506 42.0587H21.2481Z" fill="#00A7E7"/>
<path d="M22.3332 44.6475C22.6726 44.8213 23.9731 44.7106 23.9731 44.7106C23.9731 44.7106 23.304 43.5921 22.9645 43.4183C22.8672 43.3685 22.7594 43.3425 22.6501 43.3425C22.2712 43.3425 21.9593 43.6544 21.9593 44.0333C21.9593 44.2923 22.105 44.5304 22.3356 44.6483L22.3332 44.6475Z" fill="#00A7E7"/>
<path d="M23.5699 38.9803C23.3435 39.287 22.1316 39.7658 22.1316 39.7658C22.1316 39.7658 22.2333 38.467 22.4596 38.1603C22.5904 37.9938 22.7908 37.8965 23.0024 37.8965C23.3812 37.8965 23.6929 38.2082 23.6929 38.5869C23.6929 38.7275 23.65 38.8647 23.5699 38.9803Z" fill="#00A7E7"/>
<path d="M24.7962 42.0152C24.4887 42.2399 23.189 42.3342 23.189 42.3342C23.189 42.3342 23.6753 41.1255 23.9828 40.9008C24.0979 40.8217 24.2343 40.7793 24.374 40.7793C24.7528 40.7793 25.0645 41.091 25.0645 41.4697C25.0645 41.6833 24.9653 41.8854 24.7962 42.016V42.0152Z" fill="#00A7E7"/>
<path d="M25.5935 45.1306C25.3279 45.4044 24.0634 45.716 24.0634 45.716C24.0634 45.716 24.3381 44.4426 24.6038 44.1687C24.7346 44.0248 24.9202 43.9426 25.1147 43.9426C25.4935 43.9426 25.8052 44.2543 25.8052 44.6331C25.8052 44.8203 25.729 44.9997 25.5943 45.1297L25.5935 45.1306Z" fill="#00A7E7"/>
<path d="M43.3109 21.161L65.7944 42.1096V72.9563H20.8281V42.1096L43.3109 21.161Z" fill="url(#paint0_linear)"/>
<path d="M21.3103 72.3875H65.314V42.2008L43.3117 21.7008L21.3103 42.2008V72.3875Z" fill="#E8EAF1"/>
<path d="M21.4793 42.2207H65.2837V72.345H21.4793V42.2207Z" fill="black" fill-opacity="0.1"/>
<path fill-rule="evenodd" clip-rule="evenodd" d="M35.573 17.2065C35.573 17.7428 35.1376 18.1782 34.6013 18.1782L30.0503 18.1782C29.514 18.1782 29.0786 17.7428 29.0786 17.2065L29.0786 12.6555C29.0786 12.1192 29.514 11.6838 30.0503 11.6838L34.6013 11.6838C35.1376 11.6838 35.573 12.1192 35.573 12.6555L35.573 17.2065Z" fill="#00A7E7"/>
<path fill-rule="evenodd" clip-rule="evenodd" d="M42.4597 25.2334C42.4597 25.7697 42.0243 26.2051 41.488 26.2051L36.937 26.2051C36.4008 26.2051 35.9653 25.7697 35.9653 25.2334L35.9653 20.6824C35.9653 20.1461 36.4008 19.7107 36.937 19.7107L41.488 19.7107C42.0243 19.7107 42.4597 20.1461 42.4597 20.6824L42.4597 25.2334Z" fill="#00A7E7"/>
<path fill-rule="evenodd" clip-rule="evenodd" d="M24.742 13.9228C24.742 14.4591 24.3065 14.8945 23.7703 14.8945L19.2193 14.8945C18.683 14.8945 18.2476 14.4591 18.2476 13.9228L18.2476 9.37183C18.2476 8.83555 18.683 8.40013 19.2193 8.40013L23.7703 8.40013C24.3065 8.40013 24.742 8.83555 24.742 9.37183L24.742 13.9228Z" fill="#00A7E7"/>
<path d="M49.5366 49.8953H51.052V48.5177C51.052 47.9846 51.4906 47.546 52.0237 47.546H56.5747C57.1078 47.546 57.5464 47.9846 57.5464 48.5177V53.0687C57.5464 53.6018 57.1078 54.0404 56.5747 54.0404H55.0593V55.418C55.0593 55.9511 54.6207 56.3897 54.0876 56.3897H49.5366C49.0035 56.3897 48.5649 55.9511 48.5649 55.418V50.867C48.5649 50.3339 49.0035 49.8953 49.5366 49.8953Z" fill="#085C92" fill-opacity="0.5"/>
<path d="M30.0518 46.8658H34.6028C35.1359 46.8658 35.5745 47.3045 35.5745 47.8375V49.9745H37.85C38.3831 49.9745 38.8217 50.4131 38.8217 50.9462V53.1528H40.9595C41.4925 53.1528 41.9312 53.5914 41.9312 54.1245V58.6755C41.9312 59.2086 41.4925 59.6472 40.9595 59.6472H36.4117C35.8786 59.6472 35.44 59.2086 35.44 58.6755V56.4697H33.2957C32.7626 56.4697 32.324 56.0311 32.324 55.498V53.3611H30.0485C29.5161 53.3593 29.0792 52.9202 29.0801 52.3877V47.8367C29.0805 47.304 29.5191 46.8658 30.0518 46.8658Z" fill="#085C92" fill-opacity="0.5"/>
<path d="M52.9554 40.2429C52.8511 40.486 52.6492 40.6742 52.3994 40.7612C52.2895 40.7964 52.1731 40.8087 52.0608 40.8374C51.5253 40.9703 51.1465 41.4328 50.6594 41.6886C50.6203 41.7128 50.5757 41.7267 50.5298 41.7288H50.5134C50.5033 41.7298 50.4932 41.7298 50.4831 41.7288C50.4328 41.7235 50.3852 41.7034 50.3461 41.6714L50.324 41.655C50.271 41.8719 50.263 42.0974 50.3002 42.3175C50.4937 42.3175 51.7508 42.3946 51.5786 43.8755C51.3925 45.4827 49.5286 47.7295 49.5286 47.7295C49.5286 47.7295 48.2248 49.0612 48.6438 53.6065L48.6906 55.8106C48.6906 55.8106 48.1895 55.7352 47.5507 55.6598C47.536 55.6893 47.521 55.7182 47.5056 55.7467C47.3233 56.0651 47.091 56.3522 46.8177 56.597L45.7591 59.121C45.7591 59.121 45.668 59.285 45.5336 59.5441C45.5213 60.0779 45.8525 60.5445 45.8525 60.5445C47.9025 61.1415 48.7398 63.2989 48.7398 63.2989C48.7398 63.2989 49.896 63.9918 50.1461 64.7659C50.6381 65.1611 50.6011 66.2419 50.6011 66.2419C50.6011 66.2419 48.8792 67.1603 47.6205 67.6654C47.4745 67.724 47.3224 67.7658 47.167 67.79L47.4466 68.364C47.7385 68.469 47.7599 69.9114 47.7599 69.9114C47.7599 69.9114 44.6865 72.1155 43.755 72.2533C42.8235 72.391 42.033 71.7482 43.0096 71.289C43.7976 70.9191 44.6758 69.5071 44.9874 68.9716C44.5971 68.437 43.3671 66.7043 43.2892 66.009C43.1957 65.1824 42.0322 64.4936 42.0322 64.4936C40.3553 62.7027 41.4729 60.5912 41.6131 59.4916C41.6131 59.4703 41.6189 59.4473 41.623 59.4236C41.7257 58.9456 41.8574 58.4743 42.0174 58.0123C41.8345 56.857 41.6894 55.0521 41.6 53.8607C41.2302 53.9796 40.8678 54.1206 40.8678 54.1206C40.188 52.7406 42.4971 47.0571 43.1637 45.4827C42.7759 45.3548 42.1076 45.1547 41.149 44.9383C39.5189 44.5709 39.427 43.7443 39.427 43.7443L38.17 40.3471C38.2774 40.3946 38.4414 40.393 38.6333 40.3594C38.6333 40.3307 38.6333 40.3003 38.6333 40.2675C38.6234 39.9453 38.5931 39.4303 38.498 39.3368C38.498 39.3368 38.8071 39.3368 39.1827 39.3032V39.2573L39.0137 37.1786C39.0137 37.1786 39.2466 34.8826 40.0379 35.204C40.6734 35.4623 40.589 37.5246 40.5299 38.3282C40.5151 38.5337 40.4549 38.7335 40.3536 38.9129L40.3003 39.0072L40.2634 39.072C40.2981 39.0553 40.3316 39.0362 40.3635 39.0146V39.7255C40.4512 39.6837 40.5029 39.6575 40.5029 39.6575C40.4561 40.4381 41.4344 43.0547 41.4344 43.0547C41.4344 43.0547 43.1564 42.871 43.7164 43.2384C44.1264 43.5082 44.6611 42.9867 44.9177 42.6898L43.7091 40.0675C43.8541 40.0417 43.9974 40.0066 44.1379 39.9625C44.1322 39.9305 44.1264 39.8969 44.1199 39.8625C44.0592 39.5345 43.9493 39.0695 43.8017 39.0113C44.015 38.8949 44.2361 38.7935 44.4635 38.7079C44.4577 38.6817 44.4528 38.6538 44.4462 38.6259C44.3593 38.1667 44.2224 37.1745 44.5004 36.4898C44.8726 35.5714 45.0128 33.7838 45.7115 34.1938C46.2658 34.5218 46.292 36.498 46.2797 37.2991C46.2765 37.5162 46.222 37.7295 46.1207 37.9215L45.8517 38.4316L45.8148 38.5021L45.8517 38.5086V39.1359C45.9698 39.0613 46.0379 39.0138 46.0379 39.0138C46.0616 39.8961 46.6455 41.0728 47.2162 42.0199L47.5065 41.8059L47.5778 41.755C47.5785 41.7458 47.5785 41.7364 47.5778 41.7271C47.5771 41.7179 47.6975 41.6935 47.8861 41.655C48.1207 41.2097 48.2519 40.671 48.3248 40.2265C48.3322 40.1798 48.3396 40.1347 48.3461 40.0904C48.2383 39.8515 48.1824 39.5924 48.1821 39.3303C48.1888 38.4093 48.8673 37.6204 49.7771 37.4763C49.7197 37.4131 49.6951 37.3943 49.677 37.3943H49.6647C49.636 37.3943 49.5967 37.4074 49.454 37.3377C49.3113 37.268 49.1399 37.1589 49.1407 36.9966C49.1407 36.8777 49.235 36.7801 49.3351 36.7128C49.5753 36.5488 49.5811 36.2741 49.8058 36.2946C49.8489 36.291 49.8923 36.2969 49.9328 36.3119C50.1378 36.3791 50.3158 36.507 50.5151 36.589C50.6545 36.6461 50.8025 36.6799 50.9529 36.6891C51.049 36.6891 51.1451 36.6968 51.2399 36.712C51.3158 36.7311 51.3887 36.7606 51.4564 36.7998C51.8771 37.0294 52.3625 37.3787 52.4978 37.8338C52.6241 38.2602 52.4494 38.8129 52.775 39.1195C52.8344 39.1664 52.8894 39.2189 52.939 39.2762C52.9805 39.3394 53.0085 39.4106 53.021 39.4853C53.0782 39.7385 53.0552 40.0033 52.9554 40.2429ZM44.4413 62.3214C44.4233 62.5412 44.4651 62.697 44.5938 62.7478C45.2925 63.0234 46.0838 65.5481 46.0838 65.5481L46.6135 66.6412C47.0335 66.3242 47.4354 65.9839 47.8172 65.6219L47.7599 65.2259C47.7599 65.2259 46.2699 64.1238 46.1764 63.8024C46.1018 63.5441 44.8972 62.6519 44.4413 62.3214Z" fill="url(#paint1_linear)"/>
<path d="M43.402 45.1949C43.402 45.1949 40.2351 52.5249 41.0043 54.1092C41.0043 54.1092 42.2712 53.6114 42.4524 53.6992C42.6336 53.7869 44.4434 44.2429 44.4434 44.2429L43.402 45.1949Z" fill="#085C92"/>
<path d="M43.402 45.1949C43.402 45.1949 40.2351 52.5249 41.0043 54.1092C41.0043 54.1092 42.2712 53.6114 42.4524 53.6992C42.6336 53.7869 44.4434 44.2429 44.4434 44.2429L43.402 45.1949Z" fill="#085C92" fill-opacity="0.05"/>
<path d="M45.1179 68.534C45.1179 68.534 44.0322 70.57 43.0818 71.0227C42.1314 71.4753 42.9006 72.1083 43.8059 71.973C44.7112 71.8377 47.6968 69.6656 47.6968 69.6656C47.6968 69.6656 47.6763 68.2437 47.3926 68.1404C47.1088 68.037 45.1179 68.534 45.1179 68.534Z" fill="#575988"/>
<path d="M47.9678 65.2249C47.9678 65.2249 46.4295 66.7632 45.7538 66.8993C45.0781 67.0354 46.3417 67.9399 47.5636 67.4422C48.7854 66.9444 50.459 66.04 50.459 66.04C50.459 66.04 50.5041 64.5919 49.7349 64.4566C48.9658 64.3213 47.9678 65.2249 47.9678 65.2249Z" fill="#575988"/>
<path d="M41.6379 52.6575C41.6379 52.6575 41.9544 58.1777 42.362 58.9468C42.7695 59.716 44.3078 62.0686 44.3078 62.0686C44.3078 62.0686 46.0725 63.3355 46.1627 63.652C46.2529 63.9685 47.701 65.0542 47.701 65.0542L47.7912 65.6872C47.7912 65.6872 50.1889 65.5511 50.0536 64.7369C49.9183 63.9226 48.6514 63.1534 48.6514 63.1534C48.6514 63.1534 47.8371 61.0272 45.8461 60.4384C45.8461 60.4384 45.2131 59.5364 45.7559 58.8099C45.7559 58.8099 47.113 55.4168 47.8822 55.0092C48.6514 54.6017 47.5649 52.2507 47.5649 52.2507L41.6379 52.6575Z" fill="#67647E"/>
<path d="M41.6379 52.6575C41.6379 52.6575 41.9544 58.1777 42.362 58.9468C42.7695 59.716 44.3078 62.0686 44.3078 62.0686C44.3078 62.0686 46.0725 63.3355 46.1627 63.652C46.2529 63.9685 47.701 65.0542 47.701 65.0542L47.7912 65.6872C47.7912 65.6872 50.1889 65.5511 50.0536 64.7369C49.9183 63.9226 48.6514 63.1534 48.6514 63.1534C48.6514 63.1534 47.8371 61.0272 45.8461 60.4384C45.8461 60.4384 45.2131 59.5364 45.7559 58.8099C45.7559 58.8099 47.113 55.4168 47.8822 55.0092C48.6514 54.6017 47.5649 52.2507 47.5649 52.2507L41.6379 52.6575Z" fill="black" fill-opacity="0.05"/>
<path d="M46.0629 65.3764L47.511 68.4104C47.2847 69.1795 45.1133 68.9081 45.1133 68.9081C45.1133 68.9081 43.4389 66.6457 43.3487 65.8315C43.2585 65.0172 42.1269 64.3382 42.1269 64.3382C40.4983 62.5736 41.584 60.4924 41.7169 59.4068C41.7169 59.3863 41.7226 59.3633 41.7267 59.3395C41.8472 58.6114 42.5795 56.5163 43.1486 54.9476C43.5323 53.8906 43.8431 53.0723 43.8431 53.0723C43.8431 53.0723 46.8771 53.2084 47.5077 54.2941C47.798 54.791 47.6717 55.3092 47.4421 55.7241C47.2652 56.0374 47.0393 56.3204 46.773 56.5622L45.7431 59.0451C45.7431 59.0451 43.9333 62.3481 44.6123 62.6195C45.2912 62.8909 46.0629 65.3764 46.0629 65.3764Z" fill="#67647E"/>
<path d="M40.6611 38.5471C40.6465 38.7486 40.588 38.9445 40.4898 39.1211L40.4381 39.2146L40.1831 39.6746H39.3688L39.3516 39.4606L39.1876 37.4106C39.1876 37.4106 39.4139 35.1482 40.1831 35.4647C40.8005 35.7222 40.7177 37.755 40.6611 38.5471Z" fill="#F7C4A7"/>
<path d="M40.4395 39.2178L40.1844 39.6778H39.3702L39.353 39.4638C39.7318 39.4334 40.1828 39.3605 40.4395 39.2178Z" fill="black" fill-opacity="0.1"/>
<path d="M40.4995 39.2183V40.2588L38.8251 40.7115C38.8251 40.7115 38.8251 40.6032 38.8201 40.4524C38.8103 40.135 38.7808 39.6274 38.6889 39.5356C38.6898 39.5348 40.0469 39.5348 40.4995 39.2183Z" fill="#E6E6F0"/>
<path d="M40.4995 39.8184V40.2489L38.8251 40.7015C38.8251 40.7015 38.8251 40.5933 38.8201 40.4424C39.3786 40.3448 40.183 39.9725 40.4995 39.8184Z" fill="black" fill-opacity="0.1"/>
<path d="M50.2651 41.5471C49.9371 42.5008 50.3643 42.9305 50.3643 42.9305C50.3643 42.9305 46.2922 43.2019 47.2876 42.4778C47.869 42.0547 48.1265 41.1224 48.2397 40.4204C48.2878 40.1282 48.3174 39.8332 48.3282 39.5373C48.339 39.2414 51.582 39.4897 50.9071 40.3967C50.636 40.7454 50.4195 41.1333 50.2651 41.5471Z" fill="#F7C4A7"/>
<path d="M50.9068 40.3975C50.5788 40.8435 50.4673 40.9091 50.355 41.2314C50.2531 41.2486 50.15 41.2571 50.0467 41.2568C49.2709 41.2568 48.5157 41.0969 48.2427 40.4204C48.2908 40.1282 48.3204 39.8332 48.3312 39.5373C48.342 39.2413 51.5825 39.4897 50.9068 40.3975Z" fill="black" fill-opacity="0.1"/>
<path d="M49.9557 41.3863C48.9313 41.3863 48.1009 40.5559 48.1009 39.5315C48.1009 38.5071 48.9313 37.6766 49.9557 37.6766C50.9801 37.6766 51.8105 38.5071 51.8105 39.5315C51.8105 40.5559 50.9801 41.3863 49.9557 41.3863Z" fill="#F7C4A7"/>
<path d="M40.6385 39.8589C40.6385 39.8589 38.8738 40.7609 38.3761 40.5378L39.5979 43.8859C39.5979 43.8859 39.6881 44.7002 41.2723 45.0626C42.8566 45.425 43.6249 45.7399 43.6249 45.7399L46.5654 42.2557L45.0722 42.6657C45.0722 42.6657 44.3031 43.7514 43.7602 43.3898C43.2174 43.0282 41.5462 43.2086 41.5462 43.2086C41.5462 43.2086 40.5909 40.628 40.6385 39.8589Z" fill="#085C92"/>
<path d="M40.6385 39.8589C40.6385 39.8589 38.8738 40.7609 38.3761 40.5378L39.5979 43.8859C39.5979 43.8859 39.6881 44.7002 41.2723 45.0626C42.8566 45.425 43.6249 45.7399 43.6249 45.7399L46.5654 42.2557L45.0722 42.6657C45.0722 42.6657 44.3031 43.7514 43.7602 43.3898C43.2174 43.0282 41.5462 43.2086 41.5462 43.2086C41.5462 43.2086 40.5909 40.628 40.6385 39.8589Z" fill="#085C92" fill-opacity="0.05"/>
<path d="M47.515 41.9846C47.515 41.9846 49.907 41.3008 50.1587 42.5709C50.1587 42.5709 49.0533 42.0322 47.4699 42.9809C47.351 43.0523 47.2346 43.1285 47.1214 43.2081C45.7274 44.1847 44.7549 45.6984 44.3637 47.4114L43.3527 51.8394L43.2625 53.03C43.2625 53.03 41.8144 53.3162 41.5405 52.8874C41.2666 52.4585 41.4503 51.0301 41.857 50.5536C42.2637 50.0772 42.9 48.0338 42.9 48.0338L43.2961 46.8456C43.6275 45.846 44.1543 44.9223 44.8459 44.1281L44.941 44.0158C45.5374 43.299 46.2943 42.7326 47.1501 42.3627C47.3789 42.2618 47.547 42.1347 47.515 41.9846Z" fill="black" fill-opacity="0.1"/>
<path d="M47.515 41.9049C47.515 41.9049 49.907 41.221 50.1587 42.4912C50.1587 42.4912 49.0533 41.9525 47.4699 42.9012C47.351 42.9726 47.2346 43.0488 47.1214 43.1284C45.7274 44.105 44.7549 45.6187 44.3637 47.3317L43.3527 51.7597L43.2625 52.9503C43.2625 52.9503 41.8144 53.2365 41.5405 52.8076C41.2666 52.3788 41.4503 50.9503 41.857 50.4739C42.2637 49.9975 42.8976 47.9491 42.8976 47.9491L43.2961 46.7659C43.6275 45.7663 44.1543 44.8426 44.8459 44.0484L44.9418 43.9328C45.5383 43.2173 46.2948 42.6521 47.1501 42.2829C47.3789 42.1813 47.547 42.0583 47.515 41.9049Z" fill="#E6E6F0"/>
<path d="M41.4985 51.0048L41.519 51.7838L42.152 51.3738C42.152 51.3738 43.2803 47.2673 44.0749 46.148C44.1684 46.016 44.2135 45.82 44.3012 45.7864L47.5361 42.6646V41.9406C47.5361 41.9406 45.8847 43.1624 45.7494 43.3887C45.692 43.4846 44.8236 43.9627 44.3012 44.7007C43.8329 45.3846 43.417 46.1031 43.0573 46.8499L41.9716 49.2935L41.4985 51.0048Z" fill="black" fill-opacity="0.1"/>
<path d="M47.5361 41.9004V42.6015L44.2561 45.7462C44.1692 45.7798 44.1233 45.9766 44.0298 46.1078C43.2352 47.2279 42.1069 51.3337 42.1069 51.3337L41.4739 51.7437L41.4542 50.9647L41.9257 49.2566L43.0114 46.813C43.3711 46.0662 43.7869 45.3478 44.2553 44.6638C44.7776 43.9258 45.6493 43.4477 45.7034 43.3518C45.8207 43.1566 47.0974 42.2226 47.4468 41.9684L47.5361 41.9004Z" fill="#787C9C"/>
<path d="M49.3386 37.5652C49.1951 37.4947 49.0335 37.3889 49.0344 37.229C49.0485 37.111 49.1187 37.0067 49.223 36.9494C49.4813 36.7731 49.4616 36.4574 49.7584 36.5542C49.9569 36.6206 50.1307 36.7469 50.3242 36.8272C50.4597 36.8834 50.6035 36.9166 50.7498 36.9256C50.8432 36.9255 50.9364 36.9329 51.0286 36.9478C51.1026 36.9667 51.1735 36.996 51.2393 37.0347C51.6518 37.2653 51.9585 37.6479 52.0938 38.1007C52.2168 38.5205 52.2045 39.0183 52.521 39.32C52.5782 39.3664 52.6309 39.418 52.6784 39.4742C52.7197 39.5364 52.7477 39.6065 52.7604 39.68C52.8174 39.9308 52.7956 40.1932 52.6981 40.4311C52.5982 40.6696 52.4021 40.8552 52.1586 40.942C52.052 40.9773 51.9388 40.9896 51.8306 41.0166C51.3107 41.1478 50.9425 41.6037 50.4694 41.8555C50.4316 41.8792 50.3884 41.8927 50.3439 41.8948C50.295 41.8897 50.2487 41.87 50.2111 41.8383C50.0282 41.7071 49.8773 41.5045 49.8831 41.279C49.898 41.1384 49.9392 41.0019 50.0044 40.8764C50.1035 40.6414 50.1793 40.3972 50.2307 40.1474C50.2471 40.09 50.2489 40.0293 50.2357 39.9711C50.2012 39.8612 50.0799 39.8071 49.9954 39.7325C49.8314 39.5841 49.8158 39.3307 49.8749 39.12C49.9339 38.9092 50.0585 38.7239 50.1512 38.5255C50.1832 38.4659 50.202 38.4002 50.2061 38.3328C50.2061 38.0679 49.8486 37.9228 49.6977 37.7497C49.4886 37.5144 49.6182 37.7038 49.3386 37.5652Z" fill="black" fill-opacity="0.1"/>
<path d="M49.3889 37.5652C49.2454 37.4947 49.0838 37.3889 49.0847 37.229C49.0988 37.111 49.169 37.0067 49.2733 36.9494C49.5316 36.7731 49.5119 36.4574 49.8087 36.5542C50.0072 36.6206 50.181 36.7469 50.3745 36.8272C50.51 36.8834 50.6538 36.9166 50.8001 36.9256C50.8936 36.9314 51.1953 36.7887 51.2864 36.81C51.3603 36.829 51.4313 36.8582 51.4971 36.8969C51.9096 37.1275 52.2162 37.5101 52.3515 37.9629C52.4745 38.3828 52.3884 38.9084 52.705 39.2102C52.7583 39.261 52.6861 39.4152 52.7287 39.475C52.77 39.5373 52.7979 39.6073 52.8107 39.6808C52.8677 39.9316 52.8459 40.194 52.7484 40.432C52.6485 40.6704 52.4524 40.856 52.2089 40.9428C52.1023 40.9781 51.9891 40.9904 51.8809 41.0174C51.361 41.1486 50.9928 41.6046 50.5197 41.8563C50.4819 41.88 50.4387 41.8935 50.3942 41.8957C50.3452 41.8905 50.299 41.8708 50.2614 41.8391C50.0785 41.7079 49.9276 41.5053 49.9334 41.2798C49.9483 41.1392 49.9894 41.0027 50.0547 40.8772C50.1538 40.6422 50.2296 40.398 50.281 40.1482C50.2974 40.0908 50.2992 40.0302 50.286 39.9719C50.2515 39.8621 50.1302 39.8079 50.0457 39.7333C49.8817 39.5849 49.8661 39.3315 49.9252 39.1208C49.9842 38.91 50.1088 38.7247 50.2015 38.5263C50.2335 38.4667 50.2523 38.401 50.2564 38.3336C50.2564 38.0687 49.8989 37.9236 49.748 37.7506C49.5389 37.5144 49.6685 37.7038 49.3889 37.5652Z" fill="#B96B6B"/>
<path d="M47.453 55.7209C46.6256 55.6225 45.5793 55.5265 45.1209 55.6036C44.3829 55.7266 43.3456 55.0681 43.1595 54.9476C43.5432 53.8906 43.854 53.0723 43.854 53.0723C43.854 53.0723 46.888 53.2084 47.5186 54.2941C47.8097 54.7885 47.6793 55.3059 47.453 55.7209Z" fill="black" fill-opacity="0.1"/>
<path d="M51.4047 44.0049C51.2235 45.5883 49.4138 47.8055 49.4138 47.8055C49.4138 47.8055 48.1469 49.1175 48.5544 53.5972L48.5995 55.7686C48.5995 55.7686 45.9304 55.3586 45.1153 55.4971C44.3002 55.6357 43.1244 54.8182 43.1244 54.8182C43.1244 54.8182 42.6717 46.9905 44.6176 45.362C44.8574 44.9919 45.1184 44.636 45.399 44.296C45.9214 43.6637 46.629 42.9512 47.2965 42.7757C47.382 42.7525 47.4697 42.7391 47.5581 42.7355C47.6465 42.7319 49.5942 41.6047 50.137 42.4641C50.1378 42.4665 51.5859 42.4214 51.4047 44.0049Z" fill="#085C92"/>
<path d="M43.145 52.4472C43.145 52.4472 43.8658 52.1315 45.09 52.2209C46.3143 52.3103 48.4873 51.2295 48.4873 51.2295" fill="black" fill-opacity="0.1"/>
<path d="M44.4626 62.5415C44.4626 62.5415 44.5077 62.6776 43.9197 62.858C43.3318 63.0384 43.1506 63.2196 43.1506 63.2196" fill="black" fill-opacity="0.05"/>
<path fill-rule="evenodd" clip-rule="evenodd" d="M39.4407 32.6428C39.4407 32.1066 39.8761 31.6711 40.4124 31.6711H44.9634C45.4996 31.6711 45.9351 32.1066 45.9351 32.6428V37.1939C45.9351 37.7301 45.4996 38.1656 44.9634 38.1656H40.4124C39.8761 38.1656 39.4407 37.7301 39.4407 37.1939V32.6428Z" fill="#00A7E7"/>
<path d="M46.2528 37.5328C46.2496 37.7465 46.1965 37.9566 46.0978 38.1462L45.8362 38.6489L45.655 38.9965L44.5242 39.0867C44.5242 39.0867 44.5005 38.9933 44.4718 38.8407C44.3898 38.3881 44.2545 37.4107 44.5242 36.7358C44.8859 35.8338 45.022 34.0667 45.7009 34.4734C46.2397 34.7957 46.2651 36.7424 46.2528 37.5328Z" fill="#F7C4A7"/>
<path d="M45.8345 38.6286V38.6425L45.6532 38.9902L44.5225 39.0804C44.5225 39.0804 44.4987 38.9869 44.47 38.8344C44.8775 38.6762 45.4081 38.5327 45.8345 38.6286Z" fill="black" fill-opacity="0.1"/>
<path d="M45.8345 38.7081V39.5224L44.2059 40.3817C44.2059 40.3817 44.1871 40.2341 44.1526 40.0439C44.0936 39.7159 43.9886 39.2624 43.8435 39.2059C43.8468 39.2059 45.0235 38.5269 45.8345 38.7081Z" fill="#E6E6F0"/>
<path d="M50.2436 46.1101C49.8428 46.4631 49.3121 46.633 48.7807 46.5783C45.9173 46.2872 45.8353 45.2754 45.8353 45.2754L45.3958 44.302C45.9181 43.6698 46.6258 42.9572 47.2932 42.7817C47.768 43.5468 48.1887 44.0987 48.1887 44.0987C48.1887 44.0987 50.3149 42.4701 50.9488 44.0085C51.3194 44.9039 50.7684 45.646 50.2436 46.1101Z" fill="black" fill-opacity="0.05"/>
<path d="M45.8345 39.2183V39.534L44.2059 40.3933C44.2059 40.3933 44.1871 40.2457 44.1526 40.0555C44.8578 39.8308 45.5524 39.4044 45.8345 39.2183Z" fill="black" fill-opacity="0.1"/>
<path d="M46.0235 39.2183C46.0235 39.2183 44.8017 40.0776 43.7611 40.2588L45.8874 44.964C45.8874 44.964 45.9653 45.9759 48.8296 46.267C49.3608 46.3215 49.8915 46.1516 50.2924 45.7988C50.8172 45.3346 51.3691 44.5925 51.0001 43.6971C50.3671 42.1588 48.24 43.7873 48.24 43.7873C48.24 43.7873 46.0694 40.9378 46.0235 39.2183Z" fill="#085C92"/>
<path d="M65.314 42.2008L43.3117 57.2945L65.314 72.3875V42.2008Z" fill="#E8EAF1"/>
<path d="M21.3111 42.2008L43.3125 57.2945L21.3111 72.3875V42.2008Z" fill="#E8EAF1"/>
<path d="M65.314 72.3988L44.1752 55.9521C43.6707 55.5544 42.9536 55.5544 42.4491 55.9521L21.3103 72.3988H65.314Z" fill="url(#paint2_linear)"/>
<path d="M65.314 72.3878L44.1752 56.6602C43.6644 56.2801 42.9599 56.2801 42.4491 56.6602L21.3103 72.3878H65.314Z" fill="#E8EAF1"/>
<defs>
<linearGradient id="paint0_linear" x1="43.3109" y1="72.9563" x2="43.3109" y2="21.161" gradientUnits="userSpaceOnUse">
<stop stop-color="#808080" stop-opacity="0.247059"/>
<stop offset="0.54" stop-color="#808080" stop-opacity="0.117647"/>
<stop offset="1" stop-color="#808080" stop-opacity="0.0980392"/>
</linearGradient>
<linearGradient id="paint1_linear" x1="45.6082" y1="72.2705" x2="45.6082" y2="34.1298" gradientUnits="userSpaceOnUse">
<stop stop-color="#808080" stop-opacity="0.247059"/>
<stop offset="0.54" stop-color="#808080" stop-opacity="0.117647"/>
<stop offset="1" stop-color="#808080" stop-opacity="0.0980392"/>
</linearGradient>
<linearGradient id="paint2_linear" x1="43.3117" y1="72.3988" x2="43.3117" y2="55.6536" gradientUnits="userSpaceOnUse">
<stop stop-color="#808080" stop-opacity="0.247059"/>
<stop offset="0.54" stop-color="#808080" stop-opacity="0.117647"/>
<stop offset="1" stop-color="#808080" stop-opacity="0.0980392"/>
</linearGradient>
</defs>
</svg>
