<svg width="236" height="187" viewBox="0 0 236 187" fill="none" xmlns="http://www.w3.org/2000/svg">
<path d="M64.4889 134.619C65.6618 134.724 67.2291 134.082 67.8976 134.896C68.4635 135.585 68.0717 137.098 68.0435 138.237C67.7755 149.291 67.4972 160.339 67.2087 171.383C67.1088 175.222 66.9346 179.061 66.8732 182.902C66.8552 183.879 66.5402 184.097 65.6131 184.094C57.7338 184.058 49.8544 184.058 41.975 184.094C40.9301 184.094 40.6407 183.776 40.7201 182.792C40.7867 181.946 40.7047 181.088 40.6868 180.222C40.2668 179.778 40.2745 179.215 40.277 178.665C40.277 175.582 40.2258 172.47 40.3052 169.374C40.2668 169.05 40.3206 168.726 40.3052 168.405C40.2719 166.897 40.2668 165.388 40.3052 163.88C40.318 163.556 40.2694 163.233 40.3052 162.909C40.2309 158.094 40.2617 153.281 40.2847 148.466C40.2847 147.34 40.2514 146.217 40.2847 145.092C40.2975 144.63 40.3334 144.175 40.6484 143.807C40.6484 143.55 40.6356 143.314 40.6279 143.067C40.0901 141.98 40.2924 140.814 40.2719 139.673C40.2514 138.388 40.2284 137.103 40.2873 135.842C40.3462 134.58 40.6433 134.218 41.893 134.195C44.1826 134.151 46.4772 134.074 48.7642 134.244C50.1011 134.711 51.4482 134.359 52.7927 134.292C53.3203 134.264 53.4202 133.779 53.73 133.522C55.7507 134.549 57.7688 134.68 59.7843 133.522C59.9833 133.812 60.2516 134.048 60.5647 134.208C60.8778 134.367 61.2258 134.446 61.577 134.436C62.5502 134.454 63.5182 134.573 64.4889 134.619Z" fill="#548526"/>
<path d="M16.1268 144.907C14.5902 144.958 13.9551 143.655 13.1919 142.723C10.3014 139.257 8.08997 135.275 6.67409 130.985C6.33604 129.405 5.9647 127.83 5.67531 126.242C5.41921 124.767 5.56006 124.685 7.03264 124.582C10.9749 124.304 14.9137 123.988 18.8492 123.634C19.5867 123.567 20.0375 123.834 20.5164 124.312C23.8969 127.694 27.344 131.006 30.6759 134.433C33.2907 137.124 35.7698 139.948 38.1771 142.571L16.1268 144.907Z" fill="#BDE189"/>
<path d="M27.874 114.579C29.5668 108.854 32.5811 103.874 36.5046 99.4419C37.3702 98.4603 37.9516 97.1293 39.3524 96.6848C39.8288 97.0137 39.8646 97.5533 39.9696 98.0415C42.1414 107.92 44.331 117.796 46.5386 127.668C46.6864 128.246 46.7798 128.837 46.8178 129.433C46.4567 130.564 45.8856 129.865 45.5578 129.49C44.5334 128.308 43.363 127.259 42.2412 126.165C39.6802 123.667 36.8785 121.48 33.9948 119.384C33.7233 119.183 33.416 119.021 33.2675 118.693L32.7553 118.14C30.983 117.744 29.6411 116.516 28.0865 115.697C27.6614 115.476 27.6409 115.01 27.874 114.579Z" fill="#A2D559"/>
<path d="M27.874 114.579C27.7972 115.252 28.23 115.517 28.7422 115.802C30.0944 116.555 31.4159 117.359 32.7476 118.14C31.8896 119.299 32.0356 120.728 31.7488 122.031C31.0573 125.186 30.4888 128.37 29.8639 131.538C29.787 131.786 29.6911 132.027 29.577 132.26L8.40259 111.447C10.9943 110.694 13.4299 111.19 15.8551 111.267C17.7401 111.732 19.6608 112.038 21.5073 112.662C23.2821 113.264 25.0543 113.875 26.7062 114.772C27.1851 115.029 27.559 115.103 27.874 114.579Z" fill="#BDE189"/>
<path d="M33.2677 118.693C35.5393 119.721 37.3038 121.458 39.1811 123.012C41.4629 124.896 43.7269 126.823 45.6297 129.128C45.8423 129.385 45.9805 129.978 46.5696 129.721C47.2457 129.708 47.1842 130.636 47.804 130.698C48.2603 131.449 48.7804 132.16 49.3585 132.823C49.7222 133.228 50.2395 133.699 49.7734 134.364C49.5917 134.527 49.3535 134.612 49.1101 134.601C46.6464 134.601 44.1802 134.631 41.7165 134.585C40.8841 134.57 40.6178 134.824 40.6306 135.67C40.6741 138.139 40.6306 140.611 40.6306 143.08C37.4293 139.957 34.2264 136.837 31.0217 133.719C30.5889 133.303 30.343 132.874 30.4634 132.257C31.3529 127.803 32.2373 123.344 33.1166 118.878C33.1243 118.814 33.2139 118.757 33.2677 118.693Z" fill="#BDE189"/>
<path d="M18.99 122.971C14.6618 123.277 10.6744 123.544 6.6971 123.855C5.82891 123.922 5.39098 123.642 5.41659 122.75C5.57537 119.289 6.04148 115.879 7.176 112.588C7.25796 112.351 7.38345 112.13 7.54479 111.786C11.4631 115.358 15.087 119.117 18.99 122.971Z" fill="#BDE18A"/>
<path d="M40.6585 143.83C40.6585 145.372 40.6517 146.905 40.6381 148.43C39.9338 148.743 39.2218 148.548 38.515 148.43C33.7008 147.665 28.8038 147.578 23.9659 148.173C23.6798 148.241 23.3886 148.286 23.0951 148.306C22.2577 148.414 21.4509 148.661 20.6263 148.841C20.1448 148.946 19.6429 149.141 19.1896 148.738C18.1063 147.695 16.8206 146.875 15.8833 145.678C21.2666 145.085 26.6498 144.492 32.0331 143.9C34.3892 143.643 36.7504 143.432 39.0989 143.129C39.8134 143.039 40.008 143.879 40.6585 143.83Z" fill="#BDE18A"/>
<path d="M127.692 27.8302C127.692 21.3808 127.674 14.9339 127.692 8.48446C127.705 5.98691 128.353 3.75916 130.765 2.45129C131.578 2.07926 132.467 1.90327 133.36 1.93739C165.662 1.94767 197.965 1.94767 230.268 1.93739C233.708 1.93739 235.946 4.17541 235.946 7.61339V37.8666C235.946 84.7256 235.962 131.586 235.995 178.449C235.995 182.506 232.965 184.826 229.697 184.664C226.593 184.51 223.474 184.628 220.36 184.628C220.177 184.536 220.017 184.405 219.891 184.244C219.765 184.083 219.676 183.895 219.63 183.696C219.596 183.478 219.607 183.256 219.661 183.043C220.48 178.536 220.729 174.014 220.099 169.461C220.006 168.798 219.807 168.101 220.406 167.541C221 167.22 221.65 167.284 222.286 167.284C225.228 167.284 228.176 167.3 231.111 167.284C232.499 167.284 232.647 167.102 232.696 165.743C232.714 165.316 232.696 164.89 232.696 164.458C232.696 115.514 232.696 66.5687 232.696 17.6216C232.696 14.4842 232.829 14.7026 229.759 14.7026H134.356C131.692 14.7026 131.708 14.7026 131.687 17.3544C131.674 19.0631 131.782 20.7744 131.61 22.4779C131.467 23.3387 130.793 23.8295 130.225 24.3717C129.457 25.0937 129.311 25.8054 129.918 26.7125C130.174 27.1056 130.724 27.6015 130 28.1077C129.203 28.2387 128.404 28.434 127.692 27.8302Z" fill="#DDDDDD"/>
<path d="M211.125 184.657L159.561 184.636C150.854 184.636 142.153 184.636 133.457 184.636C132.689 184.636 131.92 184.636 131.278 184.122C131.751 183.634 132.374 183.734 132.952 183.729C134.776 183.706 136.599 183.701 138.42 183.729C139.324 183.729 139.862 183.472 139.921 182.473C139.957 181.846 140.095 181.188 140.584 180.723C141.908 180.158 143.345 180.433 144.718 180.176C146.303 179.88 147.919 179.759 149.453 179.217C149.876 179.001 150.373 179.191 150.798 178.976C152.918 178.577 154.77 177.367 156.88 176.935C157.531 177 157.648 177.526 157.805 178.015C158.286 179.52 158.801 181.016 159.295 182.519C159.375 182.807 159.479 183.088 159.605 183.359C159.738 183.616 159.861 183.984 160.243 183.793C160.519 183.655 160.378 183.326 160.299 183.097C159.71 181.401 159.275 179.662 158.693 177.958C158.506 177.395 158.263 176.83 158.483 176.213C159.623 175.057 161.101 174.387 162.404 173.461C164.893 172.948 167.406 173.205 169.908 173.302C170.763 173.333 171.058 174.104 171.275 174.813C172.061 177.383 172.888 179.943 173.757 182.493C173.929 183.007 174.013 183.565 174.566 183.871C174.984 183.449 174.661 183.1 174.566 182.773C173.178 178.377 171.749 173.993 170.364 169.592C170.313 169.43 170.256 169.268 170.208 169.104C169.805 167.711 170.023 167.397 171.424 167.338C171.68 167.338 171.936 167.338 172.192 167.338C184.461 167.338 196.732 167.338 209.004 167.338C209.67 167.338 210.38 167.182 210.971 167.672C211.532 168.834 211.332 170.108 211.404 171.313C211.64 175.253 211.839 179.2 212.001 183.154C211.901 183.778 211.975 184.487 211.125 184.657Z" fill="#DDDDDD"/>
<path d="M140.707 180.905C140.285 181.535 140.264 182.272 140.292 182.973C140.328 183.862 140.013 184.135 139.132 184.122C136.515 184.081 133.895 184.122 131.278 184.122L119.018 184.101C118.613 183.603 118.926 183.115 119.074 182.652C122.168 173.012 125.256 163.37 128.337 153.727C131.644 143.393 134.996 133.076 138.241 122.721C138.392 122.236 138.497 121.722 138.971 121.408C139.053 121.382 139.139 121.372 139.225 121.381C139.311 121.389 139.393 121.416 139.468 121.458C139.543 121.501 139.609 121.559 139.66 121.628C139.712 121.697 139.748 121.776 139.767 121.861C140.689 124.589 141.87 127.257 142.126 130.168C141.749 135.083 141.983 140.017 141.691 144.932C141.744 145.4 141.573 145.857 141.644 146.325C141.611 147.9 141.726 149.475 141.57 151.045C141.299 152.486 141.383 153.946 141.406 155.395C141.452 158.175 141.332 160.948 141.114 163.718C141.114 164.034 141.114 164.352 141.114 164.671C141.16 166.333 141.13 167.996 141.135 169.658C141.076 170.054 141.135 170.452 141.114 170.848C140.766 173.674 140.909 176.534 140.889 179.381C140.902 179.895 140.84 180.408 140.707 180.905Z" fill="#F2D054"/>
<path d="M139.024 121.504C132.366 142.25 125.716 162.995 119.074 183.74C119.045 183.863 119.026 183.988 119.018 184.115C118.531 184.6 117.942 184.318 117.394 184.336C117.033 183.701 117.289 183.095 117.489 182.491C118.275 180.109 119.084 177.735 119.794 175.324C120.17 174.04 120.152 173.978 118.769 173.973C116.477 173.973 114.185 173.973 111.896 173.973C111.348 173.973 110.784 174.035 110.298 173.68C107.959 173.541 107.962 173.544 107.265 175.736C106.479 178.207 105.647 180.664 104.925 183.156C104.617 184.217 104.113 184.662 102.937 184.277C104.336 179.908 105.754 175.558 107.132 171.19C108.223 167.75 109.281 164.296 110.354 160.848C110.669 158.147 111.742 155.655 112.564 153.103C116.101 142.127 119.576 131.129 123.136 120.157C125.441 113.048 127.656 105.907 129.999 98.8075C130.235 98.0932 130.302 97.1013 131.49 97.2658C132.202 97.682 132.338 98.3116 132.143 99.0644C131.841 99.9946 131.631 100.953 131.3 101.891C131.093 102.497 131.216 102.772 131.895 102.752C132.443 102.736 133.009 102.708 133.5 103.05C134.269 104.224 134.107 104.591 132.783 104.71C132.043 104.774 131.262 104.512 130.571 104.967C129.428 106.616 129.272 108.618 128.637 110.447C128.399 111.126 129.049 111.159 129.513 111.167C131.206 111.195 132.899 111.167 134.591 111.185C135.178 111.185 135.782 111.12 136.31 111.493C137.035 112.778 136.853 113.14 135.416 113.171C133.393 113.209 131.367 113.171 129.341 113.186C128.842 113.186 128.317 113.099 127.874 113.412C126.816 115.106 126.54 117.082 125.899 118.921C125.643 119.631 126.309 119.631 126.77 119.636C128.732 119.656 130.691 119.636 132.66 119.636C133.854 119.636 135.047 119.605 136.246 119.636C137.047 119.664 137.659 119.417 138.095 118.744C139.258 118.975 139.721 120.345 139.024 121.504Z" fill="#263115"/>
<path d="M110.285 173.672C113.43 173.654 116.575 173.672 119.717 173.602C120.608 173.582 120.695 173.841 120.439 174.61C119.563 177.228 118.734 179.862 117.899 182.495C117.707 183.102 117.561 183.721 117.387 184.335C115.63 183.875 113.842 184.22 112.072 184.132C110.28 184.094 110.28 184.094 110.28 182.228C110.285 179.376 110.287 176.524 110.285 173.672Z" fill="#F2D054"/>
<path d="M217.533 184.659L213.947 184.636C213.509 184.492 213.348 184.137 213.256 183.729C213.241 183.519 213.284 183.309 213.379 183.122C214.49 180.679 214.608 178.012 215.138 175.434C215.42 174.062 215.089 172.621 215.678 171.297C216.447 171.326 216.306 171.981 216.39 172.413C217.105 176.01 217.74 179.607 218.439 183.187C218.393 183.829 218.337 184.476 217.533 184.659Z" fill="#DDDDDC"/>
<path d="M219.822 183.847C220.163 183.999 220.24 184.333 220.365 184.634C220.302 185.052 220.217 185.466 220.109 185.875C219.999 186.232 220.332 186.874 219.712 186.903C219.023 186.939 219.571 186.186 219.113 185.816C218.214 187.293 216.716 186.926 215.322 186.936C215.051 186.936 214.659 187.111 214.523 186.8C214.339 186.384 214.779 186.252 215.036 186.07C215.181 185.985 215.333 185.914 215.491 185.857C217.369 186.119 218.595 184.978 219.822 183.847Z" fill="#060605"/>
<path d="M213.419 183.857L213.932 184.628C213.85 185.047 213.793 185.471 213.675 185.88C213.578 186.242 213.888 186.894 213.245 186.894C212.536 186.894 213.189 186.147 212.715 185.867C212.039 186.124 211.65 187.151 210.566 186.974C209.76 186.833 208.909 186.946 208.005 186.946C208.144 186.196 208.63 186.036 209.094 185.856C210.671 185.962 211.967 185.443 212.899 184.125C213.033 183.955 213.166 183.785 213.419 183.857Z" fill="#060604"/>
<path d="M213.42 183.858C212.395 185.736 210.907 186.427 209.104 185.859C209.824 185.538 210.72 185.51 211.125 184.657C211.56 184.305 211.637 183.794 211.704 183.29C211.953 183.101 212.259 183.003 212.571 183.012C212.883 183.022 213.183 183.139 213.42 183.344V183.858Z" fill="#E2B18D"/>
<path d="M219.822 183.847C218.913 185.694 217.33 186.432 215.504 185.861C216.226 185.538 217.118 185.502 217.532 184.659C217.94 184.312 218.027 183.788 218.27 183.349C218.479 183.147 218.757 183.035 219.046 183.035C219.335 183.035 219.614 183.147 219.822 183.349V183.847Z" fill="#E3B28D"/>
<path d="M99.818 109.715C100.671 109.759 101.526 109.759 102.379 109.715C103.416 109.615 103.659 110.021 103.659 111.015C103.601 116.866 103.403 122.714 103.321 128.562C103.232 134.369 103.298 140.181 103.053 145.981C102.848 150.809 103.093 155.637 102.817 160.452C102.528 165.447 102.804 170.447 102.561 175.432C102.43 178.002 102.394 180.551 102.389 183.11C102.389 183.904 102.113 184.138 101.349 184.138C93.3335 184.117 85.3201 184.104 77.3041 184.138C76.1286 184.138 76.2617 183.477 76.2617 182.745C76.2617 164.193 76.3155 145.642 76.1952 127.092C76.1619 121.843 76.1183 116.588 76.0056 111.339C75.9775 109.995 76.4205 109.694 77.6831 109.707C83.7783 109.761 89.8735 109.723 95.9713 109.707C97.2471 109.522 98.5429 109.525 99.818 109.715Z" fill="#4DAE74"/>
<path d="M87.7813 63.77C87.6302 59.6588 87.1026 55.5322 87.3024 51.4133C87.5021 47.3458 87.433 43.2577 87.9452 39.2056C87.958 39.1054 87.8402 38.9872 87.7813 38.8793C87.3895 37.7795 87.7941 36.6849 87.8325 35.5929C87.8863 33.9381 88.1834 32.2988 88.4344 30.662C88.4907 30.2843 88.5701 29.8912 88.9645 29.6959C89.5766 29.439 90.2219 29.4852 90.8571 29.4852C108.496 29.4852 126.133 29.4852 143.77 29.4852C144.446 29.4852 145.14 29.4107 145.775 29.7421C146.403 30.31 146.247 31.0757 146.249 31.7798C146.28 36.7235 146.224 41.6646 146.344 46.6083C146.175 48.854 146.293 51.1049 146.254 53.3558C146.254 53.9057 146.29 54.4607 146.114 54.9951C145.993 55.324 145.755 55.4653 145.437 55.3137C144.431 54.8384 143.337 54.4658 142.876 53.2967C142.674 52.2689 142.441 51.2231 143.227 50.3032C143.407 49.9652 143.547 49.6074 143.645 49.2369C143.865 48.3607 143.747 47.7183 142.661 47.6078C142.067 47.5487 141.537 47.2276 140.981 47.0169C140.426 46.8062 139.821 46.5929 139.365 47.2122C138.909 47.8314 139.345 48.2399 139.721 48.6613C139.804 48.7585 139.873 48.8676 139.924 48.9851C139.944 49.1547 139.98 48.9389 139.959 49.1059C139.752 50.6476 139.737 52.1481 141.24 53.1579C141.276 53.5652 141.157 53.9711 140.907 54.2937C139.655 55.4011 138.454 56.5856 136.838 57.1818C133.739 58.4023 130.512 58.6361 127.216 58.5796C126.048 58.559 124.875 58.9136 123.886 58.0066C122.078 55.6092 120.619 52.9858 119.021 50.4523C118.836 50.1594 118.744 49.8227 119.064 49.5298C121.653 49.2574 124.25 49.3988 126.839 49.4425C127.999 49.4604 128.601 49.1007 129.065 48.0498C130.627 44.4962 132.353 41.0171 134.036 37.5149C134.425 36.7106 134.784 35.891 135.544 35.3283C135.653 35.2582 135.747 35.1664 135.82 35.0587C135.892 34.9509 135.942 34.8294 135.966 34.7016C135.99 34.5738 135.988 34.4424 135.959 34.3155C135.931 34.1886 135.877 34.069 135.8 33.9638C135.758 33.876 135.697 33.7979 135.623 33.7345C135.549 33.6711 135.462 33.6236 135.369 33.5952C135.276 33.5667 135.178 33.5579 135.081 33.5691C134.984 33.5804 134.891 33.6115 134.807 33.6606C134.689 33.7152 134.583 33.7932 134.496 33.8897C134.409 33.9863 134.342 34.0994 134.299 34.2225C134.257 34.3455 134.239 34.4759 134.248 34.6059C134.257 34.7358 134.292 34.8626 134.351 34.9788C134.717 35.8704 134.44 36.6207 134.054 37.4172C132.379 40.8706 130.678 44.3137 129.131 47.8288C128.619 49.0031 127.91 49.4784 126.593 49.4296C124.084 49.3371 121.569 49.3602 119.056 49.4296C118.934 49.47 118.809 49.5018 118.682 49.5247C118.558 49.5125 118.441 49.4571 118.352 49.3679C118.15 48.7384 117.74 48.2194 117.428 47.708C117.563 48.2631 118.398 48.6202 118.017 49.4142C117.197 50.8146 116.626 52.3306 115.988 53.8106C115.602 54.7125 115.02 55.1442 114.047 55.1442C112.436 55.1442 110.823 55.1724 109.209 55.1442C108.851 55.1073 108.491 55.1811 108.176 55.3556C107.861 55.5301 107.607 55.797 107.447 56.1206C107.185 56.5067 106.945 56.9083 106.73 57.3231C106.003 59.0806 104.681 59.5791 102.927 59.1628C102.671 59.1166 102.415 58.7157 102.159 59.1962C102.091 59.2464 102.012 59.2799 101.929 59.2937C101.846 59.3075 101.76 59.3014 101.68 59.2759C101.576 59.2226 101.497 59.1303 101.46 59.019C100.745 57.9192 99.4109 57.7728 98.8577 58.7389C98.7962 59.6947 99.2111 60.1675 100.195 60.075C100.338 60.04 100.487 60.0366 100.632 60.065C100.777 60.0934 100.915 60.1529 101.035 60.2395C101.434 61.0103 101.862 61.8043 101.163 62.6471C99.9384 62.8655 98.7015 62.7088 97.4722 62.7473C96.7807 62.7679 96.4708 62.3799 96.3837 61.7478C96.3389 61.2798 96.3261 60.8094 96.3453 60.3397C96.3453 52.4017 96.3453 44.4654 96.3453 36.5308C96.3453 44.7531 96.3453 52.9755 96.3453 61.1979C96.3453 62.7396 96.3453 62.7396 97.9229 62.7396C98.9857 62.7396 100.051 62.773 101.114 62.7139C101.539 62.5854 101.749 62.8192 101.844 63.1867C102.243 64.7566 102.471 66.2932 100.876 67.4032C99.4518 68.4079 98.0023 69.3689 96.3735 70.0267C95.4234 69.7697 95.2671 68.9269 94.9957 68.1792C94.6192 67.136 94.3196 66.0671 93.5 65.2423C92.8162 64.5536 92.03 64.1579 91.085 64.4714C90.14 64.7849 89.8378 65.6662 89.6688 66.581C89.5253 67.3518 89.9249 68.2177 89.2718 68.8935C88.5752 68.6982 88.6777 68.0559 88.5496 67.5574C88.2192 66.324 88.2474 65.0007 87.7813 63.77Z" fill="#CFCFCF"/>
<path d="M131.541 97.4297C130.683 97.2678 130.612 97.9102 130.427 98.4832C128.155 105.584 125.878 112.68 123.597 119.771C119.252 133.313 114.906 146.85 110.559 160.382C110.498 160.536 110.425 160.684 110.341 160.827C110.323 160.187 110.292 159.542 110.292 158.905C110.292 132.617 110.292 106.323 110.292 80.0214C110.292 78.3872 110.292 78.3846 111.967 78.3846H127.956C129.006 77.6986 130.171 78.0815 131.285 78.0121C132.891 78.0712 134.517 77.732 136.1 78.269C136.85 79.4073 136.533 80.6715 136.435 81.8663C136.2 84.7599 136.2 87.6679 136.435 90.5615C136.638 93.0282 136.417 95.518 136.768 97.9796C136.796 98.1903 136.768 98.4087 136.802 98.6194C136.873 99.0305 136.848 99.5778 137.414 99.5881C137.98 99.5984 138.005 99.0434 138.069 98.6425C138.694 94.7189 139.26 90.7876 139.829 86.8563C140.208 84.2354 140.635 81.6196 141.014 78.9988C141.035 78.8247 141.07 78.6528 141.119 78.4849C141.224 78.1765 141.217 77.714 141.614 77.6832C142.054 77.6523 142.041 78.1328 142.126 78.436C142.24 78.8485 142.314 79.271 142.349 79.6977C142.633 82.5858 142.861 85.479 143.135 88.3697C143.19 88.9224 143.169 89.48 143.073 90.027C142.656 91.7511 142.958 93.501 142.894 95.2379C142.851 96.3839 142.961 97.5505 142.861 98.6811C142.779 99.6189 143.237 99.6369 143.901 99.5187C144.533 99.7526 144.436 100.264 144.374 100.762C144.228 101.597 143.696 102.073 142.922 102.327C142.202 102.532 141.513 102.834 140.874 103.224C140.067 103.438 139.22 103.445 138.41 103.244L138.3 103.188C137.683 102.892 138.144 101.762 137.155 101.734C136.492 101.713 135.964 102.122 135.344 102.217C135.219 102.235 135.093 102.235 134.968 102.217C134.417 102.101 134.279 101.639 134.115 101.189C133.883 100.644 133.697 100.08 133.559 99.5033C133.339 98.3753 132.706 97.6558 131.541 97.4297Z" fill="#F2D054"/>
<path d="M131.224 78.3798L127.953 78.4029C127.953 76.4415 127.947 74.4802 127.936 72.5188C127.936 70.2063 127.731 69.9904 125.495 70.2063C118.87 70.8637 112.209 71.0954 105.555 70.9C103.987 70.8538 102.354 70.9771 100.809 70.4581C100.727 69.5999 101.503 69.3121 101.926 68.7956C102.264 68.3819 102.676 68.0248 103.035 67.6265C103.68 67.0329 103.731 66.3263 103.452 65.5426C103.252 64.9902 102.984 64.4557 102.912 63.8647C102.853 63.3868 102.861 62.914 103.483 62.7779C113.804 62.7162 124.122 62.7779 132.735 62.7522C123.999 62.7368 113.558 62.7701 103.114 62.7367C101.785 62.1072 101.747 60.9021 101.757 59.6765C102.599 59.0649 103.567 59.3527 104.479 59.3296C104.812 59.3471 105.144 59.2671 105.432 59.0992C105.721 58.9314 105.955 58.6829 106.105 58.384C108.228 54.8433 107.517 55.2261 111.673 55.2133C115.397 55.2133 115.394 55.2133 116.859 51.7804C117.21 50.9607 117.507 50.1103 118.106 49.4216C118.158 49.3736 118.226 49.3469 118.297 49.3469C118.368 49.3469 118.436 49.3736 118.488 49.4216L118.467 49.4036C120.852 53.2938 123.241 57.1841 125.7 61.0152C125.651 61.1951 125.956 60.9998 125.794 60.9998C125.766 60.9998 125.777 60.9561 125.774 60.8739C125.769 60.7891 125.783 60.7043 125.815 60.6256C125.847 60.547 125.896 60.4764 125.958 60.419C127.475 60.3343 128.888 60.8867 130.335 61.1899C132.47 61.5937 134.648 61.7181 136.815 61.5599C137.452 61.7167 137.501 62.246 137.519 62.747C137.552 63.7491 137.632 64.7589 137.434 65.7533C137.025 66.8274 136.087 65.9409 135.462 66.2672C135.496 67.5031 136.679 67.6368 137.327 68.2766C137.396 68.439 137.42 68.6171 137.396 68.7921C137.373 68.9671 137.303 69.1326 137.194 69.271C136.951 69.4515 136.66 69.5553 136.359 69.569C135.206 69.9005 134.008 69.9056 132.83 70.0444C131.967 70.1446 131.654 70.5326 131.659 71.3574C131.659 73.156 131.677 74.9367 131.659 76.7251C131.649 77.2955 131.739 77.9199 131.224 78.3798Z" fill="#CFCFCF"/>
<path d="M49.8783 92.034C46.6002 88.095 45.6039 83.3183 44.9099 78.4311C45.2121 78.074 45.6039 78.1099 46.006 78.1742C46.6437 78.4106 46.8076 79.0144 47.0458 79.554C47.6502 80.9184 48.2751 82.2776 48.8539 83.6498C49.9551 86.2526 52.009 87.8097 54.3524 89.1305C54.9491 89.4671 55.3947 89.2975 55.8762 88.9763C56.6086 88.763 57.2847 88.9892 57.9583 89.2333C58.5089 89.7472 58.934 89.4028 59.4129 89.0688C62.5553 86.8616 64.2993 83.6909 65.6951 80.0756C63.8512 80.8978 62.1609 81.7149 60.2939 82.0387C58.2221 82.6502 56.1502 82.2211 54.0783 82.0387C53.95 82.0318 53.825 81.9953 53.7131 81.932C53.6012 81.8687 53.5053 81.7804 53.433 81.6738C53.9452 79.7981 53.9119 77.7759 54.9081 76.0209C55.0731 75.9183 55.2569 75.8499 55.4487 75.8199C55.6405 75.7899 55.8364 75.7988 56.0247 75.8462C62.7627 76.8072 69.0731 70.7663 68.1767 63.4792C68.1178 62.9833 67.9334 62.4514 68.4456 62.0557C70.2099 61.4247 72.1309 61.3868 73.9185 61.9478C74.644 65.2405 74.2845 68.6804 72.8941 71.7504C72.7404 72.0999 72.5689 72.4391 72.405 72.7782C71.0922 75.0311 69.3521 77.004 67.2829 78.5853C67.1139 78.7112 66.7349 78.999 67.0883 79.148C68.315 79.6619 67.6773 80.5509 67.4699 81.2036C66.3123 84.8394 65.7284 88.7091 63.2954 91.8439C62.6936 92.6147 62.1507 93.4472 61.4643 94.1359C60.3887 95.2202 60.1479 96.4484 60.4886 97.8719C60.6452 98.5819 60.6798 99.3136 60.591 100.035C60.3964 100.788 60.4886 101.559 60.5116 102.317C60.5347 103.024 60.2299 103.345 59.5717 103.394C56.8647 103.55 54.1782 104.021 51.4559 103.959C50.6158 103.589 50.8207 102.857 50.8899 102.207C51.0948 100.31 51.0999 98.4012 51.2894 96.5024C51.4149 95.2484 51.2766 94.0357 50.3188 93.0721C50.0473 92.7766 50.1011 92.3449 49.8783 92.034Z" fill="#A2D559"/>
<path d="M40.6588 163.818C40.669 165.334 40.6784 166.851 40.6869 168.368C40.1594 169.286 39.2323 169.777 38.4461 170.401C35.821 172.477 33.1832 174.533 30.5581 176.606C30.1154 176.93 29.6439 177.212 29.1496 177.449C25.6666 175.969 22.3168 174.263 19.4459 171.734C19.3031 171.647 19.1476 171.582 18.9849 171.542C16.598 169.108 14.2035 166.685 12.439 163.723C11.1835 161.641 10.1066 159.456 9.21977 157.191C9.09171 156.862 8.76134 156.451 9.47587 156.369C9.9599 155.999 10.467 156.235 10.9459 156.351C20.2347 158.597 29.5414 160.773 38.8328 163.032C39.4628 163.178 40.1799 163.224 40.6588 163.818Z" fill="#FED147"/>
<path d="M51.415 103.8C52.6622 103.34 53.9888 103.569 55.2718 103.358C56.6488 103.162 58.0376 103.06 59.4284 103.055C60.1967 103.037 60.4681 102.783 60.4528 102.009C60.4374 101.354 60.2453 100.663 60.5987 100.026C60.3759 103.25 61.2953 106.359 61.5437 109.533C62.0559 116.139 61.9356 122.735 61.5309 129.336C61.4554 129.884 61.4152 130.437 61.4106 130.99C61.4746 131.993 61.0572 132.414 60.0763 132.309C58.9802 132.355 59.1927 131.414 59.1031 130.857C58.6908 128.328 58.3681 125.787 57.9635 123.259C57.6152 121.07 57.4 118.862 57.0569 116.673C56.747 114.782 56.3142 112.904 56.4166 110.964C56.3526 110.799 56.1605 111.074 56.286 110.964C56.6061 112.213 56.3347 113.472 56.3526 114.728C55.9403 117.262 55.8814 119.823 55.6637 122.372C55.4204 125.225 55.0849 128.066 54.6085 130.888C54.5648 131.271 54.4455 131.643 54.2577 131.98C54.1458 132.161 53.99 132.312 53.8047 132.416C53.6194 132.521 53.4107 132.577 53.1979 132.579C52.9852 132.581 52.7754 132.529 52.5882 132.428C52.4009 132.327 52.2422 132.18 52.1269 132C51.928 131.668 51.8235 131.288 51.8247 130.901C51.6736 126.764 51.4611 122.632 51.3125 118.498C51.2818 118.097 51.3509 117.698 51.2895 117.298C51.2152 113.5 50.872 109.71 51.0334 105.905C51.1742 105.218 50.831 104.422 51.415 103.8Z" fill="#585858"/>
<path d="M51.6506 118.41L52.2038 130.029C52.2217 130.456 52.2166 130.883 52.2524 131.314C52.2985 131.849 52.3984 132.28 53.1257 132.309C53.8095 132.337 54.04 132.016 54.1194 131.448C54.4216 129.302 54.7366 127.154 55.0055 125.004C55.4409 121.542 55.4358 118.038 56.0299 114.589C56.8904 114.746 56.6958 115.586 57.0082 116.098C57.1235 116.288 56.9109 116.701 57.377 116.655C57.8687 119.934 58.3613 123.211 58.8547 126.486C59.1108 128.169 59.3669 129.85 59.6077 131.535C59.6563 131.89 59.664 132.224 60.0917 132.324C60.1736 132.63 60.2556 132.938 60.3478 133.246C60.2966 133.524 60.0917 133.578 59.851 133.593C59.6845 134.328 59.3516 134.721 58.4731 134.637C57.3719 134.53 56.263 134.53 55.1617 134.637C54.2936 134.719 53.9453 134.341 53.7814 133.609C52.8215 133.556 51.8657 133.771 51.0206 134.231C50.6339 134.449 50.1345 134.773 49.6658 134.279C49.8989 133.575 49.3278 133.2 48.9718 132.815C48.3981 132.196 47.8244 131.612 47.64 130.759C46.7847 129.801 46.946 128.511 46.5465 127.403C45.7987 125.322 45.832 123.521 47.7297 121.92C48.7848 121.031 49.6863 119.903 50.6774 118.906C50.9258 118.621 51.205 118.328 51.6506 118.41Z" fill="#A2D559"/>
<path d="M89.2666 68.9087C89.3537 67.8809 89.1616 66.8531 89.4638 65.8535C90.0195 64.0061 91.5126 63.4331 93.1414 64.4737C94.2887 65.2086 94.8061 66.3751 95.1621 67.629C95.4054 68.4924 95.6128 69.366 96.417 69.9159C97.49 70.3476 98.4453 70.9257 99.0113 71.9946C99.3345 72.4268 99.619 72.8868 99.8615 73.3693C100.433 74.7645 99.7463 75.8309 97.9894 76.3859C97.1412 76.9579 96.2204 77.4133 95.2517 77.74C93.3002 78.4029 91.5562 77.6629 90.6572 75.8154C90.145 74.7877 89.7122 73.7085 89.8505 72.5085L89.2666 68.9087Z" fill="#232323"/>
<path d="M89.8507 72.5061C90.094 73.277 90.3091 74.0478 90.5882 74.8186C91.6408 77.6682 93.5308 78.3877 96.2045 76.977C96.768 76.6764 97.3186 76.3501 97.9972 76.3963C97.5721 79.2587 97.818 82.1417 97.7411 85.0144C97.2981 85.8058 96.4606 85.9189 95.7179 86.1681C94.5591 86.5511 93.3648 86.8162 92.153 86.9595C91.144 86.9595 90.1042 87.0417 89.6125 85.8392C90.4371 83.465 89.9813 81.0317 89.8481 78.5367L87.2871 81.728C86.9648 81.7151 86.6519 81.6152 86.3815 81.4389C86.1111 81.2625 85.8931 81.0162 85.7505 80.7259C86.3972 78.8051 87.1856 76.9354 88.1092 75.1321C88.5512 74.1719 89.1387 73.2861 89.8507 72.5061Z" fill="#F2D054"/>
<path d="M92.0941 86.669C94.0355 86.3612 95.9292 85.8033 97.7283 85.0092C99.7541 89.2385 99.3673 93.6529 98.6861 98.0802C98.2533 100.907 97.7437 103.718 97.2724 106.536C97.1956 106.994 97.2366 107.508 96.5195 107.479C95.869 107.454 95.9458 106.947 95.8716 106.562C95.2569 103.399 94.9265 100.215 95.5489 97.019C95.9381 95.0147 95.1314 93.5578 93.6947 92.3168C92.3911 90.6569 91.2131 88.9507 92.0941 86.669Z" fill="#585858"/>
<path d="M40.6585 169.261C40.6585 172.925 40.6645 176.59 40.6765 180.255C37.0193 179.741 33.3929 179.066 29.9202 177.709C29.7998 177.211 30.2301 177.033 30.499 176.817C33.5432 174.356 36.6232 171.937 39.7391 169.561C40.0157 169.376 40.2744 169.086 40.6585 169.261Z" fill="#FED147"/>
<path d="M92.0941 86.6689C91.7227 88.8093 92.952 90.4949 93.6973 92.3218C93.1851 96.4124 91.0236 99.1052 87.0156 100.287C85.7504 100.655 84.4955 101.058 83.2022 101.315C82.8257 101.392 82.5005 101.554 82.2572 101.04C82.0011 100.485 82.3135 100.269 82.6747 100.012C84.1933 98.9151 85.6941 97.7896 87.223 96.7079C88.9415 95.4925 89.7277 93.938 89.3896 91.7693C89.0849 89.8062 88.6905 87.7943 89.6022 85.8595C90.2706 86.6021 91.1798 86.6381 92.0941 86.6689Z" fill="#2C2C2C"/>
<path d="M99.0113 71.992L96.417 69.9133L100.561 67.3592C101.506 67.1023 102.397 67.1228 103.135 67.8731C102.53 68.8829 101.498 69.5047 100.809 70.4426L99.0113 71.992Z" fill="#F2D054"/>
<path d="M85.7326 80.7288L87.2692 81.7309L83.7837 87.3837C83.3073 88.1546 82.3546 88.2497 81.7349 88.8252C81.4659 89.0822 81.1842 88.8252 81.1356 88.4527C81.0536 87.8052 81.3481 87.2553 81.9295 87.1679C83.0077 86.9958 83.3022 86.1889 83.6633 85.3924C84.3548 83.8276 85.0462 82.2705 85.7326 80.7288Z" fill="#F7B68F"/>
<path d="M40.6586 169.26L29.9305 177.708L29.1289 177.451C31.6054 175.139 34.4123 173.25 37.0245 171.11C38.2 170.149 39.4498 169.28 40.6663 168.371L40.6586 169.26Z" fill="#FEFCF8"/>
<path d="M59.8329 133.588C59.8765 133.295 60.1172 133.287 60.3298 133.241C61.8536 133.279 63.1059 134.148 64.4889 134.618C63.572 135.101 62.6065 134.798 61.6717 134.782C61.4669 134.782 61.221 134.585 61.0673 134.649C59.8893 135.15 59.8073 134.443 59.8329 133.588Z" fill="#232D53"/>
<path d="M80.5158 100.984C80.6104 100.987 80.7041 101.001 80.795 101.028C81.1382 101.179 82.0755 104.016 81.845 104.299C81.6822 104.494 81.4671 104.638 81.2252 104.715C80.8565 104.823 80.8539 104.458 80.7719 104.239C80.4825 103.489 80.2162 102.729 79.9396 101.971C79.7245 101.385 79.9627 101.082 80.5158 100.984Z" fill="#343432"/>
<path d="M99.818 109.715C98.5743 110.19 97.1998 110.19 95.9561 109.715C95.9842 109.504 95.9432 109.239 96.0559 109.095C96.5809 108.417 99.4518 108.903 99.818 109.715Z" fill="#32312F"/>
<path d="M88.8059 29.9754C88.6394 31.4091 88.5242 32.8558 88.2937 34.2793C88.0376 35.821 88.327 37.3935 87.7815 38.8864C84.7236 39.4003 84.4803 39.2718 83.2178 36.3426C83.0308 35.9109 82.849 35.4767 82.6928 35.0347C81.9782 32.9791 82.2702 32.1646 84.2294 31.2293C84.9977 30.8541 85.3613 30.4148 85.1974 29.5591C85.1103 29.0992 84.9618 28.5904 85.0745 28.1664C85.6661 25.9541 85.0335 24.3739 82.9104 23.4052C82.4597 23.1996 82.3419 22.6986 82.4674 22.1744C82.8182 20.7201 83.2357 19.2812 83.9604 17.9707C84.8517 16.3776 85.5227 16.0256 87.1848 16.686C88.4371 17.1999 89.2746 17.02 90.0019 15.9357C90.1238 15.7598 90.2755 15.6068 90.4501 15.4834C92.0379 14.3194 93.1673 13.0527 92.1659 10.8583C91.7664 9.98986 92.253 9.23443 93.1442 8.77449C94.2404 8.21177 95.2955 7.57455 96.5069 7.2508C98.5019 6.71891 99.2369 6.93987 100.033 8.87213C100.546 10.0926 101.183 10.6476 102.479 10.3419C102.564 10.3252 102.651 10.3252 102.735 10.3419C104.92 10.771 106.577 10.2442 107.422 7.94712C107.757 7.0221 108.562 6.91933 109.453 7.15316C110.694 7.45022 111.897 7.88993 113.038 8.46359C114.7 9.31152 115.146 10.1415 114.416 11.8682C113.781 13.3688 114.142 14.1576 115.233 15.3704C116.739 17.0406 118.094 17.6829 120.153 16.7297C121.057 16.3057 121.689 16.7682 122.176 17.5442C122.982 18.8012 123.597 20.1722 123.999 21.6117C124.327 22.8271 124.022 23.7058 122.906 24.2917C122.757 24.3713 122.609 24.4587 122.458 24.5358C120.455 25.5636 120.455 25.5636 120.775 27.8273C120.663 27.9555 120.523 28.0566 120.367 28.1229C120.21 28.1892 120.041 28.219 119.871 28.2101C116.967 28.2255 114.06 28.39 111.164 28.1228C110.354 27.8119 110.469 27.0153 110.306 26.3909C109.053 21.622 104.036 19.1476 99.6518 21.2263C97.4519 22.2541 96.0945 24.081 95.4594 26.4397C95.3185 26.9536 95.3621 27.56 94.9113 27.9814C93.7563 28.4131 92.5526 28.133 91.372 28.2024C90.8214 28.2333 90.2682 28.2024 89.715 28.2024C89.1619 28.2024 88.5165 28.1382 88.2066 28.6855C87.8404 29.315 88.6676 29.5077 88.8059 29.9754Z" fill="#A2D559"/>
<path d="M110.792 27.8299H120.757H127.692H130.276C130.686 27.4368 131.211 27.4548 131.715 27.4548C136.301 27.4411 140.888 27.4411 145.476 27.4548C145.773 27.4482 146.071 27.4766 146.362 27.5395C147.268 27.7502 147.827 28.4363 147.591 29.1635C147.309 30.0319 146.72 30.3968 145.814 29.978C145.514 29.96 145.217 29.9318 144.92 29.9318H89.6943C89.3973 29.9318 89.1002 29.96 88.8031 29.9754C88.1014 29.9163 87.4739 29.6825 87.5456 28.8577C87.6199 27.9738 88.337 27.8736 89.0669 27.8684C91.0261 27.8684 92.9827 27.8453 94.9419 27.8299C95.4387 27.4008 96.0482 27.447 96.6372 27.4445C100.79 27.4342 104.943 27.4342 109.097 27.4445C109.686 27.447 110.295 27.4008 110.792 27.8299Z" fill="#333321"/>
<path d="M73.9134 61.9354L68.3637 62.1923C68.2818 62.17 68.206 62.1295 68.1417 62.074C68.0774 62.0184 68.0264 61.9491 67.9923 61.8712C67.1549 59.4969 65.6362 57.6109 63.8076 55.9408C63.6872 55.8189 63.5992 55.6687 63.5515 55.5039C63.9946 53.6256 64.6143 51.8193 65.8052 50.2622V50.2159C69.9028 52.7238 72.7609 56.1489 73.8161 60.9307C73.8702 61.2631 73.9027 61.5987 73.9134 61.9354Z" fill="#2E4717"/>
<path d="M19.1769 148.738L23.0646 147.967C23.6971 148.314 24.0198 148.931 24.3707 149.509C26.2274 152.574 28.1354 155.609 30.0049 158.662C30.1407 158.877 30.2738 159.098 30.3916 159.324C30.5811 159.694 30.9371 160.095 30.6477 160.499C30.3583 160.902 29.8026 160.822 29.3442 160.707C26.0149 159.859 22.642 159.098 19.2948 158.279C16.4776 157.59 13.6605 156.945 10.8588 156.223C10.3748 156.095 9.83438 156.071 9.48608 155.622C8.98925 155.108 9.54242 154.889 9.78828 154.609C11.8883 152.227 14.5518 150.696 17.4431 149.504C18.0322 149.257 18.6007 148.99 19.1769 148.738Z" fill="#FED147"/>
<path d="M9.49359 155.614C14.001 156.683 18.5067 157.753 23.0106 158.823C25.2003 159.337 27.3848 159.895 29.5771 160.419C29.9604 160.481 30.3469 160.522 30.7346 160.542L23.0516 147.965L23.8199 147.898C24.3987 147.944 24.5319 148.463 24.7726 148.838C27.0365 152.358 29.1904 155.945 31.398 159.502C31.6151 159.89 31.9161 160.225 32.2791 160.482C32.642 160.738 33.0577 160.91 33.4954 160.984C35.5878 161.393 37.6289 162.012 39.7084 162.485C40.09 162.57 40.4767 162.649 40.6509 163.055C40.6509 163.312 40.6509 163.569 40.6509 163.826L9.4603 156.375C9.36042 156.061 8.72785 156.287 8.8559 155.812C8.88407 155.694 9.27079 155.676 9.49359 155.614Z" fill="#FEFDFB"/>
<path d="M65.813 50.2595C65.0976 52.0136 64.3839 53.7669 63.6719 55.5193C63.1597 55.7557 62.7705 55.4396 62.3658 55.2238C60.0306 53.9369 57.2951 53.5887 54.7135 54.2499C47.9371 55.9047 44.3798 63.6132 47.5222 69.8494C48.1983 71.1932 49.2176 72.2929 49.9782 73.57C49.9936 74.1327 49.5454 74.3562 49.1843 74.626C48.416 75.2067 47.6887 75.8594 46.8794 76.4067C46.2647 76.8307 46.0317 77.3009 46.3825 77.9921C46.3793 78.0836 46.3466 78.1716 46.2894 78.2429C46.2321 78.3143 46.1534 78.3651 46.065 78.3878L44.9023 78.4263C44.7256 77.8816 44.0367 77.4602 44.6462 76.7279C44.9176 76.4067 44.4464 76.0444 44.2159 75.7566C39.3167 69.5744 39.0196 61.591 43.3759 55.1801C47.3941 49.2703 56.8468 45.4469 64.8295 49.6377C65.1881 49.815 65.5005 50.0514 65.813 50.2595Z" fill="#F2D054"/>
<path d="M51.3765 105.806L51.6531 117.392C51.2382 118.476 50.288 119.114 49.5402 119.918C48.7924 120.722 47.9473 121.46 47.2712 122.338C46.9638 122.742 46.6283 123.23 46.0547 123.14C45.4016 123.04 45.458 122.369 45.353 121.912C43.6456 114.354 41.9699 106.789 40.3257 99.2156C40.1618 98.4601 39.6829 97.697 40.1336 96.8773C40.2719 96.2607 40.6228 96.5973 40.8737 96.7386C42.0108 97.3758 43.1326 98.0234 44.2594 98.6888C45.2403 98.8533 45.8703 99.5933 46.5438 100.2C47.896 101.415 49.1407 102.746 50.4161 104.054C50.8865 104.542 51.2181 105.147 51.3765 105.806Z" fill="#A2D559"/>
<path d="M40.1465 96.8774C42.0723 105.549 43.988 114.221 45.9753 123.112L51.6659 117.392C51.6659 117.731 51.6659 118.071 51.6659 118.42C49.9756 120.154 48.3007 121.907 46.5823 123.616C46.0701 124.129 46.2801 124.643 46.3902 125.157C46.7872 127.028 47.22 128.891 47.6374 130.756C46.7206 131.013 46.9921 130.016 46.5849 129.728C45.3487 124.075 44.1135 118.423 42.8791 112.77C41.7061 107.41 40.5357 102.048 39.3679 96.6847C39.4422 96.5125 39.4396 96.1708 39.6676 96.2556C39.8955 96.3404 39.9774 96.659 40.1465 96.8774Z" fill="#FDFDFB"/>
<path d="M40.6586 163.055C38.177 162.456 35.7005 161.839 33.2137 161.272C32.8014 161.201 32.4098 161.039 32.0671 160.798C31.7244 160.557 31.439 160.243 31.2315 159.879C28.8088 155.86 26.3041 151.888 23.8276 147.897C24.8239 147.743 25.815 147.497 26.8163 147.45C31.2772 147.263 35.7455 147.533 40.1515 148.257C40.3165 148.298 40.4769 148.356 40.6304 148.429C40.6373 153.304 40.6467 158.18 40.6586 163.055Z" fill="#FED147"/>
<path d="M49.6479 134.264C50.4162 134.23 51.0923 133.891 51.7403 133.531C52.0475 133.345 52.402 133.251 52.7609 133.262C53.1199 133.273 53.4681 133.388 53.7635 133.593C53.7916 134.454 53.7455 134.924 52.5291 134.698C51.4509 134.498 50.2523 135.158 49.1101 134.611L49.6479 134.264Z" fill="#232D53"/>
<path d="M131.255 22.9432C131.239 20.3737 131.255 17.8043 131.193 15.2502C131.178 14.4973 131.465 14.2429 132.166 14.3226C132.38 14.3342 132.593 14.3342 132.807 14.3226C165.685 14.3226 198.563 14.314 231.442 14.2969C232.681 14.2969 233.099 14.523 233.096 15.8874C233.055 65.9566 233.055 116.025 233.096 166.092C233.096 167.313 232.801 167.69 231.559 167.662C227.807 167.572 224.053 167.619 220.291 167.613C220.191 167.58 220.099 167.525 220.021 167.453C219.944 167.381 219.883 167.293 219.843 167.195C219.372 166.11 220.114 162.446 220.977 161.58C222.14 161.262 223.328 161.47 224.506 161.406C225.044 161.377 225.615 161.501 226.079 161.1C226.46 160.66 226.368 160.128 226.368 159.622C226.368 117.428 226.368 75.2324 226.368 33.0362C226.368 29.0612 226.368 25.0862 226.325 21.1112C226.309 19.4127 226.204 19.3125 224.494 19.3125C195.885 19.3125 167.275 19.3125 138.664 19.3125C136.95 19.3125 136.858 19.423 136.827 21.1112C136.855 21.751 136.821 22.392 136.728 23.0255C136.051 24.1432 135.191 24.5672 134.512 23.8477C133.539 22.8302 132.522 22.5707 131.255 22.9432Z" fill="#548626"/>
<path d="M131.255 22.9428C132.171 22.303 133.157 21.748 133.974 22.9762C134.692 24.0528 135.491 23.909 136.42 23.431C136.511 23.2859 136.631 23.1613 136.773 23.0653C136.914 22.9693 137.074 22.904 137.242 22.8734C137.906 22.709 138.182 22.2516 138.354 21.617C138.838 19.8183 139.184 19.5819 141.033 19.5614C141.501 19.5446 141.969 19.5549 142.436 19.5922C144.055 19.7695 144.764 20.5275 144.859 22.1617C144.948 23.7034 147.046 24.8417 148.421 24.0991C150.214 23.1381 150.524 23.1869 151.96 24.6284C152.425 25.068 152.839 25.5594 153.192 26.093C153.704 26.9127 153.771 27.8351 153.095 28.4595C151.95 29.5156 152.137 30.5896 152.672 31.7845C152.811 32.0928 152.834 32.4525 153.082 32.7095C155.979 33.5471 155.979 33.5471 155.927 36.6922C155.894 38.7324 155.484 39.2128 153.446 39.4724C153.193 39.4884 152.949 39.5734 152.74 39.7183C152.532 39.8632 152.367 40.0625 152.263 40.2946C151.643 41.528 150.923 42.7099 152.071 44.0564C152.375 44.4135 152.327 44.966 152.088 45.4079C151.758 46.0832 151.297 46.6857 150.732 47.1802C150.167 47.6747 149.509 48.0514 148.798 48.2883C147.435 48.7277 146.731 47.6382 146.085 46.6515C145.66 45.7856 145.852 44.8529 145.845 43.9613C145.806 39.2951 145.819 34.6263 145.814 29.9601C146.536 29.8856 147.417 29.8856 147.351 28.8655C147.284 27.8454 146.408 27.8531 145.612 27.8531C140.5 27.8531 135.388 27.8394 130.276 27.812C128.77 25.2657 128.77 25.2656 130.963 23.1612C131.063 23.0944 131.157 23.0225 131.255 22.9428Z" fill="#F2D054"/>
<path d="M220.823 161.906C220.447 163.79 219.656 165.635 220.288 167.616C220.905 171.519 220.998 175.488 220.567 179.417C220.411 180.738 220.608 182.141 219.822 183.346H218.273C217.41 181.08 217.302 178.652 216.767 176.313C216.39 174.671 216.096 173.012 215.765 171.359C215.412 171.102 215.371 170.714 215.299 170.332C214.359 165.378 213.399 160.426 212.546 155.457C212.531 155.372 212.531 155.285 212.523 155.2C212.452 154.416 212.449 154.416 212.011 154.506C211.693 153.643 211.532 152.8 212.347 152.096C213.069 151.839 213.781 151.811 214.47 152.204C214.91 152.749 214.838 153.406 214.823 154.033C214.803 154.902 215.179 155.259 216.037 155.241C217.061 155.218 218.068 155.223 219.085 155.241C219.674 155.241 220.281 155.223 220.757 155.683C221.548 157.759 221.4 159.83 220.823 161.906Z" fill="#585858"/>
<path d="M181.604 6.30296H185.945C186.969 6.30296 187.482 6.81686 187.582 7.84466C187.676 8.92128 187.09 9.56109 186.15 9.58678C183.131 9.67072 180.109 9.67072 177.084 9.58678C176.126 9.56109 175.573 8.70801 175.601 7.78814C175.629 6.86826 176.17 6.24643 177.263 6.27213C178.697 6.33894 180.157 6.30296 181.604 6.30296Z" fill="#FEFEFE"/>
<path d="M140.751 169.697C140.77 168.005 140.787 166.312 140.802 164.62C141.135 164.282 141.586 164.086 142.059 164.073C145.427 163.718 148.774 163.196 152.14 162.811C152.31 162.804 152.479 162.835 152.636 162.901C153.097 163.158 153.182 163.641 153.33 164.078C154.611 167.829 155.753 171.635 156.985 175.404C157.164 175.951 157.594 176.607 156.875 177.136C154.852 177.938 152.898 178.935 150.71 179.279C150.152 179.238 149.796 178.858 149.43 178.508C146.746 175.939 144.323 173.112 141.455 170.756C141.149 170.457 140.909 170.096 140.751 169.697Z" fill="#548526"/>
<path d="M156.875 177.136C157.149 176.383 156.744 175.728 156.534 175.065C155.351 171.339 154.134 167.613 152.933 163.903C152.844 163.623 152.803 163.325 152.741 163.037C152.324 162.752 151.853 162.885 151.402 162.844C150.731 162.785 150.475 162.479 150.923 161.86C151.238 161.421 151.661 161.023 151.343 160.401C150.303 156.827 149.376 153.206 147.857 149.796C147.837 149.697 147.848 149.593 147.891 149.501C147.933 149.408 148.004 149.332 148.093 149.283C149.002 148.728 149.612 149.295 150.221 149.856C150.918 150.806 151.092 151.968 151.402 153.052C151.732 154.216 152.37 154.619 153.517 154.532C154.314 154.47 155.12 154.501 155.922 154.437C156.373 154.496 156.826 154.424 157.279 154.437C159.011 154.565 160.744 154.491 162.476 154.491C163.756 154.491 163.828 154.378 163.526 153.06C163.44 152.776 163.391 152.482 163.38 152.186C163.636 151.487 163.761 150.596 164.886 151.068C165.536 151.549 165.585 152.325 165.838 153.003C166.635 155.37 167.078 157.862 168.343 160.064C168.52 160.524 168.415 161.043 168.643 161.498C169.045 162.988 169.547 164.443 170.003 165.912C170.238 166.683 170.699 167.043 171.498 167.02C171.967 167.02 172.438 167.02 172.907 167.02C184.804 167.02 196.7 167.02 208.597 167.02C209.314 167.02 210.054 166.912 210.735 167.277C210.772 167.293 210.803 167.318 210.827 167.35C210.851 167.381 210.867 167.419 210.873 167.458C210.879 167.497 210.875 167.537 210.862 167.575C210.849 167.612 210.826 167.646 210.797 167.672H171.644C170.164 167.672 170.164 167.672 170.604 169.05C172.105 173.765 173.616 178.475 175.094 183.195C175.204 183.544 175.767 184.091 175.043 184.318C174.433 184.505 173.893 184.423 173.631 183.526C172.763 180.538 171.729 177.598 170.814 174.618C170.571 173.816 170.192 173.546 169.37 173.569C167.411 173.623 165.446 173.59 163.48 173.569C163.054 173.538 162.628 173.627 162.25 173.826C161.286 173.906 160.319 173.937 159.351 173.919C158.163 173.939 158.125 173.999 158.463 175.168C158.587 175.481 158.645 175.817 158.634 176.154C159.031 178.636 160.066 180.928 160.732 183.331C160.816 183.634 161.147 184.025 160.773 184.235C160.422 184.38 160.033 184.401 159.669 184.294C159.295 184.205 159.321 183.747 159.218 183.444C158.597 181.597 157.991 179.744 157.4 177.884C157.31 177.583 157.29 177.231 156.875 177.136Z" fill="#99C954"/>
<path d="M210.797 167.687C210.814 167.62 210.814 167.549 210.797 167.482C210.065 165.699 210.221 163.823 210.239 161.963C210.239 161.592 210.218 161.222 210.239 160.852C210.289 160.355 210.237 159.853 210.085 159.378C209.926 158.468 209.995 157.553 209.988 156.641C209.988 156.304 210.013 155.968 210.049 155.631C210.116 155.025 210.374 154.647 211.04 154.909C211.517 155.094 211.847 154.876 212.188 154.616L212.605 153.948C213.32 157.802 214.019 161.513 214.697 165.231C215.069 167.286 215.409 169.319 215.765 171.362C215.68 175.017 215.15 178.648 214.188 182.174C214.067 182.637 214.103 183.238 213.42 183.343L211.704 183.289C211.432 178.515 211.16 173.739 210.887 168.962C210.864 168.538 210.828 168.111 210.797 167.687Z" fill="#464646"/>
<path d="M140.707 180.905C140.4 180.648 140.451 180.294 140.451 179.96C140.536 176.851 140.385 173.737 140.735 170.638C140.863 170.634 140.99 170.658 141.107 170.708C141.224 170.758 141.329 170.833 141.414 170.928C144.134 173.464 146.869 175.985 149.422 178.696C149.574 178.844 149.676 179.036 149.714 179.246C149.714 179.932 149.128 179.759 148.774 179.837C146.123 180.437 143.423 180.795 140.707 180.905Z" fill="#548626"/>
<path d="M149.719 179.246L140.74 170.638C140.74 170.324 140.74 170.011 140.74 169.697C144.182 172.763 147.379 176.088 150.7 179.279C150.365 179.718 150.047 179.366 149.719 179.246Z" fill="#F8FAF7"/>
<path d="M158.65 176.18C158.071 175.517 157.625 174.548 157.856 173.893C158.112 173.194 159.216 173.636 159.933 173.636C160.701 173.636 161.533 173.353 162.266 173.857C161.131 174.737 159.921 175.514 158.65 176.18Z" fill="#568728"/>
<path d="M164.814 151.276C163.966 150.837 164.033 151.947 163.505 152.047C163.262 152.086 163.142 151.934 163.044 151.749C162.74 150.536 162.309 149.36 161.918 148.175C161.856 147.633 161.492 147.548 161.031 147.535C160.122 147.512 159.213 147.502 158.301 147.535C156.109 147.535 153.917 147.535 151.725 147.535C149.842 147.535 149.842 147.535 150.188 149.36C150.198 149.472 150.183 149.586 150.146 149.693C150.108 149.8 150.048 149.897 149.97 149.979C149.435 149.57 148.928 149.054 148.162 149.465C147.233 148.157 147.202 146.523 146.582 145.097C146.469 144.673 146.252 144.287 146.134 143.866C146.016 143.445 145.927 143.039 145.814 142.625C145.738 142.324 145.635 142.031 145.507 141.749C144.267 137.817 142.946 133.917 141.767 129.96C141.335 127.046 140.313 124.307 139.258 121.576C139.237 121.524 139.107 121.514 139.027 121.483C139.214 120.44 138.886 119.541 138.259 118.721C137.491 117.575 137.25 116.218 136.881 114.934C136.53 113.726 135.885 113.333 134.689 113.392C132.786 113.464 130.881 113.423 128.978 113.392C128.443 113.392 127.861 113.482 127.441 112.996C128.629 112.564 129.854 112.86 131.06 112.811C132.456 112.757 133.859 112.739 135.25 112.811C136.405 112.875 136.73 112.554 136.118 111.508C135.396 110.827 135.298 109.856 134.973 108.993C134.735 108.358 134.584 107.693 134.389 107.043C133.772 104.972 133.767 104.987 131.616 104.902C131.124 104.884 130.578 104.992 130.222 104.491C130.991 104.198 131.785 104.383 132.566 104.36C133.954 104.324 133.954 104.345 133.321 103.006C133.375 102.957 133.429 102.908 133.48 102.857C135.017 102.757 136.584 101.927 138.09 102.996H141.035C142.508 102.289 144.07 102.721 145.591 102.626C145.847 102.649 146.129 102.626 146.398 102.646C147.543 102.803 147.235 102.132 147.028 101.521C146.733 100.632 146.439 99.7427 146.137 98.8536C146.039 98.3397 145.781 97.8258 146.057 97.3119C147.704 96.7569 148.416 97.2117 148.534 98.9024C148.573 99.1486 148.638 99.3898 148.728 99.6219C150.777 106.22 152.946 112.785 155.036 119.374C156.178 122.868 157.226 126.391 158.424 129.867C158.604 130.302 158.724 130.759 158.78 131.227C158.688 131.689 159.018 132.015 159.167 132.401C160.838 137.403 162.45 142.425 164.002 147.468C164.089 147.9 164.244 148.314 164.461 148.697C164.627 149.437 164.991 150.128 164.991 150.909C164.972 151.047 164.91 151.176 164.814 151.276Z" fill="#9BC954"/>
<path d="M147.914 149.694C148.444 149.76 148.541 150.195 148.682 150.598C149.627 153.538 150.565 156.477 151.517 159.414C151.638 159.784 151.773 160.134 151.517 160.491C151.246 161.793 150.17 162.983 149.028 163.166C146.616 163.551 144.183 163.785 141.76 164.111C141.595 164.15 141.424 164.147 141.261 164.102C141.098 164.057 140.949 163.972 140.828 163.854C140.915 159.83 141.004 155.805 141.097 151.778C141.128 151.527 141.188 151.28 141.273 151.043C143.332 149.879 145.535 149.347 147.914 149.694Z" fill="#548626"/>
<path d="M141.765 129.98C142.659 130.771 142.695 131.946 143.045 132.966C144.026 135.91 144.92 138.876 145.863 141.843C144.613 143.233 143.284 144.518 141.465 145.148C141.084 144.241 141.209 143.272 141.324 142.37C141.688 139.431 141.429 136.486 141.547 133.546C141.563 132.357 141.683 131.17 141.765 129.98Z" fill="#A2D559"/>
<path d="M147.914 149.693C145.647 149.902 143.455 150.487 141.255 151.04L141.27 146.158C142.945 143.909 144.633 143.496 146.836 144.793C147.289 146.353 147.893 147.877 148.157 149.483L147.914 149.693Z" fill="#A2D559"/>
<path d="M140.812 163.844C143.629 163.502 146.467 163.222 149.264 162.785C150.46 162.6 150.752 161.269 151.492 160.49C151.958 160.562 152.086 160.778 151.784 161.177L150.839 162.428C151.435 162.862 152.375 162.084 152.731 163.037L140.792 164.62C140.794 164.363 140.81 164.103 140.812 163.844Z" fill="#F9FAF7"/>
<path d="M146.838 144.791C144.644 143.848 142.882 144.685 141.273 146.155C141.221 145.809 141.28 145.455 141.442 145.145L145.84 141.843C145.919 142.049 145.998 142.255 146.075 142.46C145.563 143.054 145.504 143.56 146.349 143.894L146.838 144.791Z" fill="#FAFCF7"/>
<path d="M129.188 147.214C128.419 149.65 127.651 151.986 126.914 154.327C126.76 154.815 126.378 154.802 125.992 154.802C122.286 154.802 118.583 154.802 114.879 154.802C114.142 154.802 114.009 154.545 114.237 153.879C114.902 151.904 115.535 149.917 116.152 147.926C116.296 147.461 116.48 147.196 117.02 147.199C121.018 147.222 125.016 147.214 129.188 147.214Z" fill="#F2D054"/>
<path d="M123.21 145.909C121.377 145.909 119.543 145.888 117.712 145.909C117.005 145.909 116.818 145.752 117.069 145.027C117.737 143.095 118.362 141.147 118.944 139.184C119.123 138.58 119.415 138.385 120.025 138.388C123.733 138.4 127.44 138.391 131.147 138.362C131.744 138.362 132.028 138.447 131.798 139.133C131.121 141.153 130.461 143.177 129.846 145.217C129.672 145.793 129.365 145.909 128.834 145.901C126.965 145.893 125.085 145.909 123.21 145.909Z" fill="#F2D054"/>
<path d="M128.332 129.806C130.166 129.806 132 129.824 133.833 129.806C134.551 129.806 134.737 130.021 134.504 130.715C133.88 132.576 133.288 134.446 132.712 136.319C132.538 136.885 132.256 137.136 131.623 137.131C127.956 137.102 124.285 137.102 120.611 137.131C119.843 137.131 119.635 136.969 119.917 136.175C120.555 134.377 121.133 132.534 121.664 130.692C121.874 129.967 122.253 129.788 122.944 129.803C124.747 129.824 126.54 129.806 128.332 129.806Z" fill="#F2D054"/>
<path d="M119.917 156.114C121.746 156.114 123.577 156.153 125.405 156.099C126.248 156.073 126.302 156.371 126.071 157.058C125.449 158.913 124.86 160.781 124.278 162.649C124.104 163.206 123.83 163.466 123.195 163.461C119.492 163.432 115.79 163.432 112.088 163.461C111.348 163.461 111.222 163.227 111.455 162.543C112.091 160.693 112.698 158.83 113.248 156.95C113.445 156.271 113.789 156.117 114.431 156.13C116.26 156.166 118.091 156.13 119.922 156.13L119.917 156.114Z" fill="#F2D054"/>
<path d="M131.152 121.298C132.986 121.298 134.819 121.314 136.653 121.298C137.273 121.298 137.496 121.409 137.257 122.097C136.607 123.99 135.997 125.898 135.429 127.822C135.257 128.405 134.955 128.529 134.422 128.526C130.711 128.526 126.995 128.506 123.295 128.526C122.578 128.526 122.393 128.331 122.621 127.65C123.246 125.79 123.861 123.927 124.432 122.051C124.614 121.452 124.924 121.28 125.525 121.28C127.4 121.326 129.27 121.298 131.152 121.298Z" fill="#F2D054"/>
<path d="M110.262 166.6C110.326 165.282 110.877 164.717 112.326 164.771C115.599 164.892 118.88 164.804 122.158 164.815C122.573 164.815 123.008 164.709 123.5 164.992C122.775 167.238 122.025 169.494 121.333 171.768C121.162 172.336 120.821 172.341 120.373 172.338L110.288 172.292C109.558 171.118 109.916 169.83 109.944 168.589C109.975 167.916 110.081 167.249 110.262 166.6Z" fill="#F2D054"/>
<path d="M127.449 113.013C130.01 113.013 132.548 113.096 135.093 113.013C136.246 112.978 136.907 113.227 137.119 114.465C137.375 115.917 138.243 117.215 138.267 118.738C138.213 119.751 137.688 120.023 136.691 120.023C132.876 119.964 129.06 120 125.1 120C125.94 117.582 126.494 115.231 127.449 113.013Z" fill="#F2D054"/>
<path d="M130.23 104.516C130.822 104.539 131.426 104.658 131.997 104.57C133.437 104.347 134.218 104.861 134.558 106.32C134.981 108.08 135.583 109.799 136.115 111.534C133.703 111.534 131.288 111.534 128.875 111.557C128.133 111.557 127.741 111.5 128.107 110.588C128.898 108.594 129.224 106.436 130.23 104.516Z" fill="#F2D054"/>
<path d="M131.541 97.4297C132.822 97.1317 133.398 97.6867 133.759 98.9303C134.074 100.007 134.036 101.297 135.104 102.068C134.74 102.885 134.036 102.746 133.365 102.697C132.525 102.101 132.54 101.102 132.215 100.261C132.051 99.8322 132.094 99.3466 131.854 98.938C132.059 98.3573 131.849 97.8768 131.541 97.4297Z" fill="#9AC853"/>
<path d="M131.854 98.9254C132.696 99.4393 132.451 100.426 132.814 101.151C133.023 101.614 133.207 102.087 133.367 102.569C133.398 102.603 133.421 102.643 133.435 102.686C133.45 102.729 133.455 102.775 133.45 102.821C133.446 102.866 133.432 102.91 133.41 102.95C133.388 102.99 133.358 103.025 133.321 103.052L133.342 103.037C130.496 103.319 130.496 103.319 131.319 100.616C131.477 100.046 131.672 99.4856 131.854 98.9254Z" fill="#F0CF53"/>
<path d="M164.286 148.72C163.884 148.52 163.774 148.168 163.81 147.754C164.704 147.194 165.549 147.774 166.345 147.983C167.546 148.299 168.297 147.931 169.162 147.122C173.053 143.476 176.077 139.259 178.039 134.274C178.446 133.247 178.687 132.155 179.004 131.091C179.276 130.181 179.069 129.66 178.024 129.487C174.244 128.86 170.487 128.095 166.712 127.432C165.905 127.293 165.321 127.604 164.732 128.074C163.195 129.3 161.659 130.505 160.122 131.718C159.782 131.975 159.49 132.458 158.921 132.25C158.757 132.011 158.363 131.851 158.65 131.458C158.87 130.854 159.402 130.556 159.869 130.189C165.759 125.564 171.626 120.903 177.688 116.093C174.92 115.579 172.348 115.252 169.723 115.499C166.372 115.781 163.07 116.494 159.899 117.621C159.474 117.778 159.016 117.994 158.565 117.65C158.072 116.462 157.791 115.197 157.735 113.911C157.807 113.735 157.915 113.575 158.052 113.442C158.188 113.31 158.351 113.207 158.529 113.14C160.414 112.218 162.243 111.177 164.179 110.36C164.415 110.281 164.625 110.14 164.788 109.952C163.098 109.612 161.433 109.486 159.787 109.258C158.506 109.078 157.169 109.134 155.932 108.633C155.456 108.361 155.282 107.878 155.059 107.418C153.593 104.443 151.836 101.622 149.814 98.9952C149.771 98.9197 149.711 98.8548 149.64 98.805C149.569 98.7553 149.487 98.722 149.402 98.7074C148.905 98.8668 149.125 99.7353 148.434 99.7198C148.354 99.5246 148.178 99.3087 148.208 99.1417C148.641 97.2583 147.332 97.4047 146.177 97.3636C145.742 97.0219 145.788 96.5439 145.821 96.0789C146.27 89.6551 146.684 83.2494 146.792 76.8077C146.83 74.5131 147.104 72.2211 146.912 69.9214C146.799 69.3403 146.787 68.744 146.877 68.1587C146.905 68.0251 146.953 67.8963 147.017 67.7759C147.094 67.6248 147.198 67.4897 147.325 67.3776C149.694 65.579 149.712 63.2998 148.682 60.7689C148.102 59.4033 147.387 58.0992 146.549 56.8761C146.231 56.3956 145.752 55.9742 145.806 55.3087C145.821 52.9105 145.838 50.5192 145.857 48.1347C145.857 47.6208 145.768 47.1069 146.093 46.6495C146.239 46.7163 146.436 46.7446 146.526 46.8551C148.16 48.9107 148.892 48.1398 150.424 46.8859C152.216 45.4085 152.27 45.0385 151.038 42.9957C150.919 42.8511 150.854 42.6694 150.854 42.4818C150.854 42.2942 150.919 42.1125 151.038 41.9679C151.282 41.6695 151.472 41.3314 151.602 40.9684C151.945 39.6271 152.565 38.7946 154.145 39.1029C154.818 39.234 155.241 38.7406 155.425 38.1008C155.5 37.8567 155.553 37.6065 155.584 37.3531C155.937 34.1644 155.84 34.0359 152.767 32.949C152.887 32.2835 153.471 32.2809 153.942 32.1627C154.617 32.031 155.305 31.9861 155.991 32.0291H224.135C224.391 32.0291 224.647 32.0291 224.903 32.0291C226.491 32.0805 226.598 32.191 226.598 33.8278C226.598 76.0582 226.598 118.284 226.598 160.504C226.598 160.923 226.703 161.359 226.483 161.76L220.828 161.868C220.572 160.627 220.972 159.389 220.851 158.145C220.777 157.351 220.731 156.557 220.67 155.763C220.779 155.132 220.767 154.486 220.634 153.859C220.163 151.125 219.691 148.394 219.451 145.637C219.182 144.069 219.566 142.51 219.484 140.942C219.42 139.681 219.189 138.504 218.426 137.476C217.843 136.698 217.162 136 216.398 135.4C216.006 135.076 215.568 134.791 215.563 134.202C216.05 132.237 215.563 130.389 214.795 128.606C214.206 127.237 213.325 126.715 212.136 126.872C211.476 126.96 210.862 127.256 210.381 127.718C209.9 128.18 209.579 128.784 209.463 129.441C209.353 130.075 209.347 130.722 209.442 131.358C209.724 132.969 209.637 134.593 209.678 136.212C209.714 137.597 209.749 137.615 211.114 137.347C211.214 137.461 211.277 137.603 211.295 137.753C211.314 137.903 211.286 138.056 211.217 138.19C210.546 139.891 209.749 141.531 208.556 142.941C207.821 143.226 206.551 142.892 206.876 144.406C206.794 145.778 206.917 147.119 207.509 148.383C207.596 149.324 208.139 149.668 209.045 149.627C209.501 149.601 209.975 149.599 210.379 149.884C210.715 150.311 210.587 150.794 210.482 151.238C210.118 152.863 210.042 154.539 210.257 156.19C210.33 157.308 210.405 158.422 210.482 159.53C210.513 159.918 210.395 160.316 210.566 160.694C210.566 161.046 210.566 161.4 210.566 161.753C210.08 162.218 209.463 162.153 208.874 162.156C197.337 162.156 185.8 162.156 174.261 162.156C173.45 162.156 172.658 162.156 172.164 161.285C171.908 160.851 171.396 161.12 170.976 161.11C170.105 161.087 169.221 161.609 168.369 161.033C167.6 160.745 167.933 160.501 168.399 160.262C169.767 159.599 171.234 159.612 172.604 159.527C170.991 157.215 168.783 155.313 166.276 153.759C165.991 153.577 165.747 153.336 165.562 153.052L164.811 151.233C164.826 151.206 164.835 151.176 164.839 151.145C164.842 151.114 164.838 151.083 164.829 151.053C165.262 150.151 166.038 149.689 166.827 149.38C166.038 149.262 165.075 149.314 164.286 148.72Z" fill="#FEFEFE"/>
<path d="M145.799 55.3287C147.189 57.2044 148.511 59.1186 149.215 61.3849C150.178 64.4683 149.807 65.6632 147.135 67.8781C146.273 67.6323 145.492 67.1573 144.877 66.5034C144.267 65.897 143.76 65.7325 142.997 66.0589C142.555 66.2146 142.092 66.3013 141.624 66.3158C140.899 66.3852 140.451 66.0589 140.433 65.3214C140.354 61.8732 140.315 58.4249 140.456 54.9766C140.495 54.7226 140.592 54.4809 140.738 54.27L141.038 53.2422C141.719 52.7129 142.4 52.7797 143.086 53.2422C143.629 54.4216 144.997 54.5038 145.799 55.3287Z" fill="#BDE385"/>
<path d="M140.738 54.2802C140.738 57.7978 140.761 61.3154 140.738 64.8357C140.738 65.7992 140.846 66.2668 142.018 65.9174C142.864 65.6604 143.739 65.5114 144.562 65.09C144.562 66.8604 146.61 66.6523 147.14 67.8779C145.834 69.083 144.183 69.1627 142.551 69.2577C141.888 69.3014 141.191 69.1806 140.723 69.8307C139.555 70.175 138.369 70.1057 137.178 69.9926C137.07 69.881 137.01 69.7317 137.01 69.5764C137.01 69.421 137.07 69.2717 137.178 69.1601C137.178 68.8235 137.196 68.4869 137.206 68.1503C137.877 67.454 137.89 66.7628 137.191 66.0767C137.191 64.941 137.191 63.8027 137.191 62.667C137.191 62.2738 137.327 61.7677 136.679 61.7317C136.062 61.688 136.077 61.1793 136.082 60.7913C136.105 59.4294 136.213 58.0727 136.932 56.8548C138.395 56.3178 139.345 54.9688 140.738 54.2802Z" fill="#A9D964"/>
<path d="M136.907 56.8602C136.942 57.9189 136.525 58.9158 136.425 59.9436C136.369 60.532 136.169 61.2001 136.653 61.7423C135.116 62.2562 133.564 62.066 132.043 61.8373C129.974 61.5239 127.925 61.0665 125.869 60.6914C124.79 60.0541 124.317 59.0006 123.94 57.8829C124.947 58.4405 126.009 58.181 127.08 58.2169C130.238 58.3274 133.313 58.0782 136.3 57.0298C136.497 56.9553 136.697 56.9142 136.907 56.8602Z" fill="#B8E17D"/>
<path d="M101.355 62.778C99.7334 63.2919 98.0739 62.9245 96.4348 62.981C95.8817 62.999 95.9585 62.4671 95.9559 62.1074C95.9559 60.7378 95.9559 59.3709 95.9559 57.9962V36.3276C95.9559 36.0296 95.9559 35.7289 95.9559 35.4309C95.9559 35.2279 95.9354 34.9581 96.2248 34.9324C96.5142 34.9067 96.6551 35.1688 96.6756 35.4283C96.7089 35.8112 96.7012 36.1992 96.7012 36.582C96.7012 44.7453 96.7268 52.9086 96.6781 61.0719C96.6781 62.2024 96.9701 62.5981 98.1072 62.4979C99.1649 62.4029 100.238 62.4979 101.303 62.4979C101.333 62.5165 101.357 62.5429 101.373 62.5741C101.388 62.6053 101.395 62.6403 101.393 62.6752C101.393 62.742 101.378 62.778 101.355 62.778Z" fill="#FDFDFD"/>
<path d="M118.731 49.4138C119.1 48.9718 119.604 49.1568 120.048 49.1568C122.391 49.1363 124.732 49.1157 127.075 49.1568C127.828 49.1748 128.217 48.8999 128.53 48.2369C130.361 44.3442 132.225 40.4668 134.087 36.5868C134.2 36.3899 134.256 36.1653 134.248 35.9382C134.24 35.7112 134.169 35.4908 134.043 35.3021C133.59 34.5081 133.703 33.7347 134.602 33.2465C135.329 32.8508 135.918 33.2105 136.218 33.7886C136.622 34.58 136.551 35.4074 135.56 35.7826C135.027 35.9804 134.919 36.4429 134.725 36.8438C132.842 40.7623 130.96 44.6782 129.121 48.6172C128.747 49.4215 128.284 49.7298 127.377 49.7093C124.56 49.6502 121.743 49.6938 118.946 49.7093C118.741 49.7041 118.606 49.6579 118.731 49.4138Z" fill="#FDFDFD"/>
<path d="M118.214 49.4317C117.407 51.2946 116.59 53.1575 115.796 55.0281C115.561 55.5857 115.115 55.5702 114.639 55.5702C112.846 55.5702 111.074 55.5959 109.294 55.5548C108.526 55.5368 107.967 55.7424 107.658 56.4696C107.633 56.5044 107.611 56.5404 107.591 56.5775C106.62 59.3654 104.589 60.1748 101.849 59.6788C101.685 59.5529 101.37 59.4707 101.703 59.1907L102.108 59.1547C102.233 59.0159 102.308 58.7924 102.566 58.8772C104.569 59.2857 105.975 58.669 106.718 56.6392C107.23 55.2285 108.221 54.5501 109.86 54.766C111.24 54.9458 112.662 54.766 114.063 54.82C114.938 54.8611 115.361 54.5065 115.658 53.7151C116.124 52.4843 116.683 51.2946 117.236 50.0947C117.407 49.7169 117.535 49.2801 118.004 49.1311C118.209 49.1362 118.391 49.1593 118.214 49.4317Z" fill="#F8F8F8"/>
<path d="M101.703 59.1908L101.849 59.679C102.07 60.6562 102.403 61.6046 102.84 62.5054C102.937 62.5585 103.015 62.6417 103.061 62.7427C103.107 62.8437 103.12 62.957 103.096 63.0656C103.119 63.9829 103.557 64.7743 103.864 65.6094C104.197 66.5421 104.1 67.3592 103.152 67.9014L100.579 67.3875C102.305 66.1027 101.859 64.4634 101.378 62.8009C101.362 62.7084 101.344 62.6134 101.329 62.5209C101.073 61.75 101.209 60.9149 100.817 60.1826C100.348 59.9077 99.9 59.5942 99.4415 59.2987C99.1854 59.142 98.7705 58.975 99.1393 58.5279C99.5562 58.3697 100.012 58.3453 100.443 58.4581C100.874 58.5708 101.26 58.8152 101.547 59.1574C101.6 59.1603 101.653 59.1716 101.703 59.1908Z" fill="#F7B68F"/>
<path d="M143.099 53.2577H141.05C141.05 53.2166 141.05 53.1446 141.017 53.1369C139.109 52.4329 139.352 50.976 139.736 49.4651C139.762 49.2951 139.771 49.123 139.765 48.9512C141.77 48.2986 142.374 48.5401 143.55 50.4544C142.653 51.2843 143.13 52.3121 143.099 53.2577Z" fill="#F5B48E"/>
<path d="M143.527 50.4701C143.138 50.0795 142.398 50.0693 142.364 49.2624C142.349 48.9104 141.926 48.9695 141.627 49.0286C140.994 49.1519 140.367 49.0286 139.739 48.9669C139.048 48.5661 138.377 48.1318 138.902 47.1837C139.391 46.2972 140.146 46.3126 140.976 46.6698C141.709 46.9781 142.413 47.343 143.255 47.3379C144.024 47.3379 144.28 47.88 144.142 48.561C143.969 49.2074 143.764 49.8446 143.527 50.4701Z" fill="#030303"/>
<path d="M118.731 49.4141L118.946 49.6967C120.357 51.9784 121.767 54.2601 123.177 56.5418C123.433 56.9761 123.689 57.4309 123.93 57.8754L125.858 60.7019C125.946 61.113 126.371 61.3802 126.337 61.8453C126.051 62.1022 125.866 61.9352 125.723 61.6963C123.307 57.729 120.896 53.7582 118.49 49.7841C118.432 49.6916 118.473 49.5271 118.467 49.4141H118.731Z" fill="#403E3D"/>
<path d="M119.666 41.4151H116.782C117.269 40.598 117.643 39.8734 118.296 39.2439C118.863 39.8911 119.325 40.6238 119.666 41.4151Z" fill="#FDFDFD"/>
<path d="M129.38 34.9916H126.634C126.634 34.8579 126.622 34.7552 126.663 34.7012C127.106 34.0948 127.4 32.9026 127.943 32.9694C128.699 33.0773 128.909 34.2053 129.38 34.9916Z" fill="#FDFDFD"/>
<path d="M101.531 59.1446C100.691 58.9904 99.9128 58.4842 99.0062 58.7001C98.9693 58.7294 98.9266 58.7506 98.8809 58.762C98.8352 58.7735 98.7876 58.775 98.7413 58.7665C98.695 58.7579 98.651 58.7396 98.6124 58.7126C98.5737 58.6856 98.5412 58.6507 98.5171 58.6101C98.5171 57.9189 98.7886 57.5823 99.5236 57.7596C100.051 57.8778 100.592 57.9318 101.124 58.0166C101.903 58.1605 101.992 58.5562 101.531 59.1446Z" fill="#F39814"/>
<path d="M98.5171 58.6105L99.0063 58.7004C99.4929 59.3274 100.658 59.1115 100.799 60.1624C99.142 60.8074 98.512 60.3783 98.5171 58.6105Z" fill="#FDFCFB"/>
<path d="M118.214 49.4319L118.001 49.1236C117.799 48.7613 117.607 48.3913 117.397 48.0316C117.162 47.6825 116.989 47.2958 116.885 46.8882C117.525 47.659 118.232 48.3759 118.483 49.4114L118.214 49.4319Z" fill="#403E3D"/>
<path d="M102.566 58.8876L102.108 59.1651C102.051 58.867 101.893 58.4739 102.256 58.3582C102.51 58.2657 102.533 58.6486 102.566 58.8876Z" fill="#545B78"/>
<path d="M137.252 69.89C138.392 69.4095 139.593 69.8566 140.751 69.6331C142.884 69.0961 145.02 69.0164 147.153 69.6511C147.617 71.6604 147.286 73.6852 147.248 75.7022C147.11 82.9353 146.651 90.1531 146.172 97.3708L146.372 98.9125C146.541 100.385 145.519 100.631 144.431 100.809C144.374 100.822 144.314 100.82 144.258 100.802C144.202 100.785 144.151 100.754 144.111 100.711C144.111 100.354 144.313 99.9839 144.047 99.6422C143.191 98.3857 143.294 96.8928 143.089 95.4899C142.806 93.701 142.71 91.8874 142.802 90.0786C142.656 85.9828 142.157 81.9204 141.58 77.8426C141.048 81.4245 140.515 85.0064 139.982 88.5882C139.45 92.1701 138.926 95.758 138.412 99.3518C138.32 100.002 138.059 100.313 137.339 100.303C136.62 100.292 136.494 99.8426 136.461 99.3107C136.092 93.6835 135.803 88.0512 136 82.4061C136.046 81.0828 136.082 79.7595 136.12 78.4362C135.608 77.2414 136.141 76.0465 136.12 74.8389C136.376 73.6004 136.405 72.3234 136.709 71.0951C136.814 70.6737 136.75 70.1495 137.252 69.89Z" fill="#585858"/>
<path d="M136.441 74.7179C136.44 75.9632 136.334 77.2062 136.123 78.4334L131.229 78.3795C131.229 75.923 131.267 73.464 131.211 71.0076C131.191 70.0646 131.403 69.656 132.44 69.6329C133.741 69.6021 135.035 69.3451 136.333 69.1832C136.776 69.5532 136.817 70.0697 136.763 70.5733C136.61 71.9532 136.569 73.3407 136.441 74.7179Z" fill="#548626"/>
<path d="M142.799 90.0763L144.044 99.6425L142.431 100.426C142.684 96.9163 142.282 93.4834 142.799 90.0763Z" fill="#FBFAF6"/>
<path d="M144.108 100.708C144.172 100.708 144.236 100.724 144.303 100.737C144.629 100.832 144.947 100.95 145.256 101.091C146.252 101.479 146.38 102.006 145.768 103.029H141.048C140.992 102.176 141.745 102.471 142.124 102.322C142.974 101.996 143.926 101.849 144.108 100.708Z" fill="#32312C"/>
<path d="M133.309 103.047L133.355 102.564C133.946 102.42 134.571 102.397 135.104 102.05C135.454 101.921 135.796 101.77 136.128 101.598C136.395 101.44 136.695 101.349 137.003 101.331C137.312 101.313 137.62 101.369 137.903 101.495C138.415 101.752 138.159 102.479 138.087 103.016C136.5 102.554 134.904 103.186 133.309 103.047Z" fill="#263115"/>
<path d="M103.089 63.0551C103.004 62.8675 102.922 62.68 102.833 62.495H136.484V63.0551H103.089Z" fill="#FEFEFE"/>
<path d="M137.176 66.082C137.575 66.3646 138.2 66.3132 138.2 67.1098C138.2 67.9063 137.598 67.8806 137.176 68.1376C136.707 68.1376 136.241 68.1376 135.875 67.7521C135.363 67.21 134.717 66.488 134.981 65.8995C135.224 65.3574 136.072 65.8995 136.651 66.028C136.824 66.0584 137 66.0764 137.176 66.082Z" fill="#F6B68F"/>
<path d="M136.441 74.7187L136.333 69.184L137.168 69.166C137.199 69.4075 137.227 69.6516 137.258 69.8932C136.983 71.5017 136.71 73.1102 136.441 74.7187Z" fill="#F8F8F8"/>
<path d="M53.4841 81.5891C50.8872 80.8362 48.5413 79.5669 46.3133 78.0663C45.4988 77.4188 45.4835 76.9357 46.449 76.3293C47.6706 75.5585 48.7744 74.6052 49.9294 73.729C51.466 74.8519 53.0846 75.7692 54.9669 76.1495C54.6494 77.6501 54.3215 79.1506 54.0193 80.6564C53.9374 81.0392 53.9348 81.4349 53.4841 81.5891Z" fill="#2E4717"/>
<path d="M58.5858 85.0964C58.6507 85.5065 58.7492 85.9104 58.8804 86.3041C59.2107 87.0955 59.1518 87.7996 58.4578 88.3238C58.0352 88.6449 58.112 89.0432 58.0839 89.4466L55.779 89.146C55.8849 89.0168 55.9428 88.8546 55.9428 88.6873C55.9428 88.52 55.8849 88.3579 55.779 88.2287C55.6458 87.7148 55.0619 87.3602 55.2386 86.7152C55.4511 85.9444 55.7226 85.2146 56.7214 85.2737C57.3489 85.3097 57.9328 84.8626 58.5858 85.0964Z" fill="#F6B38D"/>
<path d="M99.562 12.1408C101.772 11.573 104.008 11.4779 106.241 12.1408C104.016 11.9455 101.798 11.7554 99.562 12.1408Z" fill="#D5ECB4"/>
<path d="M226.478 161.799V34.9224C226.454 34.5382 226.454 34.1529 226.478 33.7687C226.611 32.7615 226.222 32.4634 225.198 32.4634C201.781 32.4908 178.366 32.4977 154.952 32.484C154.19 32.4493 153.434 32.6187 152.759 32.9747C152.416 32.0266 152.114 31.0605 151.714 30.1354C151.458 29.5496 151.906 29.3646 152.178 29.1076C153.671 27.566 153.681 26.9621 152.193 25.3613C151.904 25.0479 151.571 24.7729 151.3 24.4492C150.531 23.5447 149.681 23.5139 148.859 24.2564C147.988 25.0273 147.202 25.0761 146.298 24.3567C145.948 24.111 145.561 23.9252 145.151 23.8068C144.515 23.5909 144.364 23.2569 144.464 22.558C144.72 20.7825 144.042 20.0451 142.231 19.9269C141.89 19.9037 141.55 19.9269 141.207 19.9115C139.112 19.9115 139.045 19.8934 138.646 22.0081C138.389 23.3982 137.199 23.036 136.41 23.4445C136.41 22.206 136.41 20.9649 136.371 19.7264C136.351 19.1097 136.579 18.8605 137.183 18.9273C137.396 18.9389 137.61 18.9389 137.823 18.9273C166.946 18.9273 196.067 18.917 225.187 18.8965C226.45 18.8965 226.709 19.2459 226.709 20.4587C226.686 67.1002 226.681 113.741 226.693 160.38C226.703 160.843 226.944 161.39 226.478 161.799Z" fill="#E0E0E0"/>
<path d="M219.756 145.636C220.217 148.686 220.657 151.739 221.151 154.781C221.238 155.295 221.318 155.693 220.665 155.809C219.021 155.536 217.361 155.673 215.714 155.714C214.669 155.739 214.38 155.382 214.465 154.403C214.491 153.681 214.474 152.958 214.413 152.237C213.901 151.397 214.027 150.521 214.26 149.639C214.81 148.997 215.345 149.483 215.85 149.696C217.707 150.467 218.375 150.125 218.716 148.121C218.808 147.576 218.898 147.034 219.005 146.494C219.087 146.07 219.184 145.631 219.756 145.636Z" fill="#F8DA40"/>
<path d="M210.254 156.223C209.23 154.151 210.09 152.096 210.3 150.035C210.969 149.48 211.709 149.496 212.482 149.758C212.861 150.595 212.964 151.423 212.392 152.224C212.016 152.995 212.188 153.815 212.188 154.617C212.016 154.966 212.444 155.989 211.419 155.387C210.321 154.748 210.231 155.362 210.254 156.223Z" fill="#EED058"/>
<path d="M212.393 152.225C212.375 151.4 212.354 150.578 212.336 149.753C212.239 149.654 212.169 149.532 212.134 149.398C212.013 148.929 212.068 148.431 212.29 148C213.471 147.826 214.083 148.491 214.498 149.483L214.413 152.23L212.393 152.225Z" fill="#FCFCFC"/>
<path d="M168.371 161.079L173.02 160.49C172.833 160.968 172.697 161.315 172.559 161.662C172.787 161.994 173.109 161.865 173.373 161.865C185.476 161.865 197.579 161.865 209.681 161.865C209.975 161.865 210.272 161.819 210.569 161.796L210.8 167.479C197.739 167.479 184.677 167.446 171.616 167.479C170.387 167.479 169.785 167.21 169.567 165.91C169.36 164.71 168.799 163.574 168.446 162.394C168.325 161.986 167.972 161.539 168.371 161.079Z" fill="#548626"/>
<path d="M164.496 172.068C162.878 172.621 161.211 172.253 159.569 172.305C157.249 172.374 157.244 172.323 156.496 170.054C156.025 168.597 155.571 167.132 155.092 165.686C154.908 165.126 154.941 164.843 155.666 164.848C159.372 164.879 163.078 164.869 166.783 164.848C167.37 164.848 167.762 165.002 167.887 165.64C168.038 166.41 168.609 167.102 168.399 167.952C167.503 169.712 166.376 171.251 164.496 172.068Z" fill="#548526"/>
<path d="M155.648 156.41C156.05 156.102 156.521 156.138 156.987 156.138C159.236 156.138 161.485 156.197 163.731 156.138C164.63 156.109 165.034 156.443 165.249 157.263C165.473 158.126 165.751 158.974 166.082 159.802C166.317 160.387 165.92 160.503 165.569 160.704C164.95 161.364 164.087 161.289 163.318 161.374C160.875 161.647 158.452 162.029 156.012 162.33C155.5 162.394 154.987 162.489 154.562 162.094C153.131 161.706 153.668 160.331 153.241 159.442C153.638 158.165 154.497 157.084 155.648 156.41Z" fill="#548626"/>
<path d="M149.968 149.994C149.968 149.837 149.968 149.678 149.968 149.521C150.518 148.953 151.248 149.087 151.896 149.118C154.273 149.228 156.647 149.401 158.913 150.228C159.223 150.4 159.336 150.678 159.146 150.97C158.283 152.314 157.474 153.71 156.101 154.627C154.821 155.069 153.505 154.781 152.206 154.83C151.54 154.853 151.438 154.272 151.269 153.802C150.839 152.533 150.603 151.194 149.968 149.994Z" fill="#548626"/>
<path d="M165.564 153.096C168.594 154.609 171.014 156.806 173.063 159.735L168.394 160.306C168.092 160.203 167.736 160.265 167.6 159.807C166.947 157.556 166.251 155.331 165.564 153.096Z" fill="#548627"/>
<path d="M163.247 151.855L163.503 152.055C164.643 154.848 164.64 154.897 161.741 154.83C160.204 154.794 158.614 155.156 157.09 154.596C157.574 152.898 158.86 151.796 160.035 150.611C161.229 150.706 162.338 151.022 163.247 151.855Z" fill="#558627"/>
<path d="M166.561 161.241C167.186 163.566 167.186 163.566 164.804 163.566C161.828 163.566 158.849 163.566 155.874 163.566C155.282 163.566 154.547 163.759 154.322 162.875C154.711 162.348 155.325 162.449 155.858 162.377C159.095 161.935 162.325 161.436 165.59 161.138C165.917 161.076 166.254 161.112 166.561 161.241Z" fill="#578929"/>
<path d="M164.497 172.069C165.928 170.824 167.239 169.448 168.415 167.958C169.329 169.078 169.311 170.553 169.867 171.812C169.985 172.069 169.811 172.326 169.485 172.303C167.826 172.203 166.148 172.65 164.497 172.069Z" fill="#DCDDDC"/>
<path d="M166.561 161.241L154.322 162.867C153.791 162.42 154.283 162.287 154.557 162.097L165.57 160.706C165.977 160.727 166.404 160.742 166.561 161.241Z" fill="#F8FAF6"/>
<path d="M159.964 150.776L157.093 154.596C156.767 154.704 156.45 155.051 156.107 154.627L159.18 150.516C159.248 150.48 159.323 150.458 159.4 150.452C159.476 150.446 159.554 150.455 159.627 150.479C159.7 150.503 159.767 150.542 159.825 150.593C159.883 150.644 159.93 150.706 159.964 150.776Z" fill="#F2F6EE"/>
<path d="M153.039 158.497C153.003 158.473 152.954 158.461 152.931 158.427C152.498 157.782 151.927 156.747 152.288 156.372C152.857 155.773 153.958 156.205 154.834 156.166C154.768 156.679 154.567 157.166 154.251 157.575C153.936 157.985 153.517 158.303 153.039 158.497Z" fill="#568728"/>
<path d="M153.039 158.497L154.831 156.161C155.123 156.161 155.472 155.986 155.633 156.418L153.233 159.442C152.903 159.178 152.977 158.841 153.039 158.497Z" fill="#F3F6EF"/>
<path d="M210.564 160.74C210.412 160.371 210.383 159.963 210.479 159.576C210.687 159.951 210.587 160.346 210.564 160.74Z" fill="#548626"/>
<path d="M158.914 132.262C160.883 130.702 162.863 129.153 164.804 127.573C165.065 127.337 165.381 127.17 165.722 127.087C166.064 127.003 166.42 127.006 166.761 127.095C170.63 127.866 174.523 128.544 178.413 129.233C179.258 129.382 179.717 129.515 179.438 130.669C177.991 136.836 174.7 141.89 170.395 146.428C168.804 148.106 167.293 149.031 165.034 148.005C164.658 147.836 164.207 147.833 163.79 147.748C162.138 142.604 160.361 137.486 158.914 132.262Z" fill="#A2D559"/>
<path d="M158.691 117.621C161.462 116.817 164.194 115.897 167.07 115.489C170.847 114.91 174.7 115.06 178.421 115.93C175.86 117.96 173.45 119.9 171.009 121.799C166.881 125.014 162.88 128.393 158.642 131.466C157.246 127.496 155.894 123.5 154.818 119.443C155.789 118.156 157.287 117.986 158.691 117.621Z" fill="#A2D559"/>
<path d="M149.917 138.408C150.705 137.815 151.453 138.501 152.252 138.472C154.163 138.403 156.094 138.472 157.994 138.434C158.788 138.416 159.231 138.629 159.472 139.462C159.999 141.26 160.627 143.02 161.231 144.791C161.421 145.346 161.487 145.908 160.719 145.87C157.902 145.729 155.131 146.217 152.332 146.127C152.219 146.127 152.109 146.016 151.999 145.957C152.782 145.186 153.704 146.042 154.381 145.777C152.323 145.659 150.29 145.27 148.334 144.621C147.95 143.484 147.565 142.346 147.179 141.209C148.034 140.24 149.402 139.85 150.047 138.639C149.988 138.573 149.943 138.494 149.917 138.408Z" fill="#A2D559"/>
<path d="M158.691 117.621L154.818 119.448C153.794 117.118 153.179 114.646 152.393 112.236C151.038 108.081 149.758 103.903 148.426 99.7427C149.368 97.8464 149.361 97.8516 150.703 99.6939C152.706 102.432 154.442 105.357 155.884 108.43C156.836 109.168 156.926 110.347 157.354 111.352C157.538 111.781 157.664 112.238 157.812 112.683C157.92 113.045 158.038 113.405 157.904 113.788C158.166 115.064 158.428 116.342 158.691 117.621Z" fill="#F2D054"/>
<path d="M144.031 112.873C146.113 112.853 148.195 112.831 150.278 112.809C150.826 112.809 151.089 113.03 151.251 113.58C151.801 115.453 152.39 117.318 153.044 119.163C153.277 119.834 153.097 119.978 152.462 119.975C148.721 119.96 144.976 119.975 141.235 119.957C139.97 119.957 140.069 119.001 140.164 118.123C140.123 116.185 140.735 114.443 141.742 112.817L143.534 112.84C143.739 113.567 143.278 114.142 143.091 114.78C142.761 115.938 142.282 117.051 142.172 118.012C142.625 116.429 142.948 114.507 144.031 112.873Z" fill="#F2D054"/>
<path d="M152.063 137.139C150.493 137.139 148.92 137.139 147.351 137.175C146.341 137.203 145.814 136.785 145.535 135.795C145.087 134.161 144.572 132.54 143.998 130.942C143.642 129.934 144.098 129.721 144.946 129.726L153.863 129.765C154.59 131.401 154.375 133.156 154.445 134.865C154.478 135.549 153.804 135.893 153.305 136.289C152.91 136.6 152.46 136.831 152.063 137.139Z" fill="#A2D559"/>
<path d="M150.716 121.262L153.079 121.283C153.435 121.653 153.387 122.148 153.466 122.598C153.722 124.058 153.74 125.545 153.901 127.015C153.955 127.511 153.953 128.043 153.538 128.444C150.741 128.444 147.939 128.341 145.148 128.482C143.65 128.559 142.817 128.102 142.536 126.645C145.1 124.615 147.838 122.813 150.716 121.262Z" fill="#A2D559"/>
<path d="M159.963 150.775L159.195 150.518C156.16 149.838 153.108 149.324 149.976 149.514C149.061 147.24 149.107 147.163 151.456 147.168C153.804 147.173 156.13 147.183 158.465 147.191C159.303 147.425 160.179 147.402 161.026 147.579C161.482 147.677 161.915 147.785 162.23 148.16C162.629 149.372 163.283 150.513 163.254 151.847L159.963 150.775Z" fill="#A2D559"/>
<path d="M140.7 111.272C139.9 111.722 139.035 111.449 138.197 111.503C137.823 111.526 137.711 111.246 137.613 110.946C136.991 109.049 136.348 107.158 135.739 105.254C135.483 104.445 136.115 104.566 136.551 104.563C138.635 104.563 140.723 104.563 142.807 104.563C142.885 104.664 142.936 104.784 142.956 104.91C142.976 105.036 142.964 105.165 142.922 105.285C142.449 107.125 141.872 108.937 141.194 110.712C141.155 110.835 141.091 110.948 141.006 111.045C140.921 111.141 140.817 111.219 140.7 111.272Z" fill="#F2D054"/>
<path d="M150.716 121.262C150.409 121.959 149.691 122.118 149.128 122.472C147.17 123.654 145.281 124.947 143.471 126.345C143.344 126.457 143.196 126.542 143.035 126.593C142.874 126.645 142.704 126.663 142.536 126.645C142.098 125.196 141.704 123.729 141.202 122.303C140.91 121.473 141.117 121.249 141.95 121.257C144.872 121.283 147.794 121.265 150.716 121.262Z" fill="#F1D054"/>
<path d="M146.085 104.542C147.725 104.162 148.298 104.486 148.762 105.973C149.241 107.515 149.72 109.057 150.275 110.56C150.567 111.359 150.301 111.534 149.566 111.523C147.914 111.495 146.262 111.508 144.608 111.503C144.321 110.789 144.797 110.203 144.941 109.563C145.302 107.972 146.275 106.549 146.221 104.845C146.16 104.752 146.114 104.65 146.085 104.542Z" fill="#F2D054"/>
<path d="M144.38 104.817C144.892 104.419 145.512 104.604 146.085 104.542L146.121 104.583C146.144 104.617 146.193 104.655 146.19 104.686C145.801 107.091 145.189 109.416 143.85 111.49H142.259C142.176 111.367 142.124 111.226 142.11 111.078C142.096 110.93 142.119 110.781 142.177 110.645C142.69 108.949 143.158 107.24 143.775 105.578C143.816 105.415 143.891 105.263 143.995 105.131C144.099 105 144.231 104.893 144.38 104.817Z" fill="#F1D055"/>
<path d="M144.38 104.817L142.259 111.498C141.747 111.462 141.158 111.778 140.702 111.269L142.807 104.571C143.355 104.45 143.957 104.069 144.38 104.817Z" fill="#283316"/>
<path d="M157.405 132.768C157.738 133.858 158.056 134.95 158.409 136.034C158.65 136.779 158.276 137.144 157.641 137.142C156.163 137.142 154.662 137.399 153.215 136.869C153.413 135.857 154.409 135.608 155.021 134.993C155.705 134.305 156.647 133.886 157.152 133C157.216 132.902 157.303 132.823 157.405 132.768Z" fill="#A2D559"/>
<path d="M154.265 129.747C156.342 129.693 156.586 129.883 157.113 131.941C157.185 132.224 157.308 132.494 157.405 132.769L157.385 132.797C156.942 133.373 156.393 133.858 155.769 134.226C155.095 134.678 154.588 134.516 154.526 133.683C154.429 132.376 154.053 131.091 154.265 129.747Z" fill="#A2D559"/>
<path d="M154.265 129.747C154.826 131.188 154.575 132.756 154.949 134.282C155.938 134.048 156.404 132.982 157.385 132.797C157.569 133.426 157.128 133.699 156.721 134.017C155.543 134.96 154.375 135.919 153.205 136.869L152.058 137.126C152.088 137.006 152.083 136.81 152.152 136.777C154.77 135.582 154.145 133.359 153.896 131.263C153.8 130.765 153.791 130.253 153.868 129.752L154.265 129.747Z" fill="#F9FCF5"/>
<path d="M141.729 112.824L140.151 118.13C139.319 117.498 139.416 116.511 139.212 115.64C139.171 115.215 139.222 114.787 139.361 114.384C139.5 113.981 139.724 113.613 140.018 113.304C140.436 112.59 141.14 112.919 141.729 112.824Z" fill="#2A3517"/>
<path d="M145.763 103.029C145.893 102.176 146.211 101.231 144.708 101.403C144.364 101.444 144.329 101.033 144.303 100.737C144.411 100.611 144.559 100.359 144.626 100.377C145.886 100.681 146.016 99.6657 146.37 98.9103C146.91 99.6811 146.984 100.645 147.363 101.48C147.179 102.022 147.299 102.703 146.659 103.021L145.763 103.029Z" fill="#F2D054"/>
<path d="M143.85 111.49C144.604 109.188 145.361 106.886 146.121 104.584C146.89 104.393 146.89 104.748 146.677 105.331C145.97 107.387 145.294 109.443 144.608 111.498L143.85 111.49Z" fill="#FEFCF7"/>
<path d="M153.538 128.444C153.384 126.058 153.232 123.671 153.08 121.283C153.912 121.18 153.751 121.841 153.848 122.311C154.03 122.725 153.776 123.197 154.032 123.596C154.47 125.196 155.034 126.79 154.288 128.457C154.043 128.542 153.792 128.884 153.538 128.444Z" fill="#F5FAED"/>
<path d="M154.293 128.439L154.037 123.577C155.318 124.716 155.274 126.419 155.694 127.876C155.904 128.657 154.818 128.336 154.293 128.439Z" fill="#A2D559"/>
<path d="M148.336 144.608C149.289 144.228 150.129 144.835 151.023 144.948C152.222 145.114 153.392 145.45 154.498 145.945H152.001C151.335 145.796 150.616 145.973 149.983 145.618C149.555 145.495 149.061 145.744 148.677 145.382C148.352 145.223 148.49 144.85 148.336 144.608Z" fill="#F8FBF3"/>
<path d="M147.197 140.598C147.084 140.369 146.959 140.148 146.861 139.914C146.383 138.768 146.57 138.475 147.778 138.452L149.924 138.411L149.96 138.445C149.72 139.009 149.34 139.504 148.857 139.88C148.373 140.257 147.802 140.504 147.197 140.598Z" fill="#A2D559"/>
<path d="M164.286 148.719C165.224 148.719 166.11 148.961 167.186 149.349L164.832 151.096C164.696 150.295 164.192 149.575 164.286 148.719Z" fill="#A2D559"/>
<path d="M144.031 112.873C143.439 114.757 142.848 116.633 142.259 118.5C141.908 116.414 142.771 114.646 143.524 112.847L144.031 112.873Z" fill="#FDFCF6"/>
<path d="M140.026 113.305C139.866 114.117 139.595 114.903 139.219 115.64C138.771 115.157 138.707 114.505 138.541 113.921C138.443 113.603 137.942 113.066 138.541 112.876C139.002 112.734 139.734 112.477 140.026 113.305Z" fill="#EACE53"/>
<path d="M147.197 140.598C148.117 139.878 149.038 139.16 149.96 138.444C150.247 138.426 150.544 138.326 150.985 138.617C149.622 139.416 148.754 140.775 147.199 141.186L147.197 140.598Z" fill="#F7FBF2"/>
<path d="M162.225 148.168C160.96 147.883 159.648 147.787 158.463 147.199C159.387 147.199 160.314 147.199 161.239 147.181C161.915 147.171 162.273 147.461 162.225 148.168Z" fill="#EAF4DB"/>
<path d="M146.349 143.894C145.873 143.792 145.35 143.84 144.946 143.458C145.202 142.977 145.688 142.774 146.075 142.461C146.132 142.944 146.459 143.378 146.349 143.894Z" fill="#A2D559"/>
<path d="M146.659 103.037C146.915 102.523 146.889 101.893 147.363 101.495C147.43 102.137 148.365 103.188 146.659 103.037Z" fill="#FAF7E7"/>
<path d="M148.677 145.382C149.133 145.351 149.589 145.313 149.983 145.618C149.484 145.901 149.005 146.06 148.677 145.382Z" fill="#A2D559"/>
<path d="M154.035 123.588C153.748 123.19 153.83 122.74 153.85 122.303C154.193 122.686 154.014 123.151 154.035 123.588Z" fill="#A2D559"/>
<path d="M196.181 96.6594C198.932 96.5874 201.539 95.4594 203.683 93.4141C208.641 88.6862 210.387 82.8124 209.642 76.07C208.725 67.7577 204.896 61.0873 198.345 56.028C181.712 43.16 156.798 52.6208 152.759 73.3078C149.62 89.344 159.71 104.43 175.716 107.603C177.096 107.88 178.499 108.017 179.906 108.011C180.248 107.999 180.59 108.011 180.931 108.047C182.267 108.222 183.033 109.034 182.979 110.206C182.926 111.377 182.147 112.084 180.731 112.097C174.277 112.148 168.315 110.378 163.021 106.747C152.265 99.3753 147.289 89.0177 148.232 76.0263C149.294 61.3802 161.037 48.8848 175.573 46.5774C192.36 43.9154 208.023 53.8439 212.659 70.2167C214.979 78.4211 214.354 86.2966 209.194 93.4115C204.169 100.349 195.797 102.716 187.84 99.5603C183.655 97.9004 180.047 95.3669 176.846 92.2373C173.004 88.4781 169.234 84.6342 165.769 80.5101C163.334 77.6117 161.869 74.3433 161.928 70.4583C162.005 64.8054 165.106 61.1464 170.635 60.2471C173.132 59.8437 173.496 60.0184 174.805 62.2487C175.849 64.0474 176.597 65.9359 176.8 68.0095C176.956 69.7028 176.605 70.0985 174.963 70.4788C173.926 70.7178 172.879 70.9285 171.867 71.2497C170.62 71.6428 170.331 72.4188 170.873 73.6341C171.252 74.4667 171.898 75.1142 172.518 75.7463C176.516 79.7787 180.523 83.8042 184.539 87.8229L184.631 87.9128C187.295 90.4463 188.391 90.1483 189.241 86.6512C189.364 86.1553 189.477 85.6568 189.584 85.1557C189.932 83.5524 190.329 83.1541 191.928 83.3263C194.615 83.5879 197.163 84.6521 199.242 86.3814C199.92 86.9467 200.123 87.5659 199.938 88.5141C199.513 90.693 199.36 92.9259 197.744 94.6809C197.157 95.3053 196.655 96.0427 196.181 96.6594Z" fill="#4DAE74"/>
<path d="M202.937 79.4432C201.736 79.8004 201.439 79.1477 201.401 77.8296C201.096 69.4351 194.145 61.5467 185.714 59.9408C184.664 59.741 183.604 59.5995 182.539 59.5168C181.909 59.468 181.642 59.2933 181.655 58.6149C181.709 55.5315 181.333 56.0454 184.101 56.3024C195.047 57.3302 204.049 66.5958 204.748 77.5675V77.696C204.894 79.4432 204.894 79.4432 202.937 79.4432Z" fill="#4DAE74"/>
<path d="M179.053 116.347C180.093 120.314 180.411 124.14 179.909 128.035C179.832 128.619 179.591 128.742 179.074 128.644C174.976 127.873 170.896 127.121 166.481 126.298L179.053 116.347Z" fill="#A2D559"/>
<path d="M197.165 79.4434C196.064 79.7826 195.792 79.1556 195.613 77.9454C194.522 70.6249 189.905 66.2491 182.449 65.3549C181.84 65.2829 181.681 65.0825 181.663 64.5044C181.52 61.7756 181.502 61.7756 184.204 62.1918C192.248 63.4098 198.289 69.8412 199.058 78.0096C199.186 79.4434 199.186 79.4434 197.165 79.4434Z" fill="#4DAE74"/>
<path d="M214.498 149.483C213.902 148.873 213.21 148.365 212.449 147.98C212.242 147.977 212.042 147.899 211.888 147.759C211.471 147.029 211.261 146.266 211.507 145.429C211.642 145.245 211.817 145.094 212.018 144.986C212.219 144.879 212.442 144.817 212.669 144.807C213.235 145.321 213.95 145.454 214.677 145.578C215.566 145.747 215.535 145.213 215.461 144.596C215.248 142.797 214.926 140.999 215.379 139.174C215.49 138.55 215.754 137.963 216.147 137.466C216.949 136.556 217.451 136.492 218.537 137.17C220.219 138.894 219.817 141.073 219.789 143.149C219.736 143.978 219.729 144.81 219.766 145.639C218.998 146.269 219.254 147.222 219.115 148.006C218.644 150.611 217.878 151.071 215.553 149.915C215.207 149.745 214.846 149.625 214.498 149.483Z" fill="#E6B38E"/>
<path d="M211.105 137.448L209.478 138.475C209.343 135.392 209.138 132.458 209.115 129.521C209.102 127.943 210.318 126.833 211.962 126.556C213.391 126.314 214.319 126.869 215.072 128.4C215.801 129.888 215.993 131.484 216.157 133.113C216.216 133.686 215.807 134.053 215.622 134.521C215.451 135.292 215.289 136.063 214.321 136.232C213.384 134.855 213.404 133.252 213.386 131.702C213.386 130.749 213.22 130.207 212.16 130.292C211.899 130.295 211.64 130.258 211.391 130.181C209.944 129.844 209.78 129.999 210.185 131.486C210.508 132.668 210.723 133.879 212.418 134.01C213.274 134.076 213.225 135.071 213.169 135.808C213.143 135.931 213.099 136.05 213.041 136.16C212.477 136.708 211.95 137.324 211.105 137.448Z" fill="#232323"/>
<path d="M211.653 145.379C211.658 146.173 211.817 146.959 212.121 147.692C212.469 148.252 212.103 148.902 212.347 149.473C212.347 149.565 212.347 149.658 212.347 149.748C211.714 150.184 210.984 149.894 210.311 150.03C209.851 149.99 209.389 149.99 208.93 150.03C207.65 150.236 207.161 149.65 207.25 148.432C206.994 147.746 207.25 147.147 207.506 146.513C207.926 145.441 207.65 144.85 206.592 144.316C206.387 142.789 206.387 142.789 208.546 142.753C208.71 142.705 208.864 142.622 209.027 142.581C209.832 142.373 210.72 142.227 211.312 142.887C211.614 143.219 211.809 143.635 211.87 144.08C211.931 144.525 211.855 144.978 211.653 145.379Z" fill="#A4D659"/>
<path d="M157.625 112.804L155.881 108.435C159.108 109.001 162.399 109.096 165.716 109.795C165.316 110.363 164.758 110.517 164.23 110.715C163.091 110.738 162.228 111.509 161.198 111.83C160.017 112.184 158.978 113.009 157.625 112.804Z" fill="#E6E6E6"/>
<path d="M211.652 145.379C211.186 142.915 211.186 142.915 208.536 142.745C209.419 140.993 210.628 139.405 211.097 137.447C211.624 136.917 212.229 136.47 212.889 136.121C213.535 136.843 213.315 137.732 213.297 138.552C213.261 140.286 212.984 142.008 213.04 143.75C213.04 144.164 212.999 144.608 212.577 144.868C212.507 145.048 212.376 145.199 212.207 145.292C212.038 145.386 211.842 145.416 211.652 145.379Z" fill="#EECF59"/>
<path d="M214.431 136.209L215.622 134.523C216.693 135.294 217.873 135.939 218.526 137.167C217.059 136.789 216.037 137.501 215.709 138.966C215.289 140.87 215.535 142.751 215.794 144.619C216.024 146.299 216.05 146.322 214.431 145.87C214.199 145.613 214.07 145.279 214.07 144.932C214.07 142.16 213.914 139.385 214.152 136.615C214.208 136.457 214.304 136.317 214.431 136.209Z" fill="#F8DA40"/>
<path d="M147.151 69.6589L140.748 69.6409C140.702 69.0833 140.986 68.8701 141.516 68.9189C143.483 69.0782 145.322 68.5463 147.138 67.8911C147.138 68.4744 147.143 69.0654 147.151 69.6589Z" fill="#BDE385"/>
<path d="M206.582 144.308C206.881 143.894 207.184 143.704 207.509 144.282C207.957 145.074 208.308 145.868 207.737 146.759C207.405 147.25 207.232 147.832 207.242 148.424C206.436 147.145 206.415 145.737 206.582 144.308Z" fill="#E5B690"/>
<path d="M157.625 112.803L163.336 110.714C163.631 110.606 163.928 110.293 164.23 110.714L157.904 113.798C157.7 113.508 157.602 113.157 157.625 112.803Z" fill="#ACABAB"/>
<path d="M58.5856 85.0966C58.1318 85.299 57.6603 85.459 57.1771 85.5745C55.5457 85.8134 55.2896 86.2734 55.9785 87.8433C56.0579 88.0181 55.9504 88.1594 55.7711 88.2288C54.5469 88.1234 54.173 86.944 53.4483 86.2554C52.9361 85.7698 53.7914 85.2276 53.9425 84.6803C54.2806 83.4649 56.4344 82.6864 57.5023 83.3956C57.9684 83.7065 58.4141 83.339 58.8341 83.5497C59.5588 84.2024 59.0415 84.6443 58.5856 85.0966Z" fill="#252424"/>
<path d="M212.346 149.478C211.97 148.923 212.221 148.288 212.121 147.697L212.436 147.98C212.405 148.478 212.377 148.979 212.346 149.478Z" fill="#EED058"/>
<path d="M214.364 136.486C214.388 139.616 214.413 142.746 214.439 145.878C213.814 145.544 212.748 146.032 212.572 144.868L212.894 136.132C213.489 135.823 213.962 136.008 214.364 136.486Z" fill="#FEFDFB"/>
<path d="M214.365 136.486L212.894 136.129C212.97 135.664 212.939 135.188 212.805 134.737C212.679 134.295 212.582 133.896 211.97 134.223C211.604 134.426 211.261 134.343 210.946 134.02C210.049 133.118 209.496 130.559 209.978 129.415C210.614 129.636 211.263 129.818 211.921 129.96C213.786 130.255 213.811 130.217 213.758 132.087C213.755 133.486 213.985 134.876 214.439 136.199C214.408 136.301 214.385 136.394 214.365 136.486Z" fill="#E4B18D"/>
</svg>
