<svg width="590" height="210" viewBox="0 0 590 210" fill="none" xmlns="http://www.w3.org/2000/svg">
<path d="M0 210H589.614C585.018 207.696 580.345 205.207 575.63 202.519C562.237 194.885 556.156 190.007 549.543 184.701C542.905 179.376 535.73 173.62 520.086 164.216C490.538 146.451 466.431 137.109 438.938 126.456L438.889 126.436C425.65 121.325 386.659 106.643 333.572 94.0762C306.552 87.6865 273.509 80.0029 229.875 76.3545C208.288 74.5547 196.593 74.7842 187.084 74.9717H187.073C176.431 75.1807 168.522 75.3359 152.539 72.5283C109.15 64.875 76.5115 47.7217 58.5967 38.1348C40.5842 28.4854 29.9199 20.8252 20.1934 13.8389L20.1743 13.8242C13.6707 9.15527 7.58496 4.7832 0 0.321289V210Z" fill="#00A7E7" fill-opacity="0.1"/>
</svg>
