<svg width="205" height="205" viewBox="0 0 205 205" fill="none" xmlns="http://www.w3.org/2000/svg">
<path d="M149.482 156.667C158.037 156.444 166.146 152.945 172.812 146.602C188.233 131.938 193.665 113.719 191.348 92.8072C188.496 67.0257 176.588 46.3368 156.213 30.6447C104.479 -9.2668 26.9938 20.0771 14.4327 84.2399C4.66742 133.978 36.0503 180.767 85.8327 190.609C90.1226 191.47 94.4885 191.895 98.8637 191.877C99.927 191.838 100.992 191.875 102.05 191.988C106.208 192.53 108.589 195.049 108.422 198.683C108.255 202.317 105.833 204.508 101.429 204.548C81.3562 204.708 62.8133 199.217 46.3492 187.956C12.8955 165.091 -2.5809 132.966 0.350286 92.6717C3.65584 47.2452 40.1762 8.48933 85.3866 1.33268C137.598 -6.92377 186.313 23.8706 200.73 74.6525C207.947 100.099 206.003 124.526 189.954 146.594C174.326 168.111 148.288 175.451 123.54 165.665C110.525 160.517 99.3018 152.659 89.3453 142.952C77.3975 131.292 65.6728 119.37 54.8959 106.579C47.321 97.5889 42.7649 87.4517 42.9481 75.4017C43.1871 57.8687 52.8329 46.5201 70.0297 43.7307C77.7958 42.4795 78.9268 43.0214 82.9971 49.939C86.2469 55.5176 88.5727 61.3753 89.2019 67.8067C89.6878 73.0586 88.5966 74.2859 83.4909 75.4654C80.265 76.2066 77.0072 76.8601 73.861 77.8563C69.9819 79.0756 69.0819 81.4825 70.7705 85.2521C71.9493 87.8342 73.9566 89.8425 75.8841 91.803C88.3205 104.31 100.783 116.796 113.273 129.26L113.559 129.539C121.843 137.397 125.252 136.472 127.897 125.626C128.279 124.088 128.63 122.542 128.964 120.988C130.047 116.015 131.282 114.779 136.252 115.313C144.612 116.125 152.536 119.425 159.001 124.789C161.112 126.542 161.741 128.463 161.167 131.404C159.845 138.162 159.367 145.087 154.341 150.531C152.517 152.467 150.956 154.755 149.482 156.667Z" fill="#4DAE74"/>
</svg>
