<svg width="895" height="741" viewBox="0 0 895 741" fill="none" xmlns="http://www.w3.org/2000/svg">
<path fill-rule="evenodd" clip-rule="evenodd" d="M895 -4.07937e-06L337.976 -6.87353e-07C313.385 25.4891 308.5 53.3068 308.5 53.3068C299.125 106.768 316.501 134.831 323.411 184C332.966 251.994 84.1862 278.248 33.2473 383.5C-1.15845 454.511 -20.0101 551.122 33.236 644.802C80.3709 727.82 158.468 738.79 192.671 735.886C317.429 725.197 344.981 662.66 450.269 666.882C538.349 670.417 564.527 726.417 662.511 739.393C744.862 750.307 837.601 704.211 895 643.68L895 -4.07937e-06Z" fill="#1C3F77"/>
<path d="M305 80.0664L895 80.0664L895 82.2303L305 82.2304L305 80.0664Z" fill="white"/>
</svg>
