<svg width="931" height="577" viewBox="0 0 931 577" fill="none" xmlns="http://www.w3.org/2000/svg">
<path d="M818.16 0C788.344 12.7603 759.603 33.0088 735.259 58.2026C717.667 76.4141 707.295 91.8774 698.204 105.43L698.195 105.443L698.192 105.449C686.094 123.488 676.265 138.145 654.703 151.397C621.909 171.559 593.593 160.836 559.48 147.919C525.317 134.983 485.341 119.846 429.233 131.325C351.662 147.204 305.097 205.952 293.223 220.935C292.336 222.053 291.168 223.461 289.779 225.138C279.221 237.873 255.836 266.081 245.311 300.287C242.646 299.414 239.94 298.5 237.183 297.569C211.423 288.869 181.28 278.688 138.972 286.408C80.4799 297.087 45.3686 336.597 36.415 346.674C36.2514 346.858 36.0785 347.049 35.8974 347.248C35.6811 347.485 35.453 347.733 35.2133 347.991C34.665 348.582 34.0571 349.227 33.3979 349.925L33.3495 349.977C21.6752 362.354 -5.69734 391.378 1.05705 432.009C6.82268 466.698 25.2856 478.263 73.5341 508.486L83.0468 514.452C119.849 537.594 143.104 542.458 167.366 544.826C190.979 547.128 211.289 545.978 232.559 544.774C269.199 542.7 308.685 540.464 372.807 555.433C381.362 557.429 389.633 559.419 397.605 561.338L397.761 561.375C434.279 570.162 464.52 577.438 486.991 576.978C514.315 577.502 541.811 566.347 571.715 554.214C618.737 535.137 671.714 513.644 739.343 531.344C750.762 534.333 761.801 537.311 772.437 540.18C848.177 560.613 903.555 575.553 930.999 549.592L931 0H818.16Z" fill="#1C3F77"/>
</svg>
