<svg width="81" height="66" viewBox="0 0 81 66" fill="none" xmlns="http://www.w3.org/2000/svg">
<path d="M78.8102 49.7681H78.1422C78.0888 49.5817 78.0641 49.3883 78.0691 49.1945C78.0691 40.5852 78.0592 31.9758 78.0928 23.3744C78.0928 22.3514 77.7252 21.7621 76.8556 21.2634C64.809 14.3728 52.7776 7.45917 40.7614 0.522554C39.5934 -0.151528 38.704 -0.188975 37.5162 0.500876C25.5659 7.42304 13.5957 14.313 1.60585 21.1708C-0.550349 22.4105 -0.532561 24.212 1.64341 25.4617C4.28777 26.9833 6.92028 28.5266 9.58638 30.0107C10.2149 30.3596 10.4481 30.742 10.4441 31.4614C10.4125 37.1241 10.4441 42.7887 10.4184 48.4514C10.4184 49.3068 10.6418 49.9316 11.4481 50.3909C20.3338 55.4695 29.2096 60.5659 38.0755 65.68C38.8167 66.1077 39.459 66.1057 40.1902 65.68C42.5955 64.2687 45.0224 62.8949 47.4395 61.5073C53.8956 57.7979 60.3517 54.0872 66.8078 50.3751C67.796 49.8094 68.0766 48.9954 67.5983 48.1834C67.1596 47.4285 66.3117 47.2728 65.3611 47.7892C65.1872 47.8798 65.0231 47.9863 64.8532 48.0888C56.5525 52.8599 48.2478 57.6356 39.9392 62.416C39.3127 62.7786 38.8839 62.7648 38.2673 62.416C30.2301 57.7683 22.1804 53.1437 14.1182 48.5421C13.543 48.2149 13.3869 47.8384 13.3909 47.2156C13.4146 42.633 13.4027 38.0504 13.4027 33.4659C13.4027 32.2517 13.4027 32.2498 14.4522 32.849C22.2469 37.3271 30.0384 41.8098 37.8265 46.2971C38.6902 46.7958 39.4076 46.8608 40.295 46.3701C49.074 41.5083 57.8635 36.6609 66.6635 31.828C67.294 31.4791 67.8177 31.077 67.7999 30.261C67.7821 29.4923 67.2801 29.1257 66.6833 28.7848C57.9438 23.7758 49.2116 18.757 40.4867 13.7283C39.5104 13.1646 38.7495 13.137 37.7653 13.7066C29.5634 18.458 21.3444 23.1838 13.1082 27.884C12.8157 28.0516 12.5608 28.3511 12.1378 28.1067C9.41838 26.5299 6.69101 24.9531 3.9004 23.3566C4.13954 23.193 4.29567 23.0728 4.45378 22.9782C15.802 16.4515 27.1476 9.92359 38.4906 3.39432C39.0104 3.09473 39.372 3.19721 39.8345 3.46527C42.8405 5.21355 45.8604 6.93818 48.8763 8.66872L74.31 23.2778C74.7211 23.5163 75.1243 23.6838 75.1223 24.3421C75.0927 32.7228 75.1026 41.0956 75.0986 49.4842C75.0986 49.5828 75.1144 49.6931 75.1164 49.7996H74.4207L72.2408 53.5543L74.4306 57.3367H78.8102L81 53.5543L78.8102 49.7681ZM19.146 27.8209C25.5441 24.1417 31.9409 20.4625 38.3364 16.7833C38.87 16.4758 39.2752 16.4088 39.8464 16.74C47.5133 21.1747 55.1881 25.5937 62.8709 29.9969C62.9559 30.0462 63.033 30.1073 63.2662 30.2689L56.8825 33.797C51.2249 36.9151 45.5666 40.0352 39.9076 43.1573C39.4708 43.3978 39.1289 43.5909 38.5756 43.2696C30.9679 38.8651 23.3491 34.4796 15.719 30.1132C15.6637 30.0797 15.6162 30.0344 15.4957 29.9398C16.7309 29.2184 17.9365 28.5226 19.146 27.8209ZM76.6204 54.256C76.4327 54.256 76.2528 54.1817 76.1201 54.0494C75.9874 53.917 75.9129 53.7375 75.9129 53.5504C75.9129 53.3633 75.9874 53.1838 76.1201 53.0515C76.2528 52.9191 76.4327 52.8448 76.6204 52.8448C76.7133 52.8448 76.8053 52.863 76.8912 52.8985C76.977 52.934 77.055 52.9859 77.1207 53.0515C77.1864 53.117 77.2385 53.1948 77.2741 53.2804C77.3096 53.366 77.3279 53.4577 77.3279 53.5504C77.3279 53.6431 77.3096 53.7348 77.2741 53.8204C77.2385 53.906 77.1864 53.9838 77.1207 54.0494C77.055 54.1149 76.977 54.1668 76.8912 54.2023C76.8053 54.2378 76.7133 54.256 76.6204 54.256Z" fill="#1C3F77"/>
</svg>
