<svg width="1440" height="822" viewBox="0 0 1440 822" fill="none" xmlns="http://www.w3.org/2000/svg">
<path d="M1286.69 40.4101L1286.71 41.4099L1286.69 40.4101ZM1449.72 63.785L1450.67 64.1165L1451 63.1729L1450.05 62.8415L1449.72 63.785ZM1070.15 99.9355L1069.63 99.0855L1070.15 99.9355ZM1025.21 143.298L1024.34 142.799L1025.21 143.298ZM1013.34 190.646L1012.34 190.658L1013.34 190.646ZM1034.32 274.755L1033.38 275.099L1033.38 275.099L1034.32 274.755ZM1039.15 288.01L1038.21 288.347L1039.15 288.01ZM1051.93 333.678L1050.94 333.827L1051.93 333.678ZM1048.21 374.375L1049.13 374.768L1048.21 374.375ZM941.843 432.943L941.649 431.962L941.843 432.943ZM707.77 419.244L708.01 418.273L708.001 418.271L707.77 419.244ZM707.769 419.244L707.529 420.215L707.538 420.217L707.769 419.244ZM649.874 406.512L649.714 407.499L649.874 406.512ZM542.068 421.556L542.555 422.429L542.068 421.556ZM425.663 550.379L424.813 549.854L425.663 550.379ZM301.007 646.293L300.984 645.293L301.007 646.293ZM181.004 594.947L180.421 595.759L181.004 594.947ZM152.044 573.565L151.418 574.345L151.432 574.355L151.445 574.366L152.044 573.565ZM152.044 573.565L152.669 572.784L152.656 572.774L152.643 572.764L152.044 573.565ZM60.1116 513.62L59.691 514.527L60.1116 513.62ZM-2.34769 498.541L-2.33405 499.541L-2.34769 498.541ZM-66.9684 520.291L-67.5333 519.466L-68.3585 520.031L-67.7936 520.856L-66.9684 520.291ZM-66.4035 521.116L-67.2287 521.681L-66.6638 522.506L-65.8387 521.942L-66.4035 521.116ZM-2.33406 499.541L-2.3477 498.541L-2.33406 499.541ZM59.691 514.527L60.1116 513.62L59.691 514.527ZM151.378 574.316L150.778 575.117L151.378 574.316ZM180.421 595.759L181.004 594.947L180.421 595.759ZM301.029 647.293L301.052 648.292L301.029 647.293ZM426.514 550.905L427.365 551.43L426.514 550.905ZM542.555 422.429L542.068 421.556L542.555 422.429ZM649.714 407.499L649.874 406.512L649.714 407.499ZM707.397 420.189L707.636 419.218L707.397 420.189ZM942.037 433.924L942.231 434.905L942.037 433.924ZM1049.13 374.768L1048.21 374.375L1049.13 374.768ZM1052.92 333.528L1051.93 333.677L1052.92 333.528ZM1040.09 287.674L1039.15 288.01L1040.09 287.674ZM1035.29 274.484L1036.23 274.139L1036.23 274.138L1035.29 274.484ZM1035.25 274.386L1034.31 274.73L1034.32 274.731L1035.25 274.386ZM1014.34 190.635L1015.34 190.623L1014.34 190.635ZM1026.08 143.798L1026.94 144.297L1026.08 143.798ZM1070.68 100.786L1071.21 101.636L1070.68 100.786ZM1286.71 41.4099L1286.69 40.4101L1286.71 41.4099ZM1449.39 64.7285L1449.06 65.672L1450 66.0034L1450.33 65.06L1449.39 64.7285ZM1475.91 100.037L1476.85 100.368L1477.19 99.4248L1476.24 99.0934L1475.91 100.037ZM1312.88 76.662L1312.9 77.6618L1312.88 76.662ZM1475.58 100.98L1475.25 101.924L1476.19 102.255L1476.52 101.312L1475.58 100.98ZM1312.9 77.6618L1312.88 76.662L1312.9 77.6618ZM1096.87 137.037L1097.4 137.888L1096.87 137.037ZM1052.27 180.05L1053.13 180.549L1052.27 180.05ZM1040.53 226.886L1041.53 226.875L1040.53 226.886ZM1061.44 310.638L1060.5 310.982L1060.5 310.983L1061.44 310.638ZM1061.48 310.735L1062.42 310.391L1062.42 310.39L1061.48 310.735ZM1061.52 310.856L1060.58 311.2L1060.58 311.201L1061.52 310.856ZM1066.28 323.926L1067.22 323.589L1066.28 323.926ZM1079.11 369.78L1078.12 369.929L1079.11 369.78ZM1075.32 411.02L1074.4 410.627L1075.32 411.02ZM968.225 470.176L968.419 471.157L968.225 470.176ZM733.585 456.44L733.824 455.47L733.585 456.44ZM675.901 443.751L675.741 444.738L675.901 443.751ZM568.743 458.681L568.256 457.808L568.743 458.681ZM452.702 587.157L453.553 587.682L452.702 587.157ZM327.217 683.544L327.239 684.544L327.217 683.544ZM206.608 632.011L207.192 631.199L206.608 632.011ZM177.565 610.568L176.966 611.369L177.565 610.568ZM85.8788 550.779L86.2994 549.872L85.8788 550.779ZM23.8537 535.792L23.8401 534.793L23.8537 535.792ZM-40.2157 557.368L-41.0409 557.933L-40.476 558.758L-39.6509 558.193L-40.2157 557.368ZM-40.7806 556.543L-41.3455 555.718L-42.1707 556.283L-41.6058 557.108L-40.7806 556.543ZM23.8401 534.793L23.8537 535.792L23.8401 534.793ZM86.2994 549.872L85.8788 550.779L86.2994 549.872ZM178.232 609.816L178.857 609.036L178.844 609.026L178.831 609.016L178.232 609.816ZM178.232 609.817L177.606 610.597L177.619 610.607L177.633 610.617L178.232 609.817ZM207.192 631.199L206.608 632.011L207.192 631.199ZM327.194 682.545L327.172 681.545L327.194 682.545ZM451.851 586.631L451 586.106L451.851 586.631ZM568.256 457.808L568.743 458.681L568.256 457.808ZM676.062 442.764L675.902 443.751L676.062 442.764ZM733.957 455.496L733.717 456.467L733.726 456.469L733.957 455.496ZM733.958 455.496L734.198 454.525L734.189 454.523L733.958 455.496ZM968.031 469.195L967.837 468.214L968.031 469.195ZM1074.4 410.627L1075.32 411.02L1074.4 410.627ZM1078.12 369.929L1077.13 370.078L1078.12 369.929ZM1065.34 324.262L1064.39 324.599L1065.34 324.262ZM1060.51 311.007L1059.57 311.351L1059.57 311.351L1060.51 311.007ZM1039.53 226.898L1038.53 226.909L1039.53 226.898ZM1051.4 179.55L1050.53 179.051L1050.53 179.051L1051.4 179.55ZM1096.34 136.187L1095.82 135.337L1096.34 136.187ZM1339.07 112.914L1339.08 113.914L1339.07 112.914ZM1502.1 136.289L1503.04 136.62L1503.37 135.677L1502.43 135.345L1502.1 136.289ZM1122.53 172.439L1122 171.589L1122.53 172.439ZM1077.59 215.802L1076.72 215.303L1077.59 215.802ZM1065.72 263.15L1064.72 263.161L1065.72 263.15ZM1086.7 347.258L1085.76 347.603L1086.7 347.258ZM1091.52 360.514L1090.58 360.851L1091.52 360.514ZM1104.31 406.181L1103.32 406.33L1104.31 406.181ZM1100.59 446.879L1101.51 447.272L1100.59 446.879ZM994.219 505.447L994.024 504.466L994.219 505.447ZM760.146 491.748L760.385 490.777L760.377 490.775L760.146 491.748ZM760.145 491.748L759.905 492.719L759.914 492.721L760.145 491.748ZM702.249 479.016L702.089 480.003L702.249 479.016ZM594.444 494.06L594.931 494.933L594.444 494.06ZM478.039 622.883L477.188 622.357L478.039 622.883ZM353.382 718.797L353.36 717.797L353.382 718.797ZM233.38 667.451L232.796 668.263L233.38 667.451ZM204.419 646.068L203.82 646.869L204.419 646.068ZM112.487 586.124L112.067 587.031L112.487 586.124ZM50.0279 571.044L50.0415 572.044L50.0279 571.044ZM-14.5928 592.795L-15.1577 591.97L-15.9829 592.535L-15.418 593.36L-14.5928 592.795ZM-14.0279 593.62L-14.8531 594.185L-14.2882 595.01L-13.4631 594.445L-14.0279 593.62ZM50.0415 572.044L50.0279 571.044L50.0415 572.044ZM112.067 587.031L112.487 586.124L112.067 587.031ZM203.753 646.82L203.154 647.621L203.753 646.82ZM232.796 668.263L233.38 667.451L232.796 668.263ZM353.405 719.796L353.382 718.797L353.405 719.796ZM478.89 623.408L479.741 623.934L478.89 623.408ZM594.931 494.933L594.444 494.06L594.931 494.933ZM702.089 480.003L701.929 480.99L702.089 480.003ZM759.772 492.692L760.012 491.721L759.772 492.692ZM994.413 506.428L994.607 507.409L994.413 506.428ZM1101.51 447.272L1100.59 446.879L1101.51 447.272ZM1105.3 406.032L1104.31 406.181L1105.3 406.032ZM1092.46 360.177L1093.41 359.841L1092.46 360.177ZM1087.66 346.986L1086.73 347.33L1086.73 347.331L1087.66 346.986ZM1087.63 346.89L1088.57 346.546L1088.57 346.545L1087.63 346.89ZM1066.72 263.138L1065.72 263.15L1066.72 263.138ZM1078.45 216.301L1079.32 216.801L1078.45 216.301ZM1123.06 173.289L1123.58 174.139L1123.06 173.289ZM1339.08 113.914L1339.07 112.914L1339.08 113.914ZM1501.77 137.232L1501.44 138.176L1502.38 138.507L1502.71 137.564L1501.77 137.232ZM1365.25 149.166L1365.24 148.166L1365.25 149.166ZM1528.29 172.541L1529.23 172.872L1529.56 171.929L1528.62 171.597L1528.29 172.541ZM1148.72 208.691L1148.19 207.841L1148.72 208.691ZM1103.77 252.054L1102.91 251.555L1103.77 252.054ZM1091.91 299.402L1090.91 299.413L1091.91 299.402ZM1112.89 383.51L1111.95 383.855L1112.89 383.51ZM1117.71 396.766L1116.77 397.103L1117.71 396.766ZM1130.5 442.433L1129.51 442.582L1130.5 442.433ZM1126.78 483.131L1127.7 483.524L1126.78 483.131ZM1020.41 541.699L1020.21 540.718L1020.41 541.699ZM786.334 528L786.573 527.029L786.564 527.027L786.334 528ZM786.332 528L786.093 528.971L786.102 528.973L786.332 528ZM728.437 515.268L728.277 516.255L728.437 515.268ZM620.632 530.312L621.119 531.185L620.632 530.312ZM504.227 659.135L503.376 658.609L504.227 659.135ZM379.57 755.048L379.548 754.049L379.57 755.048ZM259.567 703.703L258.984 704.515L259.567 703.703ZM230.619 682.329L230.018 683.128L230.02 683.13L230.619 682.329ZM230.609 682.322L230.003 683.117L230.008 683.121L230.609 682.322ZM230.607 682.32L231.213 681.524L231.206 681.52L230.607 682.32ZM138.675 622.376L138.254 623.283L138.675 622.376ZM76.2157 607.296L76.2293 608.296L76.2157 607.296ZM11.595 629.047L11.0301 628.222L10.2049 628.787L10.7698 629.612L11.595 629.047ZM12.1599 629.872L11.3347 630.437L11.8996 631.262L12.7247 630.697L12.1599 629.872ZM76.2293 608.296L76.2157 607.296L76.2293 608.296ZM138.254 623.283L138.675 622.376L138.254 623.283ZM229.941 683.072L230.54 682.271L229.941 683.072ZM258.984 704.515L259.567 703.703L258.984 704.515ZM379.592 756.048L379.57 755.048L379.592 756.048ZM505.078 659.66L505.928 660.186L505.078 659.66ZM621.119 531.185L620.632 530.312L621.119 531.185ZM728.277 516.255L728.117 517.242L728.277 516.255ZM785.96 528.944L786.2 527.973L785.96 528.944ZM1020.6 542.68L1020.79 543.661L1020.6 542.68ZM1127.7 483.524L1126.78 483.131L1127.7 483.524ZM1131.49 442.284L1130.5 442.433L1131.49 442.284ZM1118.65 396.429L1119.59 396.093L1118.65 396.429ZM1113.85 383.238L1112.91 383.582L1112.91 383.583L1113.85 383.238ZM1113.82 383.141L1114.76 382.797L1114.76 382.797L1113.82 383.141ZM1092.91 299.39L1091.91 299.402L1092.91 299.39ZM1104.64 252.553L1105.51 253.053L1104.64 252.553ZM1149.24 209.541L1149.77 210.391L1149.24 209.541ZM1365.27 150.166L1365.25 149.166L1365.27 150.166ZM1527.95 173.484L1527.62 174.428L1528.57 174.759L1528.9 173.816L1527.95 173.484ZM1286.71 41.4099C1355.46 40.191 1415.32 52.761 1449.39 64.7285L1450.05 62.8415C1415.76 50.7951 1355.67 38.1871 1286.67 39.4103L1286.71 41.4099ZM1070.68 100.786C1140.33 57.635 1217.95 42.6289 1286.71 41.4099L1286.67 39.4103C1217.67 40.6336 1139.66 55.6935 1069.63 99.0855L1070.68 100.786ZM1026.08 143.798C1034.77 128.717 1048.94 114.256 1070.68 100.786L1069.63 99.0855C1047.67 112.688 1033.24 127.371 1024.34 142.799L1026.08 143.798ZM1014.34 190.635C1014.16 174.602 1017.39 158.875 1026.08 143.798L1024.34 142.799C1015.45 158.235 1012.16 174.327 1012.34 190.658L1014.34 190.635ZM1035.26 274.41C1025.12 246.78 1014.66 218.262 1014.34 190.635L1012.34 190.658C1012.67 218.693 1023.27 247.547 1033.38 275.099L1035.26 274.41ZM1040.09 287.674C1038.52 283.284 1036.89 278.859 1035.26 274.41L1033.38 275.099C1035.02 279.55 1036.64 283.967 1038.21 288.347L1040.09 287.674ZM1052.92 333.528C1050.72 318.901 1045.74 303.488 1040.09 287.674L1038.21 288.347C1043.86 304.148 1048.77 319.405 1050.94 333.827L1052.92 333.528ZM1049.13 374.768C1054.57 362.039 1055.13 348.16 1052.92 333.528L1050.94 333.827C1053.12 348.235 1052.54 361.707 1047.29 373.982L1049.13 374.768ZM942.037 433.924C1007.95 420.875 1038.25 400.243 1049.13 374.768L1047.29 373.982C1036.83 398.484 1007.44 418.937 941.649 431.962L942.037 433.924ZM707.53 420.215C769.45 435.502 842.699 453.591 942.037 433.924L941.649 431.962C842.773 451.538 769.894 433.551 708.01 418.273L707.53 420.215ZM707.538 420.217L707.539 420.217L708.001 418.271L708 418.271L707.538 420.217ZM649.714 407.499C668.112 410.484 687.194 415.195 707.529 420.215L708.009 418.273C687.691 413.257 668.528 408.526 650.034 405.525L649.714 407.499ZM542.555 422.429C578.27 402.517 612.536 401.467 649.714 407.499L650.034 405.525C612.597 399.45 577.828 400.473 541.581 420.682L542.555 422.429ZM426.514 550.905C469.566 481.202 506.816 442.355 542.555 422.429L541.581 420.682C505.406 440.852 467.936 480.035 424.813 549.854L426.514 550.905ZM301.029 647.293C341.877 646.377 383.404 620.702 426.514 550.905L424.813 549.854C381.863 619.39 340.853 644.399 300.984 645.293L301.029 647.293ZM180.421 595.759C220.307 624.416 260.24 648.207 301.029 647.293L300.984 645.293C260.937 646.191 221.502 622.812 181.588 594.135L180.421 595.759ZM151.445 574.366C161.116 581.602 170.774 588.828 180.421 595.759L181.588 594.135C171.959 587.217 162.317 580.003 152.643 572.764L151.445 574.366ZM151.418 574.345L151.418 574.345L152.67 572.785L152.669 572.784L151.418 574.345ZM59.691 514.527C90.6587 528.886 121.109 551.666 151.445 574.365L152.643 572.764C122.349 550.096 91.726 527.177 60.5323 512.713L59.691 514.527ZM-2.33405 499.541C18.6296 499.255 39.2647 505.056 59.691 514.527L60.5323 512.713C39.9307 503.16 18.993 497.249 -2.36134 497.541L-2.33405 499.541ZM-66.4035 521.116C-44.6073 506.196 -23.2905 499.827 -2.33405 499.541L-2.36134 497.541C-23.7372 497.832 -45.4338 504.338 -67.5333 519.466L-66.4035 521.116ZM-65.5784 520.552L-66.1432 519.726L-67.7936 520.856L-67.2287 521.681L-65.5784 520.552ZM-2.3477 498.541C-23.5138 498.829 -45.0205 505.267 -66.9684 520.291L-65.8387 521.942C-44.1941 507.125 -23.0671 500.824 -2.32042 500.541L-2.3477 498.541ZM60.1116 513.62C39.5977 504.108 18.8112 498.252 -2.3477 498.541L-2.32042 500.541C18.4479 500.257 38.9317 506.004 59.2703 515.434L60.1116 513.62ZM151.977 573.516C121.702 550.863 91.2011 528.036 60.1116 513.62L59.2703 515.434C90.1339 529.745 120.463 552.433 150.778 575.117L151.977 573.516ZM181.004 594.947C171.335 588 161.666 580.766 151.977 573.516L150.778 575.117C160.466 582.365 170.15 589.611 179.837 596.571L181.004 594.947ZM301.007 646.293C260.589 647.199 220.904 623.614 181.004 594.947L179.837 596.571C219.71 625.218 259.892 649.215 301.052 648.292L301.007 646.293ZM425.663 550.379C382.633 620.046 341.365 645.388 301.007 646.293L301.052 648.292C342.389 647.366 384.174 621.357 427.365 551.43L425.663 550.379ZM542.068 421.556C506.111 441.604 468.751 480.618 425.663 550.379L427.365 551.43C470.382 481.785 507.522 443.107 543.042 423.303L542.068 421.556ZM649.874 406.512C612.566 400.459 578.049 401.495 542.068 421.556L543.042 423.303C578.492 403.538 612.505 402.475 649.554 408.486L649.874 406.512ZM707.636 419.218C687.362 414.212 668.264 409.496 649.874 406.512L649.554 408.486C667.849 411.455 686.865 416.149 707.157 421.159L707.636 419.218ZM941.843 432.943C842.726 452.566 769.55 434.505 707.636 419.218L707.157 421.159C769.106 436.455 842.652 454.62 942.231 434.905L941.843 432.943ZM1048.21 374.375C1037.54 399.363 1007.7 419.906 941.843 432.943L942.231 434.905C1008.21 421.843 1038.97 401.122 1050.05 375.161L1048.21 374.375ZM1051.93 333.677C1054.12 348.197 1053.55 361.873 1048.21 374.375L1050.05 375.161C1055.59 362.204 1056.13 348.123 1053.91 333.379L1051.93 333.677ZM1039.15 288.01C1044.8 303.818 1049.74 319.153 1051.93 333.677L1053.91 333.379C1051.69 318.649 1046.69 303.158 1041.03 287.337L1039.15 288.01ZM1034.35 274.828C1035.97 279.251 1037.59 283.646 1039.15 288.01L1041.03 287.337C1039.47 282.964 1037.85 278.561 1036.23 274.139L1034.35 274.828ZM1034.32 274.731L1034.35 274.829L1036.23 274.138L1036.19 274.04L1034.32 274.731ZM1013.34 190.646C1013.66 218.495 1024.2 247.164 1034.31 274.73L1036.19 274.041C1026.05 246.397 1015.66 218.064 1015.34 190.623L1013.34 190.646ZM1025.21 143.298C1016.42 158.555 1013.16 174.465 1013.34 190.646L1015.34 190.623C1015.16 174.74 1018.36 159.195 1026.94 144.297L1025.21 143.298ZM1070.15 99.9355C1048.3 113.472 1034 128.044 1025.21 143.298L1026.94 144.297C1035.54 129.39 1049.57 115.04 1071.21 101.636L1070.15 99.9355ZM1286.69 40.4101C1217.81 41.6312 1140 56.6643 1070.15 99.9355L1071.21 101.636C1140.66 58.6057 1218.09 43.6265 1286.73 42.4098L1286.69 40.4101ZM1449.72 63.785C1415.54 51.778 1355.57 39.189 1286.69 40.4101L1286.73 42.4098C1355.36 41.1929 1415.1 53.7439 1449.06 65.672L1449.72 63.785ZM1448.78 63.4536L1448.45 64.3971L1450.33 65.06L1450.67 64.1165L1448.78 63.4536ZM1476.24 99.0934C1441.94 87.047 1381.85 74.439 1312.86 75.6622L1312.9 77.6618C1381.65 76.4429 1441.51 89.0129 1475.58 100.98L1476.24 99.0934ZM1476.52 101.312L1476.85 100.368L1474.97 99.7055L1474.64 100.649L1476.52 101.312ZM1312.91 78.6616C1381.55 77.4448 1441.29 89.9958 1475.25 101.924L1475.91 100.037C1441.72 88.0299 1381.75 75.4409 1312.88 76.662L1312.91 78.6616ZM1097.4 137.888C1166.85 94.8576 1244.28 79.8784 1312.91 78.6616L1312.88 76.662C1244 77.8831 1166.18 92.9161 1096.34 136.187L1097.4 137.888ZM1053.13 180.549C1061.72 165.642 1075.76 151.291 1097.4 137.888L1096.34 136.187C1074.49 149.724 1060.19 164.296 1051.4 179.55L1053.13 180.549ZM1041.53 226.875C1041.35 210.992 1044.55 195.447 1053.13 180.549L1051.4 179.55C1042.61 194.807 1039.34 210.717 1039.53 226.898L1041.53 226.875ZM1062.38 310.293C1052.23 282.649 1041.85 254.316 1041.53 226.875L1039.53 226.898C1039.85 254.747 1050.38 283.416 1060.5 310.982L1062.38 310.293ZM1062.42 310.39L1062.38 310.292L1060.5 310.983L1060.54 311.081L1062.42 310.39ZM1062.46 310.512L1062.42 310.391L1060.54 311.079L1060.58 311.2L1062.46 310.512ZM1067.22 323.589C1065.67 319.255 1064.07 314.893 1062.46 310.512L1060.58 311.201C1062.19 315.583 1063.79 319.938 1065.34 324.262L1067.22 323.589ZM1080.1 369.631C1077.88 354.901 1072.88 339.409 1067.22 323.589L1065.34 324.262C1070.99 340.07 1075.93 355.405 1078.12 369.929L1080.1 369.631ZM1076.24 411.413C1081.77 398.456 1082.32 384.375 1080.1 369.631L1078.12 369.929C1080.31 384.449 1079.74 398.125 1074.4 410.627L1076.24 411.413ZM968.419 471.157C1034.4 458.095 1065.15 437.374 1076.24 411.413L1074.4 410.627C1063.73 435.615 1033.88 456.158 968.031 469.195L968.419 471.157ZM733.345 457.411C795.294 472.707 868.84 490.872 968.419 471.157L968.031 469.195C868.914 488.818 795.738 470.756 733.824 455.47L733.345 457.411ZM675.741 444.738C694.036 447.706 713.053 452.401 733.345 457.411L733.824 455.47C713.55 450.464 694.452 445.748 676.062 442.764L675.741 444.738ZM569.23 459.555C604.679 439.79 638.692 438.727 675.741 444.738L676.062 442.764C638.754 436.71 604.237 437.747 568.256 457.808L569.23 459.555ZM453.553 587.682C496.569 518.037 533.709 479.359 569.23 459.555L568.256 457.808C532.299 477.855 494.939 516.87 451.851 586.631L453.553 587.682ZM327.239 684.544C368.577 683.617 410.362 657.609 453.553 587.682L451.851 586.631C408.821 656.298 367.553 681.64 327.194 682.545L327.239 684.544ZM206.025 632.823C245.897 661.47 286.08 685.467 327.239 684.544L327.194 682.545C286.777 683.451 247.092 659.866 207.192 631.199L206.025 632.823ZM176.966 611.369C186.653 618.617 196.337 625.863 206.025 632.823L207.192 631.199C197.523 624.252 187.854 617.018 178.164 609.768L176.966 611.369ZM85.4581 551.686C116.322 565.997 146.65 588.685 176.966 611.369L178.164 609.768C147.89 587.115 117.389 564.288 86.2994 549.872L85.4581 551.686ZM23.8674 536.792C44.6356 536.509 65.1195 542.256 85.4581 551.686L86.2994 549.872C65.7855 540.36 44.9991 534.504 23.8401 534.793L23.8674 536.792ZM-39.6509 558.193C-18.0063 543.377 3.12071 537.075 23.8674 536.792L23.8401 534.793C2.67396 535.081 -18.8327 541.519 -40.7806 556.543L-39.6509 558.193ZM-41.6058 557.108L-41.0409 557.933L-39.3906 556.803L-39.9554 555.978L-41.6058 557.108ZM23.8265 533.793C2.45057 534.084 -19.246 540.59 -41.3455 555.718L-40.2157 557.368C-18.4195 542.448 2.89734 536.078 23.8537 535.792L23.8265 533.793ZM86.7201 548.965C66.1185 539.412 45.1808 533.501 23.8265 533.793L23.8537 535.792C44.8173 535.506 65.4525 541.308 85.8788 550.779L86.7201 548.965ZM178.831 609.016C148.536 586.348 117.914 563.429 86.7201 548.965L85.8788 550.779C116.847 565.138 147.297 587.918 177.632 610.617L178.831 609.016ZM178.858 609.037L178.857 609.036L177.606 610.596L177.606 610.597L178.858 609.037ZM207.775 630.387C198.147 623.469 188.505 616.255 178.831 609.016L177.633 610.617C187.304 617.854 196.961 625.08 206.608 632.011L207.775 630.387ZM327.172 681.545C287.125 682.443 247.69 659.063 207.775 630.387L206.608 632.011C246.495 660.668 286.428 684.459 327.217 683.544L327.172 681.545ZM451 586.106C408.051 655.642 367.041 680.651 327.172 681.545L327.217 683.544C368.065 682.629 409.592 656.954 452.702 587.157L451 586.106ZM567.769 456.934C531.594 477.104 494.124 516.287 451 586.106L452.702 587.157C495.754 517.454 533.004 478.607 568.743 458.681L567.769 456.934ZM676.222 441.777C638.785 435.702 604.016 436.725 567.769 456.934L568.743 458.681C604.458 438.768 638.723 437.719 675.902 443.751L676.222 441.777ZM734.196 454.525C713.879 449.509 694.716 444.777 676.222 441.777L675.902 443.751C694.3 446.736 713.382 451.446 733.717 456.467L734.196 454.525ZM734.189 454.523L734.188 454.523L733.726 456.469L733.727 456.469L734.189 454.523ZM967.837 468.214C868.961 487.79 796.082 469.803 734.198 454.525L733.718 456.467C795.638 471.754 868.887 489.843 968.225 470.176L967.837 468.214ZM1073.48 410.234C1063.02 434.736 1033.63 455.189 967.837 468.214L968.225 470.176C1034.14 457.127 1064.44 436.495 1075.32 411.02L1073.48 410.234ZM1077.13 370.078C1079.3 384.487 1078.72 397.959 1073.48 410.234L1075.32 411.02C1080.76 398.29 1081.32 384.412 1079.11 369.78L1077.13 370.078ZM1064.39 324.599C1070.04 340.4 1074.96 355.657 1077.13 370.078L1079.11 369.78C1076.91 355.153 1071.93 339.74 1066.28 323.926L1064.39 324.599ZM1059.57 311.351C1061.21 315.802 1062.83 320.219 1064.39 324.599L1066.28 323.926C1064.71 319.536 1063.08 315.111 1061.45 310.662L1059.57 311.351ZM1038.53 226.909C1038.85 254.945 1049.46 283.799 1059.57 311.351L1061.45 310.662C1051.31 283.032 1040.85 254.514 1040.53 226.886L1038.53 226.909ZM1050.53 179.051C1041.64 194.487 1038.34 210.579 1038.53 226.909L1040.53 226.886C1040.35 210.854 1043.58 195.127 1052.27 180.05L1050.53 179.051ZM1095.82 135.337C1073.86 148.94 1059.42 163.623 1050.53 179.051L1052.27 180.05C1060.96 164.969 1075.13 150.508 1096.87 137.037L1095.82 135.337ZM1312.86 75.6622C1243.86 76.8855 1165.85 91.9454 1095.82 135.337L1096.87 137.037C1166.52 93.8869 1244.14 78.8807 1312.9 77.6618L1312.86 75.6622ZM1339.08 113.914C1407.84 112.695 1467.69 125.265 1501.77 137.232L1502.43 135.345C1468.13 123.299 1408.04 110.691 1339.05 111.914L1339.08 113.914ZM1123.06 173.289C1192.7 130.139 1270.33 115.133 1339.08 113.914L1339.05 111.914C1270.05 113.137 1192.04 128.197 1122 171.589L1123.06 173.289ZM1078.45 216.301C1087.14 201.221 1101.31 186.76 1123.06 173.289L1122 171.589C1100.05 185.192 1085.61 199.875 1076.72 215.303L1078.45 216.301ZM1066.72 263.138C1066.53 247.106 1069.76 231.379 1078.45 216.301L1076.72 215.303C1067.82 230.739 1064.53 246.831 1064.72 263.161L1066.72 263.138ZM1087.64 346.914C1077.49 319.284 1067.04 290.766 1066.72 263.138L1064.72 263.161C1065.04 291.197 1075.65 320.051 1085.76 347.603L1087.64 346.914ZM1092.46 360.177C1090.9 355.788 1089.27 351.363 1087.64 346.914L1085.76 347.603C1087.39 352.054 1089.02 356.471 1090.58 360.851L1092.46 360.177ZM1105.3 406.032C1103.09 391.405 1098.12 375.992 1092.46 360.177L1090.58 360.851C1096.23 376.652 1101.15 391.909 1103.32 406.33L1105.3 406.032ZM1101.51 447.272C1106.95 434.542 1107.5 420.664 1105.3 406.032L1103.32 406.33C1105.49 420.738 1104.91 434.211 1099.67 446.486L1101.51 447.272ZM994.413 506.428C1060.33 493.378 1090.63 472.747 1101.51 447.272L1099.67 446.486C1089.21 470.988 1059.82 491.441 994.024 504.466L994.413 506.428ZM759.906 492.719C821.826 508.006 895.075 526.095 994.413 506.428L994.024 504.466C895.149 524.042 822.27 506.055 760.385 490.777L759.906 492.719ZM759.914 492.721L759.915 492.721L760.377 490.775L760.375 490.775L759.914 492.721ZM702.089 480.003C720.488 482.988 739.57 487.698 759.905 492.719L760.384 490.777C740.067 485.761 720.903 481.029 702.41 478.029L702.089 480.003ZM594.931 494.933C630.646 475.02 664.911 473.97 702.089 480.003L702.41 478.029C664.973 471.954 630.203 472.977 593.957 493.186L594.931 494.933ZM478.89 623.408C521.942 553.705 559.192 514.859 594.931 494.933L593.957 493.186C557.781 513.356 520.312 552.539 477.188 622.357L478.89 623.408ZM353.405 719.796C394.253 718.881 435.779 693.206 478.89 623.408L477.188 622.357C434.239 691.894 393.229 716.903 353.36 717.797L353.405 719.796ZM232.796 668.263C272.682 696.92 312.616 720.711 353.405 719.796L353.36 717.797C313.313 718.695 273.877 695.315 233.963 666.639L232.796 668.263ZM203.82 646.869C213.491 654.105 223.149 661.332 232.796 668.263L233.963 666.639C224.334 659.721 214.692 652.506 205.018 645.268L203.82 646.869ZM112.067 587.031C143.034 601.39 173.484 624.17 203.82 646.869L205.018 645.268C174.724 622.6 144.102 599.681 112.908 585.217L112.067 587.031ZM50.0415 572.044C71.0052 571.758 91.6403 577.56 112.067 587.031L112.908 585.217C92.3063 575.664 71.3686 569.753 50.0143 570.045L50.0415 572.044ZM-14.0279 593.62C7.76831 578.7 29.0851 572.33 50.0415 572.044L50.0143 570.045C28.6384 570.336 6.94182 576.842 -15.1577 591.97L-14.0279 593.62ZM-13.2028 593.055L-13.7676 592.23L-15.418 593.36L-14.8531 594.185L-13.2028 593.055ZM50.0279 571.044C28.8618 571.333 7.35506 577.771 -14.5928 592.795L-13.4631 594.445C8.18153 579.629 29.3085 573.327 50.0552 573.044L50.0279 571.044ZM112.487 586.124C91.9733 576.612 71.1869 570.756 50.0279 571.044L50.0552 573.044C70.8235 572.761 91.3073 578.508 111.646 587.938L112.487 586.124ZM204.352 646.019C174.078 623.367 143.577 600.539 112.487 586.124L111.646 587.938C142.51 602.249 172.838 624.937 203.154 647.621L204.352 646.019ZM233.38 667.451C223.71 660.504 214.042 653.27 204.352 646.019L203.154 647.621C212.841 654.869 222.525 662.115 232.213 669.075L233.38 667.451ZM353.382 718.797C312.964 719.703 273.28 696.117 233.38 667.451L232.213 669.075C272.085 697.722 312.268 721.719 353.427 720.796L353.382 718.797ZM478.039 622.883C435.009 692.55 393.741 717.892 353.382 718.797L353.427 720.796C394.765 719.869 436.55 693.861 479.741 623.934L478.039 622.883ZM594.444 494.06C558.487 514.107 521.127 553.122 478.039 622.883L479.741 623.934C522.757 554.289 559.897 515.611 595.418 495.807L594.444 494.06ZM702.249 479.016C664.942 472.962 630.425 473.999 594.444 494.06L595.418 495.807C630.867 476.042 664.88 474.978 701.929 480.99L702.249 479.016ZM760.012 491.721C739.738 486.716 720.639 482 702.249 479.016L701.929 480.99C720.224 483.958 739.241 488.653 759.533 493.663L760.012 491.721ZM994.219 505.447C895.102 525.07 821.926 507.008 760.012 491.721L759.533 493.663C821.482 508.959 895.028 527.124 994.607 507.409L994.219 505.447ZM1100.59 446.879C1089.92 471.867 1060.07 492.41 994.219 505.447L994.607 507.409C1060.58 494.347 1091.34 473.626 1102.43 447.664L1100.59 446.879ZM1104.31 406.181C1106.5 420.701 1105.93 434.377 1100.59 446.879L1102.43 447.664C1107.96 434.708 1108.51 420.626 1106.29 405.883L1104.31 406.181ZM1091.52 360.514C1097.18 376.322 1102.12 391.657 1104.31 406.181L1106.29 405.883C1104.07 391.153 1099.06 375.661 1093.41 359.841L1091.52 360.514ZM1086.73 347.331C1088.35 351.754 1089.96 356.15 1091.52 360.514L1093.41 359.841C1091.84 355.467 1090.23 351.064 1088.6 346.642L1086.73 347.331ZM1086.69 347.234L1086.73 347.33L1088.6 346.642L1088.57 346.546L1086.69 347.234ZM1065.72 263.15C1066.04 290.998 1076.57 319.668 1086.69 347.234L1088.57 346.545C1078.42 318.901 1068.03 290.568 1067.72 263.127L1065.72 263.15ZM1077.59 215.802C1068.79 231.059 1065.53 246.969 1065.72 263.15L1067.72 263.127C1067.54 247.244 1070.73 231.699 1079.32 216.801L1077.59 215.802ZM1122.53 172.439C1100.68 185.976 1086.38 200.548 1077.59 215.802L1079.32 216.801C1087.91 201.894 1101.95 187.543 1123.58 174.139L1122.53 172.439ZM1339.07 112.914C1270.19 114.135 1192.37 129.168 1122.53 172.439L1123.58 174.139C1193.04 131.11 1270.47 116.13 1339.1 114.914L1339.07 112.914ZM1502.1 136.289C1467.91 124.282 1407.94 111.693 1339.07 112.914L1339.1 114.914C1407.74 113.697 1467.47 126.248 1501.44 138.176L1502.1 136.289ZM1501.15 135.957L1500.82 136.901L1502.71 137.564L1503.04 136.62L1501.15 135.957ZM1365.27 150.166C1434.03 148.947 1493.88 161.517 1527.95 173.484L1528.62 171.597C1494.32 159.551 1434.23 146.943 1365.24 148.166L1365.27 150.166ZM1149.24 209.541C1218.89 166.391 1296.52 151.385 1365.27 150.166L1365.24 148.166C1296.23 149.389 1218.23 164.449 1148.19 207.841L1149.24 209.541ZM1104.64 252.553C1113.33 237.473 1127.5 223.011 1149.24 209.541L1148.19 207.841C1126.23 221.444 1111.8 236.127 1102.91 251.555L1104.64 252.553ZM1092.91 299.39C1092.72 283.358 1095.95 267.631 1104.64 252.553L1102.91 251.555C1094.01 266.991 1090.72 283.083 1090.91 299.413L1092.91 299.39ZM1113.82 383.166C1103.68 355.536 1093.22 327.018 1092.91 299.39L1090.91 299.413C1091.23 327.449 1101.83 356.303 1111.95 383.855L1113.82 383.166ZM1118.65 396.429C1117.08 392.04 1115.46 387.615 1113.82 383.166L1111.95 383.855C1113.58 388.305 1115.2 392.723 1116.77 397.103L1118.65 396.429ZM1131.49 442.284C1129.28 427.657 1124.31 412.243 1118.65 396.429L1116.77 397.103C1122.42 412.904 1127.33 428.161 1129.51 442.582L1131.49 442.284ZM1127.7 483.524C1133.13 470.794 1133.69 456.916 1131.49 442.284L1129.51 442.582C1131.68 456.99 1131.1 470.463 1125.86 482.738L1127.7 483.524ZM1020.6 542.68C1086.52 529.63 1116.82 508.998 1127.7 483.524L1125.86 482.738C1115.39 507.24 1086 527.693 1020.21 540.718L1020.6 542.68ZM786.094 528.971C848.014 544.258 921.262 562.347 1020.6 542.68L1020.21 540.718C921.336 560.293 848.458 542.307 786.573 527.029L786.094 528.971ZM786.102 528.973L786.103 528.973L786.564 527.027L786.563 527.027L786.102 528.973ZM728.277 516.255C746.676 519.24 765.758 523.95 786.093 528.971L786.572 527.029C766.255 522.013 747.091 517.281 728.597 514.28L728.277 516.255ZM621.119 531.185C656.834 511.272 691.099 510.222 728.277 516.255L728.597 514.28C691.161 508.206 656.391 509.229 620.145 529.438L621.119 531.185ZM505.078 659.66C548.13 589.957 585.38 551.111 621.119 531.185L620.145 529.438C583.969 549.608 546.5 588.791 503.376 658.609L505.078 659.66ZM379.593 756.048C420.441 755.132 461.967 729.457 505.078 659.66L503.376 658.609C460.427 728.146 419.416 753.155 379.548 754.049L379.593 756.048ZM258.984 704.515C298.87 733.171 338.804 756.963 379.593 756.048L379.548 754.049C339.5 754.946 300.065 731.567 260.151 702.891L258.984 704.515ZM230.02 683.13C239.687 690.363 249.341 697.587 258.984 704.515L260.151 702.891C250.526 695.976 240.888 688.764 231.218 681.528L230.02 683.13ZM230.008 683.121L230.018 683.128L231.22 681.53L231.21 681.522L230.008 683.121ZM230.002 683.116L230.003 683.117L231.215 681.526L231.213 681.524L230.002 683.116ZM138.254 623.283C169.222 637.642 199.672 660.422 230.008 683.121L231.206 681.52C200.912 658.851 170.289 635.932 139.096 621.469L138.254 623.283ZM76.2293 608.296C97.193 608.01 117.828 613.812 138.254 623.283L139.096 621.469C118.494 611.916 97.5564 606.005 76.2021 606.296L76.2293 608.296ZM12.1599 629.872C33.9561 614.951 55.2729 608.582 76.2293 608.296L76.2021 606.296C54.8262 606.588 33.1296 613.093 11.0301 628.222L12.1599 629.872ZM12.985 629.307L12.4202 628.482L10.7698 629.612L11.3347 630.437L12.985 629.307ZM76.2157 607.296C55.0496 607.585 33.5429 614.022 11.595 629.047L12.7247 630.697C34.3693 615.88 55.4963 609.579 76.243 609.296L76.2157 607.296ZM138.675 622.376C118.161 612.864 97.3747 607.008 76.2157 607.296L76.243 609.296C97.0113 609.013 117.495 614.76 137.834 624.19L138.675 622.376ZM230.54 682.271C200.266 659.619 169.765 636.791 138.675 622.376L137.834 624.19C168.697 638.501 199.026 661.189 229.342 683.873L230.54 682.271ZM259.567 703.703C249.898 696.756 240.23 689.522 230.54 682.271L229.342 683.873C239.029 691.121 248.713 698.367 258.401 705.327L259.567 703.703ZM379.57 755.048C339.152 755.955 299.468 732.369 259.567 703.703L258.401 705.327C298.273 733.974 338.456 757.971 379.615 757.048L379.57 755.048ZM504.227 659.135C461.197 728.802 419.928 754.144 379.57 755.048L379.615 757.048C420.953 756.121 462.738 730.113 505.928 660.186L504.227 659.135ZM620.632 530.312C584.675 550.359 547.315 589.374 504.227 659.135L505.928 660.186C548.945 590.541 586.085 551.863 621.606 532.058L620.632 530.312ZM728.437 515.268C691.13 509.214 656.613 510.251 620.632 530.312L621.606 532.058C657.055 512.294 691.068 511.23 728.117 517.242L728.437 515.268ZM786.2 527.973C765.925 522.968 746.827 518.251 728.437 515.268L728.117 517.242C746.412 520.21 765.428 524.905 785.72 529.915L786.2 527.973ZM1020.41 541.699C921.29 561.322 848.114 543.26 786.2 527.973L785.72 529.915C847.669 545.211 921.216 563.376 1020.79 543.661L1020.41 541.699ZM1126.78 483.131C1116.11 508.119 1086.26 528.662 1020.41 541.699L1020.79 543.661C1086.77 530.599 1117.53 509.878 1128.62 483.916L1126.78 483.131ZM1130.5 442.433C1132.69 456.953 1132.12 470.628 1126.78 483.131L1128.62 483.916C1134.15 470.96 1134.7 456.878 1132.47 442.135L1130.5 442.433ZM1117.71 396.766C1123.36 412.574 1128.31 427.909 1130.5 442.433L1132.47 442.135C1130.25 427.405 1125.25 411.913 1119.59 396.093L1117.71 396.766ZM1112.91 383.583C1114.54 388.006 1116.15 392.401 1117.71 396.766L1119.59 396.093C1118.03 391.719 1116.41 387.316 1114.79 382.894L1112.91 383.583ZM1112.88 383.485L1112.91 383.582L1114.79 382.894L1114.76 382.797L1112.88 383.485ZM1091.91 299.402C1092.23 327.25 1102.76 355.92 1112.88 383.486L1114.76 382.797C1104.61 355.152 1094.22 326.819 1093.91 299.379L1091.91 299.402ZM1103.77 252.054C1094.98 267.311 1091.72 283.22 1091.91 299.402L1093.91 299.379C1093.72 283.496 1096.92 267.951 1105.51 253.053L1103.77 252.054ZM1148.72 208.691C1126.87 222.228 1112.57 236.8 1103.77 252.054L1105.51 253.053C1114.1 238.146 1128.14 223.795 1149.77 210.391L1148.72 208.691ZM1365.25 149.166C1296.38 150.387 1218.56 165.42 1148.72 208.691L1149.77 210.391C1219.22 167.361 1296.66 152.382 1365.29 151.165L1365.25 149.166ZM1528.29 172.541C1494.1 160.534 1434.13 147.945 1365.25 149.166L1365.29 151.165C1433.93 149.949 1493.66 162.5 1527.62 174.428L1528.29 172.541ZM1527.34 172.209L1527.01 173.153L1528.9 173.816L1529.23 172.872L1527.34 172.209Z" fill="#1C3F77" fill-opacity="0.08"/>
<path d="M1324.66 617.667L1324.81 618.657L1324.66 617.667ZM1483.39 567.811L1484.26 567.332L1484.74 568.21L1483.87 568.689L1483.39 567.811ZM1099.1 593.593L1098.72 594.517L1099.1 593.593ZM1047.23 557.685L1046.46 558.317L1047.23 557.685ZM1027.69 512.418L1028.68 512.268V512.268L1027.69 512.418ZM1034.91 425.151L1033.93 424.962L1033.93 424.96L1034.91 425.151ZM1034.91 425.136L1035.89 425.324L1035.89 425.326L1034.91 425.136ZM1037.56 411.151L1038.54 411.331V411.331L1037.56 411.151ZM1042.87 363.54L1041.87 363.553L1042.87 363.54ZM1032.53 323.571L1031.69 324.106L1032.53 323.571ZM916.941 282.505L916.975 281.505L916.941 282.505ZM685.815 334.287L686.208 335.206L685.815 334.287ZM630.171 356.409L630.488 357.358L630.171 356.409ZM520.249 358.97L520.589 358.03L520.249 358.97ZM383.222 249.503L383.977 248.847L383.222 249.503ZM243.321 174.185L243.182 173.195L243.321 174.185ZM132.047 244.92L132.753 245.627L132.047 244.92ZM106.657 270.954L107.378 271.648L106.657 270.954ZM24.7718 345.687L24.2103 344.86L24.7718 345.687ZM-35.0378 370.892L-35.1856 369.903L-35.0378 370.892ZM-103 359.734L-103.424 360.639L-104.33 360.215L-103.905 359.31L-103 359.734ZM-102.576 358.829L-103.481 358.404L-103.057 357.499L-102.151 357.923L-102.576 358.829ZM-35.1856 369.903L-35.0378 370.892L-35.1856 369.903ZM24.2103 344.86L24.7718 345.687L24.2103 344.86ZM105.879 270.32L106.599 271.013L105.879 270.32ZM131.34 244.213L132.047 244.92L131.34 244.213ZM243.182 173.195L243.321 174.185L243.182 173.195ZM383.977 248.847L383.222 249.503L383.977 248.847ZM520.589 358.03L520.249 358.97L520.589 358.03ZM629.854 355.461L630.171 356.409L629.854 355.461ZM685.293 333.415L684.9 332.496L684.921 332.487L684.942 332.479L685.293 333.415ZM685.294 333.415L685.687 334.334L685.666 334.343L685.645 334.351L685.294 333.415ZM916.975 281.505L917.008 280.506L916.975 281.505ZM1033.37 323.035L1032.53 323.571L1033.37 323.035ZM1043.87 363.528L1044.87 363.516L1043.87 363.528ZM1038.54 411.331L1039.52 411.512L1038.54 411.331ZM1035.89 425.329L1034.91 425.143L1034.91 425.14L1035.89 425.329ZM1035.88 425.366L1036.87 425.551L1036.87 425.554L1035.88 425.366ZM1028.68 512.268L1027.69 512.418L1028.68 512.268ZM1048.01 557.052L1048.78 556.42V556.42L1048.01 557.052ZM1099.48 592.669L1099.1 593.593L1099.48 592.669ZM1324.52 616.678L1324.66 617.667L1324.52 616.678ZM1482.91 566.933L1482.43 566.056L1483.31 565.576L1483.78 566.454L1482.91 566.933ZM1503.59 527.405L1504.47 526.926L1504.95 527.804L1504.07 528.283L1503.59 527.405ZM1344.87 577.261L1345.01 578.251L1344.87 577.261ZM1503.11 526.527L1502.63 525.65L1503.51 525.17L1503.99 526.048L1503.11 526.527ZM1344.72 576.272L1344.87 577.261L1344.72 576.272ZM1119.68 552.263L1119.3 553.187L1119.68 552.263ZM1068.21 516.646L1068.99 516.014V516.014L1068.21 516.646ZM1048.88 471.862L1047.89 472.012L1048.88 471.862ZM1056.09 384.96L1057.07 385.145L1057.07 385.148L1056.09 384.96ZM1056.09 384.923L1055.11 384.737L1055.11 384.734L1056.09 384.923ZM1058.74 370.925L1059.73 371.106L1058.74 370.925ZM1064.07 323.122L1065.07 323.11L1064.07 323.122ZM1053.58 282.629L1052.73 283.165L1053.58 282.629ZM937.178 241.099L937.211 240.1L937.178 241.099ZM705.497 293.009L705.89 293.928L705.869 293.937L705.848 293.945L705.497 293.009ZM705.496 293.009L705.103 292.09L705.124 292.081L705.145 292.073L705.496 293.009ZM650.057 315.055L650.374 316.003L650.057 315.055ZM540.792 317.624L541.132 316.683L540.792 317.624ZM404.18 208.441L403.425 209.097L404.18 208.441ZM263.385 132.789L263.524 133.779L263.385 132.789ZM151.543 203.807L152.25 204.514L151.543 203.807ZM126.082 229.914L126.802 230.607L126.082 229.914ZM44.4133 304.454L43.8519 303.626L44.4133 304.454ZM-14.9826 329.497L-14.8349 330.486L-14.9826 329.497ZM-82.3726 318.423L-83.278 317.998L-82.8536 317.093L-81.9481 317.517L-82.3726 318.423ZM-82.797 319.328L-83.2214 320.234L-84.1269 319.809L-83.7025 318.904L-82.797 319.328ZM-14.8349 330.486L-14.9826 329.497L-14.8349 330.486ZM44.9747 305.281L45.5362 306.109L44.9747 305.281ZM126.86 230.548L127.581 231.242L126.86 230.548ZM152.25 204.514L152.956 205.221L152.25 204.514ZM263.524 133.779L263.385 132.789L263.524 133.779ZM403.425 209.097L402.67 209.753L403.425 209.097ZM540.452 318.564L540.792 317.624L540.452 318.564ZM650.374 316.003L650.691 316.952L650.374 316.003ZM706.018 293.881L706.411 294.8L706.018 293.881ZM937.144 242.099L937.178 241.099L937.144 242.099ZM1052.73 283.165L1051.89 283.701L1052.73 283.165ZM1063.07 323.134L1062.07 323.147L1063.07 323.134ZM1057.76 370.745L1058.74 370.925V370.925L1057.76 370.745ZM1055.12 384.716L1056.1 384.904L1056.1 384.906L1055.12 384.716ZM1055.11 384.729L1054.13 384.55L1054.13 384.538L1055.11 384.729ZM1055.11 384.745L1056.09 384.924L1056.09 384.934L1055.11 384.745ZM1047.89 472.012L1048.88 471.862L1047.89 472.012ZM1067.44 517.279L1066.66 517.911L1067.44 517.279ZM1119.3 553.187L1118.92 554.111L1119.3 553.187ZM1365.07 536.855L1365.21 537.845L1365.07 536.855ZM1523.79 486.999L1524.67 486.52L1525.15 487.398L1524.27 487.877L1523.79 486.999ZM1139.5 512.781L1139.12 513.705L1139.5 512.781ZM1087.64 476.873L1086.86 477.505V477.505L1087.64 476.873ZM1068.1 431.606L1069.09 431.456L1068.1 431.606ZM1075.31 344.339L1076.3 344.518L1076.3 344.528L1075.31 344.339ZM1075.32 344.323L1076.3 344.501L1076.3 344.502L1075.32 344.323ZM1075.32 344.309L1074.33 344.131L1074.34 344.12L1075.32 344.309ZM1077.96 330.339L1078.95 330.519L1077.96 330.339ZM1083.27 282.728L1082.27 282.741L1083.27 282.728ZM1072.94 242.759L1072.09 243.295L1072.94 242.759ZM957.347 201.693L957.381 200.693L957.347 201.693ZM726.221 253.475L726.614 254.394L726.221 253.475ZM670.577 275.597L670.894 276.546L670.577 275.597ZM560.655 278.158L560.995 277.218L560.655 278.158ZM423.628 168.691L422.873 169.347L423.628 168.691ZM283.727 93.3732L283.588 92.3829L283.727 93.3732ZM172.453 164.108L173.159 164.815L172.453 164.108ZM147.063 190.142L147.784 190.836L147.063 190.142ZM65.1777 264.875L65.7392 265.703L65.1777 264.875ZM5.36813 290.08L5.22038 289.091L5.36813 290.08ZM-62.594 278.922L-63.0185 279.828L-63.9239 279.403L-63.4995 278.498L-62.594 278.922ZM-62.1696 278.017L-63.0751 277.592L-62.6506 276.687L-61.7452 277.111L-62.1696 278.017ZM5.22037 289.091L5.36813 290.08L5.22037 289.091ZM64.6163 264.048L64.0549 263.22L64.6163 264.048ZM146.285 189.508L147.037 190.166L147.022 190.184L147.005 190.201L146.285 189.508ZM146.285 189.507L145.532 188.849L145.548 188.831L145.565 188.814L146.285 189.507ZM171.746 163.401L172.453 164.108L171.746 163.401ZM283.588 92.383L283.727 93.3733L283.588 92.383ZM424.383 168.035L423.628 168.691L424.383 168.035ZM560.995 277.218L561.335 276.277L560.995 277.218ZM670.26 274.649L670.577 275.597L670.26 274.649ZM725.699 252.603L725.306 251.684L725.327 251.675L725.348 251.667L725.699 252.603ZM725.7 252.603L726.093 253.523L726.072 253.531L726.051 253.539L725.7 252.603ZM957.381 200.693L957.414 199.694L957.381 200.693ZM1073.78 242.223L1072.94 242.759L1073.78 242.223ZM1084.27 282.716L1085.27 282.704L1084.27 282.716ZM1078.95 330.519L1079.93 330.7L1078.95 330.519ZM1076.3 344.517L1075.32 344.331L1075.32 344.328L1076.3 344.517ZM1076.29 344.554L1077.27 344.739L1077.27 344.742L1076.29 344.554ZM1069.09 431.456L1068.1 431.606L1069.09 431.456ZM1088.41 476.24L1089.19 475.608L1088.41 476.24ZM1139.89 511.857L1139.5 512.781L1139.89 511.857ZM1364.93 535.866L1365.07 536.855L1364.93 535.866ZM1523.31 486.121L1522.83 485.244L1523.71 484.764L1524.19 485.642L1523.31 486.121ZM1385.27 496.449L1385.42 497.439L1385.27 496.449ZM1544 446.593L1544.87 446.114L1545.35 446.992L1544.47 447.471L1544 446.593ZM1159.71 472.375L1159.32 473.299L1159.71 472.375ZM1107.84 436.467L1107.07 437.099V437.099L1107.84 436.467ZM1088.3 391.2L1089.29 391.05L1088.3 391.2ZM1095.52 303.933L1096.5 304.112L1096.5 304.122L1095.52 303.933ZM1095.52 303.907L1094.54 303.728L1094.54 303.718L1094.54 303.708L1095.52 303.907ZM1095.52 303.89L1096.51 304.079L1096.5 304.089L1095.52 303.89ZM1098.17 289.933L1099.15 290.113L1098.17 289.933ZM1103.48 242.322L1102.48 242.335L1103.48 242.322ZM1093.14 202.353L1092.29 202.889L1093.14 202.353ZM977.55 161.287L977.584 160.287L977.55 161.287ZM746.424 213.069L746.817 213.988L746.424 213.069ZM690.78 235.191L691.097 236.14L690.78 235.191ZM580.858 237.752L581.198 236.812L580.858 237.752ZM443.831 128.285L443.076 128.941L443.831 128.285ZM303.93 52.9672L303.791 51.9769L303.93 52.9672ZM192.655 123.702L191.949 122.995L192.655 123.702ZM167.266 149.736L167.987 150.43L167.266 149.736ZM85.3807 224.469L85.9422 225.297L85.3807 224.469ZM25.5711 249.674L25.4234 248.685L25.5711 249.674ZM-42.391 238.516L-42.8155 239.422L-43.7209 238.997L-43.2965 238.092L-42.391 238.516ZM-41.9666 237.611L-42.8721 237.186L-42.4476 236.281L-41.5422 236.705L-41.9666 237.611ZM25.4234 248.685L25.5711 249.674L25.4234 248.685ZM84.8193 223.642L84.2578 222.814L84.8193 223.642ZM166.488 149.102L167.208 149.795L166.488 149.102ZM191.949 122.995L192.655 123.702L191.949 122.995ZM303.791 51.977L303.93 52.9673L303.791 51.977ZM444.586 127.629L445.341 126.973L444.586 127.629ZM581.198 236.812L581.538 235.871L581.198 236.812ZM690.463 234.243L690.78 235.191L690.463 234.243ZM745.902 212.197L745.509 211.278L745.53 211.269L745.551 211.261L745.902 212.197ZM745.903 212.197L746.296 213.117L746.275 213.125L746.254 213.133L745.903 212.197ZM977.584 160.287L977.617 159.288L977.584 160.287ZM1093.98 201.817L1093.14 202.353L1093.98 201.817ZM1104.48 242.31L1105.48 242.298L1104.48 242.31ZM1099.15 290.113L1100.13 290.294L1099.15 290.113ZM1096.5 304.111L1095.52 303.925L1095.52 303.922L1096.5 304.111ZM1096.49 304.148L1097.48 304.333L1097.48 304.336L1096.49 304.148ZM1089.29 391.05L1088.3 391.2L1089.29 391.05ZM1108.62 435.834L1109.39 435.202L1108.62 435.834ZM1160.09 471.451L1159.71 472.375L1160.09 471.451ZM1385.13 495.46L1385.27 496.449L1385.13 495.46ZM1543.52 445.715L1543.04 444.838L1543.91 444.358L1544.39 445.236L1543.52 445.715ZM1324.52 616.678C1393.26 606.694 1450.89 584.414 1482.91 566.933L1483.87 568.689C1451.64 586.283 1393.79 608.639 1324.81 618.657L1324.52 616.678ZM1099.48 592.669C1175.94 624.344 1255.78 626.661 1324.52 616.678L1324.81 618.657C1255.82 628.676 1175.6 626.367 1098.72 594.517L1099.48 592.669ZM1048.01 557.052C1059.13 570.672 1075.61 582.781 1099.48 592.669L1098.72 594.517C1074.61 584.532 1057.83 572.247 1046.46 558.317L1048.01 557.052ZM1028.68 512.268C1031.11 528.281 1036.89 543.435 1048.01 557.052L1046.46 558.317C1035.08 544.379 1029.17 528.876 1026.7 512.567L1028.68 512.268ZM1035.89 425.34C1030.28 454.536 1024.5 484.671 1028.68 512.268L1026.7 512.567C1022.46 484.568 1028.33 454.078 1033.93 424.962L1035.89 425.34ZM1035.89 425.326L1035.89 425.341L1033.93 424.96L1033.93 424.945L1035.89 425.326ZM1038.54 411.331C1037.69 415.957 1036.79 420.628 1035.89 425.324L1033.93 424.947C1034.83 420.249 1035.73 415.587 1036.57 410.97L1038.54 411.331ZM1043.87 363.528C1044.05 378.469 1041.6 394.644 1038.54 411.331L1036.57 410.97C1039.63 394.297 1042.05 378.285 1041.87 363.553L1043.87 363.528ZM1033.37 323.035C1040.87 334.838 1043.68 348.583 1043.87 363.528L1041.87 363.553C1041.69 348.833 1038.91 335.494 1031.69 324.106L1033.37 323.035ZM916.975 281.505C984.812 283.779 1018.38 299.412 1033.37 323.035L1031.69 324.106C1017.26 301.377 984.619 285.774 916.908 283.504L916.975 281.505ZM685.422 333.367C744.662 308.042 814.739 278.078 916.975 281.505L916.908 283.504C815.143 280.093 745.415 309.896 686.208 335.206L685.422 333.367ZM629.854 355.461C647.71 349.488 665.967 341.684 685.422 333.367L686.208 335.206C666.77 343.516 648.436 351.354 630.488 357.358L629.854 355.461ZM520.589 358.03C559.439 372.065 593.772 367.53 629.854 355.461L630.488 357.358C594.157 369.51 559.332 374.153 519.909 359.911L520.589 358.03ZM383.977 248.847C438.25 311.324 481.713 343.985 520.589 358.03L519.909 359.911C480.564 345.697 436.829 312.739 382.467 250.159L383.977 248.847ZM243.182 173.195C284.051 167.455 329.631 186.286 383.977 248.847L382.467 250.159C328.322 187.829 283.36 169.572 243.46 175.175L243.182 173.195ZM131.34 244.212C166.436 209.147 202.371 178.926 243.182 173.195L243.46 175.175C203.384 180.804 167.874 210.538 132.753 245.627L131.34 244.212ZM105.937 270.261C114.4 261.471 122.851 252.694 131.34 244.212L132.753 245.627C124.281 254.092 115.843 262.856 107.378 271.648L105.937 270.261ZM24.2103 344.86C52.7449 325.5 79.3915 297.831 105.937 270.261L107.378 271.648C80.8683 299.181 54.0738 327.016 25.3332 346.515L24.2103 344.86ZM-35.1856 369.903C-14.2387 366.774 5.38892 357.629 24.2103 344.86L25.3332 346.515C6.35188 359.393 -13.5568 368.694 -34.8901 371.881L-35.1856 369.903ZM-102.576 358.829C-78.4152 370.154 -56.1253 373.032 -35.1856 369.903L-34.8901 371.881C-56.2447 375.072 -78.9313 372.121 -103.424 360.639L-102.576 358.829ZM-101.67 359.253L-102.095 360.158L-103.905 359.31L-103.481 358.404L-101.67 359.253ZM-35.0378 370.892C-56.185 374.052 -78.6732 371.137 -103 359.734L-102.151 357.923C-78.1571 369.17 -56.0656 372.012 -35.3334 368.914L-35.0378 370.892ZM24.7718 345.687C5.8704 358.511 -13.8978 367.734 -35.0378 370.892L-35.3334 368.914C-14.5797 365.814 4.90743 356.747 23.6489 344.032L24.7718 345.687ZM106.599 271.013C80.1069 298.527 53.4174 326.252 24.7718 345.687L23.6489 344.032C52.0885 324.737 78.63 297.178 105.158 269.626L106.599 271.013ZM132.047 244.92C123.539 253.42 115.078 262.207 106.599 271.013L105.158 269.626C113.635 260.822 122.109 252.021 130.633 243.505L132.047 244.92ZM243.321 174.185C202.878 179.865 167.155 209.843 132.047 244.92L130.633 243.505C165.717 208.452 201.865 177.988 243.043 172.205L243.321 174.185ZM383.222 249.503C328.976 187.058 283.705 168.513 243.321 174.185L243.043 172.205C284.397 166.397 330.285 185.515 384.732 248.191L383.222 249.503ZM520.249 358.97C481.138 344.841 437.539 312.032 383.222 249.503L384.732 248.191C438.96 310.617 482.288 343.13 520.929 357.089L520.249 358.97ZM630.171 356.409C593.964 368.52 559.386 373.109 520.249 358.97L520.929 357.089C559.493 371.021 593.579 366.541 629.537 354.513L630.171 356.409ZM685.686 334.335C666.289 342.627 648.018 350.439 630.171 356.409L629.537 354.513C647.293 348.573 665.487 340.796 684.9 332.496L685.686 334.335ZM685.645 334.351L685.644 334.352L684.942 332.479L684.943 332.479L685.645 334.351ZM916.941 282.505C814.932 279.085 744.921 309.01 685.687 334.334L684.901 332.495C744.168 307.157 814.527 277.071 917.008 280.506L916.941 282.505ZM1032.53 323.571C1017.82 300.395 984.716 284.776 916.941 282.505L917.008 280.506C984.909 282.782 1018.94 298.429 1034.22 322.499L1032.53 323.571ZM1042.87 363.54C1042.68 348.708 1039.89 335.166 1032.53 323.571L1034.22 322.499C1041.84 334.511 1044.68 348.457 1044.87 363.516L1042.87 363.54ZM1037.56 411.151C1040.62 394.471 1043.05 378.377 1042.87 363.54L1044.87 363.516C1045.05 378.561 1042.59 394.818 1039.52 411.512L1037.56 411.151ZM1034.91 425.14C1035.81 420.444 1036.71 415.778 1037.56 411.151L1039.52 411.512C1038.67 416.148 1037.78 420.823 1036.87 425.517L1034.91 425.14ZM1034.9 425.18L1034.91 425.143L1036.87 425.515L1036.87 425.551L1034.9 425.18ZM1027.69 512.418C1023.47 484.603 1029.31 454.307 1034.9 425.177L1036.87 425.554C1031.25 454.766 1025.51 484.707 1029.67 512.118L1027.69 512.418ZM1047.23 557.685C1035.98 543.907 1030.14 528.579 1027.69 512.418L1029.67 512.118C1032.07 527.984 1037.79 542.963 1048.78 556.42L1047.23 557.685ZM1099.1 593.593C1075.11 583.657 1058.48 571.459 1047.23 557.685L1048.78 556.42C1059.78 569.884 1076.11 581.905 1099.86 591.745L1099.1 593.593ZM1324.66 617.667C1255.8 627.668 1175.77 625.355 1099.1 593.593L1099.86 591.745C1176.12 623.332 1255.76 625.653 1324.38 615.688L1324.66 617.667ZM1483.39 567.811C1451.26 585.349 1393.53 607.667 1324.66 617.667L1324.38 615.688C1393 605.722 1450.51 583.479 1482.43 566.056L1483.39 567.811ZM1482.51 568.29L1482.03 567.412L1483.78 566.454L1484.26 567.332L1482.51 568.29ZM1504.07 528.283C1471.84 545.878 1413.99 568.233 1345.01 578.251L1344.72 576.272C1413.47 566.288 1471.09 544.008 1503.11 526.527L1504.07 528.283ZM1503.99 526.048L1504.47 526.926L1502.71 527.884L1502.23 527.006L1503.99 526.048ZM1344.58 575.282C1413.21 565.316 1470.72 543.073 1502.63 525.65L1503.59 527.405C1471.46 544.943 1413.73 567.261 1344.87 577.261L1344.58 575.282ZM1120.07 551.339C1196.32 582.926 1275.96 585.247 1344.58 575.282L1344.87 577.261C1276 587.262 1195.98 584.949 1119.3 553.187L1120.07 551.339ZM1068.99 516.014C1079.98 529.478 1096.31 541.499 1120.07 551.339L1119.3 553.187C1095.32 543.251 1078.68 531.053 1067.44 517.279L1068.99 516.014ZM1049.87 471.712C1052.28 487.578 1058 502.557 1068.99 516.014L1067.44 517.279C1056.19 503.501 1050.34 488.173 1047.89 472.012L1049.87 471.712ZM1057.07 385.148C1051.46 414.36 1045.72 444.301 1049.87 471.712L1047.89 472.012C1043.68 444.197 1049.51 413.901 1055.11 384.771L1057.07 385.148ZM1057.08 385.109L1057.07 385.145L1055.11 384.774L1055.11 384.737L1057.08 385.109ZM1059.73 371.106C1058.88 375.742 1057.98 380.417 1057.08 385.111L1055.11 384.734C1056.02 380.038 1056.91 375.372 1057.76 370.745L1059.73 371.106ZM1065.07 323.11C1065.26 338.155 1062.79 354.412 1059.73 371.106L1057.76 370.745C1060.82 354.065 1063.25 337.971 1063.07 323.134L1065.07 323.11ZM1054.42 282.093C1062.05 294.105 1064.88 308.051 1065.07 323.11L1063.07 323.134C1062.89 308.302 1060.09 294.76 1052.73 283.165L1054.42 282.093ZM937.211 240.1C1005.11 242.376 1039.14 258.023 1054.42 282.093L1052.73 283.165C1038.02 259.989 1004.92 244.37 937.144 242.099L937.211 240.1ZM705.104 292.09C764.371 266.751 834.73 236.665 937.211 240.1L937.144 242.099C835.135 238.679 765.124 268.604 705.89 293.928L705.104 292.09ZM705.145 292.073L705.146 292.073L705.848 293.945L705.847 293.946L705.145 292.073ZM649.74 314.107C667.496 308.167 685.69 300.39 705.103 292.09L705.889 293.929C686.492 302.221 668.221 310.033 650.374 316.003L649.74 314.107ZM541.132 316.683C579.696 330.615 613.782 326.135 649.74 314.107L650.374 316.003C614.167 328.114 579.589 332.703 540.452 318.564L541.132 316.683ZM404.935 207.785C459.163 270.211 502.491 302.724 541.132 316.683L540.452 318.564C501.341 304.435 457.742 271.626 403.425 209.097L404.935 207.785ZM263.246 131.799C304.6 125.991 350.488 145.109 404.935 207.785L403.425 209.097C349.179 146.652 303.908 128.108 263.524 133.779L263.246 131.799ZM150.836 203.099C185.92 168.046 222.068 137.582 263.246 131.799L263.524 133.779C223.081 139.459 187.358 169.437 152.25 204.514L150.836 203.099ZM125.361 229.22C133.838 220.416 142.312 211.615 150.836 203.099L152.25 204.514C143.742 213.014 135.281 221.801 126.802 230.607L125.361 229.22ZM43.8519 303.626C72.2915 284.331 98.833 256.772 125.361 229.22L126.802 230.607C100.31 258.121 73.6204 285.846 44.9747 305.281L43.8519 303.626ZM-15.1304 328.508C5.62328 325.408 25.1104 316.341 43.8519 303.626L44.9747 305.281C26.0734 318.105 6.30522 327.328 -14.8349 330.486L-15.1304 328.508ZM-81.9481 317.517C-57.9541 328.764 -35.8627 331.606 -15.1304 328.508L-14.8349 330.486C-35.982 333.646 -58.4702 330.731 -82.797 319.328L-81.9481 317.517ZM-83.7025 318.904L-83.278 317.998L-81.4671 318.847L-81.8916 319.753L-83.7025 318.904ZM-14.6871 331.475C-36.0417 334.666 -58.7283 331.715 -83.2214 320.234L-82.3726 318.423C-58.2122 329.748 -35.9223 332.626 -14.9826 329.497L-14.6871 331.475ZM45.5362 306.109C26.5549 318.987 6.64619 328.288 -14.6871 331.475L-14.9826 329.497C5.96424 326.368 25.5919 317.223 44.4133 304.454L45.5362 306.109ZM127.581 231.242C101.071 258.775 74.2768 286.61 45.5362 306.109L44.4133 304.454C72.9479 285.094 99.5945 257.425 126.14 229.855L127.581 231.242ZM152.956 205.221C144.484 213.686 136.046 222.45 127.581 231.242L126.14 229.855C134.603 221.065 143.054 212.288 151.543 203.807L152.956 205.221ZM263.663 134.77C223.587 140.398 188.077 170.132 152.956 205.221L151.543 203.807C186.639 168.742 222.574 138.52 263.385 132.789L263.663 134.77ZM402.67 209.753C348.525 147.423 303.563 129.166 263.663 134.77L263.385 132.789C304.254 127.049 349.834 145.88 404.18 208.441L402.67 209.753ZM540.112 319.505C500.767 305.291 457.032 272.333 402.67 209.753L404.18 208.441C458.453 270.918 501.916 303.579 540.792 317.624L540.112 319.505ZM650.691 316.952C614.36 329.104 579.535 333.747 540.112 319.505L540.792 317.624C579.642 331.659 613.975 327.124 650.057 315.055L650.691 316.952ZM706.411 294.8C686.973 303.11 668.639 310.948 650.691 316.952L650.057 315.055C667.913 309.082 686.17 301.278 705.625 292.961L706.411 294.8ZM937.111 243.098C835.346 239.687 765.618 269.49 706.411 294.8L705.625 292.961C764.865 267.636 834.942 237.672 937.178 241.099L937.111 243.098ZM1051.89 283.701C1037.46 260.971 1004.82 245.368 937.111 243.098L937.178 241.099C1005.02 243.373 1038.58 259.006 1053.58 282.629L1051.89 283.701ZM1062.07 323.147C1061.89 308.427 1059.12 295.088 1051.89 283.701L1053.58 282.629C1061.07 294.432 1063.89 308.177 1064.07 323.122L1062.07 323.147ZM1056.78 370.564C1059.84 353.891 1062.25 337.879 1062.07 323.147L1064.07 323.122C1064.25 338.063 1061.81 354.239 1058.74 370.925L1056.78 370.564ZM1054.13 384.527C1055.04 379.834 1055.93 375.176 1056.78 370.564L1058.74 370.925C1057.9 375.547 1057 380.213 1056.1 384.904L1054.13 384.527ZM1054.13 384.538L1054.13 384.525L1056.1 384.906L1056.09 384.92L1054.13 384.538ZM1054.13 384.566L1054.13 384.55L1056.1 384.908L1056.09 384.924L1054.13 384.566ZM1046.9 472.161C1042.66 444.162 1048.53 413.672 1054.13 384.556L1056.09 384.934C1050.48 414.13 1044.7 444.265 1048.88 471.862L1046.9 472.161ZM1066.66 517.911C1055.28 503.973 1049.38 488.47 1046.9 472.161L1048.88 471.862C1051.31 487.875 1057.09 503.029 1068.21 516.646L1066.66 517.911ZM1118.92 554.111C1094.82 544.126 1078.04 531.841 1066.66 517.911L1068.21 516.646C1079.33 530.266 1095.81 542.375 1119.68 552.263L1118.92 554.111ZM1345.01 578.251C1276.02 588.27 1195.81 585.961 1118.92 554.111L1119.68 552.263C1196.15 583.938 1275.98 586.255 1344.72 576.272L1345.01 578.251ZM1364.93 535.866C1433.67 525.882 1491.29 503.602 1523.31 486.121L1524.27 487.877C1492.04 505.472 1434.19 527.827 1365.21 537.845L1364.93 535.866ZM1139.89 511.857C1216.35 543.532 1296.18 545.849 1364.93 535.866L1365.21 537.845C1296.23 547.864 1216.01 545.555 1139.12 513.705L1139.89 511.857ZM1088.41 476.24C1099.53 489.86 1116.02 501.969 1139.89 511.857L1139.12 513.705C1115.02 503.72 1098.24 491.435 1086.86 477.505L1088.41 476.24ZM1069.09 431.456C1071.51 447.469 1077.29 462.623 1088.41 476.24L1086.86 477.505C1075.48 463.567 1069.58 448.064 1067.11 431.756L1069.09 431.456ZM1076.3 344.528C1070.68 373.724 1064.9 403.859 1069.09 431.456L1067.11 431.756C1062.86 403.756 1068.73 373.266 1074.33 344.15L1076.3 344.528ZM1076.3 344.502L1076.3 344.518L1074.33 344.16L1074.33 344.144L1076.3 344.502ZM1076.3 344.486L1076.3 344.501L1074.33 344.145L1074.33 344.131L1076.3 344.486ZM1078.95 330.519C1078.1 335.141 1077.2 339.806 1076.3 344.497L1074.34 344.12C1075.24 339.427 1076.13 334.77 1076.98 330.158L1078.95 330.519ZM1084.27 282.716C1084.46 297.657 1082.01 313.833 1078.95 330.519L1076.98 330.158C1080.04 313.485 1082.45 297.473 1082.27 282.741L1084.27 282.716ZM1073.78 242.223C1081.27 254.027 1084.09 267.771 1084.27 282.716L1082.27 282.741C1082.09 268.021 1079.32 254.682 1072.09 243.295L1073.78 242.223ZM957.381 200.693C1025.22 202.967 1058.79 218.6 1073.78 242.223L1072.09 243.295C1057.66 220.565 1025.03 204.962 957.314 202.692L957.381 200.693ZM725.828 252.555C785.068 227.23 855.145 197.266 957.381 200.693L957.314 202.692C855.549 199.281 785.821 229.084 726.614 254.394L725.828 252.555ZM670.26 274.649C688.116 268.676 706.373 260.872 725.828 252.555L726.614 254.394C707.176 262.704 688.842 270.542 670.894 276.546L670.26 274.649ZM560.995 277.218C599.845 291.253 634.178 286.719 670.26 274.649L670.894 276.546C634.563 288.698 599.738 293.341 560.315 279.099L560.995 277.218ZM424.383 168.035C478.656 230.512 522.119 263.173 560.995 277.218L560.315 279.099C520.969 264.885 477.235 231.927 422.873 169.347L424.383 168.035ZM283.588 92.3829C324.457 86.6431 370.037 105.474 424.383 168.035L422.873 169.347C368.728 107.017 323.766 88.7599 283.866 94.3635L283.588 92.3829ZM171.746 163.401C206.842 128.336 242.777 98.1145 283.588 92.3829L283.866 94.3635C243.79 99.9919 208.28 129.726 173.159 164.815L171.746 163.401ZM146.343 189.449C154.806 180.659 163.257 171.882 171.746 163.401L173.159 164.815C164.687 173.28 156.249 182.044 147.784 190.836L146.343 189.449ZM64.6163 264.048C93.1509 244.688 119.797 217.019 146.343 189.449L147.784 190.836C121.274 218.369 94.4798 246.204 65.7392 265.703L64.6163 264.048ZM5.22038 289.091C26.1672 285.962 45.7949 276.817 64.6163 264.048L65.7392 265.703C46.7579 278.581 26.8492 287.882 5.51589 291.069L5.22038 289.091ZM-62.1696 278.017C-38.0092 289.342 -15.7194 292.22 5.22038 289.091L5.51589 291.069C-15.8388 294.26 -38.5253 291.309 -63.0185 279.828L-62.1696 278.017ZM-61.2641 278.441L-61.6886 279.347L-63.4995 278.498L-63.0751 277.592L-61.2641 278.441ZM5.36813 290.08C-15.7791 293.24 -38.2672 290.325 -62.594 278.922L-61.7452 277.111C-37.7512 288.358 -15.6597 291.2 5.07261 288.102L5.36813 290.08ZM65.1777 264.875C46.2764 277.699 26.5082 286.922 5.36813 290.08L5.07261 288.102C25.8263 285.002 45.3134 275.935 64.0549 263.22L65.1777 264.875ZM147.005 190.201C120.513 217.715 93.8234 245.441 65.1777 264.875L64.0549 263.22C92.4944 243.925 119.036 216.366 145.564 188.814L147.005 190.201ZM147.038 190.166L147.037 190.166L145.532 188.849L145.532 188.849L147.038 190.166ZM172.453 164.108C163.945 172.608 155.484 181.395 147.005 190.201L145.565 188.814C154.041 180.01 162.515 171.209 171.039 162.693L172.453 164.108ZM283.727 93.3733C243.284 99.0532 207.561 129.031 172.453 164.108L171.039 162.693C206.123 127.64 242.271 97.1758 283.449 91.3927L283.727 93.3733ZM423.628 168.691C369.382 106.246 324.111 87.7015 283.727 93.3733L283.449 91.3927C324.803 85.5847 370.691 104.703 425.138 167.379L423.628 168.691ZM560.655 278.158C521.544 264.029 477.945 231.22 423.628 168.691L425.138 167.379C479.366 229.805 522.694 262.318 561.335 276.277L560.655 278.158ZM670.577 275.597C634.37 287.708 599.792 292.297 560.655 278.158L561.335 276.277C599.899 290.209 633.985 285.729 669.943 273.701L670.577 275.597ZM726.092 253.523C706.695 261.815 688.424 269.627 670.577 275.597L669.943 273.701C687.699 267.761 705.892 259.984 725.306 251.684L726.092 253.523ZM726.051 253.539L726.05 253.54L725.348 251.667L725.349 251.667L726.051 253.539ZM957.347 201.693C855.338 198.273 785.327 228.198 726.093 253.523L725.307 251.684C784.574 226.345 854.933 196.259 957.414 199.694L957.347 201.693ZM1072.94 242.759C1058.22 219.583 1025.12 203.964 957.347 201.693L957.414 199.694C1025.32 201.97 1059.35 217.618 1074.62 241.687L1072.94 242.759ZM1083.27 282.728C1083.09 267.896 1080.3 254.354 1072.94 242.759L1074.62 241.687C1082.25 253.699 1085.09 267.645 1085.27 282.704L1083.27 282.728ZM1077.96 330.339C1081.03 313.659 1083.46 297.565 1083.27 282.728L1085.27 282.704C1085.46 297.749 1082.99 314.006 1079.93 330.7L1077.96 330.339ZM1075.32 344.328C1076.22 339.632 1077.11 334.966 1077.96 330.339L1079.93 330.7C1079.08 335.336 1078.18 340.011 1077.28 344.706L1075.32 344.328ZM1075.31 344.368L1075.32 344.331L1077.28 344.703L1077.27 344.739L1075.31 344.368ZM1068.1 431.606C1063.88 403.791 1069.71 373.495 1075.31 344.365L1077.27 344.742C1071.66 373.954 1065.92 403.895 1070.07 431.306L1068.1 431.606ZM1087.64 476.873C1076.39 463.095 1070.55 447.767 1068.1 431.606L1070.07 431.306C1072.48 447.172 1078.2 462.151 1089.19 475.608L1087.64 476.873ZM1139.5 512.781C1115.52 502.845 1098.89 490.647 1087.64 476.873L1089.19 475.608C1100.18 489.072 1116.52 501.093 1140.27 510.933L1139.5 512.781ZM1365.07 536.855C1296.2 546.856 1216.18 544.543 1139.5 512.781L1140.27 510.933C1216.52 542.52 1296.16 544.841 1364.78 534.876L1365.07 536.855ZM1523.79 486.999C1491.67 504.537 1433.93 526.855 1365.07 536.855L1364.78 534.876C1433.41 524.91 1490.92 502.667 1522.83 485.244L1523.79 486.999ZM1522.91 487.478L1522.44 486.6L1524.19 485.642L1524.67 486.52L1522.91 487.478ZM1385.13 495.46C1453.87 485.476 1511.5 463.196 1543.52 445.715L1544.47 447.471C1512.25 465.066 1454.4 487.421 1385.42 497.439L1385.13 495.46ZM1160.09 471.451C1236.55 503.126 1316.39 505.443 1385.13 495.46L1385.42 497.439C1316.43 507.458 1236.21 505.149 1159.32 473.299L1160.09 471.451ZM1108.62 435.834C1119.74 449.454 1136.22 461.563 1160.09 471.451L1159.32 473.299C1135.22 463.314 1118.44 451.029 1107.07 437.099L1108.62 435.834ZM1089.29 391.05C1091.72 407.063 1097.5 422.217 1108.62 435.834L1107.07 437.099C1095.69 423.161 1089.78 407.658 1087.31 391.35L1089.29 391.05ZM1096.5 304.122C1090.89 333.318 1085.11 363.454 1089.29 391.05L1087.31 391.35C1083.07 363.35 1088.94 332.86 1094.53 303.744L1096.5 304.122ZM1096.5 304.098L1096.5 304.112L1094.53 303.754L1094.53 303.74L1096.5 304.098ZM1096.5 304.086L1096.5 304.098L1094.53 303.74L1094.54 303.728L1096.5 304.086ZM1096.5 304.089L1096.5 304.105L1094.54 303.708L1094.54 303.692L1096.5 304.089ZM1099.15 290.113C1098.3 294.73 1097.41 299.392 1096.51 304.079L1094.54 303.702C1095.44 299.013 1096.34 294.36 1097.18 289.752L1099.15 290.113ZM1104.48 242.31C1104.66 257.251 1102.21 273.427 1099.15 290.113L1097.18 289.752C1100.24 273.079 1102.66 257.067 1102.48 242.335L1104.48 242.31ZM1093.98 201.817C1101.47 213.621 1104.29 227.365 1104.48 242.31L1102.48 242.335C1102.29 227.615 1099.52 214.276 1092.29 202.889L1093.98 201.817ZM977.584 160.287C1045.42 162.561 1078.99 178.194 1093.98 201.817L1092.29 202.889C1077.87 180.16 1045.23 164.556 977.517 162.286L977.584 160.287ZM746.031 212.149C805.271 186.824 875.348 156.86 977.584 160.287L977.517 162.286C875.752 158.875 806.024 188.678 746.817 213.988L746.031 212.149ZM690.463 234.243C708.319 228.27 726.576 220.466 746.031 212.149L746.817 213.988C727.379 222.298 709.045 230.136 691.097 236.14L690.463 234.243ZM581.198 236.812C620.048 250.847 654.381 246.313 690.463 234.243L691.097 236.14C654.766 248.292 619.941 252.935 580.518 238.693L581.198 236.812ZM444.586 127.629C498.859 190.107 542.322 222.767 581.198 236.812L580.518 238.693C541.172 224.479 497.438 191.521 443.076 128.941L444.586 127.629ZM303.791 51.9769C344.66 46.2372 390.24 65.0683 444.586 127.629L443.076 128.941C388.931 66.6113 343.969 48.354 304.069 53.9575L303.791 51.9769ZM191.949 122.995C227.045 87.9296 262.98 57.7086 303.791 51.9769L304.069 53.9575C263.993 59.586 228.483 89.3201 193.362 124.409L191.949 122.995ZM166.546 149.043C175.009 140.253 183.46 131.476 191.949 122.995L193.362 124.409C184.89 132.875 176.452 141.638 167.987 150.43L166.546 149.043ZM84.8193 223.642C113.354 204.282 140 176.613 166.546 149.043L167.987 150.43C141.477 177.963 114.683 205.798 85.9422 225.297L84.8193 223.642ZM25.4234 248.685C46.3702 245.556 65.9979 236.411 84.8193 223.642L85.9422 225.297C66.9608 238.175 47.0522 247.476 25.7189 250.663L25.4234 248.685ZM-41.9666 237.611C-17.8062 248.936 4.48363 251.814 25.4234 248.685L25.7189 250.663C4.36424 253.854 -18.3223 250.903 -42.8155 239.422L-41.9666 237.611ZM-41.0611 238.035L-41.4856 238.941L-43.2965 238.092L-42.8721 237.186L-41.0611 238.035ZM25.5711 249.674C4.42393 252.834 -18.0643 249.919 -42.391 238.516L-41.5422 236.705C-17.5482 247.952 4.54332 250.794 25.2756 247.696L25.5711 249.674ZM85.3807 224.469C66.4794 237.293 46.7112 246.516 25.5711 249.674L25.2756 247.696C46.0293 244.596 65.5164 235.529 84.2578 222.814L85.3807 224.469ZM167.208 149.795C140.716 177.309 114.026 205.035 85.3807 224.469L84.2578 222.814C112.697 203.519 139.239 175.96 165.767 148.408L167.208 149.795ZM192.655 123.702C184.148 132.202 175.687 140.989 167.208 149.795L165.767 148.408C174.244 139.604 182.718 130.803 191.242 122.287L192.655 123.702ZM303.93 52.9673C263.487 58.6473 227.764 88.6248 192.655 123.702L191.242 122.287C226.326 87.2342 262.474 56.7698 303.652 50.9867L303.93 52.9673ZM443.831 128.285C389.585 65.8398 344.314 47.2955 303.93 52.9673L303.652 50.9867C345.006 45.1787 390.894 64.2971 445.341 126.973L443.831 128.285ZM580.858 237.752C541.747 223.623 498.148 190.814 443.831 128.285L445.341 126.973C499.569 189.399 542.897 221.912 581.538 235.871L580.858 237.752ZM690.78 235.191C654.573 247.302 619.995 251.891 580.858 237.752L581.538 235.871C620.102 249.803 654.188 245.323 690.146 233.295L690.78 235.191ZM746.295 213.117C726.898 221.41 708.627 229.221 690.78 235.191L690.146 233.295C707.902 227.355 726.095 219.578 745.509 211.278L746.295 213.117ZM746.254 213.133L746.253 213.134L745.551 211.261L745.552 211.261L746.254 213.133ZM977.55 161.287C875.541 157.867 805.53 187.792 746.296 213.117L745.51 211.278C804.777 185.939 875.136 155.853 977.617 159.288L977.55 161.287ZM1093.14 202.353C1078.43 179.177 1045.32 163.558 977.55 161.287L977.617 159.288C1045.52 161.564 1079.55 177.212 1094.83 201.281L1093.14 202.353ZM1103.48 242.322C1103.29 227.49 1100.5 213.948 1093.14 202.353L1094.83 201.281C1102.45 213.293 1105.29 227.239 1105.48 242.298L1103.48 242.322ZM1098.17 289.933C1101.23 273.253 1103.66 257.159 1103.48 242.322L1105.48 242.298C1105.66 257.343 1103.2 273.6 1100.13 290.294L1098.17 289.933ZM1095.52 303.922C1096.42 299.226 1097.32 294.56 1098.17 289.933L1100.13 290.294C1099.28 294.93 1098.38 299.605 1097.48 304.3L1095.52 303.922ZM1095.51 303.962L1095.52 303.925L1097.48 304.297L1097.48 304.333L1095.51 303.962ZM1088.3 391.2C1084.08 363.385 1089.92 333.089 1095.51 303.959L1097.48 304.336C1091.86 333.548 1086.12 363.489 1090.28 390.9L1088.3 391.2ZM1107.84 436.467C1096.59 422.689 1090.75 407.361 1088.3 391.2L1090.28 390.9C1092.68 406.766 1098.4 421.745 1109.39 435.202L1107.84 436.467ZM1159.71 472.375C1135.72 462.439 1119.09 450.241 1107.84 436.467L1109.39 435.202C1120.39 448.666 1136.72 460.687 1160.47 470.527L1159.71 472.375ZM1385.27 496.449C1316.41 506.45 1236.38 504.137 1159.71 472.375L1160.47 470.527C1236.72 502.114 1316.36 504.436 1384.98 494.47L1385.27 496.449ZM1544 446.593C1511.87 464.131 1454.13 486.449 1385.27 496.449L1384.98 494.47C1453.61 484.504 1511.12 462.261 1543.04 444.838L1544 446.593ZM1543.12 447.072L1542.64 446.194L1544.39 445.236L1544.87 446.114L1543.12 447.072Z" fill="#1C3F77" fill-opacity="0.08"/>
</svg>
