<svg width="1440" height="574" viewBox="0 0 1440 574" fill="none" xmlns="http://www.w3.org/2000/svg">
<path d="M1324.66 567.667L1324.73 568.162L1324.66 567.667ZM1483.39 517.811L1483.83 517.571L1484.06 518.01L1483.63 518.25L1483.39 517.811ZM1099.1 543.593L1098.91 544.055L1099.1 543.593ZM1047.23 507.685L1046.85 508.001L1047.23 507.685ZM1027.69 462.418L1028.18 462.343L1027.69 462.418ZM1034.91 375.151L1034.42 375.056L1034.42 375.056L1034.91 375.151ZM1034.91 375.136L1035.4 375.23L1035.4 375.231L1034.91 375.136ZM1037.56 361.151L1038.05 361.241V361.241L1037.56 361.151ZM1042.87 313.54L1042.37 313.546L1042.87 313.54ZM1032.53 273.571L1032.11 273.839L1032.53 273.571ZM916.941 232.505L916.958 232.005L916.941 232.505ZM685.815 284.287L686.012 284.746L685.815 284.287ZM630.171 306.409L630.33 306.884L630.171 306.409ZM520.249 308.97L520.419 308.5L520.249 308.97ZM383.222 199.503L383.599 199.175L383.222 199.503ZM243.321 124.185L243.251 123.69L243.321 124.185ZM132.047 194.92L132.4 195.274L132.047 194.92ZM106.657 220.954L107.017 221.301L106.657 220.954ZM24.7718 295.687L24.491 295.273L24.7718 295.687ZM-35.0378 320.892L-35.1117 320.398L-35.0378 320.892ZM-103 309.734L-103.212 310.187L-103.665 309.975L-103.453 309.522L-103 309.734ZM-102.576 308.829L-103.028 308.616L-102.816 308.164L-102.363 308.376L-102.576 308.829ZM-35.1856 319.903L-35.1117 320.398L-35.1856 319.903ZM24.2103 294.86L24.491 295.273L24.2103 294.86ZM105.879 220.32L106.239 220.666L105.879 220.32ZM131.34 194.213L131.693 194.566L131.34 194.213ZM243.182 123.195L243.252 123.69L243.182 123.195ZM383.977 198.847L383.599 199.175L383.977 198.847ZM520.589 308.03L520.419 308.5L520.589 308.03ZM629.854 305.461L630.012 305.935L629.854 305.461ZM685.293 283.415L685.097 282.956L685.107 282.951L685.118 282.947L685.293 283.415ZM685.294 283.415L685.491 283.875L685.48 283.879L685.47 283.883L685.294 283.415ZM916.975 231.505L916.991 231.005L916.975 231.505ZM1033.37 273.035L1032.95 273.303L1033.37 273.035ZM1043.87 313.528L1044.37 313.522L1043.87 313.528ZM1038.54 361.331L1039.03 361.421L1038.54 361.331ZM1035.89 375.329L1035.4 375.236L1035.4 375.234L1035.89 375.329ZM1035.88 375.366L1036.38 375.458L1036.38 375.46L1035.88 375.366ZM1028.68 462.268L1028.18 462.343L1028.68 462.268ZM1048.01 507.052L1048.4 506.736L1048.01 507.052ZM1099.48 542.669L1099.29 543.131L1099.48 542.669ZM1324.52 566.678L1324.59 567.172L1324.52 566.678ZM1482.91 516.933L1482.67 516.494L1483.11 516.255L1483.35 516.694L1482.91 516.933ZM1503.59 477.405L1504.03 477.165L1504.27 477.604L1503.83 477.844L1503.59 477.405ZM1344.87 527.261L1344.94 527.756L1344.87 527.261ZM1503.11 476.527L1502.87 476.088L1503.31 475.849L1503.55 476.288L1503.11 476.527ZM1344.72 526.272L1344.79 526.767L1344.72 526.272ZM1119.68 502.263L1119.49 502.725L1119.68 502.263ZM1068.21 466.646L1068.6 466.33L1068.21 466.646ZM1048.88 421.862L1048.39 421.937L1048.88 421.862ZM1056.09 334.96L1056.58 335.053L1056.58 335.054L1056.09 334.96ZM1056.09 334.923L1055.6 334.83L1055.6 334.828L1056.09 334.923ZM1058.74 320.925L1059.24 321.015L1058.74 320.925ZM1064.07 273.122L1064.57 273.116L1064.07 273.122ZM1053.58 232.629L1053.15 232.897L1053.58 232.629ZM937.178 191.099L937.194 190.599L937.178 191.099ZM705.497 243.009L705.694 243.469L705.683 243.473L705.673 243.477L705.497 243.009ZM705.496 243.009L705.3 242.55L705.31 242.545L705.321 242.541L705.496 243.009ZM650.057 265.055L650.215 265.529L650.057 265.055ZM540.792 267.624L540.962 267.154L540.792 267.624ZM404.18 158.441L403.802 158.769L404.18 158.441ZM263.385 82.7889L263.454 83.2841L263.385 82.7889ZM151.543 153.807L151.896 154.16L151.543 153.807ZM126.082 179.914L126.442 180.26L126.082 179.914ZM44.4133 254.454L44.1326 254.04L44.4133 254.454ZM-14.9826 279.497L-14.9087 279.992L-14.9826 279.497ZM-82.3726 268.423L-82.8253 268.21L-82.6131 267.758L-82.1604 267.97L-82.3726 268.423ZM-82.797 269.328L-83.0092 269.781L-83.462 269.569L-83.2497 269.116L-82.797 269.328ZM-14.8349 280.486L-14.9087 279.992L-14.8349 280.486ZM44.9747 255.281L45.2555 255.695L44.9747 255.281ZM126.86 180.548L127.22 180.895L126.86 180.548ZM152.25 154.514L152.603 154.868L152.25 154.514ZM263.524 83.7792L263.454 83.2841L263.524 83.7792ZM403.425 159.097L403.047 159.425L403.425 159.097ZM540.452 268.564L540.622 268.094L540.452 268.564ZM650.374 266.003L650.533 266.478L650.374 266.003ZM706.018 243.881L706.215 244.34L706.018 243.881ZM937.144 192.099L937.161 191.599L937.144 192.099ZM1052.73 233.165L1052.31 233.433L1052.73 233.165ZM1063.07 273.134L1062.57 273.14L1063.07 273.134ZM1057.76 320.745L1058.25 320.835V320.835L1057.76 320.745ZM1055.12 334.716L1055.61 334.81L1055.61 334.811L1055.12 334.716ZM1055.11 334.729L1054.62 334.639L1054.62 334.633L1055.11 334.729ZM1055.11 334.745L1055.6 334.834L1055.6 334.839L1055.11 334.745ZM1047.89 422.012L1048.39 421.937L1047.89 422.012ZM1067.44 467.279L1067.05 467.595L1067.44 467.279ZM1119.3 503.187L1119.11 503.649L1119.3 503.187ZM1365.07 486.855L1365.14 487.35L1365.07 486.855ZM1523.79 436.999L1524.23 436.759L1524.47 437.198L1524.03 437.438L1523.79 436.999ZM1139.5 462.781L1139.31 463.243L1139.5 462.781ZM1087.64 426.873L1087.25 427.189L1087.64 426.873ZM1068.1 381.606L1068.59 381.531L1068.1 381.606ZM1075.31 294.339L1075.81 294.428L1075.8 294.433L1075.31 294.339ZM1075.32 294.323L1075.81 294.412L1075.81 294.412L1075.32 294.323ZM1075.32 294.309L1074.83 294.22L1074.83 294.214L1075.32 294.309ZM1077.96 280.339L1078.46 280.429L1077.96 280.339ZM1083.27 232.728L1082.77 232.734L1083.27 232.728ZM1072.94 192.759L1072.51 193.027L1072.94 192.759ZM957.347 151.693L957.364 151.193L957.347 151.693ZM726.221 203.475L726.417 203.934L726.221 203.475ZM670.577 225.597L670.736 226.072L670.577 225.597ZM560.655 228.158L560.825 227.688L560.655 228.158ZM423.628 118.691L423.25 119.019L423.628 118.691ZM283.727 43.3732L283.657 42.8781L283.727 43.3732ZM172.453 114.108L172.806 114.462L172.453 114.108ZM147.063 140.142L147.423 140.489L147.063 140.142ZM65.1777 214.875L65.4585 215.289L65.1777 214.875ZM5.36813 240.08L5.29425 239.586L5.36813 240.08ZM-62.594 228.922L-62.8062 229.375L-63.259 229.163L-63.0468 228.71L-62.594 228.922ZM-62.1696 228.017L-62.6223 227.804L-62.4101 227.352L-61.9574 227.564L-62.1696 228.017ZM5.22037 239.091L5.29425 239.586L5.22037 239.091ZM64.6163 214.048L64.3356 213.634L64.6163 214.048ZM146.285 139.508L146.661 139.837L146.653 139.846L146.645 139.855L146.285 139.508ZM146.285 139.507L145.909 139.178L145.917 139.169L145.925 139.161L146.285 139.507ZM171.746 113.401L172.099 113.754L171.746 113.401ZM283.588 42.383L283.658 42.8781L283.588 42.383ZM424.383 118.035L424.005 118.363L424.383 118.035ZM560.995 227.218L561.165 226.748L560.995 227.218ZM670.26 224.649L670.418 225.123L670.26 224.649ZM725.699 202.603L725.503 202.144L725.513 202.139L725.524 202.135L725.699 202.603ZM725.7 202.603L725.896 203.063L725.886 203.067L725.875 203.071L725.7 202.603ZM957.381 150.693L957.397 150.193L957.381 150.693ZM1073.78 192.223L1073.36 192.491L1073.78 192.223ZM1084.27 232.716L1084.77 232.71L1084.27 232.716ZM1078.95 280.519L1079.44 280.609L1078.95 280.519ZM1076.3 294.517L1075.81 294.424L1075.81 294.423L1076.3 294.517ZM1076.29 294.554L1076.78 294.647L1076.78 294.648L1076.29 294.554ZM1069.09 381.456L1068.59 381.531L1069.09 381.456ZM1088.41 426.24L1088.8 425.924L1088.41 426.24ZM1139.89 461.857L1139.7 462.319L1139.89 461.857ZM1364.93 485.866L1365 486.361L1364.93 485.866ZM1523.31 436.121L1523.07 435.682L1523.51 435.443L1523.75 435.882L1523.31 436.121ZM1385.27 446.449L1385.34 446.944L1385.27 446.449ZM1544 396.593L1544.43 396.354L1544.67 396.792L1544.23 397.032L1544 396.593ZM1159.71 422.375L1159.52 422.837L1159.71 422.375ZM1107.84 386.467L1107.45 386.783L1107.84 386.467ZM1088.3 341.2L1088.79 341.125L1088.3 341.2ZM1095.52 253.933L1096.01 254.022L1096.01 254.027L1095.52 253.933ZM1095.52 253.907L1095.03 253.817L1095.03 253.808L1095.52 253.907ZM1095.52 253.89L1096.02 253.985L1096.01 253.99L1095.52 253.89ZM1098.17 239.933L1098.66 240.023L1098.17 239.933ZM1103.48 192.322L1102.98 192.328L1103.48 192.322ZM1093.14 152.353L1092.72 152.621L1093.14 152.353ZM977.55 111.287L977.567 110.787L977.55 111.287ZM746.424 163.069L746.62 163.528L746.424 163.069ZM690.78 185.191L690.939 185.666L690.78 185.191ZM580.858 187.752L581.028 187.282L580.858 187.752ZM443.831 78.285L443.453 78.6129L443.831 78.285ZM303.93 2.96722L303.86 2.47211L303.93 2.96722ZM192.655 73.702L192.302 73.3483L192.655 73.702ZM167.266 99.7364L167.626 100.083L167.266 99.7364ZM85.3807 174.469L85.6614 174.883L85.3807 174.469ZM25.5711 199.674L25.4972 199.18L25.5711 199.674ZM-42.391 188.516L-42.6033 188.969L-43.056 188.757L-42.8438 188.304L-42.391 188.516ZM-41.9666 187.611L-42.4193 187.398L-42.2071 186.946L-41.7544 187.158L-41.9666 187.611ZM25.4234 198.685L25.4972 199.18L25.4234 198.685ZM84.8193 173.642L84.5386 173.228L84.8193 173.642ZM166.488 99.1017L166.848 99.4485L166.488 99.1017ZM191.949 72.9946L192.302 73.3483L191.949 72.9946ZM303.791 1.97699L303.86 2.47211L303.791 1.97699ZM444.586 77.6292L444.963 77.3013L444.586 77.6292ZM581.198 186.812L581.368 186.342L581.198 186.812ZM690.463 184.243L690.621 184.717L690.463 184.243ZM745.902 162.197L745.706 161.738L745.716 161.733L745.727 161.729L745.902 162.197ZM745.903 162.197L746.099 162.657L746.089 162.661L746.078 162.665L745.903 162.197ZM977.584 110.287L977.6 109.788L977.584 110.287ZM1093.98 151.817L1093.56 152.085L1093.98 151.817ZM1104.48 192.31L1104.98 192.304L1104.48 192.31ZM1099.15 240.113L1099.64 240.203L1099.15 240.113ZM1096.5 254.111L1096.01 254.018L1096.01 254.017L1096.5 254.111ZM1096.49 254.148L1096.99 254.241L1096.98 254.242L1096.49 254.148ZM1089.29 341.05L1088.79 341.125L1089.29 341.05ZM1108.62 385.834L1109 385.518L1108.62 385.834ZM1160.09 421.451L1159.9 421.913L1160.09 421.451ZM1385.13 445.46L1385.2 445.955L1385.13 445.46ZM1543.52 395.715L1543.28 395.276L1543.72 395.037L1543.95 395.476L1543.52 395.715ZM1324.59 567.172C1393.39 557.18 1451.07 534.881 1483.15 517.372L1483.63 518.25C1451.45 535.816 1393.66 558.153 1324.73 568.162L1324.59 567.172ZM1099.29 543.131C1175.86 574.85 1255.79 577.165 1324.59 567.172L1324.73 568.162C1255.81 578.172 1175.69 575.861 1098.91 544.055L1099.29 543.131ZM1047.62 507.368C1058.8 521.065 1075.36 533.219 1099.29 543.131L1098.91 544.055C1074.86 534.094 1058.16 521.853 1046.85 508.001L1047.62 507.368ZM1028.18 462.343C1030.62 478.43 1036.44 493.671 1047.62 507.368L1046.85 508.001C1035.53 494.143 1029.66 478.727 1027.2 462.493L1028.18 462.343ZM1035.4 375.245C1029.79 404.422 1023.99 434.646 1028.18 462.343L1027.2 462.493C1022.97 434.594 1028.82 404.192 1034.42 375.056L1035.4 375.245ZM1035.4 375.231L1035.4 375.246L1034.42 375.056L1034.42 375.04L1035.4 375.231ZM1038.05 361.241C1037.2 365.865 1036.3 370.534 1035.4 375.23L1034.42 375.041C1035.32 370.344 1036.22 365.679 1037.07 361.06L1038.05 361.241ZM1043.37 313.534C1043.55 328.423 1041.11 344.558 1038.05 361.241L1037.07 361.06C1040.13 344.384 1042.55 328.331 1042.37 313.546L1043.37 313.534ZM1032.95 273.303C1040.38 285.002 1043.18 298.645 1043.37 313.534L1042.37 313.546C1042.18 298.77 1039.4 285.33 1032.11 273.839L1032.95 273.303ZM916.958 232.005C984.764 234.278 1018.1 249.903 1032.95 273.303L1032.11 273.839C1017.54 250.886 984.668 235.275 916.924 233.004L916.958 232.005ZM685.618 283.827C744.85 258.506 814.84 228.582 916.958 232.005L916.924 233.004C815.042 229.589 745.227 259.432 686.012 284.746L685.618 283.827ZM630.012 305.935C647.892 299.955 666.168 292.142 685.618 283.827L686.012 284.746C666.569 293.058 648.254 300.888 630.33 306.884L630.012 305.935ZM520.419 308.5C559.412 322.587 593.868 318.025 630.012 305.935L630.33 306.884C594.061 319.015 559.359 323.631 520.079 309.441L520.419 308.5ZM383.599 199.175C437.895 261.678 481.426 294.413 520.419 308.5L520.079 309.441C480.851 295.269 437.184 262.385 382.844 199.831L383.599 199.175ZM243.251 123.69C283.878 117.984 329.304 136.672 383.599 199.175L382.844 199.831C328.649 137.443 283.533 119.043 243.391 124.68L243.251 123.69ZM131.693 194.566C166.796 159.495 202.625 129.396 243.251 123.69L243.391 124.68C203.131 130.335 167.515 160.19 132.4 195.274L131.693 194.566ZM106.297 220.608C114.761 211.817 123.208 203.043 131.693 194.566L132.4 195.274C123.923 203.743 115.482 212.51 107.017 221.301L106.297 220.608ZM24.491 295.273C53.0771 275.879 79.7607 248.168 106.297 220.608L107.017 221.301C80.4991 248.843 53.7416 276.637 25.0525 296.101L24.491 295.273ZM-35.1117 320.398C-14.0683 317.254 5.62965 308.07 24.491 295.273L25.0525 296.101C6.11115 308.952 -13.7273 318.214 -34.964 321.387L-35.1117 320.398ZM-102.788 309.281C-78.5442 320.645 -56.1552 323.542 -35.1117 320.398L-34.964 321.387C-56.2149 324.562 -78.8022 321.629 -103.212 310.187L-102.788 309.281ZM-102.123 309.041L-102.547 309.946L-103.453 309.522L-103.028 308.616L-102.123 309.041ZM-35.1117 320.398C-56.1552 323.542 -78.5442 320.645 -102.788 309.281L-102.363 308.376C-78.2862 319.662 -56.0955 322.522 -35.2595 319.409L-35.1117 320.398ZM24.491 295.273C5.62966 308.07 -14.0683 317.254 -35.1117 320.398L-35.2595 319.409C-14.4092 316.294 5.14817 307.188 23.9296 294.446L24.491 295.273ZM106.239 220.666C79.7377 248.19 53.0852 275.874 24.491 295.273L23.9296 294.446C52.4207 275.116 78.9993 247.515 105.518 219.973L106.239 220.666ZM131.693 194.566C123.181 203.071 114.717 211.861 106.239 220.666L105.518 219.973C113.996 211.168 122.466 202.371 130.986 193.859L131.693 194.566ZM243.252 123.69C202.625 129.396 166.796 159.495 131.693 194.566L130.986 193.859C166.077 158.8 202.118 128.457 243.112 122.7L243.252 123.69ZM383.599 199.175C329.304 136.672 283.878 117.984 243.252 123.69L243.112 122.7C284.224 116.926 329.958 135.901 384.354 198.519L383.599 199.175ZM520.419 308.5C481.426 294.413 437.895 261.678 383.599 199.175L384.354 198.519C438.605 260.971 482.001 293.558 520.759 307.56L520.419 308.5ZM630.012 305.935C593.868 318.025 559.412 322.587 520.419 308.5L520.759 307.56C559.466 321.543 593.675 317.035 629.695 304.987L630.012 305.935ZM685.49 283.875C666.089 292.169 647.837 299.973 630.012 305.935L629.695 304.987C647.474 299.04 665.687 291.254 685.097 282.956L685.49 283.875ZM685.47 283.883L685.469 283.883L685.118 282.947L685.118 282.947L685.47 283.883ZM916.958 232.005C814.831 228.582 744.733 258.547 685.491 283.875L685.097 282.955C744.357 257.62 814.628 227.574 916.991 231.005L916.958 232.005ZM1032.95 273.303C1018.1 249.903 984.764 234.278 916.958 232.005L916.991 231.005C984.861 233.28 1018.66 248.921 1033.8 272.767L1032.95 273.303ZM1043.37 313.534C1043.18 298.645 1040.38 285.002 1032.95 273.303L1033.8 272.767C1041.35 284.675 1044.18 298.52 1044.37 313.522L1043.37 313.534ZM1038.05 361.241C1041.11 344.558 1043.55 328.423 1043.37 313.534L1044.37 313.522C1044.55 328.515 1042.1 344.731 1039.03 361.421L1038.05 361.241ZM1035.4 375.234C1036.3 370.539 1037.2 365.87 1038.05 361.241L1039.03 361.421C1038.18 366.055 1037.28 370.728 1036.38 375.423L1035.4 375.234ZM1035.39 375.273L1035.4 375.236L1036.38 375.422L1036.38 375.458L1035.39 375.273ZM1028.18 462.343C1023.98 434.629 1029.79 404.422 1035.39 375.271L1036.38 375.46C1030.77 404.651 1025 434.681 1029.17 462.193L1028.18 462.343ZM1047.62 507.368C1036.44 493.671 1030.62 478.43 1028.18 462.343L1029.17 462.193C1031.59 478.133 1037.34 493.199 1048.4 506.736L1047.62 507.368ZM1099.29 543.131C1075.36 533.219 1058.81 521.065 1047.62 507.368L1048.4 506.736C1059.45 520.278 1075.86 532.343 1099.67 542.207L1099.29 543.131ZM1324.59 567.172C1255.79 577.165 1175.86 574.85 1099.29 543.131L1099.67 542.207C1176.03 573.838 1255.77 576.157 1324.45 566.183L1324.59 567.172ZM1483.15 517.372C1451.07 534.881 1393.39 557.18 1324.59 567.172L1324.45 566.183C1393.13 556.208 1450.7 533.947 1482.67 516.494L1483.15 517.372ZM1482.95 518.051L1482.47 517.173L1483.35 516.694L1483.83 517.571L1482.95 518.051ZM1503.83 477.844C1471.65 495.41 1413.86 517.747 1344.94 527.756L1344.79 526.767C1413.6 516.774 1471.28 494.475 1503.35 476.966L1503.83 477.844ZM1503.55 476.288L1504.03 477.165L1503.15 477.645L1502.67 476.767L1503.55 476.288ZM1344.65 525.777C1413.34 515.802 1470.9 493.541 1502.87 476.088L1503.35 476.966C1471.28 494.475 1413.6 516.774 1344.79 526.767L1344.65 525.777ZM1119.88 501.801C1196.23 533.432 1275.97 535.751 1344.65 525.777L1344.79 526.767C1275.99 536.759 1196.06 534.444 1119.49 502.725L1119.88 501.801ZM1068.6 466.33C1079.66 479.872 1096.06 491.937 1119.88 501.801L1119.49 502.725C1095.57 492.813 1079.01 480.66 1067.82 466.962L1068.6 466.33ZM1049.38 421.787C1051.79 437.727 1057.54 452.793 1068.6 466.33L1067.82 466.962C1056.64 453.265 1050.83 438.024 1048.39 421.937L1049.38 421.787ZM1056.58 335.054C1050.97 364.245 1045.21 394.275 1049.38 421.787L1048.39 421.937C1044.19 394.223 1050 364.016 1055.6 334.865L1056.58 335.054ZM1056.59 335.016L1056.58 335.053L1055.6 334.867L1055.6 334.83L1056.59 335.016ZM1059.24 321.015C1058.39 325.65 1057.49 330.322 1056.59 335.017L1055.6 334.828C1056.51 330.133 1057.4 325.464 1058.25 320.835L1059.24 321.015ZM1064.57 273.116C1064.75 288.109 1062.3 304.325 1059.24 321.015L1058.25 320.835C1061.31 304.152 1063.75 288.017 1063.57 273.128L1064.57 273.116ZM1054 232.361C1061.56 244.269 1064.38 258.114 1064.57 273.116L1063.57 273.128C1063.39 258.239 1060.58 244.596 1053.15 232.897L1054 232.361ZM937.194 190.599C1005.06 192.874 1038.86 208.515 1054 232.361L1053.15 232.897C1038.3 209.497 1004.97 193.872 937.161 191.599L937.194 190.599ZM705.3 242.549C764.56 217.214 834.831 187.168 937.194 190.599L937.161 191.599C835.034 188.176 764.936 218.141 705.694 243.469L705.3 242.549ZM705.321 242.541L705.321 242.541L705.673 243.477L705.672 243.477L705.321 242.541ZM649.898 264.581C667.677 258.634 685.89 250.848 705.3 242.55L705.693 243.469C686.292 251.763 668.04 259.567 650.215 265.529L649.898 264.581ZM540.962 267.154C579.669 281.137 613.878 276.63 649.898 264.581L650.215 265.529C614.071 277.619 579.615 282.181 540.622 268.094L540.962 267.154ZM404.557 158.113C458.808 220.565 502.204 253.152 540.962 267.154L540.622 268.094C501.629 254.007 458.098 221.272 403.802 158.769L404.557 158.113ZM263.315 82.2938C304.427 76.5199 350.161 95.4947 404.557 158.113L403.802 158.769C349.507 96.266 304.081 77.5783 263.454 83.2841L263.315 82.2938ZM151.189 153.453C186.28 118.394 222.321 88.0511 263.315 82.2938L263.454 83.2841C222.828 88.9898 186.999 119.089 151.896 154.16L151.189 153.453ZM125.721 179.567C134.199 170.762 142.669 161.965 151.189 153.453L151.896 154.16C143.384 162.665 134.92 171.455 126.442 180.26L125.721 179.567ZM44.1326 254.04C72.6237 234.71 99.2022 207.109 125.721 179.567L126.442 180.26C99.9407 207.784 73.2881 235.468 44.694 254.867L44.1326 254.04ZM-15.0565 279.003C5.79376 275.888 25.3512 266.782 44.1326 254.04L44.694 254.867C25.8326 267.664 6.13474 276.848 -14.9087 279.992L-15.0565 279.003ZM-82.1604 267.97C-58.0832 279.256 -35.8925 282.116 -15.0565 279.003L-14.9087 279.992C-35.9522 283.136 -58.3412 280.24 -82.5848 268.875L-82.1604 267.97ZM-83.2497 269.116L-82.8253 268.21L-81.9198 268.635L-82.3443 269.54L-83.2497 269.116ZM-14.761 280.981C-36.0119 284.156 -58.5993 281.223 -83.0092 269.781L-82.5848 268.875C-58.3412 280.24 -35.9522 283.136 -14.9087 279.992L-14.761 280.981ZM45.2555 255.695C26.3141 268.546 6.4757 277.808 -14.761 280.981L-14.9087 279.992C6.13473 276.848 25.8326 267.664 44.694 254.867L45.2555 255.695ZM127.22 180.895C100.702 208.437 73.9446 236.231 45.2555 255.695L44.694 254.867C73.2801 235.473 99.9637 207.762 126.5 180.202L127.22 180.895ZM152.603 154.868C144.126 163.337 135.685 172.104 127.22 180.895L126.5 180.202C134.964 171.411 143.411 162.637 151.896 154.16L152.603 154.868ZM263.594 84.2744C223.334 89.9286 187.718 119.784 152.603 154.868L151.896 154.16C186.999 119.089 222.828 88.9898 263.454 83.2841L263.594 84.2744ZM403.047 159.425C348.852 97.0375 303.736 78.6367 263.594 84.2744L263.454 83.2841C304.081 77.5783 349.507 96.266 403.802 158.769L403.047 159.425ZM540.282 269.035C501.054 254.863 457.387 221.979 403.047 159.425L403.802 158.769C458.098 221.272 501.629 254.007 540.622 268.094L540.282 269.035ZM650.533 266.478C614.264 278.609 579.562 283.225 540.282 269.035L540.622 268.094C579.615 282.181 614.071 277.619 650.215 265.529L650.533 266.478ZM706.215 244.34C686.772 252.652 668.457 260.482 650.533 266.478L650.215 265.529C668.095 259.549 686.371 251.736 705.821 243.421L706.215 244.34ZM937.127 192.598C835.245 189.183 765.43 219.026 706.215 244.34L705.821 243.421C765.053 218.1 835.043 188.176 937.161 191.599L937.127 192.598ZM1052.31 233.433C1037.74 210.48 1004.87 194.869 937.127 192.598L937.161 191.599C1004.97 193.872 1038.3 209.497 1053.15 232.897L1052.31 233.433ZM1062.57 273.14C1062.39 258.365 1059.6 244.924 1052.31 233.433L1053.15 232.897C1060.58 244.596 1063.39 258.239 1063.57 273.128L1062.57 273.14ZM1057.27 320.654C1060.33 303.978 1062.75 287.925 1062.57 273.14L1063.57 273.128C1063.75 288.017 1061.31 304.152 1058.25 320.835L1057.27 320.654ZM1054.62 334.621C1055.53 329.929 1056.42 325.269 1057.27 320.654L1058.25 320.835C1057.4 325.454 1056.51 330.118 1055.61 334.81L1054.62 334.621ZM1054.62 334.633L1054.62 334.62L1055.61 334.811L1055.6 334.824L1054.62 334.633ZM1054.62 334.655L1054.62 334.639L1055.6 334.818L1055.6 334.834L1054.62 334.655ZM1047.4 422.087C1043.17 394.188 1049.02 363.786 1054.62 334.65L1055.6 334.839C1049.99 364.016 1044.19 394.24 1048.39 421.937L1047.4 422.087ZM1067.05 467.595C1055.73 453.737 1049.86 438.322 1047.4 422.087L1048.39 421.937C1050.83 438.024 1056.64 453.265 1067.82 466.962L1067.05 467.595ZM1119.11 503.649C1095.07 493.689 1078.36 481.447 1067.05 467.595L1067.82 466.962C1079.01 480.66 1095.56 492.813 1119.49 502.725L1119.11 503.649ZM1344.94 527.756C1276.01 537.766 1195.89 535.455 1119.11 503.649L1119.49 502.725C1196.06 534.444 1275.99 536.759 1344.79 526.767L1344.94 527.756ZM1365 486.361C1433.8 476.368 1491.48 454.069 1523.55 436.56L1524.03 437.438C1491.86 455.004 1434.06 477.341 1365.14 487.35L1365 486.361ZM1139.7 462.319C1216.27 494.038 1296.19 496.353 1365 486.361L1365.14 487.35C1296.21 497.36 1216.09 495.049 1139.31 463.243L1139.7 462.319ZM1088.03 426.556C1099.21 440.254 1115.77 452.407 1139.7 462.319L1139.31 463.243C1115.27 453.283 1098.56 441.041 1087.25 427.189L1088.03 426.556ZM1068.59 381.531C1071.03 397.618 1076.84 412.859 1088.03 426.556L1087.25 427.189C1075.94 413.331 1070.06 397.916 1067.6 381.681L1068.59 381.531ZM1075.8 294.433C1070.2 323.61 1064.39 353.834 1068.59 381.531L1067.6 381.681C1063.37 353.782 1069.22 323.38 1074.82 294.245L1075.8 294.433ZM1075.81 294.412L1075.81 294.428L1074.82 294.249L1074.82 294.233L1075.81 294.412ZM1075.81 294.397L1075.81 294.412L1074.82 294.234L1074.83 294.22L1075.81 294.397ZM1078.46 280.429C1077.61 285.048 1076.71 289.712 1075.81 294.403L1074.83 294.214C1075.73 289.522 1076.63 284.862 1077.47 280.248L1078.46 280.429ZM1083.77 232.722C1083.96 247.611 1081.52 263.746 1078.46 280.429L1077.47 280.248C1080.53 263.572 1082.95 247.519 1082.77 232.734L1083.77 232.722ZM1073.36 192.491C1080.78 204.19 1083.59 217.833 1083.77 232.722L1082.77 232.734C1082.59 217.959 1079.81 204.518 1072.51 193.027L1073.36 192.491ZM957.364 151.193C1025.17 153.466 1058.51 169.092 1073.36 192.491L1072.51 193.027C1057.94 170.074 1025.07 154.463 957.33 152.192L957.364 151.193ZM726.024 203.015C785.256 177.694 855.246 147.77 957.364 151.193L957.33 152.192C855.448 148.777 785.632 178.62 726.417 203.934L726.024 203.015ZM670.418 225.123C688.298 219.143 706.574 211.33 726.024 203.015L726.417 203.934C706.975 212.246 688.66 220.076 670.736 226.072L670.418 225.123ZM560.825 227.688C599.818 241.775 634.274 237.213 670.418 225.123L670.736 226.072C634.467 238.203 599.765 242.819 560.485 228.629L560.825 227.688ZM424.005 118.363C478.301 180.866 521.832 213.601 560.825 227.688L560.485 228.629C521.257 214.457 477.59 181.573 423.25 119.019L424.005 118.363ZM283.657 42.8781C324.284 37.1724 369.71 55.86 424.005 118.363L423.25 119.019C369.055 56.6315 323.939 38.2307 283.797 43.8683L283.657 42.8781ZM172.099 113.754C207.202 78.6832 243.031 48.5839 283.657 42.8781L283.797 43.8683C243.537 49.5226 207.921 79.3784 172.806 114.462L172.099 113.754ZM146.703 139.796C155.167 131.005 163.614 122.231 172.099 113.754L172.806 114.462C164.329 122.931 155.888 131.698 147.423 140.489L146.703 139.796ZM64.897 214.461C93.4831 195.067 120.167 167.356 146.703 139.796L147.423 140.489C120.905 168.031 94.1476 195.825 65.4585 215.289L64.897 214.461ZM5.29425 239.586C26.3377 236.442 46.0356 227.258 64.897 214.461L65.4585 215.289C46.5171 228.14 26.6787 237.402 5.44202 240.575L5.29425 239.586ZM-62.3818 228.469C-38.1382 239.834 -15.7492 242.73 5.29425 239.586L5.44202 240.575C-15.8089 243.75 -38.3963 240.817 -62.8062 229.375L-62.3818 228.469ZM-61.7169 228.229L-62.1413 229.134L-63.0468 228.71L-62.6223 227.804L-61.7169 228.229ZM5.29425 239.586C-15.7492 242.73 -38.1382 239.834 -62.3818 228.469L-61.9574 227.564C-37.8802 238.85 -15.6895 241.71 5.14648 238.597L5.29425 239.586ZM64.897 214.461C46.0356 227.258 26.3377 236.442 5.29425 239.586L5.14648 238.597C25.9967 235.482 45.5542 226.376 64.3356 213.634L64.897 214.461ZM146.645 139.855C120.144 167.378 93.4911 195.062 64.897 214.461L64.3356 213.634C92.8267 194.304 119.405 166.703 145.924 139.161L146.645 139.855ZM146.661 139.837L146.661 139.837L145.908 139.178L145.909 139.178L146.661 139.837ZM172.099 113.754C163.587 122.258 155.124 131.049 146.645 139.854L145.925 139.161C154.402 130.356 162.872 121.559 171.392 113.047L172.099 113.754ZM283.658 42.8781C243.031 48.5839 207.202 78.6832 172.099 113.754L171.392 113.047C206.483 77.9879 242.524 47.6451 283.518 41.8879L283.658 42.8781ZM424.005 118.363C369.71 55.86 324.284 37.1723 283.658 42.8781L283.518 41.8879C324.63 36.114 370.364 55.0887 424.76 117.707L424.005 118.363ZM560.825 227.688C521.832 213.601 478.301 180.866 424.005 118.363L424.76 117.707C479.011 180.159 522.407 212.746 561.165 226.748L560.825 227.688ZM670.418 225.123C634.274 237.213 599.818 241.775 560.825 227.688L561.165 226.748C599.872 240.731 634.081 236.224 670.101 224.175L670.418 225.123ZM725.896 203.063C706.495 211.358 688.243 219.161 670.418 225.123L670.101 224.175C687.88 218.228 706.093 210.442 725.503 202.144L725.896 203.063ZM725.875 203.071L725.875 203.071L725.524 202.135L725.524 202.135L725.875 203.071ZM957.364 151.193C855.236 147.77 785.139 177.735 725.896 203.063L725.503 202.143C784.762 176.809 855.034 146.762 957.397 150.193L957.364 151.193ZM1073.36 192.491C1058.51 169.092 1025.17 153.466 957.364 151.193L957.397 150.193C1025.27 152.468 1059.07 168.109 1074.2 191.955L1073.36 192.491ZM1083.77 232.722C1083.59 217.833 1080.78 204.19 1073.36 192.491L1074.2 191.955C1081.76 203.863 1084.59 217.708 1084.77 232.71L1083.77 232.722ZM1078.46 280.429C1081.52 263.746 1083.96 247.611 1083.77 232.722L1084.77 232.71C1084.96 247.703 1082.5 263.919 1079.44 280.609L1078.46 280.429ZM1075.81 294.423C1076.71 289.727 1077.61 285.058 1078.46 280.429L1079.44 280.609C1078.59 285.244 1077.69 289.916 1076.79 294.611L1075.81 294.423ZM1075.8 294.461L1075.81 294.424L1076.79 294.61L1076.78 294.647L1075.8 294.461ZM1068.59 381.531C1064.39 353.817 1070.2 323.61 1075.8 294.459L1076.78 294.648C1071.17 323.839 1065.41 353.869 1069.58 381.381L1068.59 381.531ZM1088.03 426.556C1076.84 412.859 1071.03 397.618 1068.59 381.531L1069.58 381.381C1072 397.321 1077.75 412.387 1088.8 425.924L1088.03 426.556ZM1139.7 462.319C1115.77 452.407 1099.21 440.254 1088.03 426.556L1088.8 425.924C1099.86 439.466 1116.27 451.531 1140.08 461.395L1139.7 462.319ZM1365 486.361C1296.19 496.353 1216.27 494.038 1139.7 462.319L1140.08 461.395C1216.44 493.026 1296.17 495.345 1364.85 485.371L1365 486.361ZM1523.55 436.56C1491.48 454.069 1433.8 476.368 1365 486.361L1364.85 485.371C1433.54 475.396 1491.11 453.135 1523.07 435.682L1523.55 436.56ZM1523.35 437.239L1522.87 436.361L1523.75 435.882L1524.23 436.759L1523.35 437.239ZM1385.2 445.955C1454 435.963 1511.68 413.663 1543.76 396.154L1544.23 397.032C1512.06 414.598 1454.27 436.935 1385.34 446.944L1385.2 445.955ZM1159.9 421.913C1236.47 453.632 1316.4 455.947 1385.2 445.955L1385.34 446.944C1316.42 456.954 1236.3 454.643 1159.52 422.837L1159.9 421.913ZM1108.23 386.15C1119.41 399.848 1135.97 412.001 1159.9 421.913L1159.52 422.837C1135.47 412.877 1118.77 400.635 1107.45 386.783L1108.23 386.15ZM1088.79 341.125C1091.23 357.212 1097.04 372.453 1108.23 386.15L1107.45 386.783C1096.14 372.925 1090.27 357.51 1087.81 341.275L1088.79 341.125ZM1096.01 254.027C1090.4 283.204 1084.6 313.428 1088.79 341.125L1087.81 341.275C1083.58 313.376 1089.43 282.974 1095.03 253.839L1096.01 254.027ZM1096.01 254.008L1096.01 254.022L1095.02 253.843L1095.03 253.829L1096.01 254.008ZM1096.01 253.996L1096.01 254.008L1095.03 253.829L1095.03 253.817L1096.01 253.996ZM1096.01 253.99L1096.01 254.006L1095.03 253.808L1095.03 253.791L1096.01 253.99ZM1098.66 240.023C1097.81 244.638 1096.92 249.297 1096.02 253.985L1095.03 253.796C1095.93 249.108 1096.83 244.452 1097.68 239.842L1098.66 240.023ZM1103.98 192.316C1104.16 207.205 1101.72 223.34 1098.66 240.023L1097.68 239.842C1100.74 223.166 1103.16 207.113 1102.98 192.328L1103.98 192.316ZM1093.56 152.085C1100.99 163.784 1103.79 177.427 1103.98 192.316L1102.98 192.328C1102.79 177.553 1100.01 164.112 1092.72 152.621L1093.56 152.085ZM977.567 110.787C1045.37 113.06 1078.71 128.686 1093.56 152.085L1092.72 152.621C1078.15 129.668 1045.28 114.057 977.533 111.786L977.567 110.787ZM746.227 162.609C805.459 137.288 875.449 107.364 977.567 110.787L977.533 111.786C875.651 108.371 805.835 138.214 746.62 163.528L746.227 162.609ZM690.621 184.717C708.501 178.737 726.777 170.924 746.227 162.609L746.62 163.528C727.178 171.84 708.863 179.67 690.939 185.666L690.621 184.717ZM581.028 187.282C620.021 201.369 654.477 196.807 690.621 184.717L690.939 185.666C654.67 197.797 619.968 202.413 580.688 188.223L581.028 187.282ZM444.208 77.9571C498.504 140.46 542.035 173.195 581.028 187.282L580.688 188.223C541.46 174.051 497.793 141.167 443.453 78.6129L444.208 77.9571ZM303.86 2.47211C344.487 -3.23358 389.913 15.454 444.208 77.9571L443.453 78.6129C389.258 16.2255 344.141 -2.17523 304 3.46234L303.86 2.47211ZM192.302 73.3483C227.405 38.2772 263.233 8.17792 303.86 2.47211L304 3.46234C263.74 9.11664 228.124 38.9725 193.009 74.0557L192.302 73.3483ZM166.906 99.3896C175.37 90.5994 183.817 81.8254 192.302 73.3483L193.009 74.0557C184.532 82.5248 176.091 91.2917 167.626 100.083L166.906 99.3896ZM85.1 174.055C113.686 154.661 140.37 126.95 166.906 99.3896L167.626 100.083C141.108 127.625 114.351 155.419 85.6614 174.883L85.1 174.055ZM25.4972 199.18C46.5407 196.036 66.2386 186.852 85.1 174.055L85.6614 174.883C66.7201 187.734 46.8817 196.996 25.645 200.169L25.4972 199.18ZM-42.1788 188.063C-17.9352 199.428 4.45378 202.324 25.4972 199.18L25.645 200.169C4.39409 203.344 -18.1933 200.411 -42.6033 188.969L-42.1788 188.063ZM-41.5139 187.823L-41.9383 188.728L-42.8438 188.304L-42.4193 187.398L-41.5139 187.823ZM25.4972 199.18C4.45378 202.324 -17.9352 199.428 -42.1788 188.063L-41.7544 187.158C-17.6772 198.444 4.51347 201.304 25.3495 198.191L25.4972 199.18ZM85.1 174.055C66.2386 186.852 46.5407 196.036 25.4972 199.18L25.3495 198.191C46.1997 195.076 65.7571 185.97 84.5386 173.228L85.1 174.055ZM166.848 99.4485C140.347 126.972 113.694 154.656 85.1 174.055L84.5386 173.228C113.03 153.898 139.608 126.297 166.127 98.7549L166.848 99.4485ZM192.302 73.3483C183.79 81.8526 175.326 90.6429 166.848 99.4485L166.127 98.7549C174.605 89.9505 183.075 81.1532 191.595 72.6409L192.302 73.3483ZM303.86 2.47211C263.233 8.17792 227.405 38.2772 192.302 73.3483L191.595 72.6409C226.686 37.5818 262.727 7.2392 303.721 1.48187L303.86 2.47211ZM444.208 77.9571C389.913 15.4541 344.487 -3.2337 303.86 2.47211L303.721 1.48187C344.833 -4.29205 390.567 14.6827 444.963 77.3013L444.208 77.9571ZM581.028 187.282C542.035 173.195 498.504 140.46 444.208 77.9571L444.963 77.3013C499.214 139.753 542.61 172.34 581.368 186.342L581.028 187.282ZM690.621 184.717C654.477 196.807 620.021 201.369 581.028 187.282L581.368 186.342C620.075 200.325 654.284 195.818 690.304 183.769L690.621 184.717ZM746.099 162.657C726.698 170.952 708.446 178.755 690.621 184.717L690.304 183.769C708.083 177.822 726.296 170.036 745.706 161.738L746.099 162.657ZM746.078 162.665L746.078 162.665L745.727 161.729L745.727 161.729L746.078 162.665ZM977.567 110.787C875.439 107.364 805.342 137.329 746.099 162.657L745.706 161.737C804.965 136.403 875.237 106.356 977.6 109.788L977.567 110.787ZM1093.56 152.085C1078.71 128.686 1045.37 113.06 977.567 110.787L977.6 109.788C1045.47 112.062 1079.27 127.703 1094.4 151.549L1093.56 152.085ZM1103.98 192.316C1103.79 177.427 1100.99 163.784 1093.56 152.085L1094.4 151.549C1101.96 163.457 1104.79 177.302 1104.98 192.304L1103.98 192.316ZM1098.66 240.023C1101.72 223.34 1104.16 207.205 1103.98 192.316L1104.98 192.304C1105.16 207.297 1102.71 223.513 1099.64 240.203L1098.66 240.023ZM1096.01 254.017C1096.91 249.321 1097.81 244.652 1098.66 240.023L1099.64 240.203C1098.79 244.838 1097.89 249.51 1096.99 254.205L1096.01 254.017ZM1096 254.055L1096.01 254.018L1096.99 254.204L1096.99 254.241L1096 254.055ZM1088.79 341.125C1084.59 313.411 1090.4 283.204 1096 254.053L1096.98 254.242C1091.38 283.433 1085.61 313.463 1089.78 340.975L1088.79 341.125ZM1108.23 386.15C1097.04 372.453 1091.23 357.212 1088.79 341.125L1089.78 340.975C1092.2 356.915 1097.95 371.981 1109 385.518L1108.23 386.15ZM1159.9 421.913C1135.97 412.001 1119.41 399.848 1108.23 386.15L1109 385.518C1120.06 399.06 1136.47 411.125 1160.28 420.989L1159.9 421.913ZM1385.2 445.955C1316.4 455.947 1236.47 453.632 1159.9 421.913L1160.28 420.989C1236.64 452.62 1316.38 454.939 1385.06 444.965L1385.2 445.955ZM1543.76 396.154C1511.68 413.663 1454 435.963 1385.2 445.955L1385.06 444.965C1453.74 434.99 1511.31 412.729 1543.28 395.276L1543.76 396.154ZM1543.56 396.833L1543.08 395.955L1543.95 395.476L1544.43 396.354L1543.56 396.833Z" fill="#1C3F77" fill-opacity="0.08"/>
</svg>
