<svg width="1440" height="503" viewBox="0 0 1440 503" fill="none" xmlns="http://www.w3.org/2000/svg">
<path d="M-39.0868 22.9145L-39.2314 22.4358L-39.0868 22.9145ZM-200.477 102.883L-200.871 103.19L-201.179 102.796L-200.784 102.489L-200.477 102.883ZM205.493 15.1637L205.624 14.6813L205.624 14.6813L205.493 15.1637ZM266.586 47.2549L266.24 47.6156L266.586 47.2549ZM294.683 94.7231L295.163 94.5817L295.163 94.5817L294.683 94.7231ZM300.974 193.154L300.474 193.139L300.475 193.134L300.974 193.154ZM300.974 193.171L301.474 193.185L301.473 193.191L300.974 193.171ZM300.391 209.184L299.891 209.168L300.391 209.184ZM302.362 263.129L302.856 263.052L302.362 263.129ZM319.822 306.173L319.436 306.49L319.822 306.173ZM449.797 334.268L449.743 333.771L449.797 334.268ZM688.166 241.034L687.899 240.612L688.166 241.034ZM743.999 207.819L744.229 208.262L743.999 207.819ZM860.887 188.098L860.779 188.586L860.887 188.098ZM1024.67 289.187L1025 288.816L1024.67 289.187ZM1186.08 351.757L1185.94 351.277L1186.08 351.757ZM1293.5 255.759L1293.1 255.468L1293.5 255.759ZM1316.43 222.815L1316.02 222.532L1316.02 222.532L1316.43 222.815ZM1391.82 126.889L1392.17 127.252L1391.82 126.889ZM1451.6 89.6001L1451.75 90.0781L1451.6 89.6001ZM1525.91 91.6206L1526.06 91.1449L1526.54 91.2987L1526.39 91.7745L1525.91 91.6206ZM1525.6 92.572L1526.08 92.7259L1525.92 93.2016L1525.45 93.0478L1525.6 92.572ZM1451.89 90.5561L1451.75 90.0781L1451.89 90.5561ZM1392.51 127.615L1392.86 127.977L1392.51 127.615ZM1317.3 223.313L1316.88 223.04L1316.89 223.03L1317.3 223.313ZM1317.3 223.314L1317.72 223.586L1317.71 223.597L1317.3 223.314ZM1294.32 256.34L1294.72 256.631L1294.32 256.34ZM1186.36 352.715L1186.22 352.236L1186.36 352.715ZM1024 289.929L1024.33 289.558L1024 289.929ZM860.67 189.074L860.562 189.563L860.67 189.074ZM744.46 208.706L744.229 208.262L744.46 208.706ZM688.825 241.809L689.091 242.232L688.825 241.809ZM449.904 335.263L449.958 335.76L449.904 335.263ZM319.05 306.808L318.663 307.126L319.05 306.808ZM301.374 263.283L300.88 263.36L300.88 263.36L301.374 263.283ZM299.391 209.152L298.891 209.137L299.391 209.152ZM299.974 193.118L299.475 193.098L299.475 193.098L299.974 193.118ZM299.975 193.091L300.475 193.111L300.475 193.111L299.975 193.091ZM293.724 95.006L293.244 95.1475L293.244 95.1474L293.724 95.006ZM265.894 47.9763L266.24 47.6156L265.894 47.9763ZM205.23 16.1286L205.361 15.6462L205.361 15.6462L205.23 16.1286ZM-38.7976 23.8717L-38.6529 24.3503L-38.7976 23.8717ZM-199.863 103.672L-199.555 104.067L-199.95 104.374L-200.257 103.98L-199.863 103.672ZM-215.558 151.06L-215.952 151.367L-216.259 150.973L-215.865 150.666L-215.558 151.06ZM-54.1676 71.0913L-54.3122 70.6127L-54.1676 71.0913ZM-214.943 151.849L-214.636 152.244L-215.031 152.551L-215.338 152.156L-214.943 151.849ZM-53.8784 72.0486L-53.7337 72.5272L-53.8784 72.0486ZM190.149 64.3054L190.28 63.823L190.28 63.823L190.149 64.3054ZM250.813 96.1532L251.159 95.7924L250.813 96.1532ZM278.643 143.183L278.164 143.324L278.643 143.183ZM284.894 241.268L284.395 241.252L284.395 241.249L284.894 241.268ZM284.894 241.296L284.394 241.28L284.394 241.279L284.894 241.296ZM284.893 241.314L285.393 241.33L285.393 241.334L284.893 241.314ZM284.31 257.329L284.81 257.345L284.31 257.329ZM286.293 311.46L285.799 311.537L285.799 311.537L286.293 311.46ZM303.969 354.985L303.583 355.303L303.969 354.985ZM434.824 383.44L434.877 383.937L434.824 383.44ZM673.744 289.986L674.011 290.409L673.744 289.986ZM729.379 256.883L729.149 256.439L729.379 256.883ZM845.59 237.251L845.481 237.739L845.59 237.251ZM1008.91 338.106L1008.58 338.477L1008.91 338.106ZM1171.28 400.892L1171.14 400.413L1171.28 400.892ZM1279.24 304.517L1279.64 304.808L1279.24 304.517ZM1302.22 271.49L1301.81 271.207L1301.81 271.198L1301.82 271.19L1302.22 271.49ZM1302.22 271.489L1302.63 271.772L1302.63 271.781L1302.62 271.789L1302.22 271.489ZM1377.43 175.791L1377.78 176.154L1377.43 175.791ZM1436.81 138.733L1436.96 139.211L1436.81 138.733ZM1510.52 140.749L1511 140.903L1510.84 141.378L1510.37 141.225L1510.52 140.749ZM1510.83 139.797L1510.98 139.322L1511.46 139.476L1511.31 139.951L1510.83 139.797ZM1436.52 137.777L1436.67 138.255L1436.52 137.777ZM1376.74 175.066L1376.4 174.704L1376.74 175.066ZM1301.35 270.992L1300.93 270.709L1300.93 270.709L1301.35 270.992ZM1278.42 303.936L1278.83 304.226L1278.42 303.936ZM1171 399.933L1170.85 399.454L1171 399.933ZM1009.59 337.364L1009.25 337.735L1009.59 337.364ZM845.806 236.275L845.698 236.763L845.806 236.275ZM728.918 255.996L729.149 256.439L728.918 255.996ZM673.085 289.211L672.818 288.788L673.085 289.211ZM434.716 382.445L434.662 381.948L434.716 382.445ZM304.741 354.35L304.355 354.667L304.741 354.35ZM287.281 311.306L287.775 311.229L287.281 311.306ZM285.31 257.36L284.81 257.345L285.31 257.36ZM285.892 241.363L285.393 241.343L285.393 241.337L285.892 241.363ZM285.893 241.348L286.393 241.362L286.392 241.373L285.893 241.348ZM285.893 241.331L285.394 241.316L285.394 241.311L285.893 241.331ZM279.602 142.9L280.082 142.759L279.602 142.9ZM251.506 95.4317L251.159 95.7924L251.506 95.4317ZM190.412 63.3406L190.543 62.8581L190.543 62.8581L190.412 63.3406ZM-69.248 119.269L-69.3927 118.79L-69.248 119.269ZM-230.638 199.237L-231.033 199.545L-231.34 199.15L-230.945 198.843L-230.638 199.237ZM175.331 111.518L175.463 111.035L175.463 111.035L175.331 111.518ZM236.425 143.609L236.079 143.97L236.425 143.609ZM264.522 191.077L265.001 190.936L264.522 191.077ZM270.813 289.508L270.313 289.493L270.313 289.488L270.813 289.508ZM270.813 289.525L271.312 289.54L271.312 289.551L270.813 289.525ZM270.812 289.54L270.312 289.521L270.312 289.515L270.812 289.54ZM270.806 289.686L270.306 289.666L270.306 289.666L270.806 289.686ZM270.229 305.538L270.729 305.553L270.229 305.538ZM272.201 359.483L272.695 359.406L272.201 359.483ZM289.66 402.527L289.274 402.844L289.66 402.527ZM419.636 430.623L419.582 430.126L419.636 430.623ZM658.005 337.388L657.738 336.966L658.005 337.388ZM713.837 304.173L714.068 304.617L713.837 304.173ZM830.726 284.452L830.618 284.94L830.726 284.452ZM994.505 385.541L994.17 385.912L994.505 385.541ZM1155.92 448.111L1155.77 447.631L1155.92 448.111ZM1263.34 352.113L1263.75 352.404L1263.34 352.113ZM1286.27 319.169L1285.85 318.886L1285.86 318.878L1285.87 318.87L1286.27 319.169ZM1286.27 319.169L1286.68 319.452L1286.67 319.461L1286.67 319.469L1286.27 319.169ZM1361.66 223.244L1361.32 222.881L1361.66 223.244ZM1421.44 185.954L1421.59 186.432L1421.44 185.954ZM1495.75 187.975L1495.9 187.499L1496.38 187.653L1496.22 188.129L1495.75 187.975ZM1495.44 188.926L1495.92 189.08L1495.76 189.556L1495.29 189.402L1495.44 188.926ZM1421.73 186.91L1421.59 186.432L1421.73 186.91ZM1362.35 223.969L1362.7 224.331L1362.35 223.969ZM1287.14 319.667L1287.55 319.95L1287.55 319.958L1287.54 319.966L1287.14 319.667ZM1287.14 319.667L1286.72 319.387L1286.73 319.377L1286.74 319.367L1287.14 319.667ZM1287.14 319.669L1287.55 319.949L1287.55 319.952L1287.14 319.669ZM1264.16 352.695L1263.75 352.404L1264.16 352.695ZM1156.2 449.069L1156.06 448.59L1156.2 449.069ZM993.834 386.283L993.499 386.654L993.834 386.283ZM830.509 285.429L830.401 285.917L830.509 285.429ZM714.299 305.06L714.068 304.617L714.299 305.06ZM658.663 338.163L658.93 338.586L658.663 338.163ZM419.743 431.617L419.797 432.114L419.743 431.617ZM288.888 403.162L288.502 403.48L288.888 403.162ZM271.212 359.637L270.718 359.714L270.718 359.714L271.212 359.637ZM269.23 305.507L269.73 305.522L269.23 305.507ZM269.812 289.509L270.312 289.524L270.312 289.528L269.812 289.509ZM269.812 289.492L269.313 289.476L269.313 289.476L269.812 289.492ZM269.813 289.473L269.313 289.457L269.313 289.456L269.813 289.473ZM269.814 289.446L269.314 289.429L269.314 289.426L269.814 289.446ZM263.563 191.36L263.083 191.502L263.563 191.36ZM235.733 144.33L236.079 143.97L235.733 144.33ZM175.069 112.483L175.2 112L175.2 112L175.069 112.483ZM-68.9588 120.226L-69.1035 119.747L-68.9588 120.226ZM-230.024 200.027L-229.717 200.421L-230.111 200.728L-230.418 200.334L-230.024 200.027ZM-84.3287 167.445L-84.4734 166.967L-84.3287 167.445ZM-245.719 247.414L-246.113 247.721L-246.42 247.327L-246.026 247.019L-245.719 247.414ZM160.251 159.694L160.382 159.212L160.382 159.212L160.251 159.694ZM221.344 191.786L220.998 192.146L221.344 191.786ZM249.441 239.254L249.921 239.112L249.441 239.254ZM255.732 337.685L255.232 337.67L255.233 337.665L255.732 337.685ZM255.732 337.702L256.232 337.716L256.231 337.727L255.732 337.702ZM255.731 337.717L255.231 337.697L255.232 337.691L255.731 337.717ZM255.725 337.862L255.226 337.843L255.226 337.843L255.725 337.862ZM255.149 353.714L255.648 353.73L255.149 353.714ZM257.12 407.66L257.614 407.583L257.12 407.66ZM274.58 450.703L274.194 451.021L274.58 450.703ZM404.555 478.799L404.501 478.302L404.555 478.799ZM642.924 385.565L642.657 385.142L642.924 385.565ZM698.757 352.349L698.526 351.906L698.757 352.349ZM815.645 332.629L815.537 333.117L815.645 332.629ZM979.424 433.717L979.759 433.346L979.424 433.717ZM1140.84 496.287L1140.69 495.808L1140.84 496.287ZM1248.26 400.289L1248.67 400.58L1248.67 400.58L1248.26 400.289ZM1271.19 367.346L1270.77 367.063L1271.19 367.346ZM1346.58 271.42L1346.24 271.058L1346.58 271.42ZM1406.36 234.131L1406.51 234.609L1406.36 234.131ZM1480.67 236.151L1480.82 235.676L1481.3 235.829L1481.14 236.305L1480.67 236.151ZM1480.36 237.103L1480.84 237.257L1480.68 237.732L1480.21 237.578L1480.36 237.103ZM1406.65 235.087L1406.8 235.565L1406.65 235.087ZM1347.27 272.145L1347.61 272.508L1347.27 272.145ZM1272.06 367.843L1271.65 367.56L1272.06 367.843ZM1249.08 400.871L1249.48 401.162L1249.48 401.162L1249.08 400.871ZM1141.12 497.246L1140.98 496.767L1141.12 497.246ZM978.754 434.46L978.418 434.831L978.754 434.46ZM815.428 333.605L815.32 334.093L815.428 333.605ZM699.218 353.237L699.448 353.681L699.218 353.237ZM643.583 386.34L643.849 386.763L643.583 386.34ZM404.662 479.793L404.716 480.29L404.662 479.793ZM273.808 451.339L273.421 451.656L273.808 451.339ZM256.132 407.814L255.638 407.891L255.638 407.891L256.132 407.814ZM254.149 353.683L254.649 353.699L254.149 353.683ZM254.731 337.696L255.231 337.712L255.23 337.715L254.731 337.696ZM254.732 337.675L254.232 337.659L254.232 337.659L254.732 337.675ZM254.732 337.652L254.233 337.635L254.233 337.635L254.732 337.652ZM254.733 337.622L254.234 337.606L254.234 337.603L254.733 337.622ZM248.482 239.537L248.002 239.678L248.482 239.537ZM220.652 192.507L220.998 192.146L220.652 192.507ZM159.988 160.659L160.119 160.177L160.119 160.177L159.988 160.659ZM-84.0395 168.402L-83.8949 168.881L-84.0395 168.402ZM-245.104 248.203L-244.797 248.598L-245.192 248.905L-245.499 248.51L-245.104 248.203ZM-38.9421 23.3931C-110.769 45.0968 -168.75 78.8236 -200.17 103.278L-200.784 102.489C-169.267 77.9595 -111.177 44.1755 -39.2314 22.4358L-38.9421 23.3931ZM205.361 15.6462C118.557 -7.99143 32.8845 1.68935 -38.9421 23.3931L-39.2314 22.4358C32.7196 0.694505 118.59 -9.01885 205.624 14.6813L205.361 15.6462ZM266.24 47.6156C252.107 34.051 232.487 23.0329 205.361 15.6462L205.624 14.6813C232.877 22.1026 252.655 33.1912 266.933 46.8941L266.24 47.6156ZM294.204 94.8646C289.021 77.2915 280.373 61.1802 266.24 47.6156L266.933 46.8941C281.213 60.5998 289.94 76.8726 295.163 94.5817L294.204 94.8646ZM300.475 193.134C301.78 159.727 303.127 125.12 294.204 94.8646L295.163 94.5817C304.141 125.025 302.777 159.805 301.474 193.173L300.475 193.134ZM300.474 193.157L300.474 193.139L301.474 193.168L301.474 193.185L300.474 193.157ZM299.891 209.168C300.055 203.878 300.264 198.53 300.474 193.151L301.473 193.191C301.263 198.57 301.054 203.914 300.89 209.199L299.891 209.168ZM301.868 263.206C299.284 246.624 299.299 228.25 299.891 209.168L300.89 209.199C300.298 228.274 300.287 246.569 302.856 263.052L301.868 263.206ZM319.436 306.49C309.634 294.578 304.451 279.788 301.868 263.206L302.856 263.052C305.423 279.529 310.558 294.127 320.208 305.855L319.436 306.49ZM449.851 334.766C377.121 342.634 339.039 330.316 319.436 306.49L320.208 305.855C339.473 329.269 377.091 341.631 449.743 333.771L449.851 334.766ZM688.433 241.457C629.281 278.793 559.383 322.916 449.851 334.766L449.743 333.771C559.03 321.949 628.762 277.939 687.899 240.612L688.433 241.457ZM744.229 208.262C726.108 217.677 707.857 229.197 688.433 241.457L687.899 240.612C707.315 228.356 725.603 216.813 743.768 207.375L744.229 208.262ZM860.779 188.586C816.905 178.854 780.864 189.229 744.229 208.262L743.768 207.375C780.524 188.279 816.811 177.809 860.995 187.61L860.779 188.586ZM1024.33 289.558C956.361 228.16 904.653 198.319 860.779 188.586L860.995 187.61C905.12 197.398 956.983 227.374 1025 288.816L1024.33 289.558ZM1186.22 352.236C1143.78 364.835 1092.3 350.956 1024.33 289.558L1025 288.816C1092.86 350.118 1143.99 363.73 1185.94 351.277L1186.22 352.236ZM1293.91 256.05C1262.07 300.561 1228.66 339.637 1186.22 352.236L1185.94 351.277C1228.01 338.788 1261.25 299.999 1293.1 255.468L1293.91 256.05ZM1316.84 223.098C1309.22 234.204 1301.61 245.289 1293.91 256.05L1293.1 255.468C1300.79 244.717 1308.39 233.64 1316.02 222.532L1316.84 223.098ZM1392.17 127.252C1364.77 153.275 1340.74 188.281 1316.84 223.098L1316.02 222.532C1339.9 187.738 1363.99 152.636 1391.48 126.527L1392.17 127.252ZM1451.75 90.0781C1429.79 96.8141 1410.24 110.082 1392.17 127.252L1391.48 126.527C1409.63 109.29 1429.31 95.9178 1451.45 89.1221L1451.75 90.0781ZM1525.76 92.0963C1498.06 83.138 1473.7 83.3421 1451.75 90.0781L1451.45 89.1221C1473.62 82.3215 1498.19 82.1282 1526.06 91.1449L1525.76 92.0963ZM1525.13 92.4182L1525.43 91.4667L1526.39 91.7745L1526.08 92.7259L1525.13 92.4182ZM1451.75 90.0781C1473.7 83.342 1498.06 83.1381 1525.76 92.0963L1525.45 93.0478C1497.93 84.1479 1473.78 84.3626 1452.04 91.0341L1451.75 90.0781ZM1392.17 127.252C1410.24 110.082 1429.79 96.8141 1451.75 90.0781L1452.04 91.0341C1430.28 97.7105 1410.86 110.874 1392.86 127.977L1392.17 127.252ZM1316.89 223.03C1340.76 188.257 1364.76 153.282 1392.17 127.252L1392.86 127.977C1365.54 153.92 1341.6 188.8 1317.71 223.596L1316.89 223.03ZM1316.88 223.041L1316.88 223.04L1317.72 223.585L1317.72 223.586L1316.88 223.041ZM1293.91 256.05C1301.63 245.258 1309.25 234.154 1316.89 223.031L1317.71 223.597C1310.08 234.718 1302.45 245.83 1294.72 256.631L1293.91 256.05ZM1186.22 352.236C1228.66 339.637 1262.07 300.561 1293.91 256.05L1294.72 256.631C1262.9 301.123 1229.31 340.487 1186.5 353.195L1186.22 352.236ZM1024.33 289.558C1092.3 350.956 1143.78 364.835 1186.22 352.236L1186.5 353.195C1143.57 365.94 1091.74 351.794 1023.66 290.3L1024.33 289.558ZM860.779 188.586C904.653 198.319 956.361 228.16 1024.33 289.558L1023.66 290.3C955.738 228.945 904.186 199.24 860.562 189.563L860.779 188.586ZM744.229 208.262C780.864 189.229 816.905 178.854 860.779 188.586L860.562 189.563C816.998 179.899 781.205 190.179 744.69 209.15L744.229 208.262ZM688.558 241.386C707.934 229.156 726.162 217.649 744.229 208.262L744.69 209.15C726.667 218.514 708.476 229.996 689.091 242.232L688.558 241.386ZM449.851 334.766C559.392 322.915 629.394 278.732 688.558 241.386L689.091 242.232C629.913 279.587 559.745 323.883 449.958 335.76L449.851 334.766ZM319.436 306.49C339.039 330.316 377.121 342.633 449.851 334.766L449.958 335.76C377.152 343.636 338.606 331.363 318.663 307.126L319.436 306.49ZM301.868 263.206C304.451 279.788 309.634 294.578 319.436 306.49L318.663 307.126C308.709 295.028 303.48 280.047 300.88 263.36L301.868 263.206ZM299.891 209.168C299.299 228.25 299.284 246.624 301.868 263.206L300.88 263.36C298.281 246.679 298.299 228.226 298.891 209.137L299.891 209.168ZM300.474 193.137C300.264 198.519 300.055 203.869 299.891 209.168L298.891 209.137C299.056 203.834 299.265 198.479 299.475 193.098L300.474 193.137ZM300.475 193.111L300.474 193.138L299.475 193.098L299.476 193.072L300.475 193.111ZM294.203 94.8646C303.131 125.136 301.777 159.729 300.475 193.111L299.476 193.072C300.779 159.65 302.117 125.232 293.244 95.1475L294.203 94.8646ZM266.24 47.6156C280.373 61.1802 289.021 77.2915 294.203 94.8646L293.244 95.1474C288.102 77.7104 279.534 61.7607 265.548 48.3371L266.24 47.6156ZM205.361 15.6462C232.487 23.0329 252.107 34.051 266.24 47.6156L265.548 48.3371C251.558 34.9108 232.098 23.9633 205.098 16.611L205.361 15.6462ZM-38.9422 23.3931C32.8845 1.68934 118.557 -7.99145 205.361 15.6462L205.098 16.611C118.524 -6.96403 33.0493 2.68419 -38.6529 24.3503L-38.9422 23.3931ZM-200.17 103.278C-168.75 78.8236 -110.769 45.0969 -38.9422 23.3931L-38.6529 24.3503C-110.361 46.0182 -168.232 79.6876 -199.555 104.067L-200.17 103.278ZM-200.082 102.576L-199.468 103.365L-200.257 103.98L-200.871 103.19L-200.082 102.576ZM-215.865 150.666C-184.348 126.136 -126.258 92.3523 -54.3122 70.6127L-54.0229 71.5699C-125.85 93.2737 -183.83 127 -215.251 151.455L-215.865 150.666ZM-215.338 152.156L-215.952 151.367L-215.163 150.753L-214.549 151.542L-215.338 152.156ZM-53.7337 72.5272C-125.442 94.1951 -183.312 127.864 -214.636 152.244L-215.25 151.455C-183.83 127 -125.85 93.2737 -54.023 71.5699L-53.7337 72.5272ZM190.018 64.7879C103.443 41.2128 17.9685 50.861 -53.7337 72.5272L-54.023 71.5699C17.8037 49.8662 103.476 40.1854 190.28 63.823L190.018 64.7879ZM250.467 96.5139C236.478 83.0876 217.017 72.1401 190.018 64.7879L190.28 63.823C217.407 71.2098 237.026 82.2278 251.159 95.7924L250.467 96.5139ZM278.164 143.324C273.021 125.887 264.453 109.938 250.467 96.5139L251.159 95.7924C265.293 109.357 273.94 125.468 279.123 143.041L278.164 143.324ZM284.395 241.249C285.699 207.827 287.036 173.409 278.164 143.324L279.123 143.041C288.051 173.313 286.696 207.906 285.394 241.288L284.395 241.249ZM284.394 241.279L284.395 241.252L285.394 241.285L285.393 241.312L284.394 241.279ZM284.393 241.299L284.394 241.28L285.393 241.311L285.393 241.33L284.393 241.299ZM283.811 257.314C283.975 252.017 284.184 246.669 284.393 241.295L285.393 241.334C285.183 246.709 284.974 252.053 284.81 257.345L283.811 257.314ZM285.799 311.537C283.2 294.856 283.218 276.402 283.811 257.314L284.81 257.345C284.218 276.427 284.203 294.801 286.787 311.383L285.799 311.537ZM303.583 355.303C293.628 343.205 288.399 328.224 285.799 311.537L286.787 311.383C289.371 327.965 294.553 342.754 304.355 354.667L303.583 355.303ZM434.877 383.937C362.071 391.813 323.525 379.54 303.583 355.303L304.355 354.667C323.959 378.493 362.041 390.81 434.77 382.942L434.877 383.937ZM674.011 290.409C614.833 327.764 544.664 372.06 434.877 383.937L434.77 382.942C544.312 371.092 614.313 326.909 673.477 289.563L674.011 290.409ZM729.61 257.327C711.586 266.691 693.395 278.173 674.011 290.409L673.477 289.563C692.853 277.332 711.081 265.826 729.149 256.439L729.61 257.327ZM845.481 237.739C801.917 228.075 766.124 238.356 729.61 257.327L729.149 256.439C765.784 237.406 801.824 227.03 845.698 236.763L845.481 237.739ZM1008.58 338.477C940.657 277.122 889.105 247.417 845.481 237.739L845.698 236.763C889.572 246.496 941.28 276.336 1009.25 337.735L1008.58 338.477ZM1171.42 401.371C1128.49 414.116 1076.66 399.971 1008.58 338.477L1009.25 337.735C1077.22 399.133 1128.7 413.012 1171.14 400.413L1171.42 401.371ZM1279.64 304.808C1247.82 349.3 1214.23 388.664 1171.42 401.371L1171.14 400.413C1213.58 387.814 1246.99 348.738 1278.83 304.226L1279.64 304.808ZM1302.63 271.773C1295 282.895 1287.37 294.007 1279.64 304.808L1278.83 304.226C1286.55 293.434 1294.17 282.33 1301.81 271.207L1302.63 271.773ZM1302.62 271.789L1302.62 271.789L1301.82 271.19L1301.82 271.19L1302.62 271.789ZM1377.78 176.154C1350.46 202.097 1326.52 236.977 1302.63 271.772L1301.81 271.206C1325.68 236.433 1349.68 201.458 1377.09 175.429L1377.78 176.154ZM1436.96 139.211C1415.2 145.887 1395.78 159.051 1377.78 176.154L1377.09 175.429C1395.16 158.259 1414.71 144.991 1436.67 138.255L1436.96 139.211ZM1510.37 141.225C1482.85 132.325 1458.7 132.539 1436.96 139.211L1436.67 138.255C1458.62 131.519 1482.98 131.315 1510.68 140.273L1510.37 141.225ZM1511.31 139.951L1511 140.903L1510.05 140.595L1510.35 139.644L1511.31 139.951ZM1436.37 137.299C1458.54 130.498 1483.11 130.305 1510.98 139.322L1510.68 140.273C1482.98 131.315 1458.62 131.519 1436.67 138.255L1436.37 137.299ZM1376.4 174.704C1394.55 157.467 1414.23 144.095 1436.37 137.299L1436.67 138.255C1414.71 144.991 1395.16 158.259 1377.09 175.429L1376.4 174.704ZM1300.93 270.709C1324.82 235.914 1348.91 200.813 1376.4 174.704L1377.09 175.429C1349.69 201.451 1325.66 236.458 1301.76 271.275L1300.93 270.709ZM1278.02 303.645C1285.71 292.893 1293.31 281.816 1300.93 270.709L1301.76 271.275C1294.14 282.381 1286.53 293.466 1278.83 304.226L1278.02 303.645ZM1170.85 399.454C1212.93 386.964 1246.16 348.176 1278.02 303.645L1278.83 304.226C1246.99 348.738 1213.58 387.814 1171.14 400.413L1170.85 399.454ZM1009.92 336.993C1077.78 398.295 1128.9 411.907 1170.85 399.454L1171.14 400.413C1128.7 413.012 1077.22 399.133 1009.25 337.735L1009.92 336.993ZM845.915 235.787C890.039 245.575 941.902 275.551 1009.92 336.993L1009.25 337.735C941.28 276.336 889.572 246.496 845.698 236.763L845.915 235.787ZM728.687 255.552C765.443 236.456 801.73 225.985 845.915 235.787L845.698 236.763C801.824 227.03 765.784 237.406 729.149 256.439L728.687 255.552ZM672.818 288.788C692.234 276.533 710.522 264.99 728.687 255.552L729.149 256.439C711.027 265.854 692.776 277.374 673.352 289.634L672.818 288.788ZM434.662 381.948C543.95 370.125 613.681 326.115 672.818 288.788L673.352 289.634C614.2 326.97 544.302 371.093 434.77 382.942L434.662 381.948ZM305.127 354.032C324.392 377.446 362.01 389.808 434.662 381.948L434.77 382.942C362.041 390.81 323.959 378.493 304.355 354.667L305.127 354.032ZM287.775 311.229C290.342 327.705 295.478 342.304 305.127 354.032L304.355 354.667C294.553 342.754 289.371 327.965 286.787 311.383L287.775 311.229ZM285.81 257.376C285.218 276.451 285.207 294.745 287.775 311.229L286.787 311.383C284.203 294.801 284.218 276.427 284.81 257.345L285.81 257.376ZM286.392 241.382C286.182 246.757 285.973 252.095 285.81 257.376L284.81 257.345C284.974 252.06 285.183 246.717 285.393 241.343L286.392 241.382ZM286.392 241.373L286.392 241.389L285.393 241.337L285.394 241.322L286.392 241.373ZM286.393 241.345L286.393 241.363L285.393 241.333L285.394 241.316L286.393 241.345ZM280.082 142.759C289.06 173.202 287.697 207.982 286.393 241.35L285.394 241.311C286.699 207.904 288.046 173.297 279.123 143.041L280.082 142.759ZM251.852 95.071C266.132 108.777 274.859 125.049 280.082 142.759L279.123 143.041C273.94 125.468 265.293 109.357 251.159 95.7924L251.852 95.071ZM190.543 62.8581C217.796 70.2794 237.574 81.368 251.852 95.071L251.159 95.7924C237.026 82.2278 217.407 71.2098 190.28 63.823L190.543 62.8581ZM-54.3122 70.6127C17.6388 48.8713 103.509 39.158 190.543 62.8581L190.28 63.823C103.476 40.1854 17.8037 49.8662 -54.0229 71.5699L-54.3122 70.6127ZM-69.1034 119.747C-140.93 141.451 -198.911 175.178 -230.331 199.632L-230.945 198.843C-199.429 174.314 -141.338 140.53 -69.3927 118.79L-69.1034 119.747ZM175.2 112C88.3958 88.3627 2.72319 98.0434 -69.1034 119.747L-69.3927 118.79C2.55834 97.0486 88.4289 87.3353 175.463 111.035L175.2 112ZM236.079 143.97C221.945 130.405 202.326 119.387 175.2 112L175.463 111.035C202.716 118.457 222.494 129.545 236.771 143.248L236.079 143.97ZM264.042 191.219C258.86 173.646 250.212 157.534 236.079 143.97L236.771 143.248C251.051 156.954 259.779 173.227 265.001 190.936L264.042 191.219ZM270.313 289.488C271.618 256.081 272.965 221.475 264.042 191.219L265.001 190.936C273.98 221.379 272.616 256.16 271.313 289.527L270.313 289.488ZM270.313 289.51L270.313 289.493L271.313 289.523L271.312 289.54L270.313 289.51ZM270.312 289.515L270.313 289.5L271.312 289.551L271.311 289.566L270.312 289.515ZM270.306 289.666L270.312 289.521L271.311 289.56L271.306 289.705L270.306 289.666ZM269.73 305.522C269.892 300.285 270.099 294.991 270.306 289.666L271.306 289.705C271.098 295.031 270.891 300.32 270.729 305.553L269.73 305.522ZM271.707 359.56C269.123 342.978 269.137 324.604 269.73 305.522L270.729 305.553C270.137 324.628 270.126 342.923 272.695 359.406L271.707 359.56ZM289.274 402.844C279.472 390.932 274.29 376.142 271.707 359.56L272.695 359.406C275.262 375.883 280.397 390.481 290.047 402.209L289.274 402.844ZM419.689 431.12C346.96 438.988 308.878 426.67 289.274 402.844L290.047 402.209C309.312 425.623 346.929 437.985 419.582 430.126L419.689 431.12ZM658.271 337.811C599.12 375.147 529.221 419.27 419.689 431.12L419.582 430.126C528.869 418.303 598.601 374.293 657.738 336.966L658.271 337.811ZM714.068 304.617C695.947 314.031 677.695 325.551 658.271 337.811L657.738 336.966C677.154 324.71 695.442 313.167 713.607 303.729L714.068 304.617ZM830.618 284.94C786.743 275.208 750.703 285.583 714.068 304.617L713.607 303.729C750.363 284.633 786.65 274.163 830.834 283.964L830.618 284.94ZM994.17 385.912C926.199 324.514 874.492 294.673 830.618 284.94L830.834 283.964C874.958 293.752 926.822 323.728 994.84 385.17L994.17 385.912ZM1156.06 448.59C1113.62 461.189 1062.14 447.31 994.17 385.912L994.84 385.17C1062.7 446.472 1113.82 460.084 1155.77 447.631L1156.06 448.59ZM1263.75 352.404C1231.91 396.915 1198.5 435.991 1156.06 448.59L1155.77 447.631C1197.85 435.142 1231.08 396.353 1262.94 351.822L1263.75 352.404ZM1286.68 319.452C1279.06 330.558 1271.45 341.643 1263.75 352.404L1262.94 351.822C1270.63 341.071 1278.23 329.994 1285.85 318.886L1286.68 319.452ZM1286.67 319.469L1286.67 319.469L1285.87 318.87L1285.87 318.869L1286.67 319.469ZM1362.01 223.606C1334.61 249.629 1310.58 284.635 1286.68 319.452L1285.85 318.886C1309.74 284.092 1333.83 248.99 1361.32 222.881L1362.01 223.606ZM1421.59 186.432C1399.63 193.168 1380.08 206.436 1362.01 223.606L1361.32 222.881C1379.47 205.644 1399.14 192.272 1421.29 185.476L1421.59 186.432ZM1495.6 188.45C1467.9 179.492 1443.54 179.696 1421.59 186.432L1421.29 185.476C1443.46 178.676 1468.03 178.482 1495.9 187.499L1495.6 188.45ZM1494.97 188.772L1495.27 187.821L1496.22 188.129L1495.92 189.08L1494.97 188.772ZM1421.59 186.432C1443.54 179.696 1467.9 179.492 1495.6 188.45L1495.29 189.402C1467.77 180.502 1443.62 180.717 1421.88 187.388L1421.59 186.432ZM1362.01 223.606C1380.08 206.436 1399.63 193.168 1421.59 186.432L1421.88 187.388C1400.12 194.065 1380.7 207.228 1362.7 224.331L1362.01 223.606ZM1286.73 319.384C1310.6 284.611 1334.6 249.636 1362.01 223.606L1362.7 224.331C1335.38 250.274 1311.44 285.154 1287.55 319.95L1286.73 319.384ZM1286.74 319.367L1286.74 319.367L1287.54 319.966L1287.54 319.966L1286.74 319.367ZM1286.72 319.389L1286.72 319.387L1287.55 319.947L1287.55 319.949L1286.72 319.389ZM1263.75 352.404C1271.47 341.612 1279.09 330.509 1286.73 319.386L1287.55 319.952C1279.92 331.074 1272.29 342.185 1264.56 352.986L1263.75 352.404ZM1156.06 448.59C1198.5 435.991 1231.91 396.915 1263.75 352.404L1264.56 352.986C1232.74 397.477 1199.15 436.841 1156.34 449.549L1156.06 448.59ZM994.17 385.912C1062.14 447.31 1113.62 461.189 1156.06 448.59L1156.34 449.549C1113.41 462.294 1061.58 448.148 993.499 386.654L994.17 385.912ZM830.618 284.94C874.492 294.673 926.199 324.514 994.17 385.912L993.499 386.654C925.577 325.299 874.025 295.594 830.401 285.917L830.618 284.94ZM714.068 304.617C750.703 285.583 786.743 275.208 830.618 284.94L830.401 285.917C786.837 276.253 751.043 286.533 714.529 305.504L714.068 304.617ZM658.396 337.741C677.773 325.51 696 314.004 714.068 304.617L714.529 305.504C696.505 314.868 678.314 326.35 658.93 338.586L658.396 337.741ZM419.689 431.12C529.231 419.269 599.233 375.086 658.396 337.741L658.93 338.586C599.752 375.941 529.583 420.237 419.797 432.114L419.689 431.12ZM289.274 402.844C308.878 426.67 346.96 438.988 419.689 431.12L419.797 432.114C346.991 439.99 308.444 427.717 288.502 403.48L289.274 402.844ZM271.707 359.56C274.29 376.142 279.473 390.932 289.274 402.844L288.502 403.48C278.548 391.382 273.319 376.401 270.718 359.714L271.707 359.56ZM269.73 305.522C269.137 324.604 269.123 342.978 271.707 359.56L270.718 359.714C268.119 343.034 268.138 324.58 268.73 305.491L269.73 305.522ZM270.312 289.528C270.102 294.897 269.894 300.235 269.73 305.522L268.73 305.491C268.894 300.2 269.103 294.858 269.312 289.489L270.312 289.528ZM270.312 289.507L270.312 289.524L269.312 289.493L269.313 289.476L270.312 289.507ZM270.313 289.489L270.312 289.508L269.313 289.476L269.313 289.457L270.313 289.489ZM270.314 289.462L270.313 289.489L269.313 289.456L269.314 289.429L270.314 289.462ZM264.042 191.219C272.97 221.49 271.616 256.083 270.314 289.465L269.314 289.426C270.618 256.004 271.956 221.586 263.083 191.502L264.042 191.219ZM236.079 143.97C250.212 157.534 258.86 173.646 264.042 191.219L263.083 191.502C257.941 174.064 249.373 158.115 235.386 144.691L236.079 143.97ZM175.2 112C202.326 119.387 221.945 130.405 236.079 143.97L235.386 144.691C221.397 131.265 201.937 120.317 174.937 112.965L175.2 112ZM-69.1035 119.747C2.72319 98.0435 88.3959 88.3627 175.2 112L174.937 112.965C88.3628 89.3901 2.88804 99.0383 -68.8142 120.704L-69.1035 119.747ZM-230.331 199.632C-198.911 175.178 -140.93 141.451 -69.1035 119.747L-68.8142 120.704C-140.522 142.372 -198.393 176.042 -229.717 200.421L-230.331 199.632ZM-230.244 198.93L-229.629 199.719L-230.418 200.334L-231.033 199.545L-230.244 198.93ZM-84.1841 167.924C-156.011 189.628 -213.991 223.354 -245.412 247.809L-246.026 247.019C-214.509 222.49 -156.419 188.706 -84.4734 166.967L-84.1841 167.924ZM160.119 160.177C73.3151 136.539 -12.3575 146.22 -84.1841 167.924L-84.4734 166.967C-12.5224 145.225 73.3482 135.512 160.382 159.212L160.119 160.177ZM220.998 192.146C206.865 178.582 187.245 167.564 160.119 160.177L160.382 159.212C187.635 166.633 207.413 177.722 221.691 191.425L220.998 192.146ZM248.962 239.395C243.779 221.822 235.132 205.711 220.998 192.146L221.691 191.425C235.971 205.13 244.698 221.403 249.921 239.112L248.962 239.395ZM255.233 337.665C256.538 304.258 257.885 269.651 248.962 239.395L249.921 239.112C258.899 269.555 257.535 304.336 256.232 337.704L255.233 337.665ZM255.232 337.687L255.232 337.67L256.232 337.699L256.232 337.716L255.232 337.687ZM255.232 337.691L255.233 337.676L256.231 337.727L256.23 337.742L255.232 337.691ZM255.226 337.843L255.231 337.697L256.231 337.736L256.225 337.882L255.226 337.843ZM254.649 353.699C254.811 348.461 255.018 343.168 255.226 337.843L256.225 337.882C256.017 343.207 255.811 348.497 255.648 353.73L254.649 353.699ZM256.626 407.737C254.042 391.155 254.057 372.78 254.649 353.699L255.648 353.73C255.056 372.805 255.045 391.099 257.614 407.583L256.626 407.737ZM274.194 451.021C264.392 439.108 259.21 424.319 256.626 407.737L257.614 407.583C260.181 424.059 265.316 438.658 274.966 450.386L274.194 451.021ZM404.609 479.296C331.879 487.164 293.797 474.846 274.194 451.021L274.966 450.386C294.231 473.8 331.849 486.162 404.501 478.302L404.609 479.296ZM643.191 385.988C584.039 423.324 514.141 467.447 404.609 479.296L404.501 478.302C513.788 466.479 583.52 422.469 642.657 385.142L643.191 385.988ZM698.987 352.793C680.866 362.208 662.615 373.728 643.191 385.988L642.657 385.142C662.073 372.887 680.361 361.343 698.526 351.906L698.987 352.793ZM815.537 333.117C771.663 323.384 735.622 333.76 698.987 352.793L698.526 351.906C735.282 332.809 771.569 322.339 815.753 332.141L815.537 333.117ZM979.089 434.088C911.119 372.69 859.411 342.85 815.537 333.117L815.753 332.141C859.878 341.929 911.741 371.905 979.759 433.346L979.089 434.088ZM1140.98 496.767C1098.54 509.365 1047.06 495.487 979.089 434.088L979.759 433.346C1047.62 494.649 1098.74 508.261 1140.69 495.808L1140.98 496.767ZM1248.67 400.58C1216.83 445.092 1183.42 484.168 1140.98 496.767L1140.69 495.808C1182.77 483.318 1216 444.53 1247.86 399.999L1248.67 400.58ZM1271.6 367.629C1263.97 378.735 1256.37 389.82 1248.67 400.58L1247.86 399.999C1255.55 389.247 1263.15 378.17 1270.77 367.063L1271.6 367.629ZM1346.93 271.783C1319.53 297.805 1295.5 332.812 1271.6 367.629L1270.77 367.063C1294.66 332.268 1318.75 297.167 1346.24 271.058L1346.93 271.783ZM1406.51 234.609C1384.55 241.345 1365 254.613 1346.93 271.783L1346.24 271.058C1364.38 253.821 1384.06 240.448 1406.21 233.653L1406.51 234.609ZM1480.51 236.627C1452.82 227.669 1428.46 227.873 1406.51 234.609L1406.21 233.653C1428.38 226.852 1452.95 226.659 1480.82 235.676L1480.51 236.627ZM1479.88 236.949L1480.19 235.997L1481.14 236.305L1480.84 237.257L1479.88 236.949ZM1406.51 234.609C1428.46 227.873 1452.82 227.669 1480.51 236.627L1480.21 237.578C1452.69 228.679 1428.54 228.893 1406.8 235.565L1406.51 234.609ZM1346.93 271.783C1365 254.613 1384.55 241.345 1406.51 234.609L1406.8 235.565C1385.04 242.241 1365.62 255.405 1347.61 272.508L1346.93 271.783ZM1271.65 367.56C1295.52 332.787 1319.52 297.812 1346.93 271.783L1347.61 272.508C1320.3 298.451 1296.36 333.331 1272.47 368.126L1271.65 367.56ZM1248.67 400.58C1256.39 389.788 1264.01 378.684 1271.65 367.56L1272.47 368.126C1264.84 379.249 1257.21 390.361 1249.48 401.162L1248.67 400.58ZM1140.98 496.767C1183.42 484.168 1216.83 445.092 1248.67 400.58L1249.48 401.162C1217.66 445.654 1184.07 485.017 1141.26 497.725L1140.98 496.767ZM979.089 434.088C1047.06 495.487 1098.54 509.365 1140.98 496.767L1141.26 497.725C1098.33 510.47 1046.5 496.325 978.418 434.831L979.089 434.088ZM815.537 333.117C859.411 342.85 911.119 372.69 979.089 434.088L978.418 434.831C910.496 373.476 858.944 343.77 815.32 334.093L815.537 333.117ZM698.987 352.793C735.622 333.76 771.663 323.384 815.537 333.117L815.32 334.093C771.756 324.429 735.963 334.71 699.448 353.681L698.987 352.793ZM643.316 385.917C662.692 373.686 680.92 362.18 698.987 352.793L699.448 353.681C681.425 363.045 663.234 374.527 643.849 386.763L643.316 385.917ZM404.609 479.296C514.15 467.446 584.152 423.263 643.316 385.917L643.849 386.763C584.671 424.117 514.503 468.414 404.716 480.29L404.609 479.296ZM274.194 451.021C293.797 474.846 331.88 487.164 404.609 479.296L404.716 480.29C331.91 488.167 293.364 475.893 273.421 451.656L274.194 451.021ZM256.626 407.737C259.21 424.319 264.392 439.108 274.194 451.021L273.421 451.656C263.467 439.559 258.238 424.578 255.638 407.891L256.626 407.737ZM254.649 353.699C254.057 372.78 254.042 391.155 256.626 407.737L255.638 407.891C253.039 391.21 253.057 372.756 253.649 353.668L254.649 353.699ZM255.23 337.715C255.021 343.081 254.813 348.415 254.649 353.699L253.649 353.668C253.813 348.38 254.022 343.041 254.231 337.676L255.23 337.715ZM255.231 337.69L255.231 337.712L254.231 337.68L254.232 337.659L255.231 337.69ZM255.232 337.668L255.231 337.691L254.232 337.659L254.233 337.635L255.232 337.668ZM255.233 337.638L255.232 337.668L254.233 337.635L254.234 337.606L255.233 337.638ZM248.961 239.395C257.889 269.667 256.535 304.259 255.233 337.642L254.234 337.603C255.537 304.181 256.875 269.763 248.002 239.678L248.961 239.395ZM220.998 192.146C235.131 205.711 243.779 221.822 248.961 239.395L248.002 239.678C242.86 222.241 234.292 206.291 220.306 192.868L220.998 192.146ZM160.119 160.177C187.245 167.564 206.865 178.582 220.998 192.146L220.306 192.868C206.316 179.441 186.856 168.494 159.856 161.142L160.119 160.177ZM-84.1842 167.924C-12.3575 146.22 73.3152 136.539 160.119 160.177L159.856 161.142C73.2821 137.567 -12.1927 147.215 -83.8949 168.881L-84.1842 167.924ZM-245.412 247.809C-213.991 223.354 -156.011 189.628 -84.1842 167.924L-83.8949 168.881C-155.603 190.549 -213.474 224.218 -244.797 248.598L-245.412 247.809ZM-245.324 247.107L-244.71 247.896L-245.499 248.51L-246.113 247.721L-245.324 247.107Z" fill="#1C3F77" fill-opacity="0.2"/>
</svg>
