<svg id="Layer_1" data-name="Layer 1" xmlns="http://www.w3.org/2000/svg" viewBox="0 0 409.84 334.85"><defs><style>.cls-1{fill:#fefefe;}</style></defs><title>1000 1</title><path class="cls-1" d="M-175.41,1718.79h-3.38a9.69,9.69,0,0,1-.37-2.91c0-43.68-.05-87.36.12-131,0-5.19-1.86-8.18-6.26-10.71q-91.43-52.44-182.63-105.23c-5.91-3.42-10.41-3.61-16.42-.11q-90.7,52.68-181.7,104.87c-10.91,6.29-10.82,15.43.19,21.77,13.38,7.72,26.7,15.55,40.19,23.08,3.18,1.77,4.36,3.71,4.34,7.36-.16,28.73,0,57.47-.13,86.2,0,4.34,1.13,7.51,5.21,9.84q67.44,38.65,134.73,77.57c3.75,2.17,7,2.16,10.7,0,12.17-7.16,24.45-14.13,36.68-21.17q49-28.23,98-56.48c5-2.87,6.42-7,4-11.12-2.22-3.83-6.51-4.62-11.32-2-.88.46-1.71,1-2.57,1.52q-63,36.31-126.06,72.69c-3.17,1.84-5.34,1.77-8.46,0q-61-35.37-122.19-70.39c-2.91-1.66-3.7-3.57-3.68-6.73.12-23.25.06-46.5.06-69.76,0-6.16,0-6.17,5.31-3.13q59.16,34.08,118.27,68.23c4.37,2.53,8,2.86,12.49.37q66.63-37,133.42-73.78c3.19-1.77,5.84-3.81,5.75-7.95-.09-3.9-2.63-5.76-5.65-7.49q-66.33-38.12-132.55-76.39c-4.94-2.86-8.79-3-13.77-.11q-62.25,36.16-124.76,71.93c-1.48.85-2.77,2.37-4.91,1.13-13.76-8-27.56-16-41.68-24.1,1.21-.83,2-1.44,2.8-1.92q86.13-49.67,172.22-99.36c2.63-1.52,4.46-1,6.8.36,15.21,8.87,30.49,17.62,45.75,26.4l128.69,74.12c2.08,1.21,4.12,2.06,4.11,5.4-.15,42.52-.1,85-.12,127.56,0,.5.08,1.06.09,1.6h-3.52L-208.65,1738l11.08,19.19h22.16l11.08-19.19ZM-477.3,1607.44q48.56-28,97.1-56c2.7-1.56,4.75-1.9,7.64-.22q58.19,33.75,116.5,67.26c.43.25.82.56,2,1.38l-32.3,17.9q-42.94,23.73-85.89,47.49c-2.21,1.22-3.94,2.2-6.74.57q-57.74-33.52-115.65-66.75c-.28-.17-.52-.4-1.13-.88C-489.52,1614.53-483.42,1611-477.3,1607.44Zm290.81,134.12a3.58,3.58,0,0,1-3.58-3.58,3.58,3.58,0,0,1,3.58-3.58,3.58,3.58,0,0,1,3.58,3.58A3.58,3.58,0,0,1-186.49,1741.56Z" transform="translate(574.18 -1466.25)"/></svg>